<svg width="210" height="131" viewBox="0 0 210 131" fill="none" xmlns="http://www.w3.org/2000/svg">
<g clip-path="url(#clip0_2121_1702)">
<path d="M45.6935 29.2964C45.6935 29.2964 63.5548 0 100.144 0C136.734 0 153.815 28.514 153.815 28.514H203.41L201.416 40.6846C201.416 40.6846 200.028 45.5529 197.774 46.0745H201.156C201.156 46.0745 202.283 50.4211 195.52 65.1997H209.999C209.999 65.1997 210.52 91.1057 179.306 103.276C179.306 103.276 163.179 108.405 154.942 99.6252C154.942 99.6252 138.468 130.313 100.144 130.313C61.8207 130.313 44.5664 98.7559 44.5664 98.7559H0L7.10981 85.9767H2.25433L7.97686 75.4578H17.6011L19.2485 71.4589H14.7398L25.8381 50.9427H32.0808L34.5953 44.6835H29.2196L37.4566 29.2964L45.6935 29.2964Z" fill="white"/>
<path d="M100.665 123.445C131.965 123.445 157.37 97.6257 157.37 65.7213C157.37 33.9038 131.965 8.08472 100.665 8.08472C69.364 8.08472 43.9595 33.9038 43.9595 65.7213C43.9595 97.6257 69.364 123.445 100.665 123.445Z" fill="#FDB927"/>
<path d="M106.907 65.4606H104.479C104.389 65.4667 104.305 65.5053 104.241 65.5693C104.177 65.6332 104.139 65.7181 104.132 65.8083C104.132 65.9822 104.306 66.0691 104.479 66.0691H106.994C107.861 66.0691 108.641 66.1561 108.381 66.5038L101.878 79.0221C101.77 79.3087 101.575 79.5541 101.321 79.7242C101.066 79.8944 100.765 79.9806 100.46 79.9711C100.154 79.9615 99.8595 79.8565 99.6163 79.6708C99.3732 79.4851 99.1939 79.228 99.1035 78.9352L95.8955 62.2441L107.167 53.4639C108.294 52.4207 110.462 50.8559 111.589 50.8559H114.103C115.577 50.8559 116.098 51.5513 115.751 52.5076L115.317 53.29C115.057 53.8116 114.104 53.8985 113.41 53.8985H111.936C111.901 53.8935 111.865 53.8967 111.831 53.908C111.797 53.9193 111.766 53.9384 111.741 53.9637C111.716 53.989 111.697 54.0199 111.685 54.0538C111.674 54.0878 111.671 54.1239 111.676 54.1593C111.676 54.3332 111.762 54.507 111.936 54.507H113.41C114.017 54.507 114.71 54.507 114.45 54.9417L109.248 65.0259C108.988 65.3737 107.861 65.4606 106.907 65.4606ZM126.502 71.6328C121.213 78.1528 118.265 80.3261 112.89 80.3261C111.069 80.3261 110.115 79.8915 110.549 79.0221L116.965 66.1561H119.393C122.08 66.1561 121.734 68.4164 121.04 71.5459C120.866 71.9806 121.213 71.9806 121.56 71.6328L127.629 60.9401C127.89 60.2446 127.109 60.1577 126.762 60.6793C123.728 64.7651 120.52 64.5043 119.132 64.5043H118.092L124.855 51.4644H127.629C131.098 51.6383 132.658 54.594 131.705 61.7225H133.092L138.121 51.8121C138.554 50.9428 137.687 50.1604 136.734 50.1604L102.745 50.2473C100.751 50.2473 100.664 51.7252 102.572 51.7252C104.132 51.7252 104.046 53.8985 102.658 54.9417L88.1787 66.5038L91.1267 80.0653C91.1995 80.5246 91.4493 80.9369 91.8223 81.2133C92.1953 81.4897 92.6616 81.6082 93.1209 81.5432H121.213C121.613 81.581 122.016 81.5125 122.382 81.3446C122.747 81.1768 123.062 80.9155 123.294 80.5869L128.323 71.8067C129.017 70.5028 127.456 70.5897 126.502 71.6328Z" fill="#552583"/>
<path d="M64.3349 67.9815H55.4042L66.6759 53.0291L64.3349 67.9815ZM62.2539 77.2833C61.9938 78.7612 60.4331 79.8044 58.5256 80.326L56.5314 80.8476L58.1788 77.8919C58.6123 77.0225 57.6586 76.5879 56.6181 77.8049C49.6817 85.8897 47.4274 89.8017 36.676 89.8017H33.8147C32.9477 89.8017 31.9939 89.454 32.6008 88.6716L36.4159 81.5431H50.8089C52.7164 81.5431 52.2829 80.0652 51.069 80.0652C50.6321 79.9942 50.2143 79.8341 49.8415 79.5949C49.4686 79.3557 49.1487 79.0423 48.9014 78.6743C48.7216 78.3526 48.6346 77.9872 48.6499 77.6188C48.6652 77.2504 48.7823 76.8935 48.9881 76.5879L54.4505 69.1986H63.6412L62.2539 77.2833ZM83.5834 80.0652C83.2788 80.0361 82.9882 79.9233 82.7434 79.7392C82.4986 79.5552 82.3093 79.307 82.1961 79.022C81.9152 78.1699 81.9459 77.2454 82.2828 76.414L95.3752 53.116C95.5487 52.6813 96.1556 51.7251 96.7625 51.7251C97.8897 51.7251 98.4099 50.2472 96.5024 50.2472H85.9244C84.0169 50.2472 84.0169 51.7251 85.8377 51.7251C85.9869 51.7147 86.1363 51.7428 86.2717 51.8068C86.407 51.8708 86.5237 51.9685 86.6106 52.0905C86.6976 52.2126 86.7519 52.3549 86.7684 52.504C86.7848 52.6531 86.7629 52.8039 86.7047 52.9421L83.8435 58.245C83.41 58.7666 82.6296 58.8536 81.7626 58.8536H79.3348C79.1614 58.8536 78.988 58.9405 78.988 59.1144C78.9941 59.2046 79.0326 59.2895 79.0964 59.3534C79.1601 59.4174 79.2449 59.456 79.3348 59.4621H81.7626C82.4562 59.4621 82.9764 59.636 82.6296 60.4184L72.9187 78.1527C72.225 79.109 70.8377 79.2828 70.9244 77.4572L74.3059 51.5512C74.4793 50.7688 74.3059 50.1603 73.4389 50.1603H68.2366C67.9699 50.1625 67.7087 50.2363 67.48 50.3739C67.2513 50.5114 67.0635 50.7078 66.936 50.9427L65.0285 53.2029C64.8551 53.4637 64.2482 53.4637 63.7279 53.4637H59.3927C59.3027 53.4699 59.218 53.5085 59.1542 53.5724C59.0905 53.6363 59.052 53.7212 59.0459 53.8115C59.0459 53.9853 59.2193 54.0723 59.3927 54.0723H62.9476C63.5545 54.0723 64.2482 54.2461 63.988 54.5938L59.0459 60.853C58.7596 61.0302 58.4284 61.1207 58.0921 61.1138H56.7048C56.5314 61.1138 56.358 61.2008 56.358 61.3746C56.3641 61.4648 56.4026 61.5497 56.4664 61.6137C56.5302 61.6776 56.6149 61.7162 56.7048 61.7223H57.832C58.1788 61.7223 58.1788 61.8962 58.0921 62.0701L53.41 67.9815C53.0335 68.1687 52.6161 68.2583 52.1962 68.2423H48.0343C47.8609 68.2423 47.7742 68.4162 47.7742 68.5901C47.7692 68.6255 47.7724 68.6616 47.7837 68.6955C47.795 68.7295 47.814 68.7603 47.8392 68.7857C47.8645 68.811 47.8952 68.83 47.9291 68.8413C47.963 68.8527 47.999 68.8559 48.0343 68.8509H51.5892C52.1962 68.8509 52.543 68.9378 52.2829 69.3725L45.6066 77.718C44.3927 79.3697 38.3234 80.1521 37.1095 80.1521L59.7395 37.8158C59.9207 37.4611 60.193 37.1614 60.5283 36.9474C60.8637 36.7335 61.2498 36.6131 61.647 36.5987H66.4158C68.6701 36.5987 68.6701 35.0339 66.6759 35.0339H42.5719C40.5777 35.0339 40.491 36.5987 42.832 36.5987H47.254C48.5546 36.5987 48.9014 37.2942 48.5546 37.9897L47.9476 39.1198C47.7742 39.4675 47.4274 39.6414 46.2135 39.6414H38.3234C38.15 39.6414 38.0633 39.8152 38.0633 39.9891C38.0582 40.0245 38.0615 40.0607 38.0727 40.0946C38.084 40.1286 38.103 40.1594 38.1283 40.1847C38.1535 40.21 38.1843 40.2291 38.2181 40.2404C38.252 40.2517 38.288 40.255 38.3234 40.2499H46.2135C46.647 40.2499 47.254 40.4238 46.9072 41.2061L45.78 43.2056C45.6066 43.5533 45.0864 43.6403 44.5661 43.6403H40.9245C40.7511 43.6403 40.6644 43.8141 40.6644 43.988C40.6644 44.1619 40.7511 44.3357 40.9245 44.3357H44.4794C44.9996 44.3357 45.0864 44.6835 44.7395 45.1181L42.2251 49.8125C41.965 50.2472 41.6182 50.3341 40.7511 50.3341H39.3638C39.1904 50.3341 39.017 50.421 39.017 50.5949C39.0231 50.6851 39.0616 50.77 39.1254 50.834C39.1892 50.8979 39.2739 50.9365 39.3638 50.9426H40.7511C41.2713 50.9426 41.4447 51.2034 41.1846 51.725L39.1037 55.637C38.7569 56.1586 38.3234 56.4194 36.9361 56.4194H29.0459C29.0106 56.4143 28.9746 56.4176 28.9407 56.4289C28.9069 56.4402 28.8761 56.4593 28.8509 56.4846C28.8256 56.5099 28.8066 56.5408 28.7953 56.5747C28.784 56.6087 28.7808 56.6448 28.7858 56.6802C28.7858 56.8541 28.8725 57.0279 29.0459 57.0279H36.9361C37.8031 57.0279 38.15 57.4626 37.8031 58.0711L33.728 65.7213C33.4679 66.069 32.861 66.1559 31.7338 66.1559H23.8436C23.6702 66.1559 23.4968 66.2429 23.4968 66.4167C23.5029 66.5069 23.5414 66.5919 23.6052 66.6558C23.669 66.7197 23.7537 66.7583 23.8436 66.7645H31.6471C32.6008 66.7645 33.2078 66.7645 32.9477 67.2861L30.6066 71.7196C30.1731 72.4151 28.9592 72.4151 28.439 72.4151H25.9246C25.8892 72.41 25.8532 72.4133 25.8193 72.4246C25.7855 72.4359 25.7547 72.455 25.7295 72.4803C25.7042 72.5056 25.6852 72.5365 25.6739 72.5704C25.6626 72.6044 25.6594 72.6405 25.6644 72.6759C25.6644 72.8498 25.7511 73.0236 25.9246 73.0236H28.439C29.306 73.0236 29.7396 73.1975 29.5662 73.6322L26.4448 79.5436C26.098 80.0652 24.8841 80.0652 23.9303 80.0652H11.7916C11.7017 80.0713 11.617 80.1099 11.5532 80.1739C11.4894 80.2378 11.4509 80.3227 11.4448 80.4129C11.4448 80.5868 11.6182 80.6737 11.7916 80.6737H23.9303C24.7974 80.6737 25.7511 80.8476 25.4043 81.4561L23.4101 85.1942C23.2367 85.542 22.5431 85.542 21.5026 85.542H19.0749C18.9849 85.5481 18.9002 85.5867 18.8364 85.6507C18.7727 85.7146 18.7342 85.7995 18.728 85.8897C18.728 86.0636 18.9015 86.1505 19.0749 86.1505H21.5026C22.1095 86.1505 22.8899 86.2374 22.6298 86.759L21.3292 89.1062C21.1853 89.4464 20.9434 89.7357 20.6344 89.937C20.3254 90.1384 19.9635 90.2426 19.5951 90.2364H13.439C11.1847 90.2364 11.2714 91.8012 13.2656 91.8012H49.1615C50.202 91.8012 50.2887 91.6273 50.7222 90.8449L56.0979 81.5431H83.3232C85.2308 81.5431 84.7972 80.0652 83.5834 80.0652Z" fill="#552583"/>
<path d="M153.121 62.9395C152.167 63.8089 150.607 64.6782 150.26 64.4174C149.514 63.778 148.7 63.224 147.832 62.7657L153.728 51.986C153.85 51.8037 154.02 51.6585 154.219 51.5665C154.417 51.4745 154.638 51.4392 154.855 51.4644C157.196 51.4644 157.89 53.8985 156.85 57.0281C156.069 59.2014 154.855 61.5486 153.121 62.9395ZM200.462 72.5892C200.289 71.8937 200.029 72.3284 199.595 73.1977C199.422 73.5454 198.988 73.5454 198.468 73.5454H197.081C197.003 73.5492 196.929 73.5761 196.867 73.6226C196.806 73.669 196.759 73.733 196.734 73.8062C196.729 73.853 196.735 73.9002 196.751 73.9445C196.767 73.9887 196.792 74.0289 196.825 74.0622C196.859 74.0954 196.899 74.1209 196.943 74.1367C196.987 74.1526 197.034 74.1585 197.081 74.1539H198.468C198.988 74.1539 198.988 74.5017 198.728 75.0233C197.859 76.9436 196.72 78.7293 195.347 80.3262C195.199 80.4731 195.023 80.5876 194.829 80.6624C194.635 80.7373 194.427 80.7708 194.219 80.7608L192.745 80.8478C192.572 80.8478 192.399 80.9347 192.399 81.1086C192.405 81.1988 192.443 81.2837 192.507 81.3476C192.571 81.4115 192.655 81.4501 192.745 81.4563H194.133C194.913 81.4563 194.133 81.8909 194.046 82.0648C192.312 84.4407 190.271 86.5748 187.977 88.4109C187.32 88.5384 186.648 88.5677 185.982 88.4979H184.508C184.335 88.4979 184.248 88.6717 184.248 88.8456C184.243 88.881 184.246 88.9171 184.258 88.9511C184.269 88.985 184.288 89.0159 184.313 89.0412C184.339 89.0665 184.369 89.0856 184.403 89.0969C184.437 89.1082 184.473 89.1114 184.508 89.1064L185.982 89.1933C187.023 89.1933 186.242 89.8018 186.069 89.8888C182.167 93.1922 176.271 94.2354 173.67 93.8877C165 92.8445 163.179 86.2376 162.572 83.5427C162.278 82.7805 162.046 81.9954 161.878 81.1954C161.618 79.8045 165.52 79.4568 166.56 80.1523C168.208 81.2824 172.023 82.4125 175.058 82.4125C177.832 82.4125 183.468 80.4131 185.115 75.6317C186.849 70.6766 182.601 65.2867 180.693 63.3742C178.352 61.027 176.098 57.202 177.052 54.4201C177.745 52.3338 178.959 51.3774 181.474 51.3774C184.855 51.3774 187.196 53.4638 187.196 56.5065C187.196 56.7673 187.11 57.115 186.849 57.115H185.722C185.632 57.1212 185.548 57.1598 185.484 57.2237C185.42 57.2876 185.382 57.3725 185.375 57.4628C185.375 57.6366 185.549 57.7235 185.722 57.7235H186.763C186.837 57.7185 186.912 57.7327 186.979 57.7647C187.047 57.7968 187.105 57.8456 187.149 57.9066C187.192 57.9675 187.219 58.0387 187.228 58.1131C187.236 58.1876 187.225 58.263 187.196 58.3321C187.023 59.3753 186.936 60.0707 186.676 61.1139C186.589 61.7225 187.456 62.0702 187.716 61.6355L192.919 52.3337C193.352 51.6382 192.485 51.4644 191.878 51.6382C190.404 52.1598 188.15 52.5076 187.283 51.899C185.468 50.4261 183.202 49.6276 180.867 49.6388C176.271 49.6388 172.977 50.7689 170.896 54.594C170.722 54.8548 170.289 54.8548 169.942 54.8548H168.988C168.815 54.8548 168.728 55.0286 168.728 55.2025C168.728 55.3764 168.815 55.5502 168.988 55.5502L169.769 55.4633C170.115 55.4633 170.289 55.6372 170.115 55.9849C170.029 56.3326 169.855 56.6804 169.769 57.0281C169.275 59.0521 169.427 61.1802 170.202 63.1134C170.289 63.2004 170.115 63.2873 169.769 63.2873H168.381C168.291 63.2934 168.207 63.332 168.143 63.396C168.079 63.4599 168.041 63.5448 168.034 63.635C168.034 63.8089 168.208 63.8958 168.381 63.8958H169.769C170.462 63.8958 170.549 63.9828 170.809 64.3305C171.589 65.3737 172.37 66.1561 173.237 67.3731C173.584 67.7209 172.283 67.8078 171.589 67.8078H166.04C165.948 67.8078 165.86 67.8444 165.795 67.9097C165.73 67.9749 165.693 68.0633 165.693 68.1555C165.693 68.2478 165.73 68.3362 165.795 68.4014C165.86 68.4666 165.948 68.5033 166.04 68.5033H171.676C172.63 68.5033 174.191 68.4163 174.364 68.6771C175.751 70.2419 177.399 72.6761 177.659 74.7624C177.745 75.371 177.485 75.6318 176.792 75.6318H176.011C175.976 75.6267 175.94 75.63 175.906 75.6413C175.872 75.6526 175.841 75.6717 175.816 75.697C175.791 75.7223 175.772 75.7531 175.761 75.7871C175.749 75.821 175.746 75.8571 175.751 75.8926C175.751 76.0664 175.838 76.2403 176.011 76.2403H176.705C177.312 76.2403 177.572 76.3272 177.485 76.7619C176.705 79.1091 175.664 80.8478 171.156 80.7608C166.387 80.7608 165.433 76.1534 166.821 71.2851C167.081 70.3289 166.821 69.8942 166.387 70.6766L163.092 75.8926C162.98 76.0081 162.845 76.0987 162.695 76.1586C162.546 76.2185 162.386 76.2463 162.225 76.2403H161.792C161.7 76.2403 161.611 76.2769 161.546 76.3422C161.481 76.4074 161.445 76.4958 161.445 76.588C161.445 76.6803 161.481 76.7687 161.546 76.8339C161.611 76.8991 161.7 76.9358 161.792 76.9358C162.139 76.9358 162.312 77.1096 162.139 77.3704L160.925 79.196C159.059 74.8814 156.702 70.7975 153.902 67.0254V66.9385C158.323 66.6777 164.74 62.5918 165.78 58.9406C167.601 52.5076 161.445 50.1604 158.063 50.1604H143.324C141.329 50.1604 141.243 51.7252 143.063 51.7252C144.104 51.7252 144.971 52.5945 144.537 53.4639L141.243 59.3753C140.982 59.8969 140.029 59.8969 138.641 59.8969H137.254C137.081 59.8969 136.907 59.9838 136.907 60.1577C136.913 60.2479 136.952 60.3328 137.016 60.3968C137.08 60.4607 137.164 60.4993 137.254 60.5054H138.641C139.595 60.5054 140.636 60.5054 140.289 61.2009L136.387 68.2425C136.214 68.5902 135.693 68.5902 134.393 68.5902H133.006C132.916 68.5963 132.831 68.6349 132.767 68.6989C132.703 68.7628 132.665 68.8477 132.659 68.9379C132.659 69.1118 132.832 69.1987 133.006 69.1987H134.393C135.433 69.1987 135.78 69.3726 135.52 69.8942L130.318 79.2829C129.711 79.9784 129.017 80.0653 127.717 80.0653C125.809 80.0653 125.896 81.5432 127.803 81.5432H140.462C142.456 81.5432 141.936 80.0653 140.809 80.0653C140.115 80.0653 139.422 78.7613 139.855 78.0659L146.271 65.7214H146.965C149.826 65.7214 150.52 70.5027 151.04 75.6318C151.127 75.9795 150.433 76.0664 148.959 76.0664H145.404C145.231 76.0664 145.058 76.1534 145.058 76.3272C145.064 76.4174 145.102 76.5024 145.166 76.5663C145.23 76.6302 145.314 76.6688 145.404 76.675H148.959C149.913 76.675 151.214 76.675 151.214 77.0227C151.38 79.038 151.67 81.0413 152.081 83.0211C152.254 83.6296 151.214 83.5427 150.173 83.5427H145.578C145.488 83.5488 145.403 83.5874 145.339 83.6513C145.276 83.7153 145.237 83.8002 145.231 83.8904C145.231 84.0643 145.404 84.1512 145.578 84.1512H150.173C151.56 84.1512 152.341 84.1512 152.428 84.4989C154.335 91.7144 162.832 97.4519 170.982 97.1042C178.092 96.8434 183.988 93.0183 187.023 90.4973C191.098 87.2808 197.081 80.4131 199.508 75.4579C199.942 74.5886 200.636 73.3715 200.462 72.5892Z" fill="#552583"/>
<path d="M81.8495 40.6846C81.3007 41.3361 80.6065 41.8489 79.8231 42.1812C79.0398 42.5135 78.1894 42.656 77.3408 42.5971H76.8206L79.942 36.4248C80.0232 36.2652 80.1475 36.1316 80.3009 36.0393C80.4542 35.9471 80.6302 35.9 80.809 35.9032C81.2425 35.9032 81.1558 35.1208 80.6356 35.1208H75.7801C75.3466 35.1208 75.1732 35.9032 75.6067 35.9032C76.0402 35.9032 76.0402 36.3379 75.8668 36.7726L73.0923 42.2494C72.8649 42.4942 72.557 42.6486 72.2252 42.684C71.7917 42.8579 71.5316 43.5533 72.0518 43.5533H79.8552C80.4622 43.5533 80.6356 43.3794 80.7223 43.1187L82.3697 40.6846C82.5431 40.4238 82.1096 40.3369 81.8495 40.6846Z" fill="#552583"/>
<path d="M105.433 35.2949C105.28 35.4014 105.099 35.4584 104.913 35.4584C104.727 35.4584 104.545 35.4014 104.393 35.2949C103.657 34.7647 102.783 34.4624 101.878 34.4255C100.057 34.4255 98.7569 34.7733 97.8898 36.5119C97.2829 37.9898 97.9766 39.2938 99.5372 39.9892C100.318 40.337 101.185 40.7716 100.838 41.641C100.578 42.2495 99.8841 42.3364 99.1904 42.3364C98.3234 42.2495 97.0228 41.641 96.8494 40.4239C96.7627 39.9892 96.3292 40.0762 96.1558 40.337L95.0286 42.5103C94.8552 42.858 95.2887 43.1188 95.5488 42.945C95.7464 42.739 96.005 42.6025 96.2861 42.5555C96.5672 42.5085 96.856 42.5536 97.1095 42.6842C97.9572 43.2743 98.9431 43.6337 99.9708 43.7274C100.777 43.7962 101.586 43.6372 102.306 43.2684C103.026 42.8997 103.629 42.3358 104.046 41.641C105 40.1631 104.393 38.6853 102.745 37.9029C101.792 37.4682 101.011 36.6858 101.445 35.9034C101.705 35.3818 102.485 35.4688 102.919 35.5557C103.326 35.6184 103.708 35.7882 104.028 36.0479C104.348 36.3075 104.594 36.6477 104.74 37.0336C104.758 37.0958 104.793 37.1516 104.842 37.1941C104.891 37.2366 104.951 37.2641 105.015 37.2733C105.079 37.2825 105.144 37.2729 105.203 37.2458C105.262 37.2187 105.312 37.1752 105.346 37.1204L105.867 35.7295C106.04 35.4687 105.607 35.2079 105.433 35.2949Z" fill="#552583"/>
<path d="M159.797 37.555L160.491 36.251C160.838 35.7294 160.318 35.1208 159.537 35.1208H150.346C149.74 35.1208 149.913 35.8163 150.173 35.8163C150.78 35.8163 150.953 36.5118 150.607 37.1203L147.832 42.1624C147.398 42.684 147.138 42.8579 146.618 42.8579C146.098 42.8579 145.925 43.5533 146.618 43.5533H155.896C156.242 43.5533 156.416 43.4664 156.503 43.2056L157.803 41.5539C158.15 41.2062 157.456 41.2062 157.283 41.38C156.667 41.9468 155.941 42.3787 155.15 42.6481C154.358 42.9176 153.52 43.0186 152.688 42.9448H151.647L152.861 40.076H153.121C153.988 40.076 154.942 40.076 155.115 40.6846C155.157 40.7359 155.21 40.7772 155.27 40.8056C155.33 40.834 155.396 40.8487 155.462 40.8487C155.528 40.8487 155.594 40.834 155.654 40.8056C155.714 40.7772 155.767 40.7359 155.809 40.6846L156.849 38.5112C157.023 38.1635 156.589 38.1635 156.416 38.3374C155.982 39.1198 154.075 38.9459 153.641 38.9459H153.381L154.942 35.8163H156.676C157.188 35.8156 157.689 35.974 158.108 36.2697C158.527 36.5655 158.845 36.9841 159.017 37.4681C159.104 37.6419 159.711 37.8158 159.797 37.555Z" fill="#552583"/>
<path d="M114.624 39.1198L117.659 36.6857V39.1198H114.624ZM136.387 35.1209H133.179C132.485 35.1209 132.659 35.8164 133.005 35.8164C133.186 35.8201 133.362 35.8713 133.517 35.9648C133.672 36.0582 133.799 36.1907 133.887 36.349C133.975 36.5074 134.02 36.686 134.017 36.8671C134.015 37.0482 133.965 37.2254 133.872 37.3812L132.572 39.8153L129.624 35.4686C129.317 35.186 128.914 35.0307 128.497 35.034H125.289C124.682 35.034 124.768 35.7294 125.115 35.7294C125.722 35.7294 125.549 36.251 125.375 36.5988L122.861 41.5539C122.811 41.6557 122.732 41.74 122.634 41.796C122.536 41.8519 122.423 41.8768 122.311 41.8674C122.198 41.858 122.091 41.8147 122.004 41.7433C121.916 41.6718 121.852 41.5755 121.82 41.467L119.826 35.034C119.739 34.7732 118.612 34.7732 118.266 35.034L113.323 39.1198H110.809C110.289 39.1198 110.029 39.3806 110.029 39.6414C110.029 39.9022 110.289 40.163 110.809 40.163H112.109L110.809 41.2932C110.029 41.8147 109.248 42.5971 108.815 42.5971H108.468C107.948 42.5971 107.688 42.6841 107.688 43.0318C107.688 43.4665 107.948 43.5534 108.381 43.5534H112.37C113.15 43.5534 112.977 42.5972 112.63 42.5972C112.478 42.5994 112.329 42.5554 112.203 42.4711C112.076 42.3867 111.979 42.2659 111.922 42.1246C111.866 41.9833 111.854 41.8282 111.887 41.6797C111.92 41.5313 111.998 41.3965 112.109 41.2932L113.323 40.1631H115.751C117.138 40.1631 118.179 41.8148 117.312 42.3364L116.618 42.6842C116.358 42.858 116.185 43.5535 116.618 43.5535H124.422C125.028 43.5535 124.942 42.7711 124.682 42.7711C123.815 42.7711 124.248 41.641 124.422 41.3802L126.416 37.4682L129.277 43.0319C129.537 43.3796 129.711 43.5535 129.971 43.5535H131.098C131.234 43.5646 131.37 43.5271 131.481 43.4475C131.592 43.368 131.671 43.2515 131.705 43.1188L135 37.1204C135.52 36.0773 135.953 35.8165 136.647 35.8165C136.907 35.8164 137.08 35.1209 136.387 35.1209Z" fill="#552583"/>
<path d="M90.9536 39.9892C90.0865 41.7278 88.6126 42.771 87.7455 42.3364C86.7918 41.9017 86.7051 40.0762 87.6588 38.3375C88.5259 36.5988 89.9131 35.5556 90.8669 35.9903C91.8206 36.5119 91.8206 38.2505 90.9536 39.9892ZM90.1733 34.6863C87.4854 34.6863 84.6241 36.0772 84.1039 38.946C83.9648 39.5742 83.9709 40.226 84.1218 40.8515C84.2726 41.477 84.5643 42.0595 84.9743 42.5546C85.3844 43.0496 85.902 43.444 86.4875 43.7076C87.0731 43.9711 87.711 44.0968 88.3524 44.075C91.3004 44.075 93.9883 42.1625 94.5085 39.3807C95.0287 36.5988 93.0345 34.6863 90.1733 34.6863Z" fill="#552583"/>
<path d="M145.664 38.9461H142.196C141.502 38.9461 141.676 39.6415 141.936 39.6415C142.018 39.632 142.101 39.6412 142.179 39.6685C142.257 39.6957 142.328 39.7402 142.386 39.7987C142.444 39.8573 142.489 39.9283 142.516 40.0064C142.543 40.0846 142.552 40.1678 142.543 40.2501C142.543 41.641 141.936 42.1626 140.635 42.1626C139.335 42.1626 138.814 40.5978 139.768 38.5983C140.112 37.8493 140.661 37.2142 141.353 36.7676C142.044 36.321 142.848 36.0815 143.67 36.0773C144.797 36.0773 145.751 36.3381 145.838 37.3813C145.924 37.6421 146.271 37.6421 146.445 37.3813L147.225 35.9034C147.312 35.7295 147.225 35.5557 146.965 35.5557C146.705 35.4687 146.271 35.8165 145.924 35.5557C144.909 34.9139 143.742 34.5538 142.543 34.5125C141.257 34.4314 139.976 34.7247 138.853 35.3571C137.73 35.9895 136.813 36.934 136.213 38.0767C134.566 40.8586 136.907 43.8143 139.075 43.8143C140.288 43.8143 141.762 42.945 142.543 42.5972L143.41 43.2058C143.59 43.4045 143.837 43.5286 144.103 43.5535H144.45C144.797 43.5535 144.884 43.1188 144.971 42.858L146.358 39.5546C146.531 39.2069 146.445 38.9461 145.664 38.9461Z" fill="#552583"/>
<path d="M193.959 35.2949C193.806 35.4014 193.625 35.4584 193.439 35.4584C193.253 35.4584 193.071 35.4014 192.919 35.2949C192.183 34.7647 191.309 34.4624 190.404 34.4255C188.583 34.4255 187.283 34.7733 186.416 36.5119C185.809 37.9898 186.502 39.2938 188.15 39.9892C188.843 40.337 189.711 40.7716 189.364 41.641C189.104 42.2495 188.41 42.3364 187.716 42.3364C186.849 42.2495 185.549 41.641 185.375 40.4239C185.289 39.9892 184.855 40.0762 184.682 40.337L183.554 42.5103C183.381 42.858 183.815 43.1188 184.075 42.945C184.272 42.7391 184.531 42.6025 184.812 42.5555C185.093 42.5085 185.382 42.5536 185.635 42.6842C186.483 43.2743 187.469 43.6337 188.497 43.7274C190.317 43.7274 191.618 43.2058 192.572 41.641C193.526 40.1631 193.005 38.6853 191.271 37.9029C190.317 37.4682 189.624 36.6858 189.971 35.9034C190.231 35.3818 191.011 35.4688 191.445 35.5557C191.851 35.6184 192.234 35.7882 192.554 36.0479C192.874 36.3075 193.12 36.6477 193.265 37.0336C193.284 37.0958 193.319 37.1516 193.368 37.1941C193.417 37.2366 193.477 37.2641 193.541 37.2733C193.605 37.2824 193.67 37.2729 193.729 37.2458C193.788 37.2187 193.838 37.1752 193.872 37.1204L194.393 35.7295C194.566 35.4687 194.132 35.2079 193.959 35.2949Z" fill="#552583"/>
<path d="M169.508 40.6846C168.294 42.1624 166.733 42.5971 164.913 42.5971H164.479L167.601 36.4248C167.663 36.2512 167.784 36.1046 167.942 36.0096C168.1 35.9146 168.285 35.877 168.468 35.9032C168.814 35.9032 168.814 35.1208 168.294 35.1208H163.352C162.918 35.1208 162.832 35.9032 163.179 35.9032C163.612 35.9032 163.699 36.3379 163.525 36.7726L160.664 42.2494C160.472 42.4922 160.191 42.6485 159.884 42.684C159.45 42.8579 159.19 43.5533 159.624 43.5533H167.427C168.034 43.5533 168.207 43.3794 168.381 43.1187L169.942 40.6846C170.202 40.4238 169.681 40.3369 169.508 40.6846Z" fill="#552583"/>
<path d="M181.3 35.8163C181.806 35.8406 182.295 36.0088 182.71 36.3013C183.124 36.5938 183.447 36.9984 183.641 37.468C183.728 37.6419 184.248 37.8158 184.421 37.555L185.115 36.251C185.375 35.7294 184.942 35.1208 184.161 35.1208H174.971C174.277 35.1208 174.537 35.8163 174.797 35.8163C175.404 35.8163 175.577 36.5118 175.144 37.1203L172.456 42.1624C172.322 42.3851 172.13 42.5674 171.901 42.6898C171.672 42.8123 171.415 42.8703 171.156 42.8578C170.722 42.8578 170.549 43.5533 171.156 43.5533H180.433C180.866 43.5533 181.04 43.4664 181.127 43.2056L182.427 41.5538C182.687 41.2061 182.08 41.2061 181.82 41.3799C181.225 41.9496 180.514 42.3842 179.736 42.6542C178.958 42.9242 178.131 43.0233 177.312 42.9447H176.184L177.485 40.0759H177.745C178.525 40.0759 179.479 40.0759 179.739 40.6845C179.772 40.735 179.817 40.7765 179.87 40.8052C179.923 40.8339 179.983 40.8489 180.043 40.8489C180.103 40.8489 180.162 40.8339 180.215 40.8052C180.268 40.7765 180.313 40.735 180.346 40.6845L181.473 38.5111C181.647 38.1634 181.127 38.1634 181.04 38.3373C180.606 39.1197 178.699 38.9458 178.179 38.9458H177.919L179.566 35.8163L181.3 35.8163Z" fill="#552583"/>
<path d="M110.549 13.9093C106.213 13.6485 102.659 13.4746 99.6238 13.8224C100.476 11.7163 101.885 9.88293 103.699 8.51944C106.496 8.65755 109.278 9.00626 112.023 9.56264C119.739 11.0405 131.705 15.8218 136.907 22.6895C129.971 18.0821 118.612 14.5178 110.549 13.9093ZM97.6296 14.0832C94.5901 14.4292 91.5775 14.9811 88.6123 15.7349C88.1788 14.6048 87.0516 11.1275 86.6181 9.99734C91.3823 8.66856 96.3385 8.1687 101.271 8.51948C100.057 9.4757 98.0631 13.04 97.6296 14.0832ZM75.8667 20.5162C75.3464 19.6469 72.832 17.2997 71.4447 16.865C74.6528 14.4309 82.0227 11.0405 84.884 10.432C85.3175 11.3013 86.6181 14.7786 87.0516 16.1695C84.5372 16.6911 77.9476 19.1253 75.8667 20.5162ZM145.231 28.4271C144.537 27.5578 143.583 25.8191 136.647 19.7338C126.329 10.7797 112.716 6.69385 99.9706 6.69385C90.6065 6.69385 82.3695 8.78024 73.1788 13.8224C61.5603 20.2554 56.7916 27.6447 55.5777 29.1226C54.7106 30.2527 54.6239 30.8612 55.1442 31.2089C55.5777 31.4697 56.358 30.6004 57.0517 29.6441C60.5199 25.0367 65.1152 20.5162 69.884 17.8213C71.358 18.0821 73.4389 20.1685 74.2193 21.2117C70.7448 23.3789 67.3875 25.7293 64.1615 28.2532C62.5141 29.5572 61.9939 30.2527 62.4274 30.7743C62.7742 31.2089 64.0748 30.4265 65.1152 29.5572C68.2754 27.038 71.6072 24.7432 75.0863 22.6895C76.9938 24.8628 76.3869 28.8617 75.6933 29.6441C75.3464 30.1657 75.3464 30.6004 75.6933 30.8612C76.1268 31.122 76.4736 30.5135 76.9938 29.7311C78.2944 27.9055 77.7742 23.5588 76.7337 21.994C80.0285 19.9077 84.7106 18.5167 87.5718 17.9082C87.8319 18.3429 91.3001 28.514 91.9938 30.3396C92.3406 31.3828 92.6874 32.5999 93.4678 32.3391C93.9013 32.2521 93.6412 31.122 93.2077 29.9919C92.6874 28.601 90.0863 20.0815 89.2192 17.5605C90.173 17.0389 95.8955 15.9087 97.3695 15.9087C96.6758 19.6469 99.277 21.2117 102.225 23.1242C103.786 24.1674 113.843 29.9049 115.924 31.2089C117.138 31.9913 118.092 32.426 118.352 32.0783C118.612 31.7305 117.832 30.8612 116.705 30.2527C115.838 29.7311 106.474 24.2543 102.572 21.8202C99.7972 19.9946 98.3232 18.169 98.9302 15.6479C99.8839 15.3871 102.658 15.3871 105.606 15.3871C125.549 15.561 141.502 26.9492 143.236 28.8618C144.19 29.7311 145.404 30.5135 145.924 30.1657C146.184 29.9049 145.664 28.8617 145.231 28.4271Z" fill="black"/>
<path d="M149.566 96.6694C150.347 95.3654 150.867 94.583 150.26 94.2353C149.74 93.8875 149.133 95.1915 148.439 96.4086C146.098 100.408 143.584 103.798 137.861 109.014C133.1 113.297 127.607 116.683 121.647 119.011C119.48 112.926 111.243 87.0198 110.983 86.2374C110.722 85.1073 110.376 84.8465 110.029 84.9334C109.595 85.1073 109.855 85.7158 110.115 86.6721C110.289 87.6284 120.087 118.403 120.433 119.446C118.526 120.402 110.549 122.662 105.087 122.836C100.144 123.01 94.3352 122.836 91.3872 122.141C88.0057 119.359 80.2023 108.318 77.2543 102.494C73.7861 95.5392 71.4451 89.1931 70.8381 86.4982C70.578 85.1942 70.2312 84.2379 69.5375 84.4118C68.8439 84.4987 69.2774 85.5419 69.711 86.9328C71.3059 92.3995 73.4256 97.6982 76.0404 102.755C79.9421 110.318 86.7918 119.272 88.7861 121.706C81.1305 120.033 73.9183 116.743 67.63 112.057C61.3873 107.362 56.0116 101.451 53.3237 97.104C52.8902 96.3216 52.37 95.2785 51.6763 95.7131C51.3295 95.9739 51.763 96.7564 52.1966 97.6256C56.0983 104.667 65.6358 114.665 77.9479 120.141C92.1675 126.487 107.688 126.14 121.647 120.75C133.786 116.055 144.364 106.319 149.566 96.6694Z" fill="black"/>
</g>
<defs>
<clipPath id="clip0_2121_1702">
<rect width="210" height="130.312" fill="white"/>
</clipPath>
</defs>
</svg>
