<svg width="146" height="147" viewBox="0 0 146 147" fill="none" xmlns="http://www.w3.org/2000/svg">
<path d="M134.253 72.2148L128.43 70.2298C137.297 66.6567 146.56 59.5106 145.634 44.5567C145.105 34.2346 140.473 25.1034 137.826 19.6777L128.033 0.092041L130.018 21.2657C130.68 27.8825 130.415 36.6166 127.901 41.3807C124.593 48.2621 113.476 47.6004 109.506 47.3358C102.493 46.8064 79.7309 46.1447 72.8495 46.1447C63.586 46.1447 53.5285 46.9388 45.3237 47.4681C41.3536 47.7328 38.0453 47.9974 35.7956 48.1298C35.5309 48.1298 35.2662 48.1298 34.7369 48.2621C20.3123 49.5855 17.798 42.8364 17.0039 40.5867C15.5483 36.4843 15.5483 27.3531 15.5483 23.3831V6.17947L8.13748 19.9423C5.88778 24.0447 1.65305 31.8525 0.197357 44.9537C-0.72899 63.3483 10.7842 68.7741 14.6219 70.4944C15.1512 70.7591 15.6806 70.8914 16.2099 71.1561C15.9453 71.2885 15.5483 71.2885 15.2836 71.4208C12.7692 72.2148 10.2548 73.4058 9.46083 73.8028L5.09376 75.9202L7.87281 79.8903C8.26981 80.4196 9.19616 81.6106 10.2548 82.6693C12.9015 85.1837 19.5183 89.2861 27.5908 88.3597C30.3698 87.9627 32.6195 87.5657 34.3399 87.0364C34.6045 87.9627 35.0016 88.8891 35.2662 89.6831C37.7806 95.7705 43.3387 107.548 45.456 111.651C46.9117 114.297 48.2351 116.812 49.2938 118.664L49.1614 118.797C48.8968 119.062 48.7644 119.194 48.4998 119.459L47.5734 120.65V121.973C47.5734 123.296 47.1764 134.677 55.1165 143.147L55.7782 143.808L56.5722 144.073C60.2776 145.529 65.0417 146.984 72.8495 146.984C80.7896 146.984 87.4063 145.132 90.0531 143.808L90.8471 143.411L91.3764 142.882C96.6698 136.53 99.0519 127.266 99.1842 123.429L99.3165 123.296H99.1842L99.0518 121.708L97.5962 120.253C97.3315 119.988 97.0668 119.723 96.8022 119.326C97.3315 118.267 97.9932 116.812 98.7872 115.224L98.9195 114.959C99.3165 114.033 99.7135 113.239 99.9782 112.842C101.963 108.872 108.051 96.0352 110.3 90.0801C110.83 88.7567 111.227 87.698 111.624 86.904C113.344 87.4334 115.594 87.9627 118.373 88.2274C126.445 89.0214 134.121 84.125 136.767 80.4196C136.9 80.2873 137.164 80.0226 137.297 79.7579L140.87 75.5232L135.973 73.2735C135.709 72.7441 135.312 72.6118 134.253 72.2148Z" fill="#FEFEFE"/>
</svg>
