<?xml version="1.0" encoding="utf-8"?>
<!-- Generator: Adobe Illustrator 27.0.0, SVG Export Plug-In . SVG Version: 6.00 Build 0)  -->
<svg version="1.1" id="Layer_1" xmlns="http://www.w3.org/2000/svg" xmlns:xlink="http://www.w3.org/1999/xlink" x="0px" y="0px"
	 viewBox="0 0 512 301" style="enable-background:new 0 0 512 301; rotate: 90deg" xml:space="preserve">
<style type="text/css">
	.st0{fill:#DAAC71;}
	.st1{fill:#A35C26;}
	.st2{fill:#FFFFFF;}
	.st3{fill:#4D4D4D;}
</style>
<g id="color">
	<rect x="34.4364281" y="11.6508293" class="st0" width="442.2084656" height="277.1681519"/>
	<rect x="34.4364281" y="114.1287003" class="st1" width="101.1351929" height="72.2123947"/>
	<rect x="376.0256958" y="114.1287003" class="st1" width="100.619194" height="72.2123947"/>
</g>
<g id="Layer_2_00000108283041577005028330000010454123121368543421_">
	<path class="st2" d="M467.3569641,151.5623169h-5.6759644c-0.7124329,0-1.289978-0.5942993-1.289978-1.3274231
		c0-0.733139,0.5775452-1.3274384,1.289978-1.3274384h5.6759644c0.7124634,0,1.289978,0.5942993,1.289978,1.3274384
		C468.6469421,150.9680176,468.0694275,151.5623169,467.3569641,151.5623169z"/>
	<path class="st2" d="M49.9163055,151.5623169h-5.6759567c-0.7124367,0-1.2899895-0.5942993-1.2899895-1.3274231
		c0-0.733139,0.5775528-1.3274384,1.2899895-1.3274384h5.6759567c0.7124367,0,1.2899895,0.5942993,1.2899895,1.3274384
		C51.206295,150.9680176,50.6287384,151.5623169,49.9163055,151.5623169z"/>
	<path class="st2" d="M58.9462318,161.1198425c-5.6995354,0-10.3199158-4.7544861-10.3199158-10.6194611
		c0-5.8649902,4.6203804-10.6194763,10.3199158-10.6194763s10.3199196,4.7544861,10.3199196,10.6194763
		C69.2661514,156.3653564,64.6457672,161.1198425,58.9462318,161.1198425z M58.9462318,142.5357666
		c-4.2746506,0-7.7399368,3.5658569-7.7399368,7.9646149c0,4.3987427,3.4652863,7.9645996,7.7399368,7.9645996
		s7.7399406-3.5658569,7.7399406-7.9645996l0,0C66.6861725,146.1016235,63.2208824,142.5357666,58.9462318,142.5357666z"/>
	<path class="st2" d="M476.6448975,290.1463928H34.4364204c-0.7124405,0-1.2899895-0.5942993-1.2899895-1.3274231V11.650836
		c0-0.73312,0.577549-1.3274336,1.2899895-1.3274336h442.2084656c0.7124329,0,1.289978,0.5943136,1.289978,1.3274336v277.1681213
		C477.9348755,289.5520935,477.3573303,290.1463928,476.6448975,290.1463928z M35.7264175,287.4915466h439.628479V12.9782696
		H35.7264099v274.5132751H35.7264175z"/>
	<path class="st2" d="M66.1701736,256.164093H34.4364281c-0.7124405,0-1.2899895-0.5942993-1.2899895-1.3274384
		s0.577549-1.3274384,1.2899895-1.3274384h31.7337456c55.5704575,0,100.619194-46.3563385,100.619194-103.5398102l0,0
		c0-57.0902557-45.139328-103.5398254-100.619194-103.5398254H34.4364281c-0.7124405,0-1.2899895-0.5943146-1.2899895-1.3274345
		s0.577549-1.3274345,1.2899895-1.3274345h31.7337456c56.9040298,0,103.1991653,47.6389389,103.1991653,106.1946945
		C169.369339,208.6191101,123.1655197,256.164093,66.1701736,256.164093z"/>
	<path class="st2" d="M135.5716248,187.6685181H34.4364281c-0.7124405,0-1.2899895-0.5942993-1.2899895-1.3274384
		s0.577549-1.3274384,1.2899895-1.3274384h99.8451996v-69.5575027H34.4364281c-0.7124405,0-1.2899895-0.5943222-1.2899895-1.3274384
		s0.577549-1.3274307,1.2899895-1.3274307h101.1351929c0.7124329,0,1.289978,0.5943146,1.289978,1.3274307v72.2123795
		C136.8616028,187.0742188,136.2840576,187.6685181,135.5716248,187.6685181z"/>
	<path class="st2" d="M134.5396271,187.6685181c-1.0681152,0-2.1517029-0.0530853-3.2146606-0.1592865
		c-0.7124329-0.0689087-1.2356873-0.719101-1.1687164-1.4522095c0.0669556-0.733139,0.6987915-1.2715607,1.4112396-1.2026672
		c0.9855499,0.0955811,1.9814148,0.1433868,2.9721375,0.1433868c0.7124481,0,1.2899933,0.5942993,1.2899933,1.3274231
		c0,0.733139-0.5775452,1.3274384-1.2899933,1.3274384V187.6685181z"/>
	<path class="st2" d="M125.5819473,186.36763c-0.122261,0.0002136-0.2439041-0.0176697-0.3612061-0.0530853
		c-1.9894485-0.5949554-3.9221039-1.3751831-5.7739944-2.3309937c-0.6369171-0.3299103-0.8933334-1.1286316-0.5727463-1.7840576
		c0.3205948-0.655426,1.0968246-0.919281,1.7337418-0.5893707l0,0c1.7088394,0.885025,3.4930801,1.6066284,5.3302307,2.1557465
		c0.6839523,0.205246,1.0767288,0.9421692,0.8772888,1.6459808c-0.1599731,0.5645447-0.6618576,0.9535065-1.2333298,0.9558105
		L125.5819473,186.36763z M114.9575958,180.8773499c-0.2793655,0.0015564-0.5514145-0.0917511-0.7739944-0.2654877
		c-1.6506424-1.2763977-3.1906281-2.6976471-4.602684-4.2477875c-0.5064392-0.5156555-0.5107727-1.3561249-0.0096893-1.877243
		c0.5010986-0.5211487,1.3178635-0.5256195,1.824295-0.0099792c0.0257492,0.0262146,0.0504227,0.0535431,0.0739365,0.0818939
		c1.3081894,1.4434814,2.7360153,2.7670593,4.2672806,3.9557648c0.5670929,0.4437561,0.6772461,1.2765503,0.2459946,1.8601227
		c-0.2435837,0.3296204-0.6227264,0.5233917-1.0251541,0.523941L114.9575958,180.8773499z M106.846138,171.93573
		c-0.4378357,0.0014038-0.8462143-0.2267151-1.0835953-0.6053162c-1.128418-1.7780914-2.1105042-3.6500854-2.9360199-5.5964355
		c-0.3050232-0.6625214-0.030365-1.4540558,0.613472-1.7679596c0.643837-0.3138733,1.4130554-0.03125,1.7180786,0.6312714
		c0.0113144,0.0245667,0.0218887,0.0494843,0.0317154,0.0747375c0.7687149,1.8117676,1.6835022,3.5541534,2.7347794,5.208847
		c0.3875885,0.6186371,0.2144394,1.4434509-0.386734,1.8423004
		C107.3314972,171.8600311,107.0916214,171.9337616,106.846138,171.93573z M102.0834961,160.7162628
		c-0.5924988,0.0002289-1.1083221-0.4165039-1.248703-1.0088654c-0.4977417-2.0643921-0.8325119-4.1667938-1.0010452-6.2866669
		c-0.0569916-0.733139,0.47435-1.3749847,1.1867828-1.4336395c0.7124405-0.0586548,1.3362045,0.4880981,1.3931961,1.2212372
		c0.1537552,1.9697571,0.4643936,3.9232483,0.9287949,5.8406982c0.1654587,0.7063141-0.2539291,1.4176636-0.9391174,1.592926
		c-0.1032028,0.0384064-0.2106781,0.063385-0.3199158,0.0743408L102.0834961,160.7162628z M101.1185913,148.5038757h-0.1186981
		c-0.707489-0.0561371-1.2368164-0.6917877-1.1822815-1.4198303c0.000206-0.0028229,0.0004272-0.0056763,0.0006561-0.0084839
		c0.1630936-2.1163788,0.4944305-4.2154541,0.990715-6.2761078c0.1724091-0.7126007,0.873558-1.1464386,1.5660553-0.9690399
		c0.6924896,0.1774292,1.1140976,0.898941,0.9416809,1.6115265l0,0c-0.4649048,1.9173584-0.7755508,3.8708801-0.9287949,5.8406982
		c-0.0506897,0.6853638-0.6014328,1.2175751-1.2693481,1.2265778L101.1185913,148.5038757z M103.992691,136.6260071
		c-0.715271-0.004837-1.2913132-0.6054535-1.2866135-1.3414764c0.0011368-0.1777954,0.0368347-0.3535461,0.1049881-0.516922
		c0.82341-1.9508057,1.8055801-3.8265076,2.9360123-5.6070862c0.3735199-0.6242828,1.1681213-0.8187866,1.7748032-0.434433
		c0.6066818,0.3843689,0.7956924,1.2020264,0.4221802,1.8263092c-0.0127945,0.0213928-0.0261688,0.0423889-0.040123,0.0629883
		c-1.0479507,1.6549225-1.9592896,3.3973083-2.7244568,5.208847c-0.2037582,0.4885406-0.6701736,0.8057251-1.1868057,0.8071136
		L103.992691,136.6260071z M110.5045624,126.3782272c-0.7152863-0.0019379-1.2936096-0.6002121-1.2917099-1.3362656
		c0.0008545-0.3331985,0.1229706-0.6539917,0.3422775-0.8991241c1.4127884-1.5474014,2.9508362-2.9684448,4.5975266-4.2477875
		c0.5699615-0.4398727,1.3785172-0.321022,1.8059845,0.2654877c0.4274673,0.5865021,0.3119659,1.4185333-0.2579956,1.8584061
		c-1.5320358,1.187706-2.9583588,2.5132751-4.2621307,3.9610596c-0.2455139,0.2589035-0.5824356,0.40448-0.9339676,0.4035568
		L110.5045624,126.3782272z M119.9988861,119.0136337c-0.7124252,0.005867-1.2945709-0.5836716-1.3002701-1.3167725
		c-0.0039597-0.5083237,0.2745438-0.9743347,0.7171936-1.2000427c1.8507843-0.9597473,3.7836227-1.7418137,5.7739944-2.3362732
		c0.6773071-0.2273636,1.4055099,0.1533203,1.6264496,0.8502884c0.2209473,0.6969833-0.1489944,1.4463043-0.8263016,1.6736603
		c-0.0273666,0.0091934-0.0550232,0.0174408-0.0829086,0.0247116c-1.8366776,0.5527725-3.6207581,1.2760849-5.3302307,2.1610718
		c-0.1787262,0.0952759-0.3766632,0.1462021-0.5779419,0.1486816L119.9988861,119.0136337z"/>
	<path class="st2" d="M131.4436493,115.6101227c-0.7124329,0.0337219-1.3165436-0.5332413-1.3493195-1.2663803
		c-0.0327911-0.7331161,0.5182037-1.3547668,1.2306366-1.3884888c1.0629578-0.1062012,2.1465454-0.1592865,3.2146606-0.1592865
		c0.7124481,0,1.2899933,0.5943146,1.2899933,1.3274384c0,0.7331161-0.5775452,1.3274307-1.2899933,1.3274307
		c-0.9907227,0-1.9865875,0.0477829-2.9721375,0.1433563L131.4436493,115.6101227z"/>
	<path class="st2" d="M134.5396271,187.6685181c-0.7124329,0-1.2899933-0.5942993-1.2899933-1.3274384
		s0.5775604-1.3274384,1.2899933-1.3274384c17.7812042,0,32.2497406-15.5999908,32.2497406-34.7787476
		s-14.4478912-34.7787476-32.2497406-34.7787476c-0.7124329,0-1.2899933-0.5943146-1.2899933-1.3274384
		c0-0.7331161,0.5775604-1.3274307,1.2899933-1.3274307c19.205368,0,34.8297119,16.7946854,34.8297119,37.4336166
		S153.7449951,187.6685181,134.5396271,187.6685181z"/>
	<path class="st3" d="M26.6964893,151.5623169H16.3765717c-0.7124405,0-1.2899895-0.5942993-1.2899895-1.3274231
		c0-0.733139,0.577549-1.3274384,1.2899895-1.3274384h9.8606815l17.1878223-14.4318542
		c0.5528526-0.4633331,1.3660469-0.3777466,1.8163033,0.1911621c0.4502563,0.5688934,0.3670959,1.4056854-0.1857567,1.8690186l0,0
		l-17.5438614,14.7292023C27.2809429,151.4569244,26.9932613,151.5618286,26.6964893,151.5623169z"/>
	<path class="st3" d="M44.2403488,168.6649933c-0.3307304,0.000473-0.6487999-0.1308441-0.8875122-0.3663788l-17.5438595-17.1026611
		c-0.4913616-0.5308533-0.4714851-1.3710938,0.0443954-1.8767242c0.4798927-0.4703369,1.2280655-0.489975,1.7306309-0.0454102
		l17.5438614,17.1026764c0.5158043,0.5056915,0.5355606,1.345932,0.0441208,1.876709
		C44.9290771,168.5155792,44.5924911,168.6643372,44.2403488,168.6649933z"/>
	<path class="st3" d="M44.2403488,173.3322296c-0.7124367,0-1.2899895-0.5942993-1.2899895-1.3274384v-43.0088196
		c0-0.7331238,0.5775528-1.3274384,1.2899895-1.3274384c0.7124405,0,1.2899895,0.5943146,1.2899895,1.3274384v43.0088196
		C45.5303383,172.7379303,44.9527855,173.3322296,44.2403488,173.3322296z"/>
	<path class="st3" d="M19.9885445,170.6773682h-8.2559338c-3.2760534-0.0029144-5.9311099-2.7350464-5.9339528-6.1062012
		v-29.7344971c0.0028429-3.3711548,2.6578994-6.1032715,5.9339528-6.1062012h8.2559338
		c3.2760525,0.0029297,5.9311085,2.7350464,5.9339523,6.1062012v29.7344971
		C25.9196472,167.9423218,23.2645969,170.6744537,19.9885445,170.6773682z M11.7326107,131.3853455
		c-1.8511715,0.0029144-3.3511305,1.5464172-3.3539734,3.4513245v29.7344971
		c0.0028429,1.9049225,1.5028019,3.44841,3.3539734,3.4513245h8.2559338
		c1.8511696-0.0029144,3.3511295-1.546402,3.3539715-3.4513245v-29.7344971
		c-0.0028419-1.9049072-1.5028019-3.44841-3.3539734-3.4513245H11.7326107z"/>
	<path class="st2" d="M476.6448975,256.164093h-31.2177429c-56.9953613,0-103.1991882-47.5449829-103.1991882-106.1946869
		c0-58.555748,46.2951355-106.1946945,103.1991882-106.1946945h31.2177429c0.7124329,0,1.289978,0.5943146,1.289978,1.3274345
		s-0.5775452,1.3274345-1.289978,1.3274345h-31.2177429c-55.4798889,0-100.6192017,46.4495621-100.6192017,103.5398254
		c0,57.1834717,45.0487366,103.5398102,100.6192017,103.5398102h31.2177429c0.7124329,0,1.289978,0.5942993,1.289978,1.3274384
		S477.3573303,256.164093,476.6448975,256.164093z"/>
	<path class="st2" d="M476.6448975,187.6685181H376.0256958c-0.7124634,0-1.289978-0.5942993-1.289978-1.3274384v-72.2123795
		c0-0.7331161,0.5775146-1.3274307,1.289978-1.3274307h100.6192017c0.7124329,0,1.289978,0.5943146,1.289978,1.3274307
		s-0.5775452,1.3274384-1.289978,1.3274384h-99.3292236v69.5575027h99.3292236c0.7124329,0,1.289978,0.5942993,1.289978,1.3274384
		S477.3573303,187.6685181,476.6448975,187.6685181z"/>
	<path class="st2" d="M377.0576782,187.6685181c-0.7124329,0-1.289978-0.5942993-1.289978-1.3274384
		s0.5775452-1.3274384,1.289978-1.3274384c0.9907227,0,1.9865723-0.0477905,2.9721375-0.1433716
		c0.7124634-0.0688934,1.3442993,0.4695282,1.4112549,1.2026672s-0.4562988,1.3833008-1.1687317,1.4522095
		C379.2093811,187.6154327,378.1309509,187.6685181,377.0576782,187.6685181z"/>
	<path class="st2" d="M386.0153809,186.36763c-0.7124329-0.0028839-1.2877197-0.5995483-1.2849121-1.3326569
		c0.0022583-0.5880737,0.380249-1.1045074,0.9288635-1.2691345c1.8371277-0.5490875,3.6213684-1.2707214,5.3302307-2.1557159
		c0.6369324-0.3299103,1.413147-0.0660553,1.7337646,0.5893707c0.3205872,0.655426,0.0641785,1.4541473-0.5727539,1.7840576
		c-1.8510132,0.96492-3.7836609,1.7540283-5.7740173,2.3575287
		C386.2579956,186.3675537,386.1363525,186.3764954,386.0153809,186.36763z M396.6655273,180.8773804
		c-0.7124634-0.000946-1.2892456-0.5960541-1.2883301-1.3291626c0.0005493-0.4141083,0.1888428-0.8042297,0.5091858-1.0549011
		c1.53125-1.1887054,2.9590759-2.5122833,4.2672729-3.9557648c0.4624634-0.5576782,1.2767029-0.6239777,1.8186646-0.1481018
		c0.5419312,0.4758759,0.6063843,1.3137512,0.1438904,1.8714294c-0.0235291,0.0283966-0.0482178,0.0557404-0.0740051,0.0820007
		c-1.4120483,1.5501404-2.9520569,2.9713898-4.6026917,4.2477875
		C397.2196045,180.7719879,396.9472961,180.8728638,396.6655273,180.8773804z M404.7769775,171.9357758
		c-0.715271-0.0057373-1.2905884-0.6070404-1.2850342-1.3430939c0.0018921-0.2526245,0.0735474-0.4994659,0.2065735-0.7117767
		c1.0512695-1.6546936,1.9660645-3.3970795,2.7347717-5.208847c0.3049622-0.6625519,1.0741577-0.945282,1.7180176-0.6314392
		c0.6161499,0.3003235,0.8988342,1.0421448,0.6452637,1.6933899c-0.825531,1.9463501-1.8075867,3.8183441-2.9360352,5.5964355
		c-0.2422485,0.3866425-0.662384,0.6158905-1.1093445,0.6053314H404.7769775z M409.5396118,160.7162933
		c-0.1062012-0.0010376-0.2119141-0.0152893-0.3147583-0.0424805c-0.6851807-0.1752625-1.1045837-0.8866272-0.9391174-1.592926
		c0.4644165-1.91745,0.7750244-3.8709412,0.928772-5.8406982c0.0570068-0.733139,0.6807556-1.279892,1.393219-1.2212372
		c0.7124329,0.0586548,1.2437744,0.7005005,1.1867676,1.4336395l0,0c-0.1690979,2.116333-0.5038452,4.2151794-1.0010376,6.2761078
		c-0.1510925,0.5955963-0.6816711,1.0050659-1.2796326,0.9875946H409.5396118z M410.5045166,148.5039062
		c-0.6720276-0.0005493-1.2310791-0.5319061-1.2848206-1.2212372c-0.1532593-1.9698181-0.4638977-3.9233398-0.9288025-5.8406982
		c-0.1724243-0.7125854,0.249176-1.4340973,0.9416809-1.6115265c0.6925049-0.1773987,1.3936157,0.2564392,1.5660706,0.9690399
		c0.4962769,2.0606537,0.8276062,4.159729,0.9906921,6.2761078c0.059082,0.7276611-0.4662476,1.3668365-1.1733704,1.4276428
		c-0.0027466,0.0002136-0.0055237,0.0004425-0.0082397,0.0006714H410.5045166z M407.6304016,136.6260376
		c-0.5153809-0.0004578-0.9814453-0.3153381-1.1867676-0.8017731c-0.7651978-1.8115387-1.6765137-3.5539246-2.7244873-5.208847
		c-0.4073181-0.6014862-0.2636719-1.4288635,0.3208618-1.8480072s1.3885803-0.2713165,1.7958679,0.3301697
		c0.0139771,0.0205841,0.0273438,0.0416107,0.0401306,0.062973c1.1304321,1.7805786,2.1126099,3.6562805,2.9360352,5.6070862
		c0.282135,0.6763763-0.0220032,1.4600372-0.6792603,1.7503815
		C407.9739685,136.58815,407.8031921,136.6248627,407.6304016,136.6260376z M401.1185303,126.3782654
		c-0.358429-0.0004425-0.700531-0.1543274-0.9442749-0.4247742c-1.303772-1.4477844-2.7301025-2.7733536-4.2621155-3.9610596
		c-0.5699463-0.4398727-0.6854858-1.271904-0.2579956-1.8584061c0.4274597-0.5865021,1.2360229-0.7053604,1.8059692-0.2654877l0,0
		c1.6461487,1.2780304,3.1825867,2.6991882,4.5923767,4.2477875c0.4873047,0.5347977,0.4610596,1.3748474-0.0586548,1.876297
		c-0.2399292,0.2315063-0.5567322,0.3599548-0.8856201,0.3591003L401.1185303,126.3782654z M391.6242065,119.0136642
		c-0.2008667-0.0008469-0.3987427-0.0499268-0.5779114-0.1433563c-1.7095032-0.8849869-3.4935608-1.6082993-5.3302612-2.1610641
		c-0.6905518-0.1802597-1.1083679-0.9024506-0.9332275-1.6130676c0.1751709-0.7106094,0.8770142-1.140564,1.5675964-0.9603119
		c0.0278625,0.0072937,0.0555115,0.0155258,0.0828857,0.0247116c1.9903564,0.5944595,3.9232178,1.3765335,5.7739868,2.3362808
		c0.6383972,0.3255081,0.8994446,1.1219025,0.5831299,1.7787933
		C392.5710754,118.7311478,392.1181946,119.0177307,391.6242065,119.0136642z"/>
	<path class="st2" d="M380.153656,115.6101227h-0.1238403c-0.9855347-0.0955734-1.9814148-0.1433563-2.9721375-0.1433563
		c-0.7124329,0-1.289978-0.5943146-1.289978-1.3274384c0-0.7331161,0.5775452-1.3274307,1.289978-1.3274307
		c1.0732727,0,2.1517029,0.0531006,3.2146606,0.1592865c0.7124329,0.0337219,1.2634277,0.6553726,1.2306519,1.3884888
		s-0.6368713,1.3001022-1.3493347,1.2663803V115.6101227z"/>
	<path class="st2" d="M377.0576782,187.6685181c-19.2053528,0-34.8297119-16.794693-34.8297119-37.4336243
		s15.6243591-37.4336166,34.8297119-37.4336166c0.7124634,0,1.2900085,0.5943146,1.2900085,1.3274307
		c0,0.7331238-0.5775452,1.3274384-1.2900085,1.3274384c-17.7812195,0-32.2497253,15.6000061-32.2497253,34.7787476
		s14.447876,34.7787476,32.2497253,34.7787476c0.7124634,0,1.2900085,0.5942993,1.2900085,1.3274384
		S377.7701416,187.6685181,377.0576782,187.6685181z"/>
	<path class="st3" d="M494.7047424,151.5623169h-9.8039246c-0.2967529-0.0004883-0.5844421-0.1053925-0.8152771-0.2973328
		l-17.5438538-14.7292023c-0.5528564-0.4633331-0.6360168-1.3001099-0.185791-1.8690186
		c0.4502869-0.5689087,1.2634888-0.65448,1.8163147-0.1911621l0,0l17.1878357,14.4318542h9.344696
		c0.7124634,0,1.2900085,0.5942993,1.2900085,1.3274384C495.994751,150.9680176,495.4172058,151.5623169,494.7047424,151.5623169z"
		/>
	<path class="st3" d="M467.3569641,168.6649933c-0.7124634-0.0013428-1.2889404-0.5967407-1.2876587-1.329834
		c0.0006409-0.3623657,0.1452332-0.7087097,0.4001465-0.9586639l17.5438843-17.1026764
		c0.4913635-0.530838,1.3078918-0.5513153,1.823761-0.0456848s0.5357971,1.345871,0.0444031,1.876709
		c-0.0295715,0.0319672-0.0606384,0.0623627-0.0931396,0.0911102l-17.5438538,17.1026611
		C468.0057678,168.5341949,467.6877136,168.6654663,467.3569641,168.6649933z"/>
	<path class="st3" d="M467.3569641,173.3322296c-0.7124634,0-1.289978-0.5942993-1.289978-1.3274384v-43.0088196
		c0-0.7331238,0.5775146-1.3274384,1.289978-1.3274384s1.289978,0.5943146,1.289978,1.3274384v43.0088196
		C468.6469421,172.7379303,468.0694275,173.3322296,467.3569641,173.3322296z"/>
	<path class="st3" d="M499.8647156,170.6773682h-8.2559509c-3.276062-0.0029144-5.9311218-2.7350464-5.93396-6.1062012v-29.7344971
		c0.0028381-3.3711548,2.6578979-6.1032715,5.93396-6.1062012h8.2559509
		c3.276062,0.0029297,5.9311218,2.7350464,5.9339294,6.1062012v29.7344971
		C505.7958374,167.9423218,503.1407776,170.6744537,499.8647156,170.6773682z M491.6087646,131.3853455
		c-1.8511658,0.0029144-3.3511353,1.5464172-3.3539734,3.4513245v29.7344971
		c0.0028381,1.9049225,1.5028076,3.44841,3.3539734,3.4513245h8.2559509
		c1.8511658-0.0029144,3.3511353-1.546402,3.3539734-3.4513245v-29.7344971
		c-0.0028381-1.9049072-1.5028076-3.44841-3.3539734-3.4513245H491.6087646z"/>
	<path class="st2" d="M452.6510925,161.1198425c-5.6995544,0-10.3199158-4.7544861-10.3199158-10.6194611
		c0-5.8649902,4.6203613-10.6194763,10.3199158-10.6194763c5.6995239,0,10.3199158,4.7544861,10.3199158,10.6194763
		C462.9710083,156.3653564,458.3506165,161.1198425,452.6510925,161.1198425z M452.6510925,142.5357666
		c-4.2746887,0-7.7399597,3.5658569-7.7399597,7.9646149c0,4.3987427,3.465271,7.9645996,7.7399597,7.9645996
		c4.2746582,0,7.7399292-3.5658569,7.7399292-7.9645996l0,0
		C460.3910217,146.1016235,456.9257507,142.5357666,452.6510925,142.5357666z"/>
	<path class="st2" d="M256.3146362,290.1463928c-0.7124481,0-1.289978-0.5942993-1.289978-1.3274231V11.650836
		c0-0.73312,0.5775299-1.3274336,1.289978-1.3274336c0.7124634,0,1.2900085,0.5943136,1.2900085,1.3274336v277.1681213
		C257.6046448,289.5520935,257.0270996,290.1463928,256.3146362,290.1463928z"/>
	<path class="st2" d="M256.5726624,187.6685181c-20.2333527,0-36.6357269-16.8784637-36.6357269-37.6991119
		s16.4023743-37.6991043,36.6357269-37.6991043s36.6356812,16.8784714,36.6356812,37.6991043l0,0
		C293.1856079,170.7803497,276.7965698,187.6451111,256.5726624,187.6685181z M256.5726624,114.9251633
		c-18.8084869,0-34.0557404,15.6898422-34.0557404,35.0442429s15.2472534,35.0442352,34.0557404,35.0442352
		c18.8084412,0,34.0557251-15.6898346,34.0557251-35.0442352
		C290.6056519,130.6247101,275.3716736,114.9485626,256.5726624,114.9251633z"/>
	<path class="st2" d="M183.0432281,300.2348938c-0.7124329,0-1.289978-0.5942993-1.289978-1.3274231v-20.177002
		c0-0.7331238,0.5775452-1.3274231,1.289978-1.3274231c0.7124481,0,1.2899933,0.5942993,1.2899933,1.3274231v20.177002
		C184.3332214,299.6405945,183.7556763,300.2348938,183.0432281,300.2348938z"/>
	<path class="st2" d="M327.5220947,300.2348938c-0.7124634,0-1.2900085-0.5942993-1.2900085-1.3274231v-20.177002
		c0-0.7331238,0.5775452-1.3274231,1.2900085-1.3274231c0.7124329,0,1.289978,0.5942993,1.289978,1.3274231v20.177002
		C328.8120728,299.6405945,328.2345276,300.2348938,327.5220947,300.2348938z"/>
	<path class="st2" d="M183.0432281,23.0667572c-0.7124329,0-1.289978-0.5943127-1.289978-1.3274345V1.5623329
		c0-0.7331203,0.5775452-1.3274336,1.289978-1.3274336c0.7124481,0,1.2899933,0.5943132,1.2899933,1.3274336v20.1769905
		C184.3332214,22.4724407,183.7556763,23.0667572,183.0432281,23.0667572z"/>
	<path class="st2" d="M327.5220947,23.0667572c-0.7124634,0-1.2900085-0.5943127-1.2900085-1.3274345V1.5623329
		c0-0.7331203,0.5775452-1.3274336,1.2900085-1.3274336c0.7124329,0,1.289978,0.5943132,1.289978,1.3274336v20.1769905
		C328.8120728,22.4724407,328.2345276,23.0667572,327.5220947,23.0667572z"/>
</g>
</svg>
