<?xml version="1.0" encoding="utf-8"?>
<!-- Generator: Adobe Illustrator 27.0.0, SVG Export Plug-In . SVG Version: 6.00 Build 0)  -->
<svg version="1.1" id="Layer_1" xmlns="http://www.w3.org/2000/svg" xmlns:xlink="http://www.w3.org/1999/xlink" x="0px" y="0px"
	 viewBox="0 0 666 391.5351562" style="enable-background:new 0 0 666 391.5351562; rotate : 90deg" xml:space="preserve">
<style type="text/css">
	.st0{fill:#DAAC71;}
	.st1{fill:#A35C26;}
	.st2{fill:#FFFFFF;}
	.st3{fill:#4D4D4D;}
</style>
<g id="color">
	<rect x="45.8178444" y="14.8700123" class="st0" width="576.0061035" height="361.0300293"/>
	<rect x="45.8178444" y="148.3542938" class="st1" width="131.7353516" height="94.06147"/>
	<rect x="490.7607117" y="148.3542938" class="st1" width="131.0632324" height="94.06147"/>
</g>
<g id="Layer_2_00000108283041577005028330000010454123121368543421_">
	<path class="st2" d="M609.725769,197.1140747h-7.3933105c-0.9279785,0-1.6802979-0.7741089-1.6802979-1.7290497
		c0-0.9549713,0.7523193-1.7290802,1.6802979-1.7290802h7.3933105c0.9280396,0,1.6802979,0.7741089,1.6802979,1.7290802
		C611.4060669,196.3399658,610.6538086,197.1140747,609.725769,197.1140747z"/>
	<path class="st2" d="M65.9814224,197.1140747h-7.3933182c-0.9279938,0-1.6802979-0.7741089-1.6802979-1.7290497
		c0-0.9549713,0.7523041-1.7290802,1.6802979-1.7290802h7.3933182c0.9279938,0,1.6802902,0.7741089,1.6802902,1.7290802
		C67.6617126,196.3399658,66.9094086,197.1140747,65.9814224,197.1140747z"/>
	<path class="st2" d="M77.7434998,209.5634003c-7.4240265,0-13.4423752-6.1930389-13.4423752-13.8325653
		c0-7.6395416,6.0183487-13.8325806,13.4423752-13.8325806s13.4423904,6.1930389,13.4423904,13.8325806
		C91.1858902,203.3703613,85.1675262,209.5634003,77.7434998,209.5634003z M77.7434998,185.3563995
		c-5.5680161,0-10.0817871,4.6447601-10.0817871,10.3744354c0,5.72966,4.5137711,10.3744202,10.0817871,10.3744202
		c5.5680237,0,10.0817947-4.6447601,10.0817947-10.3744202l0,0
		C87.8252945,190.0011597,83.3115234,185.3563995,77.7434998,185.3563995z"/>
	<path class="st2" d="M621.8239136,377.6290894H45.8178329c-0.9280014,0-1.6802979-0.7741089-1.6802979-1.7290344V14.8700209
		c0-0.9549379,0.7522964-1.7290707,1.6802979-1.7290707h576.0061035c0.9280396,0,1.6802979,0.7741327,1.6802979,1.7290707
		v361.0300293C623.5042114,376.8549805,622.7519531,377.6290894,621.8239136,377.6290894z M47.4981422,374.17099h572.6454468
		V16.5990925H47.4981308V374.17099H47.4981422z"/>
	<path class="st2" d="M87.1531677,333.3648987H45.8178444c-0.9280014,0-1.6802979-0.7741394-1.6802979-1.7290955
		s0.7522964-1.7290649,1.6802979-1.7290649h41.3353233c72.3842316,0,131.0632324-60.3822327,131.0632324-134.8675385l0,0
		c0-74.3638687-58.7969971-134.8675385-131.0632324-134.8675385H45.8178444c-0.9280014,0-1.6802979-0.7741356-1.6802979-1.7290726
		s0.7522964-1.7290726,1.6802979-1.7290726h41.3353233c74.1213074,0,134.4238129,62.0529022,134.4238129,138.3256836
		C221.5769806,271.4343567,161.3934174,333.3648987,87.1531677,333.3648987z"/>
	<path class="st2" d="M177.5531921,244.1448212H45.8178444c-0.9280014,0-1.6802979-0.7741089-1.6802979-1.7290802
		c0-0.9549561,0.7522964-1.7290802,1.6802979-1.7290802h130.0550537V150.083374H45.8178444
		c-0.9280014,0-1.6802979-0.7741547-1.6802979-1.7290802c0-0.9549408,0.7522964-1.7290649,1.6802979-1.7290649h131.7353516
		c0.9279938,0,1.6802826,0.7741241,1.6802826,1.7290649v94.0614471
		C179.2334747,243.3707123,178.4811859,244.1448212,177.5531921,244.1448212z"/>
	<path class="st2" d="M176.2089539,244.1448212c-1.3912964,0-2.8027344-0.0691528-4.1873169-0.207489
		c-0.9279785-0.0897522-1.6095581-0.936676-1.5223236-1.8915863c0.0872192-0.9549713,0.9102173-1.6562958,1.8382263-1.5665588
		c1.2837524,0.1244965,2.5809326,0.1867676,3.8714142,0.1867676c0.928009,0,1.6802979,0.7741089,1.6802979,1.7290649
		s-0.7522888,1.7290649-1.6802979,1.7290649V244.1448212z"/>
	<path class="st2" d="M164.5409698,242.4503326c-0.1592407,0.0002747-0.317688-0.0230255-0.4704895-0.0691528
		c-2.5913849-0.7749634-5.1087952-1.791275-7.5210114-3.0362701c-0.8296356-0.4297333-1.1636353-1.4701233-0.746048-2.3238525
		c0.4176025-0.8537445,1.4286957-1.1974335,2.258316-0.7677002l0,0c2.2258759,1.1528015,4.5499725,2.0927429,6.9429932,2.8079987
		c0.8908844,0.2673492,1.4025116,1.2272339,1.1427155,2.1439972c-0.208374,0.7353668-0.8621063,1.2420044-1.6064911,1.2450104
		L164.5409698,242.4503326z M150.7020416,235.2988739c-0.3638916,0.0020294-0.7182465-0.1195221-1.0081787-0.3458252
		c-2.1500702-1.6625824-4.1560059-3.513855-5.9953003-5.53302c-0.659668-0.6716766-0.6653137-1.766449-0.012619-2.4452362
		c0.65271-0.678833,1.7165985-0.6846619,2.3762665-0.0130005c0.0335388,0.0341492,0.0656738,0.0697479,0.0963135,0.1066742
		c1.7039948,1.8802338,3.5638428,3.6042786,5.5584106,5.1526489c0.738678,0.5780182,0.8821564,1.662796,0.3204193,2.4229279
		c-0.317276,0.4293518-0.811142,0.6817627-1.3353271,0.6824799L150.7020416,235.2988739z M140.1363373,223.6518097
		c-0.5703125,0.0018311-1.1022491-0.2953033-1.4114532-0.7884674c-1.4698486-2.3160858-2.7490845-4.7544708-3.8243713-7.2897339
		c-0.3973083-0.8629761-0.0395508-1.8939972,0.7990875-2.3028717c0.8386383-0.408844,1.8406067-0.0407104,2.237915,0.8222656
		c0.01474,0.0319977,0.0285187,0.0644531,0.0413055,0.0973511c1.0013123,2.3599548,2.1928864,4.6295166,3.5622406,6.7848663
		c0.5048523,0.8058167,0.2793121,1.8802032-0.5037537,2.3997192
		C140.7685394,223.5532074,140.4560852,223.6492462,140.1363373,223.6518097z M133.9326782,209.0377045
		c-0.7717743,0.0003052-1.4436646-0.5425262-1.6265259-1.3141174c-0.6483459-2.6890106-1.0843964-5.4275208-1.3039246-8.188797
		c-0.074234-0.9549713,0.6178741-1.7910156,1.5458679-1.8674164s1.7404938,0.635788,1.8147278,1.590744
		c0.2002716,2.5657349,0.6049042,5.1102905,1.2098083,7.6078949c0.2155304,0.9200287-0.3307495,1.8466034-1.2232513,2.0749054
		c-0.1344299,0.0500183-0.2744293,0.08255-0.4167175,0.0968323L133.9326782,209.0377045z M132.6758118,193.130249h-0.1546021
		c-0.9215546-0.0731201-1.6110382-0.9010925-1.5400085-1.849411c0.0002747-0.0036774,0.0005646-0.0074005,0.0008545-0.0110626
		c0.2124481-2.7567139,0.6440277-5.4909058,1.2904816-8.1750488c0.2245636-0.9282074,1.1378632-1.4933167,2.0398865-1.2622375
		c0.9020081,0.2311096,1.4511871,1.170929,1.2266083,2.0991211l0,0c-0.6055756,2.4974823-1.0102081,5.0420837-1.2098236,7.6078949
		c-0.0660248,0.892746-0.7834015,1.5859833-1.6534119,1.597702L132.6758118,193.130249z M136.4195251,177.6585388
		c-0.9316864-0.0063019-1.6820221-0.7886505-1.6759033-1.7473602c0.0014801-0.2315979,0.0479889-0.4605255,0.1367645-0.6733246
		c1.0725403-2.5410614,2.3518829-4.9842834,3.8243408-7.3036041c0.4865417-0.8131714,1.5215607-1.0665283,2.3117981-0.5658875
		c0.7902527,0.5006714,1.0364532,1.5657196,0.5499268,2.378891c-0.0166626,0.0278625-0.0340881,0.0552216-0.0522614,0.0820465
		c-1.365036,2.1556549-2.5521088,4.4252167-3.5487976,6.7848663c-0.2653961,0.6363678-0.8729401,1.0495148-1.5458832,1.0513306
		L136.4195251,177.6585388z M144.9016724,164.3101196c-0.9317017-0.002533-1.6850128-0.7818146-1.6825409-1.7405701
		c0.0011139-0.434021,0.1601868-0.8518677,0.4458466-1.1711731c1.8402557-2.0155945,3.8436584-3.8666077,5.9885864-5.5330353
		c0.7424164-0.5729523,1.7956085-0.4181519,2.352417,0.3458252c0.5567932,0.7639465,0.4063568,1.8477325-0.3360596,2.4207001
		c-1.995575,1.5470581-3.8534698,3.2736969-5.551712,5.1595459c-0.3197937,0.3372345-0.758667,0.5268555-1.2165527,0.52565
		L144.9016724,164.3101196z M157.2686615,154.7172394c-0.9279785,0.0076447-1.686264-0.7602692-1.6936798-1.7151794
		c-0.0051575-0.6621246,0.357605-1.2691345,0.9341888-1.5631409c2.4107666-1.2501373,4.928421-2.2688293,7.5210114-3.0431519
		c0.8822327-0.2961578,1.8307648,0.199707,2.1185608,1.1075592c0.287796,0.9078674-0.1940765,1.8839111-1.0763092,2.1800537
		c-0.0356445,0.0119781-0.0716705,0.0227203-0.1080017,0.032196c-2.392395,0.7200165-4.7162781,1.6621857-6.9429779,2.8149414
		c-0.2328033,0.1240997-0.4906311,0.1904297-0.7528076,0.1936646L157.2686615,154.7172394z"/>
	<path class="st2" d="M172.176239,150.2839355c-0.9279938,0.0439301-1.7148895-0.6945801-1.7575836-1.6495361
		c-0.0427094-0.9549408,0.6750031-1.764679,1.6029816-1.808609c1.3845825-0.1383209,2.7960205-0.2074738,4.1873169-0.2074738
		c0.928009,0,1.6802979,0.7741394,1.6802979,1.7290802c0,0.9549255-0.7522888,1.7290649-1.6802979,1.7290649
		c-1.2904816,0-2.5876617,0.0622406-3.8714142,0.1867371L172.176239,150.2839355z"/>
	<path class="st2" d="M176.2089539,244.1448212c-0.9279938,0-1.6802979-0.7741089-1.6802979-1.7290802
		c0-0.9549561,0.7523041-1.7290802,1.6802979-1.7290802c23.1612091,0,42.0074463-20.3200226,42.0074463-45.3016357
		s-18.8193512-45.301651-42.0074463-45.301651c-0.9279938,0-1.6802979-0.7741241-1.6802979-1.7290802
		c0-0.9549255,0.7523041-1.7290649,1.6802979-1.7290649c25.0162811,0,45.3680267,21.8762054,45.3680267,48.7597961
		S201.225235,244.1448212,176.2089539,244.1448212z"/>
	<path class="st3" d="M35.7360573,197.1140747H22.2936726c-0.9280014,0-1.6802979-0.7741089-1.6802979-1.7290497
		c0-0.9549713,0.7522964-1.7290802,1.6802979-1.7290802h12.8441982l22.3882866-18.7984619
		c0.7201271-0.6035156,1.7793694-0.4920349,2.3658562,0.2490082c0.5864906,0.7410278,0.4781685,1.8309937-0.2419586,2.4345245l0,0
		l-22.8520546,19.1857605C36.497345,196.9767914,36.1226196,197.1134491,35.7360573,197.1140747z"/>
	<path class="st3" d="M58.5881042,219.3914642c-0.4307976,0.0006104-0.8451042-0.1704407-1.156044-0.4772339l-22.852047-22.277359
		c-0.6400337-0.6914825-0.6141434-1.7859497,0.057827-2.4445648c0.6250916-0.6126404,1.5996361-0.6382294,2.254261-0.0591431
		l22.8520546,22.2773743c0.6718674,0.6586914,0.6976013,1.7531586,0.0574684,2.4445343
		C59.4852219,219.1968384,59.0467949,219.3906097,58.5881042,219.3914642z"/>
	<path class="st3" d="M58.5881042,225.4708405c-0.9279938,0-1.6802979-0.7741089-1.6802979-1.7290649v-56.0218658
		c0-0.9549408,0.7523041-1.7290802,1.6802979-1.7290802c0.9280014,0,1.6802979,0.7741394,1.6802979,1.7290802v56.0218658
		C60.2684021,224.6967316,59.5161018,225.4708405,58.5881042,225.4708405z"/>
	<path class="st3" d="M26.9985085,222.0127106H16.2446041c-4.2672796-0.0037994-7.725668-3.5625763-7.7293711-7.9537354v-38.7311707
		c0.0037031-4.3911591,3.4620914-7.9499207,7.7293711-7.9537354h10.7539043
		c4.2672787,0.0038147,7.725666,3.5625763,7.7293701,7.9537354v38.7311707
		C34.7241669,218.4501343,31.2657871,222.0089111,26.9985085,222.0127106z M16.2446041,170.8322296
		c-2.4112749,0.0037842-4.3650723,2.0143127-4.3687754,4.495575v38.7311707
		c0.0037031,2.4812927,1.9575005,4.4917908,4.3687754,4.495575h10.7539043
		c2.411272-0.0037842,4.3650703-2.0142822,4.3687725-4.495575v-38.7311707
		c-0.0037022-2.4812622-1.9575005-4.4917908-4.3687744-4.495575H16.2446041z"/>
	<path class="st2" d="M621.8239136,333.3648987h-40.663147c-74.2402954,0-134.4238586-61.930542-134.4238586-138.3256989
		c0-76.2727737,60.3024902-138.3256836,134.4238586-138.3256836h40.663147c0.9280396,0,1.6802979,0.7741356,1.6802979,1.7290726
		s-0.7522583,1.7290726-1.6802979,1.7290726h-40.663147c-72.2662964,0-131.0632629,60.5036621-131.0632629,134.8675385
		c0,74.4853058,58.6789856,134.8675385,131.0632629,134.8675385h40.663147c0.9280396,0,1.6802979,0.7741089,1.6802979,1.7290649
		S622.7519531,333.3648987,621.8239136,333.3648987z"/>
	<path class="st2" d="M621.8239136,244.1448212H490.7607117c-0.9280396,0-1.6802979-0.7741089-1.6802979-1.7290802v-94.0614471
		c0-0.9549408,0.7522583-1.7290649,1.6802979-1.7290649h131.0632019c0.9280396,0,1.6802979,0.7741241,1.6802979,1.7290649
		c0,0.9549255-0.7522583,1.7290802-1.6802979,1.7290802H492.440979v90.6032867h129.3829346
		c0.9280396,0,1.6802979,0.7741241,1.6802979,1.7290802C623.5042114,243.3707123,622.7519531,244.1448212,621.8239136,244.1448212z"
		/>
	<path class="st2" d="M492.1049194,244.1448212c-0.9279785,0-1.6802673-0.7741089-1.6802673-1.7290802
		c0-0.9549561,0.7522888-1.7290802,1.6802673-1.7290802c1.2904968,0,2.5876465-0.0622406,3.8714294-0.1867523
		c0.928009-0.0897369,1.7510376,0.6116028,1.8382263,1.5665588c0.0872192,0.9549713-0.5943298,1.8018494-1.5223389,1.8916016
		C494.9076538,244.0756683,493.5029297,244.1448212,492.1049194,244.1448212z"/>
	<path class="st2" d="M503.7729492,242.4503326c-0.928009-0.0037689-1.6773682-0.7809601-1.6737061-1.7358856
		c0.0029602-0.7660065,0.4953003-1.4386902,1.2098999-1.6531219c2.3930054-0.7152252,4.7171021-1.6552124,6.9429932-2.8079681
		c0.8296509-0.4297333,1.8406982-0.0860443,2.2583618,0.7677002c0.4176025,0.8537292,0.0835571,1.8941193-0.7460632,2.3238525
		c-2.4110718,1.2568665-4.9284668,2.284729-7.5210571,3.0708313
		C504.0889587,242.4502258,503.9305115,242.4618683,503.7729492,242.4503326z M517.6454468,235.2989044
		c-0.9280396-0.0012207-1.6793213-0.7763977-1.6781006-1.7313232c0.0006714-0.5393982,0.2459717-1.0475616,0.663208-1.3740692
		c1.9945679-1.5483704,3.8544312-3.2724152,5.5584106-5.1526489c0.602417-0.7264252,1.6630249-0.8127747,2.3689575-0.1929169
		c0.7058716,0.6198578,0.789856,1.7112427,0.187439,2.4376678c-0.0306396,0.0369873-0.0628052,0.0726013-0.0964355,0.1068115
		c-1.8392944,2.0191498-3.8452148,3.8704224-5.9953003,5.53302
		C518.3671875,235.1616211,518.0125122,235.2930298,517.6454468,235.2989044z M528.2111816,223.6518707
		c-0.9317017-0.0074768-1.6810913-0.7907104-1.6738281-1.7494659c0.0024414-0.329071,0.0957642-0.650589,0.269043-0.9271393
		c1.3693848-2.1553497,2.5609131-4.4249268,3.5622559-6.7848663c0.3972168-0.8630219,1.3991089-1.2312927,2.237793-0.8224945
		c0.8026123,0.3911896,1.1707764,1.3574524,0.8405151,2.2057495c-1.0753174,2.5352478-2.3544922,4.9736481-3.8244019,7.2897339
		c-0.3155518,0.5036316-0.862793,0.8022308-1.4450073,0.7884827H528.2111816z M534.4147949,209.0377502
		c-0.1383057-0.001358-0.276001-0.019928-0.4099731-0.0553436c-0.8925171-0.2282867-1.4387817-1.154892-1.2232666-2.0748901
		c0.6049194-2.4976044,1.0095215-5.04216,1.2097778-7.6078949c0.0742798-0.9549713,0.8867188-1.6671448,1.8147583-1.590744
		s1.6201172,0.9124451,1.5458374,1.8674164l0,0c-0.2202148,2.7566528-0.65625,5.4905396-1.303894,8.1750488
		c-0.1967773,0.7758026-0.8879395,1.3091583-1.6668091,1.2864075H534.4147949z M535.6716919,193.1302948
		c-0.8753662-0.0007172-1.6035767-0.6928406-1.673584-1.590744c-0.199646-2.5658264-0.604248-5.1104126-1.2098389-7.6078949
		c-0.2246094-0.9281921,0.324585-1.8680115,1.2266235-2.0991211c0.9020386-0.2310791,1.8152466,0.3340302,2.039917,1.2622375
		c0.6464233,2.6841431,1.0780029,5.4183197,1.2904053,8.1750488c0.0769653,0.9478302-0.6072998,1.7803955-1.5283813,1.8596039
		c-0.00354,0.0002747-0.0072021,0.0005646-0.0107422,0.0008698H535.6716919z M531.9279175,177.6585693
		c-0.6712646-0.0005951-1.2783813-0.4107361-1.5458374-1.0443573c-0.9967041-2.3596497-2.1837769-4.6292267-3.5488281-6.7848663
		c-0.5305176-0.7834778-0.3434448-1.8611908,0.4179688-2.4071503c0.7614136-0.5459747,1.8087158-0.3534088,2.3392334,0.430069
		c0.0181885,0.0268097,0.0356445,0.0541992,0.0522461,0.082016c1.4724731,2.3193207,2.7518311,4.762558,3.8244019,7.3036041
		c0.3674927,0.8810272-0.0286255,1.9017944-0.8847656,2.2799988
		C532.3754883,177.6092224,532.1530151,177.6570435,531.9279175,177.6585693z M523.4458008,164.3101654
		c-0.4668579-0.0005798-0.9124756-0.2010193-1.2299805-0.553299c-1.6982422-1.8858337-3.5561523-3.6124725-5.5516968-5.1595459
		c-0.7423706-0.5729523-0.8928833-1.6567383-0.3360596-2.4206848c0.5568237-0.7639618,1.6099854-0.9187927,2.352417-0.3458252l0,0
		c2.1442261,1.6647186,4.1455078,3.5158691,5.9818726,5.5330353c0.6347656,0.6966095,0.6005249,1.7908173-0.076416,2.4440002
		c-0.3125,0.3015442-0.7251587,0.4688568-1.1535645,0.4677429L523.4458008,164.3101654z M511.0787964,154.7172852
		c-0.2616272-0.0010986-0.5193787-0.065033-0.7527466-0.1867371c-2.2267456-1.1527557-4.5505981-2.0949097-6.9430237-2.8149261
		c-0.8995056-0.2348022-1.4437256-1.1755066-1.2156067-2.1011353c0.2281799-0.9256134,1.1423645-1.4856567,2.0419006-1.2508698
		c0.0362854,0.0095062,0.0722961,0.0202332,0.1079712,0.032196c2.5925598,0.7743225,5.11026,1.7930298,7.5209961,3.0431671
		c0.8315735,0.423996,1.1716003,1.4613495,0.759552,2.3169861
		C512.3121948,154.3492889,511.7222595,154.72258,511.0787964,154.7172852z"/>
	<path class="st2" d="M496.1376343,150.2839355h-0.1612854c-1.2837524-0.1244812-2.5809326-0.1867218-3.8714294-0.1867218
		c-0.9279785,0-1.6802673-0.7741394-1.6802673-1.7290802c0-0.9549255,0.7522888-1.7290649,1.6802673-1.7290649
		c1.3980103,0,2.8027344,0.0691681,4.1873169,0.2074738c0.928009,0.0439301,1.6456909,0.8536682,1.6029968,1.808609
		c-0.0426941,0.9549255-0.8295593,1.6934662-1.7575989,1.6495361V150.2839355z"/>
	<path class="st2" d="M492.1049194,244.1448212c-25.0162354,0-45.3680115-21.8762054-45.3680115-48.7597961
		s20.3517761-48.7597961,45.3680115-48.7597961c0.9280396,0,1.6803284,0.7741394,1.6803284,1.7290649
		c0,0.9549561-0.7522888,1.7290802-1.6803284,1.7290802c-23.1612244,0-42.0074158,20.3200531-42.0074158,45.301651
		s18.8193359,45.3016357,42.0074158,45.3016357c0.9280396,0,1.6803284,0.7741241,1.6803284,1.7290802
		C493.7852478,243.3707123,493.032959,244.1448212,492.1049194,244.1448212z"/>
	<path class="st3" d="M645.3480835,197.1140747h-12.7702637c-0.3865356-0.0006256-0.7612915-0.1372833-1.0619507-0.3872986
		l-22.8520508-19.1857605c-0.7200928-0.6035309-0.8284302-1.6934814-0.2420044-2.4345245
		c0.5865479-0.7410431,1.645813-0.8525085,2.3659058-0.2490082l0,0l22.3883057,18.7984619h12.1720581
		c0.9280396,0,1.6803589,0.7741089,1.6803589,1.7290802C647.0284424,196.3399658,646.276123,197.1140747,645.3480835,197.1140747z"
		/>
	<path class="st3" d="M609.725769,219.3914642c-0.9280396-0.0017548-1.678894-0.777298-1.6772461-1.7322083
		c0.0008545-0.4720001,0.1891479-0.9231415,0.5212402-1.2487183l22.8520508-22.2773743
		c0.6400146-0.691452,1.7036133-0.7181244,2.3756104-0.0595093c0.671936,0.6586151,0.697876,1.7530823,0.0578003,2.4445343
		c-0.0385132,0.0416412-0.0789795,0.0812378-0.1213379,0.1186829l-22.8519897,22.277359
		C610.5709229,219.2210846,610.1566162,219.3920746,609.725769,219.3914642z"/>
	<path class="st3" d="M609.725769,225.4708405c-0.9280396,0-1.6802368-0.7741089-1.6802368-1.7290649v-56.0218658
		c0-0.9549408,0.7521973-1.7290802,1.6802368-1.7290802s1.6802979,0.7741394,1.6802979,1.7290802v56.0218658
		C611.4060669,224.6967316,610.6538086,225.4708405,609.725769,225.4708405z"/>
	<path class="st3" d="M652.0692749,222.0127106h-10.7539062c-4.2672729-0.0037994-7.725647-3.5625763-7.7293701-7.9537354
		v-38.7311707c0.0037231-4.3911591,3.4620972-7.9499207,7.7293701-7.9537354h10.7539062
		c4.267334,0.0038147,7.725708,3.5625763,7.7293701,7.9537354v38.7311707
		C659.7949829,218.4501343,656.3366089,222.0089111,652.0692749,222.0127106z M641.3153687,170.8322296
		c-2.4112549,0.0037842-4.3650513,2.0143127-4.3687744,4.495575v38.7311707
		c0.0037231,2.4812927,1.9575195,4.4917908,4.3687744,4.495575h10.7539062
		c2.4113159-0.0037842,4.3651123-2.0142822,4.3687744-4.495575v-38.7311707
		c-0.0036621-2.4812622-1.9574585-4.4917908-4.3687744-4.495575H641.3153687z"/>
	<path class="st2" d="M590.5704346,209.5634003c-7.4240723,0-13.4423828-6.1930389-13.4423828-13.8325653
		c0-7.6395416,6.0183105-13.8325806,13.4423828-13.8325806c7.4240112,0,13.4423218,6.1930389,13.4423218,13.8325806
		C604.0127563,203.3703613,597.9944458,209.5634003,590.5704346,209.5634003z M590.5704346,185.3563995
		c-5.5681152,0-10.0818481,4.6447601-10.0818481,10.3744354c0,5.72966,4.5137329,10.3744202,10.0818481,10.3744202
		c5.5679932,0,10.0817261-4.6447601,10.0817261-10.3744202l0,0
		C600.6521606,190.0011597,596.1384277,185.3563995,590.5704346,185.3563995z"/>
	<path class="st2" d="M334.8290405,377.6290894c-0.928009,0-1.6802673-0.7741089-1.6802673-1.7290344V14.8700209
		c0-0.9549379,0.7522583-1.7290707,1.6802673-1.7290707c0.9280396,0,1.6803284,0.7741327,1.6803284,1.7290707v361.0300293
		C336.5093689,376.8549805,335.7570801,377.6290894,334.8290405,377.6290894z"/>
	<path class="st2" d="M335.1651306,244.1448212c-26.3552856,0-47.7204895-21.9853363-47.7204895-49.1056213
		s21.3652039-49.1055908,47.7204895-49.1055908c26.3553162,0,47.7204285,21.9853363,47.7204285,49.1055908l0,0
		C382.855957,222.1468506,361.5081177,244.1143341,335.1651306,244.1448212z M335.1651306,149.3917389
		c-24.4992981,0-44.3598633,20.4370728-44.3598633,45.6474609s19.8605652,45.6474609,44.3598633,45.6474609
		c24.4992676,0,44.3598633-20.4370575,44.3598633-45.6474609
		C379.4953918,169.8414459,359.6520996,149.4222107,335.1651306,149.3917389z"/>
	<path class="st2" d="M239.3881378,390.77005c-0.9279938,0-1.6802826-0.7741089-1.6802826-1.7290649v-26.2818909
		c0-0.9549255,0.7522888-1.7290649,1.6802826-1.7290649c0.928009,0,1.6802979,0.7741394,1.6802979,1.7290649v26.2818909
		C241.0684357,389.9959412,240.3161469,390.77005,239.3881378,390.77005z"/>
	<path class="st2" d="M427.5815125,390.77005c-0.9280396,0-1.6803284-0.7741089-1.6803284-1.7290649v-26.2818909
		c0-0.9549255,0.7522888-1.7290649,1.6803284-1.7290649c0.928009,0,1.6802979,0.7741394,1.6802979,1.7290649v26.2818909
		C429.2618103,389.9959412,428.5095215,390.77005,427.5815125,390.77005z"/>
	<path class="st2" d="M239.3881378,29.7400208c-0.9279938,0-1.6802826-0.7741318-1.6802826-1.7290707V1.729071
		C237.7078552,0.7741328,238.460144,0,239.3881378,0c0.928009,0,1.6802979,0.7741327,1.6802979,1.729071v26.2818794
		C241.0684357,28.9658852,240.3161469,29.7400208,239.3881378,29.7400208z"/>
	<path class="st2" d="M427.5815125,29.7400208c-0.9280396,0-1.6803284-0.7741318-1.6803284-1.7290707V1.729071
		c0-0.9549382,0.7522888-1.729071,1.6803284-1.729071c0.928009,0,1.6802979,0.7741327,1.6802979,1.729071v26.2818794
		C429.2618103,28.9658852,428.5095215,29.7400208,427.5815125,29.7400208z"/>
</g>
</svg>
