<?xml version="1.0" encoding="utf-8"?>
<!-- Generator: Adobe Illustrator 27.0.0, SVG Export Plug-In . SVG Version: 6.00 Build 0)  -->
<svg version="1.1" id="Layer_1" xmlns="http://www.w3.org/2000/svg" xmlns:xlink="http://www.w3.org/1999/xlink" x="0px" y="0px"
	 viewBox="0 0 974.29785 570.21277" style="enable-background:new 0 0 974.29785 570.21277;rotate: 90deg" xml:space="preserve">
<style type="text/css">
	.st0{fill:#DAAC71;}
	.st1{fill:#A35C26;}
	.st2{fill:#FFFFFF;}
	.st3{fill:#4D4D4D;}
</style>
<g id="color">
	<rect x="57.82979" y="23.59575" class="st0" width="857" height="522"/>
	<rect x="57.82979" y="216.59575" class="st1" width="196" height="136"/>
	<rect x="719.82977" y="216.59575" class="st1" width="195" height="136"/>
</g>
<g id="Layer_2_00000108283041577005028330000010454123121368543421_">
	<path class="st2" d="M896.82977,287.09573h-11c-1.38074,0-2.5-1.11926-2.5-2.5s1.11926-2.5,2.5-2.5h11
		c1.38074,0,2.5,1.11926,2.5,2.5S898.21051,287.09573,896.82977,287.09573z"/>
	<path class="st2" d="M87.82979,287.09573h-11c-1.38071,0-2.5-1.11926-2.5-2.5s1.11929-2.5,2.5-2.5h11
		c1.38071,0,2.5,1.11926,2.5,2.5S89.21049,287.09573,87.82979,287.09573z"/>
	<path class="st2" d="M105.32979,305.09573c-11.0457,0-20-8.95428-20-20s8.9543-20,20-20s20,8.95428,20,20
		S116.37549,305.09573,105.32979,305.09573z M105.32979,270.09573c-8.28427,0-15,6.7157-15,15s6.71573,15,15,15s15-6.7157,15-15l0,0
		C120.32979,276.81143,113.61406,270.09573,105.32979,270.09573z"/>
	<path class="st2" d="M914.82977,548.09576h-857c-1.38071,0-2.5-1.11926-2.5-2.5v-522c0-1.38071,1.11929-2.5,2.5-2.5h857
		c1.38074,0,2.5,1.11929,2.5,2.5v522C917.32977,546.9765,916.21051,548.09576,914.82977,548.09576z M60.32979,543.09576h852v-517
		h-852V543.09576z"/>
	<path class="st2" d="M119.32979,484.09573h-61.5c-1.38071,0-2.5-1.11926-2.5-2.5s1.11929-2.5,2.5-2.5h61.5
		c107.69553,0,194.99998-87.30444,194.99998-195l0,0c0-107.51997-87.48-195-194.99998-195h-61.5c-1.38071,0-2.5-1.11929-2.5-2.5
		s1.11929-2.5,2.5-2.5h61.5c110.28,0,199.99998,89.72001,199.99998,200C319.32977,394.5527,229.78676,484.09573,119.32979,484.09573
		z"/>
	<path class="st2" d="M253.82979,355.09573h-196c-1.38071,0-2.5-1.11926-2.5-2.5s1.11929-2.5,2.5-2.5h193.5V219.09575h-193.5
		c-1.38071,0-2.5-1.11929-2.5-2.5s1.11929-2.5,2.5-2.5h196c1.38071,0,2.49998,1.11929,2.49998,2.5v135.99998
		C256.32977,353.97647,255.21049,355.09573,253.82979,355.09573z"/>
	<path class="st2" d="M251.82979,355.09573c-2.07001,0-4.17001-0.09998-6.23001-0.29999
		c-1.38071-0.12976-2.39478-1.35431-2.26498-2.73499c0.12976-1.38074,1.35428-2.39478,2.73499-2.26501
		c1.91,0.17999,3.84,0.27002,5.76001,0.27002c1.38071,0,2.5,1.11926,2.5,2.5s-1.11929,2.5-2.5,2.5V355.09573z"/>
	<path class="st2" d="M234.4698,352.64572c-0.23694,0.00043-0.47269-0.03326-0.70001-0.09998
		c-3.85556-1.12048-7.60104-2.5899-11.19-4.39001c-1.23434-0.62134-1.73129-2.12561-1.10999-3.35999
		s2.12564-1.73132,3.35999-1.10999l0,0c3.31174,1.66681,6.76959,3.02582,10.32999,4.06
		c1.3255,0.38654,2.0867,1.77441,1.7002,3.09991c-0.31003,1.06323-1.28268,1.79578-2.3902,1.80011L234.4698,352.64572z
		 M213.87981,342.30569c-0.54141,0.00293-1.06863-0.17279-1.5-0.5c-3.19894-2.40387-6.18344-5.08057-8.92-8
		c-0.98148-0.97113-0.98988-2.55402-0.01878-3.53546c0.97113-0.98151,2.55402-0.98993,3.53549-0.0188
		c0.0499,0.04938,0.09772,0.10083,0.14328,0.15424c2.53528,2.71857,5.3024,5.2113,8.26999,7.45001
		c1.09903,0.83575,1.3125,2.40417,0.47675,3.50323c-0.47208,0.62079-1.20685,0.98572-1.98676,0.98676L213.87981,342.30569z
		 M198.15981,325.46567c-0.84853,0.00262-1.63997-0.427-2.10001-1.14001c-2.18687-3.34875-4.09016-6.87433-5.69-10.53998
		c-0.59114-1.24774-0.05885-2.73846,1.1889-3.32965c1.24776-0.59113,2.73849-0.05884,3.32964,1.1889
		c0.02193,0.04626,0.04242,0.0932,0.06146,0.14075c1.48978,3.41217,3.26263,6.69366,5.3,9.81
		c0.75114,1.1651,0.41559,2.71851-0.7495,3.46967C199.10043,325.32309,198.63554,325.46194,198.15981,325.46567z
		 M188.92981,304.33566c-1.14827,0.00043-2.14793-0.78442-2.42-1.90002c-0.96461-3.88794-1.6134-7.84747-1.94002-11.8399
		c-0.11046-1.38074,0.91928-2.58954,2.29999-2.70001s2.58955,0.91925,2.70001,2.29999c0.29797,3.70972,0.89999,7.38879,1.8,11
		c0.32066,1.3302-0.49211,2.66992-1.82001,3c-0.20001,0.07233-0.40829,0.11938-0.62,0.14001L188.92981,304.33566z
		 M187.05981,281.33566h-0.23003c-1.37112-0.10571-2.39696-1.30286-2.29128-2.67401
		c0.00041-0.00531,0.00084-0.01068,0.00128-0.01599c0.31607-3.98584,0.95821-7.93909,1.92-11.82001
		c0.33414-1.34204,1.69296-2.15912,3.03502-1.82501c1.34204,0.33417,2.15912,1.69299,1.82498,3.03503l0,0
		c-0.90099,3.61102-1.50302,7.29016-1.8,11c-0.09824,1.29077-1.16559,2.29309-2.46001,2.31006L187.05981,281.33566z
		 M192.62982,258.96567c-1.3862-0.00909-2.50256-1.14026-2.49345-2.52643c0.0022-0.33487,0.07138-0.66585,0.20346-0.97356
		c1.59578-3.67401,3.49922-7.20657,5.69-10.56c0.72388-1.17575,2.26381-1.54205,3.43956-0.81818s1.54205,2.26379,0.81819,3.43954
		c-0.0248,0.04028-0.05072,0.07983-0.07776,0.11862c-2.03093,3.11676-3.7971,6.39825-5.28,9.80998
		c-0.39488,0.9201-1.2988,1.51746-2.30003,1.52008L192.62982,258.96567z M205.24983,239.6657
		c-1.38623-0.00366-2.50702-1.1304-2.50334-2.51663c0.00166-0.62753,0.23833-1.23169,0.66335-1.69336
		c2.73798-2.91428,5.71872-5.59058,8.91-8c1.10458-0.82843,2.67157-0.60458,3.5,0.5s0.60458,2.67157-0.5,3.5
		c-2.96909,2.23685-5.73331,4.73334-8.26001,7.45999c-0.4758,0.48761-1.12875,0.76178-1.81003,0.76004L205.24983,239.6657z
		 M223.64983,225.7957c-1.38068,0.01105-2.50888-1.09924-2.51993-2.47992c-0.00766-0.95734,0.53207-1.83499,1.38992-2.26007
		c3.58682-1.80753,7.33267-3.28043,11.19-4.39999c1.31262-0.42819,2.72388,0.28876,3.15207,1.60138
		c0.42819,1.31265-0.28876,2.72388-1.60138,3.15207c-0.05304,0.0173-0.10663,0.03284-0.16068,0.04654
		c-3.55948,1.04105-7.01703,2.40329-10.32999,4.07001c-0.34637,0.17944-0.72998,0.27536-1.12006,0.28003L223.64983,225.7957z"/>
	<path class="st2" d="M245.82979,219.38576c-1.38071,0.06351-2.55148-1.00427-2.61499-2.38501
		c-0.06354-1.38071,1.00427-2.55148,2.38498-2.61499c2.06-0.20001,4.16-0.29999,6.23001-0.29999c1.38071,0,2.5,1.11929,2.5,2.5
		s-1.11929,2.5-2.5,2.5c-1.92001,0-3.85001,0.09-5.76001,0.26999L245.82979,219.38576z"/>
	<path class="st2" d="M251.82979,355.09573c-1.38071,0-2.5-1.11926-2.5-2.5s1.11929-2.5,2.5-2.5
		c34.45998,0,62.49998-29.38,62.49998-65.5s-28-65.49998-62.49998-65.49998c-1.38071,0-2.5-1.11929-2.5-2.5s1.11929-2.5,2.5-2.5
		c37.21999,0,67.49998,31.63,67.49998,70.49998S289.04977,355.09573,251.82979,355.09573z"/>
	<path class="st3" d="M42.82979,287.09573h-20c-1.38071,0-2.5-1.11926-2.5-2.5s1.11929-2.5,2.5-2.5h19.11l33.31-27.17998
		c1.07143-0.87262,2.6474-0.71143,3.52,0.36002c0.8726,1.0714,0.71143,2.64735-0.36,3.51997l0,0l-34,27.73999
		C43.96246,286.89725,43.40493,287.09482,42.82979,287.09573z"/>
	<path class="st3" d="M76.82979,319.30576c-0.64096,0.00092-1.25738-0.2464-1.72-0.69l-34-32.21002
		c-0.95226-0.99976-0.91374-2.58221,0.08604-3.53448c0.93003-0.8858,2.37999-0.92279,3.35396-0.08551l34,32.21002
		c0.99963,0.95239,1.03792,2.53485,0.08551,3.53448C78.16454,319.02438,77.51224,319.30453,76.82979,319.30576z"/>
	<path class="st3" d="M76.82979,328.09573c-1.38071,0-2.5-1.11926-2.5-2.5v-80.99998c0-1.38071,1.11929-2.5,2.5-2.5
		c1.38071,0,2.5,1.11929,2.5,2.5v80.99998C79.32979,326.97647,78.21049,328.09573,76.82979,328.09573z"/>
	<path class="st3" d="M29.82979,323.09573h-16c-6.34899-0.00549-11.49449-5.151-11.5-11.5v-55.99998
		c0.00551-6.349,5.15101-11.49448,11.5-11.5h16c6.34899,0.00552,11.49449,5.151,11.5,11.5v55.99998
		C41.32427,317.94473,36.17878,323.09024,29.82979,323.09573z M13.82979,249.09575c-3.58757,0.00549-6.49449,2.91245-6.5,6.5
		v55.99998c0.00551,3.58759,2.91243,6.49451,6.5,6.5h16c3.58757-0.00549,6.49449-2.91241,6.5-6.5v-55.99998
		c-0.00551-3.58755-2.91243-6.49451-6.5-6.5H13.82979z"/>
	<path class="st2" d="M914.82977,484.09573h-60.5c-110.45697,0-200-89.54303-200-200c0-110.27998,89.71997-200,200-200h60.5
		c1.38074,0,2.5,1.11929,2.5,2.5s-1.11926,2.5-2.5,2.5h-60.5c-107.52002,0-195,87.48002-195,195c0,107.69556,87.30444,195,195,195
		h60.5c1.38074,0,2.5,1.11926,2.5,2.5S916.21051,484.09573,914.82977,484.09573z"/>
	<path class="st2" d="M914.82977,355.09573h-195c-1.38074,0-2.5-1.11926-2.5-2.5V216.59575c0-1.38071,1.11926-2.5,2.5-2.5h195
		c1.38074,0,2.5,1.11929,2.5,2.5s-1.11926,2.5-2.5,2.5h-192.5v130.99998h192.5c1.38074,0,2.5,1.11926,2.5,2.5
		S916.21051,355.09573,914.82977,355.09573z"/>
	<path class="st2" d="M721.82977,355.09573c-1.38074,0-2.5-1.11926-2.5-2.5s1.11926-2.5,2.5-2.5
		c1.91998,0,3.84998-0.09003,5.76001-0.27002c1.38074-0.12976,2.60522,0.88428,2.73499,2.26501s-0.88428,2.60522-2.26501,2.73499
		C725.99976,354.99576,723.90979,355.09573,721.82977,355.09573z"/>
	<path class="st2" d="M739.18976,352.64572c-1.38068-0.00543-2.49554-1.12915-2.49011-2.50983
		c0.00433-1.10754,0.73688-2.08014,1.80011-2.3902c3.56036-1.03412,7.01825-2.39319,10.33002-4.05994
		c1.23438-0.62134,2.73865-0.12439,3.35999,1.10999s0.12439,2.73865-1.10999,3.35999c-3.58722,1.81726-7.3327,3.30341-11.19,4.44
		C739.65997,352.6456,739.42426,352.66245,739.18976,352.64572z M759.82977,342.30576
		c-1.38074-0.00177-2.49854-1.12256-2.49677-2.50323c0.00104-0.77991,0.36597-1.51465,0.98676-1.98676
		c2.96759-2.23871,5.73474-4.73145,8.27002-7.45001c0.89624-1.05029,2.47424-1.17517,3.52454-0.27893
		s1.17517,2.47424,0.27887,3.52454c-0.04559,0.05347-0.09344,0.10498-0.14343,0.15442c-2.73651,2.91943-5.72107,5.59613-8.91998,8
		C760.90356,342.10727,760.37585,342.29727,759.82977,342.30576z M775.54974,325.46573
		c-1.38617-0.0108-2.50116-1.14325-2.49036-2.52948c0.00366-0.47577,0.14252-0.94067,0.40033-1.34052
		c2.03735-3.11633,3.81024-6.39783,5.29999-9.81c0.591-1.2478,2.08173-1.78027,3.32953-1.18921
		c1.19409,0.56561,1.74194,1.96271,1.25049,3.18921c-1.59985,3.66565-3.50311,7.19122-5.69,10.53998
		c-0.46948,0.72815-1.28375,1.15991-2.14996,1.14001H775.54974z M784.77972,304.33572
		c-0.20581-0.00195-0.41064-0.02881-0.60999-0.08002c-1.32788-0.33008-2.14069-1.6698-1.82001-3
		c0.90002-3.61121,1.50201-7.29028,1.79999-11c0.11047-1.38074,1.31927-2.41046,2.70001-2.29999s2.41046,1.31927,2.29999,2.70001
		l0,0c-0.3277,3.98578-0.97644,7.9386-1.94,11.82001c-0.29285,1.1217-1.32111,1.89288-2.47992,1.85999H784.77972z
		 M786.64972,281.33572c-1.30237-0.00104-2.3858-1.00177-2.48999-2.29999c-0.297-3.70984-0.89899-7.38898-1.79999-11
		c-0.33417-1.34204,0.48291-2.70087,1.82495-3.03503c1.3421-0.33411,2.70087,0.48297,3.03503,1.82501
		c0.96179,3.88092,1.60394,7.83417,1.91998,11.82001c0.1145,1.37042-0.90356,2.57422-2.27399,2.68872
		c-0.00531,0.00043-0.01068,0.00085-0.01599,0.00128H786.64972z M781.07971,258.96573
		c-0.99884-0.00085-1.90204-0.59387-2.29999-1.51001c-1.48291-3.41173-3.24908-6.69322-5.28003-9.80998
		c-0.78937-1.13281-0.51099-2.69104,0.62183-3.48041c1.13281-0.7894,2.69104-0.51099,3.48041,0.6218
		c0.02704,0.03879,0.05298,0.07837,0.07776,0.11862c2.1908,3.35342,4.09424,6.88599,5.69,10.56
		c0.54681,1.27385-0.0426,2.74974-1.31641,3.29655C781.74554,258.89438,781.41455,258.96353,781.07971,258.96573z
		 M768.45972,239.66576c-0.69464-0.00082-1.35767-0.29065-1.83002-0.79999c-2.52673-2.72665-5.29095-5.22314-8.26001-7.45999
		c-1.10455-0.82843-1.32843-2.39542-0.5-3.5s2.39545-1.32843,3.5-0.5l0,0c3.19025,2.40695,6.16785,5.08347,8.90002,8
		c0.9444,1.0072,0.89349,2.58929-0.11371,3.53369c-0.46497,0.436-1.07892,0.67792-1.71631,0.6763L768.45972,239.66576z
		 M750.05969,225.79576c-0.38928-0.00159-0.77277-0.09402-1.12-0.26999c-3.31299-1.66672-6.77051-3.02896-10.33002-4.07001
		c-1.33832-0.33948-2.14807-1.69962-1.80859-3.03793s1.69965-2.14807,3.03796-1.80859
		c0.05402,0.01373,0.1076,0.02924,0.16064,0.04654c3.8573,1.11957,7.60321,2.59247,11.19,4.39999
		c1.23718,0.61304,1.7431,2.11292,1.13007,3.35007C751.89471,225.26369,751.01703,225.80342,750.05969,225.79576z"/>
	<path class="st2" d="M727.82977,219.38576h-0.23999c-1.90997-0.17999-3.84003-0.26999-5.76001-0.26999
		c-1.38074,0-2.5-1.11929-2.5-2.5s1.11926-2.5,2.5-2.5c2.08002,0,4.16998,0.10001,6.22998,0.29999
		c1.38074,0.06351,2.44855,1.23428,2.38501,2.61499s-1.23425,2.44852-2.61499,2.38501V219.38576z"/>
	<path class="st2" d="M721.82977,355.09573c-37.21997,0-67.5-31.63-67.5-70.5s30.28003-70.49998,67.5-70.49998
		c1.38074,0,2.5,1.11929,2.5,2.5s-1.11926,2.5-2.5,2.5c-34.46002,0-62.5,29.38-62.5,65.49998s28,65.5,62.5,65.5
		c1.38074,0,2.5,1.11926,2.5,2.5S723.21051,355.09573,721.82977,355.09573z"/>
	<path class="st3" d="M949.82977,287.09573h-19c-0.57513-0.00092-1.13269-0.19849-1.58002-0.56l-34-27.73999
		c-1.07141-0.87262-1.2326-2.44855-0.36005-3.51997c0.87262-1.07144,2.44861-1.2326,3.52002-0.36002l0,0l33.31,27.17998h18.11005
		c1.38074,0,2.5,1.11926,2.5,2.5S951.21051,287.09573,949.82977,287.09573z"/>
	<path class="st3" d="M896.82977,319.30576c-1.38074-0.0025-2.49799-1.12384-2.49548-2.50452
		c0.00122-0.68243,0.28143-1.33472,0.77551-1.80548l34-32.21002c0.95227-0.99976,2.53473-1.03833,3.53448-0.08606
		s1.03833,2.53473,0.08606,3.53448c-0.05731,0.06018-0.11755,0.11743-0.18054,0.17157l-34,32.21002
		C898.08716,319.05942,897.47076,319.30667,896.82977,319.30576z"/>
	<path class="st3" d="M896.82977,328.09573c-1.38074,0-2.5-1.11926-2.5-2.5v-80.99998c0-1.38071,1.11926-2.5,2.5-2.5
		s2.5,1.11929,2.5,2.5v80.99998C899.32977,326.97647,898.21051,328.09573,896.82977,328.09573z"/>
	<path class="st3" d="M959.82977,323.09573h-16c-6.349-0.00549-11.49451-5.151-11.5-11.5v-55.99998
		c0.00549-6.349,5.151-11.49448,11.5-11.5h16c6.349,0.00552,11.49451,5.151,11.5,11.5v55.99998
		C971.32428,317.94473,966.17877,323.09024,959.82977,323.09573z M943.82977,249.09575c-3.58759,0.00549-6.49451,2.91245-6.5,6.5
		v55.99998c0.00549,3.58759,2.91241,6.49451,6.5,6.5h16c3.58759-0.00549,6.49451-2.91241,6.5-6.5v-55.99998
		c-0.00549-3.58755-2.91241-6.49451-6.5-6.5H943.82977z"/>
	<path class="st2" d="M868.32977,305.09573c-11.04572,0-20-8.95428-20-20s8.95428-20,20-20s20,8.95428,20,20
		S879.37549,305.09573,868.32977,305.09573z M868.32977,270.09573c-8.2843,0-15,6.7157-15,15s6.7157,15,15,15s15-6.7157,15-15l0,0
		C883.32977,276.81143,876.61407,270.09573,868.32977,270.09573z"/>
	<path class="st2" d="M487.82977,548.09576c-1.38074,0-2.5-1.11926-2.5-2.5v-522c0-1.38071,1.11926-2.5,2.5-2.5s2.5,1.11929,2.5,2.5
		v522C490.32977,546.9765,489.21051,548.09576,487.82977,548.09576z"/>
	<path class="st2" d="M488.32977,355.09573c-39.21222,0-71-31.78778-71-71s31.78778-70.99998,71-70.99998s71,31.78778,71,70.99998
		l0,0C559.28571,323.2897,527.52374,355.05167,488.32977,355.09573z M488.32977,218.09575c-36.45081,0-66,29.54919-66,65.99998
		s29.54919,66,66,66s66-29.54919,66-66C554.28571,247.66322,524.76227,218.13982,488.32977,218.09575z"/>
	<path class="st2" d="M345.82977,567.09576c-1.38071,0-2.5-1.11926-2.5-2.5v-38c0-1.38074,1.11929-2.5,2.5-2.5s2.5,1.11926,2.5,2.5
		v38C348.32977,565.9765,347.21048,567.09576,345.82977,567.09576z"/>
	<path class="st2" d="M625.82977,567.09576c-1.38074,0-2.5-1.11926-2.5-2.5v-38c0-1.38074,1.11926-2.5,2.5-2.5s2.5,1.11926,2.5,2.5
		v38C628.32977,565.9765,627.21051,567.09576,625.82977,567.09576z"/>
	<path class="st2" d="M345.82977,45.09575c-1.38071,0-2.5-1.11929-2.5-2.5v-38c0-1.38071,1.11929-2.5,2.5-2.5s2.5,1.11929,2.5,2.5
		v38C348.32977,43.97645,347.21048,45.09575,345.82977,45.09575z"/>
	<path class="st2" d="M625.82977,45.09575c-1.38074,0-2.5-1.11929-2.5-2.5v-38c0-1.38071,1.11926-2.5,2.5-2.5s2.5,1.11929,2.5,2.5
		v38C628.32977,43.97645,627.21051,45.09575,625.82977,45.09575z"/>
</g>
</svg>
