<svg width="105" height="62" viewBox="0 0 105 62" fill="none" xmlns="http://www.w3.org/2000/svg">
<g clip-path="url(#clip0_2121_1745)">
<path d="M6.30292 0H20.69C24.1818 0 26.9929 2.81475 26.9929 6.3111V55.0163C26.9929 58.5127 24.1818 61.3274 20.69 61.3274H6.30292C2.8111 61.3274 0 58.5127 0 55.0163V6.3111C0 2.81475 2.8111 0 6.30292 0Z" fill="white"/>
<path d="M17.1166 11.2414L17.1366 11.4489C17.5706 11.7057 17.7975 11.9131 18.2414 12.1996C19.4055 12.9405 20.8362 14.2543 20.6585 18.7686C20.9938 19.7565 21.1419 21.6827 21.4379 22.2952C22.0398 23.5102 22.454 24.3005 22.6316 25.4364C22.6316 25.4364 22.8093 27.2145 23.0361 27.343C24.2395 27.6195 23.8945 27.7381 24.0621 27.9554C24.2494 28.1925 24.9499 28.1826 24.9499 28.8346C25.1966 29.1605 25.3841 29.4865 25.5122 29.8421V6.36156C25.5122 3.67468 23.3418 1.50146 20.6681 1.50146H16.0411C16.781 1.76818 17.2052 2.08428 17.452 2.57819C18.0436 2.62758 18.7445 3.96115 17.6492 5.94667C18.1324 6.28254 17.7575 6.77645 17.4122 7.33951C17.3037 7.51732 17.1952 7.8433 16.8696 7.82354C16.4356 8.72246 15.9323 9.57199 15.5478 9.62138C15.4394 9.75968 15.3602 10.1449 15.5279 10.3227C16.0907 10.5796 16.7711 10.9154 17.1166 11.2414Z" fill="#C80F2E"/>
<path d="M21.4378 59.7632L21.3886 59.773C23.5096 58.479 22.1975 56.0293 21.7931 54.5871L21.8719 54.3399C21.9804 54.1423 21.7537 53.6782 21.7537 53.6782C21.4874 53.4608 21.4281 52.2558 21.2899 51.7026C21.0632 50.8037 21.6943 49.2331 21.6943 48.6997C21.6943 48.166 21.2899 47.4351 20.5599 46.5067C20.3822 46.2992 19.8495 41.7454 19.376 40.5896C18.715 38.9991 18.5175 39.2558 17.7286 37.3496C17.1266 36.0159 17.6002 34.0502 16.2389 29.4865L16.5446 29.2C16.5446 29.2 15.4594 25.229 15.1041 24.1423C14.7587 23.0557 14.1177 22.9866 14.1177 22.9866L14.157 22.4235C14.2065 22.2556 15.479 18.9464 15.5875 18.8377C15.5972 18.7686 17.4225 17.514 17.4519 17.7017C17.5998 18.5117 18.3102 22.631 18.6159 23.2829C18.9217 23.9448 19.9776 25.9599 20.4609 27.2145C18.5766 27.6788 17.1657 29.3877 17.1657 31.4129C17.1657 33.8034 19.0995 35.7493 21.4869 35.7493C23.3117 35.7493 24.8905 34.6134 25.5217 33.0131L25.5119 54.9726C25.5123 57.4024 23.7661 59.4075 21.4378 59.7632Z" fill="#C80F2E"/>
<path d="M14.5219 1.50146C12.9434 2.11392 12.7263 2.79551 12.6673 4.98848C12.4009 5.01812 11.8483 4.76129 12.0359 6.09485C12.0359 6.09485 12.1346 6.98389 12.4897 6.83572C12.2135 8.77185 12.433 9.25643 11.1482 9.39418C10.8719 9.42382 10.5364 9.44357 10.1221 9.46333L9.99389 9.64114C8.23785 9.80907 7.36804 9.6967 6.23502 11.192C5.80095 11.765 5.33727 12.575 4.76507 13.7307C4.76507 13.7307 4.2422 15.0248 4.08422 15.5582C3.58108 16.6152 2.3479 18.9563 1.98288 20.4578C1.86463 20.9715 1.63759 21.1295 1.96315 21.8704C2.44656 22.9373 1.64746 23.2138 4.39005 23.1348V23.767C4.39005 23.767 3.66001 24.3992 3.50216 24.7746C3.35418 25.1599 2.92996 27.0466 2.94983 27.9455C2.99902 30.2867 4.90319 32.2424 5.46538 34.5738L6.73803 34.7518C7.42861 36.3422 10.4474 40.629 11.148 41.3207C11.1579 41.3305 11.1677 41.3406 11.1776 41.3504C11.3353 41.7553 12.1148 42.2592 12.5685 42.763C12.8449 43.0297 14.1177 44.4127 15.8144 45.7266C16.4373 46.2089 17.107 46.6847 17.8072 47.0898C17.7875 47.0798 18.2215 47.9492 18.4386 48.6603C17.5704 49.3616 19.2574 50.646 19.7704 52.7698C19.8 53.056 19.277 53.3428 20.0565 54.044C20.0072 57.2541 19.0306 58.9338 20.6682 59.8226H6.23502C3.61095 59.7633 1.48975 57.61 1.48975 54.9724V6.36156C1.48975 3.70431 3.61082 1.56073 6.23502 1.50146H14.5219Z" fill="#1D4289"/>
<path fill-rule="evenodd" clip-rule="evenodd" d="M34.2534 1.47314V59.7542H40.5443C40.5607 44.7453 40.9006 29.6759 39.9783 14.8426L47.2308 59.7542H56.2573V1.47314H50.0282C49.9013 16.9259 50.4492 32.1627 51.4957 47.2401L43.9595 1.47314H34.2534Z" fill="#1D4289"/>
<path fill-rule="evenodd" clip-rule="evenodd" d="M88.7872 1.43286L82.604 59.7629H90.297L91.3035 47.9681H96.3363L97.3429 59.7629H105L98.9965 1.43286H88.7872ZM93.8199 17.8973L95.7612 41.1247H91.8787L93.8199 17.8973Z" fill="#1D4289"/>
<path d="M61.1069 1.47317V59.7227H72.3588C74.2032 59.7227 80.4832 58.1089 80.4832 50.0212V38.3874C80.4832 37.1616 80.4935 33.3188 77.14 31.0609C79.2355 31.0609 80.4832 26.9904 80.4832 23.2916V10.8124C80.4832 5.95017 77.4607 1.45994 71.3882 1.47317H61.1069ZM68.045 8.92042H71.4601C73.0245 8.92042 73.5451 10.6498 73.5451 11.9798V25.5459C73.5451 27.8664 72.7833 28.0417 71.2085 28.0417H68.045V8.92042ZM68.045 34.4021H71.4601C73.0245 34.4021 73.5451 36.1315 73.5451 37.4615V49.5784C73.5451 51.1572 72.7591 52.356 71.2085 52.356L68.045 52.3962V34.4021Z" fill="#1D4289"/>
</g>
<defs>
<clipPath id="clip0_2121_1745">
<rect width="105" height="61.3274" fill="white"/>
</clipPath>
</defs>
</svg>
