<?xml version="1.0" encoding="utf-8"?>
<!-- Generator: Adobe Illustrator 27.0.0, SVG Export Plug-In . SVG Version: 6.00 Build 0)  -->
<svg version="1.1" id="Layer_1" xmlns="http://www.w3.org/2000/svg" xmlns:xlink="http://www.w3.org/1999/xlink" x="0px" y="0px"
	 viewBox="0 0 890.9897461 458" style="enable-background:new 0 0 890.9897461 458; rotate: 90deg" xml:space="preserve" >
<style type="text/css">
	.st0{clip-path:url(#SVGID_00000146498723161754972500000018021690897324744371_);}
	.st1{fill:#44A448;}
	.st2{fill:#46933B;}
	.st3{fill:#FFFFFF;}
</style>
<g>
	<g>
		<defs>
			<rect id="SVGID_1_" x="3.0562544" y="2" width="884.1027222" height="454.2814636"/>
		</defs>
		<clipPath id="SVGID_00000160181367089904692820000012947248935616597437_">
			<use xlink:href="#SVGID_1_"  style="overflow:visible;"/>
		</clipPath>
		<g style="clip-path:url(#SVGID_00000160181367089904692820000012947248935616597437_);">
			<path class="st1" d="M5.7023487,454.8684692h877.6231079V5.3300791L5.7023487,5.3300323V454.8684692z"/>
			<path class="st2" d="M757.5328979,454.8684692h125.7925415V5.3300791H757.5328979V454.8684692z"/>
			<path class="st2" d="M5.7023487,454.8684692h122.8670044V5.3300791H5.7023487V454.8684692z"/>
			<path class="st3" d="M5.7023487,1.4564064l877.6229858,0.0000387c0.6466064,0,1.2666626,0.2576586,1.7238159,0.7162875
				c0.4571533,0.4586277,0.7139893,1.0806544,0.7139893,1.7292566v450.9571838c0,0.6483459-0.2568359,1.2703247-0.7139893,1.7294617
				c-0.4572144,0.4591064-1.0772095,0.7165527-1.7238159,0.7165527H5.7023487c-0.6467791,0-1.2672396-0.2574463-1.7232604-0.7165527
				c-0.4575355-0.459137-0.7150352-1.0811157-0.7150352-1.7294617V3.901943c0-0.6485949,0.2574997-1.2706215,0.7150352-1.7292492
				C4.4351091,1.7140664,5.0555696,1.4564064,5.7023487,1.4564064z M880.8875122,6.3475261L8.1406441,6.3474798V452.413147
				l872.7468872,0.0015564V6.3475261z"/>
			<path class="st3" d="M758.6445312,0.8348526c0.3435669,0,0.6730347,0.2578121,0.9158936,0.7167079
				c0.2429199,0.4588968,0.3793945,1.0812887,0.3793945,1.7302653v451.2221375c0,0.6483459-0.1364746,1.2702942-0.3793945,1.7294617
				c-0.2428589,0.4590759-0.5723267,0.7165527-0.9158936,0.7165527c-0.3435059,0-0.6731567-0.2574768-0.9160156-0.7165527
				c-0.2429199-0.4591675-0.3793945-1.0811157-0.3793945-1.7294617V3.2818255c0-0.6489763,0.1364746-1.2713687,0.3793945-1.730265
				C757.9713745,1.0926646,758.3010254,0.8348526,758.6445312,0.8348526z"/>
			<path class="st3" d="M692.5803223,0.8348526c0.3428345,0,0.6732178,0.2578121,0.9151611,0.7167079
				c0.2435303,0.4588968,0.3800049,1.0812887,0.3800049,1.7302653v451.2221375c0,0.6483459-0.1364746,1.2702942-0.3800049,1.7294617
				c-0.2419434,0.4590759-0.5723267,0.7165527-0.9151611,0.7165527c-0.3442993,0-0.6730957-0.2574768-0.916626-0.7165527
				c-0.2419434-0.4591675-0.378479-1.0811157-0.378479-1.7294617V3.2818255c0-0.6489763,0.1365356-1.2713687,0.378479-1.730265
				C691.9072266,1.0926646,692.2360229,0.8348526,692.5803223,0.8348526z"/>
			<path class="st3" d="M629.1064453,0.8348526c0.3427734,0,0.6731567,0.2578121,0.9151611,0.7167079
				c0.2434692,0.4588968,0.3800049,1.0812887,0.3800049,1.7302653v451.2221375c0,0.6483459-0.1365356,1.2702942-0.3800049,1.7294617
				c-0.2420044,0.4590759-0.5723877,0.7165527-0.9151611,0.7165527c-0.3443604,0-0.6731567-0.2574768-0.916687-0.7165527
				c-0.2419434-0.4591675-0.378479-1.0811157-0.378479-1.7294617V3.2818255c0-0.6489763,0.1365356-1.2713687,0.378479-1.730265
				C628.4332886,1.0926646,628.762085,0.8348526,629.1064453,0.8348526z"/>
			<path class="st3" d="M565.6325684,0.8348526c0.3442993,0,0.6730957,0.2578121,0.916626,0.7167079
				c0.2419434,0.4588968,0.378479,1.0812887,0.378479,1.7302653v451.2221375c0,0.6483459-0.1365356,1.2702942-0.378479,1.7294617
				c-0.2435303,0.4590759-0.5739136,0.7165527-0.916626,0.7165527c-0.3443604,0-0.6732178-0.2574768-0.916687-0.7165527
				c-0.2420044-0.4591675-0.378479-1.0811157-0.378479-1.7294617V3.2818255c0-0.6489763,0.1364746-1.2713687,0.378479-1.730265
				C564.9593506,1.0926646,565.2897339,0.8348526,565.6325684,0.8348526z"/>
			<path class="st3" d="M503.4537354,0.8348526c0.3443604,0,0.6731567,0.2578121,0.916687,0.7167079
				c0.2419739,0.4588968,0.378418,1.0812887,0.378418,1.7302653v451.2221375c0,0.6483459-0.1364441,1.2702942-0.378418,1.7294617
				c-0.2435303,0.4590759-0.5723267,0.7165527-0.916687,0.7165527c-0.342804,0-0.6731567-0.2574768-0.9151306-0.7165527
				c-0.2435303-0.4591675-0.3800049-1.0811157-0.3800049-1.7294617V3.2818255c0-0.6489763,0.1364746-1.2713687,0.3800049-1.730265
				C502.7805786,1.0926646,503.1109314,0.8348526,503.4537354,0.8348526z"/>
			<path class="st3" d="M441.2749329,0.8348526c0.3443604,0,0.6731873,0.2578121,0.916687,0.7167079
				c0.2435303,0.4588968,0.3799744,1.0812887,0.3799744,1.7302653v451.2221375c0,0.6483459-0.1364441,1.2702942-0.3799744,1.7294617
				c-0.2434998,0.4590759-0.5723267,0.7165527-0.916687,0.7165527c-0.3427429,0-0.6731567-0.2574768-0.9151306-0.7165527
				c-0.2434692-0.4591675-0.3800049-1.0811157-0.3800049-1.7294617V3.2818255c0-0.6489763,0.1365356-1.2713687,0.3800049-1.730265
				C440.6017761,1.0926646,440.9321899,0.8348526,441.2749329,0.8348526z"/>
			<path class="st3" d="M377.8009949,0.8348526c0.3443604,0,0.6731873,0.2578121,0.916687,0.7167079
				c0.2435303,0.4588968,0.3800049,1.0812887,0.3800049,1.7302653v451.2221375c0,0.6483459-0.1364746,1.2702942-0.3800049,1.7294617
				c-0.2434998,0.4590759-0.5723267,0.7165527-0.916687,0.7165527c-0.3427429,0-0.6715698-0.2574768-0.9151001-0.7165527
				c-0.2434998-0.4591675-0.3800049-1.0811157-0.3800049-1.7294617V3.2818255c0-0.6489763,0.1365051-1.2713687,0.3800049-1.730265
				C377.129425,1.0926646,377.458252,0.8348526,377.8009949,0.8348526z"/>
			<path class="st3" d="M316.9189148,0.8348526c0.342804,0,0.6731567,0.2578121,0.9151306,0.7167079
				c0.2435303,0.4588968,0.3800049,1.0812887,0.3800049,1.7302653v451.2221375c0,0.6483459-0.1364746,1.2702942-0.3800049,1.7294617
				c-0.2419739,0.4590759-0.5723267,0.7165527-0.9151306,0.7165527c-0.3443604,0-0.6731262-0.2574768-0.916687-0.7165527
				c-0.2419739-0.4591675-0.378418-1.0811157-0.378418-1.7294617V3.2818255c0-0.6489763,0.1364441-1.2713687,0.378418-1.730265
				C316.2457886,1.0926646,316.5745544,0.8348526,316.9189148,0.8348526z"/>
			<path class="st3" d="M256.0352783,0.8348526c0.3442993,0,0.6731567,0.2578121,0.916626,0.7167079
				c0.2419739,0.4588968,0.3785095,1.0812887,0.3785095,1.7302653v451.2221375c0,0.6483459-0.1365356,1.2702942-0.3785095,1.7294617
				c-0.2434692,0.4590759-0.5723267,0.7165527-0.916626,0.7165527c-0.3427887,0-0.6731873-0.2574768-0.9151611-0.7165527
				c-0.2434845-0.4591675-0.3800049-1.0811157-0.3800049-1.7294617V3.2818255c0-0.6489763,0.1365204-1.2713687,0.3800049-1.730265
				C255.3620911,1.0926646,255.6924896,0.8348526,256.0352783,0.8348526z"/>
			<path class="st3" d="M192.5613556,0.8348526c0.3443146,0,0.6731415,0.2578121,0.9166718,0.7167079
				c0.2419281,0.4588968,0.3784485,1.0812887,0.3784485,1.7302653v451.2221375c0,0.6483459-0.1365204,1.2702942-0.3784485,1.7294617
				c-0.2435303,0.4590759-0.5723572,0.7165527-0.9166718,0.7165527c-0.342804,0-0.6731873-0.2574768-0.9151154-0.7165527
				c-0.2435455-0.4591675-0.3800507-1.0811157-0.3800507-1.7294617V3.2818255c0-0.6489763,0.1365051-1.2713687,0.3800507-1.730265
				C191.8881683,1.0926646,192.2185516,0.8348526,192.5613556,0.8348526z"/>
			<path class="st3" d="M127.792305,0.8348526c0.3443069,0,0.6731491,0.2578121,0.9166336,0.7167079
				c0.2419739,0.4588968,0.3784943,1.0812887,0.3784943,1.7302653v451.2221375c0,0.6483459-0.1365204,1.2702942-0.3784943,1.7294617
				c-0.2434845,0.4590759-0.5723267,0.7165527-0.9166336,0.7165527c-0.3427963,0-0.6731873-0.2574768-0.9151611-0.7165527
				c-0.2434921-0.4591675-0.3800049-1.0811157-0.3800049-1.7294617V3.2818255c0-0.6489763,0.1365128-1.2713687,0.3800049-1.730265
				C127.1191177,1.0926646,127.4495087,0.8348526,127.792305,0.8348526z"/>
			<path class="st3" d="M65.1854553,194.1636353c0.6467819,0,1.2671509,0.2590179,1.7247772,0.7165985
				c0.455925,0.4591064,0.7134247,1.0810852,0.7134247,1.7294159v67.4973755c0,0.6483459-0.2574997,1.2703247-0.7134247,1.7294312
				c-0.4576263,0.4575806-1.0779953,0.7150574-1.7247772,0.7150574c-0.6468735,0-1.2657204-0.2574768-1.723259-0.7150574
				c-0.4575348-0.4591064-0.7135201-1.0810852-0.7135201-1.7294312v-67.4973755
				c0-0.6483307,0.2559853-1.2703094,0.7135201-1.7294159C63.919735,194.4226532,64.5385818,194.1636353,65.1854553,194.1636353z"/>
			<path class="st3" d="M817.991272,194.1636353c0.6464233,0,1.2666016,0.2590179,1.7236938,0.7165985
				c0.4572144,0.4591064,0.7140503,1.0810852,0.7140503,1.7294159v67.4973755c0,0.6483459-0.2568359,1.2703247-0.7140503,1.7294312
				c-0.4570923,0.4575806-1.0772705,0.7150574-1.7236938,0.7150574c-0.6466675,0-1.2667236-0.2574768-1.723877-0.7150574
				c-0.4572754-0.4591064-0.7141113-1.0810852-0.7141113-1.7294312v-67.4973755
				c0-0.6483307,0.2568359-1.2703094,0.7141113-1.7294159C816.7245483,194.4226532,817.3446045,194.1636353,817.991272,194.1636353z
				"/>
			<path class="st3" d="M742.9056396,300.7910767c0.6464844,0,1.2666016,0.2574768,1.7236938,0.7166138
				c0.4572754,0.4590759,0.7141113,1.0810547,0.7141113,1.7294006v8.803833c0,0.6483459-0.2568359,1.2702942-0.7141113,1.7294006
				c-0.4570923,0.459137-1.0772095,0.7166138-1.7236938,0.7166138c-0.6466064,0-1.2667236-0.2574768-1.7238159-0.7166138
				c-0.4572754-0.4591064-0.7141113-1.0810547-0.7141113-1.7294006v-8.803833c0-0.6483459,0.2568359-1.2703247,0.7141113-1.7294006
				C741.638916,301.0485535,742.2590332,300.7910767,742.9056396,300.7910767z"/>
			<path class="st3" d="M730.229187,300.7910767c0.6467896,0,1.265686,0.2574768,1.7232056,0.7166138
				c0.4573975,0.4590759,0.7142944,1.0810547,0.7142944,1.7294006v8.803833c0,0.6483459-0.256897,1.2702942-0.7142944,1.7294006
				c-0.4575195,0.459137-1.076416,0.7166138-1.7232056,0.7166138s-1.2672119-0.2574768-1.7247925-0.7166138
				c-0.4559937-0.4591064-0.7134399-1.0810547-0.7134399-1.7294006v-8.803833c0-0.6483459,0.2574463-1.2703247,0.7134399-1.7294006
				C728.9619751,301.0485535,729.5823975,300.7910767,730.229187,300.7910767z"/>
			<path class="st3" d="M717.5523682,300.7910767c0.6467896,0,1.265686,0.2574768,1.7232056,0.7166138
				c0.4575806,0.4590759,0.7150269,1.0810547,0.7150269,1.7294006v8.803833c0,0.6483459-0.2574463,1.2702942-0.7150269,1.7294006
				c-0.4575195,0.459137-1.076416,0.7166138-1.7232056,0.7166138s-1.2671509-0.2574768-1.7247925-0.7166138
				c-0.4559937-0.4591064-0.7134399-1.0810547-0.7134399-1.7294006v-8.803833c0-0.6483459,0.2574463-1.2703247,0.7134399-1.7294006
				C716.2852173,301.0485535,716.9055786,300.7910767,717.5523682,300.7910767z"/>
			<path class="st3" d="M704.8756104,300.7910767c0.6467285,0,1.265625,0.2574768,1.7232056,0.7166138
				c0.4575806,0.4590759,0.7150879,1.0810547,0.7150879,1.7294006v8.803833c0,0.6483459-0.2575073,1.2702942-0.7150879,1.7294006
				c-0.4575806,0.459137-1.0764771,0.7166138-1.7232056,0.7166138c-0.6467896,0-1.2672119-0.2574768-1.7247925-0.7166138
				c-0.4560547-0.4591064-0.713501-1.0810547-0.713501-1.7294006v-8.803833c0-0.6483459,0.2574463-1.2703247,0.713501-1.7294006
				C703.6083984,301.0485535,704.2288208,300.7910767,704.8756104,300.7910767z"/>
			<path class="st3" d="M678.5464478,300.7910767c0.6467285,0,1.2671509,0.2574768,1.7247314,0.7166138
				c0.4559937,0.4590759,0.713501,1.0810547,0.713501,1.7294006v8.803833c0,0.6483459-0.2575073,1.2702942-0.713501,1.7294006
				c-0.4575806,0.459137-1.0780029,0.7166138-1.7247314,0.7166138c-0.6468506,0-1.265686-0.2574768-1.7232666-0.7166138
				c-0.4575806-0.4591064-0.7150269-1.0810547-0.7150269-1.7294006v-8.803833c0-0.6483459,0.2574463-1.2703247,0.7150269-1.7294006
				C677.2807617,301.0485535,677.8995972,300.7910767,678.5464478,300.7910767z"/>
			<path class="st3" d="M665.8696289,300.7910767c0.6467896,0,1.2672119,0.2574768,1.7247925,0.7166138
				c0.4559326,0.4590759,0.7134399,1.0810547,0.7134399,1.7294006v8.803833c0,0.6483459-0.2575073,1.2702942-0.7134399,1.7294006
				c-0.4575806,0.459137-1.0780029,0.7166138-1.7247925,0.7166138c-0.6468506,0-1.265686-0.2574768-1.7232666-0.7166138
				c-0.4575195-0.4591064-0.7150269-1.0810547-0.7150269-1.7294006v-8.803833c0-0.6483459,0.2575073-1.2703247,0.7150269-1.7294006
				C664.6039429,301.0485535,665.2227783,300.7910767,665.8696289,300.7910767z"/>
			<path class="st3" d="M653.1928101,300.7910767c0.6467896,0,1.2672119,0.2574768,1.7247925,0.7166138
				c0.4559937,0.4590759,0.7134399,1.0810547,0.7134399,1.7294006v8.803833c0,0.6483459-0.2574463,1.2702942-0.7134399,1.7294006
				c-0.4575806,0.459137-1.0780029,0.7166138-1.7247925,0.7166138s-1.265686-0.2574768-1.7232056-0.7166138
				c-0.4575806-0.4591064-0.713501-1.0810547-0.713501-1.7294006v-8.803833c0-0.6483459,0.2559204-1.2703247,0.713501-1.7294006
				C651.927124,301.0485535,652.5460205,300.7910767,653.1928101,300.7910767z"/>
			<path class="st3" d="M640.5160522,300.7910767c0.6467285,0,1.2671509,0.2574768,1.7247314,0.7166138
				c0.4560547,0.4590759,0.713501,1.0810547,0.713501,1.7294006v8.803833c0,0.6483459-0.2574463,1.2702942-0.713501,1.7294006
				c-0.4575806,0.459137-1.0780029,0.7166138-1.7247314,0.7166138c-0.6467896,0-1.265686-0.2574768-1.7232666-0.7166138
				c-0.4575806-0.4591064-0.7150269-1.0810547-0.7150269-1.7294006v-8.803833c0-0.6483459,0.2574463-1.2703247,0.7150269-1.7294006
				C639.2503662,301.0485535,639.8692627,300.7910767,640.5160522,300.7910767z"/>
			<path class="st3" d="M616.1380615,300.7910767c0.6467896,0,1.2672119,0.2574768,1.7232666,0.7166138
				c0.4575195,0.4590759,0.7150269,1.0810547,0.7150269,1.7294006v8.803833c0,0.6483459-0.2575073,1.2702942-0.7150269,1.7294006
				c-0.4560547,0.459137-1.0764771,0.7166138-1.7232666,0.7166138s-1.2672119-0.2574768-1.7232056-0.7166138
				c-0.4575806-0.4591064-0.7150879-1.0810547-0.7150879-1.7294006v-8.803833c0-0.6483459,0.2575073-1.2703247,0.7150879-1.7294006
				C614.8708496,301.0485535,615.491272,300.7910767,616.1380615,300.7910767z"/>
			<path class="st3" d="M603.4612427,300.7910767c0.6468506,0,1.2672119,0.2574768,1.7232666,0.7166138
				c0.4575195,0.4590759,0.7150269,1.0810547,0.7150269,1.7294006v8.803833c0,0.6483459-0.2575073,1.2702942-0.7150269,1.7294006
				c-0.4560547,0.459137-1.076416,0.7166138-1.7232666,0.7166138c-0.6467896,0-1.2672119-0.2574768-1.7232056-0.7166138
				c-0.4575195-0.4591064-0.7150269-1.0810547-0.7150269-1.7294006v-8.803833c0-0.6483459,0.2575073-1.2703247,0.7150269-1.7294006
				C602.1940308,301.0485535,602.8144531,300.7910767,603.4612427,300.7910767z"/>
			<path class="st3" d="M590.7844849,300.7910767c0.6467896,0,1.2672119,0.2574768,1.7232056,0.7166138
				c0.4575195,0.4590759,0.7150269,1.0810547,0.7150269,1.7294006v8.803833c0,0.6483459-0.2575073,1.2702942-0.7150269,1.7294006
				c-0.4559937,0.459137-1.076416,0.7166138-1.7232056,0.7166138s-1.2672119-0.2574768-1.7232666-0.7166138
				c-0.4575195-0.4591064-0.7150269-1.0810547-0.7150269-1.7294006v-8.803833c0-0.6483459,0.2575073-1.2703247,0.7150269-1.7294006
				C589.5172729,301.0485535,590.1376953,300.7910767,590.7844849,300.7910767z"/>
			<path class="st3" d="M578.107666,300.7910767c0.6467896,0,1.2672119,0.2574768,1.7232666,0.7166138
				c0.4575806,0.4590759,0.7150269,1.0810547,0.7150269,1.7294006v8.803833c0,0.6483459-0.2574463,1.2702942-0.7150269,1.7294006
				c-0.4560547,0.459137-1.0764771,0.7166138-1.7232666,0.7166138s-1.2672119-0.2574768-1.7232056-0.7166138
				c-0.4575806-0.4591064-0.7150879-1.0810547-0.7150879-1.7294006v-8.803833c0-0.6483459,0.2575073-1.2703247,0.7150879-1.7294006
				C576.8404541,301.0485535,577.4608765,300.7910767,578.107666,300.7910767z"/>
			<path class="st3" d="M553.7297363,300.7910767c0.6467285,0,1.265625,0.2574768,1.7232056,0.7166138
				c0.4575806,0.4590759,0.713501,1.0810547,0.713501,1.7294006v8.803833c0,0.6483459-0.2559204,1.2702942-0.713501,1.7294006
				c-0.4575806,0.459137-1.0764771,0.7166138-1.7232056,0.7166138c-0.6467896,0-1.2672119-0.2574768-1.7247925-0.7166138
				c-0.4560547-0.4591064-0.713501-1.0810547-0.713501-1.7294006v-8.803833c0-0.6483459,0.2574463-1.2703247,0.713501-1.7294006
				C552.4625244,301.0485535,553.0829468,300.7910767,553.7297363,300.7910767z"/>
			<path class="st3" d="M541.0529175,300.7910767c0.6467896,0,1.265686,0.2574768,1.7232056,0.7166138
				c0.4575806,0.4590759,0.713501,1.0810547,0.713501,1.7294006v8.803833c0,0.6483459-0.2559204,1.2702942-0.713501,1.7294006
				c-0.4575195,0.459137-1.076416,0.7166138-1.7232056,0.7166138s-1.2672119-0.2574768-1.7247925-0.7166138
				c-0.4559937-0.4591064-0.7134399-1.0810547-0.7134399-1.7294006v-8.803833c0-0.6483459,0.2574463-1.2703247,0.7134399-1.7294006
				C539.7857056,301.0485535,540.4061279,300.7910767,541.0529175,300.7910767z"/>
			<path class="st3" d="M528.3760986,300.7910767c0.6468506,0,1.265686,0.2574768,1.7232666,0.7166138
				c0.4575195,0.4590759,0.713501,1.0810547,0.713501,1.7294006v8.803833c0,0.6483459-0.2559814,1.2702942-0.713501,1.7294006
				c-0.4575806,0.459137-1.076416,0.7166138-1.7232666,0.7166138c-0.6467896,0-1.2671509-0.2574768-1.7247314-0.7166138
				c-0.4559937-0.4591064-0.713501-1.0810547-0.713501-1.7294006v-8.803833c0-0.6483459,0.2575073-1.2703247,0.713501-1.7294006
				C527.1089478,301.0485535,527.7293091,300.7910767,528.3760986,300.7910767z"/>
			<path class="st3" d="M515.6993408,300.7910767c0.6467896,0,1.265625,0.2574768,1.7232056,0.7166138
				c0.4575806,0.4590759,0.713501,1.0810547,0.713501,1.7294006v8.803833c0,0.6483459-0.2559204,1.2702942-0.713501,1.7294006
				c-0.4575806,0.459137-1.076416,0.7166138-1.7232056,0.7166138s-1.2672119-0.2574768-1.7247925-0.7166138
				c-0.4559937-0.4591064-0.713501-1.0810547-0.713501-1.7294006v-8.803833c0-0.6483459,0.2575073-1.2703247,0.713501-1.7294006
				C514.4321289,301.0485535,515.0525513,300.7910767,515.6993408,300.7910767z"/>
			<path class="st3" d="M489.3701172,300.7910767c0.6468201,0,1.2672424,0.2574768,1.7232361,0.7166138
				c0.45755,0.4590759,0.7150574,1.0810547,0.7150574,1.7294006v8.803833c0,0.6483459-0.2575073,1.2702942-0.7150574,1.7294006
				c-0.4559937,0.459137-1.076416,0.7166138-1.7232361,0.7166138c-0.6467896,0-1.2672119-0.2574768-1.7232361-0.7166138
				c-0.4575195-0.4591064-0.7150269-1.0810547-0.7150269-1.7294006v-8.803833c0-0.6483459,0.2575073-1.2703247,0.7150269-1.7294006
				C488.1029053,301.0485535,488.7233276,300.7910767,489.3701172,300.7910767z"/>
			<path class="st3" d="M476.6933594,300.7910767c0.646759,0,1.2671814,0.2574768,1.724762,0.7166138
				c0.4559937,0.4590759,0.7134705,1.0810547,0.7134705,1.7294006v8.803833c0,0.6483459-0.2574768,1.2702942-0.7134705,1.7294006
				c-0.4575806,0.459137-1.0780029,0.7166138-1.724762,0.7166138c-0.6468201,0-1.265686-0.2574768-1.7232666-0.7166138
				c-0.4575195-0.4591064-0.7150269-1.0810547-0.7150269-1.7294006v-8.803833c0-0.6483459,0.2575073-1.2703247,0.7150269-1.7294006
				C475.4276733,301.0485535,476.0465393,300.7910767,476.6933594,300.7910767z"/>
			<path class="st3" d="M464.016571,300.7910767c0.646759,0,1.2671814,0.2574768,1.7232056,0.7166138
				c0.4575195,0.4590759,0.7150269,1.0810547,0.7150269,1.7294006v8.803833c0,0.6483459-0.2575073,1.2702942-0.7150269,1.7294006
				c-0.4560242,0.459137-1.0764465,0.7166138-1.7232056,0.7166138c-0.6468506,0-1.2672424-0.2574768-1.7232666-0.7166138
				c-0.45755-0.4591064-0.7150574-1.0810547-0.7150574-1.7294006v-8.803833c0-0.6483459,0.2575073-1.2703247,0.7150574-1.7294006
				C462.7493286,301.0485535,463.3697205,300.7910767,464.016571,300.7910767z"/>
			<path class="st3" d="M451.3397522,300.7910767c0.6467896,0,1.2672119,0.2574768,1.7232056,0.7166138
				c0.4575806,0.4590759,0.7150574,1.0810547,0.7150574,1.7294006v8.803833c0,0.6483459-0.2574768,1.2702942-0.7150574,1.7294006
				c-0.4559937,0.459137-1.076416,0.7166138-1.7232056,0.7166138c-0.646759,0-1.2672424-0.2574768-1.7232056-0.7166138
				c-0.4575806-0.4591064-0.7150269-1.0810547-0.7150269-1.7294006v-8.803833c0-0.6483459,0.2574463-1.2703247,0.7150269-1.7294006
				C450.0725098,301.0485535,450.6929932,300.7910767,451.3397522,300.7910767z"/>
			<path class="st3" d="M426.9617615,300.7910767c0.6467896,0,1.265686,0.2574768,1.7232361,0.7166138
				c0.4575806,0.4590759,0.7150269,1.0810547,0.7150269,1.7294006v8.803833c0,0.6483459-0.2574463,1.2702942-0.7150269,1.7294006
				c-0.45755,0.459137-1.0764465,0.7166138-1.7232361,0.7166138c-0.646759,0-1.2671814-0.2574768-1.724762-0.7166138
				c-0.4560242-0.4591064-0.7134705-1.0810547-0.7134705-1.7294006v-8.803833c0-0.6483459,0.2574463-1.2703247,0.7134705-1.7294006
				C425.6945801,301.0485535,426.3150024,300.7910767,426.9617615,300.7910767z"/>
			<path class="st3" d="M414.2849731,300.7910767c0.6468201,0,1.265686,0.2574768,1.7232666,0.7166138
				c0.4575195,0.4590759,0.7150269,1.0810547,0.7150269,1.7294006v8.803833c0,0.6483459-0.2575073,1.2702942-0.7150269,1.7294006
				c-0.4575806,0.459137-1.0764465,0.7166138-1.7232666,0.7166138c-0.6467896,0-1.2671814-0.2574768-1.724762-0.7166138
				c-0.4560242-0.4591064-0.7134705-1.0810547-0.7134705-1.7294006v-8.803833c0-0.6483459,0.2574463-1.2703247,0.7134705-1.7294006
				C413.0177917,301.0485535,413.6381836,300.7910767,414.2849731,300.7910767z"/>
			<path class="st3" d="M401.6081848,300.7910767c0.6468201,0,1.2672424,0.2574768,1.7232666,0.7166138
				c0.4575195,0.4590759,0.7150269,1.0810547,0.7150269,1.7294006v8.803833c0,0.6483459-0.2575073,1.2702942-0.7150269,1.7294006
				c-0.4560242,0.459137-1.0764465,0.7166138-1.7232666,0.7166138c-0.6467896,0-1.2672119-0.2574768-1.7232361-0.7166138
				c-0.4575195-0.4591064-0.7150269-1.0810547-0.7150269-1.7294006v-8.803833c0-0.6483459,0.2575073-1.2703247,0.7150269-1.7294006
				C400.3409729,301.0485535,400.9613953,300.7910767,401.6081848,300.7910767z"/>
			<path class="st3" d="M388.931427,300.7910767c0.6467896,0,1.2671814,0.2574768,1.7232056,0.7166138
				c0.45755,0.4590759,0.7150269,1.0810547,0.7150269,1.7294006v8.803833c0,0.6483459-0.2574768,1.2702942-0.7150269,1.7294006
				c-0.4560242,0.459137-1.076416,0.7166138-1.7232056,0.7166138c-0.6468201,0-1.2672424-0.2574768-1.7232666-0.7166138
				c-0.4575195-0.4591064-0.7150269-1.0810547-0.7150269-1.7294006v-8.803833c0-0.6483459,0.2575073-1.2703247,0.7150269-1.7294006
				C387.6641846,301.0485535,388.2846069,300.7910767,388.931427,300.7910767z"/>
			<path class="st3" d="M365.5274963,300.7910767c0.646759,0,1.2672424,0.2574768,1.724762,0.7166138
				c0.4575806,0.4590759,0.7135315,1.0810547,0.7135315,1.7294006v8.803833c0,0.6483459-0.2559509,1.2702942-0.7135315,1.7294006
				c-0.4575195,0.459137-1.0780029,0.7166138-1.724762,0.7166138c-0.6452332,0-1.265625-0.2574768-1.7232056-0.7166138
				c-0.4576111-0.4591064-0.713501-1.0810547-0.713501-1.7294006v-8.803833c0-0.6483459,0.2558899-1.2703247,0.713501-1.7294006
				C364.2618713,301.0485535,364.8822632,300.7910767,365.5274963,300.7910767z"/>
			<path class="st3" d="M352.8506775,300.7910767c0.6468506,0,1.2672424,0.2574768,1.7247925,0.7166138
				c0.4560242,0.4590759,0.7135315,1.0810547,0.7135315,1.7294006v8.803833c0,0.6483459-0.2575073,1.2702942-0.7135315,1.7294006
				c-0.45755,0.459137-1.0779419,0.7166138-1.7247925,0.7166138c-0.646759,0-1.265625-0.2574768-1.7232056-0.7166138
				c-0.4575195-0.4591064-0.7134705-1.0810547-0.7134705-1.7294006v-8.803833c0-0.6483459,0.2559509-1.2703247,0.7134705-1.7294006
				C351.5850525,301.0485535,352.2039185,300.7910767,352.8506775,300.7910767z"/>
			<path class="st3" d="M340.1738892,300.7910767c0.6468201,0,1.2672424,0.2574768,1.724823,0.7166138
				c0.4559631,0.4590759,0.7134705,1.0810547,0.7134705,1.7294006v8.803833c0,0.6483459-0.2575073,1.2702942-0.7134705,1.7294006
				c-0.4575806,0.459137-1.0780029,0.7166138-1.724823,0.7166138c-0.6467896,0-1.265625-0.2574768-1.7232056-0.7166138
				c-0.45755-0.4591064-0.7134705-1.0810547-0.7134705-1.7294006v-8.803833c0-0.6483459,0.2559204-1.2703247,0.7134705-1.7294006
				C338.9082642,301.0485535,339.5270996,300.7910767,340.1738892,300.7910767z"/>
			<path class="st3" d="M327.4971313,300.7910767c0.6467896,0,1.2672119,0.2574768,1.7247925,0.7166138
				c0.4559631,0.4590759,0.7134705,1.0810547,0.7134705,1.7294006v8.803833c0,0.6483459-0.2575073,1.2702942-0.7134705,1.7294006
				c-0.4575806,0.459137-1.0780029,0.7166138-1.7247925,0.7166138c-0.6468201,0-1.2656555-0.2574768-1.7232361-0.7166138
				c-0.45755-0.4591064-0.713501-1.0810547-0.713501-1.7294006v-8.803833c0-0.6483459,0.2559509-1.2703247,0.713501-1.7294006
				C326.2314758,301.0485535,326.8503113,300.7910767,327.4971313,300.7910767z"/>
			<path class="st3" d="M303.1191711,300.7910767c0.646759,0,1.2671814,0.2574768,1.7232056,0.7166138
				c0.4575806,0.4590759,0.7150269,1.0810547,0.7150269,1.7294006v8.803833c0,0.6483459-0.2574463,1.2702942-0.7150269,1.7294006
				c-0.4560242,0.459137-1.0764465,0.7166138-1.7232056,0.7166138c-0.6467896,0-1.2672119-0.2574768-1.7232361-0.7166138
				c-0.4575806-0.4591064-0.7150269-1.0810547-0.7150269-1.7294006v-8.803833c0-0.6483459,0.2574463-1.2703247,0.7150269-1.7294006
				C301.8519592,301.0485535,302.4723816,300.7910767,303.1191711,300.7910767z"/>
			<path class="st3" d="M290.4423523,300.7910767c0.6467896,0,1.2672424,0.2574768,1.7247925,0.7166138
				c0.4560242,0.4590759,0.7134705,1.0810547,0.7134705,1.7294006v8.803833c0,0.6483459-0.2574463,1.2702942-0.7134705,1.7294006
				c-0.45755,0.459137-1.0780029,0.7166138-1.7247925,0.7166138c-0.646759,0-1.2656555-0.2574768-1.7232056-0.7166138
				c-0.4575806-0.4591064-0.7150269-1.0810547-0.7150269-1.7294006v-8.803833c0-0.6483459,0.2574463-1.2703247,0.7150269-1.7294006
				C289.1766968,301.0485535,289.7955933,300.7910767,290.4423523,300.7910767z"/>
			<path class="st3" d="M277.765564,300.7910767c0.6468201,0,1.2672424,0.2574768,1.7232056,0.7166138
				c0.4575806,0.4590759,0.7150879,1.0810547,0.7150879,1.7294006v8.803833c0,0.6483459-0.2575073,1.2702942-0.7150879,1.7294006
				c-0.4559631,0.459137-1.0763855,0.7166138-1.7232056,0.7166138c-0.6467896,0-1.2671814-0.2574768-1.7232056-0.7166138
				c-0.4575806-0.4591064-0.7150574-1.0810547-0.7150574-1.7294006v-8.803833c0-0.6483459,0.2574768-1.2703247,0.7150574-1.7294006
				C276.4983826,301.0485535,277.1187744,300.7910767,277.765564,300.7910767z"/>
			<path class="st3" d="M265.0887756,300.7910767c0.6468201,0,1.2672119,0.2574768,1.7232361,0.7166138
				c0.45755,0.4590759,0.7150574,1.0810547,0.7150574,1.7294006v8.803833c0,0.6483459-0.2575073,1.2702942-0.7150574,1.7294006
				c-0.4560242,0.459137-1.076416,0.7166138-1.7232361,0.7166138c-0.6467896,0-1.2672119-0.2574768-1.7232361-0.7166138
				c-0.4575195-0.4591064-0.7150269-1.0810547-0.7150269-1.7294006v-8.803833c0-0.6483459,0.2575073-1.2703247,0.7150269-1.7294006
				C263.8215637,301.0485535,264.4419861,300.7910767,265.0887756,300.7910767z"/>
			<path class="st3" d="M241.6864319,300.7910767c0.6452179,0,1.2656403,0.2574768,1.7232208,0.7166138
				c0.4575806,0.4590759,0.7134705,1.0810547,0.7134705,1.7294006v8.803833c0,0.6483459-0.2558899,1.2702942-0.7134705,1.7294006
				c-0.4575806,0.459137-1.0780029,0.7166138-1.7232208,0.7166138c-0.6467743,0-1.2672272-0.2574768-1.7247772-0.7166138
				c-0.4575806-0.4591064-0.7134705-1.0810547-0.7134705-1.7294006v-8.803833c0-0.6483459,0.2558899-1.2703247,0.7134705-1.7294006
				C240.4192047,301.0485535,241.0396576,300.7910767,241.6864319,300.7910767z"/>
			<path class="st3" d="M229.0096436,300.7910767c0.6452179,0,1.2656708,0.2574768,1.7232056,0.7166138
				c0.4575806,0.4590759,0.7134705,1.0810547,0.7134705,1.7294006v8.803833c0,0.6483459-0.2558899,1.2702942-0.7134705,1.7294006
				c-0.4575348,0.459137-1.0779877,0.7166138-1.7232056,0.7166138c-0.6467896,0-1.2672424-0.2574768-1.7247772-0.7166138
				c-0.4575806-0.4591064-0.7134705-1.0810547-0.7134705-1.7294006v-8.803833c0-0.6483459,0.2558899-1.2703247,0.7134705-1.7294006
				C227.7424011,301.0485535,228.362854,300.7910767,229.0096436,300.7910767z"/>
			<path class="st3" d="M216.33284,300.7910767c0.6452637,0,1.2656708,0.2574768,1.7232056,0.7166138
				c0.4575958,0.4590759,0.7135315,1.0810547,0.7135315,1.7294006v8.803833c0,0.6483459-0.2559357,1.2702942-0.7135315,1.7294006
				c-0.4575348,0.459137-1.0779419,0.7166138-1.7232056,0.7166138c-0.6467743,0-1.2671967-0.2574768-1.7247772-0.7166138
				c-0.4575806-0.4591064-0.7134705-1.0810547-0.7134705-1.7294006v-8.803833c0-0.6483459,0.2558899-1.2703247,0.7134705-1.7294006
				C215.0656433,301.0485535,215.6860657,300.7910767,216.33284,300.7910767z"/>
			<path class="st3" d="M203.65448,300.7910767c0.6468201,0,1.2672424,0.2574768,1.7247772,0.7166138
				c0.4575806,0.4590759,0.7135162,1.0810547,0.7135162,1.7294006v8.803833c0,0.6483459-0.2559357,1.2702942-0.7135162,1.7294006
				c-0.4575348,0.459137-1.0779572,0.7166138-1.7247772,0.7166138c-0.6452179,0-1.265625-0.2574768-1.7232056-0.7166138
				c-0.45755-0.4591064-0.7134857-1.0810547-0.7134857-1.7294006v-8.803833c0-0.6483459,0.2559357-1.2703247,0.7134857-1.7294006
				C202.388855,301.0485535,203.0092621,300.7910767,203.65448,300.7910767z"/>
			<path class="st3" d="M178.3024445,300.7910767c0.6452637,0,1.2656708,0.2574768,1.7232666,0.7166138
				c0.4575348,0.4590759,0.7134705,1.0810547,0.7134705,1.7294006v8.803833c0,0.6483459-0.2559357,1.2702942-0.7134705,1.7294006
				c-0.4575958,0.459137-1.0780029,0.7166138-1.7232666,0.7166138c-0.6467743,0-1.2671967-0.2574768-1.7247772-0.7166138
				c-0.4575348-0.4591064-0.7134705-1.0810547-0.7134705-1.7294006v-8.803833c0-0.6483459,0.2559357-1.2703247,0.7134705-1.7294006
				C177.0352478,301.0485535,177.6556702,300.7910767,178.3024445,300.7910767z"/>
			<path class="st3" d="M165.6257019,300.7910767c0.6452026,0,1.265625,0.2574768,1.7232056,0.7166138
				c0.4575348,0.4590759,0.7134705,1.0810547,0.7134705,1.7294006v8.803833c0,0.6483459-0.2559357,1.2702942-0.7134705,1.7294006
				c-0.4575806,0.459137-1.0780029,0.7166138-1.7232056,0.7166138c-0.6468353,0-1.2672424-0.2574768-1.7247772-0.7166138
				c-0.4560242-0.4591064-0.7135315-1.0810547-0.7135315-1.7294006v-8.803833c0-0.6483459,0.2575073-1.2703247,0.7135315-1.7294006
				C164.3584595,301.0485535,164.9788666,300.7910767,165.6257019,300.7910767z"/>
			<path class="st3" d="M152.9488983,300.7910767c0.6452179,0,1.265625,0.2574768,1.7232056,0.7166138
				c0.4575806,0.4590759,0.7134857,1.0810547,0.7134857,1.7294006v8.803833c0,0.6483459-0.2559052,1.2702942-0.7134857,1.7294006
				c-0.4575806,0.459137-1.0779877,0.7166138-1.7232056,0.7166138c-0.6468353,0-1.2672424-0.2574768-1.7247772-0.7166138
				c-0.4575806-0.4591064-0.7135162-1.0810547-0.7135162-1.7294006v-8.803833c0-0.6483459,0.2559357-1.2703247,0.7135162-1.7294006
				C151.6816559,301.0485535,152.302063,300.7910767,152.9488983,300.7910767z"/>
			<path class="st3" d="M140.2720947,300.7910767c0.6452179,0,1.265686,0.2574768,1.7232208,0.7166138
				c0.4575806,0.4590759,0.7134705,1.0810547,0.7134705,1.7294006v8.803833c0,0.6483459-0.2558899,1.2702942-0.7134705,1.7294006
				c-0.4575348,0.459137-1.0780029,0.7166138-1.7232208,0.7166138c-0.6467743,0-1.2672424-0.2574768-1.7247772-0.7166138
				c-0.4575806-0.4591064-0.7134705-1.0810547-0.7134705-1.7294006v-8.803833c0-0.6483459,0.2558899-1.2703247,0.7134705-1.7294006
				C139.0048523,301.0485535,139.6253204,300.7910767,140.2720947,300.7910767z"/>
			<path class="st3" d="M742.9056396,145.252594c0.6464844,0,1.2666016,0.2576294,1.7236938,0.7162781
				c0.4572754,0.4586487,0.7141113,1.0806274,0.7141113,1.7292786v8.8039551c0,0.6486511-0.2568359,1.2706146-0.7141113,1.7297363
				c-0.4570923,0.4575653-1.0772095,0.7150421-1.7236938,0.7150421c-0.6466064,0-1.2667236-0.2574768-1.7238159-0.7150421
				c-0.4572754-0.4591217-0.7141113-1.0810852-0.7141113-1.7297363v-8.8039551c0-0.6486511,0.2568359-1.2706299,0.7141113-1.7292786
				C741.638916,145.5102234,742.2590332,145.252594,742.9056396,145.252594z"/>
			<path class="st3" d="M730.229187,145.252594c0.6467896,0,1.265686,0.2576294,1.7232056,0.7162781
				c0.4573975,0.4586487,0.7142944,1.0806274,0.7142944,1.7292786v8.8039551c0,0.6486511-0.256897,1.2706146-0.7142944,1.7297363
				c-0.4575195,0.4575653-1.076416,0.7150421-1.7232056,0.7150421s-1.2672119-0.2574768-1.7247925-0.7150421
				c-0.4559937-0.4591217-0.7134399-1.0810852-0.7134399-1.7297363v-8.8039551c0-0.6486511,0.2574463-1.2706299,0.7134399-1.7292786
				C728.9619751,145.5102234,729.5823975,145.252594,730.229187,145.252594z"/>
			<path class="st3" d="M717.5523682,145.252594c0.6467896,0,1.2672729,0.2576294,1.7232056,0.7162781
				c0.4575806,0.4586487,0.7150269,1.0806274,0.7150269,1.7292786v8.8039551c0,0.6486511-0.2574463,1.2706146-0.7150269,1.7297363
				c-0.4559326,0.4575653-1.076416,0.7150421-1.7232056,0.7150421s-1.2671509-0.2574768-1.7232056-0.7150421
				c-0.4575806-0.4591217-0.7150269-1.0810852-0.7150269-1.7297363v-8.8039551c0-0.6486511,0.2574463-1.2706299,0.7150269-1.7292786
				C716.2852173,145.5102234,716.9055786,145.252594,717.5523682,145.252594z"/>
			<path class="st3" d="M704.8756104,145.252594c0.6467285,0,1.265625,0.2576294,1.7232056,0.7162781
				s0.7150879,1.0806274,0.7150879,1.7292786v8.8039551c0,0.6486511-0.2575073,1.2706146-0.7150879,1.7297363
				c-0.4575806,0.4575653-1.0764771,0.7150421-1.7232056,0.7150421c-0.6467896,0-1.2672119-0.2574768-1.7247925-0.7150421
				c-0.4560547-0.4591217-0.713501-1.0810852-0.713501-1.7297363v-8.8039551c0-0.6486511,0.2574463-1.2706299,0.713501-1.7292786
				C703.6083984,145.5102234,704.2288208,145.252594,704.8756104,145.252594z"/>
			<path class="st3" d="M678.5464478,145.252594c0.6467285,0,1.2671509,0.2576294,1.7232056,0.7162781
				c0.4575195,0.4586487,0.7150269,1.0806274,0.7150269,1.7292786v8.8039551c0,0.6486511-0.2575073,1.2706146-0.7150269,1.7297363
				c-0.4560547,0.4575653-1.0764771,0.7150421-1.7232056,0.7150421c-0.6468506,0-1.2672729-0.2574768-1.7232666-0.7150421
				c-0.4575806-0.4591217-0.7150269-1.0810852-0.7150269-1.7297363v-8.8039551c0-0.6486511,0.2574463-1.2706299,0.7150269-1.7292786
				C677.2791748,145.5102234,677.8995972,145.252594,678.5464478,145.252594z"/>
			<path class="st3" d="M665.8696289,145.252594c0.6467896,0,1.2672119,0.2576294,1.7247925,0.7162781
				c0.4559326,0.4586487,0.7134399,1.0806274,0.7134399,1.7292786v8.8039551c0,0.6486511-0.2575073,1.2706146-0.7134399,1.7297363
				c-0.4575806,0.4575653-1.0780029,0.7150421-1.7247925,0.7150421c-0.6468506,0-1.265686-0.2574768-1.7232666-0.7150421
				c-0.4575195-0.4591217-0.7150269-1.0810852-0.7150269-1.7297363v-8.8039551c0-0.6486511,0.2575073-1.2706299,0.7150269-1.7292786
				C664.6039429,145.5102234,665.2227783,145.252594,665.8696289,145.252594z"/>
			<path class="st3" d="M653.1928101,145.252594c0.6467896,0,1.2672119,0.2576294,1.7247925,0.7162781
				c0.4559937,0.4586487,0.7134399,1.0806274,0.7134399,1.7292786v8.8039551c0,0.6486511-0.2574463,1.2706146-0.7134399,1.7297363
				c-0.4575806,0.4575653-1.0780029,0.7150421-1.7247925,0.7150421s-1.265686-0.2574768-1.7232056-0.7150421
				c-0.4575806-0.4591217-0.713501-1.0810852-0.713501-1.7297363v-8.8039551c0-0.6486511,0.2559204-1.2706299,0.713501-1.7292786
				C651.927124,145.5102234,652.5460205,145.252594,653.1928101,145.252594z"/>
			<path class="st3" d="M640.5160522,145.252594c0.6467285,0,1.2671509,0.2576294,1.7247314,0.7162781
				c0.4560547,0.4586487,0.713501,1.0806274,0.713501,1.7292786v8.8039551c0,0.6486511-0.2574463,1.2706146-0.713501,1.7297363
				c-0.4575806,0.4575653-1.0780029,0.7150421-1.7247314,0.7150421c-0.6467896,0-1.265686-0.2574768-1.7232666-0.7150421
				c-0.4575806-0.4591217-0.7150269-1.0810852-0.7150269-1.7297363v-8.8039551c0-0.6486511,0.2574463-1.2706299,0.7150269-1.7292786
				S639.8692627,145.252594,640.5160522,145.252594z"/>
			<path class="st3" d="M616.1380615,145.252594c0.6467896,0,1.2672119,0.2576294,1.7232666,0.7162781
				c0.4575195,0.4586487,0.7150269,1.0806274,0.7150269,1.7292786v8.8039551c0,0.6486511-0.2575073,1.2706146-0.7150269,1.7297363
				c-0.4560547,0.4575653-1.0764771,0.7150421-1.7232666,0.7150421s-1.2672119-0.2574768-1.7232056-0.7150421
				c-0.4575806-0.4591217-0.7150879-1.0810852-0.7150879-1.7297363v-8.8039551c0-0.6486511,0.2575073-1.2706299,0.7150879-1.7292786
				C614.8708496,145.5102234,615.491272,145.252594,616.1380615,145.252594z"/>
			<path class="st3" d="M603.4612427,145.252594c0.6468506,0,1.2672119,0.2576294,1.7232666,0.7162781
				c0.4575195,0.4586487,0.7150269,1.0806274,0.7150269,1.7292786v8.8039551c0,0.6486511-0.2575073,1.2706146-0.7150269,1.7297363
				c-0.4560547,0.4575653-1.076416,0.7150421-1.7232666,0.7150421c-0.6467896,0-1.2672119-0.2574768-1.7232056-0.7150421
				c-0.4575195-0.4591217-0.7150269-1.0810852-0.7150269-1.7297363v-8.8039551c0-0.6486511,0.2575073-1.2706299,0.7150269-1.7292786
				C602.1940308,145.5102234,602.8144531,145.252594,603.4612427,145.252594z"/>
			<path class="st3" d="M590.7844849,145.252594c0.6467896,0,1.2672119,0.2576294,1.7232056,0.7162781
				c0.4575195,0.4586487,0.7150269,1.0806274,0.7150269,1.7292786v8.8039551c0,0.6486511-0.2575073,1.2706146-0.7150269,1.7297363
				c-0.4559937,0.4575653-1.076416,0.7150421-1.7232056,0.7150421s-1.2672119-0.2574768-1.7232666-0.7150421
				c-0.4575195-0.4591217-0.7150269-1.0810852-0.7150269-1.7297363v-8.8039551c0-0.6486511,0.2575073-1.2706299,0.7150269-1.7292786
				C589.5172729,145.5102234,590.1376953,145.252594,590.7844849,145.252594z"/>
			<path class="st3" d="M578.107666,145.252594c0.6467896,0,1.2672119,0.2576294,1.7232666,0.7162781
				c0.4575806,0.4586487,0.7150269,1.0806274,0.7150269,1.7292786v8.8039551c0,0.6486511-0.2574463,1.2706146-0.7150269,1.7297363
				c-0.4560547,0.4575653-1.0764771,0.7150421-1.7232666,0.7150421s-1.2672119-0.2574768-1.7232056-0.7150421
				c-0.4575806-0.4591217-0.7150879-1.0810852-0.7150879-1.7297363v-8.8039551c0-0.6486511,0.2575073-1.2706299,0.7150879-1.7292786
				C576.8404541,145.5102234,577.4608765,145.252594,578.107666,145.252594z"/>
			<path class="st3" d="M553.7297363,145.252594c0.6467285,0,1.265625,0.2576294,1.7232056,0.7162781
				s0.713501,1.0806274,0.713501,1.7292786v8.8039551c0,0.6486511-0.2559204,1.2706146-0.713501,1.7297363
				c-0.4575806,0.4575653-1.0764771,0.7150421-1.7232056,0.7150421c-0.6467896,0-1.2672119-0.2574768-1.7247925-0.7150421
				c-0.4560547-0.4591217-0.713501-1.0810852-0.713501-1.7297363v-8.8039551c0-0.6486511,0.2574463-1.2706299,0.713501-1.7292786
				C552.4625244,145.5102234,553.0829468,145.252594,553.7297363,145.252594z"/>
			<path class="st3" d="M541.0529175,145.252594c0.6467896,0,1.265686,0.2576294,1.7232056,0.7162781
				c0.4575806,0.4586487,0.713501,1.0806274,0.713501,1.7292786v8.8039551c0,0.6486511-0.2559204,1.2706146-0.713501,1.7297363
				c-0.4575195,0.4575653-1.076416,0.7150421-1.7232056,0.7150421s-1.2672119-0.2574768-1.7247925-0.7150421
				c-0.4559937-0.4591217-0.7134399-1.0810852-0.7134399-1.7297363v-8.8039551c0-0.6486511,0.2574463-1.2706299,0.7134399-1.7292786
				C539.7857056,145.5102234,540.4061279,145.252594,541.0529175,145.252594z"/>
			<path class="st3" d="M528.3760986,145.252594c0.6468506,0,1.265686,0.2576294,1.7232666,0.7162781
				c0.4575195,0.4586487,0.713501,1.0806274,0.713501,1.7292786v8.8039551c0,0.6486511-0.2559814,1.2706146-0.713501,1.7297363
				c-0.4575806,0.4575653-1.076416,0.7150421-1.7232666,0.7150421c-0.6467896,0-1.2671509-0.2574768-1.7247314-0.7150421
				c-0.4559937-0.4591217-0.713501-1.0810852-0.713501-1.7297363v-8.8039551c0-0.6486511,0.2575073-1.2706299,0.713501-1.7292786
				C527.1089478,145.5102234,527.7293091,145.252594,528.3760986,145.252594z"/>
			<path class="st3" d="M515.6993408,145.252594c0.6467896,0,1.265625,0.2576294,1.7232056,0.7162781
				s0.713501,1.0806274,0.713501,1.7292786v8.8039551c0,0.6486511-0.2559204,1.2706146-0.713501,1.7297363
				c-0.4575806,0.4575653-1.076416,0.7150421-1.7232056,0.7150421s-1.2672119-0.2574768-1.7247925-0.7150421
				c-0.4559937-0.4591217-0.713501-1.0810852-0.713501-1.7297363v-8.8039551c0-0.6486511,0.2575073-1.2706299,0.713501-1.7292786
				C514.4321289,145.5102234,515.0525513,145.252594,515.6993408,145.252594z"/>
			<path class="st3" d="M489.3701172,145.252594c0.6468201,0,1.2672424,0.2576294,1.7232361,0.7162781
				c0.45755,0.4586487,0.7150574,1.0806274,0.7150574,1.7292786v8.8039551c0,0.6486511-0.2575073,1.2706146-0.7150574,1.7297363
				c-0.4559937,0.4575653-1.076416,0.7150421-1.7232361,0.7150421c-0.6467896,0-1.2672119-0.2574768-1.7232361-0.7150421
				c-0.4575195-0.4591217-0.7150269-1.0810852-0.7150269-1.7297363v-8.8039551c0-0.6486511,0.2575073-1.2706299,0.7150269-1.7292786
				C488.1029053,145.5102234,488.7233276,145.252594,489.3701172,145.252594z"/>
			<path class="st3" d="M476.6933594,145.252594c0.646759,0,1.2671814,0.2576294,1.724762,0.7162781
				c0.4559937,0.4586487,0.7134705,1.0806274,0.7134705,1.7292786v8.8039551c0,0.6486511-0.2574768,1.2706146-0.7134705,1.7297363
				c-0.4575806,0.4575653-1.0780029,0.7150421-1.724762,0.7150421c-0.6468201,0-1.265686-0.2574768-1.7232666-0.7150421
				c-0.4575195-0.4591217-0.7150269-1.0810852-0.7150269-1.7297363v-8.8039551c0-0.6486511,0.2575073-1.2706299,0.7150269-1.7292786
				C475.4276733,145.5102234,476.0465393,145.252594,476.6933594,145.252594z"/>
			<path class="st3" d="M464.016571,145.252594c0.646759,0,1.2671814,0.2576294,1.7232056,0.7162781
				c0.4575195,0.4586487,0.7150269,1.0806274,0.7150269,1.7292786v8.8039551c0,0.6486511-0.2575073,1.2706146-0.7150269,1.7297363
				c-0.4560242,0.4575653-1.0764465,0.7150421-1.7232056,0.7150421c-0.6468506,0-1.2672424-0.2574768-1.7232666-0.7150421
				c-0.45755-0.4591217-0.7150574-1.0810852-0.7150574-1.7297363v-8.8039551c0-0.6486511,0.2575073-1.2706299,0.7150574-1.7292786
				C462.7493286,145.5102234,463.3697205,145.252594,464.016571,145.252594z"/>
			<path class="st3" d="M451.3397522,145.252594c0.6467896,0,1.2672119,0.2576294,1.7232056,0.7162781
				c0.4575806,0.4586487,0.7150574,1.0806274,0.7150574,1.7292786v8.8039551c0,0.6486511-0.2574768,1.2706146-0.7150574,1.7297363
				c-0.4559937,0.4575653-1.076416,0.7150421-1.7232056,0.7150421c-0.646759,0-1.2672424-0.2574768-1.7232056-0.7150421
				c-0.4575806-0.4591217-0.7150269-1.0810852-0.7150269-1.7297363v-8.8039551c0-0.6486511,0.2574463-1.2706299,0.7150269-1.7292786
				C450.0725098,145.5102234,450.6929932,145.252594,451.3397522,145.252594z"/>
			<path class="st3" d="M426.9617615,145.252594c0.6467896,0,1.265686,0.2576294,1.7232361,0.7162781
				c0.4575806,0.4586487,0.7150269,1.0806274,0.7150269,1.7292786v8.8039551c0,0.6486511-0.2574463,1.2706146-0.7150269,1.7297363
				c-0.45755,0.4575653-1.0764465,0.7150421-1.7232361,0.7150421c-0.646759,0-1.2671814-0.2574768-1.724762-0.7150421
				c-0.4560242-0.4591217-0.7134705-1.0810852-0.7134705-1.7297363v-8.8039551c0-0.6486511,0.2574463-1.2706299,0.7134705-1.7292786
				C425.6945801,145.5102234,426.3150024,145.252594,426.9617615,145.252594z"/>
			<path class="st3" d="M414.2849731,145.252594c0.6468201,0,1.265686,0.2576294,1.7232666,0.7162781
				c0.4575195,0.4586487,0.7150269,1.0806274,0.7150269,1.7292786v8.8039551c0,0.6486511-0.2575073,1.2706146-0.7150269,1.7297363
				c-0.4575806,0.4575653-1.0764465,0.7150421-1.7232666,0.7150421c-0.6467896,0-1.2671814-0.2574768-1.724762-0.7150421
				c-0.4560242-0.4591217-0.7134705-1.0810852-0.7134705-1.7297363v-8.8039551c0-0.6486511,0.2574463-1.2706299,0.7134705-1.7292786
				C413.0177917,145.5102234,413.6381836,145.252594,414.2849731,145.252594z"/>
			<path class="st3" d="M401.6081848,145.252594c0.6468201,0,1.2672424,0.2576294,1.7232666,0.7162781
				c0.4575195,0.4586487,0.7150269,1.0806274,0.7150269,1.7292786v8.8039551c0,0.6486511-0.2575073,1.2706146-0.7150269,1.7297363
				c-0.4560242,0.4575653-1.0764465,0.7150421-1.7232666,0.7150421c-0.6467896,0-1.2672119-0.2574768-1.7232361-0.7150421
				c-0.4575195-0.4591217-0.7150269-1.0810852-0.7150269-1.7297363v-8.8039551c0-0.6486511,0.2575073-1.2706299,0.7150269-1.7292786
				C400.3409729,145.5102234,400.9613953,145.252594,401.6081848,145.252594z"/>
			<path class="st3" d="M388.931427,145.252594c0.6467896,0,1.2671814,0.2576294,1.7232056,0.7162781
				c0.45755,0.4586487,0.7150269,1.0806274,0.7150269,1.7292786v8.8039551c0,0.6486511-0.2574768,1.2706146-0.7150269,1.7297363
				c-0.4560242,0.4575653-1.076416,0.7150421-1.7232056,0.7150421c-0.6468201,0-1.2672424-0.2574768-1.7232666-0.7150421
				c-0.4575195-0.4591217-0.7150269-1.0810852-0.7150269-1.7297363v-8.8039551c0-0.6486511,0.2575073-1.2706299,0.7150269-1.7292786
				C387.6641846,145.5102234,388.2846069,145.252594,388.931427,145.252594z"/>
			<path class="st3" d="M365.5274963,145.252594c0.646759,0,1.2672424,0.2576294,1.724762,0.7162781
				c0.4575806,0.4586487,0.7135315,1.0806274,0.7135315,1.7292786v8.8039551c0,0.6486511-0.2559509,1.2706146-0.7135315,1.7297363
				c-0.4575195,0.4575653-1.0780029,0.7150421-1.724762,0.7150421c-0.6452332,0-1.265625-0.2574768-1.7232056-0.7150421
				c-0.4576111-0.4591217-0.713501-1.0810852-0.713501-1.7297363v-8.8039551c0-0.6486511,0.2558899-1.2706299,0.713501-1.7292786
				C364.2618713,145.5102234,364.8822632,145.252594,365.5274963,145.252594z"/>
			<path class="st3" d="M352.8506775,145.252594c0.6468506,0,1.2672424,0.2576294,1.7247925,0.7162781
				c0.4560242,0.4586487,0.7135315,1.0806274,0.7135315,1.7292786v8.8039551c0,0.6486511-0.2575073,1.2706146-0.7135315,1.7297363
				c-0.45755,0.4575653-1.0779419,0.7150421-1.7247925,0.7150421c-0.646759,0-1.265625-0.2574768-1.7232056-0.7150421
				c-0.4575195-0.4591217-0.7134705-1.0810852-0.7134705-1.7297363v-8.8039551c0-0.6486511,0.2559509-1.2706299,0.7134705-1.7292786
				C351.5850525,145.5102234,352.2039185,145.252594,352.8506775,145.252594z"/>
			<path class="st3" d="M340.1738892,145.252594c0.6468201,0,1.2672424,0.2576294,1.724823,0.7162781
				c0.4559631,0.4586487,0.7134705,1.0806274,0.7134705,1.7292786v8.8039551c0,0.6486511-0.2575073,1.2706146-0.7134705,1.7297363
				c-0.4575806,0.4575653-1.0780029,0.7150421-1.724823,0.7150421c-0.6467896,0-1.265625-0.2574768-1.7232056-0.7150421
				c-0.45755-0.4591217-0.7134705-1.0810852-0.7134705-1.7297363v-8.8039551c0-0.6486511,0.2559204-1.2706299,0.7134705-1.7292786
				C338.9082642,145.5102234,339.5270996,145.252594,340.1738892,145.252594z"/>
			<path class="st3" d="M327.4971313,145.252594c0.6467896,0,1.2672119,0.2576294,1.7247925,0.7162781
				c0.4559631,0.4586487,0.7134705,1.0806274,0.7134705,1.7292786v8.8039551c0,0.6486511-0.2575073,1.2706146-0.7134705,1.7297363
				c-0.4575806,0.4575653-1.0780029,0.7150421-1.7247925,0.7150421c-0.6468201,0-1.2656555-0.2574768-1.7232361-0.7150421
				c-0.45755-0.4591217-0.713501-1.0810852-0.713501-1.7297363v-8.8039551c0-0.6486511,0.2559509-1.2706299,0.713501-1.7292786
				C326.2314758,145.5102234,326.8503113,145.252594,327.4971313,145.252594z"/>
			<path class="st3" d="M303.1191711,145.252594c0.646759,0,1.2671814,0.2576294,1.7232056,0.7162781
				c0.4575806,0.4586487,0.7150269,1.0806274,0.7150269,1.7292786v8.8039551c0,0.6486511-0.2574463,1.2706146-0.7150269,1.7297363
				c-0.4560242,0.4575653-1.0764465,0.7150421-1.7232056,0.7150421c-0.6467896,0-1.2672119-0.2574768-1.7232361-0.7150421
				c-0.4575806-0.4591217-0.7150269-1.0810852-0.7150269-1.7297363v-8.8039551c0-0.6486511,0.2574463-1.2706299,0.7150269-1.7292786
				C301.8519592,145.5102234,302.4723816,145.252594,303.1191711,145.252594z"/>
			<path class="st3" d="M290.4423523,145.252594c0.6467896,0,1.2672424,0.2576294,1.7247925,0.7162781
				c0.4560242,0.4586487,0.7134705,1.0806274,0.7134705,1.7292786v8.8039551c0,0.6486511-0.2574463,1.2706146-0.7134705,1.7297363
				c-0.45755,0.4575653-1.0780029,0.7150421-1.7247925,0.7150421c-0.646759,0-1.2656555-0.2574768-1.7232056-0.7150421
				c-0.4575806-0.4591217-0.7150269-1.0810852-0.7150269-1.7297363v-8.8039551c0-0.6486511,0.2574463-1.2706299,0.7150269-1.7292786
				C289.1766968,145.5102234,289.7955933,145.252594,290.4423523,145.252594z"/>
			<path class="st3" d="M277.765564,145.252594c0.6468201,0,1.2672424,0.2576294,1.7232056,0.7162781
				c0.4575806,0.4586487,0.7150879,1.0806274,0.7150879,1.7292786v8.8039551c0,0.6486511-0.2575073,1.2706146-0.7150879,1.7297363
				c-0.4559631,0.4575653-1.0763855,0.7150421-1.7232056,0.7150421c-0.6467896,0-1.2671814-0.2574768-1.7232056-0.7150421
				c-0.4575806-0.4591217-0.7150574-1.0810852-0.7150574-1.7297363v-8.8039551c0-0.6486511,0.2574768-1.2706299,0.7150574-1.7292786
				C276.4983826,145.5102234,277.1187744,145.252594,277.765564,145.252594z"/>
			<path class="st3" d="M265.0887756,145.252594c0.6468201,0,1.2672119,0.2576294,1.7232361,0.7162781
				c0.45755,0.4586487,0.7150574,1.0806274,0.7150574,1.7292786v8.8039551c0,0.6486511-0.2575073,1.2706146-0.7150574,1.7297363
				c-0.4560242,0.4575653-1.076416,0.7150421-1.7232361,0.7150421c-0.6467896,0-1.2672119-0.2574768-1.7232361-0.7150421
				c-0.4575195-0.4591217-0.7150269-1.0810852-0.7150269-1.7297363v-8.8039551c0-0.6486511,0.2575073-1.2706299,0.7150269-1.7292786
				C263.8215637,145.5102234,264.4419861,145.252594,265.0887756,145.252594z"/>
			<path class="st3" d="M241.6864319,145.252594c0.6452179,0,1.2656403,0.2576294,1.7232208,0.7162781
				s0.7134705,1.0806274,0.7134705,1.7292786v8.8039551c0,0.6486511-0.2558899,1.2706146-0.7134705,1.7297363
				c-0.4575806,0.4575653-1.0780029,0.7150421-1.7232208,0.7150421c-0.6467743,0-1.2672272-0.2574768-1.7247772-0.7150421
				c-0.4575806-0.4591217-0.7134705-1.0810852-0.7134705-1.7297363v-8.8039551c0-0.6486511,0.2558899-1.2706299,0.7134705-1.7292786
				C240.4192047,145.5102234,241.0396576,145.252594,241.6864319,145.252594z"/>
			<path class="st3" d="M229.0096436,145.252594c0.6452179,0,1.2656708,0.2576294,1.7232056,0.7162781
				c0.4575806,0.4586487,0.7134705,1.0806274,0.7134705,1.7292786v8.8039551c0,0.6486511-0.2558899,1.2706146-0.7134705,1.7297363
				c-0.4575348,0.4575653-1.0779877,0.7150421-1.7232056,0.7150421c-0.6467896,0-1.2672424-0.2574768-1.7247772-0.7150421
				c-0.4575806-0.4591217-0.7134705-1.0810852-0.7134705-1.7297363v-8.8039551c0-0.6486511,0.2558899-1.2706299,0.7134705-1.7292786
				C227.7424011,145.5102234,228.362854,145.252594,229.0096436,145.252594z"/>
			<path class="st3" d="M216.33284,145.252594c0.6452637,0,1.2656708,0.2576294,1.7232056,0.7162781
				c0.4575958,0.4586487,0.7135315,1.0806274,0.7135315,1.7292786v8.8039551c0,0.6486511-0.2559357,1.2706146-0.7135315,1.7297363
				c-0.4575348,0.4575653-1.0779419,0.7150421-1.7232056,0.7150421c-0.6467743,0-1.2671967-0.2574768-1.7247772-0.7150421
				c-0.4575806-0.4591217-0.7134705-1.0810852-0.7134705-1.7297363v-8.8039551c0-0.6486511,0.2558899-1.2706299,0.7134705-1.7292786
				S215.6860657,145.252594,216.33284,145.252594z"/>
			<path class="st3" d="M203.65448,145.252594c0.6468201,0,1.2672424,0.2576294,1.7247772,0.7162781
				c0.4575806,0.4586487,0.7135162,1.0806274,0.7135162,1.7292786v8.8039551c0,0.6486511-0.2559357,1.2706146-0.7135162,1.7297363
				c-0.4575348,0.4575653-1.0779572,0.7150421-1.7247772,0.7150421c-0.6452179,0-1.265625-0.2574768-1.7232056-0.7150421
				c-0.45755-0.4591217-0.7134857-1.0810852-0.7134857-1.7297363v-8.8039551c0-0.6486511,0.2559357-1.2706299,0.7134857-1.7292786
				C202.388855,145.5102234,203.0092621,145.252594,203.65448,145.252594z"/>
			<path class="st3" d="M178.3024445,145.252594c0.6452637,0,1.2656708,0.2576294,1.7232666,0.7162781
				c0.4575348,0.4586487,0.7134705,1.0806274,0.7134705,1.7292786v8.8039551c0,0.6486511-0.2559357,1.2706146-0.7134705,1.7297363
				c-0.4575958,0.4575653-1.0780029,0.7150421-1.7232666,0.7150421c-0.6467743,0-1.2671967-0.2574768-1.7247772-0.7150421
				c-0.4575348-0.4591217-0.7134705-1.0810852-0.7134705-1.7297363v-8.8039551c0-0.6486511,0.2559357-1.2706299,0.7134705-1.7292786
				C177.0352478,145.5102234,177.6556702,145.252594,178.3024445,145.252594z"/>
			<path class="st3" d="M165.6257019,145.252594c0.6452026,0,1.265625,0.2576294,1.7232056,0.7162781
				c0.4575348,0.4586487,0.7134705,1.0806274,0.7134705,1.7292786v8.8039551c0,0.6486511-0.2559357,1.2706146-0.7134705,1.7297363
				c-0.4575806,0.4575653-1.0780029,0.7150421-1.7232056,0.7150421c-0.6468353,0-1.2672424-0.2574768-1.7247772-0.7150421
				c-0.4575806-0.4591217-0.7135315-1.0810852-0.7135315-1.7297363v-8.8039551c0-0.6486511,0.2559509-1.2706299,0.7135315-1.7292786
				C164.3584595,145.5102234,164.9788666,145.252594,165.6257019,145.252594z"/>
			<path class="st3" d="M152.9488983,145.252594c0.6452179,0,1.265625,0.2576294,1.7232056,0.7162781
				s0.7134857,1.0806274,0.7134857,1.7292786v8.8039551c0,0.6486511-0.2559052,1.2706146-0.7134857,1.7297363
				c-0.4575806,0.4575653-1.0779877,0.7150421-1.7232056,0.7150421c-0.6468353,0-1.2672424-0.2574768-1.7247772-0.7150421
				c-0.4575806-0.4591217-0.7135162-1.0810852-0.7135162-1.7297363v-8.8039551c0-0.6486511,0.2559357-1.2706299,0.7135162-1.7292786
				C151.6816559,145.5102234,152.302063,145.252594,152.9488983,145.252594z"/>
			<path class="st3" d="M140.2720947,145.252594c0.6452179,0,1.265686,0.2576294,1.7232208,0.7162781
				c0.4575806,0.4586487,0.7134705,1.0806274,0.7134705,1.7292786v8.8039551c0,0.6486511-0.2558899,1.2706146-0.7134705,1.7297363
				c-0.4575348,0.4575653-1.0780029,0.7150421-1.7232208,0.7150421c-0.6467743,0-1.2672424-0.2574768-1.7247772-0.7150421
				c-0.4575806-0.4591217-0.7134705-1.0810852-0.7134705-1.7297363v-8.8039551c0-0.6486511,0.2558899-1.2706299,0.7134705-1.7292786
				C139.0048523,145.5102234,139.6253204,145.252594,140.2720947,145.252594z"/>
		</g>
	</g>
</g>
</svg>
