<svg width="187" height="363" viewBox="0 0 187 363" fill="none" xmlns="http://www.w3.org/2000/svg">
<path d="M-0.223481 361.914L-0.223465 1.57405C-0.223465 1.30859 -0.117401 1.05399 0.0713806 0.866281C0.260178 0.678567 0.51622 0.573112 0.783203 0.573112L186.415 0.57312C186.682 0.57312 186.938 0.678576 187.127 0.866289C187.315 1.054 187.421 1.3086 187.421 1.57406L187.421 361.914C187.421 362.179 187.315 362.434 187.127 362.621C186.938 362.809 186.682 362.914 186.415 362.914L0.783187 362.914C0.516204 362.914 0.260162 362.809 0.0713648 362.621C-0.117417 362.434 -0.223481 362.179 -0.223481 361.914ZM1.78989 2.575L1.78987 360.913L185.408 360.913L185.408 2.57501L1.78989 2.575Z" fill="white"/>
</svg>
