<svg width="421" height="818" viewBox="0 0 421 818" fill="none" xmlns="http://www.w3.org/2000/svg">
<g clip-path="url(#clip0_2694_709)">
<path d="M419.689 815.552L419.689 3.547L3.08612 3.54698L3.08609 815.552L419.689 815.552Z" fill="#60A963"/>
<path d="M419.689 119.934L419.689 3.547L3.08612 3.54698L3.08612 119.934L419.689 119.934Z" fill="#60A963"/>
<path d="M419.689 815.551L419.689 701.871L3.08615 701.871L3.08615 815.551L419.689 815.551Z" fill="#60A963"/>
<path d="M-0.502599 815.552L-0.502564 3.54693C-0.502564 2.94872 -0.263794 2.375 0.161224 1.952C0.586273 1.529 1.16272 1.29136 1.76379 1.29136L419.683 1.29138C420.284 1.29138 420.86 1.52902 421.285 1.95202C421.71 2.37502 421.949 2.94874 421.949 3.54695L421.949 815.552C421.949 816.15 421.71 816.723 421.285 817.146C420.86 817.569 420.284 817.807 419.683 817.807L1.76376 817.807C1.16268 817.807 0.586238 817.569 0.161189 817.146C-0.26383 816.723 -0.502599 816.15 -0.502599 815.552ZM4.03018 5.8025L4.03015 813.296L417.416 813.296L417.416 5.80252L4.03018 5.8025Z" fill="white"/>
<path d="M-1.07925 118.906C-1.07925 118.588 -0.840332 118.283 -0.415039 118.058C0.0102234 117.833 0.587036 117.707 1.18845 117.707L419.352 117.707C419.954 117.707 420.531 117.833 420.956 118.058C421.381 118.283 421.62 118.588 421.62 118.906C421.62 119.223 421.381 119.528 420.956 119.753C420.531 119.978 419.954 120.104 419.352 120.104L1.18845 120.104C0.587036 120.104 0.0102233 119.978 -0.415039 119.753C-0.840332 119.528 -1.07925 119.223 -1.07925 118.906Z" fill="white"/>
<path d="M-1.07925 180.031C-1.07925 179.713 -0.840332 179.408 -0.415039 179.183C0.0102234 178.958 0.587036 178.832 1.18845 178.832L419.352 178.832C419.954 178.832 420.531 178.958 420.956 179.183C421.381 179.408 421.62 179.713 421.62 180.031C421.62 180.349 421.381 180.653 420.956 180.878C420.531 181.103 419.954 181.229 419.352 181.229L1.18845 181.229C0.587036 181.229 0.0102233 181.103 -0.415039 180.878C-0.840332 180.653 -1.07925 180.349 -1.07925 180.031Z" fill="white"/>
<path d="M-1.07925 238.759C-1.07925 238.441 -0.840332 238.136 -0.415039 237.911C0.0102234 237.686 0.587036 237.56 1.18845 237.56L419.352 237.56C419.954 237.56 420.531 237.686 420.956 237.911C421.381 238.136 421.62 238.441 421.62 238.759C421.62 239.076 421.381 239.381 420.956 239.606C420.531 239.831 419.954 239.957 419.352 239.957L1.18845 239.957C0.587036 239.957 0.0102233 239.831 -0.415039 239.606C-0.840332 239.381 -1.07925 239.076 -1.07925 238.759Z" fill="white"/>
<path d="M-1.07925 297.486C-1.07925 297.169 -0.840332 296.864 -0.415039 296.639C0.0102234 296.414 0.587036 296.288 1.18845 296.288L419.352 296.288C419.954 296.288 420.531 296.414 420.956 296.639C421.381 296.864 421.62 297.169 421.62 297.487C421.62 297.804 421.381 298.109 420.956 298.334C420.531 298.559 419.954 298.685 419.352 298.685L1.18845 298.685C0.587036 298.685 0.0102233 298.559 -0.415039 298.334C-0.840332 298.109 -1.07925 297.804 -1.07925 297.486Z" fill="white"/>
<path d="M-1.07925 355.016C-1.07925 354.698 -0.840332 354.393 -0.415039 354.169C0.0102234 353.944 0.587036 353.818 1.18845 353.818L419.352 353.818C419.954 353.818 420.531 353.944 420.956 354.169C421.381 354.393 421.62 354.698 421.62 355.016C421.62 355.334 421.381 355.639 420.956 355.864C420.531 356.088 419.954 356.215 419.352 356.215L1.18845 356.215C0.587036 356.215 0.0102233 356.088 -0.415039 355.864C-0.840332 355.639 -1.07925 355.334 -1.07925 355.016Z" fill="white"/>
<path d="M-1.07925 412.546C-1.07925 412.228 -0.840332 411.923 -0.415039 411.698C0.0102234 411.473 0.587036 411.347 1.18845 411.347L419.352 411.347C419.954 411.347 420.531 411.473 420.956 411.698C421.381 411.923 421.62 412.228 421.62 412.546C421.62 412.863 421.381 413.168 420.956 413.393C420.531 413.618 419.954 413.744 419.352 413.744L1.18845 413.744C0.587036 413.744 0.0102233 413.618 -0.415039 413.393C-0.840332 413.168 -1.07925 412.863 -1.07925 412.546Z" fill="white"/>
<path d="M-1.07925 471.273C-1.07925 470.956 -0.840332 470.651 -0.415039 470.426C0.0102234 470.201 0.587036 470.075 1.18845 470.075L419.352 470.075C419.954 470.075 420.531 470.201 420.956 470.426C421.381 470.651 421.62 470.956 421.62 471.273C421.62 471.591 421.381 471.896 420.956 472.121C420.531 472.346 419.954 472.472 419.352 472.472L1.18845 472.472C0.587036 472.472 0.0102233 472.346 -0.415039 472.121C-0.840332 471.896 -1.07925 471.591 -1.07925 471.273Z" fill="white"/>
<path d="M-1.07925 527.604C-1.07925 527.287 -0.840332 526.982 -0.415039 526.757C0.0102234 526.532 0.587036 526.406 1.18845 526.406L419.352 526.406C419.954 526.406 420.531 526.532 420.956 526.757C421.381 526.982 421.62 527.287 421.62 527.604C421.62 527.922 421.381 528.227 420.956 528.452C420.531 528.677 419.954 528.803 419.352 528.803L1.18845 528.803C0.587036 528.803 0.0102233 528.677 -0.415039 528.452C-0.840332 528.227 -1.07925 527.922 -1.07925 527.604Z" fill="white"/>
<path d="M-1.07925 583.935C-1.07925 583.618 -0.840332 583.313 -0.415039 583.088C0.0102234 582.863 0.587036 582.737 1.18845 582.737L419.352 582.737C419.954 582.737 420.531 582.863 420.956 583.088C421.381 583.313 421.62 583.618 421.62 583.935C421.62 584.253 421.381 584.558 420.956 584.783C420.531 585.008 419.954 585.134 419.352 585.134L1.18845 585.134C0.587036 585.134 0.0102233 585.008 -0.415039 584.783C-0.840332 584.558 -1.07925 584.253 -1.07925 583.935Z" fill="white"/>
<path d="M-1.07925 642.663C-1.07925 642.346 -0.840332 642.041 -0.415039 641.816C0.0102234 641.591 0.587036 641.465 1.18845 641.465L419.352 641.465C419.954 641.465 420.531 641.591 420.956 641.816C421.381 642.041 421.62 642.346 421.62 642.664C421.62 642.981 421.381 643.286 420.956 643.511C420.531 643.736 419.954 643.862 419.352 643.862L1.18845 643.862C0.587036 643.862 0.0102233 643.736 -0.415039 643.511C-0.840332 643.286 -1.07925 642.981 -1.07925 642.663Z" fill="white"/>
<path d="M-1.07925 702.59C-1.07925 702.272 -0.840332 701.967 -0.415039 701.743C0.0102234 701.518 0.587036 701.392 1.18845 701.392L419.352 701.392C419.954 701.392 420.531 701.518 420.956 701.743C421.381 701.967 421.62 702.272 421.62 702.59C421.62 702.908 421.381 703.213 420.956 703.438C420.531 703.662 419.954 703.789 419.352 703.789L1.18845 703.789C0.587036 703.789 0.0102233 703.662 -0.415039 703.438C-0.840332 703.213 -1.07925 702.908 -1.07925 702.59Z" fill="white"/>
<path d="M178.087 760.516C178.087 759.917 178.326 759.344 178.751 758.921C179.176 758.498 179.753 758.26 180.354 758.26L242.906 758.26C243.507 758.26 244.083 758.498 244.508 758.921C244.933 759.344 245.172 759.917 245.172 760.516C245.172 761.114 244.933 761.688 244.508 762.111C244.083 762.534 243.507 762.771 242.906 762.771L180.354 762.771C179.753 762.771 179.176 762.534 178.751 762.111C178.326 761.688 178.087 761.114 178.087 760.516Z" fill="white"/>
<path d="M178.087 63.9962C178.087 63.398 178.326 62.8242 178.751 62.4012C179.176 61.9782 179.753 61.7406 180.354 61.7406L242.906 61.7406C243.507 61.7406 244.083 61.9782 244.508 62.4012C244.933 62.8242 245.172 63.398 245.172 63.9962C245.172 64.5944 244.933 65.1681 244.508 65.5911C244.083 66.0141 243.507 66.2517 242.906 66.2517L180.354 66.2517C179.753 66.2517 179.176 66.0141 178.751 65.5911C178.326 65.1681 178.087 64.5944 178.087 63.9962Z" fill="white"/>
<path d="M276.902 133.468C276.902 132.87 277.141 132.296 277.566 131.873C277.991 131.45 278.567 131.212 279.168 131.212L287.327 131.212C287.928 131.212 288.505 131.45 288.93 131.873C289.355 132.296 289.594 132.87 289.594 133.468C289.594 134.066 289.355 134.64 288.93 135.063C288.505 135.486 287.928 135.723 287.327 135.723L279.168 135.723C278.567 135.723 277.991 135.486 277.566 135.063C277.141 134.64 276.902 134.066 276.902 133.468Z" fill="white"/>
<path d="M276.902 145.197C276.902 144.599 277.141 144.025 277.566 143.602C277.991 143.179 278.567 142.941 279.168 142.941L287.327 142.941C287.928 142.941 288.505 143.179 288.93 143.602C289.355 144.025 289.594 144.599 289.594 145.197C289.594 145.795 289.355 146.369 288.93 146.792C288.505 147.215 287.928 147.452 287.327 147.452L279.168 147.452C278.567 147.452 277.991 147.215 277.566 146.792C277.141 146.369 276.902 145.795 276.902 145.197Z" fill="white"/>
<path d="M276.902 156.926C276.902 156.327 277.141 155.754 277.566 155.331C277.991 154.908 278.567 154.67 279.168 154.67L287.327 154.67C287.928 154.67 288.505 154.908 288.93 155.331C289.355 155.754 289.594 156.327 289.594 156.926C289.594 157.524 289.355 158.098 288.93 158.521C288.505 158.944 287.928 159.181 287.327 159.181L279.168 159.181C278.567 159.181 277.991 158.944 277.566 158.521C277.141 158.098 276.902 157.524 276.902 156.926Z" fill="white"/>
<path d="M276.902 168.654C276.902 168.056 277.141 167.483 277.566 167.06C277.991 166.637 278.567 166.399 279.168 166.399L287.327 166.399C287.928 166.399 288.505 166.637 288.93 167.06C289.355 167.483 289.594 168.056 289.594 168.654C289.594 169.253 289.355 169.826 288.93 170.249C288.505 170.672 287.928 170.91 287.327 170.91L279.168 170.91C278.567 170.91 277.991 170.672 277.566 170.249C277.141 169.826 276.902 169.253 276.902 168.654Z" fill="white"/>
<path d="M276.902 193.015C276.902 192.417 277.141 191.843 277.566 191.42C277.991 190.997 278.567 190.759 279.168 190.759L287.327 190.759C287.928 190.759 288.505 190.997 288.93 191.42C289.355 191.843 289.594 192.417 289.594 193.015C289.594 193.613 289.355 194.187 288.93 194.61C288.505 195.033 287.928 195.27 287.327 195.27L279.168 195.27C278.567 195.27 277.991 195.033 277.566 194.61C277.141 194.187 276.902 193.613 276.902 193.015Z" fill="white"/>
<path d="M276.902 204.744C276.902 204.146 277.141 203.572 277.566 203.149C277.991 202.726 278.567 202.488 279.168 202.488L287.327 202.488C287.928 202.488 288.505 202.726 288.93 203.149C289.355 203.572 289.594 204.146 289.594 204.744C289.594 205.342 289.355 205.916 288.93 206.339C288.505 206.762 287.928 206.999 287.327 206.999L279.168 206.999C278.567 206.999 277.991 206.762 277.566 206.339C277.141 205.916 276.902 205.342 276.902 204.744Z" fill="white"/>
<path d="M276.902 216.472C276.902 215.874 277.141 215.301 277.566 214.878C277.991 214.455 278.567 214.217 279.168 214.217L287.327 214.217C287.928 214.217 288.505 214.455 288.93 214.878C289.355 215.301 289.594 215.874 289.594 216.472C289.594 217.071 289.355 217.644 288.93 218.067C288.505 218.49 287.928 218.728 287.327 218.728L279.168 218.728C278.567 218.728 277.991 218.49 277.566 218.067C277.141 217.644 276.902 217.071 276.902 216.472Z" fill="white"/>
<path d="M276.902 228.202C276.902 227.603 277.141 227.03 277.566 226.607C277.991 226.184 278.567 225.946 279.168 225.946L287.327 225.946C287.928 225.946 288.505 226.184 288.93 226.607C289.355 227.03 289.594 227.603 289.594 228.202C289.594 228.8 289.355 229.374 288.93 229.797C288.505 230.22 287.928 230.457 287.327 230.457L279.168 230.457C278.567 230.457 277.991 230.22 277.566 229.797C277.141 229.374 276.902 228.8 276.902 228.202Z" fill="white"/>
<path d="M276.902 250.757C276.902 250.159 277.141 249.585 277.566 249.162C277.991 248.739 278.567 248.502 279.168 248.502L287.327 248.502C287.928 248.502 288.505 248.739 288.93 249.162C289.355 249.585 289.594 250.159 289.594 250.757C289.594 251.355 289.355 251.929 288.93 252.352C288.505 252.775 287.928 253.013 287.327 253.013L279.168 253.013C278.567 253.013 277.991 252.775 277.566 252.352C277.141 251.929 276.902 251.355 276.902 250.757Z" fill="white"/>
<path d="M276.902 262.486C276.902 261.888 277.141 261.314 277.566 260.891C277.991 260.468 278.567 260.231 279.168 260.231L287.327 260.231C287.928 260.231 288.505 260.468 288.93 260.891C289.355 261.314 289.594 261.888 289.594 262.486C289.594 263.084 289.355 263.658 288.93 264.081C288.505 264.504 287.928 264.742 287.327 264.742L279.168 264.742C278.567 264.742 277.991 264.504 277.566 264.081C277.141 263.658 276.902 263.084 276.902 262.486Z" fill="white"/>
<path d="M276.902 274.215C276.902 273.617 277.141 273.043 277.566 272.62C277.991 272.197 278.567 271.96 279.168 271.96L287.327 271.96C287.928 271.96 288.505 272.197 288.93 272.62C289.355 273.043 289.594 273.617 289.594 274.215C289.594 274.813 289.355 275.387 288.93 275.81C288.505 276.233 287.928 276.471 287.327 276.471L279.168 276.471C278.567 276.471 277.991 276.233 277.566 275.81C277.141 275.387 276.902 274.813 276.902 274.215Z" fill="white"/>
<path d="M276.902 285.944C276.902 285.346 277.141 284.772 277.566 284.349C277.991 283.926 278.567 283.688 279.168 283.688L287.327 283.688C287.928 283.688 288.505 283.926 288.93 284.349C289.355 284.772 289.594 285.346 289.594 285.944C289.594 286.542 289.355 287.116 288.93 287.539C288.505 287.962 287.928 288.2 287.327 288.2L279.168 288.2C278.567 288.2 277.991 287.962 277.566 287.539C277.141 287.116 276.902 286.542 276.902 285.944Z" fill="white"/>
<path d="M276.902 308.5C276.902 307.902 277.141 307.328 277.566 306.905C277.991 306.482 278.567 306.244 279.168 306.244L287.327 306.244C287.928 306.244 288.505 306.482 288.93 306.905C289.355 307.328 289.594 307.902 289.594 308.5C289.594 309.098 289.355 309.672 288.93 310.095C288.505 310.518 287.928 310.755 287.327 310.755L279.168 310.755C278.567 310.755 277.991 310.518 277.566 310.095C277.141 309.672 276.902 309.098 276.902 308.5Z" fill="white"/>
<path d="M276.902 320.229C276.902 319.63 277.141 319.057 277.566 318.634C277.991 318.211 278.567 317.973 279.168 317.973L287.327 317.973C287.928 317.973 288.505 318.211 288.93 318.634C289.355 319.057 289.594 319.63 289.594 320.229C289.594 320.827 289.355 321.401 288.93 321.824C288.505 322.247 287.928 322.484 287.327 322.484L279.168 322.484C278.567 322.484 277.991 322.247 277.566 321.824C277.141 321.401 276.902 320.827 276.902 320.229Z" fill="white"/>
<path d="M276.902 331.958C276.902 331.359 277.141 330.786 277.566 330.363C277.991 329.94 278.567 329.702 279.168 329.702L287.327 329.702C287.928 329.702 288.505 329.94 288.93 330.363C289.355 330.786 289.594 331.359 289.594 331.958C289.594 332.556 289.355 333.13 288.93 333.553C288.505 333.976 287.928 334.213 287.327 334.213L279.168 334.213C278.567 334.213 277.991 333.976 277.566 333.553C277.141 333.13 276.902 332.556 276.902 331.958Z" fill="white"/>
<path d="M276.902 343.687C276.902 343.088 277.141 342.515 277.566 342.092C277.991 341.669 278.567 341.431 279.168 341.431L287.327 341.431C287.928 341.431 288.505 341.669 288.93 342.092C289.355 342.515 289.594 343.088 289.594 343.687C289.594 344.285 289.355 344.859 288.93 345.282C288.505 345.705 287.928 345.942 287.327 345.942L279.168 345.942C278.567 345.942 277.991 345.705 277.566 345.282C277.141 344.859 276.902 344.285 276.902 343.687Z" fill="white"/>
<path d="M276.902 368.047C276.902 367.448 277.141 366.875 277.566 366.452C277.991 366.029 278.567 365.791 279.168 365.791L287.327 365.791C287.928 365.791 288.505 366.029 288.93 366.452C289.355 366.875 289.594 367.448 289.594 368.047C289.594 368.645 289.355 369.219 288.93 369.642C288.505 370.065 287.928 370.302 287.327 370.302L279.168 370.302C278.567 370.302 277.991 370.065 277.566 369.642C277.141 369.219 276.902 368.645 276.902 368.047Z" fill="white"/>
<path d="M276.902 379.776C276.902 379.177 277.141 378.604 277.566 378.181C277.991 377.758 278.567 377.52 279.168 377.52L287.327 377.52C287.928 377.52 288.505 377.758 288.93 378.181C289.355 378.604 289.594 379.177 289.594 379.776C289.594 380.374 289.355 380.948 288.93 381.371C288.505 381.794 287.928 382.031 287.327 382.031L279.168 382.031C278.567 382.031 277.991 381.794 277.566 381.371C277.141 380.948 276.902 380.374 276.902 379.776Z" fill="white"/>
<path d="M276.902 391.505C276.902 390.906 277.141 390.333 277.566 389.91C277.991 389.487 278.567 389.249 279.168 389.249L287.327 389.249C287.928 389.249 288.505 389.487 288.93 389.91C289.355 390.333 289.594 390.906 289.594 391.505C289.594 392.103 289.355 392.677 288.93 393.1C288.505 393.523 287.928 393.76 287.327 393.76L279.168 393.76C278.567 393.76 277.991 393.523 277.566 393.1C277.141 392.677 276.902 392.103 276.902 391.505Z" fill="white"/>
<path d="M276.902 403.234C276.902 402.635 277.141 402.062 277.566 401.639C277.991 401.216 278.567 400.978 279.168 400.978L287.327 400.978C287.928 400.978 288.505 401.216 288.93 401.639C289.355 402.062 289.594 402.635 289.594 403.234C289.594 403.832 289.355 404.406 288.93 404.829C288.505 405.252 287.928 405.489 287.327 405.489L279.168 405.489C278.567 405.489 277.991 405.252 277.566 404.829C277.141 404.406 276.902 403.832 276.902 403.234Z" fill="white"/>
<path d="M276.902 425.789C276.902 425.191 277.141 424.617 277.566 424.194C277.991 423.771 278.567 423.534 279.168 423.534L287.327 423.534C287.928 423.534 288.505 423.771 288.93 424.194C289.355 424.617 289.594 425.191 289.594 425.789C289.594 426.387 289.355 426.961 288.93 427.384C288.505 427.807 287.928 428.045 287.327 428.045L279.168 428.045C278.567 428.045 277.991 427.807 277.566 427.384C277.141 426.961 276.902 426.387 276.902 425.789Z" fill="white"/>
<path d="M276.902 437.518C276.902 436.92 277.141 436.346 277.566 435.923C277.991 435.5 278.567 435.263 279.168 435.263L287.327 435.263C287.928 435.263 288.505 435.5 288.93 435.923C289.355 436.346 289.594 436.92 289.594 437.518C289.594 438.116 289.355 438.69 288.93 439.113C288.505 439.536 287.928 439.774 287.327 439.774L279.168 439.774C278.567 439.774 277.991 439.536 277.566 439.113C277.141 438.69 276.902 438.116 276.902 437.518Z" fill="white"/>
<path d="M276.902 449.247C276.902 448.649 277.141 448.075 277.566 447.652C277.991 447.229 278.567 446.992 279.168 446.992L287.327 446.992C287.928 446.992 288.505 447.229 288.93 447.652C289.355 448.075 289.594 448.649 289.594 449.247C289.594 449.845 289.355 450.419 288.93 450.842C288.505 451.265 287.928 451.503 287.327 451.503L279.168 451.503C278.567 451.503 277.991 451.265 277.566 450.842C277.141 450.419 276.902 449.845 276.902 449.247Z" fill="white"/>
<path d="M276.902 460.976C276.902 460.378 277.141 459.804 277.566 459.381C277.991 458.958 278.567 458.721 279.168 458.721L287.327 458.721C287.928 458.721 288.505 458.958 288.93 459.381C289.355 459.804 289.594 460.378 289.594 460.976C289.594 461.574 289.355 462.148 288.93 462.571C288.505 462.994 287.928 463.232 287.327 463.232L279.168 463.232C278.567 463.232 277.991 462.994 277.566 462.571C277.141 462.148 276.902 461.574 276.902 460.976Z" fill="white"/>
<path d="M276.902 482.629C276.902 482.031 277.141 481.458 277.566 481.035C277.991 480.612 278.567 480.374 279.168 480.374L287.327 480.374C287.928 480.374 288.505 480.612 288.93 481.035C289.355 481.458 289.594 482.031 289.594 482.629C289.594 483.228 289.355 483.801 288.93 484.224C288.505 484.647 287.928 484.885 287.327 484.885L279.168 484.885C278.567 484.885 277.991 484.647 277.566 484.224C277.141 483.801 276.902 483.228 276.902 482.629Z" fill="white"/>
<path d="M276.902 494.359C276.902 493.76 277.141 493.187 277.566 492.764C277.991 492.341 278.567 492.103 279.168 492.103L287.327 492.103C287.928 492.103 288.505 492.341 288.93 492.764C289.355 493.187 289.594 493.76 289.594 494.359C289.594 494.957 289.355 495.53 288.93 495.953C288.505 496.376 287.928 496.614 287.327 496.614L279.168 496.614C278.567 496.614 277.991 496.376 277.566 495.953C277.141 495.53 276.902 494.957 276.902 494.359Z" fill="white"/>
<path d="M276.902 506.087C276.902 505.489 277.141 504.915 277.566 504.492C277.991 504.069 278.567 503.832 279.168 503.832L287.327 503.832C287.928 503.832 288.505 504.069 288.93 504.492C289.355 504.915 289.594 505.489 289.594 506.087C289.594 506.686 289.355 507.259 288.93 507.682C288.505 508.105 287.928 508.343 287.327 508.343L279.168 508.343C278.567 508.343 277.991 508.105 277.566 507.682C277.141 507.259 276.902 506.686 276.902 506.087Z" fill="white"/>
<path d="M276.902 517.817C276.902 517.218 277.141 516.645 277.566 516.222C277.991 515.799 278.567 515.561 279.168 515.561L287.327 515.561C287.928 515.561 288.505 515.799 288.93 516.222C289.355 516.645 289.594 517.218 289.594 517.817C289.594 518.415 289.355 518.988 288.93 519.411C288.505 519.834 287.928 520.072 287.327 520.072L279.168 520.072C278.567 520.072 277.991 519.834 277.566 519.411C277.141 518.988 276.902 518.415 276.902 517.817Z" fill="white"/>
<path d="M276.902 540.372C276.902 539.774 277.141 539.2 277.566 538.777C277.991 538.354 278.567 538.117 279.168 538.117L287.327 538.117C287.928 538.117 288.505 538.354 288.93 538.777C289.355 539.2 289.594 539.774 289.594 540.372C289.594 540.97 289.355 541.544 288.93 541.967C288.505 542.39 287.928 542.628 287.327 542.628L279.168 542.628C278.567 542.628 277.991 542.39 277.566 541.967C277.141 541.544 276.902 540.97 276.902 540.372Z" fill="white"/>
<path d="M276.902 552.101C276.902 551.503 277.141 550.929 277.566 550.506C277.991 550.083 278.567 549.845 279.168 549.845L287.327 549.845C287.928 549.845 288.505 550.083 288.93 550.506C289.355 550.929 289.594 551.503 289.594 552.101C289.594 552.699 289.355 553.273 288.93 553.696C288.505 554.119 287.928 554.357 287.327 554.357L279.168 554.357C278.567 554.357 277.991 554.119 277.566 553.696C277.141 553.273 276.902 552.699 276.902 552.101Z" fill="white"/>
<path d="M276.902 563.83C276.902 563.232 277.141 562.658 277.566 562.235C277.991 561.812 278.567 561.574 279.168 561.574L287.327 561.574C287.928 561.574 288.505 561.812 288.93 562.235C289.355 562.658 289.594 563.232 289.594 563.83C289.594 564.428 289.355 565.002 288.93 565.425C288.505 565.848 287.928 566.086 287.327 566.086L279.168 566.086C278.567 566.086 277.991 565.848 277.566 565.425C277.141 565.002 276.902 564.428 276.902 563.83Z" fill="white"/>
<path d="M276.902 575.559C276.902 574.961 277.141 574.387 277.566 573.964C277.991 573.541 278.567 573.303 279.168 573.303L287.327 573.303C287.928 573.303 288.505 573.541 288.93 573.964C289.355 574.387 289.594 574.961 289.594 575.559C289.594 576.157 289.355 576.731 288.93 577.154C288.505 577.577 287.928 577.815 287.327 577.815L279.168 577.815C278.567 577.815 277.991 577.577 277.566 577.154C277.141 576.731 276.902 576.157 276.902 575.559Z" fill="white"/>
<path d="M276.902 597.212C276.902 596.614 277.141 596.041 277.566 595.618C277.991 595.195 278.567 594.957 279.168 594.957L287.327 594.957C287.928 594.957 288.505 595.195 288.93 595.618C289.355 596.041 289.594 596.614 289.594 597.212C289.594 597.811 289.355 598.384 288.93 598.807C288.505 599.23 287.928 599.468 287.327 599.468L279.168 599.468C278.567 599.468 277.991 599.23 277.566 598.807C277.141 598.384 276.902 597.811 276.902 597.212Z" fill="white"/>
<path d="M276.902 608.941C276.902 608.343 277.141 607.769 277.566 607.346C277.991 606.923 278.567 606.686 279.168 606.686L287.327 606.686C287.928 606.686 288.505 606.923 288.93 607.346C289.355 607.769 289.594 608.343 289.594 608.941C289.594 609.54 289.355 610.113 288.93 610.536C288.505 610.959 287.928 611.197 287.327 611.197L279.168 611.197C278.567 611.197 277.991 610.959 277.566 610.536C277.141 610.113 276.902 609.54 276.902 608.941Z" fill="white"/>
<path d="M276.902 620.67C276.902 620.072 277.141 619.498 277.566 619.075C277.991 618.652 278.567 618.415 279.168 618.415L287.327 618.415C287.928 618.415 288.505 618.652 288.93 619.075C289.355 619.498 289.594 620.072 289.594 620.67C289.594 621.269 289.355 621.842 288.93 622.265C288.505 622.688 287.928 622.926 287.327 622.926L279.168 622.926C278.567 622.926 277.991 622.688 277.566 622.265C277.141 621.842 276.902 621.269 276.902 620.67Z" fill="white"/>
<path d="M276.902 632.399C276.902 631.801 277.141 631.227 277.566 630.804C277.991 630.381 278.567 630.144 279.168 630.144L287.327 630.144C287.928 630.144 288.505 630.381 288.93 630.804C289.355 631.227 289.594 631.801 289.594 632.399C289.594 632.998 289.355 633.571 288.93 633.994C288.505 634.417 287.928 634.655 287.327 634.655L279.168 634.655C278.567 634.655 277.991 634.417 277.566 633.994C277.141 633.571 276.902 632.998 276.902 632.399Z" fill="white"/>
<path d="M276.902 655.857C276.902 655.259 277.141 654.685 277.566 654.262C277.991 653.839 278.567 653.602 279.168 653.602L287.327 653.602C287.928 653.602 288.505 653.839 288.93 654.262C289.355 654.685 289.594 655.259 289.594 655.857C289.594 656.455 289.355 657.029 288.93 657.452C288.505 657.875 287.928 658.113 287.327 658.113L279.168 658.113C278.567 658.113 277.991 657.875 277.566 657.452C277.141 657.029 276.902 656.455 276.902 655.857Z" fill="white"/>
<path d="M276.902 667.586C276.902 666.988 277.141 666.414 277.566 665.991C277.991 665.568 278.567 665.331 279.168 665.331L287.327 665.331C287.928 665.331 288.505 665.568 288.93 665.991C289.355 666.414 289.594 666.988 289.594 667.586C289.594 668.184 289.355 668.758 288.93 669.181C288.505 669.604 287.928 669.842 287.327 669.842L279.168 669.842C278.567 669.842 277.991 669.604 277.566 669.181C277.141 668.758 276.902 668.184 276.902 667.586Z" fill="white"/>
<path d="M276.902 679.315C276.902 678.717 277.141 678.143 277.566 677.72C277.991 677.297 278.567 677.06 279.168 677.06L287.327 677.06C287.928 677.06 288.505 677.297 288.93 677.72C289.355 678.143 289.594 678.717 289.594 679.315C289.594 679.913 289.355 680.487 288.93 680.91C288.505 681.333 287.928 681.571 287.327 681.571L279.168 681.571C278.567 681.571 277.991 681.333 277.566 680.91C277.141 680.487 276.902 679.913 276.902 679.315Z" fill="white"/>
<path d="M276.902 691.044C276.902 690.446 277.141 689.872 277.566 689.449C277.991 689.026 278.567 688.789 279.168 688.789L287.327 688.789C287.928 688.789 288.505 689.026 288.93 689.449C289.355 689.872 289.594 690.446 289.594 691.044C289.594 691.642 289.355 692.216 288.93 692.639C288.505 693.062 287.928 693.3 287.327 693.3L279.168 693.3C278.567 693.3 277.991 693.062 277.566 692.639C277.141 692.216 276.902 691.642 276.902 691.044Z" fill="white"/>
<path d="M132.759 133.468C132.759 132.87 132.998 132.296 133.423 131.873C133.848 131.45 134.425 131.212 135.026 131.212L143.185 131.212C143.786 131.212 144.362 131.45 144.787 131.873C145.212 132.296 145.451 132.87 145.451 133.468C145.451 134.066 145.212 134.64 144.787 135.063C144.362 135.486 143.786 135.723 143.185 135.723L135.026 135.723C134.425 135.723 133.848 135.486 133.423 135.063C132.998 134.64 132.759 134.066 132.759 133.468Z" fill="white"/>
<path d="M132.759 145.197C132.759 144.599 132.998 144.025 133.423 143.602C133.848 143.179 134.425 142.941 135.026 142.941L143.185 142.941C143.786 142.941 144.362 143.179 144.787 143.602C145.212 144.025 145.451 144.599 145.451 145.197C145.451 145.795 145.212 146.369 144.787 146.792C144.362 147.215 143.786 147.452 143.185 147.452L135.026 147.452C134.425 147.452 133.848 147.215 133.423 146.792C132.998 146.369 132.759 145.795 132.759 145.197Z" fill="white"/>
<path d="M132.759 156.925C132.759 156.327 132.998 155.754 133.423 155.331C133.848 154.908 134.425 154.67 135.026 154.67L143.185 154.67C143.786 154.67 144.362 154.908 144.787 155.331C145.212 155.754 145.451 156.327 145.451 156.925C145.451 157.524 145.212 158.097 144.787 158.52C144.362 158.943 143.786 159.181 143.185 159.181L135.026 159.181C134.425 159.181 133.848 158.943 133.423 158.52C132.998 158.097 132.759 157.524 132.759 156.925Z" fill="white"/>
<path d="M132.759 168.654C132.759 168.056 132.998 167.483 133.423 167.06C133.848 166.637 134.425 166.399 135.026 166.399L143.185 166.399C143.786 166.399 144.362 166.637 144.787 167.06C145.212 167.483 145.451 168.056 145.451 168.654C145.451 169.253 145.212 169.826 144.787 170.249C144.362 170.672 143.786 170.91 143.185 170.91L135.026 170.91C134.425 170.91 133.848 170.672 133.423 170.249C132.998 169.826 132.759 169.253 132.759 168.654Z" fill="white"/>
<path d="M132.759 193.015C132.759 192.417 132.998 191.843 133.423 191.42C133.848 190.997 134.425 190.759 135.026 190.759L143.185 190.759C143.786 190.759 144.362 190.997 144.787 191.42C145.212 191.843 145.451 192.417 145.451 193.015C145.451 193.613 145.212 194.187 144.787 194.61C144.362 195.033 143.786 195.27 143.185 195.27L135.026 195.27C134.425 195.27 133.848 195.033 133.423 194.61C132.998 194.187 132.759 193.613 132.759 193.015Z" fill="white"/>
<path d="M132.759 204.744C132.759 204.146 132.998 203.572 133.423 203.149C133.848 202.726 134.425 202.488 135.026 202.488L143.185 202.488C143.786 202.488 144.362 202.726 144.787 203.149C145.212 203.572 145.451 204.146 145.451 204.744C145.451 205.342 145.212 205.916 144.787 206.339C144.362 206.762 143.786 206.999 143.185 206.999L135.026 206.999C134.425 206.999 133.848 206.762 133.423 206.339C132.998 205.916 132.759 205.342 132.759 204.744Z" fill="white"/>
<path d="M132.759 216.472C132.759 215.874 132.998 215.301 133.423 214.878C133.848 214.455 134.425 214.217 135.026 214.217L143.185 214.217C143.786 214.217 144.362 214.455 144.787 214.878C145.212 215.301 145.451 215.874 145.451 216.472C145.451 217.071 145.212 217.644 144.787 218.067C144.362 218.49 143.786 218.728 143.185 218.728L135.026 218.728C134.425 218.728 133.848 218.49 133.423 218.067C132.998 217.644 132.759 217.071 132.759 216.472Z" fill="white"/>
<path d="M132.759 228.202C132.759 227.603 132.998 227.03 133.423 226.607C133.848 226.184 134.425 225.946 135.026 225.946L143.185 225.946C143.786 225.946 144.362 226.184 144.787 226.607C145.212 227.03 145.451 227.603 145.451 228.202C145.451 228.8 145.212 229.374 144.787 229.797C144.362 230.22 143.786 230.457 143.185 230.457L135.026 230.457C134.425 230.457 133.848 230.22 133.423 229.797C132.998 229.374 132.759 228.8 132.759 228.202Z" fill="white"/>
<path d="M132.759 250.757C132.759 250.159 132.998 249.585 133.423 249.162C133.848 248.739 134.425 248.502 135.026 248.502L143.185 248.502C143.786 248.502 144.362 248.739 144.787 249.162C145.212 249.585 145.451 250.159 145.451 250.757C145.451 251.355 145.212 251.929 144.787 252.352C144.362 252.775 143.786 253.013 143.185 253.013L135.026 253.013C134.425 253.013 133.848 252.775 133.423 252.352C132.998 251.929 132.759 251.355 132.759 250.757Z" fill="white"/>
<path d="M132.759 262.486C132.759 261.888 132.998 261.314 133.423 260.891C133.848 260.468 134.425 260.231 135.026 260.231L143.185 260.231C143.786 260.231 144.362 260.468 144.787 260.891C145.212 261.314 145.451 261.888 145.451 262.486C145.451 263.084 145.212 263.658 144.787 264.081C144.362 264.504 143.786 264.742 143.185 264.742L135.026 264.742C134.425 264.742 133.848 264.504 133.423 264.081C132.998 263.658 132.759 263.084 132.759 262.486Z" fill="white"/>
<path d="M132.759 274.215C132.759 273.617 132.998 273.043 133.423 272.62C133.848 272.197 134.425 271.96 135.026 271.96L143.185 271.96C143.786 271.96 144.362 272.197 144.787 272.62C145.212 273.043 145.451 273.617 145.451 274.215C145.451 274.813 145.212 275.387 144.787 275.81C144.362 276.233 143.786 276.471 143.185 276.471L135.026 276.471C134.425 276.471 133.848 276.233 133.423 275.81C132.998 275.387 132.759 274.813 132.759 274.215Z" fill="white"/>
<path d="M132.759 285.944C132.759 285.346 132.998 284.772 133.423 284.349C133.848 283.926 134.425 283.688 135.026 283.688L143.185 283.688C143.786 283.688 144.362 283.926 144.787 284.349C145.212 284.772 145.451 285.346 145.451 285.944C145.451 286.542 145.212 287.116 144.787 287.539C144.362 287.962 143.786 288.2 143.185 288.2L135.026 288.2C134.425 288.2 133.848 287.962 133.423 287.539C132.998 287.116 132.759 286.542 132.759 285.944Z" fill="white"/>
<path d="M132.759 308.5C132.759 307.902 132.998 307.328 133.423 306.905C133.848 306.482 134.425 306.244 135.026 306.244L143.185 306.244C143.786 306.244 144.362 306.482 144.787 306.905C145.212 307.328 145.451 307.902 145.451 308.5C145.451 309.098 145.212 309.672 144.787 310.095C144.362 310.518 143.786 310.755 143.185 310.755L135.026 310.755C134.425 310.755 133.848 310.518 133.423 310.095C132.998 309.672 132.759 309.098 132.759 308.5Z" fill="white"/>
<path d="M132.759 320.229C132.759 319.63 132.998 319.057 133.423 318.634C133.848 318.211 134.425 317.973 135.026 317.973L143.185 317.973C143.786 317.973 144.362 318.211 144.787 318.634C145.212 319.057 145.451 319.63 145.451 320.229C145.451 320.827 145.212 321.401 144.787 321.824C144.362 322.247 143.786 322.484 143.185 322.484L135.026 322.484C134.425 322.484 133.848 322.247 133.423 321.824C132.998 321.401 132.759 320.827 132.759 320.229Z" fill="white"/>
<path d="M132.759 331.958C132.759 331.359 132.998 330.786 133.423 330.363C133.848 329.94 134.425 329.702 135.026 329.702L143.185 329.702C143.786 329.702 144.362 329.94 144.787 330.363C145.212 330.786 145.451 331.359 145.451 331.958C145.451 332.556 145.212 333.13 144.787 333.553C144.362 333.976 143.786 334.213 143.185 334.213L135.026 334.213C134.425 334.213 133.848 333.976 133.423 333.553C132.998 333.13 132.759 332.556 132.759 331.958Z" fill="white"/>
<path d="M132.759 343.687C132.759 343.088 132.998 342.515 133.423 342.092C133.848 341.669 134.425 341.431 135.026 341.431L143.185 341.431C143.786 341.431 144.362 341.669 144.787 342.092C145.212 342.515 145.451 343.088 145.451 343.687C145.451 344.285 145.212 344.859 144.787 345.282C144.362 345.705 143.786 345.942 143.185 345.942L135.026 345.942C134.425 345.942 133.848 345.705 133.423 345.282C132.998 344.859 132.759 344.285 132.759 343.687Z" fill="white"/>
<path d="M132.759 368.047C132.759 367.448 132.998 366.875 133.423 366.452C133.848 366.029 134.425 365.791 135.026 365.791L143.185 365.791C143.786 365.791 144.362 366.029 144.787 366.452C145.212 366.875 145.451 367.448 145.451 368.047C145.451 368.645 145.212 369.219 144.787 369.642C144.362 370.065 143.786 370.302 143.185 370.302L135.026 370.302C134.425 370.302 133.848 370.065 133.423 369.642C132.998 369.219 132.759 368.645 132.759 368.047Z" fill="white"/>
<path d="M132.759 379.776C132.759 379.177 132.998 378.604 133.423 378.181C133.848 377.758 134.425 377.52 135.026 377.52L143.185 377.52C143.786 377.52 144.362 377.758 144.787 378.181C145.212 378.604 145.451 379.177 145.451 379.776C145.451 380.374 145.212 380.948 144.787 381.371C144.362 381.794 143.786 382.031 143.185 382.031L135.026 382.031C134.425 382.031 133.848 381.794 133.423 381.371C132.998 380.948 132.759 380.374 132.759 379.776Z" fill="white"/>
<path d="M132.759 391.505C132.759 390.906 132.998 390.333 133.423 389.91C133.848 389.487 134.425 389.249 135.026 389.249L143.185 389.249C143.786 389.249 144.362 389.487 144.787 389.91C145.212 390.333 145.451 390.906 145.451 391.505C145.451 392.103 145.212 392.677 144.787 393.1C144.362 393.523 143.786 393.76 143.185 393.76L135.026 393.76C134.425 393.76 133.848 393.523 133.423 393.1C132.998 392.677 132.759 392.103 132.759 391.505Z" fill="white"/>
<path d="M132.759 403.234C132.759 402.635 132.998 402.062 133.423 401.639C133.848 401.216 134.425 400.978 135.026 400.978L143.185 400.978C143.786 400.978 144.362 401.216 144.787 401.639C145.212 402.062 145.451 402.635 145.451 403.234C145.451 403.832 145.212 404.406 144.787 404.829C144.362 405.252 143.786 405.489 143.185 405.489L135.026 405.489C134.425 405.489 133.848 405.252 133.423 404.829C132.998 404.406 132.759 403.832 132.759 403.234Z" fill="white"/>
<path d="M132.759 425.789C132.759 425.191 132.998 424.617 133.423 424.194C133.848 423.771 134.425 423.534 135.026 423.534L143.185 423.534C143.786 423.534 144.362 423.771 144.787 424.194C145.212 424.617 145.451 425.191 145.451 425.789C145.451 426.387 145.212 426.961 144.787 427.384C144.362 427.807 143.786 428.045 143.185 428.045L135.026 428.045C134.425 428.045 133.848 427.807 133.423 427.384C132.998 426.961 132.759 426.387 132.759 425.789Z" fill="white"/>
<path d="M132.759 437.518C132.759 436.92 132.998 436.346 133.423 435.923C133.848 435.5 134.425 435.263 135.026 435.263L143.185 435.263C143.786 435.263 144.362 435.5 144.787 435.923C145.212 436.346 145.451 436.92 145.451 437.518C145.451 438.116 145.212 438.69 144.787 439.113C144.362 439.536 143.786 439.774 143.185 439.774L135.026 439.774C134.425 439.774 133.848 439.536 133.423 439.113C132.998 438.69 132.759 438.116 132.759 437.518Z" fill="white"/>
<path d="M132.759 449.247C132.759 448.649 132.998 448.075 133.423 447.652C133.848 447.229 134.425 446.992 135.026 446.992L143.185 446.992C143.786 446.992 144.362 447.229 144.787 447.652C145.212 448.075 145.451 448.649 145.451 449.247C145.451 449.845 145.212 450.419 144.787 450.842C144.362 451.265 143.786 451.503 143.185 451.503L135.026 451.503C134.425 451.503 133.848 451.265 133.423 450.842C132.998 450.419 132.759 449.845 132.759 449.247Z" fill="white"/>
<path d="M132.759 460.976C132.759 460.378 132.998 459.804 133.423 459.381C133.848 458.958 134.425 458.721 135.026 458.721L143.185 458.721C143.786 458.721 144.362 458.958 144.787 459.381C145.212 459.804 145.451 460.378 145.451 460.976C145.451 461.574 145.212 462.148 144.787 462.571C144.362 462.994 143.786 463.232 143.185 463.232L135.026 463.232C134.425 463.232 133.848 462.994 133.423 462.571C132.998 462.148 132.759 461.574 132.759 460.976Z" fill="white"/>
<path d="M132.759 482.629C132.759 482.031 132.998 481.458 133.423 481.035C133.848 480.612 134.425 480.374 135.026 480.374L143.185 480.374C143.786 480.374 144.362 480.612 144.787 481.035C145.212 481.458 145.451 482.031 145.451 482.629C145.451 483.228 145.212 483.801 144.787 484.224C144.362 484.647 143.786 484.885 143.185 484.885L135.026 484.885C134.425 484.885 133.848 484.647 133.423 484.224C132.998 483.801 132.759 483.228 132.759 482.629Z" fill="white"/>
<path d="M132.759 494.359C132.759 493.76 132.998 493.187 133.423 492.764C133.848 492.341 134.425 492.103 135.026 492.103L143.185 492.103C143.786 492.103 144.362 492.341 144.787 492.764C145.212 493.187 145.451 493.76 145.451 494.359C145.451 494.957 145.212 495.53 144.787 495.953C144.362 496.376 143.786 496.614 143.185 496.614L135.026 496.614C134.425 496.614 133.848 496.376 133.423 495.953C132.998 495.53 132.759 494.957 132.759 494.359Z" fill="white"/>
<path d="M132.759 506.088C132.759 505.489 132.998 504.916 133.423 504.493C133.848 504.07 134.425 503.832 135.026 503.832L143.185 503.832C143.786 503.832 144.362 504.07 144.787 504.493C145.212 504.916 145.451 505.489 145.451 506.088C145.451 506.686 145.212 507.259 144.787 507.682C144.362 508.105 143.786 508.343 143.185 508.343L135.026 508.343C134.425 508.343 133.848 508.105 133.423 507.682C132.998 507.259 132.759 506.686 132.759 506.088Z" fill="white"/>
<path d="M132.759 517.817C132.759 517.218 132.998 516.645 133.423 516.222C133.848 515.799 134.425 515.561 135.026 515.561L143.185 515.561C143.786 515.561 144.362 515.799 144.787 516.222C145.212 516.645 145.451 517.218 145.451 517.817C145.451 518.415 145.212 518.988 144.787 519.411C144.362 519.834 143.786 520.072 143.185 520.072L135.026 520.072C134.425 520.072 133.848 519.834 133.423 519.411C132.998 518.988 132.759 518.415 132.759 517.817Z" fill="white"/>
<path d="M132.759 540.372C132.759 539.774 132.998 539.2 133.423 538.777C133.848 538.354 134.425 538.117 135.026 538.117L143.185 538.117C143.786 538.117 144.362 538.354 144.787 538.777C145.212 539.2 145.451 539.774 145.451 540.372C145.451 540.97 145.212 541.544 144.787 541.967C144.362 542.39 143.786 542.628 143.185 542.628L135.026 542.628C134.425 542.628 133.848 542.39 133.423 541.967C132.998 541.544 132.759 540.97 132.759 540.372Z" fill="white"/>
<path d="M132.759 552.101C132.759 551.503 132.998 550.929 133.423 550.506C133.848 550.083 134.425 549.845 135.026 549.845L143.185 549.845C143.786 549.845 144.362 550.083 144.787 550.506C145.212 550.929 145.451 551.503 145.451 552.101C145.451 552.699 145.212 553.273 144.787 553.696C144.362 554.119 143.786 554.357 143.185 554.357L135.026 554.357C134.425 554.357 133.848 554.119 133.423 553.696C132.998 553.273 132.759 552.699 132.759 552.101Z" fill="white"/>
<path d="M132.759 563.83C132.759 563.232 132.998 562.658 133.423 562.235C133.848 561.812 134.425 561.574 135.026 561.574L143.185 561.574C143.786 561.574 144.362 561.812 144.787 562.235C145.212 562.658 145.451 563.232 145.451 563.83C145.451 564.428 145.212 565.002 144.787 565.425C144.362 565.848 143.786 566.086 143.185 566.086L135.026 566.086C134.425 566.086 133.848 565.848 133.423 565.425C132.998 565.002 132.759 564.428 132.759 563.83Z" fill="white"/>
<path d="M132.759 575.559C132.759 574.961 132.998 574.387 133.423 573.964C133.848 573.541 134.425 573.303 135.026 573.303L143.185 573.303C143.786 573.303 144.362 573.541 144.787 573.964C145.212 574.387 145.451 574.961 145.451 575.559C145.451 576.157 145.212 576.731 144.787 577.154C144.362 577.577 143.786 577.815 143.185 577.815L135.026 577.815C134.425 577.815 133.848 577.577 133.423 577.154C132.998 576.731 132.759 576.157 132.759 575.559Z" fill="white"/>
<path d="M132.759 597.212C132.759 596.614 132.998 596.041 133.423 595.618C133.848 595.195 134.425 594.957 135.026 594.957L143.185 594.957C143.786 594.957 144.362 595.195 144.787 595.618C145.212 596.041 145.451 596.614 145.451 597.212C145.451 597.811 145.212 598.384 144.787 598.807C144.362 599.23 143.786 599.468 143.185 599.468L135.026 599.468C134.425 599.468 133.848 599.23 133.423 598.807C132.998 598.384 132.759 597.811 132.759 597.212Z" fill="white"/>
<path d="M132.759 608.941C132.759 608.343 132.998 607.769 133.423 607.346C133.848 606.923 134.425 606.686 135.026 606.686L143.185 606.686C143.786 606.686 144.362 606.923 144.787 607.346C145.212 607.769 145.451 608.343 145.451 608.941C145.451 609.54 145.212 610.113 144.787 610.536C144.362 610.959 143.786 611.197 143.185 611.197L135.026 611.197C134.425 611.197 133.848 610.959 133.423 610.536C132.998 610.113 132.759 609.54 132.759 608.941Z" fill="white"/>
<path d="M132.759 620.67C132.759 620.072 132.998 619.498 133.423 619.075C133.848 618.652 134.425 618.415 135.026 618.415L143.185 618.415C143.786 618.415 144.362 618.652 144.787 619.075C145.212 619.498 145.451 620.072 145.451 620.67C145.451 621.269 145.212 621.842 144.787 622.265C144.362 622.688 143.786 622.926 143.185 622.926L135.026 622.926C134.425 622.926 133.848 622.688 133.423 622.265C132.998 621.842 132.759 621.269 132.759 620.67Z" fill="white"/>
<path d="M132.759 632.399C132.759 631.801 132.998 631.227 133.423 630.804C133.848 630.381 134.425 630.144 135.026 630.144L143.185 630.144C143.786 630.144 144.362 630.381 144.787 630.804C145.212 631.227 145.451 631.801 145.451 632.399C145.451 632.998 145.212 633.571 144.787 633.994C144.362 634.417 143.786 634.655 143.185 634.655L135.026 634.655C134.425 634.655 133.848 634.417 133.423 633.994C132.998 633.571 132.759 632.998 132.759 632.399Z" fill="white"/>
<path d="M132.759 655.857C132.759 655.259 132.998 654.685 133.423 654.262C133.848 653.839 134.425 653.602 135.026 653.602L143.185 653.602C143.786 653.602 144.362 653.839 144.787 654.262C145.212 654.685 145.451 655.259 145.451 655.857C145.451 656.455 145.212 657.029 144.787 657.452C144.362 657.875 143.786 658.113 143.185 658.113L135.026 658.113C134.425 658.113 133.848 657.875 133.423 657.452C132.998 657.029 132.759 656.455 132.759 655.857Z" fill="white"/>
<path d="M132.759 667.586C132.759 666.988 132.998 666.414 133.423 665.991C133.848 665.568 134.425 665.331 135.026 665.331L143.185 665.331C143.786 665.331 144.362 665.568 144.787 665.991C145.212 666.414 145.451 666.988 145.451 667.586C145.451 668.184 145.212 668.758 144.787 669.181C144.362 669.604 143.786 669.842 143.185 669.842L135.026 669.842C134.425 669.842 133.848 669.604 133.423 669.181C132.998 668.758 132.759 668.184 132.759 667.586Z" fill="white"/>
<path d="M132.759 679.315C132.759 678.717 132.998 678.143 133.423 677.72C133.848 677.297 134.425 677.06 135.026 677.06L143.185 677.06C143.786 677.06 144.362 677.297 144.787 677.72C145.212 678.143 145.451 678.717 145.451 679.315C145.451 679.913 145.212 680.487 144.787 680.91C144.362 681.333 143.786 681.571 143.185 681.571L135.026 681.571C134.425 681.571 133.848 681.333 133.423 680.91C132.998 680.487 132.759 679.913 132.759 679.315Z" fill="white"/>
<path d="M132.759 691.044C132.759 690.446 132.998 689.872 133.423 689.449C133.848 689.026 134.425 688.789 135.026 688.789L143.185 688.789C143.786 688.789 144.362 689.026 144.787 689.449C145.212 689.872 145.451 690.446 145.451 691.044C145.451 691.642 145.212 692.216 144.787 692.639C144.362 693.062 143.786 693.3 143.185 693.3L135.026 693.3C134.425 693.3 133.848 693.062 133.423 692.639C132.998 692.216 132.759 691.642 132.759 691.044Z" fill="white"/>
</g>
<defs>
<clipPath id="clip0_2694_709">
<rect width="818" height="421" fill="white" transform="translate(421) rotate(90)"/>
</clipPath>
</defs>
</svg>
