<svg width="390" height="758" viewBox="0 0 390 758" fill="none" xmlns="http://www.w3.org/2000/svg">
<path d="M-0.466006 755.728L-0.465973 2.29111C-0.465973 1.73604 -0.244782 1.20371 0.148956 0.811214C0.542694 0.418723 1.07669 0.198225 1.63351 0.198225L388.779 0.198242C389.336 0.198242 389.87 0.41874 390.264 0.811231C390.658 1.20372 390.879 1.73606 390.879 2.29112L390.879 755.728C390.879 756.283 390.658 756.816 390.264 757.208C389.87 757.601 389.336 757.821 388.779 757.821L1.63348 757.821C1.07666 757.821 0.542661 757.601 0.148923 757.208C-0.244815 756.816 -0.466006 756.283 -0.466006 755.728ZM3.733 4.38399L3.73297 753.635L386.68 753.635L386.68 4.384L3.733 4.38399Z" fill="white"/>
</svg>
