<?xml version="1.0" encoding="utf-8"?>
<!-- Generator: Adobe Illustrator 27.0.0, SVG Export Plug-In . SVG Version: 6.00 Build 0)  -->
<svg version="1.1" id="Layer_1" xmlns="http://www.w3.org/2000/svg" xmlns:xlink="http://www.w3.org/1999/xlink" x="0px" y="0px"
	 viewBox="0 0 523.91492 557.86169" style="enable-background:new 0 0 523.91492 557.86169;" xml:space="preserve">
<style type="text/css">
	.st0{fill:#FFFFFF;}
</style>
<g id="color">
	<path class="st0" d="M17.57448,522.58643V270.2164c0.01468-11.11392,5.04056-21.6286,13.67999-28.62
		c33.63-27.31998,71.81-69.25998,75.32001-103.48999c2.45999-23.99999,5.29999-69.57,7.12-101.08001
		c1.10208-19.04247,16.86565-33.92006,35.93999-33.91998h27.94c0,0,10,86,88.00002,86s88-86,88-86h27.94
		c19.07434-0.00008,34.83789,14.87752,35.94,33.91998c1.82001,31.51001,4.65997,77.08002,7.12,101.08001
		c3.51001,34.23001,41.69,76.16998,75.32001,103.48999c8.6394,6.99139,13.66525,17.50607,13.67996,28.62v252.37003
		c0,18.51257-15.00735,33.52002-33.51993,33.52002c-0.00006,0-0.00006,0-0.00006,0h-429
		C32.55751,556.08435,17.57445,541.08337,17.57448,522.58643z"/>
</g>
</svg>
