<?xml version="1.0" encoding="utf-8"?>
<!-- Generator: Adobe Illustrator 27.0.0, SVG Export Plug-In . SVG Version: 6.00 Build 0)  -->
<svg version="1.1" id="Layer_1" xmlns="http://www.w3.org/2000/svg" xmlns:xlink="http://www.w3.org/1999/xlink" x="0px" y="0px"
	 viewBox="0 0 500.42554 596.30292" style="enable-background:new 0 0 500.42554 596.30292;" xml:space="preserve">
<style type="text/css">
	.st0{fill:#FFFFFF;}
</style>
<g id="color">
	<path class="st0" d="M437.69571,251.12878c-22.83002-8.64001-48.78998-15.35999-78.26001-20.23001
		c-4.54529,8.3768-13.30945,13.5954-22.83997,13.60001H167.59575c-9.48923-0.01022-18.22287-5.17761-22.79999-13.48999
		c-27.8,4.51001-53.66001,10.19-69.45002,16.17001c-34.20999,12.94-33.69,21.42999-31.77999,53
		c1.57999,26.12003,5.73999,62.13998,7.34,75.45999c47.47-8.23999,87.89999-11.12,88.32001-11.15002h0.37
		c1.57001,0,157.66997-1,210.11998,0c43.40002,0.82001,88.58997,8.38,103.66003,11.10999c2-14.77002,7.45001-57.19,8.25-77.31
		C462.59573,273.43878,459.37576,260.70877,437.69571,251.12878z M248.48576,221.49878c-1.51001,0-3.09-0.04999-4.73001-0.04999
		c-22.31,0-55.70001,3.07001-87.94,7.85999c3.02689,3.30295,7.2999,5.18555,11.78,5.19h168.99998
		c4.53888,0.00119,8.86469-1.92542,11.90002-5.29999C318.68576,224.86877,285.47574,222.31879,248.48576,221.49878z
		 M437.69571,251.12878c-22.83002-8.64001-48.78998-15.35999-78.26001-20.23001c-4.54529,8.3768-13.30945,13.5954-22.83997,13.60001
		H167.59575c-9.48923-0.01022-18.22287-5.17761-22.79999-13.48999c-27.8,4.51001-53.66001,10.19-69.45002,16.17001
		c-34.20999,12.94-33.69,21.42999-31.77999,53c1.57999,26.12003,5.73999,62.13998,7.34,75.45999
		c47.47-8.23999,87.89999-11.12,88.32001-11.15002h0.37c1.57001,0,157.66997-1,210.11998,0
		c43.40002,0.82001,88.58997,8.38,103.66003,11.10999c2-14.77002,7.45001-57.19,8.25-77.31
		C462.59573,273.43878,459.37576,260.70877,437.69571,251.12878z M248.48576,221.49878c-1.51001,0-3.09-0.04999-4.73001-0.04999
		c-22.31,0-55.70001,3.07001-87.94,7.85999c3.02689,3.30295,7.2999,5.18555,11.78,5.19h168.99998
		c4.53888,0.00119,8.86469-1.92542,11.90002-5.29999C318.68576,224.86877,285.47574,222.31879,248.48576,221.49878z
		 M248.48576,221.49878c-1.51001,0-3.09-0.04999-4.73001-0.04999c-22.31,0-55.70001,3.07001-87.94,7.85999
		c3.02689,3.30295,7.2999,5.18555,11.78,5.19h168.99998c4.53888,0.00119,8.86469-1.92542,11.90002-5.29999
		C318.68576,224.86877,285.47574,222.31879,248.48576,221.49878z M437.69571,251.12878
		c-22.83002-8.64001-48.78998-15.35999-78.26001-20.23001c-4.54529,8.3768-13.30945,13.5954-22.83997,13.60001H167.59575
		c-9.48923-0.01022-18.22287-5.17761-22.79999-13.48999c-27.8,4.51001-53.66001,10.19-69.45002,16.17001
		c-34.20999,12.94-33.69,21.42999-31.77999,53c1.57999,26.12003,5.73999,62.13998,7.34,75.45999
		c47.47-8.23999,87.89999-11.12,88.32001-11.15002h0.37c1.57001,0,157.66997-1,210.11998,0
		c43.40002,0.82001,88.58997,8.38,103.66003,11.10999c2-14.77002,7.45001-57.19,8.25-77.31
		C462.59573,273.43878,459.37576,260.70877,437.69571,251.12878z M437.69571,251.12878
		c-22.83002-8.64001-48.78998-15.35999-78.26001-20.23001c-4.54529,8.3768-13.30945,13.5954-22.83997,13.60001H167.59575
		c-9.48923-0.01022-18.22287-5.17761-22.79999-13.48999c-27.8,4.51001-53.66001,10.19-69.45002,16.17001
		c-34.20999,12.94-33.69,21.42999-31.77999,53c1.57999,26.12003,5.73999,62.13998,7.34,75.45999
		c47.47-8.23999,87.89999-11.12,88.32001-11.15002h0.37c1.57001,0,157.66997-1,210.11998,0
		c43.40002,0.82001,88.58997,8.38,103.66003,11.10999c2-14.77002,7.45001-57.19,8.25-77.31
		C462.59573,273.43878,459.37576,260.70877,437.69571,251.12878z M248.48576,221.49878c-1.51001,0-3.09-0.04999-4.73001-0.04999
		c-22.31,0-55.70001,3.07001-87.94,7.85999c3.02689,3.30295,7.2999,5.18555,11.78,5.19h168.99998
		c4.53888,0.00119,8.86469-1.92542,11.90002-5.29999C318.68576,224.86877,285.47574,222.31879,248.48576,221.49878z
		 M248.48576,221.49878c-1.51001,0-3.09-0.04999-4.73001-0.04999c-22.31,0-55.70001,3.07001-87.94,7.85999
		c3.02689,3.30295,7.2999,5.18555,11.78,5.19h168.99998c4.53888,0.00119,8.86469-1.92542,11.90002-5.29999
		C318.68576,224.86877,285.47574,222.31879,248.48576,221.49878z M336.59573,151.49878H167.59575c-8.83655,0-16,7.16345-16,16
		v27.10001c33.42651-5.02869,67.1987-7.4028,101-7.10001c33.4868,0.09821,66.91728,2.75259,99.99998,7.94v-27.94
		C352.59573,158.66223,345.43228,151.49878,336.59573,151.49878z M437.69571,251.12878
		c-22.83002-8.64001-48.78998-15.35999-78.26001-20.23001c-4.54529,8.3768-13.30945,13.5954-22.83997,13.60001H167.59575
		c-9.48923-0.01022-18.22287-5.17761-22.79999-13.48999c-27.8,4.51001-53.66001,10.19-69.45002,16.17001
		c-34.20999,12.94-33.69,21.42999-31.77999,53c1.57999,26.12003,5.73999,62.13998,7.34,75.45999
		c47.47-8.23999,87.89999-11.12,88.32001-11.15002h0.37c1.57001,0,157.66997-1,210.11998,0
		c43.40002,0.82001,88.58997,8.38,103.66003,11.10999c2-14.77002,7.45001-57.19,8.25-77.31
		C462.59573,273.43878,459.37576,260.70877,437.69571,251.12878z M336.59573,151.49878H167.59575c-8.83655,0-16,7.16345-16,16
		v27.10001c33.42651-5.02869,67.1987-7.4028,101-7.10001c33.4868,0.09821,66.91728,2.75259,99.99998,7.94v-27.94
		C352.59573,158.66223,345.43228,151.49878,336.59573,151.49878z M437.69571,251.12878
		c-22.83002-8.64001-48.78998-15.35999-78.26001-20.23001c-4.54529,8.3768-13.30945,13.5954-22.83997,13.60001H167.59575
		c-9.48923-0.01022-18.22287-5.17761-22.79999-13.48999c-27.8,4.51001-53.66001,10.19-69.45002,16.17001
		c-34.20999,12.94-33.69,21.42999-31.77999,53c1.57999,26.12003,5.73999,62.13998,7.34,75.45999
		c47.47-8.23999,87.89999-11.12,88.32001-11.15002h0.37c1.57001,0,157.66997-1,210.11998,0
		c43.40002,0.82001,88.58997,8.38,103.66003,11.10999c2-14.77002,7.45001-57.19,8.25-77.31
		C462.59573,273.43878,459.37576,260.70877,437.69571,251.12878z M248.48576,221.49878c-1.51001,0-3.09-0.04999-4.73001-0.04999
		c-22.31,0-55.70001,3.07001-87.94,7.85999c3.02689,3.30295,7.2999,5.18555,11.78,5.19h168.99998
		c4.53888,0.00119,8.86469-1.92542,11.90002-5.29999C318.68576,224.86877,285.47574,222.31879,248.48576,221.49878z
		 M248.48576,221.49878c-1.51001,0-3.09-0.04999-4.73001-0.04999c-22.31,0-55.70001,3.07001-87.94,7.85999
		c3.02689,3.30295,7.2999,5.18555,11.78,5.19h168.99998c4.53888,0.00119,8.86469-1.92542,11.90002-5.29999
		C318.68576,224.86877,285.47574,222.31879,248.48576,221.49878z M336.59573,151.49878H167.59575c-8.83655,0-16,7.16345-16,16
		v27.10001c33.42651-5.02869,67.1987-7.4028,101-7.10001c33.4868,0.09821,66.91728,2.75259,99.99998,7.94v-27.94
		C352.59573,158.66223,345.43228,151.49878,336.59573,151.49878z M437.69571,251.12878
		c-22.83002-8.64001-48.78998-15.35999-78.26001-20.23001c-4.54529,8.3768-13.30945,13.5954-22.83997,13.60001H167.59575
		c-9.48923-0.01022-18.22287-5.17761-22.79999-13.48999c-27.8,4.51001-53.66001,10.19-69.45002,16.17001
		c-34.20999,12.94-33.69,21.42999-31.77999,53c1.57999,26.12003,5.73999,62.13998,7.34,75.45999
		c47.47-8.23999,87.89999-11.12,88.32001-11.15002h0.37c1.57001,0,157.66997-1,210.11998,0
		c43.40002,0.82001,88.58997,8.38,103.66003,11.10999c2-14.77002,7.45001-57.19,8.25-77.31
		C462.59573,273.43878,459.37576,260.70877,437.69571,251.12878z M484.22574,236.12878
		c-1.21997-20.13-6.27002-62.23001-26.67999-104.91998c-37.5-78.47002-106.52002-121.71002-205.12999-128.71002h-0.64001
		c-98.75,7-167.83002,50.37-205.28998,129c-19.39999,40.72-24.84,80.75-26.34,101.73999
		c22.23001-10.73001,63.04998-27.06,121.44998-37v-28.73999c0-14.35941,11.64059-26,26-26l0,0h168.99998
		c14.35938,0,26,11.64059,26,26l0,0v29.60999c61.83002,11.02002,102.21997,28.80002,121.63,39V236.12878z M437.69571,251.12878
		c-22.83002-8.64001-48.78998-15.35999-78.26001-20.23001c-4.54529,8.3768-13.30945,13.5954-22.83997,13.60001H167.59575
		c-9.48923-0.01022-18.22287-5.17761-22.79999-13.48999c-27.8,4.51001-53.66001,10.19-69.45002,16.17001
		c-34.20999,12.94-33.69,21.42999-31.77999,53c1.57999,26.12003,5.73999,62.13998,7.34,75.45999
		c47.47-8.23999,87.89999-11.12,88.32001-11.15002h0.37c1.57001,0,157.66997-1,210.11998,0
		c43.40002,0.82001,88.58997,8.38,103.66003,11.10999c2-14.77002,7.45001-57.19,8.25-77.31
		C462.59573,273.43878,459.37576,260.70877,437.69571,251.12878z M336.59573,234.49878
		c4.53888,0.00119,8.86469-1.92542,11.90002-5.29999c-29.78998-4.32999-63-6.88-99.99998-7.70001
		c-1.51001,0-3.09-0.04999-4.73001-0.04999c-22.31,0-55.70001,3.07001-87.94,7.85999c3.02451,3.30038,7.29337,5.18274,11.76999,5.19
		H336.59573z M484.80576,249.87878c-0.13806-0.49109-0.20209-1.00003-0.19-1.51001c0,0,0-0.26001,0-0.67001l0,0
		c-23.64001-13.26999-100.02002-49.39999-232.02-50.19998h-4.20999c-33.75381-0.09583-67.46017,2.53607-100.79001,7.87l-0.5,0.07999
		c-64.00001,10.47-106.84,28.76001-127.5,39.25c0,2.31,0,3.59,0,3.67001c0.01208,0.50998-0.05194,1.01892-0.19,1.51001
		c-0.23001,0.78-22,78.53998,3.51999,139c11.53,14.39001,19.32999,23.17999,19.41,23.27002
		c0.63971,0.7229,1.05646,1.61548,1.20001,2.57001l24.45001,162.33002l114.00001,16.41998h140.24998l114-16.41998
		l24.45001-162.33002c0.14355-0.95453,0.5603-1.84711,1.20001-2.57001c0.08002-0.09003,7.88-8.88,19.40997-23.27002
		c25.54999-60.53998,3.71997-138.22,3.48999-139H484.80576z M63.59575,429.94879l-2-22
		c-0.24207-2.68011,1.68042-5.07104,4.35-5.40997l55-7c2.32318-0.29248,4.53818,1.06647,5.32999,3.27002l9.00001,25
		c0.93369,2.59875-0.41614,5.4624-3.01492,6.39612c-0.43954,0.1579-0.89902,0.25348-1.36508,0.28387l-62.00001,4h-0.29999
		C66.0044,434.49982,63.83412,432.52917,63.59575,429.94879z M179.45573,570.67877c-0.95013,1.15289-2.36603,1.8205-3.85999,1.82001
		c-0.20975,0.01489-0.42026,0.01489-0.63,0l-86.00001-11c-2.16501-0.27502-3.90149-1.92249-4.29001-4.07001l-18-100
		c-0.49445-2.7168,1.30713-5.32001,4.02393-5.81445c0.22009-0.04004,0.4426-0.06531,0.66608-0.07556l66.00001-3
		c2.24615-0.11426,4.29221,1.28522,5,3.41998l38,114C180.8882,567.58423,180.54509,569.36401,179.45573,570.67877z
		 M147.45573,393.73877c0.92026-1.3902,2.47287-2.23022,4.14001-2.23999l0,0l201.99998,1
		c2.76141,0.00964,4.99213,2.25604,4.98248,5.01746c-0.00208,0.58807-0.10785,1.1712-0.3125,1.72253l-10,27
		c-0.72522,1.95367-2.58606,3.25269-4.66998,3.26001H163.59575c-1.99445,0.00696-3.80225-1.17206-4.60001-3l-12-28
		c-0.67337-1.55688-0.51147-3.349,0.42999-4.76001H147.45573z M301.34573,576.06879c-0.67749,2.0484-2.59247,3.43121-4.75,3.42999
		h-88.99998c-2.18369,0.00012-4.11487-1.41687-4.76999-3.5l-39-124c-0.82843-2.63422,0.63547-5.44128,3.26968-6.26971
		c0.48547-0.15265,0.99139-0.23029,1.50031-0.23029h168.99998c2.76141-0.00159,5.00128,2.23572,5.00287,4.99713
		c0.00031,0.53442-0.08502,1.06549-0.25287,1.57288L301.34573,576.06879z M438.51572,457.38879l-18,100
		c-0.38849,2.14752-2.125,3.79498-4.28998,4.07001l-86,11c-0.20972,0.01489-0.42029,0.01489-0.63,0
		c-2.76141-0.00208-4.99829-2.24237-4.99622-5.00378c0.00043-0.53577,0.08691-1.06793,0.25623-1.57623l38-114
		c0.70782-2.13477,2.75385-3.53424,5-3.41998l66,3c2.75854,0.12659,4.89215,2.46539,4.76556,5.22394
		c-0.01025,0.22345-0.03552,0.44598-0.07556,0.66608L438.51572,457.38879z M441.59573,429.94879
		c-0.23352,2.58429-2.40515,4.56055-5,4.54999h-0.32001l-62-4c-2.75555-0.17975-4.84363-2.55933-4.66388-5.31488
		c0.0304-0.46606,0.12598-0.9256,0.28387-1.36511l9-25c0.79181-2.20355,3.00684-3.5625,5.33002-3.27002l55,7
		c2.66956,0.33893,4.59204,2.72992,4.34998,5.40997L441.59573,429.94879z M471.59573,298.69879c-1,25-8.71997,81.09998-9,83.47998
		c-0.36975,2.73657-2.88794,4.65521-5.62451,4.2854c-0.12598-0.01697-0.25122-0.03882-0.37549-0.06537
		c-0.54999-0.10999-55.20001-10.91998-107.10999-11.90002c-51.58002-1-203.81999,0-209.71001,0
		c-2.85999,0.21002-44.66001,3.34003-92.31,11.91998c-0.29398,0.05096-0.59164,0.07776-0.89001,0.08002
		c-2.53638,0.01959-4.68555-1.8631-5-4.38c-0.06-0.47998-6-48.53998-8-81.32001c-2.14001-35.23999-0.89001-48.17999,38.22-63
		c38.93002-14.69,132.67001-27.29999,176.91-26.29999c80.49998,1.79001,143.52,11.70999,192.66002,30.32001l0.23999,0.10001
		C470.91574,254.81879,472.52573,275.26877,471.59573,298.69879z M437.69571,251.12878
		c-22.83002-8.64001-48.78998-15.35999-78.26001-20.23001c-4.54529,8.3768-13.30945,13.5954-22.83997,13.60001H167.59575
		c-9.48923-0.01022-18.22287-5.17761-22.79999-13.48999c-27.8,4.51001-53.66001,10.19-69.45002,16.17001
		c-34.20999,12.94-33.69,21.42999-31.77999,53c1.57999,26.12003,5.73999,62.13998,7.34,75.45999
		c47.47-8.23999,87.89999-11.12,88.32001-11.15002h0.37c1.57001,0,157.66997-1,210.11998,0
		c43.40002,0.82001,88.58997,8.38,103.66003,11.10999c2-14.77002,7.45001-57.19,8.25-77.31
		C462.59573,273.43878,459.37576,260.70877,437.69571,251.12878z M336.59573,234.49878
		c4.53888,0.00119,8.86469-1.92542,11.90002-5.29999c-29.78998-4.32999-63-6.88-99.99998-7.70001
		c-1.51001,0-3.09-0.04999-4.73001-0.04999c-22.31,0-55.70001,3.07001-87.94,7.85999c3.02451,3.30038,7.29337,5.18274,11.76999,5.19
		H336.59573z M248.50575,221.49878c-1.51001,0-3.09-0.04999-4.73001-0.04999c-22.31,0-55.70001,3.07001-87.94,7.85999
		c3.02216,3.29782,7.28687,5.17996,11.76001,5.19h168.99998c4.53888,0.00119,8.86469-1.92542,11.90002-5.29999
		c-29.81-4.33002-63.02002-6.88-100.00999-7.70001H248.50575z M437.69571,251.12878
		c-22.83002-8.64001-48.78998-15.35999-78.26001-20.23001c-4.54529,8.3768-13.30945,13.5954-22.83997,13.60001H167.59575
		c-9.48923-0.01022-18.22287-5.17761-22.79999-13.48999c-27.8,4.51001-53.66001,10.19-69.45002,16.17001
		c-34.20999,12.94-33.69,21.42999-31.77999,53c1.57999,26.12003,5.73999,62.13998,7.34,75.45999
		c47.47-8.23999,87.89999-11.12,88.32001-11.15002h0.37c1.57001,0,157.66997-1,210.11998,0
		c43.40002,0.82001,88.58997,8.38,103.66003,11.10999c2-14.77002,7.45001-57.19,8.25-77.31
		C462.59573,273.43878,459.37576,260.70877,437.69571,251.12878z M437.69571,251.12878
		c-22.83002-8.64001-48.78998-15.35999-78.26001-20.23001c-4.54529,8.3768-13.30945,13.5954-22.83997,13.60001H167.59575
		c-9.48923-0.01022-18.22287-5.17761-22.79999-13.48999c-27.8,4.51001-53.66001,10.19-69.45002,16.17001
		c-34.20999,12.94-33.69,21.42999-31.77999,53c1.57999,26.12003,5.73999,62.13998,7.34,75.45999
		c47.47-8.23999,87.89999-11.12,88.32001-11.15002h0.37c1.57001,0,157.66997-1,210.11998,0
		c43.40002,0.82001,88.58997,8.38,103.66003,11.10999c2-14.77002,7.45001-57.19,8.25-77.31
		C462.59573,273.43878,459.37576,260.70877,437.69571,251.12878z M336.59573,151.49878H167.59575c-8.83655,0-16,7.16345-16,16
		v27.10001c33.42651-5.02869,67.1987-7.4028,101-7.10001c33.4868,0.09821,66.91728,2.75259,99.99998,7.94v-27.94
		C352.59573,158.66223,345.43228,151.49878,336.59573,151.49878z M248.50575,221.49878c-1.51001,0-3.09-0.04999-4.73001-0.04999
		c-22.31,0-55.70001,3.07001-87.94,7.85999c3.02216,3.29782,7.28687,5.17996,11.76001,5.19h168.99998
		c4.53888,0.00119,8.86469-1.92542,11.90002-5.29999c-29.81-4.33002-63.02002-6.88-100.00999-7.70001H248.50575z
		 M248.50575,221.49878c-1.51001,0-3.09-0.04999-4.73001-0.04999c-22.31,0-55.70001,3.07001-87.94,7.85999
		c3.02216,3.29782,7.28687,5.17996,11.76001,5.19h168.99998c4.53888,0.00119,8.86469-1.92542,11.90002-5.29999
		c-29.81-4.33002-63.02002-6.88-100.00999-7.70001H248.50575z M437.69571,251.12878
		c-22.83002-8.64001-48.78998-15.35999-78.26001-20.23001c-4.54529,8.3768-13.30945,13.5954-22.83997,13.60001H167.59575
		c-9.48923-0.01022-18.22287-5.17761-22.79999-13.48999c-27.8,4.51001-53.66001,10.19-69.45002,16.17001
		c-34.20999,12.94-33.69,21.42999-31.77999,53c1.57999,26.12003,5.73999,62.13998,7.34,75.45999
		c47.47-8.23999,87.89999-11.12,88.32001-11.15002h0.37c1.57001,0,157.66997-1,210.11998,0
		c43.40002,0.82001,88.58997,8.38,103.66003,11.10999c2-14.77002,7.45001-57.19,8.25-77.31
		C462.59573,273.43878,459.37576,260.70877,437.69571,251.12878z M336.59573,151.49878H167.59575c-8.83655,0-16,7.16345-16,16
		v27.10001c33.42651-5.02869,67.1987-7.4028,101-7.10001c33.4868,0.09821,66.91728,2.75259,99.99998,7.94v-27.94
		C352.59573,158.66223,345.43228,151.49878,336.59573,151.49878z M437.69571,251.12878
		c-22.83002-8.64001-48.78998-15.35999-78.26001-20.23001c-4.54529,8.3768-13.30945,13.5954-22.83997,13.60001H167.59575
		c-9.48923-0.01022-18.22287-5.17761-22.79999-13.48999c-27.8,4.51001-53.66001,10.19-69.45002,16.17001
		c-34.20999,12.94-33.69,21.42999-31.77999,53c1.57999,26.12003,5.73999,62.13998,7.34,75.45999
		c47.47-8.23999,87.89999-11.12,88.32001-11.15002h0.37c1.57001,0,157.66997-1,210.11998,0
		c43.40002,0.82001,88.58997,8.38,103.66003,11.10999c2-14.77002,7.45001-57.19,8.25-77.31
		C462.59573,273.43878,459.37576,260.70877,437.69571,251.12878z M248.48576,221.49878c-1.51001,0-3.09-0.04999-4.73001-0.04999
		c-22.31,0-55.70001,3.07001-87.94,7.85999c3.02689,3.30295,7.2999,5.18555,11.78,5.19h168.99998
		c4.53888,0.00119,8.86469-1.92542,11.90002-5.29999C318.68576,224.86877,285.47574,222.31879,248.48576,221.49878z
		 M248.48576,221.49878c-1.51001,0-3.09-0.04999-4.73001-0.04999c-22.31,0-55.70001,3.07001-87.94,7.85999
		c3.02689,3.30295,7.2999,5.18555,11.78,5.19h168.99998c4.53888,0.00119,8.86469-1.92542,11.90002-5.29999
		C318.68576,224.86877,285.47574,222.31879,248.48576,221.49878z M437.69571,251.12878
		c-22.83002-8.64001-48.78998-15.35999-78.26001-20.23001c-4.54529,8.3768-13.30945,13.5954-22.83997,13.60001H167.59575
		c-9.48923-0.01022-18.22287-5.17761-22.79999-13.48999c-27.8,4.51001-53.66001,10.19-69.45002,16.17001
		c-34.20999,12.94-33.69,21.42999-31.77999,53c1.57999,26.12003,5.73999,62.13998,7.34,75.45999
		c47.47-8.23999,87.89999-11.12,88.32001-11.15002h0.37c1.57001,0,157.66997-1,210.11998,0
		c43.40002,0.82001,88.58997,8.38,103.66003,11.10999c2-14.77002,7.45001-57.19,8.25-77.31
		C462.59573,273.43878,459.37576,260.70877,437.69571,251.12878z M437.69571,251.12878
		c-22.83002-8.64001-48.78998-15.35999-78.26001-20.23001c-4.54529,8.3768-13.30945,13.5954-22.83997,13.60001H167.59575
		c-9.48923-0.01022-18.22287-5.17761-22.79999-13.48999c-27.8,4.51001-53.66001,10.19-69.45002,16.17001
		c-34.20999,12.94-33.69,21.42999-31.77999,53c1.57999,26.12003,5.73999,62.13998,7.34,75.45999
		c47.47-8.23999,87.89999-11.12,88.32001-11.15002h0.37c1.57001,0,157.66997-1,210.11998,0
		c43.40002,0.82001,88.58997,8.38,103.66003,11.10999c2-14.77002,7.45001-57.19,8.25-77.31
		C462.59573,273.43878,459.37576,260.70877,437.69571,251.12878z M248.48576,221.49878c-1.51001,0-3.09-0.04999-4.73001-0.04999
		c-22.31,0-55.70001,3.07001-87.94,7.85999c3.02689,3.30295,7.2999,5.18555,11.78,5.19h168.99998
		c4.53888,0.00119,8.86469-1.92542,11.90002-5.29999C318.68576,224.86877,285.47574,222.31879,248.48576,221.49878z"/>
</g>
</svg>
