<svg width="35" height="34" viewBox="0 0 35 34" fill="none" xmlns="http://www.w3.org/2000/svg">
<path d="M34.4741 21.1125C32.1368 30.2197 22.6415 35.7621 13.2654 33.4911C3.89321 31.2205 -1.81229 21.996 0.526096 12.8894C2.86231 3.7812 12.3576 -1.76181 21.731 0.50871C31.1065 2.77927 36.8114 12.0049 34.4741 21.1125Z" fill="#FF940C"/>
<path d="M11.7437 19.863C11.6485 20.0925 11.4074 20.4368 10.8638 20.3061C10.8829 20.3332 9.46819 19.9677 9.46819 19.9677L8.51501 22.1027L11.0136 22.7079C11.4785 22.821 11.934 22.9395 12.3825 23.051L11.5878 26.1503L13.5057 26.6152L14.2926 23.5488C14.8166 23.6869 15.3251 23.8144 15.8228 23.9345L15.0386 26.9865L16.9586 27.4513L17.7532 24.3579C21.0274 24.9598 23.4893 24.717 24.5257 21.8403C25.3607 19.5241 24.4841 18.188 22.7615 17.3168C24.016 17.0357 24.961 16.2341 25.2131 14.5782C25.5614 12.3161 23.7884 11.1001 21.3642 10.2889L22.1506 7.22465L20.2305 6.75981L19.4649 9.74328C18.9601 9.62109 18.4417 9.50581 17.9266 9.39158L18.6976 6.38842L16.7787 5.92358L15.9917 8.98674C15.5739 8.89431 15.1638 8.80289 14.7656 8.70676L14.7678 8.69718L12.1199 8.05491L11.609 10.0471C11.609 10.0471 13.0337 10.3642 13.0036 10.3839C13.7812 10.5725 13.9218 11.0724 13.8983 11.4687L11.7437 19.863ZM20.8261 20.5542C20.2327 22.8704 16.2182 21.6182 14.9166 21.3043L15.971 17.1983C17.2725 17.5138 21.4462 18.1386 20.8261 20.5542ZM21.42 14.5447C20.8786 16.6517 17.5372 15.5812 16.4533 15.3188L17.4092 11.5947C18.4931 11.8572 21.9838 12.347 21.42 14.5447Z" fill="white"/>
</svg>
