<svg width="23" height="27" viewBox="0 0 23 27" fill="none" xmlns="http://www.w3.org/2000/svg">
<path d="M20.0058 6.9259C20.0058 6.9259 19.3919 7.2487 19.3592 7.41009C18.3125 12.833 15.1978 14.3208 10.5206 14.3208L8.133 14.2835C7.54429 14.2835 6.73941 15.0925 6.64131 15.6413L5.40712 22.733L5.74532 23.2914L5.41825 25.4864C5.35281 25.8092 5.58178 26.132 5.94158 26.1643C5.9743 26.1643 6.00701 26.1643 6.03968 26.1643H10.2589C10.7495 26.1643 11.1747 25.8092 11.2729 25.325L11.3056 25.099C11.3056 25.099 12.0895 20.135 12.0906 20.128C12.1826 19.5452 12.5087 19.0306 13.1699 19.0306H13.7913C17.8798 19.0306 21.0851 17.3843 22.0336 12.6393C22.4261 10.6702 22.2299 8.99171 21.1832 7.8297C20.8562 7.44233 20.4637 7.15183 20.0058 6.9259Z" fill="#009BD9"/>
<path d="M18.979 5.87703C17.9485 5.5491 16.8294 5.50598 15.7546 5.50598H9.37663C8.88602 5.50598 8.02791 6.14295 7.92975 6.62714L6.48425 15.383L6.98895 15.6413C7.08706 15.0925 7.57767 14.6729 8.13372 14.6729H10.5213C15.1985 14.6729 18.8412 12.8072 19.9205 7.38425C19.9532 7.22285 19.9731 7.1018 20.0065 6.9259C20.0065 6.9259 19.664 6.16527 19.3845 6.02467C19.2545 5.97062 19.1184 5.92141 18.979 5.87703Z" fill="#192A67"/>
<path d="M8.39504 6.9581C8.46048 6.47391 8.88565 6.11883 9.40898 6.11883H15.7542C16.5065 6.11883 17.2261 6.18341 17.8475 6.28023C18.2727 6.3448 18.6979 6.44162 19.1231 6.57073C19.4502 6.66754 19.7445 6.7967 20.0062 6.92581C20.3333 4.92448 20.0062 3.56879 18.8942 2.30986C17.7167 0.954173 15.5253 0.373169 12.7124 0.373169H4.60096C4.04491 0.373169 3.5543 0.792777 3.4562 1.34154L0.0545784 22.5166C-0.010857 22.904 0.250834 23.259 0.643293 23.2913C0.676011 23.2913 0.708728 23.2913 0.741395 23.2913H5.74567L7.02126 15.4152L8.39504 6.9581Z" fill="#0A3B82"/>
</svg>
