<svg width="25" height="26" viewBox="0 0 25 26" fill="none" xmlns="http://www.w3.org/2000/svg">
<path d="M19.9005 16.7317C18.4476 16.7317 17.1673 17.4378 16.3632 18.5117L9.41061 14.9942C9.52605 14.6055 9.60717 14.2026 9.60717 13.7775C9.60717 13.2009 9.48752 12.6527 9.28082 12.1485L16.557 7.82239C17.3667 8.76134 18.5569 9.37039 19.9005 9.37039C22.3331 9.37039 24.3119 7.41524 24.3119 5.01173C24.3119 2.60822 22.3331 0.653076 19.9005 0.653076C17.4679 0.653076 15.4891 2.60822 15.4891 5.01173C15.4891 5.56562 15.6045 6.09103 15.796 6.57882L8.49818 10.9176C7.68913 10.0066 6.51608 9.41882 5.19574 9.41882C2.76312 9.41882 0.784302 11.374 0.784302 13.7775C0.784302 16.181 2.76312 18.1361 5.19574 18.1361C6.67259 18.1361 7.9745 17.4093 8.77561 16.3052L15.7053 19.8113C15.5777 20.2184 15.4891 20.6424 15.4891 21.0903C15.4891 23.4938 17.4679 25.449 19.9005 25.449C22.3331 25.449 24.3119 23.4938 24.3119 21.0903C24.3119 18.6868 22.3331 16.7317 19.9005 16.7317Z" fill="white"/>
</svg>
