<svg width="61" height="25" viewBox="0 0 61 25" fill="none" xmlns="http://www.w3.org/2000/svg">
<path fill-rule="evenodd" clip-rule="evenodd" d="M60.3331 12.9098C60.3331 8.71424 58.2856 5.40369 54.3722 5.40369C50.4423 5.40369 48.0645 8.71424 48.0645 12.877C48.0645 17.8101 50.8716 20.3012 54.9005 20.3012C56.8655 20.3012 58.3517 19.8587 59.4744 19.2359V15.9581C58.3515 16.5153 57.0637 16.8594 55.4289 16.8594C53.8272 16.8594 52.4071 16.3021 52.2255 14.3682H60.3C60.3001 14.1553 60.3331 13.303 60.3331 12.9098ZM52.1761 11.3528C52.1761 9.5008 53.3154 8.7306 54.3557 8.7306C55.3629 8.7306 56.4363 9.50092 56.4363 11.3528H52.1761Z" fill="white"/>
<path fill-rule="evenodd" clip-rule="evenodd" d="M41.6913 5.40369C40.0731 5.40369 39.0327 6.15763 38.4548 6.68205L38.2401 5.66595H34.6074V24.7754L38.7355 23.9068L38.752 19.2687C39.3464 19.6948 40.2216 20.3012 41.6747 20.3012C44.6304 20.3012 47.3219 17.9412 47.3219 12.7459C47.3055 7.99313 44.5809 5.40369 41.6913 5.40369ZM40.7005 16.6956C39.7262 16.6956 39.1484 16.3514 38.752 15.9253L38.7355 9.84511C39.1648 9.36978 39.7593 9.04207 40.7005 9.04207C42.2031 9.04207 43.2434 10.7137 43.2434 12.8607C43.2434 15.0568 42.2196 16.6956 40.7005 16.6956Z" fill="white"/>
<path fill-rule="evenodd" clip-rule="evenodd" d="M28.9271 4.43673L33.0717 3.55176V0.224731L28.9271 1.09345V4.43673Z" fill="white"/>
<path d="M33.0717 5.68225H28.9271V20.0225H33.0717V5.68225Z" fill="white"/>
<path fill-rule="evenodd" clip-rule="evenodd" d="M24.4854 6.89496L24.2212 5.68216H20.6545V20.0224H24.7826V10.3038C25.7568 9.0418 27.4081 9.27134 27.9199 9.45156V5.68216C27.3916 5.48558 25.4596 5.12502 24.4854 6.89496Z" fill="white"/>
<path fill-rule="evenodd" clip-rule="evenodd" d="M16.2289 2.12585L12.1998 2.9781L12.1833 16.1055C12.1833 18.5311 14.0162 20.3175 16.46 20.3175C17.8141 20.3175 18.8048 20.0718 19.3497 19.7767V16.4497C18.8214 16.6628 16.2124 17.4166 16.2124 14.9912V9.17308H19.3497V5.68231H16.2124L16.2289 2.12585Z" fill="white"/>
<path fill-rule="evenodd" clip-rule="evenodd" d="M5.06658 9.84498C5.06658 9.2058 5.59494 8.96002 6.47009 8.96002C7.72499 8.96002 9.31019 9.33694 10.5652 10.009V6.15751C9.19468 5.61674 7.84063 5.40356 6.47009 5.40356C3.11811 5.40356 0.888916 7.14088 0.888916 10.0417C0.888916 14.565 7.16366 13.8439 7.16366 15.7942C7.16366 16.548 6.50318 16.7939 5.57846 16.7939C4.20792 16.7939 2.45763 16.2367 1.07061 15.4828V19.3834C2.60624 20.0389 4.15847 20.3175 5.57846 20.3175C9.01298 20.3175 11.3743 18.6294 11.3743 15.6959C11.3578 10.812 5.06658 11.6806 5.06658 9.84498Z" fill="white"/>
</svg>
