<?xml version="1.0" encoding="UTF-8"?>
<svg xmlns="http://www.w3.org/2000/svg" xmlns:xlink="http://www.w3.org/1999/xlink" width="32px" height="32px" viewBox="0 0 32 45" version="1.1">
<g id="surface1">
<path style=" stroke:none;fill-rule:evenodd;fill:rgb(12.156863%,12.941176%,11.372549%);fill-opacity:1;" d="M 16 37.667969 C 22.296875 37.667969 27.433594 32.554688 27.433594 26.289062 C 27.433594 20.027344 22.296875 14.917969 16 14.917969 C 9.699219 14.917969 4.5625 20.027344 4.5625 26.289062 C 4.5625 32.554688 9.699219 37.667969 16 37.667969 Z M 16 37.667969 "/>
<path style=" stroke:none;fill-rule:evenodd;fill:rgb(84.313725%,12.156863%,17.647059%);fill-opacity:1;" d="M 16 37.28125 C 22.082031 37.28125 27.050781 32.34375 27.050781 26.289062 C 27.050781 20.238281 22.082031 15.296875 16 15.296875 C 9.914062 15.296875 4.945312 20.238281 4.945312 26.289062 C 4.945312 32.34375 9.914062 37.28125 16 37.28125 Z M 16 37.28125 "/>
<path style=" stroke:none;fill-rule:evenodd;fill:rgb(100%,100%,100%);fill-opacity:1;" d="M 12.339844 35.695312 C 12.296875 35.789062 12.253906 35.855469 12.214844 35.90625 C 12.167969 35.957031 12.117188 35.992188 12.050781 36.015625 C 12.007812 36.035156 11.960938 36.042969 11.917969 36.046875 C 11.875 36.050781 11.832031 36.046875 11.789062 36.035156 C 11.75 36.027344 11.707031 36.011719 11.664062 35.988281 C 11.539062 35.929688 11.453125 35.839844 11.40625 35.71875 C 11.382812 35.644531 11.375 35.574219 11.390625 35.507812 C 11.40625 35.4375 11.4375 35.351562 11.484375 35.257812 L 11.503906 35.222656 L 11.519531 35.183594 C 11.566406 35.085938 11.609375 35.011719 11.652344 34.953125 C 11.699219 34.894531 11.753906 34.851562 11.824219 34.828125 C 11.890625 34.804688 11.949219 34.792969 12.011719 34.796875 C 12.070312 34.796875 12.132812 34.816406 12.203125 34.847656 C 12.332031 34.910156 12.421875 34.996094 12.460938 35.097656 C 12.5 35.203125 12.5 35.3125 12.46875 35.425781 L 12.1875 35.292969 C 12.199219 35.246094 12.195312 35.207031 12.179688 35.171875 C 12.164062 35.140625 12.132812 35.113281 12.085938 35.09375 C 12.035156 35.070312 11.992188 35.070312 11.949219 35.089844 C 11.933594 35.097656 11.921875 35.109375 11.90625 35.125 C 11.890625 35.136719 11.875 35.164062 11.855469 35.199219 C 11.835938 35.234375 11.808594 35.28125 11.78125 35.347656 C 11.75 35.414062 11.726562 35.46875 11.714844 35.503906 C 11.699219 35.542969 11.691406 35.566406 11.691406 35.589844 C 11.6875 35.609375 11.6875 35.628906 11.691406 35.644531 C 11.703125 35.6875 11.730469 35.722656 11.78125 35.746094 C 11.832031 35.769531 11.878906 35.773438 11.921875 35.757812 C 11.964844 35.742188 12 35.707031 12.023438 35.65625 L 12.03125 35.640625 L 11.863281 35.5625 L 11.96875 35.332031 L 12.414062 35.539062 Z M 12.339844 35.695312 "/>
<path style=" stroke:none;fill-rule:evenodd;fill:rgb(100%,100%,100%);fill-opacity:1;" d="M 12.75 36.390625 L 12.460938 36.292969 L 12.867188 35.117188 L 13.15625 35.21875 Z M 12.75 36.390625 "/>
<path style=" stroke:none;fill-rule:evenodd;fill:rgb(100%,100%,100%);fill-opacity:1;" d="M 14.09375 36.746094 L 13.753906 36.65625 L 13.648438 36.15625 L 13.546875 36.132812 L 13.4375 36.582031 L 13.136719 36.507812 L 13.441406 35.304688 L 13.921875 35.421875 C 14.003906 35.445312 14.074219 35.480469 14.128906 35.535156 C 14.183594 35.582031 14.21875 35.644531 14.234375 35.710938 C 14.253906 35.777344 14.253906 35.84375 14.238281 35.914062 C 14.21875 35.988281 14.183594 36.050781 14.128906 36.089844 C 14.078125 36.136719 14.019531 36.164062 13.957031 36.179688 Z M 13.9375 35.835938 C 13.941406 35.816406 13.941406 35.796875 13.9375 35.777344 C 13.929688 35.757812 13.921875 35.738281 13.90625 35.71875 C 13.890625 35.703125 13.867188 35.691406 13.839844 35.6875 L 13.671875 35.644531 L 13.609375 35.886719 L 13.78125 35.929688 C 13.804688 35.933594 13.832031 35.933594 13.855469 35.929688 C 13.875 35.921875 13.894531 35.910156 13.910156 35.894531 C 13.925781 35.878906 13.933594 35.859375 13.9375 35.835938 Z M 13.9375 35.835938 "/>
<path style=" stroke:none;fill-rule:evenodd;fill:rgb(100%,100%,100%);fill-opacity:1;" d="M 15.386719 36.285156 L 15.378906 36.328125 C 15.371094 36.394531 15.359375 36.453125 15.347656 36.503906 C 15.335938 36.550781 15.316406 36.597656 15.292969 36.640625 C 15.265625 36.683594 15.234375 36.722656 15.195312 36.753906 C 15.140625 36.792969 15.085938 36.820312 15.027344 36.835938 C 14.96875 36.851562 14.902344 36.855469 14.828125 36.84375 C 14.78125 36.835938 14.734375 36.824219 14.695312 36.808594 C 14.65625 36.792969 14.621094 36.773438 14.589844 36.746094 C 14.558594 36.722656 14.527344 36.691406 14.503906 36.65625 C 14.457031 36.597656 14.429688 36.53125 14.425781 36.457031 C 14.417969 36.386719 14.425781 36.300781 14.4375 36.195312 L 14.445312 36.152344 L 14.449219 36.109375 C 14.464844 36.007812 14.484375 35.921875 14.511719 35.851562 C 14.535156 35.789062 14.578125 35.730469 14.640625 35.683594 C 14.695312 35.644531 14.75 35.617188 14.804688 35.601562 C 14.863281 35.585938 14.929688 35.582031 15.003906 35.59375 C 15.078125 35.605469 15.144531 35.625 15.195312 35.65625 C 15.242188 35.6875 15.289062 35.730469 15.328125 35.78125 C 15.363281 35.820312 15.382812 35.867188 15.394531 35.917969 C 15.40625 35.964844 15.410156 36.015625 15.410156 36.066406 C 15.40625 36.113281 15.402344 36.175781 15.390625 36.242188 Z M 15.082031 36.242188 C 15.097656 36.136719 15.105469 36.066406 15.105469 36.027344 C 15.101562 35.988281 15.09375 35.957031 15.082031 35.933594 C 15.070312 35.917969 15.058594 35.902344 15.035156 35.886719 C 15.015625 35.875 14.992188 35.867188 14.964844 35.863281 C 14.9375 35.859375 14.914062 35.859375 14.890625 35.867188 C 14.871094 35.875 14.851562 35.886719 14.835938 35.898438 C 14.824219 35.910156 14.8125 35.925781 14.804688 35.945312 C 14.792969 35.964844 14.785156 35.992188 14.78125 36.03125 C 14.769531 36.070312 14.761719 36.121094 14.75 36.195312 C 14.742188 36.269531 14.734375 36.324219 14.730469 36.359375 C 14.730469 36.402344 14.730469 36.429688 14.734375 36.449219 C 14.738281 36.46875 14.746094 36.488281 14.753906 36.503906 C 14.777344 36.542969 14.8125 36.570312 14.863281 36.574219 C 14.917969 36.582031 14.960938 36.570312 14.996094 36.535156 C 15.015625 36.515625 15.03125 36.488281 15.042969 36.453125 C 15.054688 36.417969 15.070312 36.347656 15.082031 36.242188 Z M 15.082031 36.242188 "/>
<path style=" stroke:none;fill-rule:evenodd;fill:rgb(100%,100%,100%);fill-opacity:1;" d="M 16.640625 36.875 L 16.375 36.882812 L 15.957031 36.277344 L 15.980469 36.894531 L 15.671875 36.90625 L 15.632812 35.667969 L 15.898438 35.660156 L 16.316406 36.269531 L 16.292969 35.644531 L 16.597656 35.632812 Z M 16.640625 36.875 "/>
<path style=" stroke:none;fill-rule:evenodd;fill:rgb(100%,100%,100%);fill-opacity:1;" d="M 18.054688 36.71875 L 17.738281 36.765625 L 17.652344 36.589844 L 17.273438 36.640625 L 17.238281 36.835938 L 16.921875 36.878906 L 17.195312 35.585938 L 17.429688 35.550781 Z M 17.539062 36.347656 L 17.386719 36.035156 L 17.324219 36.375 Z M 17.539062 36.347656 "/>
<path style=" stroke:none;fill-rule:evenodd;fill:rgb(100%,100%,100%);fill-opacity:1;" d="M 19.332031 35.332031 L 18.820312 35.511719 L 18.890625 35.714844 L 19.332031 35.5625 L 19.421875 35.820312 L 18.980469 35.972656 L 19.136719 36.421875 L 18.847656 36.523438 L 18.441406 35.351562 L 19.246094 35.074219 Z M 19.332031 35.332031 "/>
<path style=" stroke:none;fill-rule:evenodd;fill:rgb(100%,100%,100%);fill-opacity:1;" d="M 20.640625 35.390625 C 20.660156 35.457031 20.664062 35.519531 20.664062 35.574219 C 20.660156 35.632812 20.644531 35.6875 20.621094 35.734375 C 20.597656 35.785156 20.566406 35.824219 20.523438 35.863281 C 20.484375 35.898438 20.433594 35.929688 20.382812 35.957031 C 20.257812 36.015625 20.132812 36.019531 20.007812 35.976562 C 19.933594 35.949219 19.882812 35.90625 19.835938 35.847656 C 19.792969 35.796875 19.75 35.71875 19.703125 35.621094 L 19.6875 35.582031 L 19.667969 35.546875 C 19.621094 35.449219 19.589844 35.367188 19.574219 35.296875 C 19.558594 35.230469 19.566406 35.15625 19.589844 35.082031 C 19.613281 35.019531 19.644531 34.972656 19.6875 34.925781 C 19.730469 34.882812 19.78125 34.84375 19.847656 34.8125 C 19.90625 34.785156 19.957031 34.769531 20.011719 34.761719 C 20.066406 34.753906 20.121094 34.757812 20.171875 34.773438 C 20.222656 34.785156 20.273438 34.808594 20.320312 34.84375 C 20.363281 34.878906 20.40625 34.925781 20.445312 34.980469 L 20.164062 35.113281 C 20.136719 35.078125 20.109375 35.058594 20.074219 35.046875 C 20.042969 35.035156 20.003906 35.039062 19.960938 35.058594 C 19.9375 35.070312 19.921875 35.082031 19.90625 35.101562 C 19.890625 35.117188 19.882812 35.136719 19.878906 35.15625 C 19.875 35.175781 19.871094 35.191406 19.875 35.214844 C 19.875 35.234375 19.882812 35.261719 19.898438 35.296875 C 19.910156 35.332031 19.929688 35.386719 19.960938 35.457031 C 20.003906 35.546875 20.039062 35.605469 20.0625 35.640625 C 20.085938 35.675781 20.113281 35.699219 20.136719 35.710938 C 20.175781 35.734375 20.222656 35.730469 20.269531 35.710938 C 20.3125 35.691406 20.339844 35.664062 20.351562 35.632812 C 20.359375 35.597656 20.363281 35.5625 20.355469 35.523438 Z M 20.640625 35.390625 "/>
<path style=" stroke:none;fill-rule:evenodd;fill:rgb(12.156863%,12.941176%,11.372549%);fill-opacity:1;" d="M 20.046875 13.332031 L 22.65625 9.863281 C 22.78125 9.699219 22.929688 9.535156 22.957031 9.320312 C 23.007812 9.003906 22.753906 8.917969 22.503906 8.988281 C 22.167969 9.085938 22.015625 9.234375 21.625 9.246094 C 21.402344 9.253906 21.265625 9.296875 21.128906 9.472656 C 21.015625 9.621094 20.863281 9.828125 20.808594 10.003906 C 20.753906 10.1875 20.8125 10.347656 20.949219 10.472656 C 20.9375 10.6875 20.757812 11.234375 20.449219 11.101562 C 20.070312 10.945312 19.691406 10.800781 19.300781 10.675781 C 19.136719 10.625 19.140625 10.546875 19.167969 10.378906 C 19.183594 10.277344 19.222656 10.167969 19.269531 10.054688 C 19.585938 10.1875 19.6875 10.167969 19.867188 9.855469 L 20.046875 9.539062 C 20.15625 9.332031 20.167969 9.171875 19.933594 9.054688 C 19.859375 9.007812 19.84375 9 19.863281 8.953125 C 19.929688 8.804688 20.015625 8.660156 20.074219 8.507812 C 20.140625 8.335938 20.140625 8.175781 19.867188 8.066406 C 19.722656 8.011719 19.585938 7.9375 19.441406 7.890625 C 19.148438 7.808594 19.046875 7.929688 18.964844 8.1875 C 18.945312 8.242188 18.921875 8.316406 18.894531 8.382812 C 18.820312 8.550781 18.851562 8.640625 18.710938 8.605469 C 18.417969 8.546875 18.367188 8.722656 18.308594 8.9375 L 18.222656 9.261719 C 18.128906 9.601562 18.226562 9.71875 18.554688 9.785156 C 18.496094 10.050781 18.402344 10.429688 18.042969 10.363281 C 17.632812 10.28125 17.214844 10.234375 16.800781 10.203125 C 16.4375 10.121094 16.386719 9.75 16.382812 9.4375 C 16.738281 9.460938 16.820312 9.34375 16.855469 9.027344 L 16.886719 8.6875 C 16.910156 8.457031 16.960938 8.214844 16.625 8.164062 C 16.566406 8.15625 16.53125 8.171875 16.53125 8.113281 C 16.527344 7.996094 16.539062 7.871094 16.542969 7.753906 L 16.542969 7.75 C 16.542969 7.460938 16.546875 7.371094 16.210938 7.359375 C 16.140625 7.355469 16.070312 7.351562 16 7.351562 C 15.929688 7.351562 15.855469 7.355469 15.785156 7.359375 C 15.449219 7.371094 15.453125 7.460938 15.453125 7.75 L 15.453125 7.753906 C 15.457031 7.871094 15.46875 7.996094 15.464844 8.113281 C 15.464844 8.171875 15.429688 8.15625 15.371094 8.164062 C 15.035156 8.214844 15.089844 8.457031 15.113281 8.6875 L 15.144531 9.027344 C 15.179688 9.34375 15.257812 9.460938 15.617188 9.4375 C 15.613281 9.75 15.5625 10.121094 15.199219 10.203125 C 14.785156 10.234375 14.363281 10.28125 13.953125 10.363281 C 13.59375 10.429688 13.5 10.050781 13.441406 9.785156 C 13.769531 9.71875 13.871094 9.601562 13.773438 9.261719 L 13.6875 8.9375 C 13.628906 8.722656 13.578125 8.546875 13.285156 8.605469 C 13.144531 8.640625 13.175781 8.550781 13.101562 8.382812 C 13.074219 8.316406 13.054688 8.242188 13.035156 8.1875 C 12.953125 7.929688 12.847656 7.808594 12.558594 7.890625 C 12.410156 7.9375 12.273438 8.011719 12.132812 8.066406 C 11.855469 8.175781 11.855469 8.335938 11.921875 8.507812 C 11.980469 8.660156 12.070312 8.804688 12.136719 8.953125 C 12.15625 9 12.140625 9.007812 12.0625 9.054688 C 11.828125 9.171875 11.839844 9.332031 11.949219 9.539062 L 12.132812 9.855469 C 12.308594 10.167969 12.410156 10.1875 12.726562 10.054688 C 12.773438 10.167969 12.8125 10.277344 12.828125 10.378906 C 12.855469 10.546875 12.859375 10.625 12.695312 10.675781 C 12.304688 10.800781 11.925781 10.945312 11.546875 11.101562 C 11.242188 11.234375 11.058594 10.6875 11.046875 10.472656 C 11.183594 10.347656 11.246094 10.1875 11.1875 10.003906 C 11.132812 9.828125 10.980469 9.621094 10.871094 9.472656 C 10.730469 9.296875 10.59375 9.253906 10.375 9.246094 C 9.984375 9.234375 9.828125 9.085938 9.492188 8.988281 C 9.242188 8.917969 8.988281 9.003906 9.039062 9.320312 C 9.070312 9.535156 9.214844 9.699219 9.339844 9.863281 L 11.949219 13.332031 C 14.214844 14.710938 17.785156 14.707031 20.046875 13.332031 Z M 20.046875 13.332031 "/>
<path style=" stroke:none;fill-rule:evenodd;fill:rgb(100%,83.529412%,0%);fill-opacity:1;" d="M 22.519531 9.558594 C 22.535156 9.535156 22.566406 9.496094 22.519531 9.558594 Z M 22.519531 9.558594 "/>
<path style=" stroke:none;fill-rule:evenodd;fill:rgb(100%,83.529412%,0%);fill-opacity:1;" d="M 22.519531 9.558594 C 22.5 9.582031 22.507812 9.574219 22.519531 9.558594 Z M 22.519531 9.558594 "/>
<path style=" stroke:none;fill-rule:evenodd;fill:rgb(100%,83.529412%,0%);fill-opacity:1;" d="M 9.476562 9.558594 C 9.460938 9.535156 9.429688 9.496094 9.476562 9.558594 Z M 9.476562 9.558594 "/>
<path style=" stroke:none;fill-rule:evenodd;fill:rgb(100%,83.529412%,0%);fill-opacity:1;" d="M 9.476562 9.558594 C 9.496094 9.582031 9.488281 9.574219 9.476562 9.558594 Z M 9.476562 9.558594 "/>
<path style=" stroke:none;fill-rule:evenodd;fill:rgb(100%,83.529412%,0%);fill-opacity:1;" d="M 16 7.644531 C 16.28125 7.644531 16.261719 7.628906 16.246094 7.875 C 16.242188 7.957031 16.238281 8.042969 16.242188 8.125 C 16.246094 8.269531 16.324219 8.398438 16.46875 8.433594 C 16.570312 8.460938 16.621094 8.402344 16.605469 8.550781 L 16.601562 8.597656 L 16.5625 8.976562 C 16.550781 9.125 16.527344 9.160156 16.339844 9.144531 C 16.257812 9.140625 16.171875 9.136719 16.089844 9.132812 L 16.085938 9.28125 C 16.074219 9.769531 16.179688 10.453125 16.8125 10.496094 C 17.214844 10.523438 17.617188 10.574219 18.011719 10.652344 C 18.597656 10.765625 18.78125 10.15625 18.867188 9.703125 L 18.894531 9.578125 C 18.816406 9.554688 18.699219 9.535156 18.613281 9.5 C 18.535156 9.464844 18.480469 9.421875 18.507812 9.324219 L 18.605469 8.972656 C 18.636719 8.855469 18.625 8.882812 18.726562 8.902344 C 18.882812 8.933594 18.996094 8.941406 19.082031 8.714844 C 19.105469 8.652344 19.136719 8.566406 19.167969 8.480469 C 19.191406 8.414062 19.214844 8.351562 19.234375 8.296875 C 19.277344 8.167969 19.261719 8.132812 19.414062 8.1875 C 19.527344 8.234375 19.640625 8.289062 19.761719 8.335938 C 19.832031 8.367188 19.777344 8.445312 19.757812 8.492188 C 19.742188 8.535156 19.71875 8.585938 19.691406 8.636719 C 19.640625 8.746094 19.585938 8.867188 19.5625 8.9375 C 19.492188 9.179688 19.589844 9.222656 19.742188 9.285156 C 19.84375 9.324219 19.839844 9.304688 19.792969 9.402344 L 19.609375 9.71875 C 19.539062 9.84375 19.453125 9.824219 19.359375 9.78125 C 19.28125 9.746094 19.203125 9.710938 19.121094 9.683594 L 19.066406 9.804688 C 18.980469 9.980469 18.910156 10.160156 18.882812 10.332031 C 18.832031 10.644531 18.886719 10.851562 19.171875 10.9375 C 19.613281 11.066406 20.042969 11.246094 20.460938 11.425781 L 20.53125 11.4375 C 20.953125 11.398438 21.179688 10.910156 21.230469 10.539062 C 21.265625 10.308594 21.042969 10.25 21.089844 10.089844 C 21.128906 9.957031 21.246094 9.808594 21.328125 9.695312 C 21.421875 9.566406 21.464844 9.542969 21.632812 9.539062 C 22.050781 9.523438 22.230469 9.371094 22.582031 9.269531 C 22.816406 9.199219 22.597656 9.449219 22.53125 9.539062 C 22.527344 9.546875 22.523438 9.554688 22.519531 9.558594 L 19.871094 13.082031 C 18.691406 12.523438 17.378906 12.210938 16 12.210938 C 14.617188 12.210938 13.304688 12.523438 12.128906 13.082031 L 9.476562 9.558594 C 9.472656 9.554688 9.46875 9.546875 9.464844 9.539062 C 9.398438 9.449219 9.183594 9.199219 9.414062 9.269531 C 9.765625 9.371094 9.949219 9.523438 10.367188 9.539062 C 10.53125 9.542969 10.574219 9.566406 10.667969 9.695312 C 10.75 9.808594 10.871094 9.957031 10.910156 10.089844 C 10.953125 10.25 10.730469 10.308594 10.765625 10.539062 C 10.820312 10.910156 11.042969 11.398438 11.464844 11.4375 L 11.535156 11.425781 C 11.953125 11.246094 12.382812 11.066406 12.824219 10.9375 C 13.109375 10.851562 13.164062 10.644531 13.113281 10.332031 C 13.085938 10.160156 13.019531 9.980469 12.933594 9.804688 L 12.875 9.683594 C 12.792969 9.710938 12.714844 9.746094 12.640625 9.78125 C 12.546875 9.824219 12.457031 9.84375 12.386719 9.71875 L 12.207031 9.402344 C 12.160156 9.304688 12.15625 9.324219 12.253906 9.285156 C 12.40625 9.222656 12.507812 9.179688 12.433594 8.9375 C 12.410156 8.867188 12.355469 8.746094 12.304688 8.636719 C 12.277344 8.585938 12.253906 8.535156 12.238281 8.492188 C 12.21875 8.445312 12.167969 8.367188 12.234375 8.335938 C 12.355469 8.289062 12.46875 8.234375 12.585938 8.1875 C 12.734375 8.132812 12.71875 8.167969 12.761719 8.296875 C 12.78125 8.351562 12.804688 8.414062 12.828125 8.480469 C 12.859375 8.566406 12.890625 8.652344 12.914062 8.714844 C 13.003906 8.941406 13.113281 8.933594 13.269531 8.902344 C 13.375 8.882812 13.363281 8.855469 13.394531 8.972656 L 13.492188 9.324219 C 13.515625 9.421875 13.464844 9.464844 13.386719 9.5 C 13.296875 9.535156 13.179688 9.554688 13.101562 9.578125 L 13.128906 9.703125 C 13.214844 10.15625 13.402344 10.765625 13.984375 10.652344 C 14.378906 10.574219 14.785156 10.523438 15.1875 10.496094 C 15.816406 10.453125 15.921875 9.769531 15.910156 9.28125 L 15.90625 9.132812 C 15.824219 9.136719 15.738281 9.140625 15.65625 9.144531 C 15.46875 9.160156 15.445312 9.125 15.433594 8.976562 L 15.394531 8.597656 L 15.390625 8.550781 C 15.375 8.402344 15.425781 8.460938 15.527344 8.433594 C 15.671875 8.398438 15.75 8.269531 15.753906 8.125 C 15.757812 8.042969 15.753906 7.957031 15.75 7.875 C 15.734375 7.628906 15.714844 7.644531 16 7.644531 Z M 16 7.644531 "/>
<path style=" stroke:none;fill-rule:evenodd;fill:rgb(100%,100%,100%);fill-opacity:1;" d="M 16 35.265625 C 20.96875 35.265625 25.023438 31.234375 25.023438 26.289062 C 25.023438 21.347656 20.96875 17.316406 16 17.316406 C 11.027344 17.316406 6.976562 21.347656 6.976562 26.289062 C 6.976562 31.234375 11.027344 35.265625 16 35.265625 Z M 16 35.265625 "/>
<path style=" stroke:none;fill-rule:evenodd;fill:rgb(84.313725%,12.156863%,17.647059%);fill-opacity:1;" d="M 7.574219 28.195312 C 7.441406 27.597656 7.367188 26.980469 7.363281 26.339844 L 10.046875 20.078125 C 10.5 19.644531 11 19.265625 11.542969 18.9375 Z M 7.574219 28.195312 "/>
<path style=" stroke:none;fill-rule:evenodd;fill:rgb(84.313725%,12.156863%,17.647059%);fill-opacity:1;" d="M 8.550781 30.632812 C 8.347656 30.28125 8.164062 29.921875 8.007812 29.542969 L 12.824219 18.300781 C 13.199219 18.15625 13.589844 18.03125 13.988281 17.9375 Z M 8.550781 30.632812 "/>
<path style=" stroke:none;fill-rule:evenodd;fill:rgb(84.313725%,12.156863%,17.647059%);fill-opacity:1;" d="M 24.390625 24.261719 C 24.535156 24.839844 24.617188 25.4375 24.636719 26.054688 L 21.820312 32.625 C 21.371094 33.035156 20.875 33.398438 20.351562 33.703125 Z M 24.390625 24.261719 "/>
<path style=" stroke:none;fill-rule:evenodd;fill:rgb(84.313725%,12.156863%,17.647059%);fill-opacity:1;" d="M 23.398438 21.871094 C 23.609375 22.214844 23.789062 22.566406 23.949219 22.9375 L 19.078125 34.3125 C 18.703125 34.457031 18.316406 34.574219 17.917969 34.667969 Z M 23.398438 21.871094 "/>
<path style=" stroke:none;fill-rule:evenodd;fill:rgb(84.313725%,12.156863%,17.647059%);fill-opacity:1;" d="M 22.089844 20.210938 C 22.335938 20.453125 22.5625 20.707031 22.773438 20.972656 L 16.835938 34.839844 C 16.558594 34.867188 16.28125 34.882812 16 34.882812 C 15.9375 34.882812 15.875 34.878906 15.8125 34.878906 Z M 22.089844 20.210938 "/>
<path style=" stroke:none;fill-rule:evenodd;fill:rgb(84.313725%,12.156863%,17.647059%);fill-opacity:1;" d="M 20.585938 19.019531 C 20.851562 19.1875 21.113281 19.367188 21.359375 19.5625 L 14.835938 34.800781 C 14.519531 34.757812 14.210938 34.699219 13.90625 34.625 Z M 20.585938 19.019531 "/>
<path style=" stroke:none;fill-rule:evenodd;fill:rgb(84.313725%,12.156863%,17.647059%);fill-opacity:1;" d="M 18.914062 18.207031 C 19.207031 18.308594 19.496094 18.433594 19.769531 18.566406 L 13.015625 34.351562 C 12.71875 34.242188 12.4375 34.121094 12.164062 33.980469 Z M 18.914062 18.207031 "/>
<path style=" stroke:none;fill-rule:evenodd;fill:rgb(84.313725%,12.156863%,17.647059%);fill-opacity:1;" d="M 17.085938 17.765625 C 17.402344 17.808594 17.714844 17.867188 18.019531 17.941406 L 11.351562 33.523438 C 11.082031 33.355469 10.824219 33.164062 10.578125 32.96875 Z M 17.085938 17.765625 "/>
<path style=" stroke:none;fill-rule:evenodd;fill:rgb(84.313725%,12.156863%,17.647059%);fill-opacity:1;" d="M 16 17.699219 C 16.035156 17.699219 16.070312 17.699219 16.101562 17.699219 L 9.851562 32.3125 C 9.609375 32.070312 9.382812 31.8125 9.171875 31.542969 L 15.078125 17.746094 C 15.382812 17.714844 15.6875 17.699219 16 17.699219 Z M 16 17.699219 "/>
<path style=" stroke:none;fill-rule:evenodd;fill:rgb(12.156863%,12.941176%,11.372549%);fill-opacity:1;" d="M 8.332031 26.289062 L 16 18.773438 L 23.667969 26.289062 L 16 33.808594 Z M 8.332031 26.289062 "/>
<path style=" stroke:none;fill-rule:evenodd;fill:rgb(100%,100%,100%);fill-opacity:1;" d="M 17.890625 23.519531 L 18.5625 23.519531 C 18.402344 23.722656 18.050781 23.71875 17.890625 23.519531 Z M 17.890625 23.519531 "/>
<path style=" stroke:none;fill-rule:evenodd;fill:rgb(100%,100%,100%);fill-opacity:1;" d="M 16.105469 23.519531 L 16.78125 23.519531 C 16.617188 23.722656 16.269531 23.71875 16.105469 23.519531 Z M 16.105469 23.519531 "/>
<path style=" stroke:none;fill-rule:evenodd;fill:rgb(100%,100%,100%);fill-opacity:1;" d="M 14.328125 23.519531 L 15 23.519531 C 14.835938 23.722656 14.488281 23.71875 14.328125 23.519531 Z M 14.328125 23.519531 "/>
<path style=" stroke:none;fill-rule:evenodd;fill:rgb(100%,100%,100%);fill-opacity:1;" d="M 12.980469 23.660156 L 12.980469 23.519531 L 13.214844 23.519531 C 13.15625 23.589844 13.070312 23.640625 12.980469 23.660156 Z M 12.980469 23.660156 "/>
<path style=" stroke:none;fill-rule:evenodd;fill:rgb(100%,100%,100%);fill-opacity:1;" d="M 15.976562 29.886719 C 15.695312 29.777344 15.410156 29.675781 15.132812 29.554688 L 15.132812 29.523438 C 15.132812 28.976562 15.976562 28.976562 15.976562 29.523438 Z M 15.976562 29.886719 "/>
<path style=" stroke:none;fill-rule:evenodd;fill:rgb(100%,100%,100%);fill-opacity:1;" d="M 17.601562 29.195312 C 17.480469 29.261719 17.367188 29.316406 17.265625 29.371094 C 17.152344 29.425781 17.03125 29.480469 16.914062 29.535156 L 16.914062 29.523438 C 16.914062 29.128906 17.355469 29.019531 17.601562 29.195312 Z M 17.601562 29.195312 "/>
<path style=" stroke:none;fill-rule:evenodd;fill:rgb(100%,100%,100%);fill-opacity:1;" d="M 18.421875 28.699219 C 18.226562 28.84375 18.015625 28.972656 17.804688 29.089844 L 17.804688 28.734375 C 17.804688 28.125 16.867188 28.125 16.867188 28.734375 L 16.867188 29.554688 C 16.613281 29.664062 16.355469 29.757812 16.097656 29.855469 C 16.054688 29.789062 16.023438 29.707031 16.023438 29.605469 L 16.023438 28.734375 C 16.023438 28.125 15.085938 28.125 15.085938 28.734375 L 15.085938 29.535156 C 14.964844 29.480469 14.84375 29.425781 14.734375 29.371094 C 14.585938 29.296875 14.414062 29.210938 14.242188 29.117188 L 14.242188 28.734375 C 14.242188 28.210938 13.546875 28.136719 13.351562 28.511719 C 13.339844 28.5 13.324219 28.488281 13.3125 28.472656 C 13.335938 28.414062 13.351562 28.355469 13.351562 28.277344 L 13.351562 27.410156 C 13.351562 26.863281 14.191406 26.863281 14.191406 27.410156 L 14.191406 28.277344 C 14.191406 28.886719 15.132812 28.886719 15.132812 28.277344 L 15.132812 27.410156 C 15.132812 26.863281 15.976562 26.863281 15.976562 27.410156 L 15.976562 28.277344 C 15.976562 28.886719 16.914062 28.886719 16.914062 28.277344 L 16.914062 27.410156 C 16.914062 26.863281 17.757812 26.863281 17.757812 27.410156 L 17.757812 28.277344 C 17.757812 28.667969 18.144531 28.808594 18.421875 28.699219 Z M 18.421875 28.699219 "/>
<path style=" stroke:none;fill-rule:evenodd;fill:rgb(100%,100%,100%);fill-opacity:1;" d="M 19.019531 27.011719 L 19.019531 27.71875 C 19.019531 28.082031 18.867188 28.3125 18.632812 28.527344 C 18.671875 28.457031 18.695312 28.375 18.695312 28.277344 L 18.695312 27.410156 C 18.695312 27.179688 18.84375 27.046875 19.019531 27.011719 Z M 19.019531 27.011719 "/>
<path style=" stroke:none;fill-rule:evenodd;fill:rgb(100%,100%,100%);fill-opacity:1;" d="M 19.019531 24.894531 L 19.019531 26.175781 C 18.820312 26.214844 18.644531 26.359375 18.644531 26.621094 L 18.644531 27.492188 C 18.644531 28.035156 17.804688 28.035156 17.804688 27.492188 L 17.804688 26.621094 C 17.804688 26.011719 16.867188 26.011719 16.867188 26.621094 L 16.867188 27.492188 C 16.867188 28.035156 16.023438 28.035156 16.023438 27.492188 L 16.023438 26.621094 C 16.023438 26.011719 15.085938 26.011719 15.085938 26.621094 L 15.085938 27.492188 C 15.085938 28.035156 14.242188 28.035156 14.242188 27.492188 L 14.242188 26.621094 C 14.242188 26.011719 13.300781 26.011719 13.300781 26.621094 L 13.300781 27.492188 C 13.300781 27.714844 13.15625 27.84375 12.992188 27.882812 C 12.984375 27.832031 12.980469 27.777344 12.980469 27.71875 L 12.980469 26.609375 C 13.175781 26.570312 13.351562 26.425781 13.351562 26.164062 L 13.351562 25.292969 C 13.351562 24.75 14.191406 24.75 14.191406 25.292969 L 14.191406 26.164062 C 14.191406 26.769531 15.132812 26.769531 15.132812 26.164062 L 15.132812 25.292969 C 15.132812 24.75 15.976562 24.75 15.976562 25.292969 L 15.976562 26.164062 C 15.976562 26.769531 16.914062 26.769531 16.914062 26.164062 L 16.914062 25.292969 C 16.914062 24.75 17.757812 24.75 17.757812 25.292969 L 17.757812 26.164062 C 17.757812 26.769531 18.695312 26.769531 18.695312 26.164062 L 18.695312 25.292969 C 18.695312 25.066406 18.84375 24.933594 19.019531 24.894531 Z M 19.019531 24.894531 "/>
<path style=" stroke:none;fill-rule:evenodd;fill:rgb(100%,100%,100%);fill-opacity:1;" d="M 19.019531 23.519531 L 19.019531 24.0625 C 18.820312 24.09375 18.644531 24.246094 18.644531 24.507812 L 18.644531 25.375 C 18.644531 25.921875 17.804688 25.921875 17.804688 25.375 L 17.804688 24.507812 C 17.804688 23.894531 16.867188 23.894531 16.867188 24.507812 L 16.867188 25.375 C 16.867188 25.921875 16.023438 25.921875 16.023438 25.375 L 16.023438 24.507812 C 16.023438 23.894531 15.085938 23.894531 15.085938 24.507812 L 15.085938 25.375 C 15.085938 25.921875 14.242188 25.921875 14.242188 25.375 L 14.242188 24.507812 C 14.242188 23.894531 13.300781 23.894531 13.300781 24.507812 L 13.300781 25.375 C 13.300781 25.605469 13.152344 25.734375 12.980469 25.773438 L 12.980469 24.496094 C 13.175781 24.457031 13.351562 24.308594 13.351562 24.050781 L 13.351562 23.519531 L 14.191406 23.519531 L 14.191406 24.050781 C 14.191406 24.65625 15.132812 24.65625 15.132812 24.050781 L 15.132812 23.519531 L 15.976562 23.519531 L 15.976562 24.050781 C 15.976562 24.65625 16.914062 24.65625 16.914062 24.050781 L 16.914062 23.519531 L 17.757812 23.519531 L 17.757812 24.050781 C 17.757812 24.65625 18.695312 24.65625 18.695312 24.050781 L 18.695312 23.519531 Z M 19.019531 23.519531 "/>
<path style=" stroke:none;fill-rule:evenodd;fill:rgb(100%,83.529412%,0%);fill-opacity:1;" d="M 21.828125 24.871094 L 23.273438 26.289062 L 21.828125 27.707031 Z M 21.828125 24.871094 "/>
<path style=" stroke:none;fill-rule:evenodd;fill:rgb(100%,83.529412%,0%);fill-opacity:1;" d="M 18.496094 21.609375 L 20.160156 23.238281 L 20.160156 29.339844 L 18.496094 30.972656 L 18.496094 28.804688 C 18.5 28.800781 18.503906 28.796875 18.507812 28.792969 C 18.894531 28.5 19.144531 28.21875 19.144531 27.714844 L 19.144531 23.390625 L 18.496094 23.390625 Z M 18.496094 21.609375 "/>
<path style=" stroke:none;fill-rule:evenodd;fill:rgb(100%,83.529412%,0%);fill-opacity:1;" d="M 16.832031 29.703125 L 16.832031 32.609375 L 16 33.421875 L 15.167969 32.609375 L 15.167969 29.703125 C 15.445312 29.816406 15.722656 29.917969 16 30.03125 C 16.273438 29.917969 16.550781 29.816406 16.832031 29.703125 Z M 16.832031 29.703125 "/>
<path style=" stroke:none;fill-rule:evenodd;fill:rgb(100%,83.529412%,0%);fill-opacity:1;" d="M 15.167969 19.976562 L 16 19.160156 L 16.832031 19.976562 L 16.832031 23.390625 L 15.167969 23.390625 Z M 15.167969 19.976562 "/>
<path style=" stroke:none;fill-rule:evenodd;fill:rgb(100%,83.529412%,0%);fill-opacity:1;" d="M 11.835938 23.238281 L 13.5 21.609375 L 13.5 23.390625 L 12.851562 23.390625 L 12.851562 27.714844 C 12.851562 28.21875 13.101562 28.5 13.492188 28.792969 C 13.496094 28.796875 13.5 28.800781 13.5 28.804688 L 13.5 30.972656 L 11.835938 29.339844 Z M 11.835938 23.238281 "/>
<path style=" stroke:none;fill-rule:evenodd;fill:rgb(100%,83.529412%,0%);fill-opacity:1;" d="M 8.726562 26.289062 L 10.167969 24.871094 L 10.167969 27.707031 Z M 8.726562 26.289062 "/>
<path style=" stroke:none;fill-rule:evenodd;fill:rgb(84.313725%,12.156863%,17.647059%);fill-opacity:1;" d="M 20.160156 23.238281 L 21.828125 24.871094 L 21.828125 27.707031 L 20.160156 29.339844 Z M 20.160156 23.238281 "/>
<path style=" stroke:none;fill-rule:evenodd;fill:rgb(84.313725%,12.156863%,17.647059%);fill-opacity:1;" d="M 18.496094 28.804688 L 18.496094 30.972656 L 16.832031 32.609375 L 16.832031 29.703125 C 16.996094 29.640625 17.164062 29.566406 17.328125 29.484375 C 17.65625 29.316406 18.121094 29.085938 18.496094 28.804688 Z M 18.496094 28.804688 "/>
<path style=" stroke:none;fill-rule:evenodd;fill:rgb(84.313725%,12.156863%,17.647059%);fill-opacity:1;" d="M 16.832031 19.976562 L 18.496094 21.609375 L 18.496094 23.390625 L 16.832031 23.390625 Z M 16.832031 19.976562 "/>
<path style=" stroke:none;fill-rule:evenodd;fill:rgb(84.313725%,12.156863%,17.647059%);fill-opacity:1;" d="M 15.167969 29.703125 L 15.167969 32.609375 L 13.5 30.972656 L 13.5 28.804688 C 13.878906 29.085938 14.34375 29.316406 14.671875 29.484375 C 14.832031 29.566406 15 29.640625 15.167969 29.703125 Z M 15.167969 29.703125 "/>
<path style=" stroke:none;fill-rule:evenodd;fill:rgb(84.313725%,12.156863%,17.647059%);fill-opacity:1;" d="M 13.5 21.609375 L 15.167969 19.976562 L 15.167969 23.390625 L 13.5 23.390625 Z M 13.5 21.609375 "/>
<path style=" stroke:none;fill-rule:evenodd;fill:rgb(84.313725%,12.156863%,17.647059%);fill-opacity:1;" d="M 10.167969 24.871094 L 11.835938 23.238281 L 11.835938 29.339844 L 10.167969 27.707031 Z M 10.167969 24.871094 "/>
</g>
</svg>
