<?xml version="1.0" encoding="UTF-8"?>
<svg xmlns="http://www.w3.org/2000/svg" xmlns:xlink="http://www.w3.org/1999/xlink" width="32px" height="32px" viewBox="0 0 32 32" version="1.1">
<g id="surface1">
<rect x="0" y="0" width="32" height="32" style="fill:rgb(100%,100%,100%);fill-opacity:1;stroke:none;"/>
<path style=" stroke:none;fill-rule:evenodd;fill:rgb(67.45098%,60.784314%,16.862745%);fill-opacity:1;" d="M 30.417969 9.234375 C 30.152344 7.011719 29.167969 4.203125 27.84375 2.421875 C 23.222656 4.316406 20.507812 4.386719 16 2.683594 C 11.492188 4.386719 8.777344 4.316406 4.15625 2.421875 C 2.832031 4.203125 1.847656 7.011719 1.578125 9.234375 C 1.480469 10.085938 1.421875 10.734375 1.410156 11.3125 L 1.410156 11.800781 C 1.425781 12.527344 1.515625 13.214844 1.660156 14.1875 C 2.238281 17.945312 5.234375 21.589844 7.203125 22.929688 C 11.363281 25.746094 12.699219 23.824219 16 29.578125 C 19.300781 23.824219 20.636719 25.746094 24.792969 22.929688 C 26.765625 21.589844 29.761719 17.945312 30.335938 14.1875 C 30.484375 13.214844 30.570312 12.53125 30.589844 11.804688 L 30.589844 11.3125 C 30.578125 10.734375 30.519531 10.089844 30.417969 9.234375 Z M 30.417969 9.234375 "/>
<path style=" stroke:none;fill-rule:evenodd;fill:rgb(100%,100%,100%);fill-opacity:1;" d="M 21.753906 23.414062 C 22.140625 23.253906 22.519531 23.082031 22.894531 22.894531 L 23.53125 22.539062 C 23.820312 22.359375 24.109375 22.179688 24.390625 21.984375 C 24.859375 21.632812 25.273438 21.246094 25.6875 20.828125 C 26.03125 20.460938 26.363281 20.078125 26.679688 19.679688 C 27.015625 19.246094 27.328125 18.800781 27.628906 18.335938 C 27.863281 17.949219 28.085938 17.554688 28.292969 17.15625 C 28.492188 16.75 28.671875 16.339844 28.835938 15.921875 C 28.949219 15.609375 29.050781 15.296875 29.140625 14.976562 C 29.234375 14.609375 29.308594 14.234375 29.367188 13.859375 C 29.464844 13.210938 29.550781 12.570312 29.578125 11.921875 C 29.605469 10.996094 29.511719 10.074219 29.394531 9.160156 C 29.292969 8.457031 29.136719 7.765625 28.9375 7.085938 C 28.851562 6.796875 28.761719 6.507812 28.660156 6.222656 C 28.339844 5.339844 27.960938 4.457031 27.464844 3.65625 C 26.507812 4.027344 25.53125 4.332031 24.535156 4.570312 C 24.15625 4.652344 23.777344 4.71875 23.394531 4.78125 C 23.019531 4.832031 22.652344 4.867188 22.273438 4.894531 C 21.898438 4.90625 21.53125 4.90625 21.15625 4.898438 C 20.78125 4.878906 20.40625 4.847656 20.035156 4.804688 C 19.652344 4.75 19.273438 4.683594 18.894531 4.609375 L 18.117188 4.425781 C 17.402344 4.226562 16.695312 4.011719 16 3.753906 C 15.054688 4.101562 14.089844 4.386719 13.105469 4.609375 C 12.726562 4.683594 12.347656 4.746094 11.964844 4.804688 C 11.589844 4.847656 11.21875 4.878906 10.84375 4.898438 C 10.472656 4.90625 10.097656 4.90625 9.726562 4.894531 C 9.351562 4.867188 8.976562 4.832031 8.605469 4.78125 C 8.222656 4.722656 7.839844 4.648438 7.464844 4.570312 C 6.46875 4.332031 5.492188 4.027344 4.535156 3.65625 L 4.429688 3.835938 C 3.65625 5.183594 3.128906 6.636719 2.785156 8.144531 C 2.714844 8.480469 2.652344 8.820312 2.605469 9.160156 C 2.496094 9.992188 2.410156 10.832031 2.417969 11.675781 C 2.429688 12.570312 2.558594 13.464844 2.710938 14.347656 C 2.777344 14.664062 2.859375 14.980469 2.949219 15.292969 C 3.050781 15.609375 3.160156 15.921875 3.28125 16.230469 C 3.503906 16.75 3.753906 17.257812 4.027344 17.753906 C 4.195312 18.046875 4.371094 18.332031 4.554688 18.617188 C 4.96875 19.238281 5.425781 19.832031 5.917969 20.394531 L 6.3125 20.828125 C 6.769531 21.292969 7.238281 21.71875 7.773438 22.097656 C 8.105469 22.316406 8.449219 22.527344 8.792969 22.726562 C 9.179688 22.933594 9.574219 23.125 9.972656 23.300781 C 10.761719 23.625 11.570312 23.890625 12.351562 24.238281 L 12.890625 24.519531 C 13.171875 24.6875 13.449219 24.867188 13.714844 25.0625 L 14.261719 25.535156 L 14.816406 26.101562 C 15.242188 26.597656 15.636719 27.113281 16 27.660156 C 16.433594 26.996094 16.921875 26.386719 17.460938 25.804688 L 18.011719 25.285156 L 18.5625 24.863281 C 18.832031 24.683594 19.09375 24.523438 19.378906 24.375 L 19.914062 24.121094 C 20.523438 23.867188 21.140625 23.652344 21.753906 23.414062 Z M 21.753906 23.414062 "/>
<path style=" stroke:none;fill-rule:evenodd;fill:rgb(80.392157%,20.784314%,16.078431%);fill-opacity:1;" d="M 20.113281 4.8125 L 16.828125 11.152344 L 18.75 10.746094 L 15.664062 16.179688 L 15.054688 14.59375 L 11.503906 21.449219 L 10.371094 20.832031 L 11.089844 23.28125 L 13.539062 22.566406 L 12.410156 21.945312 L 14.933594 17.53125 L 15.441406 19.53125 L 22.011719 9.015625 L 19.28125 9.527344 L 22.074219 4.898438 C 21.769531 4.90625 21.464844 4.90625 21.15625 4.898438 C 20.808594 4.882812 20.460938 4.851562 20.113281 4.8125 Z M 20.113281 4.8125 "/>
<path style=" stroke:none;fill-rule:evenodd;fill:rgb(0%,0%,0%);fill-opacity:1;" d="M 26.949219 9.753906 C 26.929688 9.734375 26.890625 9.710938 26.832031 9.679688 C 26.777344 9.644531 26.726562 9.605469 26.683594 9.558594 C 26.632812 9.511719 26.589844 9.445312 26.554688 9.359375 C 26.480469 9.167969 26.398438 8.980469 26.3125 8.796875 C 26.230469 8.617188 26.132812 8.441406 26.027344 8.273438 C 25.917969 8.101562 25.792969 7.941406 25.65625 7.796875 C 25.980469 7.648438 26.226562 7.46875 26.382812 7.257812 C 26.535156 7.054688 26.621094 6.804688 26.617188 6.546875 C 26.601562 6.382812 26.546875 6.222656 26.453125 6.070312 C 26.355469 5.917969 26.203125 5.789062 25.996094 5.691406 C 25.785156 5.589844 25.515625 5.539062 25.191406 5.539062 L 22.746094 5.539062 C 22.539062 5.539062 22.4375 5.613281 22.4375 5.757812 C 22.4375 5.8125 22.449219 5.851562 22.472656 5.871094 C 22.496094 5.890625 22.539062 5.917969 22.59375 5.945312 C 22.652344 5.976562 22.695312 6.003906 22.726562 6.042969 C 22.753906 6.078125 22.769531 6.132812 22.769531 6.210938 L 22.769531 9.382812 C 22.769531 9.453125 22.753906 9.503906 22.726562 9.535156 C 22.699219 9.570312 22.65625 9.601562 22.597656 9.628906 C 22.542969 9.65625 22.5 9.683594 22.476562 9.714844 C 22.449219 9.738281 22.4375 9.78125 22.4375 9.835938 C 22.4375 9.90625 22.464844 9.960938 22.523438 9.992188 C 22.582031 10.023438 22.644531 10.039062 22.71875 10.039062 L 23.949219 10.039062 C 24.023438 10.039062 24.09375 10.023438 24.160156 9.996094 C 24.222656 9.96875 24.257812 9.914062 24.257812 9.835938 C 24.257812 9.777344 24.246094 9.734375 24.21875 9.710938 C 24.179688 9.679688 24.140625 9.652344 24.09375 9.632812 C 24.039062 9.609375 23.996094 9.574219 23.96875 9.539062 C 23.941406 9.503906 23.925781 9.449219 23.925781 9.371094 L 23.925781 8.164062 L 24.546875 8.070312 C 24.582031 8.113281 24.617188 8.15625 24.65625 8.207031 C 24.75 8.328125 24.851562 8.480469 24.960938 8.664062 C 25.117188 8.921875 25.226562 9.152344 25.289062 9.359375 C 25.304688 9.402344 25.308594 9.449219 25.308594 9.5 C 25.308594 9.539062 25.296875 9.574219 25.277344 9.597656 C 25.246094 9.628906 25.214844 9.65625 25.179688 9.675781 C 25.132812 9.703125 25.097656 9.730469 25.078125 9.753906 C 25.054688 9.773438 25.042969 9.808594 25.042969 9.847656 C 25.050781 9.976562 25.144531 10.039062 25.320312 10.039062 L 26.710938 10.039062 C 26.78125 10.039062 26.84375 10.027344 26.898438 10 C 26.953125 9.972656 26.984375 9.925781 26.984375 9.863281 C 26.984375 9.8125 26.972656 9.777344 26.949219 9.753906 Z M 25.148438 7.277344 C 25.011719 7.40625 24.847656 7.5 24.65625 7.5625 C 24.628906 7.574219 24.601562 7.582031 24.574219 7.589844 C 24.347656 7.65625 24.128906 7.6875 23.925781 7.6875 L 23.925781 6.339844 C 23.925781 6.210938 23.972656 6.117188 24.066406 6.0625 C 24.15625 6.011719 24.292969 5.980469 24.464844 5.972656 C 24.535156 5.972656 24.597656 5.976562 24.65625 5.984375 C 24.871094 6.007812 25.035156 6.074219 25.152344 6.1875 C 25.300781 6.328125 25.378906 6.507812 25.386719 6.730469 C 25.386719 6.949219 25.304688 7.132812 25.148438 7.277344 Z M 23.945312 15.746094 C 24.035156 15.585938 24.144531 15.367188 24.28125 15.089844 C 24.421875 14.792969 24.554688 14.496094 24.683594 14.199219 C 24.820312 13.882812 24.933594 13.59375 25.023438 13.339844 C 25.105469 13.085938 25.152344 12.898438 25.152344 12.785156 C 25.152344 12.703125 25.128906 12.636719 25.085938 12.59375 C 25.039062 12.550781 24.972656 12.507812 24.886719 12.46875 C 24.800781 12.433594 24.738281 12.398438 24.703125 12.371094 C 24.667969 12.339844 24.648438 12.296875 24.648438 12.234375 C 24.648438 12.105469 24.753906 12.042969 24.972656 12.042969 L 25.921875 12.042969 C 26.15625 12.042969 26.277344 12.105469 26.277344 12.234375 C 26.273438 12.308594 26.246094 12.367188 26.199219 12.40625 C 26.148438 12.445312 26.089844 12.488281 26.027344 12.535156 C 25.964844 12.578125 25.925781 12.632812 25.90625 12.703125 C 25.867188 12.855469 25.78125 13.09375 25.648438 13.417969 C 25.511719 13.742188 25.355469 14.09375 25.179688 14.476562 C 25.019531 14.824219 24.851562 15.171875 24.675781 15.515625 C 24.519531 15.828125 24.402344 16.050781 24.324219 16.175781 C 24.246094 16.304688 24.175781 16.402344 24.121094 16.460938 C 24.070312 16.515625 24.003906 16.5625 23.925781 16.585938 C 23.847656 16.609375 23.738281 16.625 23.601562 16.625 C 23.457031 16.625 23.351562 16.617188 23.289062 16.613281 C 23.226562 16.601562 23.167969 16.578125 23.117188 16.535156 C 23.0625 16.496094 23 16.429688 22.925781 16.335938 C 22.707031 16.058594 22.507812 15.761719 22.339844 15.449219 C 22.171875 15.144531 22.019531 14.832031 21.886719 14.511719 C 21.761719 14.207031 21.644531 13.902344 21.535156 13.59375 C 21.429688 13.292969 21.324219 12.984375 21.210938 12.664062 C 21.183594 12.582031 21.144531 12.523438 21.089844 12.484375 C 21.039062 12.449219 20.996094 12.414062 20.953125 12.382812 C 20.914062 12.351562 20.890625 12.304688 20.886719 12.257812 C 20.886719 12.113281 21.039062 12.042969 21.339844 12.042969 L 22.566406 12.042969 C 22.84375 12.042969 22.984375 12.105469 22.984375 12.234375 C 22.984375 12.285156 22.96875 12.328125 22.933594 12.355469 C 22.882812 12.394531 22.832031 12.425781 22.773438 12.453125 C 22.703125 12.484375 22.652344 12.519531 22.617188 12.550781 C 22.585938 12.582031 22.566406 12.632812 22.566406 12.6875 C 22.578125 12.886719 22.636719 13.121094 22.738281 13.390625 C 22.847656 13.667969 22.96875 13.941406 23.105469 14.207031 C 23.257812 14.507812 23.417969 14.808594 23.585938 15.105469 C 23.769531 15.429688 23.890625 15.640625 23.945312 15.746094 Z M 17.414062 19.359375 L 17.414062 21.964844 C 17.414062 22.070312 17.433594 22.152344 17.46875 22.203125 C 17.507812 22.253906 17.558594 22.292969 17.632812 22.328125 C 17.703125 22.359375 17.753906 22.390625 17.785156 22.417969 C 17.816406 22.441406 17.835938 22.488281 17.835938 22.554688 C 17.835938 22.621094 17.808594 22.667969 17.757812 22.699219 C 17.703125 22.730469 17.640625 22.746094 17.578125 22.742188 L 16.746094 22.742188 C 16.570312 22.742188 16.484375 22.675781 16.484375 22.542969 C 16.484375 22.464844 16.535156 22.402344 16.632812 22.351562 C 16.738281 22.300781 16.808594 22.257812 16.847656 22.222656 C 16.886719 22.191406 16.90625 22.101562 16.90625 21.964844 L 16.90625 19.027344 C 16.90625 18.890625 16.886719 18.804688 16.84375 18.773438 C 16.800781 18.742188 16.722656 18.699219 16.601562 18.648438 C 16.484375 18.59375 16.425781 18.527344 16.425781 18.445312 C 16.425781 18.3125 16.511719 18.246094 16.683594 18.246094 L 17.953125 18.246094 C 18.066406 18.246094 18.140625 18.269531 18.179688 18.320312 C 18.222656 18.367188 18.273438 18.46875 18.328125 18.625 L 19.1875 20.882812 L 20.070312 18.699219 C 20.140625 18.519531 20.195312 18.398438 20.238281 18.339844 C 20.28125 18.277344 20.359375 18.246094 20.460938 18.246094 L 21.648438 18.246094 C 21.78125 18.246094 21.847656 18.3125 21.847656 18.433594 C 21.847656 18.507812 21.828125 18.558594 21.796875 18.585938 C 21.765625 18.613281 21.714844 18.640625 21.648438 18.664062 C 21.578125 18.683594 21.523438 18.714844 21.492188 18.75 C 21.453125 18.785156 21.4375 18.84375 21.4375 18.925781 L 21.4375 22.117188 C 21.4375 22.171875 21.449219 22.21875 21.476562 22.246094 C 21.503906 22.277344 21.546875 22.308594 21.597656 22.332031 C 21.648438 22.359375 21.691406 22.386719 21.722656 22.414062 C 21.75 22.441406 21.761719 22.484375 21.769531 22.542969 C 21.769531 22.675781 21.65625 22.746094 21.4375 22.746094 L 20.285156 22.746094 C 20.222656 22.746094 20.164062 22.726562 20.109375 22.691406 C 20.054688 22.660156 20.023438 22.601562 20.027344 22.542969 C 20.027344 22.484375 20.039062 22.445312 20.0625 22.417969 C 20.089844 22.390625 20.128906 22.363281 20.179688 22.339844 C 20.234375 22.308594 20.273438 22.28125 20.300781 22.25 C 20.328125 22.21875 20.339844 22.167969 20.339844 22.105469 L 20.339844 19.296875 L 19.292969 21.925781 C 19.273438 21.996094 19.238281 22.054688 19.1875 22.089844 C 19.136719 22.128906 19.042969 22.152344 18.90625 22.152344 C 18.769531 22.152344 18.671875 22.136719 18.617188 22.101562 C 18.566406 22.0625 18.519531 22.003906 18.484375 21.925781 Z M 17.414062 19.359375 "/>
<path style=" stroke:none;fill-rule:evenodd;fill:rgb(34.509804%,54.509804%,37.647059%);fill-opacity:1;" d="M 12.121094 13.480469 C 12.121094 13.285156 12.320312 13.070312 12.554688 12.960938 C 12.792969 12.847656 13.070312 12.613281 13.15625 12.390625 C 13.238281 12.171875 13.113281 11.871094 13.09375 11.664062 C 13.066406 11.945312 12.925781 12.324219 12.65625 12.511719 C 12.386719 12.699219 12.121094 12.941406 12.121094 13.097656 L 12.121094 12.609375 C 12.121094 12.410156 12.285156 12.3125 12.410156 12.203125 C 12.539062 12.09375 12.699219 11.960938 12.800781 11.847656 C 12.898438 11.730469 12.988281 11.585938 12.992188 11.378906 C 12.996094 11.175781 12.792969 10.851562 12.800781 10.761719 C 12.71875 11.023438 12.757812 11.3125 12.625 11.523438 C 12.496094 11.738281 12.121094 11.902344 12.121094 12.078125 L 12.121094 11.328125 C 12.121094 11.144531 12.347656 11.003906 12.496094 10.84375 C 12.648438 10.683594 12.855469 10.574219 12.960938 10.324219 C 13.066406 10.074219 12.929688 9.753906 12.824219 9.5625 C 12.777344 9.796875 12.792969 10.183594 12.5625 10.332031 C 12.335938 10.476562 12.121094 10.667969 12.121094 10.898438 L 12.121094 10.324219 C 12.125 10.054688 12.386719 9.773438 12.65625 9.539062 C 12.925781 9.308594 12.957031 9.089844 12.949219 8.902344 C 12.9375 8.710938 12.832031 8.550781 12.761719 8.363281 C 12.6875 8.609375 12.71875 8.882812 12.632812 9.046875 C 12.542969 9.214844 12.46875 9.265625 12.367188 9.371094 C 12.269531 9.480469 12.121094 9.660156 12.121094 9.761719 L 12.121094 9.652344 C 12.121094 9.527344 12.121094 9.390625 12.144531 9.265625 C 12.179688 9.089844 12.253906 8.925781 12.25 8.773438 C 12.246094 8.472656 12.050781 8.253906 12.054688 7.957031 C 12.058594 7.664062 12.160156 7.398438 12.234375 7.09375 C 11.785156 7.417969 11.53125 7.722656 11.570312 8.226562 C 11.617188 8.738281 12.078125 9.019531 12.035156 9.742188 L 12.035156 9.878906 C 12.035156 9.710938 11.859375 9.511719 11.582031 9.324219 C 11.535156 9.292969 11.492188 9.253906 11.453125 9.207031 C 11.277344 8.996094 11.222656 8.660156 11.246094 8.402344 C 11.117188 8.550781 10.960938 8.863281 11.070312 9.195312 C 11.171875 9.480469 11.308594 9.546875 11.453125 9.671875 C 11.476562 9.691406 11.503906 9.710938 11.523438 9.738281 C 11.699219 9.914062 12.035156 10.199219 12.035156 10.417969 L 12.035156 10.941406 C 12.035156 10.84375 11.949219 10.792969 11.828125 10.699219 C 11.675781 10.585938 11.574219 10.503906 11.453125 10.386719 C 11.441406 10.375 11.429688 10.363281 11.414062 10.347656 C 11.277344 10.210938 11.152344 9.992188 11.121094 9.613281 C 11.046875 9.695312 10.886719 10.066406 11.066406 10.40625 C 11.140625 10.542969 11.257812 10.652344 11.453125 10.804688 C 11.476562 10.824219 11.5 10.84375 11.523438 10.863281 C 11.746094 11.039062 12.019531 11.328125 12.03125 11.507812 L 12.03125 12.160156 C 12.03125 11.996094 11.84375 11.925781 11.738281 11.800781 C 11.652344 11.695312 11.535156 11.597656 11.453125 11.46875 C 11.4375 11.445312 11.421875 11.417969 11.40625 11.390625 C 11.328125 11.226562 11.332031 11.015625 11.285156 10.824219 C 11.207031 10.996094 11.070312 11.1875 11.097656 11.40625 C 11.121094 11.625 11.214844 11.765625 11.445312 11.976562 C 11.449219 11.976562 11.453125 11.980469 11.453125 11.980469 C 11.683594 12.191406 12.035156 12.472656 12.035156 12.753906 L 12.035156 13.285156 C 12.035156 13.152344 11.898438 12.875 11.753906 12.746094 C 11.671875 12.671875 11.5625 12.609375 11.453125 12.539062 C 11.367188 12.476562 11.28125 12.410156 11.214844 12.328125 C 11.066406 12.148438 11.027344 11.949219 10.941406 11.746094 C 10.789062 12.226562 10.878906 12.714844 11.371094 12.855469 C 11.398438 12.863281 11.425781 12.871094 11.453125 12.886719 C 11.660156 12.988281 11.890625 13.246094 12.035156 13.511719 L 12.035156 13.824219 C 12.03125 14.003906 11.992188 14.179688 11.917969 14.34375 C 11.804688 14.152344 11.722656 13.898438 11.578125 13.746094 C 11.539062 13.707031 11.5 13.667969 11.453125 13.632812 C 11.339844 13.539062 11.210938 13.46875 11.105469 13.34375 C 10.964844 13.171875 10.933594 12.945312 10.828125 12.734375 C 10.824219 12.941406 10.734375 13.121094 10.765625 13.320312 C 10.796875 13.519531 10.972656 13.8125 11.238281 13.875 C 11.316406 13.894531 11.386719 13.933594 11.453125 13.984375 C 11.609375 14.105469 11.746094 14.289062 11.878906 14.414062 C 11.777344 14.609375 11.628906 14.789062 11.453125 14.941406 C 11.0625 15.289062 10.546875 15.511719 10.175781 15.539062 C 9.34375 15.605469 8.707031 15.527344 8.105469 15.667969 C 7.507812 15.527344 6.871094 15.605469 6.042969 15.539062 C 5.664062 15.511719 5.148438 15.289062 4.757812 14.941406 C 4.585938 14.789062 4.4375 14.609375 4.332031 14.414062 C 4.464844 14.289062 4.601562 14.105469 4.757812 13.984375 C 4.828125 13.933594 4.898438 13.894531 4.972656 13.875 C 5.242188 13.8125 5.417969 13.519531 5.449219 13.320312 C 5.480469 13.121094 5.390625 12.941406 5.386719 12.734375 C 5.28125 12.945312 5.25 13.171875 5.105469 13.34375 C 5.003906 13.46875 4.878906 13.539062 4.757812 13.632812 C 4.714844 13.667969 4.671875 13.707031 4.632812 13.746094 C 4.492188 13.898438 4.40625 14.152344 4.296875 14.34375 C 4.21875 14.179688 4.179688 14.003906 4.179688 13.824219 L 4.179688 13.511719 C 4.320312 13.246094 4.550781 12.988281 4.757812 12.886719 C 4.785156 12.871094 4.816406 12.863281 4.839844 12.855469 C 5.335938 12.714844 5.421875 12.226562 5.273438 11.746094 C 5.191406 11.949219 5.148438 12.148438 5 12.328125 C 4.929688 12.410156 4.847656 12.476562 4.757812 12.539062 C 4.648438 12.609375 4.539062 12.671875 4.460938 12.746094 C 4.3125 12.875 4.179688 13.152344 4.179688 13.285156 L 4.179688 12.753906 C 4.179688 12.472656 4.527344 12.191406 4.757812 11.980469 C 4.761719 11.980469 4.765625 11.976562 4.765625 11.976562 C 5 11.765625 5.089844 11.625 5.117188 11.40625 C 5.140625 11.1875 5.007812 10.996094 4.925781 10.824219 C 4.878906 11.015625 4.886719 11.226562 4.804688 11.390625 C 4.792969 11.417969 4.777344 11.445312 4.757812 11.46875 C 4.675781 11.597656 4.558594 11.695312 4.472656 11.800781 C 4.371094 11.925781 4.179688 11.996094 4.179688 12.160156 L 4.179688 11.507812 C 4.191406 11.328125 4.464844 11.039062 4.691406 10.863281 C 4.710938 10.84375 4.734375 10.824219 4.757812 10.804688 C 4.953125 10.652344 5.078125 10.542969 5.148438 10.40625 C 5.324219 10.066406 5.164062 9.695312 5.09375 9.613281 C 5.0625 9.992188 4.933594 10.210938 4.796875 10.347656 L 4.757812 10.386719 C 4.640625 10.503906 4.535156 10.585938 4.386719 10.699219 C 4.265625 10.792969 4.179688 10.84375 4.179688 10.941406 L 4.179688 10.417969 C 4.179688 10.199219 4.511719 9.914062 4.6875 9.738281 C 4.710938 9.710938 4.734375 9.691406 4.757812 9.671875 C 4.90625 9.546875 5.046875 9.480469 5.140625 9.195312 C 5.253906 8.863281 5.097656 8.550781 4.96875 8.402344 C 4.996094 8.660156 4.9375 8.996094 4.757812 9.207031 C 4.722656 9.253906 4.679688 9.292969 4.628906 9.324219 C 4.351562 9.511719 4.179688 9.710938 4.179688 9.878906 L 4.179688 9.742188 C 4.132812 9.019531 4.59375 8.734375 4.640625 8.226562 C 4.683594 7.722656 4.425781 7.417969 3.980469 7.09375 C 4.050781 7.398438 4.152344 7.664062 4.160156 7.957031 C 4.164062 8.253906 3.964844 8.472656 3.960938 8.773438 C 3.960938 8.925781 4.039062 9.089844 4.070312 9.265625 C 4.089844 9.390625 4.09375 9.527344 4.09375 9.652344 L 4.089844 9.65625 L 4.089844 9.761719 C 4.089844 9.660156 3.945312 9.480469 3.84375 9.371094 C 3.746094 9.265625 3.667969 9.214844 3.582031 9.046875 C 3.496094 8.882812 3.523438 8.609375 3.457031 8.363281 C 3.382812 8.550781 3.273438 8.710938 3.265625 8.902344 C 3.257812 9.089844 3.289062 9.308594 3.558594 9.539062 C 3.824219 9.773438 4.089844 10.054688 4.089844 10.324219 L 4.089844 10.898438 C 4.089844 10.667969 3.878906 10.476562 3.648438 10.332031 C 3.421875 10.183594 3.433594 9.796875 3.386719 9.5625 C 3.28125 9.753906 3.144531 10.074219 3.25 10.324219 C 3.355469 10.574219 3.566406 10.683594 3.714844 10.84375 C 3.867188 11.003906 4.089844 11.144531 4.089844 11.328125 L 4.089844 12.078125 C 4.089844 11.902344 3.714844 11.738281 3.585938 11.523438 C 3.457031 11.3125 3.492188 11.023438 3.414062 10.761719 C 3.421875 10.851562 3.21875 11.175781 3.222656 11.378906 C 3.226562 11.585938 3.3125 11.730469 3.414062 11.847656 C 3.515625 11.960938 3.675781 12.09375 3.800781 12.203125 C 3.929688 12.3125 4.089844 12.410156 4.089844 12.609375 L 4.089844 13.097656 C 4.089844 12.941406 3.828125 12.699219 3.558594 12.511719 C 3.289062 12.324219 3.144531 11.945312 3.117188 11.664062 C 3.101562 11.871094 2.972656 12.171875 3.058594 12.390625 C 3.144531 12.613281 3.421875 12.847656 3.65625 12.960938 C 3.890625 13.070312 4.089844 13.285156 4.089844 13.480469 L 4.089844 13.917969 C 4.089844 13.960938 4.09375 14.003906 4.101562 14.046875 L 4.09375 14.035156 C 4.09375 13.886719 3.722656 13.691406 3.558594 13.617188 C 3.394531 13.542969 3.277344 13.277344 3.113281 12.96875 C 3.097656 13.183594 3 13.453125 3.144531 13.667969 C 3.289062 13.882812 3.457031 14.03125 3.636719 14.078125 C 3.785156 14.113281 3.996094 14.1875 4.175781 14.3125 C 4.289062 14.582031 4.503906 14.839844 4.757812 15.050781 C 5.167969 15.398438 5.679688 15.632812 6.003906 15.664062 C 6.855469 15.746094 7.390625 15.710938 7.792969 15.761719 C 7.433594 15.898438 7.074219 16.140625 6.6875 16.566406 L 7.042969 16.890625 C 7.460938 16.222656 7.742188 15.949219 8.105469 15.828125 C 8.472656 15.949219 8.753906 16.226562 9.167969 16.890625 L 9.523438 16.566406 C 9.136719 16.140625 8.78125 15.898438 8.417969 15.761719 C 8.824219 15.710938 9.355469 15.746094 10.207031 15.664062 C 10.535156 15.632812 11.042969 15.398438 11.453125 15.050781 C 11.707031 14.839844 11.925781 14.582031 12.039062 14.3125 C 12.21875 14.1875 12.429688 14.113281 12.574219 14.078125 C 12.757812 14.03125 12.925781 13.882812 13.066406 13.667969 C 13.210938 13.453125 13.117188 13.183594 13.101562 12.96875 C 12.9375 13.277344 12.820312 13.542969 12.65625 13.617188 C 12.488281 13.691406 12.117188 13.886719 12.117188 14.035156 L 12.113281 14.046875 C 12.117188 14.003906 12.121094 13.960938 12.121094 13.917969 Z M 12.121094 13.480469 "/>
<path style=" stroke:none;fill-rule:evenodd;fill:rgb(67.45098%,60.784314%,16.862745%);fill-opacity:1;" d="M 8.660156 7.148438 C 8.609375 7.148438 8.554688 7.136719 8.5 7.136719 C 8.210938 7.117188 8.074219 6.765625 8.28125 6.558594 C 8.347656 6.492188 8.472656 6.542969 8.472656 6.640625 C 8.472656 6.703125 8.421875 6.753906 8.359375 6.753906 L 8.355469 6.753906 C 8.367188 6.753906 8.378906 6.753906 8.386719 6.753906 C 8.507812 6.753906 8.605469 6.65625 8.605469 6.535156 C 8.605469 6.433594 8.53125 6.339844 8.425781 6.324219 C 8.242188 6.296875 8.105469 6.140625 8.105469 5.953125 C 8.109375 6.140625 7.972656 6.296875 7.789062 6.324219 C 7.683594 6.339844 7.605469 6.433594 7.605469 6.535156 C 7.605469 6.65625 7.703125 6.753906 7.820312 6.753906 C 7.832031 6.753906 7.84375 6.753906 7.855469 6.753906 C 7.792969 6.753906 7.742188 6.703125 7.742188 6.640625 C 7.742188 6.578125 7.792969 6.523438 7.855469 6.523438 C 7.882812 6.523438 7.910156 6.535156 7.933594 6.558594 C 7.992188 6.625 8.03125 6.710938 8.03125 6.796875 C 8.03125 6.976562 7.894531 7.125 7.714844 7.136719 C 7.671875 7.136719 7.609375 7.140625 7.558594 7.148438 C 7.515625 7.152344 7.488281 7.125 7.488281 7.089844 C 7.488281 7.066406 7.507812 7.042969 7.535156 7.035156 C 7.570312 7.03125 7.597656 6.992188 7.597656 6.953125 C 7.597656 6.929688 7.585938 6.90625 7.566406 6.886719 L 7.347656 6.71875 L 7.179688 6.9375 C 7.164062 6.949219 7.164062 6.96875 7.164062 6.984375 C 7.160156 7.007812 7.167969 7.027344 7.183594 7.042969 C 7.199219 7.0625 7.222656 7.070312 7.246094 7.070312 C 7.277344 7.070312 7.304688 7.097656 7.304688 7.125 C 7.304688 7.15625 7.28125 7.175781 7.253906 7.179688 C 7.210938 7.1875 7.152344 7.195312 7.105469 7.207031 C 6.886719 7.242188 6.699219 7.085938 6.699219 6.875 C 6.699219 6.8125 6.714844 6.753906 6.75 6.695312 C 6.808594 6.601562 6.960938 6.640625 6.960938 6.757812 C 6.960938 6.8125 6.921875 6.855469 6.871094 6.867188 C 6.980469 6.859375 7.066406 6.765625 7.066406 6.648438 C 7.066406 6.53125 6.96875 6.4375 6.851562 6.4375 L 6.835938 6.4375 C 6.652344 6.453125 6.480469 6.328125 6.441406 6.148438 C 6.449219 6.175781 6.449219 6.203125 6.449219 6.234375 C 6.449219 6.386719 6.359375 6.523438 6.21875 6.582031 C 6.132812 6.613281 6.082031 6.691406 6.082031 6.785156 C 6.082031 6.839844 6.105469 6.894531 6.144531 6.933594 C 6.183594 6.976562 6.238281 6.996094 6.296875 6.996094 C 6.324219 6.996094 6.355469 6.992188 6.378906 6.980469 C 6.308594 7.003906 6.238281 6.945312 6.238281 6.875 C 6.238281 6.8125 6.289062 6.761719 6.351562 6.761719 C 6.371094 6.761719 6.390625 6.765625 6.410156 6.773438 C 6.507812 6.835938 6.570312 6.945312 6.570312 7.066406 C 6.570312 7.214844 6.476562 7.34375 6.332031 7.386719 C 6.285156 7.402344 6.230469 7.421875 6.175781 7.4375 C 6.136719 7.449219 6.101562 7.425781 6.101562 7.386719 C 6.101562 7.363281 6.113281 7.34375 6.132812 7.335938 C 6.164062 7.320312 6.179688 7.289062 6.179688 7.257812 C 6.179688 7.226562 6.164062 7.195312 6.132812 7.179688 L 5.878906 7.0625 L 5.765625 7.316406 C 5.757812 7.324219 5.757812 7.335938 5.757812 7.351562 C 5.757812 7.375 5.765625 7.394531 5.78125 7.410156 C 5.796875 7.425781 5.816406 7.4375 5.839844 7.4375 C 5.847656 7.4375 5.855469 7.4375 5.863281 7.429688 C 5.894531 7.425781 5.929688 7.449219 5.929688 7.484375 C 5.929688 7.507812 5.917969 7.53125 5.894531 7.542969 C 5.847656 7.558594 5.796875 7.578125 5.75 7.597656 C 5.519531 7.695312 5.269531 7.53125 5.269531 7.292969 C 5.269531 7.253906 5.28125 7.21875 5.292969 7.179688 C 5.332031 7.0625 5.511719 7.089844 5.511719 7.21875 C 5.507812 7.261719 5.484375 7.300781 5.445312 7.320312 C 5.535156 7.292969 5.597656 7.207031 5.597656 7.113281 C 5.597656 6.992188 5.5 6.898438 5.378906 6.898438 C 5.359375 6.898438 5.335938 6.902344 5.3125 6.90625 C 5.136719 6.964844 4.945312 6.886719 4.863281 6.71875 L 5.628906 8.25 L 5.628906 13.824219 C 5.628906 14.015625 5.707031 14.203125 5.84375 14.339844 C 5.980469 14.476562 6.167969 14.554688 6.359375 14.550781 L 7.652344 14.550781 C 7.902344 14.550781 8.105469 14.757812 8.105469 15 C 8.109375 14.753906 8.308594 14.554688 8.554688 14.550781 L 9.851562 14.550781 C 10.253906 14.550781 10.582031 14.226562 10.582031 13.824219 L 10.582031 8.25 L 11.34375 6.71875 C 11.265625 6.886719 11.074219 6.964844 10.898438 6.90625 C 10.875 6.902344 10.855469 6.898438 10.832031 6.898438 C 10.710938 6.898438 10.617188 6.992188 10.617188 7.113281 C 10.617188 7.207031 10.675781 7.292969 10.765625 7.320312 C 10.65625 7.269531 10.695312 7.105469 10.816406 7.105469 C 10.863281 7.105469 10.902344 7.136719 10.921875 7.179688 C 10.929688 7.21875 10.9375 7.253906 10.9375 7.292969 C 10.9375 7.476562 10.785156 7.625 10.601562 7.625 C 10.554688 7.625 10.511719 7.621094 10.472656 7.601562 C 10.421875 7.582031 10.371094 7.5625 10.320312 7.542969 C 10.257812 7.519531 10.277344 7.429688 10.339844 7.429688 L 10.351562 7.429688 C 10.359375 7.4375 10.367188 7.4375 10.371094 7.4375 C 10.394531 7.4375 10.417969 7.429688 10.433594 7.414062 C 10.449219 7.394531 10.457031 7.375 10.457031 7.351562 C 10.457031 7.335938 10.453125 7.324219 10.449219 7.316406 L 10.328125 7.0625 L 10.078125 7.179688 C 10.050781 7.195312 10.027344 7.226562 10.027344 7.257812 C 10.03125 7.289062 10.050781 7.320312 10.078125 7.335938 C 10.097656 7.34375 10.109375 7.363281 10.109375 7.386719 C 10.113281 7.402344 10.105469 7.414062 10.09375 7.425781 C 10.085938 7.4375 10.070312 7.441406 10.054688 7.441406 C 10.046875 7.441406 10.042969 7.4375 10.039062 7.4375 C 9.988281 7.425781 9.9375 7.40625 9.882812 7.386719 C 9.601562 7.304688 9.554688 6.929688 9.800781 6.773438 C 9.835938 6.753906 9.878906 6.753906 9.914062 6.773438 C 9.953125 6.796875 9.972656 6.832031 9.972656 6.875 C 9.972656 6.90625 9.960938 6.933594 9.9375 6.953125 C 9.917969 6.976562 9.886719 6.984375 9.859375 6.984375 C 9.851562 6.984375 9.839844 6.984375 9.832031 6.980469 C 9.859375 6.992188 9.882812 6.996094 9.914062 6.996094 C 10.03125 6.996094 10.132812 6.902344 10.132812 6.785156 C 10.132812 6.691406 10.078125 6.613281 9.996094 6.582031 C 9.820312 6.511719 9.726562 6.328125 9.773438 6.148438 C 9.726562 6.328125 9.5625 6.453125 9.378906 6.4375 L 9.359375 6.4375 C 9.238281 6.4375 9.144531 6.53125 9.144531 6.648438 C 9.144531 6.765625 9.226562 6.859375 9.34375 6.867188 C 9.210938 6.835938 9.234375 6.648438 9.367188 6.648438 C 9.40625 6.648438 9.445312 6.664062 9.464844 6.695312 C 9.496094 6.753906 9.511719 6.8125 9.511719 6.875 C 9.511719 7.0625 9.363281 7.214844 9.175781 7.214844 C 9.15625 7.214844 9.136719 7.210938 9.121094 7.207031 C 9.066406 7.199219 9.015625 7.191406 8.960938 7.1875 C 8.886719 7.175781 8.894531 7.070312 8.964844 7.070312 L 8.96875 7.070312 C 9.015625 7.070312 9.050781 7.03125 9.050781 6.984375 C 9.050781 6.96875 9.042969 6.949219 9.03125 6.9375 L 8.859375 6.71875 L 8.644531 6.886719 C 8.621094 6.902344 8.609375 6.929688 8.609375 6.953125 C 8.609375 6.992188 8.636719 7.03125 8.675781 7.035156 C 8.703125 7.042969 8.722656 7.066406 8.722656 7.089844 C 8.722656 7.105469 8.71875 7.121094 8.707031 7.132812 C 8.695312 7.144531 8.679688 7.148438 8.664062 7.148438 C 8.664062 7.148438 8.664062 7.148438 8.660156 7.148438 Z M 8.660156 7.148438 "/>
<path style=" stroke:none;fill-rule:evenodd;fill:rgb(0%,0%,0%);fill-opacity:1;" d="M 10.414062 8.25 L 5.796875 8.25 C 7.261719 7.570312 8.953125 7.570312 10.417969 8.25 Z M 10.414062 8.25 "/>
<path style=" stroke:none;fill-rule:evenodd;fill:rgb(80.392157%,20.784314%,16.078431%);fill-opacity:1;" d="M 10.414062 8.414062 L 5.796875 8.414062 L 5.796875 13.824219 C 5.796875 14.132812 6.050781 14.382812 6.363281 14.382812 L 7.652344 14.382812 C 7.824219 14.382812 7.988281 14.453125 8.109375 14.578125 C 8.222656 14.453125 8.386719 14.382812 8.554688 14.382812 L 9.851562 14.382812 C 10 14.382812 10.144531 14.324219 10.25 14.21875 C 10.355469 14.113281 10.414062 13.972656 10.414062 13.824219 Z M 10.414062 8.414062 "/>
<path style=" stroke:none;fill-rule:evenodd;fill:rgb(0%,0%,0%);fill-opacity:1;" d="M 8.140625 11.242188 L 8.957031 10.035156 C 9.097656 10.097656 9.261719 10.105469 9.40625 10.050781 C 9.554688 9.992188 9.671875 9.882812 9.734375 9.738281 L 10 9.125 L 9.445312 9.6875 C 9.429688 9.703125 9.410156 9.714844 9.386719 9.714844 C 9.367188 9.714844 9.347656 9.703125 9.332031 9.691406 C 9.316406 9.675781 9.308594 9.65625 9.308594 9.632812 C 9.308594 9.621094 9.3125 9.609375 9.3125 9.601562 L 9.625 8.878906 L 9.074219 9.4375 C 9.058594 9.453125 9.039062 9.464844 9.015625 9.464844 C 8.972656 9.460938 8.9375 9.425781 8.9375 9.382812 C 8.9375 9.371094 8.941406 9.359375 8.945312 9.347656 L 9.257812 8.625 L 8.789062 9.101562 C 8.558594 9.332031 8.566406 9.710938 8.804688 9.933594 L 8.03125 11.082031 L 7.121094 9.734375 L 7.871094 9.226562 L 7.703125 8.980469 L 7.664062 9.007812 L 7.273438 8.730469 L 7.382812 9.195312 L 7.339844 9.226562 L 6.949219 8.949219 L 7.058594 9.414062 L 7.019531 9.441406 L 6.628906 9.164062 L 6.738281 9.628906 L 6.699219 9.65625 L 6.308594 9.382812 L 6.417969 9.847656 L 6.375 9.875 L 5.988281 9.597656 L 6.097656 10.066406 L 6.054688 10.089844 L 6.222656 10.335938 L 6.972656 9.832031 L 7.921875 11.242188 L 6.269531 13.695312 C 6.261719 13.710938 6.253906 13.726562 6.253906 13.742188 C 6.253906 13.835938 6.371094 13.867188 6.417969 13.792969 L 8.03125 11.402344 L 9.644531 13.792969 C 9.660156 13.820312 9.6875 13.835938 9.71875 13.835938 C 9.769531 13.835938 9.808594 13.792969 9.808594 13.742188 C 9.808594 13.726562 9.804688 13.710938 9.792969 13.695312 Z M 8.140625 11.242188 "/>
</g>
</svg>
