<?xml version="1.0" encoding="utf-8"?>
<!-- Generator: Adobe Illustrator 27.0.0, SVG Export Plug-In . SVG Version: 6.00 Build 0)  -->
<svg version="1.1" id="Layer_1" xmlns="http://www.w3.org/2000/svg" xmlns:xlink="http://www.w3.org/1999/xlink" x="0px" y="0px"
	 viewBox="0 0 118.5 119.8" style="enable-background:new 0 0 118.5 119.8;" xml:space="preserve">
<style type="text/css">
	.st0{clip-path:url(#SVGID_00000137132239057153002330000010048478843017996957_);}
	.st1{fill:#FEFEFE;}
	.st2{fill:#2D2925;}
	.st3{fill:#C21F32;}
</style>
<g>
	<g>
		<defs>
			<rect id="SVGID_1_" x="-15.1" y="0.8" width="154" height="120"/>
		</defs>
		<clipPath id="SVGID_00000058588465515373114330000004660258248275702459_">
			<use xlink:href="#SVGID_1_"  style="overflow:visible;"/>
		</clipPath>
		<g style="clip-path:url(#SVGID_00000058588465515373114330000004660258248275702459_);">
			<path class="st1" d="M108.4,58.9l-4.7-1.6c7.1-2.9,14.6-8.6,13.9-20.7c-0.4-8.3-4.2-15.7-6.3-20l-7.9-15.8l1.6,17.1
				c0.5,5.3,0.3,12.4-1.7,16.2c-2.7,5.5-11.6,5-14.8,4.8c-5.6-0.4-24-1-29.5-1c-7.5,0-15.6,0.6-22.2,1.1c-3.2,0.2-5.9,0.4-7.7,0.5
				c-0.2,0-0.4,0-0.9,0.1c-11.6,1.1-13.6-4.4-14.3-6.2c-1.2-3.3-1.2-10.7-1.2-13.9V5.8l-6,11.1C5,20.1,1.6,26.4,0.5,37
				C-0.3,51.8,9,56.2,12.1,57.6c0.4,0.2,0.9,0.3,1.3,0.5c-0.2,0.1-0.5,0.1-0.7,0.2c-2,0.6-4.1,1.6-4.7,1.9l-3.5,1.7l2.2,3.2
				c0.3,0.4,1.1,1.4,1.9,2.2c2.1,2,7.5,5.3,14,4.6c2.2-0.3,4-0.6,5.4-1.1c0.2,0.7,0.5,1.5,0.7,2.1c2,4.9,6.5,14.4,8.2,17.7
				c1.2,2.1,2.2,4.2,3.1,5.6l-0.1,0.1c-0.2,0.2-0.3,0.3-0.5,0.5l-0.7,1V99c0,1.1-0.3,10.2,6.1,17.1l0.5,0.5l0.6,0.2
				c3,1.2,6.8,2.3,13.1,2.3c6.4,0,11.7-1.5,13.9-2.6l0.6-0.3l0.4-0.4c4.3-5.1,6.2-12.6,6.3-15.7l0.1-0.1h-0.1l-0.1-1.3l-1.2-1.2
				c-0.2-0.2-0.4-0.4-0.6-0.7c0.4-0.9,1-2,1.6-3.3l0.1-0.2c0.3-0.7,0.6-1.4,0.9-1.7c1.6-3.2,6.5-13.5,8.3-18.3
				c0.4-1.1,0.7-1.9,1.1-2.6c1.4,0.4,3.2,0.9,5.4,1.1c6.5,0.6,12.7-3.3,14.8-6.3c0.1-0.1,0.3-0.3,0.4-0.5l2.9-3.4l-3.9-1.8
				C109.6,59.4,109.3,59.3,108.4,58.9z"/>
			<path class="st2" d="M114.8,36.8c-0.4-7.8-3.9-14.7-6-18.9l-0.2-0.5l-0.9-1.8l0.2,2c0.2,2.8,0.9,12.3-1.9,17.7
				c-3.5,7.4-13.9,6.6-17.3,6.4h-0.2c-5.5-0.3-23.8-1.1-29.3-1c-7.4,0-15.5,0.6-22,1.1c-3.2,0.2-6,0.4-7.8,0.5c-0.1,0-0.3,0-0.6,0.1
				c-9.2,0.9-14.9-1.8-17.2-8c-1.8-3.9-1.7-11.4-1.7-15v-1.1v-1.5l-0.7,1.3c-1.7,3.2-4.9,9.1-6,18.9c-0.6,11.6,5.4,15.8,10,17.9
				c4.8,2.2,9.7,2.6,11.3,2.7h0.1c0.3,0.1,0.7,0.1,1.1,0.1c0.5,0,1.1,0,1.6,0.1c-0.9,0.2-2,0.3-3,0.5c-1.1,0.2-2,0.3-2.6,0.4
				c-1.1,0.2-5.6,1.3-8.2,2.1c-2.1,0.7-4.4,1.8-4.4,1.8l-0.4,0.2l0.3,0.3c0,0,0.7,1.1,1.6,1.9c1.6,1.6,6.2,4.5,11.6,3.7
				c4.4-0.5,6.7-1.6,7.6-2c0.3,1,1,3.1,1.6,4.8c1.9,4.9,6.4,14.2,8.1,17.4c1.4,2.7,2.7,4.9,3.6,6.5l0.3,0.5c-0.3,1-1,1.6-1.5,2.1
				c-0.1,0.1-0.2,0.2-0.3,0.3l-0.1,0.1v0.1c0,0.9-0.2,9,5.2,14.9l0.1,0.1h0.1c2.8,1.1,6.3,2.1,12,2.1c5.9,0,10.8-1.4,12.6-2.2h0.1
				v-0.1c3.8-4.6,5.5-11.3,5.6-13.9v-0.1l-0.1-0.1c-0.1-0.1-0.2-0.2-0.3-0.3c-0.6-0.5-1.4-1.3-1.7-3c0.4-0.9,1.4-2.7,2.1-4.3
				c0.4-0.9,0.7-1.6,1-2c1.6-3.2,6.4-13.3,8.2-18.1c1.2-3,1.8-4.6,2.1-5.2c0.9,0.4,3.1,1.5,7.4,1.9c5.5,0.5,10.8-3.1,12.2-5.1
				c0.2-0.3,0.6-0.9,0.6-0.9l0.3-0.4l-0.4-0.2c0,0-0.2-0.1-1.1-0.4l-3-1.1l-3-1.1c-0.9-0.3-4.6-1.1-7.2-1.7l-2-0.4l0.6-0.1
				C99,56.2,115.8,53.3,114.8,36.8z"/>
			<path class="st3" d="M4.7,33.5c1-4.7,2.5-9.2,4.5-13.4h0.1h0.1v0.1c-0.1,1.3-0.1,2.6-0.1,3.9c0,3.1,0.2,6.3,1,9.2l0.1,0.3
				l-0.2-0.2c-1-0.9-1.8-1.7-2.8-2.6c-0.9,1-1.6,1.9-2.5,2.8l-0.2,0.1V33.5z"/>
			<path class="st3" d="M113.2,31.5c-1.2-3.9-2.3-8-4.3-11.7h-0.2c0.1,1.3,0.1,2.6,0.1,3.7c0,3.1-0.2,6.1-0.7,9v0.2l0.1-0.1
				c1-0.4,1.9-1.1,2.9-1.5l2.3,1.7L113.2,31.5z"/>
			<path class="st3" d="M74.1,74.2l-0.2,0.1c-1.4,0.6-2.8,1.2-4.3,1.5c-1,0.2-1.9,0.3-2.9,0.3c-3,0-5.9-1.3-7.6-3.9l-0.1-0.1v0.1
				c-0.3,0.3-0.5,0.7-1,1.1c-1.9,2.1-4.6,3-7.4,3c-2.1,0-4.4-0.5-6.2-1.3l-0.2-0.1l0.1,0.2c1.4,3.7,2.2,7.9,2.2,12
				c0,1.9-0.2,3.7-0.5,5.5c-0.2,1.3-0.6,2.7-1.1,3.9L45,96.8l0.2-0.1c3.9-2.1,8.8-3.2,13.6-3.2c4.6,0,9.2,1,13,2.9
				c0.6,0.2,1.2,0.7,1.8,0.9l0.2,0.1l-0.1-0.2c-1.1-3.3-1.8-6.8-1.8-10.4v-0.1c0-0.2,0-0.4,0-0.7c0-4.1,0.9-7.9,2-11.5L74.1,74.2z"
				/>
			<path class="st3" d="M35.2,78.1c-0.4-0.5-0.7-1.1-0.9-1.8V76l0.2,0.1c0.7,0.4,1.5,0.6,2.3,0.6c1.7,0,3.4-0.9,4.7-1.7h0.1v0.1
				h-0.2l0.1-0.1c-0.2,1.7-0.7,3.6-2.6,4.3c-0.3,0.1-0.5,0.1-0.7,0.1C37,79.7,35.9,78.9,35.2,78.1z"/>
			<path class="st3" d="M77.5,77.4c-0.4-0.5-0.6-1.2-0.7-1.9v-0.2l0.2,0.1c0.9,0.7,2,1.1,3.2,1.1c1.4,0,2.8-0.4,3.8-1.1l0.2-0.1
				l-0.1,0.2c-0.5,1.5-1.8,3.1-3.5,3.4c-0.1,0-0.3,0-0.4,0C79,78.9,78,78.4,77.5,77.4z"/>
			<path class="st3" d="M79.5,79.7c0.2,0,0.4,0.1,0.6,0.1c0.6,0,1.2-0.2,1.8-0.3l0.2-0.1l-0.1,0.2c-2.2,5.5-4.9,11-7.7,16.3
				l-0.1,0.2l-0.1-0.2c-0.5-1.5-0.7-3.2-0.7-4.9c0-1.3,0.1-2.5,0.2-3.7c0.4-3.6,1.3-7,2.3-10.4l0.1-0.2l0.1,0.2
				C76.9,78.2,78,79.4,79.5,79.7z"/>
			<path class="st3" d="M44.3,95.9c-3.4-5.1-6-10.6-8.4-16.1l-0.1-0.2l0.2,0.1c0.6,0.3,1.6,0.6,2.5,0.6c0.5,0,1.2-0.1,1.6-0.4
				c1.1-0.7,1.7-1.9,2.1-3.2l0.1-0.2l0.1,0.2c1.8,3.7,2.8,8.3,2.8,12.8c0,2.1-0.2,4.3-0.6,6.3L44.3,95.9z"/>
			<path class="st3" d="M47.2,113.1c-3.4-3.8-4.8-8.6-4.9-13.7c4.5-3.3,10.6-5,16.5-5c3.9,0,7.8,0.7,11.2,2.3c2.1,1,4.3,2,6.2,3.5
				c-0.5,4.8-2.3,9.2-5.3,12.9c-3.6,1.4-7.9,2.1-12.2,2.1C54.6,115.3,50.7,114.5,47.2,113.1z"/>
			<path class="st3" d="M107.6,62.4c0,0-2.1-0.9-2.7-1.1c-5.9-2.2-13.3-3.5-19.6-3.7c-0.6-6.9-1.5-11.4-2.9-15.3v-0.1h-0.1
				c-3.3-0.2-17.8-0.7-23.4-0.7c-5.6,0-19.9,0.9-23.1,1.1h-0.1v0.1c-1.3,3.8-2.8,8.5-3.5,15.6c-6.4,0.4-15,2.2-20.9,4.5
				c-0.4,0.1-0.7,0.3-1,0.4c-0.1,0.1-0.2,0.1-0.2,0.1l-0.2-0.2l0.1,0.3c0.9,1,4.2,4.9,10.2,5.1c0.1,0,0.2,0,0.3,0
				c2,0,5.3-0.4,7.6-1.4c0.5-0.2,1.6-0.6,1.9-0.7c0.1,0.2,0.4,0.9,0.6,1.3c0.6,1.8,1.4,4.4,2,5.5c0.9,1.7,2.2,3.1,4.5,3.1h0.1
				c2,0,3.4-1.6,3.6-1.9l0.1-0.1h-0.2c-5.6-0.3-7.9-3.3-8.3-7.8v-0.1h-0.1c-0.6-0.1-1.1-0.2-1.4-0.3c-0.2-0.1-0.4-0.3-0.4-0.6
				c0-0.1-0.1-0.3-0.1-0.4c0-0.5,0.2-1.2,0.6-1.8c0.4-0.5,1.1-1.2,2.3-1.2c0.5,0,1.2,0.1,1.9,0.3c1.7,0.5,3.2,1.7,4.2,2.6
				c1.2,1.1,4.6,4.6,6.6,5.8c1.2,0.7,3.1,1.4,4.9,1.4c1.5,0,3-0.4,4.3-1.6c2.7-2.6,3-4.8,3.3-6.2V64h-0.1c-4.5-0.1-8.8-0.5-12.7-1.1
				c-0.4-0.1-0.6-0.2-0.6-0.4s0.2-0.4,0.5-0.4c0.1,0,0.1,0,0.2,0c0,0,7.5,1,12.7,1.1h0.1V63c0-0.6,0-1.7,0.1-2.9V60h-0.1
				c-3.1-0.1-8.3-0.4-13.2-1.4c-0.4-0.1-0.6-0.3-0.6-0.5c0-0.2,0.1-0.4,0.4-0.4c0.1,0,0.1,0,0.2,0c0.7,0.2,8.7,1.3,13.1,1.3h0.1
				v-0.1c0-1,0-2.2,0-3.5v-0.1h-0.1h-0.3c-2.8,0-6.9-0.3-12.7-1.2c-0.4-0.1-0.6-0.3-0.6-0.5c0-0.2,0.2-0.4,0.5-0.4h0.1
				c0,0,7,1.1,12.6,1.1c0.1,0,0.2,0,0.4,0h0.1v-0.1c0-0.9,0-1.8,0-2.9c0-0.5,0.2-0.7,0.4-0.7c0.2,0,0.4,0.2,0.4,0.6s0,1.5,0,2.8V54
				v0.1h0.1c5.3-0.2,10-0.7,12.3-1.2c0.1,0,0.2,0,0.3,0c0.4,0,0.5,0.2,0.5,0.3c0,0.2-0.1,0.4-0.3,0.4c-0.7,0.1-6.9,1.3-12.8,1.5
				h-0.1v0.1c0,1.1,0,2.3,0.1,3.5v0.1h0.1c3.9-0.1,8.5-0.3,12.5-1.2c0.2,0,0.3-0.1,0.5-0.1c0.4,0,0.6,0.2,0.6,0.3
				c0,0.2-0.2,0.4-0.7,0.5c-3.8,0.6-9.4,1.3-12.8,1.3h-0.1v0.1c0,1,0,2.1,0.1,2.9v0.1h0.1c6.3-0.1,12.3-1.1,13.3-1.2
				c0.1,0,0.1,0,0.2,0c0.4,0,0.5,0.2,0.5,0.4c0,0.2-0.2,0.4-0.6,0.5c-1.1,0.1-8.5,1.1-13.2,1.3H60V64c0.4,1.6,0.5,3.9,2.9,6
				c1.2,1,2.7,1.4,4.3,1.4c1.6,0,3.2-0.4,4.5-1.2c2.1-1.2,5.3-4.8,6.5-5.9c1-0.9,3.2-2.9,6.2-2.9h0.1c1.5,0,2.2,0.4,2.7,0.9
				c0.4,0.4,0.4,1,0.5,1.2c0.1,0.2,0.1,0.4,0.1,0.6c0,0.3-0.1,0.7-0.5,1c-0.5,0.3-1,0.2-1.6,0.5c-0.4,2.5-1.2,5.3-3.1,6.7
				c-1.1,0.7-2.3,1.3-3.5,1.5c-1,0.3-1.8,0.3-1.8,0.3H77l0.1,0.1c0,0,0.4,0.5,0.6,0.6c0.3,0.3,1.3,0.7,2.6,0.7c0.1,0,0.3,0,0.4,0
				c1.4-0.1,3-1.2,3.7-1.9c1.1-1.4,2-4.2,2.7-6c0.2-0.6,0.9-1.7,1.1-2.3c0.5,0.3,1,0.4,2,0.9c2.2,1,5.1,1.3,7.1,1.3
				c0.1,0,0.2,0,0.3,0c3.2-0.1,6.7-2,9-4.1c0.4-0.3,1.1-1.2,1.1-1.3l0.1-0.1L107.6,62.4z"/>
			<path class="st2" d="M62.3,101.3c-0.3,0.5-0.5,1.2-0.5,1.8c0,1.1,0.4,2.1,1,3l0.1,0.1c0.1,0,0.1,0,0.2-0.1c0-0.6-0.4-1.2-0.4-1.8
				c0-0.1,0-0.3,0.1-0.5l0.1-0.2l0.1,0.2c0.6,1.1,1.6,1.7,2.7,2c0.4,0.1,0.9,0.1,1.2,0.1c1.4,0,2.7-0.6,3.6-1.7
				c0.4-0.6,0.7-1.4,0.7-2.1c0-0.3-0.1-0.7-0.2-1.1c-0.6-1.3-2-2-3.3-2.2c-0.2,0-0.4,0-0.6,0C65,98.7,63.2,99.6,62.3,101.3z"/>
			<path class="st2" d="M54.8,106.6c0.1,0,0.2-0.1,0.3-0.3c0.5-0.7,0.9-1.8,0.9-2.9c0-0.6-0.1-1.3-0.5-1.9c-0.5-1.1-1.6-1.8-2.7-2.1
				c-0.6-0.2-1.2-0.3-1.8-0.3c-1.5,0-2.9,0.5-3.8,1.8c-0.3,0.4-0.5,1.1-0.5,1.6c0,0.3,0,0.6,0.1,1c0.5,1.4,1.8,2.5,3.1,2.7
				c0.3,0.1,0.6,0.1,0.9,0.1c1.6,0,3-0.7,3.9-2.1l0.1-0.1l0.1,0.1c0,0.1,0.1,0.2,0.1,0.3c0,0.3-0.1,0.5-0.1,0.7c0,0.4-0.3,0.7-0.3,1
				c0,0.1,0,0.2,0.1,0.3C54.7,106.6,54.7,106.6,54.8,106.6z"/>
			<path class="st2" d="M47.6,111.8c3.5-1.5,7.6-2.3,11.7-2.3c3.1,0,6.2,0.5,9,1.5c0.7,0.3,1.4,0.5,2.1,0.7c0.2-0.2,0.2-0.3,0.4-0.5
				c-3.4-1.7-7.4-2.5-11.4-2.5c-4.3,0-8.5,0.9-12.1,2.5C47.3,111.6,47.5,111.7,47.6,111.8z"/>
			<path class="st2" d="M50.7,86.3c2,2.6,5.2,3.7,8.3,3.7c1.2,0,2.3-0.1,3.5-0.4c5.3-1.5,8.4-7.2,9.6-12.3c-0.1-0.1-0.3-0.2-0.5-0.2
				c-0.6,3-1.9,5.9-3.8,8.3c-2.2,2.8-5.5,4-8.7,4c-1.2,0-2.3-0.2-3.4-0.5c-4.8-1.5-7.4-6.8-7.8-11.6c-0.2,0-0.3,0-0.5,0.1
				C47.6,80.7,48.5,83.7,50.7,86.3z"/>
			<path class="st1" d="M11.3,36.5c2.8,5.3,8.3,7,14.1,6.8c3.2,0,6.2-0.3,9.4-0.5V43c-1.6,4.5-2.7,9.1-3.3,13.9
				c-8.2,0.3-16.6-0.3-22.7-5.9c-4.2-4.2-5.1-9.9-4.3-15.6c1-1.2,2-2.1,3-3.3C8.8,33.4,10.9,34.6,11.3,36.5z"/>
			<path class="st1" d="M113.6,34.1c0.2,0.9,0.2,1.6,0.3,2.5c0.4,6.3-2.3,12.2-7.8,15.3c-5.9,3.5-12.8,4.8-20,5
				c-0.1-0.6-0.2-1.5-0.3-2.2c-0.5-4.2-1.4-8.4-2.6-12.4c7.8-0.1,17.2,1.9,22.3-5.1c0.6-1,1.4-1.9,1.9-3c1.2-0.5,2.2-1.3,3.4-1.8
				C111.9,32.9,112.7,33.6,113.6,34.1z"/>
			<path class="st1" d="M84.1,66.1c0,2.5-0.7,4.9-2.9,6.1c-1.1,0.5-2.2,0.7-3.3,0.7c0-0.2-0.1-0.4,0-0.7c1.8,0.1,3.5-0.6,4.4-2
				c0.6-1.1,0.9-2.3,1-3.6C83.5,66.3,83.8,66.2,84.1,66.1z"/>
			<path class="st1" d="M40.3,72.7c-0.3,0.1-0.4,0.1-1.1,0c-2.9,0-5.9-2.2-5.6-6.2c0.3-0.1,0.7-0.1,1.1,0c0,2.2,0.9,5.2,5.5,5.2
				C40.5,72.3,40.2,72.4,40.3,72.7z"/>
		</g>
	</g>
</g>
</svg>
