<?xml version="1.0" encoding="utf-8"?>
<!-- Generator: Adobe Illustrator 27.0.0, SVG Export Plug-In . SVG Version: 6.00 Build 0)  -->
<svg version="1.1" id="Layer_1" xmlns="http://www.w3.org/2000/svg" xmlns:xlink="http://www.w3.org/1999/xlink" x="0px" y="0px"
	 viewBox="0 0 570 293" style="enable-background:new 0 0 570 293;" xml:space="preserve">
<style type="text/css">
	.st0{clip-path:url(#SVGID_00000153697792464610164380000005989927837605148334_);}
	.st1{fill:#60A963;}
	.st2{fill:#FFFFFF;}
</style>
<g>
	<g>
		<defs>
			<rect id="SVGID_1_" x="0.169191" y="0.396446" width="570" height="292.88501"/>
		</defs>
		<clipPath id="SVGID_00000167362263395034033750000016882762960107734679_">
			<use xlink:href="#SVGID_1_"  style="overflow:visible;"/>
		</clipPath>
		<g style="clip-path:url(#SVGID_00000167362263395034033750000016882762960107734679_);">
			<path class="st1" d="M1.875185,292.370483h565.822449V2.54342L1.875185,2.54339V292.370483z"/>
			<path class="st1" d="M486.596497,292.370483h81.101135V2.54342h-81.101135V292.370483z"/>
			<path class="st1" d="M1.875185,292.370483h79.214996V2.54342H1.875185V292.370483z"/>
			<path class="st2" d="M1.875185,0.04598l565.822388,0.000025c0.41687,0,0.81665,0.166118,1.111389,0.461806
				c0.294739,0.295687,0.460327,0.696721,0.460327,1.114889v290.74176c0,0.417999-0.165588,0.819-0.460327,1.115021
				c-0.2948,0.29599-0.694519,0.461975-1.111389,0.461975H1.875185c-0.416992,0-0.817017-0.165985-1.111023-0.461975
				c-0.294983-0.296021-0.460999-0.697021-0.460999-1.115021V1.62267c0-0.418163,0.166016-0.819197,0.460999-1.114884
				C1.058169,0.212099,1.458193,0.04598,1.875185,0.04598z M566.125854,3.19939L3.447206,3.19936v287.588104l562.67865,0.001007
				V3.19939z"/>
			<path class="st2" d="M487.313202-0.354749c0.221497,0,0.433899,0.166217,0.590485,0.462077
				c0.156616,0.29586,0.244598,0.69713,0.244598,1.115539v290.912598c0,0.417999-0.087982,0.819-0.244598,1.115021
				c-0.156586,0.29599-0.368988,0.461975-0.590485,0.461975s-0.434021-0.165985-0.590607-0.461975
				c-0.156616-0.296021-0.244598-0.697021-0.244598-1.115021V1.222867c0-0.418409,0.087982-0.819679,0.244598-1.115539
				C486.879181-0.188532,487.091705-0.354749,487.313202-0.354749z"/>
			<path class="st2" d="M444.720184-0.354749c0.221008,0,0.434021,0.166217,0.589996,0.462077
				c0.157013,0.29586,0.245026,0.69713,0.245026,1.115539v290.912598c0,0.417999-0.088013,0.819-0.245026,1.115021
				c-0.155975,0.29599-0.368988,0.461975-0.589996,0.461975c-0.221985,0-0.43399-0.165985-0.591003-0.461975
				c-0.155975-0.296021-0.243988-0.697021-0.243988-1.115021V1.222867c0-0.418409,0.088013-0.819679,0.243988-1.115539
				C444.286194-0.188532,444.498199-0.354749,444.720184-0.354749z"/>
			<path class="st2" d="M403.797211-0.354749c0.220978,0,0.43399,0.166217,0.589996,0.462077
				c0.156982,0.29586,0.244995,0.69713,0.244995,1.115539v290.912598c0,0.417999-0.088013,0.819-0.244995,1.115021
				c-0.156006,0.29599-0.369019,0.461975-0.589996,0.461975c-0.222015,0-0.434021-0.165985-0.591003-0.461975
				c-0.156006-0.296021-0.244019-0.697021-0.244019-1.115021V1.222867c0-0.418409,0.088013-0.819679,0.244019-1.115539
				C403.36319-0.188532,403.575195-0.354749,403.797211-0.354749z"/>
			<path class="st2" d="M362.874207-0.354749c0.221985,0,0.43399,0.166217,0.591003,0.462077
				c0.155975,0.29586,0.243988,0.69713,0.243988,1.115539v290.912598c0,0.417999-0.088013,0.819-0.243988,1.115021
				c-0.157013,0.29599-0.370026,0.461975-0.591003,0.461975c-0.222015,0-0.434021-0.165985-0.591003-0.461975
				c-0.156006-0.296021-0.244019-0.697021-0.244019-1.115021V1.222867c0-0.418409,0.088013-0.819679,0.244019-1.115539
				C362.440186-0.188532,362.653198-0.354749,362.874207-0.354749z"/>
			<path class="st2" d="M322.786194-0.354749c0.222015,0,0.43399,0.166217,0.591003,0.462077
				c0.156006,0.29586,0.243988,0.69713,0.243988,1.115539v290.912598c0,0.417999-0.087982,0.819-0.243988,1.115021
				c-0.157013,0.29599-0.368988,0.461975-0.591003,0.461975c-0.221008,0-0.43399-0.165985-0.589996-0.461975
				c-0.157013-0.296021-0.244995-0.697021-0.244995-1.115021V1.222867c0-0.418409,0.087982-0.819679,0.244995-1.115539
				C322.352203-0.188532,322.565186-0.354749,322.786194-0.354749z"/>
			<path class="st2" d="M282.698181-0.354749c0.222015,0,0.434021,0.166217,0.591003,0.462077
				c0.157013,0.29586,0.244995,0.69713,0.244995,1.115539v290.912598c0,0.417999-0.087982,0.819-0.244995,1.115021
				c-0.156982,0.29599-0.368988,0.461975-0.591003,0.461975c-0.220978,0-0.43399-0.165985-0.589996-0.461975
				c-0.156982-0.296021-0.244995-0.697021-0.244995-1.115021V1.222867c0-0.418409,0.088013-0.819679,0.244995-1.115539
				C282.264191-0.188532,282.477203-0.354749,282.698181-0.354749z"/>
			<path class="st2" d="M241.775177-0.354749c0.222015,0,0.434021,0.166217,0.591003,0.462077
				c0.157013,0.29586,0.244995,0.69713,0.244995,1.115539v290.912598c0,0.417999-0.087982,0.819-0.244995,1.115021
				c-0.156982,0.29599-0.368988,0.461975-0.591003,0.461975c-0.220978,0-0.432983-0.165985-0.589996-0.461975
				c-0.156982-0.296021-0.244995-0.697021-0.244995-1.115021V1.222867c0-0.418409,0.088013-0.819679,0.244995-1.115539
				C241.342194-0.188532,241.554199-0.354749,241.775177-0.354749z"/>
			<path class="st2" d="M202.523193-0.354749c0.221008,0,0.43399,0.166217,0.589996,0.462077
				c0.157013,0.29586,0.244995,0.69713,0.244995,1.115539v290.912598c0,0.417999-0.087982,0.819-0.244995,1.115021
				c-0.156006,0.29599-0.368988,0.461975-0.589996,0.461975c-0.222015,0-0.43399-0.165985-0.591003-0.461975
				c-0.156006-0.296021-0.243988-0.697021-0.243988-1.115021V1.222867c0-0.418409,0.087982-0.819679,0.243988-1.115539
				C202.089203-0.188532,202.301178-0.354749,202.523193-0.354749z"/>
			<path class="st2" d="M163.270203-0.354749c0.221985,0,0.43399,0.166217,0.590973,0.462077
				c0.156006,0.29586,0.244019,0.69713,0.244019,1.115539v290.912598c0,0.417999-0.088013,0.819-0.244019,1.115021
				c-0.156982,0.29599-0.368988,0.461975-0.590973,0.461975c-0.221008,0-0.434021-0.165985-0.590027-0.461975
				c-0.156982-0.296021-0.244995-0.697021-0.244995-1.115021V1.222867c0-0.418409,0.088013-0.819679,0.244995-1.115539
				C162.836182-0.188532,163.049194-0.354749,163.270203-0.354749z"/>
			<path class="st2" d="M122.347198-0.354749c0.221985,0,0.43399,0.166217,0.591003,0.462077
				c0.155975,0.29586,0.243988,0.69713,0.243988,1.115539v290.912598c0,0.417999-0.088013,0.819-0.243988,1.115021
				c-0.157013,0.29599-0.369019,0.461975-0.591003,0.461975c-0.221008,0-0.434021-0.165985-0.589996-0.461975
				c-0.157013-0.296021-0.245026-0.697021-0.245026-1.115021V1.222867c0-0.418409,0.088013-0.819679,0.245026-1.115539
				C121.913177-0.188532,122.12619-0.354749,122.347198-0.354749z"/>
			<path class="st2" d="M80.589203-0.354749c0.221985,0,0.43399,0.166217,0.590973,0.462077
				c0.156006,0.29586,0.244019,0.69713,0.244019,1.115539v290.912598c0,0.417999-0.088013,0.819-0.244019,1.115021
				c-0.156982,0.29599-0.368988,0.461975-0.590973,0.461975c-0.221008,0-0.434021-0.165985-0.590027-0.461975
				c-0.156982-0.296021-0.244995-0.697021-0.244995-1.115021V1.222867c0-0.418409,0.088013-0.819679,0.244995-1.115539
				C80.155182-0.188532,80.368195-0.354749,80.589203-0.354749z"/>
			<path class="st2" d="M40.225224,124.288467c0.416992,0,0.816956,0.167,1.112,0.462006
				c0.293945,0.295998,0.459961,0.696999,0.459961,1.114998v43.517006c0,0.417999-0.166016,0.819-0.459961,1.115005
				c-0.295044,0.294998-0.695007,0.460999-1.112,0.460999c-0.417053,0-0.81604-0.166-1.111023-0.460999
				c-0.294983-0.296005-0.460022-0.697006-0.460022-1.115005v-43.517006c0-0.417999,0.165039-0.819,0.460022-1.114998
				C39.409184,124.455467,39.80817,124.288467,40.225224,124.288467z"/>
			<path class="st2" d="M525.575317,124.288467c0.416748,0,0.816589,0.167,1.111267,0.462006
				c0.2948,0.295998,0.460388,0.696999,0.460388,1.114998v43.517006c0,0.417999-0.165588,0.819-0.460388,1.115005
				c-0.294678,0.294998-0.694519,0.460999-1.111267,0.460999c-0.416931,0-0.816711-0.166-1.11145-0.460999
				c-0.2948-0.296005-0.460388-0.697006-0.460388-1.115005v-43.517006c0-0.417999,0.165588-0.819,0.460388-1.114998
				C524.758606,124.455467,525.158386,124.288467,525.575317,124.288467z"/>
			<path class="st2" d="M477.165985,193.033478c0.416809,0,0.81662,0.166,1.111298,0.462006
				c0.2948,0.29599,0.460419,0.696991,0.460419,1.11499v5.67601c0,0.417999-0.165619,0.819-0.460419,1.11499
				c-0.294678,0.296005-0.694489,0.462006-1.111298,0.462006c-0.416901,0-0.816681-0.166-1.111389-0.462006
				c-0.2948-0.29599-0.460388-0.696991-0.460388-1.11499v-5.67601c0-0.417999,0.165588-0.819,0.460388-1.11499
				C476.349304,193.199478,476.749084,193.033478,477.165985,193.033478z"/>
			<path class="st2" d="M468.993195,193.033478c0.416992,0,0.81601,0.166,1.110992,0.462006
				c0.294891,0.29599,0.46051,0.696991,0.46051,1.11499v5.67601c0,0.417999-0.165619,0.819-0.46051,1.11499
				c-0.294983,0.296005-0.694,0.462006-1.110992,0.462006s-0.816986-0.166-1.112-0.462006
				c-0.294006-0.29599-0.459991-0.696991-0.459991-1.11499v-5.67601c0-0.417999,0.165985-0.819,0.459991-1.11499
				C468.176208,193.199478,468.576202,193.033478,468.993195,193.033478z"/>
			<path class="st2" d="M460.82019,193.033478c0.416992,0,0.81601,0.166,1.110992,0.462006
				c0.295013,0.29599,0.460999,0.696991,0.460999,1.11499v5.67601c0,0.417999-0.165985,0.819-0.460999,1.11499
				c-0.294983,0.296005-0.694,0.462006-1.110992,0.462006s-0.816986-0.166-1.112-0.462006
				c-0.294006-0.29599-0.459991-0.696991-0.459991-1.11499v-5.67601c0-0.417999,0.165985-0.819,0.459991-1.11499
				C460.003204,193.199478,460.403198,193.033478,460.82019,193.033478z"/>
			<path class="st2" d="M452.647186,193.033478c0.416992,0,0.81601,0.166,1.110992,0.462006
				c0.295013,0.29599,0.461029,0.696991,0.461029,1.11499v5.67601c0,0.417999-0.166016,0.819-0.461029,1.11499
				c-0.294983,0.296005-0.694,0.462006-1.110992,0.462006s-0.816986-0.166-1.112-0.462006
				c-0.294006-0.29599-0.459991-0.696991-0.459991-1.11499v-5.67601c0-0.417999,0.165985-0.819,0.459991-1.11499
				C451.8302,193.199478,452.230194,193.033478,452.647186,193.033478z"/>
			<path class="st2" d="M435.672211,193.033478c0.416992,0,0.816986,0.166,1.112,0.462006
				c0.293976,0.29599,0.459991,0.696991,0.459991,1.11499v5.67601c0,0.417999-0.166016,0.819-0.459991,1.11499
				c-0.295013,0.296005-0.695007,0.462006-1.112,0.462006c-0.417023,0-0.81601-0.166-1.111023-0.462006
				c-0.294983-0.29599-0.460999-0.696991-0.460999-1.11499v-5.67601c0-0.417999,0.166016-0.819,0.460999-1.11499
				C434.856201,193.199478,435.255188,193.033478,435.672211,193.033478z"/>
			<path class="st2" d="M427.499207,193.033478c0.416992,0,0.816986,0.166,1.112,0.462006
				c0.293976,0.29599,0.459991,0.696991,0.459991,1.11499v5.67601c0,0.417999-0.166016,0.819-0.459991,1.11499
				c-0.295013,0.296005-0.695007,0.462006-1.112,0.462006c-0.417023,0-0.81601-0.166-1.111023-0.462006
				c-0.294983-0.29599-0.460999-0.696991-0.460999-1.11499v-5.67601c0-0.417999,0.166016-0.819,0.460999-1.11499
				C426.683197,193.199478,427.082184,193.033478,427.499207,193.033478z"/>
			<path class="st2" d="M419.326202,193.033478c0.416992,0,0.816986,0.166,1.112,0.462006
				c0.294006,0.29599,0.459991,0.696991,0.459991,1.11499v5.67601c0,0.417999-0.165985,0.819-0.459991,1.11499
				c-0.295013,0.296005-0.695007,0.462006-1.112,0.462006s-0.81601-0.166-1.110992-0.462006
				c-0.295013-0.29599-0.460022-0.696991-0.460022-1.11499v-5.67601c0-0.417999,0.165009-0.819,0.460022-1.11499
				C418.510193,193.199478,418.90921,193.033478,419.326202,193.033478z"/>
			<path class="st2" d="M411.153198,193.033478c0.416992,0,0.816986,0.166,1.112,0.462006
				c0.294006,0.29599,0.459991,0.696991,0.459991,1.11499v5.67601c0,0.417999-0.165985,0.819-0.459991,1.11499
				c-0.295013,0.296005-0.695007,0.462006-1.112,0.462006s-0.81601-0.166-1.110992-0.462006
				c-0.295013-0.29599-0.460999-0.696991-0.460999-1.11499v-5.67601c0-0.417999,0.165985-0.819,0.460999-1.11499
				C410.337189,193.199478,410.736206,193.033478,411.153198,193.033478z"/>
			<path class="st2" d="M395.436188,193.033478c0.417023,0,0.817017,0.166,1.111023,0.462006
				c0.294983,0.29599,0.460999,0.696991,0.460999,1.11499v5.67601c0,0.417999-0.166016,0.819-0.460999,1.11499
				c-0.294006,0.296005-0.694,0.462006-1.111023,0.462006c-0.416992,0-0.816986-0.166-1.110992-0.462006
				c-0.295013-0.29599-0.460999-0.696991-0.460999-1.11499v-5.67601c0-0.417999,0.165985-0.819,0.460999-1.11499
				C394.619202,193.199478,395.019196,193.033478,395.436188,193.033478z"/>
			<path class="st2" d="M387.263184,193.033478c0.417023,0,0.817017,0.166,1.111023,0.462006
				c0.294983,0.29599,0.460999,0.696991,0.460999,1.11499v5.67601c0,0.417999-0.166016,0.819-0.460999,1.11499
				c-0.294006,0.296005-0.694,0.462006-1.111023,0.462006c-0.416992,0-0.816986-0.166-1.110992-0.462006
				c-0.294983-0.29599-0.460999-0.696991-0.460999-1.11499v-5.67601c0-0.417999,0.166016-0.819,0.460999-1.11499
				C386.446198,193.199478,386.846191,193.033478,387.263184,193.033478z"/>
			<path class="st2" d="M379.09021,193.033478c0.416992,0,0.816986,0.166,1.110992,0.462006
				c0.294983,0.29599,0.460999,0.696991,0.460999,1.11499v5.67601c0,0.417999-0.166016,0.819-0.460999,1.11499
				c-0.294006,0.296005-0.694,0.462006-1.110992,0.462006c-0.417023,0-0.817017-0.166-1.111023-0.462006
				c-0.294983-0.29599-0.460999-0.696991-0.460999-1.11499v-5.67601c0-0.417999,0.166016-0.819,0.460999-1.11499
				C378.273193,193.199478,378.673187,193.033478,379.09021,193.033478z"/>
			<path class="st2" d="M370.917206,193.033478c0.416992,0,0.816986,0.166,1.110992,0.462006
				c0.295013,0.29599,0.460999,0.696991,0.460999,1.11499v5.67601c0,0.417999-0.165985,0.819-0.460999,1.11499
				c-0.294006,0.296005-0.694,0.462006-1.110992,0.462006c-0.417023,0-0.817017-0.166-1.111023-0.462006
				c-0.294983-0.29599-0.460999-0.696991-0.460999-1.11499v-5.67601c0-0.417999,0.166016-0.819,0.460999-1.11499
				C370.100189,193.199478,370.500183,193.033478,370.917206,193.033478z"/>
			<path class="st2" d="M355.200195,193.033478c0.416992,0,0.81601,0.166,1.110992,0.462006
				c0.295013,0.29599,0.460022,0.696991,0.460022,1.11499v5.67601c0,0.417999-0.165009,0.819-0.460022,1.11499
				c-0.294983,0.296005-0.694,0.462006-1.110992,0.462006s-0.816986-0.166-1.112-0.462006
				c-0.294006-0.29599-0.459991-0.696991-0.459991-1.11499v-5.67601c0-0.417999,0.165985-0.819,0.459991-1.11499
				C354.383209,193.199478,354.783203,193.033478,355.200195,193.033478z"/>
			<path class="st2" d="M347.027191,193.033478c0.416992,0,0.81601,0.166,1.110992,0.462006
				c0.295013,0.29599,0.460022,0.696991,0.460022,1.11499v5.67601c0,0.417999-0.165009,0.819-0.460022,1.11499
				c-0.294983,0.296005-0.694,0.462006-1.110992,0.462006s-0.816986-0.166-1.112-0.462006
				c-0.294006-0.29599-0.459991-0.696991-0.459991-1.11499v-5.67601c0-0.417999,0.165985-0.819,0.459991-1.11499
				C346.210205,193.199478,346.610199,193.033478,347.027191,193.033478z"/>
			<path class="st2" d="M338.854187,193.033478c0.417023,0,0.81601,0.166,1.111023,0.462006
				c0.294983,0.29599,0.459991,0.696991,0.459991,1.11499v5.67601c0,0.417999-0.165009,0.819-0.459991,1.11499
				c-0.295013,0.296005-0.694,0.462006-1.111023,0.462006c-0.416992,0-0.816986-0.166-1.112-0.462006
				c-0.293976-0.29599-0.459991-0.696991-0.459991-1.11499v-5.67601c0-0.417999,0.166016-0.819,0.459991-1.11499
				C338.037201,193.199478,338.437195,193.033478,338.854187,193.033478z"/>
			<path class="st2" d="M330.681183,193.033478c0.417023,0,0.81601,0.166,1.111023,0.462006
				c0.294983,0.29599,0.459991,0.696991,0.459991,1.11499v5.67601c0,0.417999-0.165009,0.819-0.459991,1.11499
				c-0.295013,0.296005-0.694,0.462006-1.111023,0.462006c-0.416992,0-0.816986-0.166-1.112-0.462006
				c-0.293976-0.29599-0.459991-0.696991-0.459991-1.11499v-5.67601c0-0.417999,0.166016-0.819,0.459991-1.11499
				C329.864197,193.199478,330.264191,193.033478,330.681183,193.033478z"/>
			<path class="st2" d="M313.706177,193.033478c0.417023,0,0.817017,0.166,1.111023,0.462006
				c0.294983,0.29599,0.460999,0.696991,0.460999,1.11499v5.67601c0,0.417999-0.166016,0.819-0.460999,1.11499
				c-0.294006,0.296005-0.694,0.462006-1.111023,0.462006c-0.416992,0-0.816986-0.166-1.110992-0.462006
				c-0.294983-0.29599-0.460999-0.696991-0.460999-1.11499v-5.67601c0-0.417999,0.166016-0.819,0.460999-1.11499
				C312.889191,193.199478,313.289185,193.033478,313.706177,193.033478z"/>
			<path class="st2" d="M305.533203,193.033478c0.416992,0,0.816986,0.166,1.112,0.462006
				c0.293976,0.29599,0.459991,0.696991,0.459991,1.11499v5.67601c0,0.417999-0.166016,0.819-0.459991,1.11499
				c-0.295013,0.296005-0.695007,0.462006-1.112,0.462006c-0.417023,0-0.81601-0.166-1.111023-0.462006
				c-0.294983-0.29599-0.460999-0.696991-0.460999-1.11499v-5.67601c0-0.417999,0.166016-0.819,0.460999-1.11499
				C304.717194,193.199478,305.11618,193.033478,305.533203,193.033478z"/>
			<path class="st2" d="M297.360199,193.033478c0.416992,0,0.816986,0.166,1.110992,0.462006
				c0.294983,0.29599,0.460999,0.696991,0.460999,1.11499v5.67601c0,0.417999-0.166016,0.819-0.460999,1.11499
				c-0.294006,0.296005-0.694,0.462006-1.110992,0.462006c-0.417023,0-0.817017-0.166-1.111023-0.462006
				c-0.294983-0.29599-0.460999-0.696991-0.460999-1.11499v-5.67601c0-0.417999,0.166016-0.819,0.460999-1.11499
				C296.543182,193.199478,296.943176,193.033478,297.360199,193.033478z"/>
			<path class="st2" d="M289.187195,193.033478c0.416992,0,0.816986,0.166,1.110992,0.462006
				c0.295013,0.29599,0.460999,0.696991,0.460999,1.11499v5.67601c0,0.417999-0.165985,0.819-0.460999,1.11499
				c-0.294006,0.296005-0.694,0.462006-1.110992,0.462006s-0.817017-0.166-1.110992-0.462006
				c-0.295013-0.29599-0.460999-0.696991-0.460999-1.11499v-5.67601c0-0.417999,0.165985-0.819,0.460999-1.11499
				C288.370178,193.199478,288.770203,193.033478,289.187195,193.033478z"/>
			<path class="st2" d="M273.470184,193.033478c0.416992,0,0.81601,0.166,1.110992,0.462006
				c0.295013,0.29599,0.460999,0.696991,0.460999,1.11499v5.67601c0,0.417999-0.165985,0.819-0.460999,1.11499
				c-0.294983,0.296005-0.694,0.462006-1.110992,0.462006s-0.816986-0.166-1.112-0.462006
				c-0.294006-0.29599-0.459991-0.696991-0.459991-1.11499v-5.67601c0-0.417999,0.165985-0.819,0.459991-1.11499
				C272.653198,193.199478,273.053192,193.033478,273.470184,193.033478z"/>
			<path class="st2" d="M265.29718,193.033478c0.417023,0,0.81601,0.166,1.111023,0.462006
				c0.294983,0.29599,0.460999,0.696991,0.460999,1.11499v5.67601c0,0.417999-0.166016,0.819-0.460999,1.11499
				c-0.295013,0.296005-0.694,0.462006-1.111023,0.462006c-0.416992,0-0.816986-0.166-1.112-0.462006
				c-0.294006-0.29599-0.459991-0.696991-0.459991-1.11499v-5.67601c0-0.417999,0.165985-0.819,0.459991-1.11499
				C264.480194,193.199478,264.880188,193.033478,265.29718,193.033478z"/>
			<path class="st2" d="M257.124176,193.033478c0.417023,0,0.817017,0.166,1.111023,0.462006
				c0.294983,0.29599,0.460999,0.696991,0.460999,1.11499v5.67601c0,0.417999-0.166016,0.819-0.460999,1.11499
				c-0.294006,0.296005-0.694,0.462006-1.111023,0.462006c-0.416992,0-0.816986-0.166-1.110992-0.462006
				c-0.294983-0.29599-0.460999-0.696991-0.460999-1.11499v-5.67601c0-0.417999,0.166016-0.819,0.460999-1.11499
				C256.30719,193.199478,256.707184,193.033478,257.124176,193.033478z"/>
			<path class="st2" d="M248.951202,193.033478c0.416992,0,0.816986,0.166,1.110992,0.462006
				c0.294983,0.29599,0.460999,0.696991,0.460999,1.11499v5.67601c0,0.417999-0.166016,0.819-0.460999,1.11499
				c-0.294006,0.296005-0.694,0.462006-1.110992,0.462006c-0.417023,0-0.817017-0.166-1.111023-0.462006
				c-0.294983-0.29599-0.460999-0.696991-0.460999-1.11499v-5.67601c0-0.417999,0.166016-0.819,0.460999-1.11499
				C248.134186,193.199478,248.53418,193.033478,248.951202,193.033478z"/>
			<path class="st2" d="M233.862183,193.033478c0.416992,0,0.817017,0.166,1.112,0.462006
				c0.295013,0.29599,0.460022,0.696991,0.460022,1.11499v5.67601c0,0.417999-0.165009,0.819-0.460022,1.11499
				c-0.294983,0.296005-0.695007,0.462006-1.112,0.462006c-0.415985,0-0.815979-0.166-1.110992-0.462006
				c-0.295013-0.29599-0.459991-0.696991-0.459991-1.11499v-5.67601c0-0.417999,0.164978-0.819,0.459991-1.11499
				C233.046204,193.199478,233.446198,193.033478,233.862183,193.033478z"/>
			<path class="st2" d="M225.689178,193.033478c0.417023,0,0.817017,0.166,1.112,0.462006
				c0.294006,0.29599,0.460022,0.696991,0.460022,1.11499v5.67601c0,0.417999-0.166016,0.819-0.460022,1.11499
				c-0.294983,0.296005-0.694977,0.462006-1.112,0.462006c-0.416992,0-0.815979-0.166-1.110992-0.462006
				c-0.294983-0.29599-0.459991-0.696991-0.459991-1.11499v-5.67601c0-0.417999,0.165009-0.819,0.459991-1.11499
				C224.873199,193.199478,225.272186,193.033478,225.689178,193.033478z"/>
			<path class="st2" d="M217.516174,193.033478c0.417023,0,0.817017,0.166,1.11203,0.462006
				c0.293976,0.29599,0.459991,0.696991,0.459991,1.11499v5.67601c0,0.417999-0.166016,0.819-0.459991,1.11499
				c-0.295013,0.296005-0.695007,0.462006-1.11203,0.462006c-0.416992,0-0.815979-0.166-1.110992-0.462006
				c-0.294983-0.29599-0.459991-0.696991-0.459991-1.11499v-5.67601c0-0.417999,0.165009-0.819,0.459991-1.11499
				C216.700195,193.199478,217.099182,193.033478,217.516174,193.033478z"/>
			<path class="st2" d="M209.343201,193.033478c0.416992,0,0.816986,0.166,1.112,0.462006
				c0.293976,0.29599,0.459991,0.696991,0.459991,1.11499v5.67601c0,0.417999-0.166016,0.819-0.459991,1.11499
				c-0.295013,0.296005-0.695007,0.462006-1.112,0.462006c-0.417023,0-0.81601-0.166-1.111023-0.462006
				c-0.294983-0.29599-0.459991-0.696991-0.459991-1.11499v-5.67601c0-0.417999,0.165009-0.819,0.459991-1.11499
				C208.527191,193.199478,208.926178,193.033478,209.343201,193.033478z"/>
			<path class="st2" d="M193.62619,193.033478c0.416992,0,0.816986,0.166,1.110992,0.462006
				c0.295013,0.29599,0.460999,0.696991,0.460999,1.11499v5.67601c0,0.417999-0.165985,0.819-0.460999,1.11499
				c-0.294006,0.296005-0.694,0.462006-1.110992,0.462006s-0.816986-0.166-1.110992-0.462006
				c-0.295013-0.29599-0.460999-0.696991-0.460999-1.11499v-5.67601c0-0.417999,0.165985-0.819,0.460999-1.11499
				C192.809204,193.199478,193.209198,193.033478,193.62619,193.033478z"/>
			<path class="st2" d="M185.453186,193.033478c0.416992,0,0.817017,0.166,1.112,0.462006
				c0.294006,0.29599,0.459991,0.696991,0.459991,1.11499v5.67601c0,0.417999-0.165985,0.819-0.459991,1.11499
				c-0.294983,0.296005-0.695007,0.462006-1.112,0.462006s-0.81601-0.166-1.110992-0.462006
				c-0.295013-0.29599-0.460999-0.696991-0.460999-1.11499v-5.67601c0-0.417999,0.165985-0.819,0.460999-1.11499
				C184.637177,193.199478,185.036194,193.033478,185.453186,193.033478z"/>
			<path class="st2" d="M177.280182,193.033478c0.417023,0,0.817017,0.166,1.110992,0.462006
				c0.295013,0.29599,0.461029,0.696991,0.461029,1.11499v5.67601c0,0.417999-0.166016,0.819-0.461029,1.11499
				c-0.293976,0.296005-0.69397,0.462006-1.110992,0.462006c-0.416992,0-0.816986-0.166-1.110992-0.462006
				c-0.295013-0.29599-0.460999-0.696991-0.460999-1.11499v-5.67601c0-0.417999,0.165985-0.819,0.460999-1.11499
				C176.463196,193.199478,176.86319,193.033478,177.280182,193.033478z"/>
			<path class="st2" d="M169.107178,193.033478c0.417023,0,0.817017,0.166,1.111023,0.462006
				c0.294983,0.29599,0.460999,0.696991,0.460999,1.11499v5.67601c0,0.417999-0.166016,0.819-0.460999,1.11499
				c-0.294006,0.296005-0.694,0.462006-1.111023,0.462006c-0.416992,0-0.816986-0.166-1.110992-0.462006
				c-0.294983-0.29599-0.460999-0.696991-0.460999-1.11499v-5.67601c0-0.417999,0.166016-0.819,0.460999-1.11499
				C168.290192,193.199478,168.690186,193.033478,169.107178,193.033478z"/>
			<path class="st2" d="M154.019196,193.033478c0.415985,0,0.815979,0.166,1.110992,0.462006
				c0.295013,0.29599,0.459991,0.696991,0.459991,1.11499v5.67601c0,0.417999-0.164978,0.819-0.459991,1.11499
				c-0.295013,0.296005-0.695007,0.462006-1.110992,0.462006c-0.416992,0-0.817017-0.166-1.112-0.462006
				c-0.295013-0.29599-0.459991-0.696991-0.459991-1.11499v-5.67601c0-0.417999,0.164978-0.819,0.459991-1.11499
				C153.202179,193.199478,153.602203,193.033478,154.019196,193.033478z"/>
			<path class="st2" d="M145.846191,193.033478c0.415985,0,0.81601,0.166,1.110992,0.462006
				c0.295013,0.29599,0.459991,0.696991,0.459991,1.11499v5.67601c0,0.417999-0.164978,0.819-0.459991,1.11499
				c-0.294983,0.296005-0.695007,0.462006-1.110992,0.462006c-0.416992,0-0.817017-0.166-1.112-0.462006
				c-0.295013-0.29599-0.459991-0.696991-0.459991-1.11499v-5.67601c0-0.417999,0.164978-0.819,0.459991-1.11499
				C145.029175,193.199478,145.429199,193.033478,145.846191,193.033478z"/>
			<path class="st2" d="M137.673187,193.033478c0.416016,0,0.81601,0.166,1.110992,0.462006
				c0.295013,0.29599,0.460022,0.696991,0.460022,1.11499v5.67601c0,0.417999-0.165009,0.819-0.460022,1.11499
				c-0.294983,0.296005-0.694977,0.462006-1.110992,0.462006c-0.416992,0-0.816986-0.166-1.112-0.462006
				c-0.295013-0.29599-0.459991-0.696991-0.459991-1.11499v-5.67601c0-0.417999,0.164978-0.819,0.459991-1.11499
				C136.856201,193.199478,137.256195,193.033478,137.673187,193.033478z"/>
			<path class="st2" d="M129.499176,193.033478c0.417023,0,0.817017,0.166,1.112,0.462006
				c0.295013,0.29599,0.460022,0.696991,0.460022,1.11499v5.67601c0,0.417999-0.165009,0.819-0.460022,1.11499
				c-0.294983,0.296005-0.694977,0.462006-1.112,0.462006c-0.415985,0-0.815979-0.166-1.110992-0.462006
				c-0.294983-0.29599-0.459991-0.696991-0.459991-1.11499v-5.67601c0-0.417999,0.165009-0.819,0.459991-1.11499
				C128.683197,193.199478,129.083191,193.033478,129.499176,193.033478z"/>
			<path class="st2" d="M113.154175,193.033478c0.416016,0,0.81601,0.166,1.111023,0.462006
				c0.294983,0.29599,0.459991,0.696991,0.459991,1.11499v5.67601c0,0.417999-0.165009,0.819-0.459991,1.11499
				c-0.295013,0.296005-0.695007,0.462006-1.111023,0.462006c-0.416992,0-0.816986-0.166-1.112-0.462006
				c-0.294983-0.29599-0.459991-0.696991-0.459991-1.11499v-5.67601c0-0.417999,0.165009-0.819,0.459991-1.11499
				C112.337189,193.199478,112.737183,193.033478,113.154175,193.033478z"/>
			<path class="st2" d="M104.981201,193.033478c0.415985,0,0.815979,0.166,1.110992,0.462006
				c0.294983,0.29599,0.459991,0.696991,0.459991,1.11499v5.67601c0,0.417999-0.165009,0.819-0.459991,1.11499
				c-0.295013,0.296005-0.695007,0.462006-1.110992,0.462006c-0.417023,0-0.817017-0.166-1.112-0.462006
				c-0.294006-0.29599-0.460022-0.696991-0.460022-1.11499v-5.67601c0-0.417999,0.166016-0.819,0.460022-1.11499
				C104.164185,193.199478,104.564178,193.033478,104.981201,193.033478z"/>
			<path class="st2" d="M96.808197,193.033478c0.415985,0,0.815979,0.166,1.110992,0.462006
				c0.295013,0.29599,0.459991,0.696991,0.459991,1.11499v5.67601c0,0.417999-0.164978,0.819-0.459991,1.11499
				c-0.295013,0.296005-0.695007,0.462006-1.110992,0.462006c-0.417023,0-0.817017-0.166-1.112-0.462006
				c-0.295013-0.29599-0.460022-0.696991-0.460022-1.11499v-5.67601c0-0.417999,0.165009-0.819,0.460022-1.11499
				C95.99118,193.199478,96.391174,193.033478,96.808197,193.033478z"/>
			<path class="st2" d="M88.635193,193.033478c0.415985,0,0.81601,0.166,1.110992,0.462006
				c0.295013,0.29599,0.459991,0.696991,0.459991,1.11499v5.67601c0,0.417999-0.164978,0.819-0.459991,1.11499
				c-0.294983,0.296005-0.695007,0.462006-1.110992,0.462006c-0.416992,0-0.817017-0.166-1.112-0.462006
				c-0.295013-0.29599-0.459991-0.696991-0.459991-1.11499v-5.67601c0-0.417999,0.164978-0.819,0.459991-1.11499
				C87.818176,193.199478,88.218201,193.033478,88.635193,193.033478z"/>
			<path class="st2" d="M477.165985,92.754471c0.416809,0,0.81662,0.1661,1.111298,0.4618
				c0.2948,0.2957,0.460419,0.696701,0.460419,1.114899v5.676102c0,0.418198-0.165619,0.819199-0.460419,1.115196
				c-0.294678,0.295006-0.694489,0.461006-1.111298,0.461006c-0.416901,0-0.816681-0.166-1.111389-0.461006
				c-0.2948-0.295998-0.460388-0.696999-0.460388-1.115196v-5.676102c0-0.418198,0.165588-0.819199,0.460388-1.114899
				C476.349304,92.92057,476.749084,92.754471,477.165985,92.754471z"/>
			<path class="st2" d="M468.993195,92.754471c0.416992,0,0.81601,0.1661,1.110992,0.4618
				c0.294891,0.2957,0.46051,0.696701,0.46051,1.114899v5.676102c0,0.418198-0.165619,0.819199-0.46051,1.115196
				c-0.294983,0.295006-0.694,0.461006-1.110992,0.461006s-0.816986-0.166-1.112-0.461006
				c-0.294006-0.295998-0.459991-0.696999-0.459991-1.115196v-5.676102c0-0.418198,0.165985-0.819199,0.459991-1.114899
				C468.176208,92.92057,468.576202,92.754471,468.993195,92.754471z"/>
			<path class="st2" d="M460.82019,92.754471c0.416992,0,0.817017,0.1661,1.110992,0.4618
				c0.295013,0.2957,0.460999,0.696701,0.460999,1.114899v5.676102c0,0.418198-0.165985,0.819199-0.460999,1.115196
				c-0.293976,0.295006-0.694,0.461006-1.110992,0.461006s-0.816986-0.166-1.110992-0.461006
				c-0.295013-0.295998-0.460999-0.696999-0.460999-1.115196v-5.676102c0-0.418198,0.165985-0.819199,0.460999-1.114899
				C460.003204,92.92057,460.403198,92.754471,460.82019,92.754471z"/>
			<path class="st2" d="M452.647186,92.754471c0.416992,0,0.81601,0.1661,1.110992,0.4618
				c0.295013,0.2957,0.461029,0.696701,0.461029,1.114899v5.676102c0,0.418198-0.166016,0.819199-0.461029,1.115196
				c-0.294983,0.295006-0.694,0.461006-1.110992,0.461006s-0.816986-0.166-1.112-0.461006
				c-0.294006-0.295998-0.459991-0.696999-0.459991-1.115196v-5.676102c0-0.418198,0.165985-0.819199,0.459991-1.114899
				C451.8302,92.92057,452.230194,92.754471,452.647186,92.754471z"/>
			<path class="st2" d="M435.672211,92.754471c0.416992,0,0.816986,0.1661,1.110992,0.4618
				c0.294983,0.2957,0.460999,0.696701,0.460999,1.114899v5.676102c0,0.418198-0.166016,0.819199-0.460999,1.115196
				c-0.294006,0.295006-0.694,0.461006-1.110992,0.461006c-0.417023,0-0.817017-0.166-1.111023-0.461006
				c-0.294983-0.295998-0.460999-0.696999-0.460999-1.115196v-5.676102c0-0.418198,0.166016-0.819199,0.460999-1.114899
				C434.855194,92.92057,435.255188,92.754471,435.672211,92.754471z"/>
			<path class="st2" d="M427.499207,92.754471c0.416992,0,0.816986,0.1661,1.112,0.4618
				c0.293976,0.2957,0.459991,0.696701,0.459991,1.114899v5.676102c0,0.418198-0.166016,0.819199-0.459991,1.115196
				c-0.295013,0.295006-0.695007,0.461006-1.112,0.461006c-0.417023,0-0.81601-0.166-1.111023-0.461006
				c-0.294983-0.295998-0.460999-0.696999-0.460999-1.115196v-5.676102c0-0.418198,0.166016-0.819199,0.460999-1.114899
				C426.683197,92.92057,427.082184,92.754471,427.499207,92.754471z"/>
			<path class="st2" d="M419.326202,92.754471c0.416992,0,0.816986,0.1661,1.112,0.4618
				c0.294006,0.2957,0.459991,0.696701,0.459991,1.114899v5.676102c0,0.418198-0.165985,0.819199-0.459991,1.115196
				c-0.295013,0.295006-0.695007,0.461006-1.112,0.461006s-0.81601-0.166-1.110992-0.461006
				c-0.295013-0.295998-0.460022-0.696999-0.460022-1.115196v-5.676102c0-0.418198,0.165009-0.819199,0.460022-1.114899
				C418.510193,92.92057,418.90921,92.754471,419.326202,92.754471z"/>
			<path class="st2" d="M411.153198,92.754471c0.416992,0,0.816986,0.1661,1.112,0.4618
				c0.294006,0.2957,0.459991,0.696701,0.459991,1.114899v5.676102c0,0.418198-0.165985,0.819199-0.459991,1.115196
				c-0.295013,0.295006-0.695007,0.461006-1.112,0.461006s-0.81601-0.166-1.110992-0.461006
				c-0.295013-0.295998-0.460999-0.696999-0.460999-1.115196v-5.676102c0-0.418198,0.165985-0.819199,0.460999-1.114899
				C410.337189,92.92057,410.736206,92.754471,411.153198,92.754471z"/>
			<path class="st2" d="M395.436188,92.754471c0.417023,0,0.817017,0.1661,1.111023,0.4618
				c0.294983,0.2957,0.460999,0.696701,0.460999,1.114899v5.676102c0,0.418198-0.166016,0.819199-0.460999,1.115196
				c-0.294006,0.295006-0.694,0.461006-1.111023,0.461006c-0.416992,0-0.816986-0.166-1.110992-0.461006
				c-0.295013-0.295998-0.460999-0.696999-0.460999-1.115196v-5.676102c0-0.418198,0.165985-0.819199,0.460999-1.114899
				C394.619202,92.92057,395.019196,92.754471,395.436188,92.754471z"/>
			<path class="st2" d="M387.263184,92.754471c0.417023,0,0.817017,0.1661,1.111023,0.4618
				c0.294983,0.2957,0.460999,0.696701,0.460999,1.114899v5.676102c0,0.418198-0.166016,0.819199-0.460999,1.115196
				c-0.294006,0.295006-0.694,0.461006-1.111023,0.461006c-0.416992,0-0.816986-0.166-1.110992-0.461006
				c-0.294983-0.295998-0.460999-0.696999-0.460999-1.115196v-5.676102c0-0.418198,0.166016-0.819199,0.460999-1.114899
				C386.446198,92.92057,386.846191,92.754471,387.263184,92.754471z"/>
			<path class="st2" d="M379.09021,92.754471c0.416992,0,0.816986,0.1661,1.110992,0.4618
				c0.294983,0.2957,0.460999,0.696701,0.460999,1.114899v5.676102c0,0.418198-0.166016,0.819199-0.460999,1.115196
				c-0.294006,0.295006-0.694,0.461006-1.110992,0.461006c-0.417023,0-0.817017-0.166-1.111023-0.461006
				c-0.294983-0.295998-0.460999-0.696999-0.460999-1.115196v-5.676102c0-0.418198,0.166016-0.819199,0.460999-1.114899
				C378.273193,92.92057,378.673187,92.754471,379.09021,92.754471z"/>
			<path class="st2" d="M370.917206,92.754471c0.416992,0,0.816986,0.1661,1.110992,0.4618
				c0.295013,0.2957,0.460999,0.696701,0.460999,1.114899v5.676102c0,0.418198-0.165985,0.819199-0.460999,1.115196
				c-0.294006,0.295006-0.694,0.461006-1.110992,0.461006c-0.417023,0-0.817017-0.166-1.111023-0.461006
				c-0.294983-0.295998-0.460999-0.696999-0.460999-1.115196v-5.676102c0-0.418198,0.166016-0.819199,0.460999-1.114899
				C370.100189,92.92057,370.500183,92.754471,370.917206,92.754471z"/>
			<path class="st2" d="M355.200195,92.754471c0.416992,0,0.81601,0.1661,1.110992,0.4618
				c0.295013,0.2957,0.460022,0.696701,0.460022,1.114899v5.676102c0,0.418198-0.165009,0.819199-0.460022,1.115196
				c-0.294983,0.295006-0.694,0.461006-1.110992,0.461006s-0.816986-0.166-1.112-0.461006
				c-0.294006-0.295998-0.459991-0.696999-0.459991-1.115196v-5.676102c0-0.418198,0.165985-0.819199,0.459991-1.114899
				C354.383209,92.92057,354.783203,92.754471,355.200195,92.754471z"/>
			<path class="st2" d="M347.027191,92.754471c0.416992,0,0.81601,0.1661,1.110992,0.4618
				c0.295013,0.2957,0.460022,0.696701,0.460022,1.114899v5.676102c0,0.418198-0.165009,0.819199-0.460022,1.115196
				c-0.294983,0.295006-0.694,0.461006-1.110992,0.461006s-0.816986-0.166-1.112-0.461006
				c-0.294006-0.295998-0.459991-0.696999-0.459991-1.115196v-5.676102c0-0.418198,0.165985-0.819199,0.459991-1.114899
				C346.210205,92.92057,346.610199,92.754471,347.027191,92.754471z"/>
			<path class="st2" d="M338.854187,92.754471c0.417023,0,0.81601,0.1661,1.111023,0.4618
				c0.294983,0.2957,0.459991,0.696701,0.459991,1.114899v5.676102c0,0.418198-0.165009,0.819199-0.459991,1.115196
				c-0.295013,0.295006-0.694,0.461006-1.111023,0.461006c-0.416992,0-0.816986-0.166-1.112-0.461006
				c-0.293976-0.295998-0.459991-0.696999-0.459991-1.115196v-5.676102c0-0.418198,0.166016-0.819199,0.459991-1.114899
				C338.037201,92.92057,338.437195,92.754471,338.854187,92.754471z"/>
			<path class="st2" d="M330.681183,92.754471c0.417023,0,0.81601,0.1661,1.111023,0.4618
				c0.294983,0.2957,0.459991,0.696701,0.459991,1.114899v5.676102c0,0.418198-0.165009,0.819199-0.459991,1.115196
				c-0.295013,0.295006-0.694,0.461006-1.111023,0.461006c-0.416992,0-0.816986-0.166-1.112-0.461006
				c-0.293976-0.295998-0.459991-0.696999-0.459991-1.115196v-5.676102c0-0.418198,0.166016-0.819199,0.459991-1.114899
				C329.864197,92.92057,330.264191,92.754471,330.681183,92.754471z"/>
			<path class="st2" d="M313.706177,92.754471c0.417023,0,0.817017,0.1661,1.111023,0.4618
				c0.294983,0.2957,0.460999,0.696701,0.460999,1.114899v5.676102c0,0.418198-0.166016,0.819199-0.460999,1.115196
				c-0.294006,0.295006-0.694,0.461006-1.111023,0.461006c-0.416992,0-0.816986-0.166-1.110992-0.461006
				c-0.294983-0.295998-0.460999-0.696999-0.460999-1.115196v-5.676102c0-0.418198,0.166016-0.819199,0.460999-1.114899
				C312.889191,92.92057,313.289185,92.754471,313.706177,92.754471z"/>
			<path class="st2" d="M305.533203,92.754471c0.416992,0,0.816986,0.1661,1.112,0.4618
				c0.293976,0.2957,0.459991,0.696701,0.459991,1.114899v5.676102c0,0.418198-0.166016,0.819199-0.459991,1.115196
				c-0.295013,0.295006-0.695007,0.461006-1.112,0.461006c-0.417023,0-0.81601-0.166-1.111023-0.461006
				c-0.294983-0.295998-0.460999-0.696999-0.460999-1.115196v-5.676102c0-0.418198,0.166016-0.819199,0.460999-1.114899
				C304.717194,92.92057,305.11618,92.754471,305.533203,92.754471z"/>
			<path class="st2" d="M297.360199,92.754471c0.416992,0,0.816986,0.1661,1.110992,0.4618
				c0.294983,0.2957,0.460999,0.696701,0.460999,1.114899v5.676102c0,0.418198-0.166016,0.819199-0.460999,1.115196
				c-0.294006,0.295006-0.694,0.461006-1.110992,0.461006c-0.417023,0-0.817017-0.166-1.111023-0.461006
				c-0.294983-0.295998-0.460999-0.696999-0.460999-1.115196v-5.676102c0-0.418198,0.166016-0.819199,0.460999-1.114899
				C296.543182,92.92057,296.943176,92.754471,297.360199,92.754471z"/>
			<path class="st2" d="M289.187195,92.754471c0.416992,0,0.816986,0.1661,1.110992,0.4618
				c0.295013,0.2957,0.460999,0.696701,0.460999,1.114899v5.676102c0,0.418198-0.165985,0.819199-0.460999,1.115196
				c-0.294006,0.295006-0.694,0.461006-1.110992,0.461006s-0.817017-0.166-1.110992-0.461006
				c-0.295013-0.295998-0.460999-0.696999-0.460999-1.115196v-5.676102c0-0.418198,0.165985-0.819199,0.460999-1.114899
				C288.370178,92.92057,288.770203,92.754471,289.187195,92.754471z"/>
			<path class="st2" d="M273.470184,92.754471c0.416992,0,0.81601,0.1661,1.110992,0.4618
				c0.295013,0.2957,0.460999,0.696701,0.460999,1.114899v5.676102c0,0.418198-0.165985,0.819199-0.460999,1.115196
				c-0.294983,0.295006-0.694,0.461006-1.110992,0.461006s-0.816986-0.166-1.112-0.461006
				c-0.294006-0.295998-0.459991-0.696999-0.459991-1.115196v-5.676102c0-0.418198,0.165985-0.819199,0.459991-1.114899
				C272.653198,92.92057,273.053192,92.754471,273.470184,92.754471z"/>
			<path class="st2" d="M265.29718,92.754471c0.417023,0,0.81601,0.1661,1.111023,0.4618
				c0.294983,0.2957,0.460999,0.696701,0.460999,1.114899v5.676102c0,0.418198-0.166016,0.819199-0.460999,1.115196
				c-0.295013,0.295006-0.694,0.461006-1.111023,0.461006c-0.416992,0-0.816986-0.166-1.112-0.461006
				c-0.294006-0.295998-0.459991-0.696999-0.459991-1.115196v-5.676102c0-0.418198,0.165985-0.819199,0.459991-1.114899
				C264.480194,92.92057,264.880188,92.754471,265.29718,92.754471z"/>
			<path class="st2" d="M257.124176,92.754471c0.417023,0,0.817017,0.1661,1.111023,0.4618
				c0.294983,0.2957,0.460999,0.696701,0.460999,1.114899v5.676102c0,0.418198-0.166016,0.819199-0.460999,1.115196
				c-0.294006,0.295006-0.694,0.461006-1.111023,0.461006c-0.416992,0-0.816986-0.166-1.110992-0.461006
				c-0.294983-0.295998-0.460999-0.696999-0.460999-1.115196v-5.676102c0-0.418198,0.166016-0.819199,0.460999-1.114899
				C256.30719,92.92057,256.707184,92.754471,257.124176,92.754471z"/>
			<path class="st2" d="M248.951202,92.754471c0.416992,0,0.816986,0.1661,1.110992,0.4618
				c0.294983,0.2957,0.460999,0.696701,0.460999,1.114899v5.676102c0,0.418198-0.166016,0.819199-0.460999,1.115196
				c-0.294006,0.295006-0.694,0.461006-1.110992,0.461006c-0.417023,0-0.817017-0.166-1.111023-0.461006
				c-0.294983-0.295998-0.460999-0.696999-0.460999-1.115196v-5.676102c0-0.418198,0.166016-0.819199,0.460999-1.114899
				C248.134186,92.92057,248.53418,92.754471,248.951202,92.754471z"/>
			<path class="st2" d="M233.862183,92.754471c0.416992,0,0.817017,0.1661,1.112,0.4618
				c0.295013,0.2957,0.460022,0.696701,0.460022,1.114899v5.676102c0,0.418198-0.165009,0.819199-0.460022,1.115196
				c-0.294983,0.295006-0.695007,0.461006-1.112,0.461006c-0.415985,0-0.815979-0.166-1.110992-0.461006
				c-0.295013-0.295998-0.459991-0.696999-0.459991-1.115196v-5.676102c0-0.418198,0.164978-0.819199,0.459991-1.114899
				S233.446198,92.754471,233.862183,92.754471z"/>
			<path class="st2" d="M225.689178,92.754471c0.417023,0,0.817017,0.1661,1.112,0.4618
				c0.294006,0.2957,0.460022,0.696701,0.460022,1.114899v5.676102c0,0.418198-0.166016,0.819199-0.460022,1.115196
				c-0.294983,0.295006-0.694977,0.461006-1.112,0.461006c-0.416992,0-0.815979-0.166-1.110992-0.461006
				c-0.294983-0.295998-0.459991-0.696999-0.459991-1.115196v-5.676102c0-0.418198,0.165009-0.819199,0.459991-1.114899
				C224.873199,92.92057,225.272186,92.754471,225.689178,92.754471z"/>
			<path class="st2" d="M217.516174,92.754471c0.417023,0,0.817017,0.1661,1.11203,0.4618
				c0.293976,0.2957,0.459991,0.696701,0.459991,1.114899v5.676102c0,0.418198-0.166016,0.819199-0.459991,1.115196
				c-0.295013,0.295006-0.695007,0.461006-1.11203,0.461006c-0.416992,0-0.815979-0.166-1.110992-0.461006
				c-0.294983-0.295998-0.459991-0.696999-0.459991-1.115196v-5.676102c0-0.418198,0.165009-0.819199,0.459991-1.114899
				C216.700195,92.92057,217.099182,92.754471,217.516174,92.754471z"/>
			<path class="st2" d="M209.343201,92.754471c0.416992,0,0.816986,0.1661,1.112,0.4618
				c0.293976,0.2957,0.459991,0.696701,0.459991,1.114899v5.676102c0,0.418198-0.166016,0.819199-0.459991,1.115196
				c-0.295013,0.295006-0.695007,0.461006-1.112,0.461006c-0.417023,0-0.81601-0.166-1.111023-0.461006
				c-0.294983-0.295998-0.459991-0.696999-0.459991-1.115196v-5.676102c0-0.418198,0.165009-0.819199,0.459991-1.114899
				C208.527191,92.92057,208.926178,92.754471,209.343201,92.754471z"/>
			<path class="st2" d="M193.62619,92.754471c0.416992,0,0.816986,0.1661,1.110992,0.4618
				c0.295013,0.2957,0.460999,0.696701,0.460999,1.114899v5.676102c0,0.418198-0.165985,0.819199-0.460999,1.115196
				c-0.294006,0.295006-0.694,0.461006-1.110992,0.461006s-0.816986-0.166-1.110992-0.461006
				c-0.295013-0.295998-0.460999-0.696999-0.460999-1.115196v-5.676102c0-0.418198,0.165985-0.819199,0.460999-1.114899
				C192.809204,92.92057,193.209198,92.754471,193.62619,92.754471z"/>
			<path class="st2" d="M185.453186,92.754471c0.416992,0,0.817017,0.1661,1.112,0.4618
				c0.294006,0.2957,0.459991,0.696701,0.459991,1.114899v5.676102c0,0.418198-0.165985,0.819199-0.459991,1.115196
				c-0.294983,0.295006-0.695007,0.461006-1.112,0.461006s-0.81601-0.166-1.110992-0.461006
				c-0.295013-0.295998-0.460999-0.696999-0.460999-1.115196v-5.676102c0-0.418198,0.165985-0.819199,0.460999-1.114899
				C184.637177,92.92057,185.036194,92.754471,185.453186,92.754471z"/>
			<path class="st2" d="M177.280182,92.754471c0.417023,0,0.817017,0.1661,1.110992,0.4618
				c0.295013,0.2957,0.461029,0.696701,0.461029,1.114899v5.676102c0,0.418198-0.166016,0.819199-0.461029,1.115196
				c-0.293976,0.295006-0.69397,0.461006-1.110992,0.461006c-0.416992,0-0.816986-0.166-1.110992-0.461006
				c-0.295013-0.295998-0.460999-0.696999-0.460999-1.115196v-5.676102c0-0.418198,0.165985-0.819199,0.460999-1.114899
				C176.463196,92.92057,176.86319,92.754471,177.280182,92.754471z"/>
			<path class="st2" d="M169.107178,92.754471c0.417023,0,0.817017,0.1661,1.111023,0.4618
				c0.294983,0.2957,0.460999,0.696701,0.460999,1.114899v5.676102c0,0.418198-0.166016,0.819199-0.460999,1.115196
				c-0.294006,0.295006-0.694,0.461006-1.111023,0.461006c-0.416992,0-0.816986-0.166-1.110992-0.461006
				c-0.294983-0.295998-0.460999-0.696999-0.460999-1.115196v-5.676102c0-0.418198,0.166016-0.819199,0.460999-1.114899
				C168.290192,92.92057,168.690186,92.754471,169.107178,92.754471z"/>
			<path class="st2" d="M154.019196,92.754471c0.415985,0,0.815979,0.1661,1.110992,0.4618s0.459991,0.696701,0.459991,1.114899
				v5.676102c0,0.418198-0.164978,0.819199-0.459991,1.115196c-0.295013,0.295006-0.695007,0.461006-1.110992,0.461006
				c-0.416992,0-0.817017-0.166-1.112-0.461006c-0.295013-0.295998-0.459991-0.696999-0.459991-1.115196v-5.676102
				c0-0.418198,0.164978-0.819199,0.459991-1.114899C153.202179,92.92057,153.602203,92.754471,154.019196,92.754471z"/>
			<path class="st2" d="M145.846191,92.754471c0.415985,0,0.81601,0.1661,1.110992,0.4618
				c0.295013,0.2957,0.459991,0.696701,0.459991,1.114899v5.676102c0,0.418198-0.164978,0.819199-0.459991,1.115196
				c-0.294983,0.295006-0.695007,0.461006-1.110992,0.461006c-0.416992,0-0.817017-0.166-1.112-0.461006
				c-0.295013-0.295998-0.459991-0.696999-0.459991-1.115196v-5.676102c0-0.418198,0.164978-0.819199,0.459991-1.114899
				C145.029175,92.92057,145.429199,92.754471,145.846191,92.754471z"/>
			<path class="st2" d="M137.673187,92.754471c0.416016,0,0.81601,0.1661,1.110992,0.4618
				c0.295013,0.2957,0.460022,0.696701,0.460022,1.114899v5.676102c0,0.418198-0.165009,0.819199-0.460022,1.115196
				c-0.294983,0.295006-0.694977,0.461006-1.110992,0.461006c-0.416992,0-0.816986-0.166-1.112-0.461006
				c-0.295013-0.295998-0.459991-0.696999-0.459991-1.115196v-5.676102c0-0.418198,0.164978-0.819199,0.459991-1.114899
				S137.256195,92.754471,137.673187,92.754471z"/>
			<path class="st2" d="M129.499176,92.754471c0.417023,0,0.817017,0.1661,1.112,0.4618
				c0.295013,0.2957,0.460022,0.696701,0.460022,1.114899v5.676102c0,0.418198-0.165009,0.819199-0.460022,1.115196
				c-0.294983,0.295006-0.694977,0.461006-1.112,0.461006c-0.415985,0-0.815979-0.166-1.110992-0.461006
				c-0.294983-0.295998-0.459991-0.696999-0.459991-1.115196v-5.676102c0-0.418198,0.165009-0.819199,0.459991-1.114899
				C128.683197,92.92057,129.083191,92.754471,129.499176,92.754471z"/>
			<path class="st2" d="M113.154175,92.754471c0.416016,0,0.81601,0.1661,1.111023,0.4618
				c0.294983,0.2957,0.459991,0.696701,0.459991,1.114899v5.676102c0,0.418198-0.165009,0.819199-0.459991,1.115196
				c-0.295013,0.295006-0.695007,0.461006-1.111023,0.461006c-0.416992,0-0.816986-0.166-1.112-0.461006
				c-0.294983-0.295998-0.459991-0.696999-0.459991-1.115196v-5.676102c0-0.418198,0.165009-0.819199,0.459991-1.114899
				C112.337189,92.92057,112.737183,92.754471,113.154175,92.754471z"/>
			<path class="st2" d="M104.981201,92.754471c0.415985,0,0.815979,0.1661,1.110992,0.4618
				c0.294983,0.2957,0.459991,0.696701,0.459991,1.114899v5.676102c0,0.418198-0.165009,0.819199-0.459991,1.115196
				c-0.295013,0.295006-0.695007,0.461006-1.110992,0.461006c-0.417023,0-0.817017-0.166-1.112-0.461006
				c-0.295013-0.295998-0.460022-0.696999-0.460022-1.115196v-5.676102c0-0.418198,0.165009-0.819199,0.460022-1.114899
				C104.164185,92.92057,104.564178,92.754471,104.981201,92.754471z"/>
			<path class="st2" d="M96.808197,92.754471c0.415985,0,0.815979,0.1661,1.110992,0.4618s0.459991,0.696701,0.459991,1.114899
				v5.676102c0,0.418198-0.164978,0.819199-0.459991,1.115196c-0.295013,0.295006-0.695007,0.461006-1.110992,0.461006
				c-0.417023,0-0.817017-0.166-1.112-0.461006c-0.295013-0.295998-0.460022-0.696999-0.460022-1.115196v-5.676102
				c0-0.418198,0.165009-0.819199,0.460022-1.114899C95.99118,92.92057,96.391174,92.754471,96.808197,92.754471z"/>
			<path class="st2" d="M88.635193,92.754471c0.415985,0,0.81601,0.1661,1.110992,0.4618
				c0.295013,0.2957,0.459991,0.696701,0.459991,1.114899v5.676102c0,0.418198-0.164978,0.819199-0.459991,1.115196
				c-0.294983,0.295006-0.695007,0.461006-1.110992,0.461006c-0.416992,0-0.817017-0.166-1.112-0.461006
				c-0.295013-0.295998-0.459991-0.696999-0.459991-1.115196v-5.676102c0-0.418198,0.164978-0.819199,0.459991-1.114899
				C87.818176,92.92057,88.218201,92.754471,88.635193,92.754471z"/>
		</g>
	</g>
</g>
</svg>
