<svg xmlns="http://www.w3.org/2000/svg" viewBox="0 0 1000 1000"><defs><style>.cls-1{fill:#f34336;}.cls-2{opacity:0.15;}.cls-3{fill:#455a64;}.cls-4{fill:#e1ecf1;}.cls-5{fill:#d02e2b;}</style></defs><title>m1khan icons FINALArtboard 1 copy 6</title><g id="color"><path class="cls-1" d="M788.66,516c-21.91,33.22-79.57,59.51-111.48,72l-2,.78c-1.39.54-2.71,1.05-4,1.53.49,1.32.93,2.67,1.34,4.06.2.68.4,1.36.58,2,5.51,20.61,3.22,48.93-29.72,77.59-88.64,39.52-97.19,42.73-119.61,49.13-19.54,5.59-39.08,2.26-54.39-7.88a63,63,0,0,1-6.49-4.93C450.08,699.22,343.44,592.24,301.44,550A77,77,0,0,1,290.71,455a54,54,0,0,1,4.52-6.28S433,252.16,449,232.93s98.26-86.51,186.91-27.77c90.78,85.44,141,136.71,152.73,149.53S832.44,446.54,788.66,516Z"/><path class="cls-2" d="M810.6,425.22c-5-18-11.76-31-15.94-35.53-11.75-12.82-61.95-64.09-152.73-149.53C553.28,181.42,471,248.71,455,267.93S301.23,483.67,301.23,483.67a54,54,0,0,0-4.52,6.28,75.4,75.4,0,0,0-11.64,35.77A76.27,76.27,0,0,1,290.71,455a54,54,0,0,1,4.52-6.28S433,252.16,449,232.93s98.26-86.51,186.91-27.77c90.78,85.44,141,136.71,152.73,149.53C795.23,361.87,808.18,389.82,810.6,425.22Z"/><path class="cls-3" d="M417.26,665.87l-8.77-8.62A65.61,65.61,0,0,0,315.7,750L186.62,621a20.84,20.84,0,0,1,0-29.49l64.73-64.74a20.87,20.87,0,0,1,29.5,0l10,10A77,77,0,0,0,301.44,550C327.7,576.41,379.19,628.09,417.26,665.87Z"/><path class="cls-4" d="M480.15,734.66A20.8,20.8,0,0,1,474,749.41L409.3,814.14a20.85,20.85,0,0,1-29.5,0L315.7,750a65.61,65.61,0,1,1,92.79-92.79l8.77,8.62.05,0,4.17,4.13,2.74,2.71,2.7,2.66q4,4,7.66,7.58l2.42,2.38c.62.62,1.24,1.22,1.85,1.81.92.92,1.84,1.82,2.74,2.7.59.57,1.16,1.15,1.73,1.7,2.65,2.59,5.09,5,7.31,7.13l1.49,1.44,1.63,1.58.26.25.78.75c3.82,3.68,6.61,6.29,8.12,7.6a63,63,0,0,0,6.49,4.93l4.64,4.64a20.9,20.9,0,0,1,4.08,5.78c.17.35.33.71.47,1.06s.26.67.38,1c0,0,0,.1,0,.17.12.34.23.68.32,1a11.09,11.09,0,0,1,.28,1.1.25.25,0,0,1,0,.07c.08.33.14.66.2,1l0,.17c.05.31.09.62.13.92l0,.25c0,.35.06.7.08,1S480.15,734.27,480.15,734.66Z"/><circle class="cls-3" cx="389.21" cy="731.7" r="32.04"/><path class="cls-2" d="M480.15,734.66A20.8,20.8,0,0,1,474,749.41l-2.75,2.75-1.89-1.89a63,63,0,0,1-6.49-4.93c-1.51-1.31-4.3-3.92-8.12-7.6L454,737l-.26-.25-1.63-1.58-1.49-1.44c-2.22-2.15-4.66-4.54-7.31-7.13-.57-.55-1.14-1.13-1.73-1.7-.9-.88-1.82-1.78-2.74-2.7-.61-.59-1.23-1.19-1.85-1.81L434.58,718q-3.68-3.63-7.66-7.58l-2.7-2.66-2.74-2.71-4.17-4.13-.05,0C379.19,663.09,327.7,611.41,301.44,585a77,77,0,0,1-10.63-13.36l-10-10a20.87,20.87,0,0,0-29.5,0l-62,62L186.62,621a20.84,20.84,0,0,1,0-29.49l64.73-64.74a20.87,20.87,0,0,1,29.5,0l10,10A77,77,0,0,0,301.44,550c26.26,26.37,77.75,78.05,115.82,115.83l.05,0,4.17,4.13,2.74,2.71,2.7,2.66q4,4,7.66,7.58l2.42,2.38c.62.62,1.24,1.22,1.85,1.81.92.92,1.84,1.82,2.74,2.7.59.57,1.16,1.15,1.73,1.7,2.65,2.59,5.09,5,7.31,7.13l1.49,1.44,1.63,1.58.26.25.78.75c3.82,3.68,6.61,6.29,8.12,7.6a63,63,0,0,0,6.49,4.93l4.64,4.64a20.9,20.9,0,0,1,4.08,5.78c.17.35.33.71.47,1.06s.26.67.38,1c0,0,0,.1,0,.17.12.34.23.68.32,1a11.09,11.09,0,0,1,.28,1.1.25.25,0,0,1,0,.07c.08.33.14.66.2,1l0,.17c.05.31.09.62.13.92l0,.25c0,.35.06.7.08,1S480.15,734.27,480.15,734.66Z"/><path class="cls-5" d="M675.19,588.79c-1.39.54-2.71,1.05-4,1.53.49,1.32.93,2.67,1.34,4.06.2.68.4,1.36.58,2a5.89,5.89,0,0,1-1.92.3,6.43,6.43,0,0,1-6-4.23,73.78,73.78,0,0,0-12.72-22.14c-7.37-8.41-68.89-71-90.25-90.22a44.43,44.43,0,0,0-30.15-11.67c-11.64,0-24.15,4.38-34.33,12l-.37.27c-10.94,8.38-18.55,21.91-19.86,35.33-1.22,12.34,2.77,24.12,11.57,34.06,24.26,27.41,73.84,73.86,74.34,74.33a6.41,6.41,0,1,1-8.76,9.36c-.44-.41-50.77-47.61-75.19-75.19-11.2-12.67-16.3-27.81-14.73-43.81a64.54,64.54,0,0,1,19.54-39.68c-7-7.22-15.62-15.94-25.58-25.92a67.74,67.74,0,0,1-8.36-10.06c-27.14-40.48-12.95-84.42-.28-104C461.84,317,484.2,282.9,484.27,282.8A6.4,6.4,0,1,1,495,289.85c-2.37,3.62-23.12,35.26-34.15,52.3s-23.27,55,.15,89.89a54.69,54.69,0,0,0,6.81,8.17c10.15,10.18,19.1,19.25,26.63,27A70.84,70.84,0,0,1,530,455.75l2,0a57.24,57.24,0,0,1,38.85,14.89c21.58,19.44,83.84,82.79,91.31,91.33A85.33,85.33,0,0,1,677.18,588Z"/></g></svg>