<svg xmlns="http://www.w3.org/2000/svg" viewBox="0 0 1000 1000"><defs><style>.cls-1{fill:#b63229;}.cls-2{fill:#f34336;}.cls-3{fill:#454546;}.cls-4{opacity:0.15;}</style></defs><title>m1khan icons FINALArtboard 1 copy 10</title><g id="color"><path class="cls-1" d="M368.51,732.22a177.07,177.07,0,0,0,29.62,2.89L492.75,696a42.37,42.37,0,0,1,16.1-3.19H787.54c14.46,0,26.7-13.35,26.7-33.38,0-2.69.1-6.52.28-11.12H514.74A48.93,48.93,0,0,0,488.46,656Z"/><path class="cls-2" d="M192.29,550.42c52.3,92.34,80.11,130.17,80.11,130.17s34.47,40.36,96.1,51.63h0l120-76.25a48.93,48.93,0,0,1,26.28-7.64H814.52c.79-20.94,3.1-58,4.4-77.8A38.35,38.35,0,0,0,812.05,546c-5.81-8.29-14.53-20.74-25-35.61L627.92,549.47A40.25,40.25,0,0,1,611,550c-30.7-5.57-134.62-24.54-145-27.38-12.24-3.34-52.3-37.83-20-84.56,8.9-14.46,51.18-22.25,70.09-24.48s43.39-7.78,43.39-7.78l105.16-69.11c-1.4-2-2.71-3.78-3.91-5.44-12.25-12.85-29.81-25-50.71-35.26l-67,43.87a52.36,52.36,0,0,1-39.42,7.5c-29.51-6.17-86-13.67-134.36,5C308.33,375.94,219.72,435,181.39,482.23,179.9,502.16,182.51,525,192.29,550.42Z"/><path class="cls-1" d="M181.39,482.23C219.72,435,308.33,375.94,369.2,352.37c48.33-18.7,104.85-11.2,134.36-5a52.36,52.36,0,0,0,39.42-7.5L610,296c-56.93-28-138.75-42.34-206.3-20.37-92.35,30-170.23,104.59-182.47,117.94C212.56,403,185,434.11,181.39,482.23Z"/><path class="cls-3" d="M466,522.6c10.41,2.84,114.33,21.81,145,27.38a40.25,40.25,0,0,0,16.89-.51l159.17-39.06.87-.22a9.12,9.12,0,0,0,5.3-14.08L681.35,336.26a9.11,9.11,0,0,0-12.47-2.39l-4.27,2.8L559.45,405.78s-24.47,5.56-43.39,7.78S454.87,423.58,446,438C413.7,484.77,453.76,519.26,466,522.6Z"/><path class="cls-4" d="M818.92,570.53c-1.29,19.83-3.61,56.86-4.4,77.8-.17,4.6-.27,8.43-.27,11.12,0,14-6,24.68-14.46,29.89,0-2.57.11-5.93.27-9.86.79-20.94,3.1-58,4.39-77.8a38.29,38.29,0,0,0-6.86-24.51c-5.81-8.29-14.53-20.74-25-35.61L650.15,367.83c-1.41-2-2.71-3.79-3.91-5.45-12.25-12.85-29.81-25-50.71-35.25-56.93-28-138.76-42.35-206.3-20.38-92.35,30-170.23,104.59-182.47,117.94a158.46,158.46,0,0,0-18.91,24.93c9.66-29.62,26.87-49,33.37-56.08,12.24-13.35,90.13-87.9,182.47-117.94C471.24,253.63,553.06,268,610,296c20.91,10.28,38.47,22.41,50.72,35.26,1.2,1.66,2.5,3.48,3.9,5.44l4.27-2.8a9.12,9.12,0,0,1,12.48,2.39l111.9,159.85A9.12,9.12,0,0,1,788,510.19l-.87.22c10.42,14.87,19.15,27.32,24.95,35.61A38.29,38.29,0,0,1,818.92,570.53Z"/></g></svg>