<svg width="122" height="32" viewBox="0 0 122 32" fill="none" xmlns="http://www.w3.org/2000/svg">
<path d="M20.9888 10.8957L13.8278 6.56863C13.3482 6.27908 12.8017 6.12488 12.2444 6.12185C11.6871 6.11883 11.139 6.2671 10.6564 6.55143L7.26591 8.54756V5.86925C7.26591 5.3762 7.17067 4.88798 6.98564 4.43248C6.8006 3.97697 6.52939 3.56311 6.1875 3.21453C5.84561 2.86594 5.43973 2.58947 4.99305 2.40089C4.54637 2.21231 4.06765 2.11533 3.58421 2.11548H2.42406C2.26176 2.11578 2.10621 2.18175 1.99155 2.2989C1.8769 2.41605 1.8125 2.57482 1.8125 2.74034V22.3691C1.81249 22.928 1.95588 23.4773 2.22843 23.9622C2.50098 24.4471 2.8932 24.8509 3.36612 25.1334L10.5957 29.4467C11.0772 29.7331 11.6246 29.8841 12.182 29.8841C12.7394 29.8841 13.2867 29.7331 13.7682 29.4467L20.9764 25.1425C21.4491 24.8602 21.8412 24.4566 22.1135 23.9718C22.3859 23.4871 22.5291 22.9381 22.5289 22.3794V13.6519C22.5292 13.0956 22.3873 12.5489 22.1172 12.0655C21.8471 11.5822 21.4582 11.179 20.9888 10.8957ZM17.7107 23.0352C16.7661 23.9926 15.5656 24.6444 14.2595 24.909C12.9533 25.1736 11.5996 25.0393 10.368 24.5229C9.13639 24.0064 8.08156 23.1308 7.33565 22.0057C6.58975 20.8806 6.18594 19.5561 6.1748 18.198C6.16366 16.8399 6.5457 15.5086 7.27305 14.371C8.00039 13.2333 9.04072 12.3398 10.2637 11.8024C11.4867 11.2651 12.838 11.1077 14.1483 11.35C15.4586 11.5923 16.6696 12.2236 17.6298 13.1647C17.6492 13.184 17.6646 13.2071 17.6751 13.2326C17.6856 13.2581 17.6911 13.2855 17.6911 13.3131C17.6911 13.3408 17.6856 13.3682 17.6751 13.3937C17.6646 13.4192 17.6492 13.4423 17.6298 13.4616L13.0723 17.9755C13.0509 17.9969 13.0339 18.0224 13.0223 18.0506C13.0107 18.0787 13.0047 18.1089 13.0047 18.1395C13.0047 18.17 13.0107 18.2003 13.0223 18.2284C13.0339 18.2566 13.0509 18.2821 13.0723 18.3034L17.7028 22.7394C17.7229 22.758 17.739 22.7805 17.7503 22.8057C17.7616 22.8308 17.7678 22.858 17.7685 22.8856C17.7693 22.9132 17.7645 22.9407 17.7546 22.9664C17.7446 22.9921 17.7297 23.0155 17.7107 23.0352Z" fill="#64C800"/>
<path d="M10.2135 17.557C10.8406 17.557 11.349 17.0385 11.349 16.399C11.349 15.7594 10.8406 15.241 10.2135 15.241C9.58647 15.241 9.07812 15.7594 9.07812 16.399C9.07812 17.0385 9.58647 17.557 10.2135 17.557Z" fill="white"/>
<path d="M39.2884 17.8448C39.9135 17.4573 40.6543 16.7441 40.6543 14.5623C40.6869 11.0585 36.2374 10.875 36.2374 10.875H30.25V25.3214H37.0333C37.7611 25.3278 38.4788 25.148 39.1209 24.7986C40.0349 24.2883 41.0242 23.2932 41.1355 21.3589C41.2636 18.8836 39.6931 17.995 39.2884 17.8448ZM33.5832 13.7173H35.5831C35.9931 13.7173 36.3863 13.8834 36.6761 14.179C36.966 14.4747 37.1289 14.8756 37.1289 15.2938C37.1289 15.7119 36.966 16.1129 36.6761 16.4085C36.3863 16.7042 35.9931 16.8703 35.5831 16.8703H33.5832V13.7173ZM37.5617 21.3291C37.5618 21.494 37.5301 21.6574 37.4683 21.8098C37.4065 21.9621 37.3158 22.1006 37.2015 22.2172C37.0871 22.3338 36.9514 22.4263 36.802 22.4893C36.6525 22.5524 36.4924 22.5847 36.3307 22.5846H33.5832V19.2344H36.3307C36.4924 19.2343 36.6525 19.2666 36.802 19.3297C36.9514 19.3927 37.0871 19.4852 37.2015 19.6018C37.3158 19.7184 37.4065 19.8569 37.4683 20.0092C37.5301 20.1616 37.5618 20.325 37.5617 20.4899V21.3291Z" fill="white"/>
<path d="M54.1102 11.5503C54.1102 11.5503 49.718 9.47276 45.7913 11.6512C43.4114 13.0523 42.9943 15.6801 43.0426 17.9571C43.091 20.2342 43.0426 22.4871 45.3742 24.3388C47.7058 26.1904 53.0063 25.6412 54.1102 24.6151L53.2109 21.8634C53.2109 21.8634 50.3521 23.4686 47.7181 21.9781C46.6546 21.1938 46.5568 19.2585 46.5939 18.1154C46.631 16.9723 46.4961 14.3203 48.9008 13.7356C50.9456 13.3687 52.8759 14.0532 53.1221 14.1701L54.1102 11.5503Z" fill="white"/>
<path d="M60.2815 22.2532H57.3125V25.2812H60.2815V22.2532Z" fill="white"/>
<path d="M73.5013 11.6088C73.5013 11.6088 68.6842 9.39829 64.8058 11.8725C62.6698 13.3745 62.445 16.2294 62.499 18.48C62.5529 20.7307 62.7935 23.91 66.4988 25.162C70.5234 26.0873 73.616 24.536 73.616 24.536V18.2083H70.5357V22.4C70.5357 22.4 69.8983 22.6626 68.2413 22.4619C66.5842 22.2613 66.1053 20.373 66.057 19.1462C66.0087 17.9194 66.0334 16.0299 66.5235 15.0794C67.0137 14.1289 68.1187 13.5522 69.714 13.5889C70.6985 13.6202 71.6667 13.8542 72.5604 14.2768L73.5013 11.6088Z" fill="white"/>
<path d="M79.0475 16.2476H82.3582L81.297 19.2756H83.7095L80.6675 11.0079H83.9962L89.5418 25.2651H85.8241L84.5852 22.1615H80.3887L79.2724 25.2651H75.5547L79.0475 16.2476Z" fill="white"/>
<path d="M91.5312 11.0079H95.2006L98.6147 17.4148L102.117 11.0079H105.715L98.6237 23.0626L94.7464 16.5813V25.2651H91.5312V11.0079Z" fill="white"/>
<path d="M105.898 16.4803H102.617V25.2651H105.898V16.4803Z" fill="white"/>
<path d="M108.516 11.4081V25.2651H119.248L119.602 22.2199H112.013V19.7216H118.209L118.492 16.8438H111.988V14.4154H119.031L119.485 11.4081H108.516Z" fill="white"/>
</svg>
