<?xml version="1.0" encoding="utf-8"?>
<!-- Generator: Adobe Illustrator 27.0.0, SVG Export Plug-In . SVG Version: 6.00 Build 0)  -->
<svg version="1.1" id="Layer_1" xmlns="http://www.w3.org/2000/svg" xmlns:xlink="http://www.w3.org/1999/xlink" x="0px" y="0px"
	 viewBox="0 0 2000 2000" style="enable-background:new 0 0 2000 2000;" xml:space="preserve">
<style type="text/css">
	.st0{fill:#00C4FB;}
	.st1{fill:#FFFFFF;}
</style>
<g>
	<g>
		<g>
			<g>
				<g>
					<path class="st0" d="M1003.4,657.2l-99.3,140.7l0,0c-135.9,192-325.9,339.2-545.8,422.7l-122.9,46.7c0,0,599.4-844.6,604.7-851
						L1003.4,657.2z"/>
					<path class="st1" d="M1258.7,1033l3.1,0.7l-0.5-0.7l-55.4-81.2L840.1,416.1c37.7-45.3,90.8-83.2,168.8-83.2
						c85.2,0,141.6,45.3,181.5,103.1l574.3,831.1H794.8C902.7,1119,1075.3,1031.7,1258.7,1033z"/>
				</g>
				<polygon class="st0" points="1003.4,657.2 931.1,759.6 840.1,416.2 				"/>
			</g>
		</g>
		<g>
			<path class="st1" d="M236.1,1404.9H104v43.5h125.9c12.7,0,22.8,1.3,30.1,4c7.3,2.7,12.5,7.4,15.7,14.2c3.1,6.8,4.7,16.6,4.7,29.5
				v27.7c0,12.9-1.6,22.7-4.7,29.5c-3.1,6.8-8.3,11.6-15.7,14.2c-7.3,2.7-17.4,4-30.1,4H105.1c-12.7,0-22.8-1.3-30.1-4
				c-7.3-2.7-12.5-7.4-15.7-14.2c-3.1-6.8-4.7-16.6-4.7-29.5v-5.5l41.4-8.6v23.9h142.7v-46H113c-12.9,0-22.9-1.4-30.1-4.1
				c-7.2-2.7-12.3-7.5-15.4-14.3c-3-6.8-4.6-16.6-4.6-29.3v-22.4c0-12.9,1.5-22.7,4.6-29.5c3-6.8,8.2-11.6,15.5-14.2
				c7.3-2.7,17.3-4,30-4h114.6c12.5,0,22.2,1.3,29.3,3.8c7.1,2.5,12.3,7,15.7,13.3c3.4,6.3,5.1,15.4,5.1,27v4.2l-41.4,9.8
				L236.1,1404.9L236.1,1404.9z"/>
			<path class="st1" d="M408.9,1571.6v-201.9h172.8c10.6,0,19.2,1.3,25.8,3.9c6.6,2.6,11.5,6.8,14.8,12.5c3.3,5.7,4.9,13.3,4.9,22.7
				v45.1c0,9.4-1.6,17-4.9,22.6c-3.3,5.7-8.2,9.8-14.8,12.4c-6.6,2.6-15.2,3.9-25.8,3.9H455.2v78.7L408.9,1571.6L408.9,1571.6z
				 M560.6,1404.9H455.2v53.3h105.4c7.6,0,13.1-1.1,16.3-3.2s4.9-6.4,4.9-12.8v-21.5c0-6.2-1.6-10.4-4.7-12.6
				C574,1406,568.5,1404.9,560.6,1404.9z"/>
			<path class="st1" d="M726.7,1417.5c0-12.9,1.5-22.7,4.6-29.5c3-6.8,8.2-11.6,15.5-14.2c7.3-2.7,17.3-4,30-4h148.6
				c12.7,0,22.7,1.3,30,4c7.3,2.7,12.4,7.4,15.5,14.2c3,6.8,4.6,16.6,4.6,29.5v106.4c0,12.9-1.5,22.7-4.6,29.5
				c-3,6.8-8.2,11.6-15.5,14.2c-7.3,2.7-17.3,4-30,4H776.8c-12.7,0-22.7-1.3-30-4c-7.3-2.7-12.4-7.4-15.5-14.2s-4.6-16.6-4.6-29.5
				V1417.5z M773.7,1533.6h154.7V1406H773.7V1533.6z"/>
			<path class="st1" d="M1105.6,1571.6v-201.9h172.8c10.6,0,19.2,1.3,25.8,3.9c6.6,2.6,11.5,6.8,14.8,12.5
				c3.3,5.7,4.9,13.3,4.9,22.8v47.4c0,13.9-3.7,23.9-11,30c-7.4,6.1-18.8,9.2-34.4,9.2h-26.7l93.4,76h-67.6l-81.2-76h-44.4v76
				H1105.6z M1257.3,1404.9h-105.4v56h105.4c7.6,0,13.1-1.1,16.3-3.2c3.2-2.2,4.9-6.4,4.9-12.8v-24.2c0-6.2-1.6-10.4-4.7-12.6
				C1270.7,1406,1265.2,1404.9,1257.3,1404.9z"/>
			<path class="st1" d="M1544.4,1406v165.6h-47V1406h-92.6v-36.3h232.6v36.3H1544.4z"/>
			<path class="st1" d="M1901.2,1404.9H1769v43.5h125.9c12.7,0,22.8,1.3,30.1,4c7.3,2.7,12.5,7.4,15.7,14.2
				c3.1,6.8,4.7,16.6,4.7,29.5v27.7c0,12.9-1.6,22.7-4.7,29.5c-3.1,6.8-8.3,11.6-15.7,14.2c-7.3,2.7-17.4,4-30.1,4h-124.7
				c-12.7,0-22.8-1.3-30.1-4c-7.3-2.7-12.5-7.4-15.7-14.2c-3.1-6.8-4.7-16.6-4.7-29.5v-5.5l41.4-8.6v23.9h142.7v-46H1778
				c-12.9,0-22.9-1.4-30.1-4.1c-7.2-2.7-12.3-7.5-15.4-14.3c-3-6.8-4.6-16.6-4.6-29.3v-22.4c0-12.9,1.5-22.7,4.6-29.5
				c3-6.8,8.2-11.6,15.5-14.2c7.3-2.7,17.3-4,30-4h114.6c12.5,0,22.2,1.3,29.3,3.8c7.1,2.5,12.3,7,15.7,13.3
				c3.4,6.3,5.1,15.4,5.1,27v4.2l-41.4,9.8L1901.2,1404.9L1901.2,1404.9z"/>
		</g>
	</g>
	<polygon class="st1" points="1602.7,1033 1261.3,1033 1194.1,934.6 	"/>
</g>
</svg>
