<?xml version="1.0" encoding="utf-8"?>
<!-- Generator: Adobe Illustrator 25.2.0, SVG Export Plug-In . SVG Version: 6.00 Build 0)  -->
<svg version="1.1" id="Layer_1" xmlns="http://www.w3.org/2000/svg" xmlns:xlink="http://www.w3.org/1999/xlink" x="0px" y="0px"
	 viewBox="0 0 2000 2000" style="enable-background:new 0 0 2000 2000;" xml:space="preserve">
<style type="text/css">
	.st0{fill:#0D1317;}
	.st1{fill:#FFFFFF;}
	.st2{fill:#00C4FB;}
	.st3{fill:#CCCCCC;}
	.st4{fill:url(#SVGID_1_);}
</style>
<rect class="st0" width="2000" height="2000"/>
<g>
	<g>
		<g>
			<g>
				<g>
					<path class="st2" d="M1001.96,831.54l-56.71,80.33l0,0c-77.56,109.63-186.05,193.65-311.61,241.3l-70.18,26.64
						c0,0,342.22-482.17,345.24-485.84L1001.96,831.54z"/>
					<path class="st1" d="M1147.69,1046.09l1.79,0.42l-0.31-0.42l-31.63-46.35L908.7,693.91c21.54-25.85,51.81-47.5,96.37-47.5
						c48.66,0,80.82,25.85,103.62,58.85l327.9,474.5H882.85C944.44,1095.17,1043.01,1045.35,1147.69,1046.09z"/>
				</g>
				<polygon class="st3" points="1001.96,831.54 960.69,889.99 908.69,693.96 				"/>
			</g>
		</g>
		<g>
			<path class="st1" d="M563.9,1258.4h-75.45v24.86h71.85c7.27,0,12.99,0.76,17.17,2.29c4.18,1.53,7.16,4.24,8.94,8.13
				c1.78,3.89,2.68,9.5,2.68,16.84v15.81c0,7.34-0.89,12.96-2.68,16.85c-1.78,3.89-4.76,6.6-8.94,8.12
				c-4.18,1.53-9.91,2.29-17.17,2.29h-71.2c-7.27,0-12.99-0.76-17.17-2.29c-4.18-1.52-7.16-4.23-8.94-8.12
				c-1.78-3.89-2.67-9.5-2.67-16.85v-3.16l23.66-4.91v13.63h81.45v-26.28h-71.85c-7.34,0-13.07-0.78-17.17-2.35
				c-4.11-1.56-7.03-4.29-8.78-8.18c-1.74-3.89-2.62-9.46-2.62-16.74v-12.76c0-7.34,0.87-12.96,2.62-16.84
				c1.74-3.89,4.69-6.6,8.83-8.13c4.14-1.52,9.85-2.29,17.12-2.29H559c7.12,0,12.7,0.72,16.74,2.17c4.04,1.45,7.01,3.99,8.94,7.61
				c1.93,3.62,2.89,8.77,2.89,15.44v2.39l-23.66,5.59V1258.4z"/>
			<path class="st1" d="M662.56,1353.59v-115.25h98.68c6.06,0,10.97,0.75,14.73,2.23c3.76,1.49,6.57,3.87,8.43,7.15
				c1.86,3.27,2.79,7.6,2.79,12.98v25.73c0,5.38-0.93,9.69-2.79,12.92c-1.86,3.24-4.67,5.6-8.43,7.09
				c-3.76,1.49-8.67,2.24-14.73,2.24h-72.29v44.92H662.56z M749.15,1258.4h-60.2v30.42h60.2c4.36,0,7.46-0.61,9.31-1.84
				c1.85-1.23,2.77-3.66,2.77-7.28v-12.28c0-3.55-0.89-5.94-2.67-7.17C756.79,1259.02,753.66,1258.4,749.15,1258.4z"/>
			<path class="st1" d="M843.98,1265.6c0-7.34,0.87-12.96,2.62-16.84c1.74-3.89,4.69-6.6,8.83-8.13c4.14-1.52,9.85-2.29,17.12-2.29
				h84.83c7.27,0,12.98,0.76,17.12,2.29c4.14,1.53,7.09,4.24,8.83,8.13c1.74,3.89,2.62,9.5,2.62,16.84v60.73
				c0,7.34-0.87,12.96-2.62,16.85c-1.74,3.89-4.69,6.6-8.83,8.12c-4.14,1.53-9.85,2.29-17.12,2.29h-84.83
				c-7.27,0-12.98-0.76-17.12-2.29c-4.14-1.52-7.09-4.23-8.83-8.12c-1.74-3.89-2.62-9.5-2.62-16.85V1265.6z M870.8,1331.89h88.32
				v-72.83H870.8V1331.89z"/>
			<path class="st1" d="M1060.29,1353.59v-115.25h98.68c6.06,0,10.97,0.75,14.73,2.24c3.76,1.49,6.57,3.88,8.43,7.15
				c1.86,3.28,2.79,7.61,2.79,12.99v27.08c0,7.94-2.1,13.65-6.3,17.15c-4.2,3.49-10.75,5.24-19.65,5.24h-15.27l53.32,43.4h-38.6
				l-46.37-43.4h-25.37v43.4H1060.29z M1146.88,1258.4h-60.2v31.95h60.2c4.36,0,7.46-0.61,9.31-1.85c1.85-1.23,2.77-3.66,2.77-7.28
				v-13.8c0-3.55-0.89-5.94-2.67-7.17C1154.52,1259.02,1151.38,1258.4,1146.88,1258.4z"/>
			<path class="st1" d="M1310.83,1259.06v94.53H1284v-94.53h-52.88v-20.72h132.8v20.72H1310.83z"/>
			<path class="st1" d="M1514.49,1258.4h-75.45v24.86h71.85c7.27,0,12.99,0.76,17.17,2.29c4.18,1.53,7.16,4.24,8.94,8.13
				c1.78,3.89,2.68,9.5,2.68,16.84v15.81c0,7.34-0.89,12.96-2.68,16.85c-1.78,3.89-4.76,6.6-8.94,8.12
				c-4.18,1.53-9.91,2.29-17.17,2.29h-71.2c-7.27,0-12.99-0.76-17.17-2.29c-4.18-1.52-7.16-4.23-8.94-8.12
				c-1.78-3.89-2.67-9.5-2.67-16.85v-3.16l23.66-4.91v13.63h81.45v-26.28h-71.85c-7.34,0-13.07-0.78-17.17-2.35
				c-4.11-1.56-7.03-4.29-8.78-8.18c-1.74-3.89-2.62-9.46-2.62-16.74v-12.76c0-7.34,0.87-12.96,2.62-16.84
				c1.74-3.89,4.69-6.6,8.83-8.13c4.14-1.52,9.85-2.29,17.12-2.29h65.42c7.12,0,12.7,0.72,16.74,2.17c4.04,1.45,7.01,3.99,8.94,7.61
				c1.93,3.62,2.89,8.77,2.89,15.44v2.39l-23.66,5.59V1258.4z"/>
		</g>
	</g>
	<polygon class="st3" points="1344.11,1046.09 1149.16,1046.09 1110.81,989.89 	"/>
</g>
</svg>
