<?xml version="1.0" encoding="utf-8"?>
<!-- Generator: Adobe Illustrator 27.0.0, SVG Export Plug-In . SVG Version: 6.00 Build 0)  -->
<svg version="1.1" id="Layer_1" xmlns="http://www.w3.org/2000/svg" xmlns:xlink="http://www.w3.org/1999/xlink" x="0px" y="0px"
	 viewBox="0 0 1130.6 792" style="enable-background:new 0 0 1130.6 792;" xml:space="preserve">
<style type="text/css">
	.st0{fill:#00C4FB;}
	.st1{fill:#FFFFFF;}
</style>
<g>
	<g>
		<g>
			<g>
				<g>
					<path class="st0" d="M574.3,229.2l-54.8,77.7l0,0c-75,106-179.9,187.3-301.3,233.3L150.3,566c0,0,330.9-466.2,333.8-469.8
						L574.3,229.2z"/>
					<path class="st1" d="M715.2,436.7l1.7,0.4l-0.3-0.4l-30.6-44.8L484.1,96.1c20.8-25,50.1-45.9,93.2-45.9
						c47.1,0,78.2,25,100.2,56.9l317.1,458.8H459.1C518.7,484.1,614,435.9,715.2,436.7z"/>
				</g>
				<polygon class="st0" points="574.3,229.2 534.4,285.7 484.1,96.2 				"/>
			</g>
		</g>
		<g>
			<path class="st1" d="M150.7,641.9h-73v24h69.5c7,0,12.6,0.7,16.6,2.2c4,1.5,6.9,4.1,8.6,7.9c1.7,3.8,2.6,9.2,2.6,16.3v15.3
				c0,7.1-0.9,12.5-2.6,16.3c-1.7,3.8-4.6,6.4-8.6,7.9c-4,1.5-9.6,2.2-16.6,2.2H78.4c-7,0-12.6-0.7-16.6-2.2c-4-1.5-6.9-4.1-8.6-7.9
				c-1.7-3.8-2.6-9.2-2.6-16.3v-3.1l22.9-4.7V713h78.8v-25.4H82.7c-7.1,0-12.6-0.8-16.6-2.3c-4-1.5-6.8-4.1-8.5-7.9
				c-1.7-3.8-2.5-9.1-2.5-16.2v-12.3c0-7.1,0.8-12.5,2.5-16.3c1.7-3.8,4.5-6.4,8.5-7.9c4-1.5,9.5-2.2,16.6-2.2H146
				c6.9,0,12.3,0.7,16.2,2.1c3.9,1.4,6.8,3.9,8.6,7.4c1.9,3.5,2.8,8.5,2.8,14.9v2.3l-22.9,5.4L150.7,641.9L150.7,641.9z"/>
			<path class="st1" d="M246.1,734V622.6h95.4c5.9,0,10.6,0.7,14.2,2.2c3.6,1.4,6.4,3.7,8.2,6.9c1.8,3.2,2.7,7.3,2.7,12.6v24.9
				c0,5.2-0.9,9.4-2.7,12.5c-1.8,3.1-4.5,5.4-8.2,6.9c-3.6,1.4-8.4,2.2-14.2,2.2h-69.9V734L246.1,734L246.1,734z M329.9,641.9h-58.2
				v29.4h58.2c4.2,0,7.2-0.6,9-1.8c1.8-1.2,2.7-3.5,2.7-7v-11.9c0-3.4-0.9-5.7-2.6-6.9C337.2,642.5,334.2,641.9,329.9,641.9z"/>
			<path class="st1" d="M421.6,648.9c0-7.1,0.8-12.5,2.5-16.3c1.7-3.8,4.5-6.4,8.5-7.9c4-1.5,9.5-2.2,16.6-2.2h82
				c7,0,12.6,0.7,16.6,2.2c4,1.5,6.9,4.1,8.5,7.9c1.7,3.8,2.5,9.2,2.5,16.3v58.7c0,7.1-0.8,12.5-2.5,16.3c-1.7,3.8-4.5,6.4-8.5,7.9
				c-4,1.5-9.5,2.2-16.6,2.2h-82c-7,0-12.6-0.7-16.6-2.2c-4-1.5-6.9-4.1-8.5-7.9c-1.7-3.8-2.5-9.2-2.5-16.3V648.9z M447.5,713h85.4
				v-70.4h-85.4V713z"/>
			<path class="st1" d="M630.7,734V622.6h95.4c5.9,0,10.6,0.7,14.2,2.2c3.6,1.4,6.4,3.8,8.2,6.9c1.8,3.2,2.7,7.4,2.7,12.6v26.2
				c0,7.7-2,13.2-6.1,16.6c-4.1,3.4-10.4,5.1-19,5.1h-14.8l51.6,42h-37.3l-44.8-42h-24.5v42H630.7z M714.5,641.9h-58.2v30.9h58.2
				c4.2,0,7.2-0.6,9-1.8c1.8-1.2,2.7-3.5,2.7-7v-13.3c0-3.4-0.9-5.7-2.6-6.9C721.8,642.5,718.8,641.9,714.5,641.9z"/>
			<path class="st1" d="M873,642.6V734H847v-91.4h-51.1v-20h128.4v20H873z"/>
			<path class="st1" d="M1069.9,641.9h-73v24h69.5c7,0,12.6,0.7,16.6,2.2s6.9,4.1,8.6,7.9c1.7,3.8,2.6,9.2,2.6,16.3v15.3
				c0,7.1-0.9,12.5-2.6,16.3c-1.7,3.8-4.6,6.4-8.6,7.9c-4,1.5-9.6,2.2-16.6,2.2h-68.8c-7,0-12.6-0.7-16.6-2.2
				c-4-1.5-6.9-4.1-8.6-7.9c-1.7-3.8-2.6-9.2-2.6-16.3v-3.1l22.9-4.7V713h78.8v-25.4h-69.5c-7.1,0-12.6-0.8-16.6-2.3
				c-4-1.5-6.8-4.1-8.5-7.9c-1.7-3.8-2.5-9.1-2.5-16.2v-12.3c0-7.1,0.8-12.5,2.5-16.3c1.7-3.8,4.5-6.4,8.5-7.9
				c4-1.5,9.5-2.2,16.6-2.2h63.3c6.9,0,12.3,0.7,16.2,2.1c3.9,1.4,6.8,3.9,8.6,7.4c1.9,3.5,2.8,8.5,2.8,14.9v2.3l-22.9,5.4
				L1069.9,641.9L1069.9,641.9z"/>
		</g>
	</g>
	<polygon class="st1" points="905.2,436.7 716.7,436.7 679.6,382.3 	"/>
</g>
</svg>
