<svg width="48" height="60" viewBox="0 0 48 60" fill="none" xmlns="http://www.w3.org/2000/svg">
<path fill-rule="evenodd" clip-rule="evenodd" d="M36.5149 0.665273C36.4463 0.663841 36.3805 0.660979 36.3118 0.659546H22.7747C13.913 1.13806 10.1887 6.2957 9.18897 9.04214C5.3059 20.7027 2.88882 35.8046 1.14537 46.7072C1.11104 46.9193 1.07671 47.1299 1.04382 47.3391L0.476018 52.5211C0.443122 53.3391 0.520357 54.2245 0.739182 55.0856C1.82616 58.246 5.10853 60.908 12.3398 58.2561V58.2618C19.1705 55.279 27.237 51.5698 35.581 47.4121C40.3308 44.66 47.2888 38.3347 47.6464 30.3461C47.582 24.4191 47.3832 18.207 46.9813 12.1611L46.9799 12.1654V12.1224C46.947 11.6253 46.9112 11.0522 46.8769 10.4533C46.8083 9.30432 46.7325 8.06792 46.6538 7.13238C46.5365 6.48195 46.3849 5.89598 46.199 5.36589C45.0391 2.77561 42.7707 1.52631 40.3751 0.928884C39.2824 0.735472 37.9409 0.70109 36.5149 0.665273ZM35.9986 12.7256C35.9986 12.0551 35.4551 11.5106 34.7858 11.5106C27.0926 11.5106 20.8553 17.76 20.8553 25.4664V30.1369C20.8553 34.2802 17.5015 37.6384 13.3667 37.6384C12.6773 37.6384 12.1167 38.1971 12.1167 38.8877V42.7072C12.1167 43.3777 12.6601 43.9207 13.3295 43.9207C21.0227 43.9207 27.2613 37.6728 27.2613 29.965V25.2944C27.2613 21.1511 30.6138 17.7929 34.75 17.7929C35.4394 17.7929 35.9972 17.2342 35.9972 16.5436L35.9986 12.7256Z" fill="#22A999"/>
</svg>
