<svg width="27" height="34" viewBox="0 0 27 34" fill="none" xmlns="http://www.w3.org/2000/svg">
<g clip-path="url(#clip0_4312_4989)">
<path d="M4.59863 13.5977L22.3407 14.0763L5.00141 19.1925L4.59863 13.5977Z" fill="url(#paint0_linear_4312_4989)"/>
<path d="M4.34768 13.4921C4.34592 13.5086 4.34592 13.5253 4.34768 13.5418C4.36777 13.5839 4.40019 13.6197 4.44112 13.645C4.48205 13.6703 4.52981 13.6841 4.57879 13.6848L22.3274 14.1697C22.4587 14.1738 22.5845 14.2206 22.6832 14.3023C22.7819 14.3839 22.8476 14.4952 22.8689 14.6173L23.7669 20.0257C23.773 20.0595 23.7715 20.0941 23.7624 20.1274C23.7533 20.1606 23.7368 20.1916 23.714 20.2184C23.698 20.1844 23.6722 20.1553 23.6395 20.1344C23.6069 20.1135 23.5686 20.1017 23.5292 20.1003L5.63525 19.6278C5.50356 19.6249 5.37716 19.5784 5.27817 19.4966C5.17919 19.4148 5.11392 19.3028 5.09381 19.1802L4.22223 13.9334C4.20939 13.8557 4.21392 13.7763 4.23552 13.7003C4.25712 13.6243 4.29532 13.5534 4.34768 13.4921ZM4.94855 12.8704L4.34108 13.3802C4.25921 13.4489 4.19563 13.5348 4.15549 13.6309C4.11535 13.727 4.09976 13.8306 4.10998 13.9334L4.98156 19.1802C5.00544 19.3284 5.08542 19.4636 5.20676 19.5607C5.32809 19.6578 5.48262 19.7103 5.64186 19.7086L23.5358 20.15C23.5573 20.1514 23.578 20.1582 23.5957 20.1698C23.6134 20.1814 23.6274 20.1973 23.6362 20.2159C23.645 20.2344 23.6483 20.2548 23.6457 20.275C23.6432 20.2951 23.6348 20.3142 23.6216 20.3303L23.4103 20.5851L23.7537 20.2992C23.8003 20.2614 23.8357 20.213 23.8565 20.1585C23.8773 20.104 23.8828 20.0454 23.8725 19.9884L22.9745 14.5551C22.9506 14.4069 22.8707 14.2718 22.7493 14.1746C22.628 14.0775 22.4735 14.025 22.3142 14.0267L4.5986 13.5978C4.55934 13.609 4.51703 13.6061 4.47993 13.5896C4.44283 13.5731 4.4136 13.5441 4.39793 13.5084C4.38226 13.4727 4.38129 13.4328 4.39519 13.3964C4.4091 13.3601 4.43689 13.3299 4.47314 13.3118L4.94195 12.8269L4.94855 12.8704Z" fill="url(#paint1_linear_4312_4989)"/>
<path d="M17.1045 15.7608L23.681 19.3124L17.0517 15.73L9.28662 29.4994L9.39887 29.4223L17.1045 15.7608Z" fill="url(#paint2_linear_4312_4989)"/>
<path d="M23.681 20.0629L23.7603 20.3178L7.37842 31.3521L17.0517 15.73L23.681 20.0629Z" fill="url(#paint3_linear_4312_4989)"/>
<path d="M17.0517 15.73L7.37842 31.3521L7.49067 31.2527L17.1045 15.7673L23.681 20.0629L17.0517 15.73Z" fill="url(#paint4_linear_4312_4989)"/>
<path d="M23.681 20.0627L23.7603 20.3176L7.37842 31.352L20.7163 18.1294L23.681 20.0627Z" fill="#FFA300"/>
<path opacity="0.2" d="M23.7074 20.2805L7.5699 31.1097L7.37842 31.3522L23.7603 20.3178L23.681 20.0629L23.6282 20.0256L23.7074 20.2805Z" fill="black"/>
<path opacity="0.25" d="M14.6681 20.8524L18.1742 21.3062L22.7897 21.1259L23.7603 20.3178L23.6811 20.0629L17.0517 15.73L14.6681 20.8524Z" fill="black"/>
<path d="M4.5723 13.9584L4.33459 13.3678L24.4867 2.12207L11.0432 17.9059L4.5723 13.9584Z" fill="url(#paint5_linear_4312_4989)"/>
<path opacity="0.2" d="M4.57214 13.9521V13.9584L11.043 17.9059L24.4865 2.12207L24.3611 2.22775L10.9902 17.8686L4.57214 13.9521Z" fill="black"/>
<path d="M4.5723 13.9584L4.33459 13.3678L24.4867 2.12207L7.54361 15.5995L4.5723 13.9584Z" fill="#FFA300"/>
<path d="M24.4867 2.12207L4.33459 13.3678L4.5723 13.9584L4.63173 13.9894L4.39402 13.4051L24.282 2.37695L24.4867 2.12207Z" fill="url(#paint6_linear_4312_4989)"/>
<path d="M23.8792 20.007C23.8895 20.0641 23.884 20.1227 23.8632 20.1772C23.8424 20.2316 23.8069 20.2801 23.7603 20.3179L23.417 20.6038L23.6283 20.3489C23.6415 20.3329 23.6499 20.3138 23.6524 20.2936C23.655 20.2735 23.6517 20.253 23.6429 20.2345C23.6341 20.216 23.62 20.2001 23.6024 20.1885C23.5847 20.1769 23.564 20.17 23.5424 20.1687L5.63534 19.7211C5.4761 19.7228 5.32157 19.6702 5.20023 19.5731C5.0789 19.476 4.99892 19.3409 4.97504 19.1927L4.11006 13.9335C4.09193 13.8272 4.1017 13.7184 4.13854 13.6166C4.17537 13.5147 4.23814 13.4229 4.32136 13.3491L4.92882 12.8394L4.47322 13.3118C4.45352 13.334 4.4408 13.361 4.43647 13.3896C4.43215 13.4182 4.43641 13.4474 4.44876 13.4739C4.46111 13.5004 4.48107 13.5231 4.50639 13.5395C4.53171 13.5559 4.56138 13.5653 4.59208 13.5667L22.3407 14.0516C22.5 14.0499 22.6545 14.1024 22.7758 14.1995C22.8972 14.2966 22.9771 14.4318 23.001 14.58L23.8792 20.007Z" fill="#FFA300"/>
<g opacity="0.25">
<path d="M4.34768 13.4921C4.34592 13.5086 4.34592 13.5253 4.34768 13.5418C4.36777 13.5839 4.40019 13.6197 4.44112 13.645C4.48205 13.6703 4.52981 13.6841 4.57879 13.6848L22.3274 14.1697C22.4587 14.1738 22.5845 14.2206 22.6832 14.3023C22.7819 14.3839 22.8476 14.4952 22.8689 14.6173L23.7669 20.0257C23.773 20.0595 23.7715 20.0941 23.7624 20.1274C23.7533 20.1606 23.7368 20.1916 23.714 20.2184C23.698 20.1844 23.6722 20.1553 23.6395 20.1344C23.6069 20.1135 23.5686 20.1017 23.5292 20.1003L5.63525 19.6278C5.50356 19.6249 5.37716 19.5784 5.27817 19.4966C5.17919 19.4148 5.11392 19.3028 5.09381 19.1802L4.22223 13.9334C4.20939 13.8557 4.21392 13.7763 4.23552 13.7003C4.25712 13.6243 4.29532 13.5534 4.34768 13.4921ZM4.94855 12.8704L4.34108 13.3802C4.25921 13.4489 4.19563 13.5348 4.15549 13.6309C4.11535 13.727 4.09976 13.8306 4.10998 13.9334L4.98156 19.1802C5.00544 19.3284 5.08542 19.4636 5.20676 19.5607C5.32809 19.6578 5.48262 19.7103 5.64186 19.7086L23.5358 20.15C23.5573 20.1514 23.578 20.1582 23.5957 20.1698C23.6134 20.1814 23.6274 20.1973 23.6362 20.2159C23.645 20.2344 23.6483 20.2548 23.6457 20.275C23.6432 20.2951 23.6348 20.3142 23.6216 20.3303L23.4103 20.5851L23.7537 20.2992C23.8003 20.2614 23.8357 20.213 23.8565 20.1585C23.8773 20.104 23.8828 20.0454 23.8725 19.9884L22.9745 14.5551C22.9506 14.4069 22.8707 14.2718 22.7493 14.1746C22.628 14.0775 22.4735 14.025 22.3142 14.0267L4.5986 13.5978C4.55934 13.609 4.51703 13.6061 4.47993 13.5896C4.44283 13.5731 4.4136 13.5441 4.39793 13.5084C4.38226 13.4727 4.38129 13.4328 4.39519 13.3964C4.4091 13.3601 4.43689 13.3299 4.47314 13.3118L4.94195 12.8269L4.94855 12.8704Z" fill="url(#paint7_linear_4312_4989)"/>
</g>
<g opacity="0.5">
<path d="M4.34768 13.4921C4.34592 13.5086 4.34592 13.5253 4.34768 13.5418C4.36777 13.5839 4.40019 13.6197 4.44112 13.645C4.48205 13.6703 4.52981 13.6841 4.57879 13.6848L22.3274 14.1697C22.4587 14.1738 22.5845 14.2206 22.6832 14.3023C22.7819 14.3839 22.8476 14.4952 22.8689 14.6173L23.7669 20.0257C23.773 20.0595 23.7715 20.0941 23.7624 20.1274C23.7533 20.1606 23.7368 20.1916 23.714 20.2184C23.698 20.1844 23.6722 20.1553 23.6395 20.1344C23.6069 20.1135 23.5686 20.1017 23.5292 20.1003L5.63525 19.6278C5.50356 19.6249 5.37716 19.5784 5.27817 19.4966C5.17919 19.4148 5.11392 19.3028 5.09381 19.1802L4.22223 13.9334C4.20939 13.8557 4.21392 13.7763 4.23552 13.7003C4.25712 13.6243 4.29532 13.5534 4.34768 13.4921ZM4.94855 12.8704L4.34108 13.3802C4.25921 13.4489 4.19563 13.5348 4.15549 13.6309C4.11535 13.727 4.09976 13.8306 4.10998 13.9334L4.98156 19.1802C5.00544 19.3284 5.08542 19.4636 5.20676 19.5607C5.32809 19.6578 5.48262 19.7103 5.64186 19.7086L23.5358 20.15C23.5573 20.1514 23.578 20.1582 23.5957 20.1698C23.6134 20.1814 23.6274 20.1973 23.6362 20.2159C23.645 20.2344 23.6483 20.2548 23.6457 20.275C23.6432 20.2951 23.6348 20.3142 23.6216 20.3303L23.4103 20.5851L23.7537 20.2992C23.8003 20.2614 23.8357 20.213 23.8565 20.1585C23.8773 20.104 23.8828 20.0454 23.8725 19.9884L22.9745 14.5551C22.9506 14.4069 22.8707 14.2718 22.7493 14.1746C22.628 14.0775 22.4735 14.025 22.3142 14.0267L4.5986 13.5978C4.55934 13.609 4.51703 13.6061 4.47993 13.5896C4.44283 13.5731 4.4136 13.5441 4.39793 13.5084C4.38226 13.4727 4.38129 13.4328 4.39519 13.3964C4.4091 13.3601 4.43689 13.3299 4.47314 13.3118L4.94195 12.8269L4.94855 12.8704Z" fill="url(#paint8_linear_4312_4989)"/>
</g>
<path opacity="0.6" d="M4.59863 13.5977L22.3407 14.0763L5.00141 19.1925L4.59863 13.5977Z" fill="url(#paint9_linear_4312_4989)"/>
</g>
<defs>
<linearGradient id="paint0_linear_4312_4989" x1="-32.1692" y1="-14.9095" x2="-23.5534" y2="-16.3885" gradientUnits="userSpaceOnUse">
<stop/>
<stop offset="0.15" stop-color="#030303"/>
<stop offset="0.27" stop-color="#0E0E0E"/>
<stop offset="0.4" stop-color="#202020"/>
<stop offset="0.51" stop-color="#3A3A3A"/>
<stop offset="0.63" stop-color="#5A5A5A"/>
<stop offset="0.74" stop-color="#838383"/>
<stop offset="0.85" stop-color="#B2B2B2"/>
<stop offset="0.96" stop-color="#E8E8E8"/>
<stop offset="1" stop-color="white"/>
</linearGradient>
<linearGradient id="paint1_linear_4312_4989" x1="-32.0344" y1="-14.1047" x2="-23.1559" y2="-15.6288" gradientUnits="userSpaceOnUse">
<stop/>
<stop offset="0.16" stop-color="#030303"/>
<stop offset="0.29" stop-color="#0D0D0D"/>
<stop offset="0.41" stop-color="#1E1E1E"/>
<stop offset="0.52" stop-color="#363636"/>
<stop offset="0.63" stop-color="#555555"/>
<stop offset="0.74" stop-color="#7B7B7B"/>
<stop offset="0.84" stop-color="#A8A8A8"/>
<stop offset="0.94" stop-color="#DADADA"/>
<stop offset="1" stop-color="white"/>
</linearGradient>
<linearGradient id="paint2_linear_4312_4989" x1="-24.346" y1="-14.5322" x2="-27.6587" y2="-6.2975" gradientUnits="userSpaceOnUse">
<stop/>
<stop offset="0.24" stop-color="#020202"/>
<stop offset="0.38" stop-color="#0B0B0B"/>
<stop offset="0.49" stop-color="#181818"/>
<stop offset="0.59" stop-color="#2C2C2C"/>
<stop offset="0.67" stop-color="#464646"/>
<stop offset="0.76" stop-color="#656565"/>
<stop offset="0.83" stop-color="#8B8B8B"/>
<stop offset="0.9" stop-color="#B6B6B6"/>
<stop offset="0.97" stop-color="#E6E6E6"/>
<stop offset="1" stop-color="white"/>
</linearGradient>
<linearGradient id="paint3_linear_4312_4989" x1="-31.3287" y1="-11.0185" x2="-22.7002" y2="-12.4997" gradientUnits="userSpaceOnUse">
<stop stop-color="#FFDC00"/>
<stop offset="0.46" stop-color="#FFCB00"/>
<stop offset="1" stop-color="#FFB200"/>
</linearGradient>
<linearGradient id="paint4_linear_4312_4989" x1="-24.8331" y1="-14.7311" x2="-28.1033" y2="-6.60359" gradientUnits="userSpaceOnUse">
<stop stop-color="white"/>
<stop offset="0.86" stop-color="white"/>
<stop offset="1" stop-color="white"/>
</linearGradient>
<linearGradient id="paint5_linear_4312_4989" x1="-32.3875" y1="-17.0543" x2="-21.958" y2="-18.8446" gradientUnits="userSpaceOnUse">
<stop stop-color="#FFAD00"/>
<stop offset="0.35" stop-color="#FFB503"/>
<stop offset="0.9" stop-color="#FFCC0D"/>
<stop offset="1" stop-color="#FFD10F"/>
</linearGradient>
<linearGradient id="paint6_linear_4312_4989" x1="-32.5856" y1="-18.2083" x2="-22.1561" y2="-19.9987" gradientUnits="userSpaceOnUse">
<stop stop-color="white"/>
<stop offset="1" stop-color="white"/>
</linearGradient>
<linearGradient id="paint7_linear_4312_4989" x1="-32.0344" y1="-14.1047" x2="-23.1559" y2="-15.6288" gradientUnits="userSpaceOnUse">
<stop/>
<stop offset="0.91"/>
<stop offset="1"/>
</linearGradient>
<linearGradient id="paint8_linear_4312_4989" x1="-65.6905" y1="-42.0417" x2="-56.6931" y2="-42.0417" gradientUnits="userSpaceOnUse">
<stop stop-color="white"/>
<stop offset="1" stop-color="white"/>
</linearGradient>
<linearGradient id="paint9_linear_4312_4989" x1="-32.1692" y1="-14.9095" x2="-23.5534" y2="-16.3885" gradientUnits="userSpaceOnUse">
<stop stop-color="white"/>
<stop offset="0.94" stop-color="white"/>
<stop offset="1" stop-color="white"/>
</linearGradient>
<clipPath id="clip0_4312_4989">
<rect width="27" height="34" fill="white"/>
</clipPath>
</defs>
</svg>
