<?xml version="1.0" encoding="utf-8"?>
<!-- Generator: Adobe Illustrator 27.0.0, SVG Export Plug-In . SVG Version: 6.00 Build 0)  -->
<svg version="1.1" id="Layer_1" xmlns="http://www.w3.org/2000/svg" xmlns:xlink="http://www.w3.org/1999/xlink" x="0px" y="0px"
	 viewBox="0 0 441.2 578" style="enable-background:new 0 0 441.2 578;" xml:space="preserve">
<style type="text/css">
	.st0{fill:#44A348;}
	.st1{fill:#FFFFFF;}
	.st2{fill:none;stroke:#FFFFFF;stroke-width:2;}
</style>
<g>
	<rect x="4.9" y="8.4" class="st0" width="431.6" height="561.9"/>
	<path class="st1" d="M435.5,9.4v559.9H5.9V9.4H435.5 M437.5,7.4h-2H5.9h-2v2v559.9v2h2h429.6h2v-2V9.4V7.4L437.5,7.4z"/>
</g>
<path class="st2" d="M265.4,271.5c0,25.5-19.8,46.1-44.2,46.1c-24.3,0-44.2-20.5-44.2-46.1c0-25.5,19.8-46.1,44.2-46.1
	C245.5,225.4,265.4,246,265.4,271.5z"/>
<line class="st2" x1="6.4" y1="269.7" x2="434.7" y2="269.7"/>
<rect x="142.7" y="521" class="st2" width="151.8" height="49.3"/>
<rect x="142.7" y="9.4" class="st2" width="151.8" height="47.3"/>
</svg>
