<svg width="84" height="68" viewBox="0 0 84 68" fill="none" xmlns="http://www.w3.org/2000/svg">
<path fill-rule="evenodd" clip-rule="evenodd" d="M39.5872 6.84419H75.314C80.113 6.84419 84 10.6475 84 15.3431V59.5011C84 64.1968 80.113 68 75.314 68H66.141V23.6514C66.141 19.9867 63.0952 17.0151 59.341 17.0412L26.4387 17.2231C25.022 17.2318 23.6408 16.8072 22.4809 16.0015L15.1496 10.9073C14.0074 10.1103 12.6349 9.68584 11.236 9.68584H0V8.4989C0 3.80329 3.88701 0 8.686 0H24.9866C26.6335 0 28.2361 0.511148 29.5554 1.46413L35.0096 5.38005C36.3377 6.33304 37.9403 6.84419 39.5872 6.84419Z" fill="url(#paint0_linear_4495_3796)"/>
<defs>
<linearGradient id="paint0_linear_4495_3796" x1="-1.10737" y1="-35.4921" x2="101.377" y2="79.6306" gradientUnits="userSpaceOnUse">
<stop stop-color="#FFEC41"/>
<stop offset="0.3593" stop-color="#FDFF87"/>
<stop offset="1" stop-color="#FFFAC8"/>
</linearGradient>
</defs>
</svg>
