<svg width="862" height="728" viewBox="0 0 862 728" fill="none" xmlns="http://www.w3.org/2000/svg">
<path d="M827.584 301.749L798.143 331.246L766.053 363.391L734.331 395.178L704.021 425.544L672.309 457.321L640.659 489.026L608.947 520.803L578.402 551.394L546.69 583.181L514.6 615.325L484.402 645.579C484.392 645.763 484.392 645.947 484.371 646.131C483.215 673.339 460.772 695.028 433.254 695.028C424.866 695.028 416.948 693.004 409.961 689.437C401.072 684.889 393.676 677.805 388.755 669.148C384.704 662.045 382.321 653.889 382.106 645.17V645.058L348.676 612.157L316.667 580.666L286.163 550.648L254.154 519.157L223.568 489.056L191.56 457.566L159.295 425.82L127.287 394.329L95.1355 362.696L63.127 331.205L33.1953 301.749C33.1953 301.749 33.4817 300.675 34.1057 298.672V298.662C34.2284 298.273 34.3614 297.854 34.5047 297.405C34.5763 297.18 34.6479 296.945 34.7298 296.699C34.8525 296.321 34.9855 295.912 35.1185 295.493C35.2514 295.074 35.4049 294.635 35.5583 294.175C35.7118 293.705 35.8857 293.204 36.0596 292.683C36.7449 290.69 37.5531 288.4 38.5045 285.835C38.709 285.283 38.9239 284.71 39.1387 284.138C39.3535 283.566 39.5683 282.993 39.8036 282.4C40.0287 281.808 40.2639 281.205 40.4992 280.581C40.8675 279.651 41.246 278.701 41.6347 277.719C41.9825 276.84 42.3406 275.961 42.7191 275.041C43.1282 274.04 43.5477 273.028 43.9978 271.985C44.2739 271.331 44.5501 270.667 44.8366 270.003C45.1127 269.328 45.4094 268.653 45.7163 267.958C45.9516 267.427 46.1868 266.885 46.4222 266.343C47.1791 264.637 47.9566 262.889 48.7852 261.09C49.3273 259.894 49.8899 258.668 50.473 257.431C51.0561 256.194 51.6597 254.947 52.2735 253.67C52.5702 253.036 52.8873 252.392 53.2044 251.748C54.1455 249.837 55.1173 247.874 56.1198 245.891C56.13 245.871 56.1403 245.84 56.1607 245.82C57.1836 243.817 58.2476 241.772 59.3421 239.698C60.9175 236.723 62.5747 233.678 64.3239 230.581C64.8354 229.661 65.3571 228.741 65.889 227.821C66.4005 226.921 66.9222 226.022 67.4542 225.112C67.8327 224.469 68.2112 223.814 68.5999 223.16C68.9784 222.516 69.3671 221.852 69.7661 221.198C71.1573 218.867 72.5894 216.506 74.083 214.125C74.6967 213.144 75.3208 212.152 75.9447 211.161C76.579 210.17 77.2132 209.178 77.8577 208.187C78.3794 207.369 78.9113 206.562 79.4535 205.744C80.19 204.62 80.9368 203.495 81.6938 202.371C82.103 201.758 82.5224 201.144 82.9418 200.521C83.3305 199.959 83.7192 199.386 84.1079 198.814C84.9059 197.649 85.714 196.484 86.5323 195.319C87.3508 194.153 88.1794 192.978 89.0284 191.803C89.6319 190.954 90.2457 190.116 90.8595 189.268C91.2277 188.757 91.6062 188.246 91.9847 187.735C92.7213 186.733 93.468 185.721 94.225 184.719C95.115 183.534 96.005 182.348 96.9256 181.163C97.8361 179.967 98.7567 178.781 99.6978 177.585C100.24 176.9 100.782 176.205 101.335 175.521C102.194 174.437 103.063 173.354 103.953 172.26C104.403 171.708 104.843 171.167 105.293 170.625C106.183 169.542 107.084 168.448 108.004 167.354C108.465 166.802 108.925 166.261 109.385 165.719C111.493 163.235 113.641 160.762 115.861 158.278C116.597 157.46 117.334 156.633 118.091 155.805C118.49 155.355 118.889 154.915 119.298 154.476C120.137 153.546 120.996 152.626 121.855 151.706C122.714 150.786 123.584 149.866 124.453 148.946C125.323 148.037 126.192 147.127 127.082 146.217C127.093 146.197 127.113 146.177 127.134 146.156C128.013 145.246 128.903 144.347 129.804 143.437C130.458 142.783 131.103 142.129 131.757 141.475C132.33 140.903 132.903 140.33 133.486 139.768C134.141 139.114 134.785 138.48 135.45 137.847C135.778 137.53 136.095 137.213 136.422 136.916C137.148 136.201 137.885 135.496 138.632 134.791C139.869 133.615 141.117 132.45 142.376 131.295C142.928 130.774 143.481 130.273 144.033 129.772C145.24 128.668 146.457 127.575 147.685 126.481C148.227 126.001 148.779 125.51 149.332 125.03C150.232 124.232 151.142 123.445 152.063 122.658C153.311 121.565 154.58 120.492 155.858 119.428C156.922 118.529 157.996 117.64 159.07 116.761C160.124 115.892 161.188 115.034 162.262 114.165C162.855 113.684 163.449 113.214 164.042 112.754C164.635 112.284 165.229 111.814 165.832 111.344C169.116 108.758 172.481 106.223 175.918 103.719C176.655 103.177 177.392 102.646 178.128 102.114C179.642 101.021 181.177 99.9373 182.731 98.8641C183.499 98.3326 184.266 97.8011 185.043 97.2696C185.811 96.7381 186.588 96.2169 187.365 95.6956C188.409 94.9904 189.462 94.2852 190.526 93.5799C191.427 92.9769 192.337 92.3841 193.247 91.8015C194.25 91.1473 195.263 90.5034 196.286 89.8595C197.575 89.0418 198.863 88.2344 200.173 87.4372C201.267 86.7626 202.362 86.0982 203.467 85.4338C206.454 83.6248 209.492 81.8565 212.581 80.119C213.021 79.8737 213.461 79.6284 213.901 79.3831C215.753 78.3304 217.625 77.3083 219.517 76.3066C220.315 75.8773 221.103 75.4583 221.901 75.0392C222.944 74.4771 223.998 73.9354 225.061 73.3937C226.698 72.5453 228.345 71.7072 230.002 70.8895C230.811 70.4909 231.619 70.0923 232.427 69.6937C235.884 67.997 239.403 66.3515 242.984 64.7468C243.782 64.3789 244.59 64.0211 245.408 63.6634C245.582 63.5816 245.756 63.4999 245.94 63.4385C246.513 63.183 247.086 62.9275 247.659 62.6822C249.909 61.6908 252.18 60.73 254.472 59.7999C255.321 59.4524 256.159 59.1048 257.008 58.7676C257.182 58.6858 257.356 58.6143 257.54 58.5529C258.318 58.2361 259.106 57.9193 259.903 57.6126C261.898 56.8154 263.903 56.0488 265.929 55.2925C266.767 54.9756 267.617 54.6588 268.466 54.3522C269.56 53.9433 270.655 53.5447 271.76 53.1461C272.721 52.8088 273.683 52.4613 274.655 52.1343C274.961 52.0218 275.268 51.9094 275.575 51.8072C276.608 51.4494 277.652 51.0917 278.705 50.7442C278.9 50.6726 279.094 50.6113 279.288 50.55C279.82 50.366 280.363 50.1923 280.895 50.0185C281.917 49.671 282.94 49.3337 283.974 49.0067C294.817 45.5213 306.11 42.404 317.854 39.7056C332.155 36.4145 347.131 33.7367 362.813 31.7742C365.125 31.4881 367.457 31.2121 369.8 30.9566C388.899 28.8408 409 27.7779 430.185 27.9312H431.106C451.432 28.524 470.776 30.1798 489.189 32.7452C493.24 33.3073 497.25 33.9206 501.209 34.5646C515.459 36.9153 529.126 39.818 542.24 43.2012C558.26 47.3304 573.44 52.1854 587.823 57.6433C588.785 58.0113 589.746 58.3792 590.708 58.7574C606.155 64.7366 620.681 71.4313 634.317 78.6574C647.789 85.7814 660.402 93.4368 672.197 101.47C685.147 110.26 697.106 119.51 708.154 129.016C719.406 138.685 729.708 148.619 739.098 158.595C749.972 170.104 759.639 181.674 768.212 192.978C778.717 206.797 787.587 220.217 794.993 232.635C804.527 248.6 811.667 262.909 816.802 274.316C820.72 283.044 823.472 290.076 825.211 294.829C826.837 299.285 827.584 301.749 827.584 301.749Z" fill="#689F42"/>
<path d="M514.877 616.042L484.359 646.618L483.132 647.847L65.0156 229.076C71.9189 216.866 80.1314 203.755 89.8164 190.306L514.58 615.745L514.877 616.042Z" fill="#559340"/>
<path d="M438.07 661.548L410.036 689.542C393.808 681.246 382.595 664.542 382.175 645.182L33.1953 302.019C33.1953 302.019 33.4818 300.946 34.1059 298.944V298.933C35.6304 294.019 39.1399 283.486 45.2584 269.306L438.07 661.548Z" fill="#559340"/>
<path d="M578.517 551.29L546.817 583.111L118.781 154.817C128.455 144.176 139.11 133.607 150.85 123.375L578.517 551.29Z" fill="#559340"/>
<path d="M641.054 488.765L609.284 520.569L184.609 96.6667C196.948 88.2168 210.199 80.2376 224.444 72.9028L641.054 488.765Z" fill="#559340"/>
<path d="M703.594 425.121L671.931 456.931L269.094 53.4072C274.027 51.586 279.062 49.8569 284.2 48.1995C295.026 44.7105 306.302 41.59 318.027 38.8889L703.594 425.121Z" fill="#559340"/>
<path d="M766.136 363.672L734.427 395.486L370.039 30.9591C389.161 28.8416 409.295 27.7778 430.513 27.9312L766.136 363.672Z" fill="#559340"/>
<path d="M827.586 301.295L798.19 330.75L501.711 34.5C533.313 39.705 562.065 47.6351 588.192 57.5451L825.216 294.386C826.84 298.836 827.586 301.295 827.586 301.295Z" fill="#559340"/>
<path opacity="0.1" d="M284.456 48.7639L34.2891 298.931C41.9295 274.227 99.55 108.218 284.456 48.7639Z" fill="white"/>
<path opacity="0.1" d="M430.39 27.9311L94.8733 362.569L62.8203 331.091L362.924 31.7728C365.239 31.4867 367.575 31.2108 369.92 30.9554C389.046 28.8405 409.175 27.7779 430.39 27.9311Z" fill="white"/>
<path opacity="0.1" d="M542.305 42.7835L159.547 426.208L127.555 394.651L489.28 32.3055C493.329 32.8689 497.337 33.4834 501.294 34.1287C515.537 36.4845 529.197 39.3933 542.305 42.7835Z" fill="white"/>
<path opacity="0.1" d="M634.473 78.5302L223.241 488.75L191.195 457.273L590.813 58.6389C606.278 64.6155 620.821 71.3073 634.473 78.5302Z" fill="white"/>
<path opacity="0.1" d="M707.984 129.018L285.76 551.292L253.734 519.753L672.008 101.431C684.965 110.234 696.93 119.498 707.984 129.018Z" fill="white"/>
<path opacity="0.1" d="M768.337 192.921L348.326 612.736L316.281 581.198L739.19 158.486C750.077 170.012 759.755 181.6 768.337 192.921Z" fill="white"/>
<path opacity="0.1" d="M816.609 273.801L405.187 686.25L388.756 669.777C384.707 662.653 382.324 654.474 382.109 645.73L794.81 232C804.339 248.011 811.476 262.362 816.609 273.801Z" fill="white"/>
<path d="M432.032 499.722C449.909 499.722 464.4 485.231 464.4 467.354C464.4 449.478 449.909 434.986 432.032 434.986C414.156 434.986 399.664 449.478 399.664 467.354C399.664 485.231 414.156 499.722 432.032 499.722Z" fill="#F4A137"/>
<path d="M473.027 265.658C449.984 260.916 426.296 260.333 403.059 264.029C238.709 290.193 217.531 462.995 217.531 462.995L392.168 642.279C392.394 651.341 395.539 684.97 430.19 686.25C469.871 686.291 470.394 645.689 470.537 641.685L648.74 463.138C648.74 463.138 634.488 298.907 473.027 265.658ZM563.188 506.679L457.546 617.109C457.546 617.109 448.611 606.008 434.391 604.974C418.991 603.981 411.174 613.453 408.981 616.658L303.062 507.693C312.119 502.747 318.266 493.142 318.266 482.093C318.266 470.184 311.115 459.933 300.869 455.417L407.137 346.626C407.137 346.626 412.844 363.205 433.141 362.099C453.427 360.983 460.097 348.111 460.097 348.111L563.588 454.537C554.265 459.554 547.933 469.395 547.933 480.721C547.933 491.882 554.09 501.6 563.188 506.679Z" fill="#F4A137"/>
<path d="M432.032 499.722C449.909 499.722 464.4 485.231 464.4 467.354C464.4 449.478 449.909 434.986 432.032 434.986C414.156 434.986 399.664 449.478 399.664 467.354C399.664 485.231 414.156 499.722 432.032 499.722Z" fill="#F4A137"/>
<path d="M432.032 499.722C449.909 499.722 464.4 485.231 464.4 467.354C464.4 449.478 449.909 434.986 432.032 434.986C414.156 434.986 399.664 449.478 399.664 467.354C399.664 485.231 414.156 499.722 432.032 499.722Z" fill="#F4A137"/>
<path d="M434.315 314.292L421.609 326.882L434.371 339.528L446.845 327.167L434.315 314.292Z" fill="#FFFDFF"/>
<path d="M280.706 469L268 481.59L280.762 494.236L293.236 481.875L280.706 469Z" fill="#FFFDFF"/>
<path d="M590.12 469L577.414 481.59L590.176 494.236L602.65 481.875L590.12 469Z" fill="#FFFDFF"/>
<path d="M440.263 456.931H423.805V463.514H440.263V456.931Z" fill="#FFFDFF"/>
<path d="M442.457 640.167V645.122L431.932 659.917L421.609 645.408V640.167H442.457Z" fill="#FFF5FF"/>
<path d="M421.085 635.248H416.498L45.8167 268.756C45.2137 268.16 44.2421 268.165 43.6461 268.768C43.0507 269.371 43.0562 270.343 43.6586 270.939L412.133 635.248H405.555C404.707 635.248 404.02 635.935 404.02 636.782V661.336C404.02 662.183 404.707 662.871 405.555 662.871H421.085C421.933 662.871 422.62 662.183 422.62 661.336V636.782C422.62 635.935 421.933 635.248 421.085 635.248ZM419.551 659.802H407.089V638.317H419.551V659.802Z" fill="white"/>
<path d="M819.072 275.73C818.48 275.125 817.508 275.115 816.902 275.709L450.363 635.248H442.121C441.273 635.248 440.586 635.935 440.586 636.783V661.336C440.586 662.184 441.273 662.871 442.121 662.871H457.661C458.509 662.871 459.196 662.184 459.196 661.336V636.783C459.196 635.935 458.509 635.248 457.661 635.248H454.747L819.052 277.9C819.656 277.306 819.666 276.335 819.072 275.73ZM456.126 659.802H443.655V638.317H456.126V659.802Z" fill="white"/>
<path d="M832.892 307.05C834.844 305.094 835.563 302.224 834.763 299.579L827.584 301.751C834.763 299.579 834.761 299.574 834.759 299.568L834.754 299.552L834.739 299.5C834.726 299.458 834.708 299.4 834.685 299.326C834.664 299.261 834.64 299.184 834.612 299.095C834.576 298.981 834.534 298.848 834.484 298.695C834.31 298.152 834.051 297.365 833.704 296.351C833.01 294.322 831.962 291.383 830.521 287.66C827.639 280.215 823.183 269.63 816.843 256.926C804.169 231.531 783.929 197.598 753.623 163.36C692.889 94.7494 591.902 25.1589 431.326 20.439C431.273 20.4375 431.221 20.4365 431.168 20.4361C267.122 19.0817 165.629 88.7244 105.298 158.956C75.2091 193.983 55.4147 229.077 43.1348 255.424C36.9915 268.605 32.7184 279.618 29.9714 287.372C28.5976 291.249 27.6048 294.314 26.9499 296.429C26.6224 297.486 26.3794 298.307 26.2155 298.873C26.1336 299.156 26.0714 299.376 26.0283 299.53C26.0067 299.607 25.99 299.667 25.9779 299.711L25.9633 299.764L25.9586 299.782C25.957 299.788 25.9556 299.792 33.1953 301.751L25.9556 299.792C25.2484 302.406 26.005 305.198 27.9351 307.097L374.759 648.351C377.025 678.666 402.366 702.528 433.254 702.528C463.98 702.528 489.205 678.932 491.722 648.862L832.892 307.05Z" stroke="#232825" stroke-width="15" stroke-linecap="round" stroke-linejoin="round"/>
<path d="M827.584 301.751L484.402 645.579C483.522 673.043 460.956 695.028 433.254 695.028C405.389 695.028 382.71 672.767 382.106 645.058L33.1953 301.751C33.1953 301.751 108.004 25.2682 431.106 27.9358C747.538 37.2368 827.584 301.751 827.584 301.751Z" stroke="#094624" stroke-width="10" stroke-linecap="round" stroke-linejoin="round"/>
</svg>
