<?xml version="1.0" encoding="utf-8"?>
<!-- Generator: Adobe Illustrator 27.0.0, SVG Export Plug-In . SVG Version: 6.00 Build 0)  -->
<svg version="1.1" id="Layer_1" xmlns="http://www.w3.org/2000/svg" xmlns:xlink="http://www.w3.org/1999/xlink" x="0px" y="0px"
	 viewBox="0 0 79.15 62.679" style="enable-background:new 0 0 79.15 62.679;" xml:space="preserve">
<style type="text/css">
	.st0{fill:#00C4FB;}
	.st1{fill:#FFFFFF;}
</style>
<g>
	<g>
		<g>
			<g>
				<g>
					<path class="st0" d="M39.368,16.544l-4.096,7.043l0,0c-5.606,9.608-13.446,16.977-22.52,21.147l-5.075,2.339
						c0,0,24.732-42.258,24.949-42.584L39.368,16.544z"/>
					<path class="st1" d="M49.899,35.353l0.127,0.036l-0.022-0.036l-2.287-4.061L32.626,4.48c1.555-2.266,3.745-4.161,6.966-4.161
						c3.52,0,5.845,2.266,7.489,5.158l23.7,41.587H30.757C35.212,39.649,42.335,35.28,49.899,35.353z"/>
				</g>
				<polygon class="st0" points="39.368,16.544 36.385,21.666 32.626,4.489 				"/>
			</g>
		</g>
		<g>
			<path class="st1" d="M7.707,53.953H2.251v2.175h5.195c0.523,0,0.942,0.063,1.241,0.199c0.299,0.136,0.516,0.372,0.643,0.716
				c0.127,0.344,0.194,0.834,0.194,1.477v1.387c0,0.644-0.067,1.133-0.194,1.477c-0.127,0.344-0.344,0.58-0.643,0.716
				c-0.299,0.136-0.718,0.199-1.241,0.199H2.303c-0.523,0-0.942-0.063-1.241-0.199c-0.299-0.136-0.516-0.372-0.643-0.716
				c-0.127-0.344-0.194-0.834-0.194-1.477v-0.281l1.712-0.426v1.196h5.89v-2.302H2.625c-0.531,0-0.942-0.073-1.241-0.208
				s-0.508-0.372-0.635-0.716c-0.127-0.344-0.187-0.825-0.187-1.468v-1.115c0-0.644,0.06-1.133,0.187-1.477s0.336-0.58,0.635-0.716
				c0.299-0.136,0.71-0.199,1.241-0.199h4.731c0.516,0,0.919,0.063,1.211,0.19s0.508,0.354,0.643,0.671
				c0.142,0.317,0.209,0.77,0.209,1.351v0.208l-1.712,0.489L7.707,53.953L7.707,53.953z"/>
			<path class="st1" d="M14.837,62.301V52.203h7.13c0.441,0,0.792,0.063,1.061,0.199c0.269,0.127,0.478,0.335,0.613,0.625
				c0.135,0.29,0.202,0.662,0.202,1.142v2.257c0,0.471-0.067,0.852-0.202,1.133c-0.135,0.281-0.336,0.489-0.613,0.625
				c-0.269,0.127-0.628,0.199-1.061,0.199h-5.224v3.916H14.837L14.837,62.301z M21.101,53.953h-4.35v2.665h4.35
				c0.314,0,0.538-0.054,0.673-0.163c0.135-0.109,0.202-0.317,0.202-0.635v-1.079c0-0.308-0.067-0.517-0.194-0.625
				C21.646,54.007,21.422,53.953,21.101,53.953z"/>
			<path class="st1" d="M27.955,54.587c0-0.644,0.06-1.133,0.187-1.477c0.127-0.344,0.336-0.58,0.635-0.716
				c0.299-0.136,0.71-0.199,1.241-0.199h6.129c0.523,0,0.942,0.063,1.241,0.199c0.299,0.136,0.516,0.372,0.635,0.716
				c0.127,0.344,0.187,0.834,0.187,1.477v5.321c0,0.644-0.06,1.133-0.187,1.477c-0.127,0.344-0.336,0.58-0.635,0.716
				c-0.299,0.136-0.71,0.199-1.241,0.199h-6.129c-0.523,0-0.942-0.063-1.241-0.199c-0.299-0.136-0.516-0.372-0.635-0.716
				c-0.127-0.344-0.187-0.834-0.187-1.477V54.587z M29.89,60.398h6.383v-6.381H29.89L29.89,60.398L29.89,60.398z"/>
			<path class="st1" d="M43.583,62.301V52.203h7.13c0.441,0,0.792,0.063,1.061,0.199c0.269,0.127,0.478,0.344,0.613,0.625
				c0.135,0.29,0.202,0.671,0.202,1.142v2.375c0,0.698-0.149,1.196-0.456,1.505c-0.306,0.308-0.777,0.462-1.42,0.462h-1.106
				l3.857,3.807h-2.788l-3.348-3.807h-1.831v3.807h-1.913V62.301z M49.846,53.953h-4.35v2.801h4.35c0.314,0,0.538-0.054,0.673-0.163
				s0.202-0.317,0.202-0.635V54.75c0-0.308-0.067-0.517-0.194-0.625C50.392,54.007,50.168,53.953,49.846,53.953z"/>
			<path class="st1" d="M61.693,54.016v8.285h-1.943v-8.285H55.93v-1.813h9.597v1.813H61.693z"/>
			<path class="st1" d="M76.409,53.953h-5.456v2.175h5.195c0.523,0,0.942,0.063,1.241,0.199c0.299,0.136,0.516,0.372,0.643,0.716
				c0.127,0.344,0.194,0.834,0.194,1.477v1.387c0,0.644-0.067,1.133-0.194,1.477c-0.127,0.344-0.344,0.58-0.643,0.716
				c-0.299,0.136-0.718,0.199-1.241,0.199h-5.142c-0.523,0-0.942-0.063-1.241-0.199c-0.299-0.136-0.516-0.372-0.643-0.716
				c-0.127-0.344-0.194-0.834-0.194-1.477v-0.281l1.712-0.426v1.196h5.89v-2.302h-5.195c-0.531,0-0.942-0.073-1.241-0.208
				s-0.508-0.372-0.635-0.716c-0.127-0.344-0.187-0.825-0.187-1.468v-1.115c0-0.644,0.06-1.133,0.187-1.477s0.336-0.58,0.635-0.716
				c0.299-0.136,0.71-0.199,1.241-0.199h4.731c0.516,0,0.919,0.063,1.211,0.19s0.508,0.354,0.643,0.671
				c0.142,0.317,0.209,0.77,0.209,1.351v0.208l-1.712,0.489L76.409,53.953L76.409,53.953z"/>
		</g>
	</g>
	<polygon class="st1" points="63.064,34.781 49.844,34.781 47.242,30.154 	"/>
</g>
</svg>
