<svg width="125" height="97" viewBox="0 0 125 97" fill="none" xmlns="http://www.w3.org/2000/svg">
<path d="M61.7677 26.2497L55.4663 36.7452C46.8482 51.0694 34.7951 62.0477 20.8438 68.2749L13.0469 71.756C13.0469 71.756 51.0712 8.75358 51.406 8.27539L61.7677 26.2497Z" fill="#00C4FB"/>
<path d="M77.958 54.2828L78.157 54.3381L78.1222 54.2828L74.6083 48.2262L51.404 8.26605C53.7966 4.88799 57.1604 2.05884 62.1115 2.05884C67.5174 2.05884 71.0913 5.4369 73.6244 9.74828L110.057 71.7482H48.5312C55.3743 60.696 66.3266 54.1859 77.958 54.2828Z" fill="white"/>
<path d="M61.7695 26.2496L57.1848 33.8868L51.4062 8.27222L61.7695 26.2496Z" fill="#009CC8"/>
<path d="M13.0957 82.0238H4.71291V85.2727H12.6962C13.5032 85.2727 14.1396 85.3727 14.6039 85.5726C15.0682 85.7724 15.3999 86.1261 15.5973 86.635C15.7947 87.144 15.8958 87.8759 15.8958 88.8353V90.9018C15.8958 91.8613 15.7963 92.5947 15.5973 93.1036C15.3999 93.6126 15.0682 93.9662 14.6039 94.1646C14.1396 94.3644 13.5032 94.4644 12.6962 94.4644H4.78398C3.97697 94.4644 3.34052 94.3644 2.87621 94.1646C2.4119 93.9662 2.08025 93.6126 1.88284 93.1036C1.68543 92.5947 1.58594 91.8628 1.58594 90.9018V90.4867L4.21544 89.8455V91.626H13.2663V88.1926H5.28303C4.46812 88.1926 3.83009 88.0911 3.37526 87.8851C2.91885 87.6806 2.59352 87.3239 2.39927 86.8165C2.20659 86.3075 2.10868 85.5802 2.10868 84.6285V82.9617C2.10868 82.0023 2.20502 81.2689 2.39927 80.7615C2.59194 80.2525 2.92043 79.8989 3.38 79.699C3.83957 79.5006 4.47444 79.3992 5.28145 79.3992H12.5509C13.3421 79.3992 13.9628 79.493 14.4113 79.6821C14.8598 79.8712 15.1899 80.2033 15.4046 80.6769C15.6194 81.1505 15.7252 81.8224 15.7252 82.6942V83.0063L13.0957 83.7367V82.0238Z" fill="white"/>
<path d="M24.0547 94.4614V79.4023H35.0196C35.6924 79.4023 36.2388 79.5008 36.6558 79.6945C37.0743 79.8898 37.3854 80.2003 37.5923 80.6293C37.7992 81.0568 37.9018 81.6226 37.9018 82.3253V85.688C37.9018 86.3907 37.7992 86.9534 37.5923 87.3762C37.3854 87.7991 37.0727 88.1081 36.6558 88.3034C36.2373 88.4987 35.6924 88.5955 35.0196 88.5955H26.9874V94.4645L24.0547 94.4614ZM33.6757 82.0239H26.9874V85.9986H33.6757C34.1605 85.9986 34.5048 85.9186 34.7101 85.7587C34.9154 85.5973 35.018 85.2805 35.018 84.8069V83.2017C35.018 82.7374 34.9186 82.4252 34.7211 82.2653C34.5253 82.1054 34.1763 82.0239 33.6757 82.0239Z" fill="white"/>
<path d="M44.2188 82.9649C44.2188 82.0055 44.3151 81.272 44.5093 80.7646C44.702 80.2557 45.0305 79.9021 45.4901 79.7022C45.9496 79.5038 46.5845 79.4023 47.3915 79.4023H56.8167C57.6237 79.4023 58.2585 79.5023 58.7181 79.7022C59.1777 79.9021 59.5062 80.2557 59.6988 80.7646C59.8915 81.2736 59.9894 82.0055 59.9894 82.9649V90.9004C59.9894 91.8598 59.8931 92.5933 59.6988 93.1022C59.5062 93.6111 59.1777 93.9648 58.7181 94.1631C58.2585 94.363 57.6237 94.463 56.8167 94.463H47.3915C46.5845 94.463 45.9496 94.363 45.4901 94.1631C45.0305 93.9648 44.702 93.6111 44.5093 93.1022C44.3167 92.5933 44.2188 91.8614 44.2188 90.9004V82.9649ZM47.1989 91.6261H57.0125V82.11H47.1989V91.6261Z" fill="white"/>
<path d="M68.25 94.4614V79.4023H79.2149C79.8877 79.4023 80.4341 79.5008 80.8511 79.6945C81.2696 79.8898 81.5807 80.2019 81.7876 80.6293C81.9945 81.0583 82.0971 81.6241 82.0971 82.3268V85.8648C82.0971 86.9027 81.8634 87.6484 81.3975 88.1051C80.9316 88.5617 80.2036 88.7893 79.2149 88.7893H77.5188L83.4427 94.4599H79.1533L74.0017 88.7893H71.1827V94.4599H68.25V94.4614ZM77.871 82.0239H71.1827V86.1985H77.871C78.3558 86.1985 78.7001 86.1185 78.9054 85.9571C79.1107 85.7956 79.2134 85.4789 79.2134 85.0053V83.2017C79.2134 82.7374 79.1139 82.4252 78.9165 82.2653C78.7206 82.1054 78.3716 82.0239 77.871 82.0239Z" fill="white"/>
<path d="M96.0832 82.11V94.4614H93.1015V82.11H87.2266V79.4023H101.982V82.11H96.0832Z" fill="white"/>
<path d="M118.711 82.0238H110.329V85.2727H118.312C119.119 85.2727 119.755 85.3727 120.22 85.5726C120.684 85.7724 121.015 86.1261 121.213 86.635C121.41 87.144 121.511 87.8759 121.511 88.8353V90.9018C121.511 91.8613 121.412 92.5947 121.213 93.1036C121.015 93.6126 120.684 93.9662 120.22 94.1646C119.755 94.3644 119.119 94.4644 118.312 94.4644H110.401C109.594 94.4644 108.958 94.3644 108.493 94.1646C108.029 93.9662 107.697 93.6126 107.5 93.1036C107.303 92.5947 107.203 91.8628 107.203 90.9018V90.4867L109.833 89.8455V91.626H118.882V88.1926H110.899C110.084 88.1926 109.446 88.0911 108.991 87.8851C108.534 87.6806 108.209 87.3239 108.015 86.8165C107.822 86.3075 107.724 85.5802 107.724 84.6285V82.9617C107.724 82.0023 107.821 81.2689 108.015 80.7615C108.208 80.2525 108.536 79.8989 108.996 79.699C109.455 79.5006 110.09 79.3992 110.897 79.3992H118.166C118.958 79.3992 119.577 79.493 120.027 79.6821C120.475 79.8712 120.805 80.2033 121.02 80.6769C121.235 81.1505 121.341 81.8224 121.341 82.6942V83.0063L118.711 83.7367V82.0238Z" fill="white"/>
<path d="M99.7817 54.2827H78.1203L73.8594 46.9392L99.7817 54.2827Z" fill="#CBCBCB"/>
</svg>
