<svg width="25" height="25" viewBox="0 0 25 25" fill="none" xmlns="http://www.w3.org/2000/svg">
<g opacity="0.25" clip-path="url(#clip0_2318_636)">
<path d="M25 12.5C25 10.0277 24.2669 7.61099 22.8934 5.55538C21.5199 3.49976 19.5676 1.89761 17.2836 0.951512C14.9995 0.00541608 12.4861 -0.242126 10.0614 0.24019C7.63662 0.722505 5.40933 1.91301 3.66117 3.66117C1.91301 5.40933 0.722505 7.63662 0.24019 10.0614C-0.242126 12.4861 0.00541608 14.9995 0.951512 17.2836C1.89761 19.5676 3.49976 21.5199 5.55538 22.8934C7.61099 24.2669 10.0277 25 12.5 25C15.8141 24.9964 18.9915 23.6783 21.3349 21.3349C23.6783 18.9915 24.9964 15.8141 25 12.5ZM9.85938 18.4448L6.12396 14.7094C5.83373 14.4192 5.60349 14.0747 5.44641 13.6955C5.28933 13.3163 5.20849 12.9099 5.20849 12.4995C5.20849 12.0891 5.28933 11.6827 5.44641 11.3035C5.60349 10.9243 5.83373 10.5798 6.12396 10.2896L9.85938 6.55521L9.88542 6.53021C9.98288 6.43093 10.0992 6.35217 10.2276 6.29859C10.356 6.24501 10.4939 6.21769 10.633 6.21825C10.7721 6.21881 10.9097 6.24723 11.0377 6.30184C11.1656 6.35645 11.2814 6.43614 11.378 6.53621C11.4747 6.63628 11.5503 6.7547 11.6005 6.88448C11.6506 7.01425 11.6742 7.15276 11.67 7.29182C11.6657 7.43088 11.6336 7.56768 11.5756 7.69415C11.5176 7.82061 11.4349 7.93417 11.3323 8.02813L7.90209 11.4583L18.75 11.451C19.0263 11.451 19.2912 11.5608 19.4866 11.7561C19.6819 11.9515 19.7917 12.2164 19.7917 12.4927C19.7917 12.769 19.6819 13.0339 19.4866 13.2293C19.2912 13.4246 19.0263 13.5344 18.75 13.5344L7.90313 13.5417L11.3323 16.9719C11.4318 17.068 11.5111 17.1829 11.5657 17.31C11.6203 17.4371 11.6491 17.5738 11.6503 17.7121C11.6515 17.8504 11.6251 17.9876 11.5727 18.1156C11.5204 18.2436 11.443 18.3599 11.3452 18.4577C11.2474 18.5555 11.1311 18.6329 11.0031 18.6852C10.8751 18.7376 10.7379 18.764 10.5996 18.7628C10.4613 18.7616 10.3246 18.7328 10.1975 18.6782C10.0704 18.6236 9.95547 18.5443 9.85938 18.4448Z" fill="white"/>
</g>
<defs>
<clipPath id="clip0_2318_636">
<rect width="25" height="25" fill="white"/>
</clipPath>
</defs>
</svg>
