<svg width="16" height="17" viewBox="0 0 16 17" fill="none" xmlns="http://www.w3.org/2000/svg">
<path d="M7.9236 0.469482C3.58912 0.469482 0.0761719 3.98243 0.0761719 8.31691C0.0761719 12.6514 3.58912 16.1643 7.9236 16.1643C12.2581 16.1643 15.771 12.6514 15.771 8.31691C15.7649 3.9855 12.255 0.475613 7.9236 0.469482ZM10.5384 10.009C10.8051 10.2542 10.8204 10.6681 10.5752 10.9317C10.3299 11.1953 9.91611 11.2137 9.65248 10.9685C9.64022 10.9562 9.6249 10.944 9.6157 10.9317L7.9236 9.24266L6.2315 10.9348C5.97094 11.1861 5.55711 11.18 5.30575 10.9194C5.06051 10.665 5.06051 10.2634 5.30575 10.0121L6.99785 8.31997L5.30575 6.62787C5.05438 6.36731 5.06358 5.95348 5.32107 5.70212C5.5755 5.45689 5.97707 5.45689 6.22843 5.70212L7.92053 7.39422L9.61263 5.70212C9.85787 5.43543 10.2717 5.4201 10.5353 5.66534C10.7989 5.91057 10.8173 6.3244 10.5721 6.58802C10.5598 6.60028 10.5476 6.61561 10.5353 6.62481L8.84935 8.31691L10.5384 10.009Z" fill="white"/>
</svg>
