<svg width="29" height="32" viewBox="0 0 29 32" fill="none" xmlns="http://www.w3.org/2000/svg">
<path d="M4.67928 32C4.67262 32 4.66559 32 4.65856 32C2.08988 31.9866 0 29.9628 0 27.4885V4.46372C0 2.82691 0.89397 1.37299 2.39181 0.574354C3.88966 -0.223927 5.65576 -0.188267 7.11698 0.670035L26.7795 12.235C28.173 13.0535 29.0033 14.4752 29 16.0376C28.9967 17.5999 28.1604 19.0185 26.7625 19.832L12.5481 28.1361C11.8791 28.5269 11.0044 28.3264 10.5944 27.688C10.1848 27.0493 10.395 26.2147 11.0644 25.8235L25.2805 17.518C25.8378 17.1938 26.1571 16.6526 26.1582 16.0319C26.1597 15.4116 25.8426 14.8689 25.2891 14.5434L5.62653 2.97838C5.05522 2.64296 4.36402 2.62919 3.77791 2.94166C3.1918 3.25412 2.84176 3.82326 2.84176 4.46372V27.4885C2.84176 28.5594 3.78938 29.2839 4.6741 29.2885C4.95458 29.2881 5.28426 29.1871 5.62061 28.9912C6.29072 28.6014 7.16508 28.8033 7.57358 29.4424C7.98245 30.0814 7.7708 30.9161 7.10069 31.3059C6.32069 31.7603 5.4837 32 4.67928 32Z" fill="white"/>
</svg>
