<svg width="30" height="31" viewBox="0 0 30 31" fill="none" xmlns="http://www.w3.org/2000/svg">
<path d="M15 0C23.2843 0 30 6.81902 30 15.2308C30 23.6425 23.2843 30.4615 15 30.4615C6.71571 30.4615 0 23.6425 0 15.2308C0 6.81902 6.71571 0 15 0ZM8.04726 10.3582C8.27299 12.7665 9.24974 18.6109 9.74686 21.3083C9.9571 22.4497 10.3712 22.8324 10.7719 22.8698C11.6429 22.9512 12.3045 22.2853 13.1482 21.7237C14.4683 20.845 15.2142 20.298 16.4957 19.4405C17.9767 18.4496 17.0166 17.9052 16.1726 17.0147C15.9517 16.7817 12.1137 13.2371 12.0394 12.9155C12.0302 12.8753 12.0213 12.7251 12.1092 12.6463C12.1972 12.5674 12.3264 12.5941 12.4198 12.6156C12.5522 12.6461 14.6612 14.0615 18.7469 16.8619C19.3455 17.2792 19.8877 17.4826 20.3736 17.472C20.9092 17.4602 21.9394 17.1645 22.7053 16.9117C23.6447 16.6017 24.3913 16.4377 24.3263 15.9112C24.2924 15.6369 23.9204 15.3564 23.2103 15.0698C18.8375 13.1353 15.9216 11.86 14.4627 11.2437C10.297 9.48435 9.43143 9.17875 8.86724 9.16855C8.74313 9.16647 8.46568 9.19767 8.28599 9.34574C8.16645 9.45121 8.09026 9.59841 8.07248 9.75819C8.04203 9.9566 8.03357 10.1578 8.04726 10.3582Z" fill="#03A1CD"/>
</svg>
