<svg width="31" height="33" viewBox="0 0 31 33" fill="none" xmlns="http://www.w3.org/2000/svg">
<path d="M5.00199 33C4.99487 33 4.98735 33 4.97984 33C2.23401 32.9862 0 30.8991 0 28.3475V4.60321C0 2.91525 0.955623 1.41589 2.55677 0.592303C4.15791 -0.230924 6.04582 -0.19415 7.6078 0.690974L28.6264 12.6174C30.116 13.4614 31.0035 14.9276 31 16.5387C30.9964 18.1499 30.1025 19.6128 28.6082 20.4517L13.4135 29.0153C12.6984 29.4184 11.7633 29.2116 11.3251 28.5533C10.8872 27.8946 11.1119 27.0339 11.8274 26.6305L27.024 18.0654C27.6197 17.7312 27.9611 17.173 27.9622 16.5329C27.9638 15.8932 27.6249 15.3336 27.0331 14.9979L6.01457 3.07145C5.40386 2.72556 4.66499 2.71136 4.03846 3.03358C3.41192 3.35581 3.03774 3.94274 3.03774 4.60321V28.3475C3.03774 29.4519 4.05072 30.199 4.99645 30.2037C5.29627 30.2034 5.6487 30.0992 6.00824 29.8972C6.72456 29.4952 7.65922 29.7034 8.0959 30.3625C8.53297 31.0215 8.30672 31.8822 7.5904 32.2842C6.7566 32.7528 5.86189 33 5.00199 33Z" fill="white"/>
</svg>
