<svg width="80" height="80" viewBox="0 0 80 80" fill="none" xmlns="http://www.w3.org/2000/svg">
<path d="M66.1117 51.767L56.2903 49.5133C55.0058 49.2186 53.6537 49.6007 52.715 50.5259C52.7092 50.5315 52.7035 50.537 52.6977 50.5427C52.0067 49.5069 51.613 48.2693 51.613 46.9627V42.5175C53.3646 40.6078 54.7572 38.3033 55.7934 35.8241C58.394 37.5553 60.6453 32.0711 60.6453 29.6773C60.6453 27.9178 59.6056 26.9086 57.9548 26.9848C58.028 26.1511 58.0646 25.3257 58.0646 24.5161C58.0646 14.183 49.9769 10.3225 40.0001 10.3225C30.0234 10.3225 21.9356 14.183 21.9356 24.5161C21.9356 25.3327 21.973 26.1653 22.0474 27.0062C20.4042 26.8135 19.355 27.8315 19.355 29.6773C19.355 32.1712 21.5937 38.0183 24.1008 35.5665C25.1472 38.1435 26.5751 40.542 28.3872 42.5175V46.9627C28.3872 48.2693 27.9937 49.5069 27.3025 50.5427C27.3001 50.5404 27.2979 50.5382 27.2954 50.5357C26.3513 49.6054 24.9895 49.2243 23.6993 49.528L13.819 51.8527C7.99045 53.2243 3.87109 58.4253 3.87109 64.413V76.129C3.87109 78.2669 5.60416 79.9999 7.74206 79.9999H72.2582C74.3961 79.9999 76.1292 78.2669 76.1292 76.129V64.3435C76.1292 58.329 71.9738 53.1122 66.1117 51.767Z" fill="#FAD7A5"/>
<path d="M53.9037 51.8918C52.4819 50.6909 51.6135 48.9033 51.6135 46.9628V43.8708H40.0006H28.3877C29.6038 47.3671 37.8495 54.9934 45.3201 58.1394C47.5419 57.0963 50.6335 55.2133 53.9037 51.8918Z" fill="#F0C891"/>
<path d="M52.715 50.5261C50.799 52.4143 48.9824 54.0253 47.3534 55.3698C43.0837 58.8938 36.9166 58.8938 32.6467 55.3698C31.0206 54.0277 29.2075 52.42 27.2953 50.5361C26.3511 49.6058 24.9893 49.2246 23.6992 49.5283L13.8188 51.853C7.99045 53.2245 3.87109 58.4254 3.87109 64.4132V76.1291C3.87109 78.2671 5.60416 80.0001 7.74206 80.0001H72.2582C74.3961 80.0001 76.1292 78.2671 76.1292 76.1291V64.3435C76.1292 58.329 71.9738 53.1122 66.1117 51.7671L56.2903 49.5133C55.0058 49.2188 53.6537 49.6009 52.715 50.5261Z" fill="#5F87B9"/>
<path d="M67.76 69.6774C66.4863 69.6774 65.2411 69.3005 64.1813 68.5939L59.69 65.5997C58.6301 64.8932 57.385 64.5161 56.1113 64.5161H40.0001H23.889C22.6153 64.5161 21.3701 64.893 20.3103 65.5997L15.819 68.5939C14.7592 69.3005 13.514 69.6774 12.2403 69.6774H3.87109V76.129C3.87109 78.2669 5.60416 80 7.74206 80H72.2582C74.3961 80 76.1292 78.2669 76.1292 76.129V69.6774H67.76Z" fill="#E6EBF0"/>
<path d="M57.9543 26.9848C58.0276 26.1511 58.0642 25.3257 58.0642 24.5161C58.0642 14.183 49.9764 10.3225 39.9997 10.3225C30.0229 10.3225 21.9351 14.183 21.9351 24.5161C21.9351 25.3327 21.9726 26.1653 22.0469 27.0062C20.4037 26.8135 19.3545 27.8315 19.3545 29.6773C19.3545 32.1712 21.5932 38.0183 24.1003 35.5665C26.8155 42.2522 32.0948 47.7419 39.9997 47.7419C47.8027 47.7419 53.0476 42.3927 55.7929 35.8243C58.3935 37.5553 60.6448 32.0711 60.6448 29.6773C60.6448 27.9178 59.6051 26.9086 57.9543 26.9848Z" fill="#FFE1B4"/>
<path d="M40.0003 49.0323C26.7966 49.0323 20.6455 33.6334 20.6455 23.2258H23.2262C23.2262 32.5926 28.5576 46.4516 40.0003 46.4516C51.4431 46.4516 56.7745 32.5926 56.7745 23.2258H59.3552C59.3552 33.6334 53.2041 49.0323 40.0003 49.0323Z" fill="#91AAB9"/>
<path d="M49.3185 1.60145C49.1306 1.48806 48.9259 1.43371 48.7122 1.43371H46.9866C46.6443 1.43371 46.3162 1.58468 46.0741 1.85355L46.074 1.85387C45.5701 2.41371 44.7532 2.41371 44.2493 1.85371L43.3369 0.839839C42.8529 0.302097 42.1964 0 41.512 0H40.0003H38.4885C37.804 0 37.1477 0.302097 36.6637 0.839839L35.7512 1.85371C35.2474 2.41355 34.4304 2.41355 33.9266 1.85387L33.9264 1.85355C33.6845 1.58484 33.3562 1.43371 33.014 1.43371H31.2883C31.0745 1.43371 30.8699 1.48806 30.682 1.60145C29.2611 2.45871 22.9303 6.55742 20.4941 12.9032H40.0003H59.5064C57.0701 6.55742 50.7395 2.45871 49.3185 1.60145Z" fill="#5073A5"/>
<path d="M19.3545 21.9355L20.3282 28.7522C20.5098 30.0234 21.5987 30.9678 22.8829 30.9678H24.5158V21.9355H19.3545Z" fill="#5073A5"/>
<path d="M60.6457 21.9355L59.672 28.7522C59.4903 30.0234 58.4015 30.9678 57.1173 30.9678H55.4844V21.9355H60.6457Z" fill="#5073A5"/>
<path d="M59.5058 12.9033H20.4936C19.8428 12.9033 19.2939 13.3878 19.2133 14.0336L18.2455 21.7756C18.1492 22.5457 18.7497 23.2259 19.5258 23.2259H60.4734C61.2495 23.2259 61.85 22.5457 61.7537 21.7756L60.786 14.0336C60.7055 13.3878 60.1565 12.9033 59.5058 12.9033Z" fill="#5F87B9"/>
<path d="M53.2054 33.5484H26.7941C25.4927 33.5484 24.3948 32.5792 24.2335 31.2879L23.2256 23.2258H56.774L55.7662 31.2879C55.6048 32.5792 54.507 33.5484 53.2054 33.5484Z" fill="#FFF5E5"/>
<path d="M39.9997 67.1669L58.7881 50.0869L56.2897 49.5135C55.0052 49.2187 53.6531 49.6009 52.7144 50.5261C50.7984 52.4143 48.9818 54.0253 47.3528 55.3698C43.0831 58.8938 36.916 58.8938 32.6461 55.3698C31.02 54.0277 29.207 52.4199 27.2947 50.5361C26.3505 49.6058 24.9889 49.2248 23.6986 49.5282L21.2344 50.108L39.9997 67.1669Z" fill="#5073A5"/>
<path d="M33.4121 55.9463L40.0003 61.9355L46.5886 55.9463C42.6319 58.6981 37.3687 58.6981 33.4121 55.9463Z" fill="#E6EBF0"/>
</svg>
