<svg width="80" height="80" viewBox="0 0 80 80" fill="none" xmlns="http://www.w3.org/2000/svg">
<path d="M56.7738 52.9032H23.2254L13.7381 55.8224C9.40682 57.1551 6.45117 61.1567 6.45117 65.6885V76.129C6.45117 78.2669 8.18424 80 10.3221 80H69.677C71.8149 80 73.548 78.2669 73.548 76.129V65.6885C73.548 61.1569 70.5923 57.1551 66.2612 55.8224L56.7738 52.9032Z" fill="#E6EBF0"/>
<path d="M52.373 56.5184C53.898 55.5103 55.3716 54.3053 56.7738 52.9032C56.7738 43.0108 60.6448 32.2581 60.6448 32.2581H19.3545C19.3545 32.2581 23.2255 43.0108 23.2255 52.9032C31.1287 60.8064 41.3022 62.4476 50.1493 57.8292L52.6547 62.3381C54.5051 65.6703 55.4835 69.4456 55.4835 73.2566V80H58.0642V73.2566C58.0642 69.0082 56.9735 64.7995 54.9101 61.0848L52.373 56.5184Z" fill="#D2D7DC"/>
<path d="M59.3542 24.5161C59.3542 37.6996 47.8382 50.3225 39.9994 50.3225C32.1605 50.3225 20.6445 37.6996 20.6445 24.5161C20.6445 11.3325 29.31 2.58057 39.9994 2.58057C50.6887 2.58057 59.3542 11.3325 59.3542 24.5161Z" fill="#646978"/>
<path d="M39.9999 2.58065C50.6893 2.58065 59.3548 11.3326 59.3548 24.5161C59.3548 37.6997 47.8388 50.3226 39.9999 50.3226C32.1611 50.3226 20.6451 37.6997 20.6451 24.5161C20.6451 11.3326 29.3106 2.58065 39.9999 2.58065ZM39.9999 0C27.4946 0 18.0645 10.5397 18.0645 24.5161C18.0645 31.105 20.7277 38.199 25.3711 43.9794C29.8598 49.5673 35.3286 52.9032 39.9999 52.9032C44.6714 52.9032 50.1401 49.5673 54.6288 43.9794C59.2724 38.199 61.9354 31.105 61.9354 24.5161C61.9354 10.5397 52.5053 0 39.9999 0Z" fill="#E6EBF0"/>
<path d="M8.3144 59.8058C7.13988 61.4947 6.45117 63.526 6.45117 65.6885V76.129C6.45117 78.2669 8.18424 80 10.3221 80H18.0641V73.386C18.0641 71.0098 17.1278 68.7295 15.4581 67.039L8.3144 59.8058Z" fill="#D2D7DC"/>
<path d="M71.6842 59.8058C72.8588 61.4947 73.5475 63.526 73.5475 65.6885V76.129C73.5475 78.2669 71.8144 80 69.6765 80H61.9346V73.386C61.9346 71.0098 62.8709 68.7295 64.5405 67.039L71.6842 59.8058Z" fill="#D2D7DC"/>
<path d="M29.6768 24.5161C29.6768 12.5373 35.406 4.2417 42.8668 2.82089C41.9287 2.67799 40.9763 2.58057 39.9994 2.58057C29.31 2.58057 20.6445 11.3325 20.6445 24.5161C20.6445 37.6996 32.1605 50.3225 39.9994 50.3225C40.9129 50.3225 41.8774 50.1446 42.8668 49.8209C36.8666 47.3664 29.6768 36.1631 29.6768 24.5161Z" fill="#54596A"/>
</svg>
