<svg width="80" height="80" viewBox="0 0 80 80" fill="none" xmlns="http://www.w3.org/2000/svg">
<g clip-path="url(#clip0_2911_1003)">
<path d="M73.5673 65.5497L73.5486 65.5581V64.3429C73.5486 58.6024 69.7562 53.5522 64.2434 51.9514L54.1936 49.0333C54.0115 49.2219 53.8304 49.407 53.6498 49.5907C51.8084 47.9178 51.602 44.5226 51.5991 42.5445C53.357 40.632 54.7544 38.3218 55.7933 35.8363C58.394 37.5674 60.6453 32.083 60.6453 29.6893C60.6453 27.9298 59.6056 26.9206 57.9548 26.9967C58.028 26.163 58.0646 25.3376 58.0646 24.528C58.0646 14.1948 49.9768 11.6232 40 11.6232C30.0231 11.6232 21.9353 14.1948 21.9353 24.528C21.9353 25.3446 21.9727 26.1772 22.0471 27.0181C20.4038 26.8254 19.3546 27.8435 19.3546 29.6893C19.3546 32.1832 21.5934 38.0303 24.1005 35.5785C25.1487 38.1597 26.5808 40.5605 28.397 42.5381C28.3862 44.5088 28.1631 47.8936 26.3339 49.5741C26.1586 49.3959 25.9829 49.2161 25.8063 49.0331L15.7567 51.9514C10.2439 53.5522 6.45147 58.6024 6.45147 64.3429V65.5581L6.43276 65.5497C5.83727 65.2791 5.16113 65.7144 5.16113 66.3686V68.0906C5.16113 68.781 5.56468 69.4077 6.19324 69.6935L7.7418 70.3974V76.129C7.7418 78.2669 9.47488 80 11.6128 80H68.3875C70.5254 80 72.2585 78.2669 72.2585 76.129V70.3974L73.807 69.6935C74.4356 69.4078 74.8391 68.781 74.8391 68.0906V66.3686C74.839 65.7144 74.1628 65.2789 73.5673 65.5497Z" fill="#E6B47D"/>
<path d="M49.032 55.485L54.1403 49.9694C51.2546 48.1114 51.6127 42.5817 51.6127 41.2914H28.3867C30.0532 46.0822 41.075 54.3021 49.032 55.485Z" fill="#D2A073"/>
<path d="M57.9546 26.9967C58.0279 26.163 58.0645 25.3376 58.0645 24.528C58.0645 14.1948 49.9767 11.6232 39.9998 11.6232C30.023 11.6232 21.9352 14.1948 21.9352 24.528C21.9352 25.3446 21.9726 26.1772 22.0469 27.0181C20.4037 26.8254 19.3545 27.8435 19.3545 29.6893C19.3545 32.1832 21.5932 38.0303 24.1003 35.5785C26.8155 42.2642 32.0949 47.7539 39.9998 47.7539C47.8029 47.7539 53.0478 42.4047 55.7932 35.8363C58.3938 37.5674 60.6451 32.083 60.6451 29.6893C60.645 27.9298 59.6055 26.9207 57.9546 26.9967Z" fill="#F0C891"/>
<path d="M54.1933 49.0333C46.5058 56.9919 39.9997 60.6463 39.9997 60.6463C39.9997 60.6463 33.4935 56.9919 25.806 49.0333L15.7564 51.9514C10.2436 53.5521 6.45117 58.6024 6.45117 64.343V67.6844L19.3545 73.5497V79.9999H60.6452V73.5497L73.5485 67.6844V64.343C73.5485 58.6024 69.756 53.5522 64.2432 51.9514L54.1933 49.0333Z" fill="#FF6955"/>
<path d="M72.2587 68.3883H69.678V64.3428C69.678 60.3495 66.9998 56.7822 63.1646 55.669L54.594 53.1803L55.3135 50.7017L63.8841 53.1904C68.8148 54.6225 72.2587 59.2087 72.2587 64.3429V68.3883ZM10.3229 68.3883H7.74219V64.3428C7.74219 59.2085 11.1861 54.6224 16.1168 53.1903L24.6873 50.7015L25.4068 53.1801L16.8363 55.6688C13.0013 56.7821 10.3229 60.3495 10.3229 64.3426V68.3883Z" fill="#FFBE37"/>
<path d="M6.19324 69.6934L19.3548 75.676V71.4235L6.43276 65.5498C5.83727 65.2791 5.16113 65.7145 5.16113 66.3687V68.0906C5.16129 68.7809 5.56468 69.4076 6.19324 69.6934Z" fill="#C85050"/>
<path d="M73.8071 69.6934L60.6455 75.676V71.4235L73.5675 65.5498C74.163 65.2791 74.8392 65.7145 74.8392 66.3687V68.0906C74.839 68.7809 74.4356 69.4076 73.8071 69.6934Z" fill="#C85050"/>
<path d="M54.1939 49.0333C46.5064 56.9919 40.0002 60.6463 40.0002 60.6463C40.0002 60.6463 33.494 56.9919 25.8066 49.0333L21.5264 50.2762C30.3939 59.4829 37.7355 63.8076 38.0559 63.9938L40.0002 65.1228L41.9446 63.9938C42.2649 63.8076 49.6066 59.4828 58.4741 50.2762L54.1939 49.0333Z" fill="#C85050"/>
<path d="M54.1935 70.9675H46.4515C45.7389 70.9675 45.1611 71.5453 45.1611 72.2579V73.5482C45.1611 76.5732 46.0219 78.6211 47.0384 79.9999H53.6067C54.623 78.6211 55.484 76.5732 55.484 73.5482V72.2579C55.4838 71.5453 54.9062 70.9675 54.1935 70.9675Z" fill="#FFBE37"/>
<path d="M51.1451 79.9999C52.489 77.5699 52.9035 74.8173 52.9035 73.5482H50.3229H47.7422C47.7422 74.8173 48.1569 77.5699 49.5006 79.9999H51.1451Z" fill="#C85050"/>
<path d="M58.0652 2.59087C49.5335 2.59087 36.2097 -4.02161 30.9996 3.8812C30.6522 3.8812 30.3078 3.8812 29.6778 3.8812C24.6894 3.8812 20.6455 7.97091 20.6455 12.9593C20.6455 17.591 21.9358 24.528 21.9358 24.528C21.9358 24.528 23.3875 17.9957 29.6778 15.4956C29.6796 15.495 29.6814 15.494 29.6832 15.4932L29.6778 15.5415C42.3662 22.4233 54.1942 18.0763 54.1942 18.0763L58.0652 24.528C60.2426 17.1892 59.3555 4.44572 58.0652 2.59087Z" fill="#64464B"/>
</g>
<defs>
<clipPath id="clip0_2911_1003">
<rect width="80" height="80" fill="white"/>
</clipPath>
</defs>
</svg>
