<svg width="80" height="80" viewBox="0 0 80 80" fill="none" xmlns="http://www.w3.org/2000/svg">
<path d="M65.2116 55.7006L52.5675 51.4859C50.459 50.7832 49.0367 48.8098 49.0367 46.5872V41.9091C51.7449 39.3542 54.1884 35.9533 55.8495 32.3328C57.3063 32.6754 58.0731 30.9453 58.0731 30.9453C58.0731 29.3586 58.0731 25.7818 58.0731 25.7818L54.2003 14.1636H25.8003L21.9276 25.7818C21.9276 25.7818 21.9276 29.3587 21.9276 30.9453C21.9276 30.9453 22.6944 32.6754 24.1512 32.3328C25.8122 35.9535 28.2558 39.3542 30.9639 41.9091V46.5872C30.9639 48.8098 29.5417 50.783 27.4331 51.4859L14.789 55.7006C10.5719 57.1062 7.72754 61.0527 7.72754 65.4979V76.1273C7.72754 78.2662 9.46139 80 11.6003 80H68.4004C70.5392 80 72.2731 78.2662 72.2731 76.1273V65.4979C72.2732 61.0527 69.4287 57.1062 65.2116 55.7006Z" fill="#E6B47D"/>
<path d="M49.0366 46.5871V41.2725H30.9639C32.0921 44.4521 38.9977 55.0537 54.4636 52.1177L52.5674 51.4857C50.4589 50.7829 49.0366 48.8098 49.0366 46.5871Z" fill="#D2A073"/>
<path d="M54.2005 14.1633H25.8005L21.9277 25.7815C21.9277 25.7815 21.9277 29.3585 21.9277 30.945C21.9277 30.945 22.6945 32.6752 24.1513 32.3326C27.6039 39.8581 34.4365 46.4359 40.0005 46.4359C45.5645 46.4359 52.3969 39.8581 55.8496 32.3326C57.3064 32.6752 58.0732 30.945 58.0732 30.945C58.0732 29.3583 58.0732 25.7815 58.0732 25.7815L54.2005 14.1633Z" fill="#F0C891"/>
<path d="M54.6677 51.3793L53.6861 51.0521C53.2793 50.9165 52.8701 51.2021 52.8265 51.6288C52.1628 58.1279 46.6714 63.2181 40 63.2181C33.3286 63.2181 27.8372 58.1279 27.1735 51.6288C27.13 51.2021 26.7207 50.9165 26.3139 51.0521L25.3324 51.3793C24.8847 51.5286 24.5717 51.9331 24.548 52.4043C24.401 55.3229 23.4997 65.8946 18.0547 73.5454V79.9999H40.0002H61.9457V73.5454C56.5006 65.8946 55.5994 55.3229 55.4524 52.4043C55.4283 51.9331 55.1154 51.5286 54.6677 51.3793Z" fill="#A5E678"/>
<path d="M55.3844 52.0719C55.2663 51.7498 55.0062 51.4918 54.6685 51.3793L53.6869 51.0521C53.2801 50.9165 52.8709 51.2021 52.8273 51.6288C52.1635 58.1279 46.6722 63.2181 40.0008 63.2181C33.3294 63.2181 27.838 58.1279 27.1743 51.6288C27.1308 51.2021 26.7215 50.9165 26.3147 51.0521L25.3332 51.3793C24.9956 51.4918 24.7353 51.7496 24.6172 52.0719C25.4934 59.796 32.0423 65.8001 40.0008 65.8001C47.9593 65.8001 54.5081 59.7959 55.3844 52.0719Z" fill="#E1F046"/>
<path d="M40.0004 0C32.0463 0.426646 20.6367 4.99131 20.6367 16.7452C20.6367 27.0725 21.9276 30.9451 21.9276 30.9451C21.9276 30.9451 22.6304 16.7452 40.0004 16.7452C57.3704 16.7452 58.0731 30.9451 58.0731 30.9451C58.0731 30.9451 59.364 27.0725 59.364 16.7452C59.364 4.99131 47.9545 0.426646 40.0004 0Z" fill="#5FB4C8"/>
<path d="M21.9279 30.945C21.9279 30.945 22.6306 16.7452 40.0006 16.7452C57.3706 16.7452 58.0734 30.945 58.0734 30.945C58.0734 30.945 58.654 29.1878 59.0364 24.9177C56.8618 20.1272 51.7908 14.1633 40.0006 14.1633C28.2104 14.1633 23.1394 20.1272 20.9648 24.9177C21.3473 29.1879 21.9279 30.945 21.9279 30.945Z" fill="#5F96B4"/>
<path d="M36.2852 28.6327L30.4738 29.2784C28.6691 29.479 27.0908 28.0663 27.0908 26.2505V26.2463C27.0908 24.5637 28.4548 23.1997 30.1374 23.1997H35.9842C37.4891 23.1997 38.709 24.4196 38.709 25.9245C38.7092 27.313 37.6652 28.4794 36.2852 28.6327Z" fill="#5F96B4"/>
<path d="M29.6729 26.2076V26.2163C29.6729 27.2349 30.5545 28.0296 31.5676 27.9241L34.7326 27.5944C35.5252 27.5118 36.1274 26.8437 36.1274 26.0468C36.1274 25.1873 35.4308 24.4907 34.5714 24.4907H31.3898C30.4414 24.4907 29.6729 25.2595 29.6729 26.2076Z" fill="#4D829D"/>
<path d="M43.7149 28.6327L49.5262 29.2784C51.3309 29.479 52.9092 28.0663 52.9092 26.2505V26.2463C52.9092 24.5637 51.5452 23.1997 49.8627 23.1997H44.0158C42.5109 23.1997 41.291 24.4196 41.291 25.9245C41.291 27.313 42.3349 28.4794 43.7149 28.6327Z" fill="#5F96B4"/>
<path d="M50.3276 26.2076V26.2163C50.3276 27.2349 49.4459 28.0296 48.4329 27.9241L45.2679 27.5944C44.4753 27.5118 43.873 26.8437 43.873 26.0468C43.873 25.1873 44.5697 24.4907 45.4291 24.4907H48.6107C49.5589 24.4907 50.3276 25.2595 50.3276 26.2076Z" fill="#4D829D"/>
<path d="M27.7367 25.7816H21.2822C20.9257 25.7816 20.6367 25.4926 20.6367 25.1362C20.6367 24.7797 20.9257 24.4907 21.2822 24.4907H27.7367C28.0932 24.4907 28.3822 24.7797 28.3822 25.1362C28.3822 25.4928 28.0932 25.7816 27.7367 25.7816Z" fill="#555069"/>
<path d="M58.7192 25.7816H52.2646C51.9081 25.7816 51.6191 25.4926 51.6191 25.1362C51.6191 24.7797 51.9081 24.4907 52.2646 24.4907H58.7192C59.0756 24.4907 59.3646 24.7797 59.3646 25.1362C59.3646 25.4928 59.0756 25.7816 58.7192 25.7816Z" fill="#555069"/>
<path d="M41.9371 25.7816H38.0644C37.7079 25.7816 37.4189 25.4926 37.4189 25.1362C37.4189 24.7797 37.7079 24.4907 38.0644 24.4907H41.9371C42.2936 24.4907 42.5826 24.7797 42.5826 25.1362C42.5826 25.4928 42.2936 25.7816 41.9371 25.7816Z" fill="#555069"/>
</svg>
