<svg width="75" height="77" viewBox="0 0 75 77" fill="none" xmlns="http://www.w3.org/2000/svg">
<g opacity="0.99">
<path d="M64.5741 51.0427L50.7878 47.364C49.4311 46.9544 48.4218 45.7846 48.1894 44.3525H26.8106C26.5781 45.7846 25.5688 46.9544 24.2122 47.364L10.4258 51.0427C6.08904 52.2 3.06152 56.2193 3.06152 60.8198V73.2118C3.06152 75.304 4.7135 77 6.75136 77H37.5H68.2487C70.2866 77 71.9385 75.304 71.9385 73.2118V60.8198C71.9384 56.2193 68.9109 52.2 64.5741 51.0427Z" fill="#FF6955"/>
<path d="M38.7304 53.0078H36.2705V77H38.7304V53.0078Z" fill="#C85050"/>
<path d="M6.0629 53.5637C4.19523 55.4204 3.06152 58.0097 3.06152 60.8198V73.2117C3.06152 75.3039 4.7135 77 6.75136 77H15.361V67.2393C15.361 65.392 14.7037 63.6084 13.5127 62.2239L6.0629 53.5637Z" fill="#E6EBF0"/>
<path d="M68.9368 53.5637C70.8044 55.4204 71.9381 58.0097 71.9381 60.8198V73.2117C71.9381 75.3039 70.2862 77 68.2483 77H59.6387V67.2393C59.6387 65.392 60.2959 63.6084 61.487 62.2239L68.9368 53.5637Z" fill="#E6EBF0"/>
<path d="M25.2002 45.2734V46.5962C25.2002 50.8346 30.7068 54.2705 37.4997 54.2705C44.2925 54.2705 49.7991 50.8346 49.7991 46.5962V45.2734H25.2002Z" fill="#E6EBF0"/>
<path d="M37.5004 0C25.2733 0 15.3613 9.61091 15.3613 21.4667V36.6196C15.3613 43.5784 25.2733 49.2196 37.5004 49.2196C49.7274 49.2196 59.6394 43.5784 59.6394 36.6196V21.4667C59.6394 9.61091 49.7274 0 37.5004 0Z" fill="#6E738C"/>
<path d="M59.6389 30.3058H15.3608C14.6816 30.3058 14.1309 29.7404 14.1309 29.043V22.7293C14.1309 22.0319 14.6816 21.4666 15.3608 21.4666H59.6389C60.3181 21.4666 60.8688 22.0319 60.8688 22.7293V29.043C60.8688 29.7404 60.3181 30.3058 59.6389 30.3058Z" fill="#5A5F78"/>
<path d="M37.5004 37.8824C29.4557 37.8824 21.9151 36.6903 15.3613 34.6213V36.6196C15.3613 43.5785 25.2733 49.2196 37.5004 49.2196C49.7274 49.2196 59.6394 43.5785 59.6394 36.6196V34.6213C53.0858 36.6903 45.5451 37.8824 37.5004 37.8824Z" fill="#B9C1CD"/>
<path d="M37.5004 37.8824C29.4557 37.8824 21.9151 36.6903 15.3613 34.6213V36.6196C15.3613 36.8119 15.3968 36.9989 15.4119 37.189C21.9541 39.2482 29.476 40.4352 37.5004 40.4352C45.5248 40.4352 53.0467 39.2482 59.5888 37.189C59.6037 36.9988 59.6394 36.8117 59.6394 36.6196V34.6213C53.0858 36.6903 45.5451 37.8824 37.5004 37.8824Z" fill="#5A5F78"/>
<path d="M52.2815 5.51782L42.4199 22.7295H47.3397L57.4971 12.3013C56.2321 9.71156 54.4539 7.4121 52.2815 5.51782Z" fill="#B9C1CD"/>
<path d="M17.5029 12.3011L27.6603 22.7294H32.5801L22.7187 5.51782C20.5464 7.41194 18.7679 9.7114 17.5029 12.3011Z" fill="#B9C1CD"/>
<path d="M17.8213 21.4666L18.8677 31.1344C18.9817 32.1888 19.7276 33.0436 20.7277 33.31C25.5898 34.6056 31.3372 35.3568 37.5004 35.3568C43.6639 35.3568 49.4112 34.6056 54.2732 33.3102C55.2733 33.0437 56.0191 32.1888 56.1332 31.1346L57.1796 21.4667L17.8213 21.4666Z" fill="#8CE69B"/>
<path d="M40.0811 8.97859L41.0206 0.296903C39.871 0.118382 38.7011 0 37.4995 0C36.298 0 35.1279 0.118382 33.9785 0.296903L34.918 8.97859C34.9872 9.61802 35.5138 10.102 36.1405 10.102H38.8586C39.4853 10.102 40.0117 9.61817 40.0811 8.97859Z" fill="#B9C1CD"/>
<path d="M52.259 71.9491H46.1093C44.7507 71.9491 43.6494 70.8185 43.6494 69.4236V64.3727C43.6494 62.9778 44.7507 61.8472 46.1093 61.8472H52.259C53.6177 61.8472 54.7189 62.9778 54.7189 64.3727V69.4236C54.7189 70.8185 53.6177 71.9491 52.259 71.9491Z" fill="#FFBE37"/>
<path d="M53.489 59.3216H44.8794C44.2001 59.3216 43.6494 58.7562 43.6494 58.0589C43.6494 57.3615 44.2001 56.7961 44.8794 56.7961H53.489C54.1682 56.7961 54.7189 57.3615 54.7189 58.0589C54.7189 58.7562 54.1682 59.3216 53.489 59.3216Z" fill="#8CE69B"/>
<path d="M22.7406 73.2119H20.2807C19.6015 73.2119 19.0508 72.6465 19.0508 71.9491V69.4236C19.0508 68.7263 19.6015 68.1609 20.2807 68.1609H22.7406C23.4199 68.1609 23.9706 68.7263 23.9706 69.4236V71.9491C23.9706 72.6465 23.4199 73.2119 22.7406 73.2119Z" fill="#B9C1CD"/>
<path d="M28.89 66.8981H26.4301C25.7509 66.8981 25.2002 66.3328 25.2002 65.6354V63.1099C25.2002 62.4126 25.7509 61.8472 26.4301 61.8472H28.89C29.5693 61.8472 30.12 62.4126 30.12 63.1099V65.6354C30.12 66.3328 29.5693 66.8981 28.89 66.8981Z" fill="#6E738C"/>
<path d="M6.75136 69.4235H3.06152V64.3726H6.75136C8.10999 64.3726 9.21126 65.5032 9.21126 66.898C9.21126 68.2929 8.10999 69.4235 6.75136 69.4235Z" fill="#FFBE37"/>
<path d="M65.7885 71.9491H71.9383V69.4236H65.7885C65.1093 69.4236 64.5586 69.989 64.5586 70.6863C64.5586 71.3837 65.1093 71.9491 65.7885 71.9491Z" fill="#FF6955"/>
<path d="M68.2485 66.898H71.9383V64.3726H68.2485C67.5693 64.3726 67.0186 64.938 67.0186 65.6353C67.0186 66.3327 67.5693 66.898 68.2485 66.898Z" fill="#6E738C"/>
</g>
</svg>
