<svg width="80" height="80" viewBox="0 0 80 80" fill="none" xmlns="http://www.w3.org/2000/svg">
<g clip-path="url(#clip0_2911_702)">
<path d="M56.7734 33.4194H39.9992H23.2251C23.2251 45.7264 17.9831 43.3388 16.7734 50.1936L58.0638 50.3549C58.0638 44.0109 56.7734 36.1077 56.7734 33.4194Z" fill="#625448"/>
<path d="M65.1991 51.6753L52.5607 47.4625C50.4531 46.76 49.0315 44.7877 49.0315 42.5661V39.2169C53.9915 34.5382 58.0638 27.0206 58.0638 20.5162C58.0638 20.5162 57.7412 9.87108 54.1928 8.90334C53.084 8.60092 51.282 8.36157 49.3285 8.17528C43.1249 7.58383 36.8736 7.58383 30.6699 8.17528C28.7165 8.36157 26.9146 8.60092 25.8057 8.90334C22.2573 9.87108 21.9348 20.5162 21.9348 20.5162C21.9348 27.0206 26.007 34.5382 30.967 39.2169V42.5661C30.967 44.7877 29.5454 46.76 27.4378 47.4625L14.7994 51.6753C10.5843 53.0803 7.74121 57.025 7.74121 61.4682V72.0927C7.74121 74.2306 9.47428 75.9637 11.6122 75.9637H68.3864C70.5243 75.9637 72.2573 74.2306 72.2573 72.0927V61.4682C72.2573 57.025 69.4143 53.0803 65.1991 51.6753Z" fill="#E6B47D"/>
<path d="M59.5155 68.2581H20.6445V76H59.5155V68.2581Z" fill="#464B5F"/>
<path d="M52.2121 47.3306C50.4161 46.6452 49.0317 44.6625 49.0317 42.5661V41.1614H31.0137C32.4735 45.6828 40.8466 54.0798 49.0314 51.6925L52.2121 47.3306Z" fill="#D2A073"/>
<path d="M54.291 45.7263C53.4917 45.3266 52.5202 45.5679 52.0007 46.2952L40.9609 61.7508C40.3357 62.6262 39.9996 63.675 39.9996 64.7508C39.9996 63.675 39.6634 62.6263 39.0383 61.7508L27.9984 46.2952C27.4789 45.5679 26.5076 45.3266 25.7081 45.7263L6.45117 55.3549L17.8967 65.8055C18.8149 66.5402 19.3494 67.6523 19.3494 68.8283V69.5436C19.3494 70.9707 20.5078 72.127 21.9349 72.1242L37.4236 72.0975C38.847 72.0947 39.9994 70.9402 39.9994 69.5168C39.9994 70.9402 41.1518 72.0947 42.5752 72.0975L57.8967 72.1242C59.3238 72.127 60.4821 70.9707 60.4821 69.5436V68.8283C60.4821 67.6523 61.0167 66.5402 61.9349 65.8055L73.548 55.3549L54.291 45.7263Z" fill="#54596A"/>
<path d="M60.1142 65.8007L57.0542 64.6533C54.8584 63.8299 53.8932 61.2585 55.0052 59.1936L60.7057 48.6072C61.3839 47.3475 62.9576 46.8801 64.2136 47.5651L74.6153 53.2388C75.3716 53.6512 75.5191 54.6747 74.9099 55.2839L65.576 64.6178C64.1449 66.0488 62.0092 66.5114 60.1142 65.8007Z" fill="#727887"/>
<path d="M68.3511 49.8223L74.6145 53.2387C75.3706 53.6513 75.5182 54.6748 74.909 55.2839L65.5751 64.6177C64.1438 66.0489 62.0083 66.5115 60.1132 65.8008L59.0117 65.3878L68.3511 49.8223Z" fill="#646978"/>
<path d="M39.9996 69.5485C41.4248 69.5485 42.5802 68.3931 42.5802 66.9679C42.5802 65.5426 41.4248 64.3872 39.9996 64.3872C38.5743 64.3872 37.4189 65.5426 37.4189 66.9679C37.4189 68.3931 38.5743 69.5485 39.9996 69.5485Z" fill="#727887"/>
<path d="M25.1758 34.7097C25.1758 40.3549 25.8603 53.7957 32.2582 63.0968C32.2582 63.0968 30.9679 48.1505 30.9679 40.3549L25.1758 34.7097Z" fill="#625448"/>
<path d="M54.1936 8.90334C53.0847 8.60092 51.2828 8.36157 49.3293 8.17528C43.1257 7.58383 36.8744 7.58383 30.6707 8.17528C28.7173 8.36157 26.9154 8.60092 25.8065 8.90334C22.2581 9.87108 21.9355 20.5162 21.9355 20.5162C21.9355 30.8493 32.212 43.7421 40.0001 43.7421C47.7881 43.7421 58.0646 30.8493 58.0646 20.5162C58.0646 20.5162 57.742 9.87108 54.1936 8.90334Z" fill="#F0C891"/>
<path d="M54.8238 30.8386C52.0062 36.9706 46.422 41.1612 39.9994 41.1612C33.5768 41.1612 27.9926 36.9706 25.1751 30.8386H22.3818C25.4268 38.4359 32.1701 43.7418 39.9994 43.7418C47.8288 43.7418 54.572 38.4359 57.617 30.8386H54.8238Z" fill="#727887"/>
<path d="M39.9999 -4C27.8853 -4 18.0645 2.79742 18.0645 12.7742C18.0645 21.4819 18.9622 28.1094 20.8096 33.035C21.1977 34.0715 22.1812 34.7103 23.2264 34.7103C23.5993 34.7103 23.9809 34.6289 24.3459 34.4539C25.5607 33.8716 26.0711 32.3855 25.6043 31.1218C24.3991 27.8595 23.6504 23.484 23.3632 18.0805C23.2846 16.6039 24.4654 15.3548 25.9443 15.3548H54.0556C55.5343 15.3548 56.7151 16.6039 56.6367 18.0805C56.3495 23.4839 55.6009 27.8595 54.3956 31.1218C53.9288 32.3855 54.4391 33.8716 55.654 34.4539C56.019 34.6289 56.4006 34.7103 56.7735 34.7103C57.8186 34.7103 58.8022 34.0708 59.1903 33.035C61.0377 28.1094 61.9354 21.4819 61.9354 12.7742C61.9354 2.79742 52.1146 -4 39.9999 -4Z" fill="#54596A"/>
<path d="M23.3706 17.9355C23.3751 16.524 24.5149 15.3548 25.9443 15.3548H54.0556C55.4848 15.3548 56.6246 16.524 56.6293 17.9355H61.8083C61.8869 16.2963 61.9356 14.5909 61.9356 12.7742H18.0645C18.0645 14.5909 18.113 16.2963 18.1917 17.9355H23.3706Z" fill="#464B5F"/>
<path d="M32.2578 42.8425C32.2578 43.4099 32.6257 43.9033 33.1652 44.079C34.9849 44.6712 37.3751 45.0322 39.9997 45.0322C42.6244 45.0322 45.0146 44.6712 46.8343 44.079C47.3738 43.9033 47.7417 43.4099 47.7417 42.8425V41.1612C47.7417 39.7359 46.5864 38.5806 45.161 38.5806H34.8385C33.4131 38.5806 32.2578 39.7359 32.2578 41.1612V42.8425Z" fill="#464B5F"/>
<path d="M53.1084 30.8386H26.7876C24.7744 30.8386 23.0972 29.2954 22.9301 27.2891L21.9355 15.3547H57.6176L56.9736 27.1781C56.8618 29.2312 55.1644 30.8386 53.1084 30.8386Z" fill="#F9E2C2"/>
<path d="M19.8857 65.8007L22.9457 64.6533C25.1415 63.8299 26.1067 61.2585 24.9947 59.1936L19.2942 48.6072C18.616 47.3475 17.0423 46.8801 15.7863 47.5651L5.38456 53.2386C4.62827 53.651 4.48085 54.6746 5.09004 55.2838L14.4239 64.6176C15.855 66.0488 17.9907 66.5114 19.8857 65.8007Z" fill="#727887"/>
<path d="M11.6479 49.8223L5.38451 53.2387C4.62838 53.6513 4.4808 54.6748 5.08999 55.2839L14.4239 64.6177C15.8552 66.0489 17.9906 66.5115 19.8858 65.8008L20.9873 65.3878L11.6479 49.8223Z" fill="#646978"/>
</g>
<defs>
<clipPath id="clip0_2911_702">
<rect width="80" height="80" fill="white"/>
</clipPath>
</defs>
</svg>
