<svg width="80" height="80" viewBox="0 0 80 80" fill="none" xmlns="http://www.w3.org/2000/svg">
<path d="M72.2584 64.3908C72.2545 59.85 70.5724 55.8448 66.2281 54.5235L54.1637 51.248L54.1197 51.2837L54.141 51.2598C51.2553 49.4021 51.6132 43.8724 51.6132 42.5821H51.5652C55.9131 37.8772 58.0648 30.7409 58.0648 24.5285C58.0648 14.1954 49.9771 10.335 40.0003 10.335C30.0235 10.335 21.9358 14.1954 21.9358 24.5285C21.9358 30.7409 24.0876 37.8772 28.4355 42.5821H28.3874C28.3874 43.8724 28.71 49.4021 25.8245 51.26L25.8961 51.34L25.8119 51.2719L15.034 54.5395C10.6918 55.868 7.72774 59.8782 7.73145 64.419L7.74226 76.129C7.74403 78.2669 9.47855 79.9985 11.6164 79.9967L40.0129 80L68.4016 79.975C70.5395 79.9732 72.2711 78.2387 72.2693 76.1008L72.2584 64.3908Z" fill="#97785E"/>
<path d="M54.1932 58.0659L54.1401 51.2599C51.2546 49.402 51.6125 43.8724 51.6125 42.582H28.3867C31.0211 48.7648 42.419 57.2595 54.1932 58.0659Z" fill="#856953"/>
<path d="M58.0646 24.5285C58.0646 34.8616 52.1147 47.7543 40.0001 47.7543C27.8854 47.7543 21.9355 34.8616 21.9355 24.5285C21.9355 14.1954 30.0233 10.335 40.0001 10.335C49.9768 10.335 58.0646 14.1954 58.0646 24.5285Z" fill="#A28367"/>
<path d="M54.8238 34.8401C52.0062 40.972 46.422 45.1627 39.9994 45.1627C33.5768 45.1627 27.9926 40.972 25.1751 34.8401H22.3818C25.4268 42.4373 32.1701 47.7433 39.9994 47.7433C47.8288 47.7433 54.572 42.4373 57.617 34.8401H54.8238Z" fill="#D2D7DC"/>
<path d="M39.9999 0C27.8853 0 18.0645 6.79887 18.0645 16.7756C18.0645 25.4834 18.9622 32.1108 20.8096 37.0365C21.1977 38.0729 22.1812 38.7118 23.2264 38.7118C23.5993 38.7118 23.9809 38.6303 24.3459 38.4553C25.5607 37.8731 26.0711 36.3869 25.6043 35.1232C24.3991 31.861 23.6504 27.4855 23.3632 22.0819C23.2846 20.6053 24.4654 19.3563 25.9443 19.3563H54.0556C55.5343 19.3563 56.7151 20.6053 56.6367 22.0819C56.3495 27.4853 55.6009 31.861 54.3956 35.1232C53.9288 36.3869 54.4391 37.8731 55.654 38.4553C56.019 38.6303 56.4006 38.7118 56.7735 38.7118C57.8186 38.7118 58.8022 38.0723 59.1903 37.0365C61.0377 32.1108 61.9354 25.4834 61.9354 16.7756C61.9354 6.79887 52.1146 0 39.9999 0Z" fill="#E6EBF0"/>
<path d="M23.3706 21.9369C23.3751 20.5255 24.5149 19.3563 25.9443 19.3563H54.0556C55.4848 19.3563 56.6246 20.5255 56.6293 21.9369H61.8083C61.8869 20.2977 61.9356 18.5924 61.9356 16.7756H18.0645C18.0645 18.5924 18.113 20.2977 18.1917 21.9369H23.3706Z" fill="#FF8750"/>
<path d="M32.2578 46.844C32.2578 47.4114 32.6257 47.9048 33.1652 48.0804C34.9849 48.6727 37.3751 49.0336 39.9997 49.0336C42.6244 49.0336 45.0146 48.6727 46.8343 48.0804C47.3738 47.9048 47.7417 47.4114 47.7417 46.844V45.1627C47.7417 43.7374 46.5864 42.582 45.161 42.582H34.8385C33.4131 42.582 32.2578 43.7374 32.2578 45.1627V46.844Z" fill="#E6EBF0"/>
<path d="M68.5699 50.4463L58.6175 48.1115C57.0623 47.7467 55.4489 48.3675 54.5468 49.6857C52.5046 52.6694 47.987 58.0539 39.9996 61.9368C32.0121 58.0541 27.4946 52.6694 25.4523 49.6857C24.55 48.3675 22.9368 47.7467 21.3817 48.1115L11.4292 50.4463C8.51295 51.1305 6.45117 53.732 6.45117 56.7273V67.0979L19.3544 73.5496V79.9999H39.9996H60.6447V73.5497L73.548 67.0981V56.7273C73.548 53.732 71.4862 51.1305 68.5699 50.4463Z" fill="#E6EBF0"/>
<path d="M58.6179 48.1115C57.0627 47.7467 55.4493 48.3675 54.5472 49.6857C52.505 52.6694 47.9874 58.0539 40 61.9368C32.0126 58.0541 27.495 52.6694 25.4527 49.6857C24.5505 48.3675 22.9372 47.7467 21.3821 48.1115L19.3379 48.591C22.1837 52.8615 28.1168 60.1081 38.2108 65.3692L39.9998 66.3023L41.7892 65.3692C51.8832 60.1081 57.8163 52.8615 60.6621 48.591L58.6179 48.1115Z" fill="#FF8750"/>
<path d="M58.0645 19.3562H21.9354C19.8009 19.3562 18.0645 21.0927 18.0645 23.2272V28.7147C18.0645 31.1972 18.4399 33.6575 19.1803 36.0277L22.8767 47.8567C24.0612 51.6477 27.5264 54.1949 31.4982 54.1949H48.5017C52.4735 54.1949 55.9386 51.6477 57.1232 47.8567L60.8196 36.0277C61.5599 33.6575 61.9354 31.1972 61.9354 28.7147V23.2272C61.9354 21.0925 60.199 19.3562 58.0645 19.3562ZM20.6451 23.2272C20.6451 22.5159 21.2241 21.9368 21.9354 21.9368H58.0645C58.7757 21.9368 59.3548 22.5159 59.3548 23.2272V28.7147C59.3548 30.5964 59.0991 32.4612 58.6224 34.2773L55.6653 29.5923C55.1896 28.8381 54.3736 28.3883 53.4822 28.3883H26.5177C25.6262 28.3883 24.8103 28.8381 24.3353 29.5917L21.3775 34.2773C20.9007 32.4612 20.6451 30.5964 20.6451 28.7146V23.2272ZM22.3612 37.5539L26.5177 30.9691H29.8132L30.8167 40.0014H23.1261L22.3612 37.5539ZM32.409 30.9691H38.7096V40.0014H33.4125L32.409 30.9691ZM46.3006 42.582L45.297 51.6143H34.7028L33.6993 42.582H46.3006ZM41.2903 40.0014V30.9691H47.5909L46.5874 40.0014H41.2903ZM50.1867 30.9691H53.4822L57.6386 37.5539L56.8738 40.0014H49.1832L50.1867 30.9691ZM25.3401 47.0867L23.9324 42.5818H31.1033L32.1069 51.6141H31.498C28.6611 51.6143 26.1862 49.7948 25.3401 47.0867ZM54.6598 47.0867C53.8136 49.7946 51.3388 51.6141 48.5017 51.6141H47.8928L48.8964 42.5818H56.0674L54.6598 47.0867Z" fill="#7D645A"/>
<path d="M73.5668 66.0043L60.645 71.878H19.3547L6.43291 66.0043C5.83742 65.7337 5.16113 66.169 5.16113 66.8232V68.5451C5.16113 69.2356 5.56468 69.8622 6.19323 70.148L19.3547 76.1305V73.5498H60.645V76.1305L73.8065 70.1479C74.435 69.8622 74.8386 69.2355 74.8386 68.545V66.823C74.8386 66.1688 74.1624 65.7335 73.5668 66.0043Z" fill="#FF8750"/>
</svg>
