<svg width="80" height="80" viewBox="0 0 80 80" fill="none" xmlns="http://www.w3.org/2000/svg">
<path d="M63.7165 51.5062L55.6439 48.923C55.0896 49.3469 54.5044 49.7906 53.8955 50.2421L54.14 49.9682C51.2546 48.1103 51.6125 42.5806 51.6125 41.2903H28.3867C28.3867 42.5806 28.7092 48.1103 25.8238 49.9682L25.9999 50.165C25.4283 49.7403 24.8779 49.3227 24.3552 48.923L16.2826 51.5062C10.8754 53.2366 6.45117 59.2974 6.45117 64.9748V76.129C6.45117 78.2669 8.18424 80 10.3221 80H69.677C71.8149 80 73.548 78.2669 73.548 76.129V64.9748C73.548 59.2974 69.1238 53.2366 63.7165 51.5062Z" fill="#FAD7A5"/>
<path d="M52.2467 47.3067C51.4487 44.9979 51.6125 42.1666 51.6125 41.2903H28.3867C29.7699 45.2671 37.5993 51.6063 44.7712 54.3222L52.2467 47.3067Z" fill="#F0C891"/>
<path d="M58.0636 24.5161C58.0636 34.8491 52.1138 47.7419 39.9991 47.7419C27.8844 47.7419 21.9346 34.8491 21.9346 24.5161C21.9346 14.183 30.0223 10.3225 39.9991 10.3225C49.9759 10.3225 58.0636 14.183 58.0636 24.5161Z" fill="#FFE1B4"/>
<path d="M6.45117 76.1291V64.9749C6.45117 59.2975 10.8754 53.2366 16.2826 51.5063L24.3552 48.9231C28.6984 52.2441 39.9996 56.7742 39.9996 56.7742C39.9996 56.7742 51.3007 52.2441 55.6439 48.9231L63.7165 51.5063C69.1238 53.2366 73.548 59.2975 73.548 64.9749V76.1291C73.548 78.267 71.8149 80 69.677 80H10.3221C8.18424 80 6.45117 78.267 6.45117 76.1291Z" fill="#E6EBF0"/>
<path d="M41.2902 74.8387H38.7096C37.2842 74.8387 36.1289 73.6834 36.1289 72.258V56.7742H43.8708V72.258C43.8708 73.6834 42.7155 74.8387 41.2902 74.8387Z" fill="#C3CBD2"/>
<path d="M39.9998 56.7741L34.6159 62.158C34.0553 62.7186 33.1264 62.6457 32.6599 62.0046L23.2256 49.0322L26.2309 46.0269C26.7162 45.5416 27.4964 45.5211 28.0066 45.9803L39.9998 56.7741Z" fill="#D2D7DC"/>
<path d="M40 56.7741L45.3839 62.158C45.9445 62.7186 46.8734 62.6457 47.3398 62.0046L56.7742 49.0322L53.7689 46.0269C53.2836 45.5416 52.5034 45.5211 51.9932 45.9803L40 56.7741Z" fill="#D2D7DC"/>
<path d="M39.9993 70.9679C40.7119 70.9679 41.2896 70.3902 41.2896 69.6775C41.2896 68.9649 40.7119 68.3872 39.9993 68.3872C39.2867 68.3872 38.709 68.9649 38.709 69.6775C38.709 70.3902 39.2867 70.9679 39.9993 70.9679Z" fill="#E6EBF0"/>
<path d="M39.9993 64.5162C40.7119 64.5162 41.2896 63.9385 41.2896 63.2259C41.2896 62.5132 40.7119 61.9355 39.9993 61.9355C39.2867 61.9355 38.709 62.5132 38.709 63.2259C38.709 63.9385 39.2867 64.5162 39.9993 64.5162Z" fill="#E6EBF0"/>
<path d="M16.331 64.0733L9.2094 56.9517C7.50682 59.3547 6.45117 62.2084 6.45117 64.9747V76.1289C6.45117 78.2668 8.18424 79.9999 10.3221 79.9999H19.3544V71.3725C19.3544 68.6347 18.2668 66.0091 16.331 64.0733Z" fill="#D2D7DC"/>
<path d="M63.6679 64.0733L70.7895 56.9517C72.4921 59.3547 73.5478 62.2084 73.5478 64.9747V76.1289C73.5478 78.2668 71.8147 79.9999 69.6768 79.9999H60.6445V71.3725C60.6445 68.6347 61.7321 66.0091 63.6679 64.0733Z" fill="#D2D7DC"/>
<path d="M39.9994 46.4516C28.4294 46.4516 23.2252 33.624 23.2252 24.5161H20.6445C20.6445 34.6963 26.6494 49.0322 39.9994 49.0322C53.3494 49.0322 59.3542 34.6963 59.3542 24.5161H56.7736C56.7736 33.624 51.5694 46.4516 39.9994 46.4516Z" fill="#727887"/>
<path d="M39.9997 0C25.3018 0 19.3545 9.10823 19.3545 21.9355H60.6448C60.6448 9.10823 54.6976 0 39.9997 0Z" fill="#F04B50"/>
<path d="M19.3546 21.9355L17.6117 24.5499C17.2536 25.087 17.6386 25.8065 18.2843 25.8065H61.7153C62.3609 25.8065 62.7459 25.087 62.3878 24.5499L60.6449 21.9355H19.3546Z" fill="#FF5F64"/>
<path d="M60.5933 24.1557C60.3943 23.4721 59.6791 23.0776 58.9949 23.2775C58.3107 23.4758 57.9169 24.1917 58.1154 24.8759C58.1267 24.9144 59.1199 28.3913 59.3178 32.2581H20.6819C20.8799 28.3913 21.873 24.9146 21.8843 24.8759C22.0827 24.1917 21.689 23.4758 21.0048 23.2775C20.3186 23.0771 19.6048 23.4721 19.4064 24.1557C19.3515 24.3441 18.0645 28.8218 18.0645 33.5483V41.5321C18.0645 47.9081 27.6996 52.9031 39.9999 52.9031C52.3003 52.9031 61.9354 47.9081 61.9354 41.5321V33.5483C61.9353 28.8217 60.6482 24.3441 60.5933 24.1557ZM20.6449 41.2902V34.8386H31.0628L31.5591 41.2902H20.6449ZM21.3914 43.8708H31.7577L32.1938 49.5397C27.0112 48.4665 22.9775 46.3788 21.3914 43.8708ZM45.1836 49.9794C43.5248 50.1973 41.7891 50.3225 39.9998 50.3225C38.2104 50.3225 36.4748 50.1973 34.8159 49.9794L34.3461 43.8708H45.6533L45.1836 49.9794ZM45.852 41.2902H34.1477L33.6514 34.8386H46.3483L45.852 41.2902ZM47.8057 49.5397L48.2419 43.8708H58.6082C57.022 46.3788 52.9883 48.4665 47.8057 49.5397ZM59.3546 41.2902H48.4404L48.9367 34.8386H59.3546V41.2902Z" fill="#C3CBD2"/>
</svg>
