<svg width="80" height="80" viewBox="0 0 80 80" fill="none" xmlns="http://www.w3.org/2000/svg">
<g clip-path="url(#clip0_2911_797)">
<path d="M64.9475 48.0926L54.1762 44.8069L54.0485 44.9103L54.1407 44.8069C51.8423 43.3271 51.602 39.5197 51.5993 37.3787C53.3591 35.4624 54.7575 33.1474 55.7965 30.6571C58.3956 32.3798 60.6454 26.9197 60.6454 24.5273C60.6454 22.7666 59.6032 21.7592 57.9506 21.8368C58.0238 21.0027 58.0648 20.176 58.0648 19.366C58.0648 19.3621 58.0643 19.3589 58.0643 19.355H58.0648V13.4502C58.0648 7.36581 53.8144 2.10823 47.8651 0.833226C42.6807 -0.277742 37.3199 -0.277742 32.1356 0.833226C26.1861 2.10806 21.9357 7.36564 21.9357 13.4502V19.3548H21.9362C21.9362 19.3587 21.9357 19.3619 21.9357 19.3658C21.9357 20.1852 21.9775 21.0216 22.0523 21.8655C20.409 21.6727 19.3551 22.6813 19.3551 24.5273C19.3551 27.02 21.5922 32.8494 24.098 30.4065C25.1464 32.991 26.5796 35.3952 28.3975 37.375C28.3859 39.5155 28.1241 43.3263 25.8244 44.8069L15.0532 48.0926C10.7098 49.4174 7.74219 53.4252 7.74219 57.966V76.129C7.74219 78.2669 9.47525 80 11.6132 80H40.0003H68.3873C70.5252 80 72.2583 78.2669 72.2583 76.129V57.966C72.2583 53.4252 69.2909 49.4174 64.9475 48.0926Z" fill="#97785E"/>
<path d="M54.1941 51.613L54.1411 44.8071C51.2556 42.9493 51.6135 37.4195 51.6135 36.1292H28.3877C31.0222 42.3121 42.42 50.8066 54.1941 51.613Z" fill="#856953"/>
<path d="M57.1668 44.862L55.1953 44.2049C54.6976 44.039 54.1942 44.4036 54.1735 44.928C53.7711 55.1257 47.5795 63.2259 40.0006 63.2259C32.4218 63.2259 26.2303 55.1257 25.8279 44.9278C25.8072 44.4036 25.3039 44.0388 24.8061 44.2048L22.8347 44.8619C22.2974 45.0409 21.9369 45.5517 21.9326 46.118C21.826 60.3475 19.3555 64.5162 19.3555 64.5162V80.0001H40.0006H60.6458V64.5162C60.6458 64.5162 58.1753 60.3474 58.0687 46.118C58.0645 45.5519 57.7039 45.0411 57.1668 44.862Z" fill="#5F69BE"/>
<path d="M40.0001 65.8066C49.0449 65.8066 56.3975 56.4382 56.7414 44.7204L55.1946 44.2048C54.6969 44.0388 54.1935 44.4035 54.1728 44.9277C53.7706 55.1258 47.5791 63.2259 40.0001 63.2259C32.421 63.2259 26.2298 55.1258 25.8273 44.9277C25.8067 44.4035 25.3033 44.0388 24.8056 44.2048L23.2588 44.7204C23.6027 56.4382 30.9552 65.8066 40.0001 65.8066Z" fill="#FF6955"/>
<path d="M57.951 21.8368C58.0242 21.0027 58.0651 20.176 58.0651 19.366C58.0651 19.3621 58.0647 19.3589 58.0647 19.355H58.0651V13.4502C58.0651 7.36581 53.8148 2.10823 47.8655 0.833226C42.6811 -0.277742 37.3203 -0.277742 32.136 0.833226C26.1864 2.10806 21.9361 7.36564 21.9361 13.4502V19.3548H21.9366C21.9366 19.3587 21.9361 19.3619 21.9361 19.3658C21.9361 20.1852 21.9779 21.0216 22.0527 21.8655C20.4093 21.6727 19.3555 22.6813 19.3555 24.5273C19.3555 27.02 21.5926 32.8494 24.0984 30.4065C26.8124 37.0965 32.0921 42.5918 40.0006 42.5918C47.8098 42.5918 53.0534 37.2326 55.7969 30.6571C58.396 32.3798 60.6458 26.9197 60.6458 24.5273C60.6458 22.7666 59.6035 21.7592 57.951 21.8368Z" fill="#A28367"/>
<path d="M58.0646 13.4502C58.0646 7.36581 53.8143 2.10823 47.8649 0.833226C45.2726 0.277742 42.6364 0 40.0001 0C37.3638 0 34.7275 0.277742 32.1352 0.833226C26.1859 2.10806 21.9355 7.36564 21.9355 13.4502V19.3548H21.936C21.936 19.3587 21.9355 19.3619 21.9355 19.3658C21.9355 19.9139 21.9559 20.4705 21.9894 21.0306L22.0522 21.8653L24.5162 23.2258L27.0968 11.6129H52.9033L55.4839 23.2258L57.9504 21.8368L58.0107 21.0308C58.0443 20.4705 58.0646 19.914 58.0646 19.366C58.0646 19.3621 58.0641 19.3589 58.0641 19.355H58.0646V13.4502Z" fill="#735848"/>
</g>
<defs>
<clipPath id="clip0_2911_797">
<rect width="80" height="80" fill="white"/>
</clipPath>
</defs>
</svg>
