<svg width="71" height="81" viewBox="0 0 71 81" fill="none" xmlns="http://www.w3.org/2000/svg">
<path d="M68.8345 65.6384L68.8158 65.6467V64.4342C68.8158 58.7072 65.0234 53.6688 59.5107 52.0717L49.461 49.1607C49.2789 49.3488 49.0977 49.5337 48.9171 49.7168C47.0758 48.0478 46.8694 44.6606 46.8665 42.6871C48.6244 40.779 50.0218 38.4742 51.0606 35.9946C53.6613 37.7216 55.9126 32.2501 55.9126 29.862C55.9126 28.1066 54.8729 27.0997 53.2221 27.1757C53.2953 26.3439 53.3319 25.5205 53.3319 24.7128C53.3319 14.4038 45.2442 10.5524 35.2674 10.5524C25.2906 10.5524 17.2029 14.4038 17.2029 24.7128C17.2029 25.5275 17.2403 26.3581 17.3147 27.1971C15.6715 27.005 14.6223 28.0205 14.6223 29.862C14.6223 32.35 16.861 38.1835 19.3681 35.7374C20.4163 38.3125 21.8484 40.7077 23.6645 42.6807C23.6537 44.6467 23.4306 48.0236 21.6015 49.7002C21.4261 49.5224 21.2505 49.343 21.0739 49.1605L11.0242 52.0717C5.51145 53.6688 1.71903 58.7073 1.71903 64.4344V65.6469L1.70032 65.6385C1.10484 65.3685 0.428711 65.8028 0.428711 66.4555V68.1734C0.428711 68.8623 0.832259 69.4874 1.46081 69.7725L3.00936 70.4745V76.1941C3.00936 78.327 4.74242 80.056 6.88032 80.056H14.6223H55.9126H63.6545C65.7924 80.056 67.5255 78.327 67.5255 76.1941V70.4745L69.074 69.7722C69.7026 69.4872 70.1061 68.8619 70.1061 68.1731V66.4552C70.1061 65.8027 69.43 65.3682 68.8345 65.6384Z" fill="#E6B47D"/>
<path d="M44.2995 55.5973L49.4077 50.0945C46.5222 48.241 46.8801 42.7242 46.8801 41.4369H23.6543C25.3207 46.2167 36.3425 54.4173 44.2995 55.5973Z" fill="#D2A073"/>
<path d="M53.2219 27.1758C53.2951 26.3441 53.3317 25.5207 53.3317 24.7129C53.3317 14.404 45.244 10.5525 35.2672 10.5525C25.2905 10.5525 17.2027 14.404 17.2027 24.7129C17.2027 25.5276 17.2401 26.3582 17.3145 27.1972C15.6713 27.0049 14.6221 28.0204 14.6221 29.8619C14.6221 32.35 16.8608 38.1834 19.3679 35.7374C22.083 42.4074 27.3624 47.8842 35.2672 47.8842C43.0703 47.8842 48.3151 42.5476 51.0605 35.9945C53.6611 37.7216 55.9124 32.2501 55.9124 29.8619C55.9124 28.1067 54.8727 27.0999 53.2219 27.1758Z" fill="#F0C891"/>
<path d="M49.4607 49.1606C47.0097 51.6923 44.6788 53.7872 42.6404 55.4668C38.3602 58.9936 32.1739 58.9936 27.8938 55.4668C25.8555 53.7872 23.5246 51.6923 21.0736 49.1606L11.0239 52.0719C5.51117 53.6688 1.71875 58.7073 1.71875 64.4344V67.768L14.622 73.6195V80.056H55.9123V73.6195L68.8155 67.768V64.4344C68.8155 58.7073 65.0231 53.669 59.5104 52.0719L49.4607 49.1606Z" fill="#78C3C3"/>
<path d="M67.5249 68.4702H64.9443V64.4342C64.9443 60.4503 62.266 56.8914 58.4309 55.7808L49.8604 53.2979L50.5799 50.8251L59.1504 53.308C64.081 54.7368 67.5249 59.3122 67.5249 64.4344V68.4702ZM5.58943 68.4702H3.00879V64.4342C3.00879 59.312 6.45266 54.7366 11.3833 53.3078L19.9538 50.825L20.6733 53.2977L12.1028 55.7806C8.26766 56.8914 5.58943 60.4503 5.58943 64.4342V68.4702Z" fill="#E6EBF0"/>
<path d="M1.46081 69.7722L14.6223 75.7408V71.4983L1.70032 65.6383C1.10484 65.3683 0.428711 65.8026 0.428711 66.4553V68.1732C0.428711 68.8619 0.832259 69.4871 1.46081 69.7722Z" fill="#646978"/>
<path d="M69.0745 69.7722L55.9131 75.7408V71.4983L68.835 65.6383C69.4305 65.3683 70.1066 65.8026 70.1066 66.4553V68.1732C70.1066 68.8619 69.7031 69.4871 69.0745 69.7722Z" fill="#646978"/>
<path d="M49.4612 49.1606C47.0075 51.695 44.6741 53.7917 42.6343 55.4723C38.3577 58.9954 32.1777 58.9954 27.9009 55.4723C25.8612 53.7917 23.5278 51.695 21.0741 49.1606L16.7939 50.4006C19.7554 53.4681 22.7993 56.1388 25.5402 58.3356C31.2304 62.8961 39.3051 62.8961 44.9952 58.3356C47.7362 56.1388 50.7801 53.4683 53.7415 50.4006L49.4612 49.1606Z" fill="#646978"/>
<path d="M53.4978 22.1272C54.2132 20.5145 54.6228 18.7863 54.6228 16.978C54.6228 8.44633 45.9573 1.53027 35.2679 1.53027C24.5786 1.53027 15.9131 8.44633 15.9131 16.978C15.9131 18.7863 16.3226 20.5145 17.0381 22.1272H53.4978Z" fill="#464B5F"/>
<path d="M51.1044 19.2439C50.8765 19.4428 50.5839 19.5525 50.2812 19.5525C49.2339 19.5525 48.6509 18.345 49.3034 17.5279L54.0649 11.5669C54.6239 10.8671 54.6923 9.87552 54.186 9.13677C53.8488 8.64469 53.4688 8.17064 53.0525 7.7151C52.7231 7.35465 52.1426 7.39922 51.8939 7.81905C50.3084 10.496 45.3073 18.9396 45.3073 18.9396C45.0823 19.3194 44.6731 19.5524 44.231 19.5524H44.198C43.3168 19.5524 42.7122 18.6674 43.0344 17.8491L48.0717 5.05681C48.2862 4.51195 48.0691 3.88101 47.551 3.60617C46.6586 3.1326 45.7344 2.70618 44.7989 2.32836C44.1509 2.06671 43.4215 2.45757 43.252 3.13421L39.3746 18.6077C39.2354 19.1628 38.7354 19.5524 38.1617 19.5524H37.963C37.2146 19.5524 36.6339 18.9008 36.7214 18.1593L38.6833 1.52363C38.7451 0.999374 38.3826 0.510036 37.8586 0.437303C36.9381 0.309538 36.0651 0.24292 35.267 0.24292C34.4689 0.24292 33.5959 0.309538 32.6752 0.437303C32.1512 0.510036 31.7888 0.999374 31.8505 1.52363L33.8123 18.1595C33.8997 18.901 33.3191 19.5525 32.5707 19.5525H32.372C31.7983 19.5525 31.2983 19.163 31.1591 18.6078L27.2817 3.13437C27.1122 2.45773 26.3828 2.06687 25.7347 2.32852C24.8039 2.70441 23.8843 3.12842 22.996 3.59909C22.4762 3.87458 22.2593 4.50841 22.4767 5.05407L27.5707 17.8448C27.8968 18.6637 27.292 19.5525 26.4089 19.5525H26.3801C25.9399 19.5525 25.532 19.3215 25.3065 18.9443L18.6476 7.80907C18.3978 7.39134 17.8189 7.34677 17.4901 7.70593C17.0705 8.16421 16.6878 8.64115 16.3481 9.13661C15.8417 9.87536 15.9094 10.8664 16.4686 11.5664C18.0622 13.5614 21.2305 17.5281 21.2305 17.5281C21.8831 18.345 21.3001 19.5527 20.2528 19.5527C19.9501 19.5527 19.6575 19.443 19.4296 19.2441L15.6699 15.9621C15.2805 15.6222 14.6702 15.9262 14.7088 16.441C14.8946 18.9211 15.3622 21.1845 15.6581 22.4239C15.797 23.0056 16.3146 23.4148 16.9139 23.4148H53.6199C54.2193 23.4148 54.7368 23.0056 54.8757 22.4239C55.1718 21.1845 55.6393 18.9213 55.8251 16.441C55.8636 15.9264 55.2533 15.6222 54.8639 15.9621L51.1044 19.2439Z" fill="#646978"/>
<path d="M53.8545 26.0192L51.7524 26.0707C49.0063 26.138 46.2637 26.3081 43.5303 26.5808L37.8421 27.1484C36.9868 27.2335 36.1276 27.2763 35.2679 27.2763C34.4082 27.2763 33.5491 27.2335 32.6937 27.1482L27.0055 26.5807C24.2721 26.3079 21.5295 26.1378 18.7834 26.0706L16.6813 26.0191C16.2603 26.008 15.9131 26.3454 15.9131 26.7655V26.77C15.9131 27.1305 16.1712 27.4394 16.5263 27.5045L22.0905 28.5234L22.5468 29.6613C23.2324 31.3714 24.7813 32.5859 26.6089 32.8465L30.5552 33.4089C31.7899 33.5849 32.9741 32.8547 33.3684 31.6742L33.5695 31.0721C33.8132 30.3428 34.4973 29.8509 35.2679 29.8509C36.0386 29.8509 36.7226 30.3428 36.9663 31.0721L37.1676 31.6744C37.562 32.8548 38.7461 33.5849 39.9807 33.4089L43.9271 32.8465C45.7547 32.5859 47.3036 31.3715 47.9892 29.6613L48.4455 28.5234L54.0097 27.5045C54.365 27.4394 54.6231 27.1305 54.6231 26.77V26.7655C54.6228 26.3454 54.2755 26.0081 53.8545 26.0192Z" fill="#646978"/>
<path d="M32.5397 29.2028C32.6187 28.7906 32.3318 28.4 31.9131 28.3588C30.3314 28.2028 26.8764 27.8616 26.8764 27.8616C25.8139 27.7556 24.7445 27.665 23.6731 27.5902C23.4039 27.5713 23.2066 27.8422 23.3068 28.0922L23.7442 29.1835C24.2582 30.466 25.4198 31.3768 26.7903 31.5721L30.7371 32.1347C30.7987 32.1435 30.8603 32.1479 30.9213 32.1479C31.4766 32.1479 31.9679 31.794 32.1439 31.2675L32.5397 29.2028Z" fill="#464B5F"/>
<path d="M37.9926 29.2028C37.9136 28.7906 38.2005 28.4 38.6192 28.3588C40.2008 28.2028 43.6558 27.8616 43.6558 27.8616C44.7184 27.7556 45.7878 27.665 46.8592 27.5902C47.1284 27.5713 47.3257 27.8422 47.2255 28.0922L46.7881 29.1835C46.2741 30.466 45.1124 31.3768 43.742 31.5721L39.7952 32.1347C39.7336 32.1435 39.672 32.1479 39.611 32.1479C39.0557 32.1479 38.5644 31.794 38.3884 31.2675L37.9926 29.2028Z" fill="#464B5F"/>
</svg>
