<svg width="80" height="80" viewBox="0 0 80 80" fill="none" xmlns="http://www.w3.org/2000/svg">
<path d="M64.2428 51.9503L54.1931 49.0322C54.1931 49.0322 52.2576 47.9569 51.6125 41.2903H28.3867C27.7415 47.9569 25.806 49.0322 25.806 49.0322L15.7563 51.9503C10.2436 53.5509 6.45117 58.6013 6.45117 64.3417V76.129C6.45117 78.2669 8.18424 80 10.3221 80H69.677C71.8149 80 73.548 78.2669 73.548 76.129V64.3417C73.548 58.6013 69.7555 53.5509 64.2428 51.9503Z" fill="#5F87B9"/>
<path d="M41.2896 45.6451H38.709V58.8709H41.2896V45.6451Z" fill="#5073A5"/>
<path d="M54.1931 49.0322C51.7394 51.5725 49.406 53.6742 47.3662 55.3587C43.0896 58.89 36.9096 58.89 32.6328 55.3587C30.5931 53.6742 28.2597 51.5725 25.806 49.0322L15.7563 51.9503C10.2436 53.5509 6.45117 58.6013 6.45117 64.3417V76.129C6.45117 78.2669 8.18424 80 10.3221 80H69.677C71.8149 80 73.548 78.2669 73.548 76.129V64.3417C73.548 58.6013 69.7555 53.5511 64.2428 51.9503L54.1931 49.0322Z" fill="#E6EBF0"/>
<path d="M57.9543 26.996C58.0276 26.1623 58.0642 25.337 58.0642 24.5273C58.0642 14.1942 49.9764 10.3337 39.9997 10.3337C30.0229 10.3337 21.9351 14.1942 21.9351 24.5273C21.9351 25.3439 21.9726 26.1765 22.0469 27.0175C20.4037 26.8247 19.3545 27.8426 19.3545 29.6884C19.3545 32.1823 21.5932 38.0294 24.1003 35.5776C26.8155 42.2633 32.0948 47.7529 39.9997 47.7529C47.8027 47.7529 53.0476 42.4037 55.7929 35.8354C58.3935 37.5665 60.6448 32.0821 60.6448 29.6884C60.6448 27.9291 59.6051 26.9199 57.9543 26.996Z" fill="#F0C891"/>
<path d="M38.709 57.9261V80H41.2896V57.9261C40.4317 58.0221 39.5669 58.0221 38.709 57.9261Z" fill="#D2D7DC"/>
<path d="M30.9771 53.9509C29.365 52.544 27.6194 50.9095 25.806 49.0322L15.7563 51.9503C10.2436 53.5509 6.45117 58.6013 6.45117 64.3417V76.129C6.45117 78.2669 8.18424 80 10.3221 80H18.0641V66.5351C18.0641 64.4576 19.0646 62.5071 20.752 61.2951L30.9771 53.9509Z" fill="#5073A5"/>
<path d="M49.0225 53.9509C50.6346 52.544 52.3802 50.9096 54.1936 49.0322L64.2433 51.9503C69.7562 53.5509 73.5484 58.6013 73.5484 64.3417V76.129C73.5484 78.2669 71.8154 80 69.6775 80H61.9355V66.5351C61.9355 64.4576 60.935 62.5071 59.2476 61.2951L49.0225 53.9509Z" fill="#5073A5"/>
<path d="M59.0517 24.5161C60.2451 24.5161 61.3146 23.7053 61.5651 22.5385C61.8067 21.4135 61.9354 20.2542 61.9354 19.0681C61.9354 8.5371 52.1146 0 39.9999 0C27.8853 0 18.0645 8.5371 18.0645 19.0681C18.0645 20.2542 18.1933 21.4134 18.4348 22.5385C18.6854 23.7053 19.7548 24.5161 20.9482 24.5161H59.0517Z" fill="#FFF05A"/>
<path d="M49.4954 1.89941C47.7241 6.33216 45.3691 14.9886 45.3691 24.516H47.9498C47.9498 15.1089 50.2879 6.9757 51.8312 3.02812C51.0835 2.61038 50.3019 2.23732 49.4954 1.89941Z" fill="#FFDB5A"/>
<path d="M28.168 3.02812C29.7114 6.9757 32.0494 15.1089 32.0494 24.516H34.6301C34.6301 14.9886 32.2751 6.33216 30.5038 1.89941C29.6973 2.23732 28.9157 2.61038 28.168 3.02812Z" fill="#FFDB5A"/>
<path d="M57.7002 25.0749L52.4421 25.9815L42.5741 26.9683C41.7186 27.0539 40.8594 27.0968 39.9997 27.0968C39.14 27.0968 38.2809 27.0539 37.4255 26.9684L27.5575 25.9816L22.2994 25.075C21.6468 24.9704 21.0426 25.442 20.9857 26.1004C20.9442 26.5799 21.2091 27.0336 21.647 27.2334L25.8062 29.0987V30.1879C25.8062 31.3976 26.6462 32.4447 27.827 32.7071L34.7613 34.2481C36.2057 34.5691 37.6234 33.6126 37.8667 32.1533L37.9973 31.3704C38.16 30.3934 39.0052 29.6776 39.9955 29.6776H40.0042C40.9946 29.6776 41.8396 30.3934 42.0025 31.3704L42.1331 32.1533C42.3763 33.6126 43.7941 34.5692 45.2384 34.2481L52.1728 32.7071C53.3536 32.4447 54.1936 31.3974 54.1936 30.1879V29.0987L58.353 27.2334C58.7909 27.0336 59.0555 26.5799 59.0142 26.1004C58.957 25.4418 58.3528 24.9702 57.7002 25.0749Z" fill="#646978"/>
<path d="M28.1349 27.2143C27.5815 27.1516 27.0967 27.5846 27.0967 28.1416V29.0987V30.1877C27.0967 30.7925 27.5167 31.3162 28.1072 31.4474L35.0414 32.9883C35.1352 33.0091 35.2304 33.0198 35.3244 33.0198C35.9559 33.0198 36.4899 32.5661 36.5941 31.9411L37.0986 29.2472C37.1994 28.7091 36.8222 28.1985 36.2781 28.1369L28.1349 27.2143Z" fill="#F9E2C2"/>
<path d="M51.8648 27.2143C52.4182 27.1516 52.903 27.5846 52.903 28.1416V29.0987V30.1877C52.903 30.7925 52.483 31.3162 51.8925 31.4474L44.9584 32.9883C44.8645 33.0091 44.7693 33.0198 44.6753 33.0198C44.0438 33.0198 43.5098 32.5661 43.4056 31.9411L42.9011 29.2472C42.8003 28.7091 43.1775 28.1985 43.7216 28.1369L51.8648 27.2143Z" fill="#F9E2C2"/>
</svg>
