<svg width="46" height="46" viewBox="0 0 46 46" fill="none" xmlns="http://www.w3.org/2000/svg">
<g clip-path="url(#clip0_2911_670)">
<path d="M45.2257 31.7364C44.7105 31.2202 44.0834 30.9624 43.3462 30.9624H31.5421C31.1554 31.9943 30.5056 32.8419 29.5934 33.5053C28.6808 34.1687 27.6629 34.5006 26.5389 34.5006H19.4613C18.3372 34.5006 17.3189 34.1686 16.4069 33.5053C15.4945 32.8419 14.8451 31.9944 14.4581 30.9624H2.65381C1.91677 30.9624 1.29021 31.2202 0.774029 31.7364C0.257945 32.252 0 32.8786 0 33.6159V42.4621C0 43.1989 0.257945 43.8263 0.774029 44.3415C1.29011 44.8575 1.91667 45.1152 2.65381 45.1152H43.3466C44.0834 45.1152 44.7105 44.8575 45.226 44.3415C45.7422 43.8256 46 43.1989 46 42.4621V33.6159C46 32.8786 45.7422 32.2527 45.2257 31.7364ZM34.8599 41.0522C34.5092 41.4024 34.0944 41.5778 33.6152 41.5778C33.1361 41.5778 32.7218 41.4024 32.3713 41.0522C32.0214 40.7024 31.8464 40.2875 31.8464 39.8083C31.8464 39.3291 32.0214 38.914 32.3713 38.5643C32.7218 38.2145 33.1361 38.0388 33.6152 38.0388C34.0944 38.0388 34.5091 38.2144 34.8599 38.5643C35.2097 38.9139 35.3848 39.3291 35.3848 39.8083C35.3848 40.2875 35.2097 40.7023 34.8599 41.0522ZM41.9363 41.0522C41.5864 41.4024 41.1716 41.5778 40.6923 41.5778C40.2132 41.5778 39.7987 41.4024 39.4483 41.0522C39.0985 40.7024 38.9235 40.2875 38.9235 39.8083C38.9235 39.3291 39.0985 38.914 39.4483 38.5643C39.7986 38.2145 40.2131 38.0388 40.6923 38.0388C41.1715 38.0388 41.5863 38.2144 41.9363 38.5643C42.2865 38.9139 42.4618 39.3291 42.4618 39.8083C42.4618 40.2875 42.2868 40.7023 41.9363 41.0522Z" fill="#01BCF1"/>
<path d="M10.6148 16.808H17.6917V29.193C17.6917 29.6721 17.8669 30.0869 18.2169 30.4369C18.5671 30.7867 18.9818 30.9624 19.4608 30.9624H26.5384C27.0175 30.9624 27.4318 30.7868 27.7823 30.4369C28.1323 30.087 28.3072 29.6722 28.3072 29.193V16.808H35.3844C36.1587 16.808 36.7025 16.4392 37.0153 15.7023C37.3287 14.9836 37.1995 14.3477 36.6283 13.7947L24.2433 1.4099C23.9113 1.05968 23.4972 0.884521 22.9994 0.884521C22.5021 0.884521 22.0874 1.05968 21.7555 1.4099L9.37094 13.7947C8.79947 14.3477 8.6706 14.9832 8.98373 15.7023C9.29735 16.4396 9.84094 16.808 10.6148 16.808Z" fill="#01BCF1"/>
</g>
<defs>
<clipPath id="clip0_2911_670">
<rect width="46" height="46" fill="white"/>
</clipPath>
</defs>
</svg>
