<svg width="40" height="34" viewBox="0 0 40 34" fill="none" xmlns="http://www.w3.org/2000/svg">
<path d="M33.9138 2.81523C33.9027 2.79167 33.8842 2.7732 33.8618 2.76315C31.2684 1.4617 28.5316 0.533671 25.7199 0.00227632C25.6943 -0.00291796 25.6679 0.000829257 25.6445 0.012985C25.621 0.0251408 25.6016 0.0450862 25.5891 0.0699848C25.2164 0.809785 24.8781 1.56968 24.5755 2.34678C21.5446 1.84356 18.4617 1.84356 15.4308 2.34678C15.1261 1.56771 14.7824 0.807623 14.4012 0.0699848C14.3881 0.0456274 14.3686 0.0261413 14.3453 0.0140645C14.322 0.00198764 14.2958 -0.00212014 14.2703 0.00227632C11.4583 0.532555 8.72133 1.46066 6.12824 2.76322C6.10605 2.77351 6.08732 2.79109 6.07464 2.81352C0.888973 11.2836 -0.531576 19.5455 0.165297 27.705C0.167258 27.725 0.172875 27.7444 0.181815 27.762C0.190755 27.7795 0.202836 27.795 0.217338 27.8073C3.2369 30.2527 6.61432 32.1193 10.2055 33.3274C10.2308 33.3357 10.2578 33.3353 10.2829 33.3263C10.3079 33.3173 10.3299 33.3001 10.3458 33.2771C11.1171 32.1292 11.8005 30.9137 12.3891 29.643C12.3972 29.6255 12.4019 29.6064 12.4027 29.5869C12.4035 29.5674 12.4006 29.5479 12.394 29.5297C12.3875 29.5115 12.3775 29.495 12.3647 29.4813C12.3519 29.4677 12.3366 29.4571 12.3198 29.4504C11.2421 28.9994 10.1988 28.4557 9.19955 27.8245C9.1814 27.8128 9.16615 27.7964 9.15516 27.7768C9.14417 27.7571 9.13777 27.7348 9.13653 27.7118C9.13528 27.6888 9.13923 27.6659 9.14803 27.6449C9.15683 27.624 9.1702 27.6058 9.18696 27.5919C9.39662 27.4201 9.60642 27.2413 9.80662 27.0608C9.82441 27.0448 9.84593 27.0345 9.86877 27.0312C9.89161 27.0278 9.91485 27.0315 9.93588 27.0418C16.4821 30.3094 23.5693 30.3094 30.038 27.0418C30.0591 27.0308 30.0826 27.0266 30.1057 27.0297C30.1289 27.0328 30.1508 27.043 30.1689 27.0591C30.3691 27.2396 30.5789 27.4201 30.7901 27.5919C30.807 27.6056 30.8204 27.6238 30.8294 27.6446C30.8383 27.6655 30.8424 27.6884 30.8413 27.7114C30.8402 27.7344 30.834 27.7567 30.8231 27.7764C30.8123 27.7962 30.7971 27.8126 30.7791 27.8245C29.7821 28.461 28.7378 29.0044 27.6573 29.4487C27.6405 29.4557 27.6253 29.4665 27.6126 29.4803C27.5999 29.4942 27.59 29.5109 27.5835 29.5292C27.5771 29.5475 27.5743 29.5672 27.5753 29.5868C27.5763 29.6064 27.5811 29.6255 27.5893 29.643C28.1877 30.9067 28.8702 32.1206 29.631 33.2751C29.6465 33.2987 29.6684 33.3165 29.6935 33.3259C29.7187 33.3352 29.746 33.3357 29.7714 33.3271C33.369 32.1231 36.7523 30.2564 39.7756 27.8073C39.7904 27.7956 39.8026 27.7805 39.8116 27.7632C39.8206 27.7458 39.8261 27.7266 39.8277 27.7067C40.662 18.2735 38.4309 10.0793 33.9138 2.81523ZM13.3668 22.7367C11.3959 22.7367 9.77193 20.7585 9.77193 18.329C9.77193 15.8996 11.3644 13.9212 13.3668 13.9212C15.3848 13.9212 16.993 15.9168 16.9615 18.3289C16.9615 20.7585 15.369 22.7367 13.3668 22.7367ZM26.658 22.7367C24.6872 22.7367 23.0632 20.7585 23.0632 18.329C23.0632 15.8996 24.6557 13.9212 26.658 13.9212C28.6761 13.9212 30.2843 15.9168 30.2528 18.3289C30.2528 20.7585 28.6761 22.7367 26.658 22.7367Z" fill="#00303E"/>
</svg>
