<svg width="40" height="41" viewBox="0 0 40 41" fill="none" xmlns="http://www.w3.org/2000/svg">
<path d="M20 0C31.0457 0 40 9.09203 40 20.3077C40 31.5233 31.0457 40.6154 20 40.6154C8.95428 40.6154 0 31.5233 0 20.3077C0 9.09203 8.95428 0 20 0ZM10.7297 13.8109C11.0306 17.022 12.333 24.8145 12.9958 28.4111C13.2761 29.9329 13.8282 30.4432 14.3626 30.4931C15.5239 30.6016 16.406 29.7138 17.5309 28.965C19.2911 27.7934 20.2856 27.064 21.9943 25.9207C23.9689 24.5995 22.6888 23.8736 21.5635 22.6862C21.269 22.3756 16.1516 17.6494 16.0526 17.2207C16.0402 17.167 16.0284 16.9668 16.1456 16.8617C16.2629 16.7565 16.4352 16.7922 16.5598 16.8207C16.7363 16.8615 19.5483 18.7487 24.9959 22.4825C25.794 23.039 26.517 23.3101 27.1648 23.296C27.8789 23.2803 29.2525 22.886 30.2737 22.5489C31.5262 22.1355 32.5217 21.917 32.435 21.2149C32.3898 20.8491 31.8939 20.4752 30.9471 20.0931C25.1167 17.5138 21.2288 15.8133 19.2835 14.9916C13.7294 12.6458 12.5752 12.2383 11.823 12.2247C11.6575 12.222 11.2876 12.2636 11.048 12.461C10.8886 12.6016 10.787 12.7979 10.7633 13.0109C10.7227 13.2755 10.7114 13.5438 10.7297 13.8109Z" fill="#00303E"/>
</svg>
