<svg width="40" height="40" viewBox="0 0 40 40" fill="none" xmlns="http://www.w3.org/2000/svg">
<path d="M36.3636 0H3.63636C1.62727 0 0 1.62727 0 3.63636V36.3636C0 38.3727 1.62727 40 3.63636 40H36.3636C38.3727 40 40 38.3727 40 36.3636V3.63636C40 1.62727 38.3709 0 36.3636 0ZM33.98 17.2255C33.7436 17.2473 33.5055 17.2618 33.2655 17.2618C30.5473 17.2618 28.1582 15.8655 26.7673 13.7509C26.7673 19.2945 26.7673 25.6036 26.7673 25.7091C26.7673 30.5909 22.8091 34.5473 17.9291 34.5473C13.0491 34.5455 9.09091 30.5873 9.09091 25.7073C9.09091 20.8255 13.0491 16.8691 17.9291 16.8691C18.1145 16.8691 18.2945 16.8855 18.4745 16.8964V21.2527C18.2927 21.2309 18.1164 21.1982 17.9291 21.1982C15.4382 21.1982 13.4182 23.2182 13.4182 25.7091C13.4182 28.2 15.4364 30.22 17.9291 30.22C20.4218 30.22 22.6218 28.2564 22.6218 25.7655C22.6218 25.6655 22.6655 5.45636 22.6655 5.45636H26.8273C27.2182 9.17818 30.2236 12.1164 33.98 12.3855V17.2255Z" fill="#00303E"/>
</svg>
