<svg width="40" height="33" viewBox="0 0 40 33" fill="none" xmlns="http://www.w3.org/2000/svg">
<path d="M35.8884 8.22419C35.9138 8.58511 35.9138 8.94611 35.9138 9.30703C35.9138 20.3156 27.6651 33 12.5889 33C7.94417 33 3.62947 31.6335 0 29.2618C0.659924 29.3391 1.29438 29.3648 1.9797 29.3648C5.81213 29.3648 9.34011 28.05 12.1574 25.8071C8.55331 25.7297 5.53299 23.3321 4.49236 20.032C5.00002 20.1093 5.5076 20.1609 6.04065 20.1609C6.77667 20.1609 7.51276 20.0577 8.198 19.8774C4.44166 19.1039 1.6243 15.7523 1.6243 11.7047V11.6016C2.71564 12.2203 3.98478 12.6071 5.32986 12.6586C3.12173 11.1632 1.67508 8.6109 1.67508 5.72338C1.67508 4.17653 2.0811 2.75856 2.79181 1.52106C6.82737 6.57418 12.8934 9.87412 19.6954 10.2351C19.5685 9.61637 19.4923 8.9719 19.4923 8.32735C19.4923 3.73824 23.1472 0 27.6903 0C30.0507 0 32.1827 1.00547 33.6802 2.62969C35.533 2.26877 37.3096 1.57264 38.8833 0.618755C38.2741 2.55239 36.9797 4.17661 35.2792 5.20779C36.929 5.02741 38.528 4.56324 40 3.91878C38.8834 5.56871 37.4874 7.03818 35.8884 8.22419Z" fill="#00303E"/>
</svg>
