<svg width="33" height="33" viewBox="0 0 33 33" fill="none" xmlns="http://www.w3.org/2000/svg">
<path d="M23.0618 2.64579L30.3535 9.93746M30.3535 2.64579L23.0618 9.93746M31.0827 16.5V24.0833C31.0827 26.5335 31.0827 27.7586 30.6058 28.6945C30.1864 29.5177 29.5171 30.187 28.6939 30.6064C27.758 31.0833 26.5329 31.0833 24.0827 31.0833H8.91602C6.46579 31.0833 5.24067 31.0833 4.30481 30.6064C3.4816 30.187 2.81231 29.5177 2.39286 28.6945C1.91602 27.7586 1.91602 26.5335 1.91602 24.0833V8.91663C1.91602 6.4664 1.91602 5.24128 2.39286 4.30542C2.81231 3.48221 3.4816 2.81292 4.30481 2.39347C5.24067 1.91663 6.46579 1.91663 8.91602 1.91663H16.4993M2.12821 28.0592C2.81238 25.5979 5.06976 23.7916 7.74901 23.7916H17.9573C19.3126 23.7916 19.9902 23.7916 20.5537 23.9037C22.8677 24.364 24.6766 26.1729 25.1369 28.4869C25.249 29.0504 25.249 29.728 25.249 31.0833M19.416 12.8541C19.416 16.0758 16.8043 18.6875 13.5827 18.6875C10.361 18.6875 7.74935 16.0758 7.74935 12.8541C7.74935 9.63246 10.361 7.02079 13.5827 7.02079C16.8043 7.02079 19.416 9.63246 19.416 12.8541Z" stroke="white" stroke-width="2" stroke-linecap="round" stroke-linejoin="round"/>
</svg>
