<svg width="29" height="33" viewBox="0 0 29 33" fill="none" xmlns="http://www.w3.org/2000/svg">
<path d="M8.66667 10.6666L2.96962 17.5031C2.46094 18.1135 2.2066 18.4187 2.20272 18.6765C2.19934 18.9005 2.29919 19.1137 2.4735 19.2546C2.67401 19.4166 3.0713 19.4166 3.86588 19.4166H14.5L13.0417 31.0833L20.3333 22.3333M19.823 13.5833H25.1341C25.9287 13.5833 26.326 13.5833 26.5265 13.7453C26.7008 13.8862 26.8007 14.0994 26.7973 14.3235C26.7934 14.5812 26.5391 14.8864 26.0304 15.4968L24.0524 17.8704M12.4186 6.16424L15.9583 1.91663L15.0837 8.91329M27.625 29.625L1.375 3.37496" stroke="white" stroke-width="2" stroke-linecap="round" stroke-linejoin="round"/>
</svg>
