<svg width="32" height="33" viewBox="0 0 32 33" fill="none" xmlns="http://www.w3.org/2000/svg">
<path d="M11.7556 12.125C12.0985 11.1503 12.7752 10.3284 13.6659 9.80494C14.5567 9.28144 15.604 9.09008 16.6223 9.26475C17.6406 9.43942 18.5643 9.96885 19.2297 10.7593C19.895 11.5497 20.2592 12.5501 20.2577 13.5833C20.2577 16.5 15.8827 17.9583 15.8827 17.9583M15.9993 23.7916H16.0139M30.5827 16.5C30.5827 24.5541 24.0535 31.0833 15.9993 31.0833C7.9452 31.0833 1.41602 24.5541 1.41602 16.5C1.41602 8.44581 7.9452 1.91663 15.9993 1.91663C24.0535 1.91663 30.5827 8.44581 30.5827 16.5Z" stroke="white" stroke-width="2" stroke-linecap="round" stroke-linejoin="round"/>
</svg>
