<svg width="29" height="27" viewBox="0 0 29 27" fill="none" xmlns="http://www.w3.org/2000/svg">
<g clip-path="url(#clip0_2166_1535)">
<path d="M28.9444 9.04724L18.7727 18.5175C17.6385 19.5708 16.1019 20.1623 14.5 20.1623C12.8981 20.1623 11.3615 19.5708 10.2273 18.5175L0.0555833 9.04724C0.0386667 9.22499 0 9.38587 0 9.56249V23.0625C0.00191866 24.5538 0.639066 25.9835 1.77168 27.038C2.9043 28.0925 4.43991 28.6857 6.04167 28.6875H22.9583C24.5601 28.6857 26.0957 28.0925 27.2283 27.038C28.3609 25.9835 28.9981 24.5538 29 23.0625V9.56249C29 9.38587 28.9613 9.22499 28.9444 9.04724Z" fill="#3EBD45"/>
<path d="M17.0641 16.9267L28.101 6.64987C27.5664 5.82448 26.8123 5.14129 25.9115 4.6662C25.0107 4.1911 23.9937 3.94013 22.9584 3.9375H6.04171C5.00644 3.94013 3.98936 4.1911 3.08858 4.6662C2.1878 5.14129 1.43371 5.82448 0.899048 6.64987L11.936 16.9267C12.6169 17.5582 13.5389 17.9128 14.5 17.9128C15.4612 17.9128 16.3831 17.5582 17.0641 16.9267Z" fill="#3EBD45"/>
</g>
<defs>
<clipPath id="clip0_2166_1535">
<rect width="29" height="27" rx="6" fill="white"/>
</clipPath>
</defs>
</svg>
