<svg width="31" height="32" viewBox="0 0 31 32" fill="none" xmlns="http://www.w3.org/2000/svg">
<path d="M30.3799 22.1333L27.0345 25.3466C26.2336 26.1733 25.097 26.6666 23.8828 26.6666C22.6686 26.6666 21.5449 26.1866 20.6795 25.2933L17.3857 22.1199C16.5978 21.3599 16.559 20.1066 17.2953 19.2933C18.0315 18.4799 19.2586 18.4399 20.0336 19.1999L21.9453 21.0399V12.6666C21.9453 10.8266 20.4986 9.33328 18.7161 9.33328H17.4245C16.3524 9.33328 15.487 8.43995 15.487 7.33328C15.487 6.22661 16.3524 5.33328 17.4245 5.33328H18.7161C22.6299 5.33328 25.8203 8.62661 25.8203 12.6666V21.0399L27.732 19.1999C28.507 18.4399 29.734 18.4933 30.4703 19.2933C31.1936 20.1066 31.1549 21.3599 30.3799 22.1199V22.1333ZM13.5624 22.6666H12.2707C10.4882 22.6666 9.04154 21.1733 9.04154 19.3333V10.9599L10.9532 12.7999C11.3278 13.1599 11.8057 13.3333 12.2707 13.3333C12.7874 13.3333 13.304 13.1199 13.6915 12.6933C14.4149 11.8799 14.3761 10.6266 13.6011 9.86661L10.3074 6.69328C9.45487 5.81328 8.31821 5.31995 7.10404 5.31995C5.88987 5.31995 4.76612 5.79995 3.95237 6.63995L0.619872 9.86661C-0.168045 10.6266 -0.206795 11.8799 0.529455 12.6933C1.26571 13.5066 2.47987 13.5466 3.26779 12.7866L5.17946 10.9466V19.3199C5.17946 23.3599 8.36987 26.6533 12.2836 26.6533H13.5753C14.6474 26.6533 15.5128 25.7599 15.5128 24.6533C15.5128 23.5466 14.6474 22.6533 13.5753 22.6533L13.5624 22.6666Z" fill="#DF8600"/>
</svg>
