<svg width="32" height="33" viewBox="0 0 32 33" fill="none" xmlns="http://www.w3.org/2000/svg">
<path fill-rule="evenodd" clip-rule="evenodd" d="M16.0965 0.617065C7.63461 0.617065 0.773926 7.67627 0.773926 16.383C0.773926 25.0898 7.63461 32.149 16.0965 32.149C24.5584 32.149 31.4191 25.0898 31.4191 16.383C31.4191 7.67627 24.5584 0.617065 16.0965 0.617065ZM23.1985 11.3392C22.9687 13.8316 21.9702 19.8818 21.4632 22.6736C21.2487 23.8561 20.8248 24.2515 20.4162 24.2896C19.5262 24.3737 18.8507 23.684 17.9888 23.1033C16.6405 22.1941 15.8782 21.6278 14.5694 20.7397C13.0563 19.7136 14.0369 19.1499 14.8988 18.229C15.1248 17.9872 19.0448 14.3177 19.1214 13.9853C19.1304 13.9432 19.1406 13.7882 19.0499 13.7068C18.9593 13.6253 18.8278 13.6529 18.7333 13.6752C18.5979 13.7068 16.4438 15.1717 12.2697 18.07C11.6581 18.5022 11.1039 18.7124 10.6072 18.7019C10.0607 18.6901 9.00854 18.384 8.22581 18.1212C7.26687 17.8006 6.50329 17.6298 6.56969 17.0859C6.60417 16.8021 6.9834 16.5118 7.70867 16.2149C12.1752 14.2126 15.1542 12.8922 16.6443 12.2537C20.9001 10.4327 21.7837 10.1161 22.3609 10.1055C23.0836 10.095 23.2573 10.7086 23.1985 11.3392Z" fill="#00B2FF"/>
</svg>
