<svg width="28" height="28" viewBox="0 0 28 28" fill="none" xmlns="http://www.w3.org/2000/svg">
<g clip-path="url(#clip0_2166_1531)">
<path d="M25.1335 8.28803C25.1498 8.5342 25.1498 8.78153 25.1498 9.03003C25.1498 16.6215 19.3702 25.375 8.80483 25.375V25.3704C5.684 25.375 2.62733 24.4814 0 22.7955C0.453833 22.8504 0.91 22.8772 1.36733 22.8784C3.955 22.8807 6.468 22.0127 8.5015 20.4144C6.04333 20.3677 3.88733 18.7647 3.13483 16.4244C3.99583 16.59 4.8825 16.5562 5.72833 16.3264C3.04733 15.785 1.12 13.4295 1.12 10.6949C1.12 10.6704 1.12 10.6459 1.12 10.6225C1.91917 11.0682 2.81283 11.3144 3.7275 11.3412C1.20283 9.65536 0.4235 6.2977 1.94833 3.6727C4.865 7.26136 9.16883 9.44303 13.7877 9.6752C13.3245 7.6802 13.958 5.58953 15.449 4.18603C17.7625 2.0102 21.4013 2.1222 23.5772 4.4357C24.864 4.18253 26.0972 3.71003 27.2253 3.04153C26.796 4.37153 25.8988 5.50086 24.6995 6.21953C25.8393 6.08303 26.9512 5.77853 28 5.3142C27.2288 6.46803 26.2582 7.47486 25.1335 8.28803Z" fill="#00A3FF"/>
</g>
<defs>
<clipPath id="clip0_2166_1531">
<rect width="28" height="28" fill="white"/>
</clipPath>
</defs>
</svg>
