<?xml version="1.0" encoding="utf-8"?>
<!-- Generator: Adobe Illustrator 27.0.0, SVG Export Plug-In . SVG Version: 6.00 Build 0)  -->
<svg version="1.1" id="Flat" xmlns="http://www.w3.org/2000/svg" xmlns:xlink="http://www.w3.org/1999/xlink" x="0px" y="0px"
	 viewBox="0 0 500.93616 517.70215" style="enable-background:new 0 0 500.93616 517.70215;" xml:space="preserve">
<style type="text/css">
	.st0{fill:#EC987F;}
	.st1{fill:#040707;}
	.st2{fill:#1A1A1A;}
	.st3{fill:#343433;}
	.st4{fill:#BA5D41;}
	.st5{fill:#070A0A;}
	.st6{fill:#F9C0B0;}
	.st7{fill:#050707;}
	.st8{fill:#BB5D41;}
	.st9{fill:#8C351F;}
	.st10{fill:#BB5C40;}
	.st11{fill:#CD785E;}
	.st12{fill:#8F3822;}
	.st13{fill:#060808;}
	.st14{fill:#CF7A61;}
	.st15{fill:#E5E6E7;}
	.st16{fill:#B2B3B3;}
	.st17{fill:#DCDDDE;}
	.st18{fill:#EF4E4F;}
	.st19{fill:#44170D;}
	.st20{fill:#EA967D;}
	.st21{fill:#8B351F;}
</style>
<g>
	<g>
		<path class="st0" d="M137.75189,250.38362c-7.30879-16.40402-14.07366-32.9485-11.89552-51.52516
			c0.40974-3.49457,1.29102-6.93376,1.95471-10.39839c1.66116,3.07068,3.3223,6.14124,4.98343,9.21181
			c0.56647-0.2402,1.13292-0.48039,1.6994-0.72058c0-4.65236,0.32709-9.33894-0.15381-13.94098
			c-0.20518-1.96381-2.09727-3.75108-3.22282-5.61856c0.27504-4.64919,0.55006-9.29836,0.82507-13.94762
			c5.59496-2.39543,11.01654-2.37988,16.75598,0.06161c4.33568,1.84438,9.12198,2.62808,13.7077,3.88387
			c0.18755-0.5457,0.37508-1.0914,0.56262-1.63708c-4.54672-0.21436-8.72244-1.00677-10.16962-6.05049
			c2.51707-0.36946,5.03403-0.73891,7.55099-1.10834c3.41776-1.04063,6.83551-2.08128,10.25328-3.1219
			c0.54803-0.16719,1.0961-0.33437,1.64413-0.50154c-0.16711-0.22681-0.3275-0.63588-0.50276-0.64235
			c-0.36288-0.01341-0.73366,0.18729-1.10118,0.29993c0,0-0.1474,0.04669-0.1474,0.04668
			c0.46188-0.69313,0.84689-1.91669,1.39769-1.99663c5.03136-0.73024,4.96347-4.19461,4.48137-7.94914
			c0.80013-8.15154-1.7249-10.74994-10.75247-11.06494c-1.24251-1.46129-2.35789-3.06531-3.77565-4.32985
			c-0.83853-0.74792-2.12093-1.1516-3.26674-1.35541c-1.06189-0.18888-2.35503,0.46989-3.29031,0.1026
			c-3.68517-1.44717-7.26947-3.15154-11.20895-4.90162c0.2256,1.81134,0.35927,2.88455,0.62901,5.05027
			c-1.04662-1.87188-1.51062-2.70175-1.97462-3.53162c0.71536-2.01245,1.39497-4.0385,2.15189-6.03519
			c5.3196-14.03322,10.59038-28.08549,16.00471-42.08212c4.94203-12.7757,15.02844-21.00471,25.72243-28.65059
			c4.59645,0.98845,9.1929,1.9769,14.01553,3.014c-0.20857-1.46729-0.46233-3.25233-0.75888-5.3385
			c1.21336,0.29585,2.21364,0.23875,2.72118,0.71141c3.84996,3.58533,6.58055,1.90318,10.29231-0.85197
			c2.17819-1.61681,6.38896-0.99022,9.58296-0.5779c2.48041,0.3202,4.7372,2.50853,7.20612,2.76064
			c9.30939,0.95061,18.65569,1.7626,28.00543,2.03717c11.44321,0.33603,22.90649-0.05306,34.3548,0.18018
			c2.6329,0.05365,6.08411,0.55558,7.70404,2.24659c5.26001,5.49077,9.84497,11.62903,14.68967,17.51775
			c-0.36603,3.09535-0.7767,6.18643-1.08929,9.28741c-0.89777,8.90525-3.04581,17.2899-7.49094,25.28707
			c-2.53979,4.56932-4.04453,10.22858-4.22672,15.45947c-0.2041,5.85931,1.61261,11.78912,2.60315,18.0228
			c-6.91745,0-13.92392,0-20.93036,0c-13.12988-9.21071-27.37036-15.30684-43.73497-13.93673
			c-6.70065,0.56103-13.27911,2.58434-19.91315,3.94241c-0.26337-0.23984-0.5267-0.47966-0.79007-0.7195
			c0.09914-0.2879,0.22728-0.57036,0.28276-0.86646c0.0215-0.11481-0.16051-0.38229-0.18359-0.37484
			c-5.12123,1.65289-11.25783,1.15547-14.4948,6.81512c-3.55901-0.33629-7.83977,2.41919-10.69011-2.64966
			c0.25124,2.73154,0.50948,5.36389,1.90829,7.04723c5.16235,6.21245,2.95528,13.51889,0.0504,18.34024
			c-7.65327,12.70232-8.44064,25.61061-5.86821,38.86847c3.03769-0.16901,5.68864-0.31647,7.82095-0.4351
			c0.31218-5.66454,0.4539-11.35866,0.98613-17.01599c0.5338-5.67432,1.45708-11.31195,1.97289-15.18687
			c6.95079-2.94284,12.51532-5.29875,18.32626-7.759c-0.33546,1.92307-0.64082,3.67354-0.93181,5.34157
			c2.83813-0.5733,5.23662-1.05782,7.63506-1.54224c2.30679,0.29976,4.6136,0.59944,6.92043,0.89912
			c2.30028-0.33211,4.60054-0.6642,6.90051-0.99559c3.33174-0.95198,6.6638-1.90468,9.99588-2.85735
			c0.95702-0.03035,1.91403-0.06071,2.87105-0.09109c3.65076,4.72289,2.63354,8.23979-4.40411,9.5985
			c-5.70618,1.10164-11.58214,1.32278-17.3828,1.93445c3.16014,1.65556,6.77019,3.7599,9.90375,3.19896
			c6.0806-1.0885,13.18565-2.21764,17.4752-6.02634c4.86237-4.31731,9.2782-4.01703,14.4794-3.70007
			c0.32715,0.01993,0.66818-0.18904,1.34805-0.39726c-2.09494-0.71436-3.75189-1.27939-5.40884-1.84442
			c0.07544-0.34367,0.15088-0.68738,0.22632-1.03107c2.62213,0,5.24429,0,7.93341,0
			c-3.51013-2.15663-6.71503-4.12573-9.91992-6.09483c0.25513-0.40253,0.51022-0.80505,0.76535-1.20758
			c14.24768,1.86681,28.58481,4.53825,41.06497-5.20352c12.17221,13.51874,15.52591,39.99165-3.57431,52.14992
			c-11.78775,7.50349-17.52481,20.16261-17.23038,34.10117c0.30093,14.24889-6.28616,23.45895-17.53696,30.53088
			c-4.89389,3.07614-9.76025,6.19647-14.62138,9.32434c-5.03714,3.24109-5.4635,9.22516-8.22179,13.82016
			c-2.00522,3.34052-4.50885,6.38147-6.79024,9.556l-0.00648,0.00677c-1.59677,0.66525-3.19833,1.31927-4.78922,1.99838
			c-2.33038,0.99484-4.65311,2.00754-6.97911,3.01263c-1.02306,0.67944-2.0461,1.35889-3.06915,2.03833
			c-3.03404,0.02914-6.06808,0.05829-9.10213,0.08743c-3.22371-2.53262-3.22371-2.53262-3.87547-0.12454
			c-0.70642,0.02173-1.41299,0.04309-2.11957,0.06445c-1.60233-0.31046-3.20465-0.62088-4.80696-0.93134
			c-2.80197-0.76801-5.59575-1.56772-8.40753-2.29791c-7.53909-1.95776-8.71725-3.53323-8.59718-11.62125
			c2.22656-1.854,4.453-3.70798,6.8916-5.73859c-0.08823,0.80173-0.17184,1.56149-0.25543,2.32132
			c-0.22189,0.73154-0.44383,1.46304-1.0239,3.37482c1.1839-1.45062,1.55379-1.90387,1.92371-2.35712
			c3.60228-6.27106,10.06047-11.87387,5.26363-20.96027c-1.04842,4.13998-1.89549,7.48492-2.84549,11.2363
			c-1.18266-4.2128-2.12579-7.57236-3.06894-10.93195c3.3775-1.21609,6.76663-2.40112,10.12901-3.65768
			c2.91808-1.09048,5.86041-3.33812,8.6967-3.19418c8.18196,0.41528,16.30588,1.87576,24.47369,2.72217
			c2.99678,0.31049,6.05258,0.05005,9.08148,0.05005c0.14616-0.6116,0.29231-1.22321,0.43848-1.83484
			c-1.22675-1.3933-2.45354-2.78656-3.68028-4.17986c-0.09093-0.29663-0.16911-0.59657-0.23459-0.89984
			c-0.2543-0.35562-0.50858-0.71121-0.76288-1.06682c-0.08733-0.30742-0.1655-0.61716-0.2345-0.92923
			c-0.25427-0.35562-0.50858-0.71121-0.76288-1.06683c-0.08733-0.30759-0.16559-0.61742-0.23477-0.92955
			c-0.2701-3.24066-0.76988-6.28096-5.16217-5.92616c-0.29207-0.00262-0.5549-0.09175-0.78842-0.26736
			c-0.3678-0.26482-0.73561-0.52962-1.10345-0.79442c-3.12044-1.98468-6.24089-3.96938-10.11647-6.43434
			c0.58363,1.86154,0.82043,2.61682,1.05724,3.3721c-0.63002,0.0184-1.26007,0.03683-1.89011,0.05522
			c-1.79733-1.6185-3.59464-3.237-5.67915-5.11409c-0.19543,1.46071-0.30261,2.26189-0.40981,3.06306
			c-0.55615-0.00006-1.11232-0.00012-1.66849-0.00018c-0.83817-1.27007-1.6763-2.54013-2.14488-3.25021
			c-0.54369,1.82863-1.1322,3.80801-1.72073,5.78743c-0.29979-0.12192-0.59959-0.24384-0.8994-0.36575
			c-0.35728-1.9817-0.71457-3.96344-1.24142-6.88567c-0.78719,1.32826-0.99693,1.70412-1.22771,2.06659
			c-0.34845,0.54723-0.71158,1.0851-1.06848,1.62697c-0.64148-0.32195-1.28296-0.64384-1.92445-0.96577
			c0-0.82899,0-1.65797,0-2.87393c-0.83829,0.92213-1.31625,1.44786-1.79417,1.97362
			c-0.73116-0.36592-1.46231-0.73184-2.19348-1.09775c0.6337-0.47879,1.2674-0.95755,2.83789-2.14407
			c-2.76865,0.49075-4.24052,0.75165-5.71242,1.01256c0.00391-0.28725-0.01205-0.57333-0.04791-0.85832
			c-3.27058,0.23459-6.54118,0.46913-9.88962,0.70932c0.56422-1.06667,1.23447-2.33377,1.90466-3.60092
			c-1.3208-0.36055-2.64157-0.72107-3.96233-1.08156c2.02684-2.29175,4.0537-4.58347,6.08054-6.87521
			c1.45,0.08104,3.34264-0.3994,4.27579,0.33723c4.85619,3.83337,9.92429,2.96021,12.38857-2.43858
			c2.20381-3.82613,1.71294-7.19919-1.69557-10.07997c-0.13339-0.42664-0.26405-0.85555-0.39473-1.28445
			c-0.19318,0.09827-0.38635,0.19655-0.57953,0.29482c0.27393,0.37309,0.54787,0.74622,0.82181,1.11934
			c-0.04234,5.80923-0.54494,6.36214-6.16435,5.90529c-1.77441-0.14426-3.48854-0.91737-5.26244-1.20143
			c-7.05551-1.1299-14.08311-5.49327-21.26141-1.24608c-6.29625,3.72531-11.95773,2.01759-17.75087-0.82449
			c-1.14114-0.55983-2.28693-1.11021-3.43056-1.66496l0.04376,0.04048c0-1.37431,0-2.74861,0-4.12292
			c-0.26064-0.03639-0.52129-0.07278-0.78192-0.10918c-0.11049,0.75362-0.22098,1.50723-0.33147,2.26085
			c-2.17781,2.41736-4.64973,4.63437-6.46309,7.29999c-2.58922,3.80608-1.74106,7.10403,2.37062,9.29494
			c2.8609-2.67291,5.5901-5.22279,8.31931-7.77267c0.93596,0.36507,1.87195,0.73012,2.8082,1.09512
			c3.05101,2.2972,6.10172,4.59444,9.15173,6.89232c-0.04564,1.63968-0.09059,3.2787-0.13556,4.91772
			c-4.02368,1.93228-8.79538,3.06215-11.91022,5.96948c-5.88138,5.48956-10.80963,12.00166-16.13402,18.08884
			C140.33347,251.00325,139.04266,250.69344,137.75189,250.38362z M247.54785,74.29004
			c-7.99895,2.90641-14.50575,1.58622-21.05168-1.36829c-5.10493-2.30409-10.49486-4.06683-15.88631-5.62642
			c-13.18887-3.81511-26.2679-6.05606-35.59442,7.6944c-3.58987,5.29269-7.10933,10.78741-9.57442,16.64768
			c-2.61848,6.22491,0.39897,9.88361,7.11208,10.01632c2.52765,0.04996,5.05708,0.00811,7.58571,0.00811
			c-2.79074,1.07053-5.87759,1.16512-8.67821,2.10959c-2.58664,0.8723-6.03708,2.07487-7.06354,4.14606
			c-3.17744,6.41135-0.47765,12.51663,6.08537,15.59215c7.83226,3.67029,16.02235,3.52518,24.15927,1.50893
			c4.07892-1.01071,8.28868-2.37442,11.77988-4.6097c2.99031-1.9146,5.24379-5.30798,3.76151-9.44462
			c-1.50946-4.21249-4.84911-5.51011-9.10117-5.3521c-2.43217,0.09039-4.88004-0.24204-7.32085-0.38411
			c-0.10081-0.61121-0.20163-1.22242-0.30243-1.83362c2.15424-0.87991,4.23792-2.07459,6.47675-2.57731
			c5.46025-1.22605,10.95255-2.5168,16.5033-3.09137C231.03285,96.21507,240.50702,88.03302,247.54785,74.29004z
			 M234.24699,197.4727c7.1505,0,13.16336,0.519,19.04617-0.13443c6.98637-0.77596,14.03862-2.00154,20.71373-4.12805
			c3.70163-1.17928,7.29822-4.10561,9.77625-7.18416c1.49625-1.8589,1.75372-6.01562,0.66946-8.19365
			c-0.7114-1.42906-4.9119-1.85344-7.37198-1.49738c-3.35687,0.48586-6.76962,1.73143-9.76392,3.37216
			c-10.4837,5.74458-21.29613,7.05542-32.97691,4.38593c-5.16457-1.1803-10.72641-1.0045-16.08604-0.8176
			c-3.93117,0.13707-5.33115,3.11795-4.55052,6.76039c2.5876,12.07396,4.27014,24.19897,2.44621,36.40018
			c2.38271,1.61426,4.27887,3.38921,6.52518,4.28603c2.35393,0.93973,6.53503,3.14539,7.09328-0.63156
			c0.90025-6.09027,2.19284-11.61987,5.57796-16.85225c1.04282-1.61191,0.17349-4.54056-0.01328-6.85066
			C235.1127,203.66713,234.68311,200.96356,234.24699,197.4727z M172.67827,173.91373
			c-1.94949,2.27382-3.34105,3.30409-3.92278,4.67776c-2.56306,6.05235-5.14566,12.1228-7.14085,18.37221
			c-0.54517,1.70764,0.39166,4.5423,1.65759,5.95294c0.88893,0.99057,3.98502,1.19777,5.19865,0.39581
			c1.54968-1.024,2.87411-3.33443,3.10431-5.23488c0.68169-5.62752,0.8047-11.32468,1.08804-16.9975
			C172.75826,179.17786,172.67827,177.26686,172.67827,173.91373z M185.78835,142.55287
			c-2.42113,0.33893-5.15036,1.81984-4.92599,5.37373c0.19252,3.04988,1.84346,5.74576,5.69632,5.62564
			c3.71941-0.11597,6.02132-1.9621,6.00464-5.75006C192.54715,144.12848,190.17154,142.59871,185.78835,142.55287z
			 M213.57886,281.30579c-3.90474-0.06686-5.94704,1.19193-5.93211,4.57083c0.01361,3.08185,1.61899,5.15878,4.73756,5.28949
			c3.11113,0.1304,4.91759-1.75867,5.13995-4.86563C217.75912,283.01913,216.03021,281.41049,213.57886,281.30579z"/>
		<path class="st1" d="M390.23517,427.04578c-8.3064,14.60205-18.85309,27.23306-31.6134,38.26694
			c-10.98309,9.49716-22.83368,17.37619-35.81921,23.72659c-14.2576,6.97253-29.11093,12.1387-44.92178,13.72968
			c-11.91553,1.19904-24.00856,2.59253-35.87498,1.76938c-11.90474-0.82587-23.6266-4.29083-35.42863-6.59924
			c2.96918-5.93265,5.96529-11.85193,8.90036-17.80142c3.31938-6.72845,4.8531-13.70413-0.03745-20.18036
			c-3.55043-4.7016-7.84457-8.87521-12.04744-13.0415c-7.15393-7.09158-15.73689-13.10504-21.49495-21.16309
			c-11.0096-15.40723-10.16423-33.60492-9.15085-51.45633c2.1255,6.27466,3.55464,12.74289,5.92015,18.84787
			c4.76425,12.29559,10.82724,23.92163,22.68935,30.96017c7.25856,4.30704,14.29921,6.20761,20.235-0.18607
			c12.14909,1.40121,24.09311,3.5379,36.59282,2.36859c16.59793-1.55261,31.58328-5.85086,44.05069-17.29211
			c1.46606,0.22021,2.94409,0.38028,4.39624,0.67029c11.56747,2.30997,21.67068-0.85364,28.9632-9.86301
			c5.67673-7.01309,10.04504-15.12396,14.65918-22.94525c2.28461-3.8725,3.81244-8.19199,5.68268-12.30923
			c1.61118,6.4126,2.90186,12.44055-1.0477,18.43701c-5.46048,8.29047-9.82474,17.34464-15.67325,25.32724
			c-6.05542,8.26498,3.25272,22.13492,11.67542,22.70361c6.82538,0.46085,12.50531-4.02252,13.03485-12.6893
			c0.70056-11.466,0.05911-23.03732-0.44629-34.54401c-0.24637-5.60852-1.4917-11.17313-2.28488-16.75757
			c0.60654-0.24323,1.21304-0.48639,1.81955-0.72955c4.28244,8.1001,9.35251,15.89563,12.63022,24.38422
			c3.41519,8.84464,5.01733,18.38132,7.58371,27.56744C384.29773,422.07675,385.61176,425.94275,390.23517,427.04578z"/>
		<path class="st2" d="M221.59132,423.9184c-5.93579,6.39368-12.97644,4.4931-20.235,0.18607
			c-11.86211-7.03854-17.92509-18.66458-22.68935-30.96017c-2.36551-6.10498-3.79465-12.57321-5.92015-18.84787
			c-1.01338,17.85141-1.85875,36.0491,9.15085,51.45633c5.75806,8.05804,14.34102,14.0715,21.49495,21.16309
			c4.20287,4.16629,8.49701,8.3399,12.04744,13.0415c4.89055,6.47623,3.35683,13.4519,0.03745,20.18036
			c-2.93507,5.94949-5.93118,11.86877-8.90036,17.80142c-10.826-4.41632-22.11601-7.96527-32.36737-13.45593
			c-14.71725-7.88257-27.82361-18.29565-39.09317-30.74863c-12.61327-13.93774-22.64425-29.57944-29.88755-46.96286
			c-0.8836-2.12057-0.66106-3.37878,1.86151-4.85861c16.43357-9.64029,32.73322-19.5162,48.92181-29.56491
			c8.95505-5.55859,17.6042-11.61014,26.41118-17.40915c0.64735-0.42624,1.45656-0.60635,2.19054-0.90088
			c-1.99037,13.5777-1.88094,27.0296,4.16945,39.65533c3.3535,6.99802,6.48647,14.56653,14.9697,17.28336l-0.0871-0.06494
			c0.26669,0.36676,0.53339,0.73352,0.80009,1.10031C207.90543,419.24899,214.95195,421.2905,221.59132,423.9184z"/>
		<path class="st0" d="M221.59132,423.9184c-6.63937-2.6279-13.6859-4.6694-17.12509-11.90622
			c-0.26669-0.36679-0.5334-0.73352-0.80009-1.10028c0,0,0.0871,0.06494,0.08687,0.065
			c-2.78259-6.17462-5.85861-12.23627-8.28433-18.54819c-4.6115-11.99963-8.01097-24.1264-1.31322-36.65286
			c1.015-1.89838,0.95322-4.37317,1.38953-6.58136c-0.60979-4.69553-1.21957-9.39102-1.82938-14.08661
			c0.83867-0.06537,1.67737-0.13065,2.51802-0.19611c-2.00685-1.63391-3.84746-3.13248-5.68762-4.6304
			c-0.27022-0.70538-0.54091-1.41132-0.81158-2.11731c6.35223,4.29874,13.58208,4.23926,20.80858,4.1958
			c2.47147,6.1954,2.45316,12.45801,1.32954,19.00317c-1.02002,5.94171-0.24641,11.87167,3.4725,17.03217
			c3.74692,5.19931,7.65985,10.29337,11.13799,15.66815c4.05247,6.26233,7.65442,12.80353,14.31895,16.83798
			c6.69366,4.05203,17.27534,3.23477,20.16292-2.3678c3.63431-7.0513,9.69641-9.59174,16.7049-10.97302
			c1.28336-0.25296,3.61871-0.0192,3.92056,0.66934c0.53259,1.2149,0.36038,3.2644-0.37521,4.41501
			c-2.48474,3.88678-5.45712,7.45773-8.03528,11.2894c-3.07703,4.57318-2.25412,11.21777,0.92981,14.7041
			c4.15125-7.61176,7.89203-15.9519,12.99692-23.3494c3.88428-5.6286,8.99771-10.86234,16.42227-12.13141
			c10.8942-1.86212,17.23526-9.02191,21.71899-18.33981c4.58081-9.51978,5.91504-18.55228-2.07959-27.52939
			c-7.03708-7.90182-9.66174-17.42419-6.98804-28.18478c1.02057-4.1073,1.25937-8.54913,1.03839-12.79605
			c-0.45404-8.72717-1.45834-17.42572-2.23618-26.13605c0.01083-0.57874,0.0217-1.15747,0.03253-1.73621
			c-0.18875-0.4064-0.37756-0.81284-0.56638-1.21927c0.82578-1.99408,1.12048-4.57242,2.56433-5.88651
			c8.7179-7.93422,15.71671-17.0293,20.26538-27.94943c0.27267,1.34161,0.54532,2.6832,0.81799,4.02483
			c-1.59335,4.2314-3.83356,8.3396-4.66586,12.71588c-3.26828,17.1848-6.44193,34.40376-8.93262,51.71352
			c-1.2139,8.43616-1.59473,17.16577-0.85391,25.63123c0.33124,3.7854,4.35065,7.24768,6.69684,10.85626
			c2.58969,2.97458,5.17883,5.94946,7.76794,8.92435c-0.54486,3.97891-1.08975,7.95779-1.63461,11.93671
			c-0.45059,0.85397-0.86346,1.73044-1.35745,2.5585c-6.62543,11.10751-13.26218,22.20828-19.89612,33.31073
			c-4.32858,4.64761-8.65714,9.29523-12.98569,13.94281c-12.46741,11.44125-27.45276,15.7395-44.05069,17.29211
			C245.68443,427.4563,233.74042,425.31961,221.59132,423.9184z"/>
		<path class="st1" d="M363.22318,67.61366c4.97742,8.52148,10.552,16.75832,14.77902,25.6375
			c5.11951,10.75388,6.03299,22.62503,7.36853,34.3913c0.63809,5.62193,3.7424,10.96357,5.65753,16.23356
			c-0.97348,0.11604-2.89914,0.34561-4.8248,0.57516c0.33191,4.09418,0.66379,8.18834,1.10583,13.64139
			c-1.84576-2.16161-2.64423-3.09673-3.76282-4.40671c-0.66983,3.32118-3.59787,6.50153,1.59134,8.0126
			c-0.33765,0.96805-0.67532,1.93607-1.01288,2.90414c-7.86423-1.1703-14.73334,2.37582-21.87656,4.62274
			c-3.66782-1.57869-7.33591-3.15788-11.00397-4.73709l0.03287,0.03722c-0.68842-0.51448-1.37686-1.02895-2.06531-1.54343
			c-0.4772-0.40012-0.95441-0.80023-2.03473-1.70602c0.39157,3.89824,0.7128,7.09616,1.03412,10.29408
			c-1.63342-1.8326-3.26682-3.66521-5.62369-6.30952c-0.14359,2.33667-0.20108,3.27228-0.25854,4.20789
			c-0.02695,1.6382,0.05664,3.28708-0.10049,4.9127c-0.5929,6.13515-1.41757,12.16615-8.80524,14.05478
			c-0.11472-2.97304-0.04669-5.96654-0.37701-8.91539c-1.18152-10.54691-2.96423-21.04915-3.63342-31.62444
			c-0.67862-10.72421-3.2818-20.143-11.70761-27.5206c-3.99957-3.50202-6.83304-8.22117-6.28186-13.8055
			c0.68616-6.95196,2.04922-13.83701,3.12003-20.75097c17.0787-0.69838,33.98849-0.24159,50.22964,7.29755
			c-1.21484,0.41869-2.10144,0.72427-3.07053,1.05827c4.30933,3.3692,7.46402,2.60303,11.4248-2.92648
			c-1.86218-1.62811-3.75369-3.28185-5.62924-4.92164c0.8812-1.0829,1.50604-1.85076,2.34622-2.88322
			c-2.85175-1.27045-5.20554-2.31906-8.51099-3.79163c2.68375,0,4.31216,0,4.87234,0
			C365.21146,75.63865,364.21732,71.62615,363.22318,67.61366z"/>
		<path class="st1" d="M314.42773,69.62986c-4.84482-5.88896-9.42978-12.02722-14.68979-17.51799
			c-1.61993-1.69101-5.07114-2.19294-7.70404-2.24659c-11.4483-0.23324-22.91159,0.15585-34.3548-0.18018
			c-9.34975-0.27457-18.69604-1.08656-28.00543-2.03717c-2.46892-0.25211-4.72571-2.44044-7.20612-2.76064
			c-3.194-0.41232-7.40477-1.03891-9.58296,0.5779c-3.71176,2.75515-6.44235,4.4373-10.29231,0.85197
			c-0.50754-0.47265-1.50781-0.41556-2.72118-0.71141c0.29655,2.08617,0.55031,3.87122,0.75888,5.3385
			c-4.82263-1.0371-9.41908-2.02554-14.01561-3.014c-2.62338,0.22711-5.24669,0.45423-7.87001,0.68135
			c1.13548-1.60522,2.24266-3.23138,3.4111-4.8122c7.03882-9.52314,18.31923-10.29455,28.3477-12.73331
			c9.26016-2.25193,18.46277-4.01269,26.70657-9.07027c1.66524-1.02163,3.64635-1.51614,5.44646-2.33183
			c3.30869-1.4993,6.59109-3.05668,9.88446-4.58984c6.01662-0.08009,12.03328-0.20551,18.0497-0.19512
			c0.98956,0.00171,1.97803,0.59992,2.96701,0.92246c-15.87192,0.24078-28.51697,4.34593-35.3683,10.99331
			c2.69418-1.16439,5.00305-2.16226,7.31195-3.16013c0.10077,0.23195,0.20155,0.46389,0.30229,0.69584
			c-2.93529,1.82759-5.87062,3.65519-8.80595,5.48279c10.82906-4.61299,21.86949-6.13986,32.9752-4.73122
			c-4.25922,2.25237-8.84164,4.67568-13.4241,7.099c0.22549,0.49174,0.45102,0.98347,0.67654,1.47522
			c16.41202-2.91234,32.65219-9.08026,50.28918-2.85227c-10.52087,2.20141-20.34039,4.25606-30.15994,6.31071
			c0.0213,0.32129,0.04266,0.64257,0.06396,0.96386c12.91107,0,25.82217,0,38.45987,0
			c-5.13583,1.02027-10.46429,2.0788-15.79269,3.13733c0.08755,0.47989,0.17508,0.95977,0.26266,1.43966
			c5.5282-0.29187,11.06186-0.88818,16.58307-0.78923c5.42752,0.09727,10.84238,0.90031,16.26282,1.39365
			c-0.06256,0.15308-0.12518,0.30617-0.18777,0.45925c-5.91815,0.48658-11.8363,0.97316-17.75449,1.45974
			c-0.07504,0.77382-0.15005,1.54762-0.2251,2.32143c11.11615,3.64686,22.2323,7.29372,33.45468,10.97544
			c-6.80283-0.59121-13.48825-1.17222-20.17392-1.75286c-0.3746-0.24518-0.74686-0.49432-1.13342-0.71885
			c-0.01151-0.0067-0.17282,0.24482-0.26425,0.37595c0.44409,0.13968,0.88818,0.27935,1.33228,0.41902
			c1.72241,7.45452,8.40836,8.29358,15.32785,11.11016c-4.40234-0.3131-7.47906-0.5319-10.55573-0.75071
			c-0.15265,0.45231-0.3053,0.90462-0.45795,1.35693c4.1669,1.74349,8.33383,3.48699,12.5007,5.23048
			c0.03375,0.23082,0.06747,0.46164,0.10117,0.69246c-3.62192-0.24995-7.24387-0.49989-10.86606-0.74946
			c-0.37469-0.24507-0.74701-0.49418-1.13367-0.71853c-0.01175-0.00681-0.17313,0.24462-0.26471,0.37565
			c0.44394,0.14009,0.88788,0.28018,1.33182,0.42028c1.76932,4.60741,6.31732,4.511,9.98184,5.95253
			c4.27451,1.68147,8.49899,3.4902,12.74521,5.24371c-0.16946,0.50315-0.33893,1.00629-0.50836,1.50945
			c-0.90872,0.05241-1.84164,0.26501-2.72226,0.13156c-6.2988-0.95445-12.64194-1.72228-18.86298-3.05433
			c-6.19617-1.32672-12.26648-3.24212-18.39212-4.89946C315.78696,75.64315,315.10733,72.63651,314.42773,69.62986z
			 M272.61179,38.54293c-0.00894-0.20179-0.01791-0.40357-0.02692-0.60536c-0.74838,0.05161-1.49683,0.10322-2.24524,0.15482
			c0.00662,0.15018,0.01328,0.30036,0.01993,0.45054C271.11029,38.54293,271.86105,38.54293,272.61179,38.54293z"/>
		<path class="st2" d="M302.23483,408.99487c4.32855-4.64758,8.6571-9.2952,12.98569-13.94281
			c2.65863-1.45258,6.08328-2.28586,7.84311-4.46518c7.52332-9.31683,14.80948-18.85425,21.63739-28.68985
			c2.61072-3.76074,3.76282-8.53543,5.57956-12.84802c15.28217,18.10956,38.08115,25.16342,56.84406,39.17191
			c-1.86081,4.96338-3.90475,10.41525-5.9487,15.86707c-0.72806-1.2482-1.98468-2.44864-2.10223-3.75198
			c-1.14264-12.66522-11.63428-15.64978-20.99487-21.23126c5.38327,14.91461,10.39978,28.81296,15.41626,42.71127
			c-1.08667,1.74323-2.17331,3.48648-3.25995,5.22977c-4.62338-1.10303-5.93741-4.96902-7.00739-8.79901
			c-2.56638-9.18613-4.16852-18.72281-7.58371-27.56744c-3.27771-8.48859-8.34778-16.28412-12.63022-24.38422
			c-0.60651,0.24316-1.21301,0.48633-1.81955,0.72955c0.79318,5.58444,2.03851,11.14905,2.28488,16.75757
			c0.5054,11.50668,1.14685,23.078,0.44629,34.54401c-0.52954,8.66678-6.20947,13.15015-13.03485,12.6893
			c-8.4227-0.5687-17.73083-14.43863-11.67542-22.70361c5.84851-7.9826,10.21277-17.03677,15.67325-25.32724
			c3.94955-5.99646,2.65887-12.02441,1.0477-18.43701c-1.87024,4.11725-3.39807,8.43674-5.68268,12.30923
			c-4.61414,7.82129-8.98245,15.93216-14.65918,22.94525c-7.29251,9.00937-17.39572,12.17297-28.9632,9.86301
			C305.17892,409.37515,303.7009,409.21509,302.23483,408.99487z"/>
		<path class="st3" d="M328.30759,56.72264c6.68542,0.58101,13.37085,1.16201,20.17368,1.75322
			c-11.22238-3.68172-22.33853-7.32859-33.45468-10.97544c0.07504-0.77381,0.15005-1.54761,0.2251-2.32143
			c5.91818-0.48658,11.83633-0.97316,17.75449-1.45974c0.06259-0.15308,0.12521-0.30616,0.18777-0.45925
			c-5.42044-0.49334-10.8353-1.29638-16.26282-1.39365c-5.52121-0.09895-11.05487,0.49736-16.58307,0.78923
			c-0.08759-0.47989-0.17511-0.95977-0.26266-1.43966c5.3284-1.05853,10.65686-2.11707,15.79269-3.13733
			c-12.6377,0-25.5488,0-38.45987,0c-0.0213-0.32129-0.04266-0.64257-0.06396-0.96386
			c9.81955-2.05465,19.63907-4.10931,30.15994-6.31071c-17.63699-6.22799-33.87717-0.06007-50.28918,2.85227
			c-0.22552-0.49174-0.45105-0.98348-0.67654-1.47522c4.58246-2.42332,9.16489-4.84664,13.4241-7.099
			c-11.10571-1.40864-22.14615,0.11823-32.9752,4.73122c2.93533-1.8276,5.87067-3.65519,8.80595-5.48279
			c-0.10074-0.23195-0.20152-0.4639-0.30229-0.69584c-2.3089,0.99787-4.61777,1.99574-7.31195,3.16013
			c6.85133-6.64738,19.49638-10.75253,35.3683-10.99331c24.53806,1.29538,46.42264,9.95375,65.26688,25.37989
			c8.78989,7.19549,15.99081,16.33702,23.87021,24.63619c0.38235,0.40273,0.36169,1.18862,0.52872,1.79609
			c0.99414,4.0125,1.98828,8.02499,2.9826,12.03825c-0.56018,0-2.1886,0-4.87234,0c3.30545,1.47257,5.65924,2.52119,8.51099,3.79163
			c-0.84018,1.03246-1.46503,1.80032-2.34622,2.88322c1.87555,1.63979,3.76706,3.29353,5.62924,4.92164
			c-3.96078,5.52952-7.11548,6.29568-11.4248,2.92648c0.96909-0.334,1.85568-0.63958,3.07053-1.05827
			c-16.24115-7.53915-33.15094-7.99593-50.23001-7.29809c0.64102-2.38989,1.28238-4.77924,1.92371-7.16861
			c6.12549,1.65728,12.1958,3.57268,18.39197,4.8994c6.22104,1.33205,12.56418,2.09988,18.86298,3.05433
			c0.88062,0.13345,1.81354-0.07915,2.72226-0.13156c0.16943-0.50315,0.3389-1.00629,0.50836-1.50945
			c-4.24622-1.75351-8.4707-3.56224-12.74521-5.24371c-3.66452-1.44153-8.21252-1.34512-9.98184-5.95253l0.06683-0.07777
			c3.62192,0.24994,7.24387,0.49989,10.86578,0.74983c-0.03369-0.23082-0.06741-0.46164-0.10117-0.69246
			c-4.16687-1.74349-8.3338-3.48699-12.5007-5.23048c0.15265-0.45232,0.3053-0.90462,0.45795-1.35693
			c3.07666,0.21881,6.15338,0.43761,10.55573,0.75071c-6.91949-2.81659-13.60544-3.65565-15.32785-11.11016L328.30759,56.72264z
			 M274.7529,24.53102c0-0.14376,0-0.28752,0-0.43128c-0.55463,0-1.10928,0-1.66394,0c0,0.14376,0,0.28752,0,0.43128
			C273.64359,24.53102,274.19824,24.53102,274.7529,24.53102z"/>
		<path class="st1" d="M190.54553,330.28076c1.84064,1.49854,3.68124,2.9971,5.6881,4.63101
			c-0.84065,0.06546-1.67935,0.13074-2.51802,0.19611c-7.44649-1.7099-14.55045-4.15591-19.24666-10.68768
			c-2.29765-3.19568-4.12009-6.73346-6.71359-9.88541c0.37535,2.17487,0.7507,4.34973,1.12608,6.5246
			c-0.24678,0.3175-0.49353,0.63501-0.74031,0.95248c-4.6716-4.32495-7.00238-9.33133-4.57098-15.72342
			c0.62135-1.68085,1.24248-3.36221,1.76538-4.77768c2.36732,4.7984,4.57353,9.27029,6.87047,13.92606
			c2.07439-5.05319,3.68942-8.98746,5.30446-12.92169c0.94012,10.66821,0.94012,10.66821,2.98181,12.13873
			c3.53349-9.90735,3.91869-9.7294,7.99057-10.53418c-1.89514,9.01743-1.89514,9.01743,0.16011,10.68628
			c1.76228-3.99606,3.63542-8.24356,5.50854-12.49106c0.33186,0.19281,0.66373,0.38559,0.99557,0.5784
			c0.36885,3.97052,0.73772,7.94107,1.10658,11.91162c0.47757-0.00638,0.95514-0.01276,1.43271-0.0191
			c1.10631-3.37006,2.2126-6.74011,3.73811-11.38721c0.54478,3.11752,0.82703,5.00146,1.21288,6.86389
			c0.37762,1.82278,0.86087,3.62363,1.34885,5.64572c4.50354-6.00189,4.8813-10.07864,1.72881-16.53671
			c1.60231,0.31046,3.20464,0.62088,4.80713,0.93146c0.81967,1.18246,1.63919,2.36481,2.4603,3.54205
			c0.37689,0.62903,0.7522,1.26312,1.1275,1.89722c0.19165-0.1044,0.38332-0.20883,0.57497-0.31329
			c-0.33765-0.74509-0.67529-1.49017-1.01292-2.23529c-0.34354-0.9852-0.68706-1.97037-1.03059-2.95557
			c0.65192-2.40778,0.65192-2.40778,3.87523,0.12463c0.68137,1.09061,1.32568,2.20728,2.05466,3.26547
			c0.83871,1.21744,1.75235,2.38324,2.63342,3.57147c1.12926-1.23495,2.3999-2.3728,3.33734-3.73947
			c0.60994-0.88922,0.73486-2.1116,1.0771-3.18469c1.02306-0.67944,2.0461-1.35889,3.06912-2.0386
			c0.44829,2.31628,0.89664,4.63284,1.34499,6.94943c0.47507,0.30823,0.95016,0.61646,1.42526,0.92468
			c2.11864-2.21219,4.23726-4.42441,6.54665-6.83578c0.38574,1.3605,0.73799,2.60294,1.17979,4.16122
			c2.36812-3.33441,2.36812-3.33441,1.27167-10.2103c0,0,0.00648-0.00677,0.00655-0.00681
			c2.13812,2.13239,4.2762,4.26477,5.96965,5.9537c-0.07643-1.00439-0.24384-3.20407-0.44569-5.8566
			c1.49135,1.1593,2.80539,2.18076,4.11945,3.20221c0.00359-0.29205,0.0072-0.58414,0.0108-0.87619
			c0.83766,0.18155,1.67537,0.36313,2.51294,0.54468c0.31573,1.6546,0.63158,3.3092,0.9474,4.96384
			c-0.56371,1.69952-0.62796,3.92078-1.77034,5.01578c-8.87798,8.50977-17.0876,18.4162-31.33072,17.15875
			c-2.30928,0-4.61856,0-6.92786,0c-0.00987,0.24142-0.01974,0.48285-0.02962,0.72427
			c2.31912,0.68866,4.63823,1.37738,6.95735,2.0661c1.67879,0.51007,3.35756,1.02014,6.26456,1.90341
			c-2.67406,0.1506-3.96947,0.22357-5.26489,0.29657c-2.63725,0.00491-5.27451,0.00983-7.91176,0.01471
			c-2.0058-0.35245-4.01161-0.70486-6.01741-1.05728c0,0,0.00932-0.00241,0.00934-0.00241
			c-0.66443-0.29047-1.32886-0.58093-1.99329-0.87137c-1.80318-0.45581-3.60635-0.91159-5.40952-1.36743
			c-0.10487,0.3009-0.20973,0.60178-0.31459,0.90265c2.57724,1.10336,5.15451,2.20676,7.73177,3.31012
			c1.79294,0.83499,3.58589,1.66998,5.7941,2.69836c-1.25864,0.18582-2.04018,0.30124-2.8217,0.41666
			c-7.22662,0.04343-14.45647,0.10291-20.80937-4.19629c-1.65926-1.68381-3.31784-3.36716-4.97643-5.05051
			c-0.56148-0.46545-1.12296-0.93094-1.68442-1.39639c0.05168,0.48886,0.10336,0.97772,0.15504,1.46655
			C185.66713,325.5491,188.10634,327.91492,190.54553,330.28076z"/>
		<path class="st4" d="M205.715,299.37152c3.1525,6.45807,2.77473,10.53482-1.72881,16.53671
			c-0.48798-2.02209-0.97122-3.82294-1.34885-5.64572c-0.38585-1.86243-0.66809-3.74637-1.21288-6.86389
			c-1.52551,4.64709-2.63181,8.01715-3.73811,11.38721c-0.47757,0.00635-0.95514,0.01273-1.43271,0.0191
			c-0.36887-3.97055-0.73773-7.9411-1.10658-11.91162c-0.33185-0.19281-0.66371-0.38559-0.99557-0.5784
			c-1.87312,4.2475-3.74626,8.495-5.50854,12.49106c-2.05525-1.66885-2.05525-1.66885-0.16011-10.68628
			c-4.07188,0.80478-4.45708,0.62683-7.99057,10.53418c-2.04169-1.47052-2.04169-1.47052-2.98181-12.13873
			c-1.61504,3.93423-3.23007,7.8685-5.30446,12.92169c-2.29694-4.65576-4.50314-9.12766-6.87047-13.92606
			c-0.5229,1.41547-1.14403,3.09683-1.76538,4.77768c-6.00766-10.52237-12.60397-20.76202-17.82109-31.66266
			c-3.64333-7.61237-5.39862-16.12946-7.99721-24.24232c1.29082,0.30997,2.58162,0.61978,3.87241,0.92947
			c0.23611,2.55557,0.4722,5.11125,0.83257,9.01241c1.5601-3.57474,2.44832-5.60995,3.33652-7.64514
			c0.30325,0.11128,0.60651,0.22258,0.90976,0.33386c-0.10431,1.01987-0.2086,2.03976-0.31291,3.05966
			c0.39613,0.18973,0.7923,0.37949,1.18845,0.56927c1.89276-3.87625,3.78554-7.75246,5.88187-12.04559
			c0.18364,1.84227,0.31071,3.11722,0.4904,4.91995c0.79027-2.166,1.38179-3.78731,2.08569-5.71663
			c0.67577,1.50563,1.16791,2.60216,1.79932,4.009c1.23094-2.7238,2.21619-4.90393,3.6772-8.13686
			c0.18559,2.77731,0.29221,4.37285,0.44835,6.70966c1.33456-2.38562,2.2617-4.04298,3.34079-5.97197
			c0.3127,1.27248,0.55275,2.2493,0.70718,2.87776c1.58304-2.28436,3.198-4.61481,4.81296-6.94525
			c0.27968,0.14053,0.55934,0.28107,0.83902,0.4216c-0.2523,1.35193-0.50464,2.70387-0.77338,4.14386
			c0.63881-0.12445,1.23956-0.2415,1.84029-0.35854c-0.03307,0.922-0.06615,1.84406-0.09869,2.76659
			c-0.64943,0.80507-1.29939,1.60966-1.94937,2.41423c-2.99744,2.50639-5.99486,5.01279-8.99229,7.51915
			c-2.19232,0.22246-4.38463,0.44492-6.57695,0.66737c0.03279,0.53206,0.06561,1.06409,0.0984,1.59615
			c2.19008,0,4.38019,0,6.57027,0c-2.55147,2.0517-5.02055,4.21835-7.67654,6.12421c-2.91103,2.0889-4.1808,4.71057-3.04118,8.14252
			c1.60141,4.8226,3.13686,9.6958,5.19077,14.3298c1.52353,3.43738,3.6252,6.67499,5.84015,9.7326
			c2.18427,3.01526,9.4928,5.23868,11.5117,2.97482c1.56844-1.75879,1.02075-5.47836,1.25523-8.33942
			c0.30525-3.72437,0.45378-7.46161,0.66975-11.1933c0,3.47733,0,6.95462,0,10.75946
			c3.78722-2.83243,6.8423-5.11728,9.89742-7.40216c0.30743,0.40359,0.61488,0.80716,0.92233,1.21075
			c-1.45079,1.64926-2.9016,3.29855-5.13,5.83185c3.23918-0.96524,5.36501-1.59875,7.49086-2.23224
			c-0.11995,8.08798,1.05821,9.66345,8.59731,11.62122C200.11925,297.8038,202.91302,298.60352,205.715,299.37152z"/>
		<path class="st5" d="M364.99585,273.27921c2.41809-5.61823,4.83621-11.23642,7.2543-16.85461
			c0.31381-0.83295,0.62759-1.66592,0.94141-2.49887c-0.2168-0.08296-0.43359-0.16592-0.65036-0.24887
			c-0.32162,0.64116-0.64325,1.28232-0.96487,1.92351c-1.61301,1.51808-3.22604,3.03618-4.83908,4.55428
			c-0.21317-0.29462-0.4263-0.58923-0.63947-0.88382c2.60339-7.9054,0.94345-12.60365-4.86166-13.0434
			c11.48676-4.7338,20.32455-12.18134,24.07364-24.43892c2.45615-8.03041,4.44101-16.20515,6.63699-24.31523
			c0.43875-4.30887,0.87744-8.61777,1.31619-12.92665c14.08292,11.09232,16.25095,24.94287,10.97913,41.81775
			c-1.69574-4.01363-3.39145-8.02728-5.08716-12.04091c-0.39941,0.1895-0.79883,0.37903-1.19821,0.56853
			c-2.97995,11.67206-5.70886,23.41583-9.01132,34.9958c-3.2341,11.34033-11.31516,18.55356-21.6882,23.47241
			C366.50339,273.33322,365.74963,273.30621,364.99585,273.27921z"/>
		<path class="st3" d="M404.24207,226.36436c5.27182-16.87488,3.10379-30.72543-10.97919-41.81769
			c-1.56619-7.32692-3.48044-14.49419-9.13809-19.94411c0.33771-0.96803,0.67538-1.93605,1.01303-2.9041
			c-5.18921-1.51108-2.26117-4.69142-1.59134-8.0126c1.11859,1.30998,1.91705,2.2451,3.76282,4.40671
			c-0.44205-5.45305-0.77393-9.54721-1.10583-13.64139c9.36642,3.03409,15.18033,10.48303,21.36444,17.40186
			c2.44745,2.73825,4.41556,5.90552,6.73022,9.05194c-1.86392-0.14571-3.38086-0.26427-6.33859-0.49545
			c10.57922,6.34027,10.34076,14.92459,8.11057,24.07341c-0.33826-1.70946-0.86172-3.40575-0.98413-5.13052
			c-0.68719-9.68475-12.75372-19.55823-22.32944-18.077c4.74545,5.55463,9.40332,11.10529,14.17554,16.55569
			c2.86923,3.27701,5.91669,6.3978,8.884,9.58878c0.07574,0.48729,0.31985,1.02412,0.19406,1.45212
			c-0.31775,1.08133-0.80194,2.11369-1.13525,2.95349c-1.31824-1.72527-2.67047-3.49503-4.02274-5.2648
			c0.86429,12.53969,1.96072,24.63461-6.61008,35.69452C404.24207,229.88908,404.24207,228.12674,404.24207,226.36436z"/>
		<path class="st6" d="M178.74437,48.61161c2.62332-0.22712,5.24663-0.45424,7.87001-0.68135
			c-10.69391,7.64589-20.78032,15.8749-25.72235,28.6506c-5.41434,13.99663-10.68512,28.0489-16.00471,42.08212
			c-0.75691,1.9967-1.43652,4.02274-2.15166,6.03538c-2.32225-1.07964-4.6447-2.15945-6.96718-3.23926
			c4.32381-12.05698,7.84747-24.48436,13.20113-36.06464c5.14204-11.12261,12.13795-21.39269,18.4444-31.96263
			c0.692-1.15985,2.20847-1.82716,3.34274-2.72256C173.41942,50.01029,176.08189,49.31094,178.74437,48.61161z"/>
		<path class="st3" d="M178.74437,48.61161c-2.66248,0.69934-5.32495,1.39868-7.98763,2.09768
			c3.80782-4.21615,7.18687-8.94528,11.50125-12.55508c15.21613-12.73121,33.37175-18.95431,52.6199-22.15816
			c5.77875-0.96187,11.76927-0.65016,17.66277-0.9219c-3.29337,1.53316-6.57578,3.09055-9.88446,4.58984
			c-1.80011,0.81569-3.78122,1.3102-5.44646,2.33183c-8.2438,5.05758-17.44641,6.81835-26.70657,9.07027
			c-10.02847,2.43877-21.30888,3.21017-28.3477,12.73331C180.98703,45.38022,179.87985,47.00639,178.74437,48.61161z"/>
		<path class="st7" d="M195.54498,349.19449c-0.43631,2.20819-0.37453,4.68298-1.38953,6.58136
			c-6.69775,12.52646-3.29828,24.65323,1.31322,36.65286c2.42572,6.31192,5.50174,12.37357,8.28433,18.54819
			c-8.483-2.71689-11.61597-10.2854-14.96947-17.28342c-6.05038-12.62573-6.15982-26.07764-4.16945-39.65533
			C188.25772,352.42358,191.90135,350.80902,195.54498,349.19449z"/>
		<path class="st1" d="M393.49512,421.81601c-5.01651-13.89832-10.03302-27.79666-15.41629-42.71127
			c9.3606,5.58148,19.85223,8.56604,20.99487,21.23126c0.11755,1.30334,1.37418,2.50378,2.1022,3.75198
			c-0.12738,0.66016-0.25479,1.32028-0.38217,1.98041c-0.22543,0.34604-0.45087,0.69208-0.6763,1.03815
			C397.90997,412.0097,395.70255,416.91284,393.49512,421.81601z"/>
		<path class="st8" d="M152.79893,159.70206c1.44728,5.0437,5.623,5.83612,10.16972,6.05048
			c-0.18755,0.54568-0.37508,1.09138-0.56262,1.63708c-4.58572-1.25578-9.37202-2.03949-13.7077-3.88387
			c-5.73944-2.4415-11.16103-2.45705-16.75597-0.06161c-0.3302-7.26299-0.66043-14.52605-0.99072-21.78905
			c1.29103-0.79996,2.58208-1.59998,3.63927-2.25508c-0.74586-2.31015-1.32262-4.09648-1.89937-5.8828
			c0,0,0.04912-0.01668,0.04913-0.01668c0.31158-0.31735,0.62318-0.63472,0.93477-0.95209
			c0.4176-1.66734,0.83521-3.3347,1.25281-5.00204c0.71791,3.75732,3.09874,5.69609,6.78244,6.21002
			c3.07611,2.50003,6.15221,5.00006,9.47171,7.69794c-2.12163,0.75008-4.46011,1.01851-6.03217,2.25928
			c-2.56535,2.0247-5.32985,4.33566-6.73431,7.161c-1.84985,3.72134,2.35408,7.85258,6.40585,6.83989
			c0.40013-0.39723,0.80028-0.79443,1.20042-1.19165c0.53423,0.37839,1.06845,0.75677,1.60268,1.13515
			c1.06848,0.28606,2.13699,0.5721,3.20551,0.85814l-0.05614-0.04774c0.3333,0.33798,0.6666,0.67598,0.99988,1.01399
			C152.11572,159.55562,152.45732,159.62885,152.79893,159.70206z"/>
		<path class="st1" d="M350.28058,349.04901c-1.81674,4.31259-2.96884,9.08728-5.57956,12.84802
			c-6.82791,9.8356-14.11407,19.37302-21.63739,28.68985c-1.75983,2.17932-5.18448,3.0126-7.84314,4.46518
			c6.63397-11.10245,13.27072-22.20322,19.89615-33.31073c0.49399-0.82806,0.90686-1.70453,1.35745-2.55853
			c6.09766-1.80707,8.95276-6.50812,10.79623-12.11209C348.27374,347.73016,349.27716,348.38959,350.28058,349.04901z"/>
		<path class="st7" d="M141.71069,133.75642c-3.6837-0.51393-6.06453-2.4527-6.78265-6.21044
			c-0.34337-1.00327-0.68652-2.00607-1.02968-3.0089c-0.87627-0.82201-1.75252-1.64403-2.87204-2.69422
			c1.68506-0.13636,3.2135-0.26003,4.74203-0.38375c2.3226,1.07979,4.64505,2.15961,6.9673,3.23924
			c0.46378,0.82969,0.92778,1.65956,1.9744,3.53144c-0.26974-2.16572-0.40341-3.23893-0.62901-5.05027
			c3.93948,1.75008,7.52379,3.45445,11.20895,4.90162c0.93529,0.36729,2.22842-0.29148,3.29031-0.1026
			c1.14581,0.20381,2.42821,0.60748,3.26674,1.35541c1.41776,1.26454,2.53314,2.86856,3.77563,4.32983
			c0.08664,0.96643,0.17329,1.93283,0.25993,2.89926c-2.07085,0.64052-4.30278,2.12526-6.18289,1.76605
			C153.63368,137.17021,147.69714,135.33247,141.71069,133.75642z M160.66867,131.23894
			c-0.32416-0.1283-0.65237-0.25821-0.98059-0.38814c-0.07352,0.2343-0.27953,0.56187-0.19368,0.68401
			c0.19414,0.27618,0.53233,0.45094,0.81194,0.66695C160.40601,131.93694,160.50566,131.67209,160.66867,131.23894z"/>
		<path class="st8" d="M391.94672,197.47325c-2.19595,8.11009-4.18082,16.28484-6.63696,24.31525
			c-3.74908,12.25758-12.58688,19.70512-24.07364,24.43892c-1.97845,0.41675-3.95639,0.83371-5.93442,1.25082
			c-3.65936-2.05005-7.31863-4.10025-10.97867-6.14987c5.87256,1.22755,11.50327,1.37314,17.48349-0.58168
			c8.6351-2.82263,13.74548-8.68509,17.40527-16.4454C383.43417,215.34795,387.69983,206.41502,391.94672,197.47325z"/>
		<path class="st1" d="M415.8161,197.41989c-2.96735-3.19098-6.0148-6.31177-8.88403-9.58878
			c-4.77222-5.45041-9.43008-11.00107-14.17554-16.55569c9.57571-1.48123,21.64224,8.39224,22.32944,18.077
			c0.12241,1.72478,0.64587,3.42107,0.98413,5.13052C415.98544,195.46193,415.90076,196.4409,415.8161,197.41989z"/>
		<path class="st6" d="M131.11726,177.39175c1.12556,1.86748,3.01765,3.65475,3.22284,5.61856
			c0.4809,4.60204,0.15381,9.28862,0.15381,13.94098c-0.56648,0.24019-1.13293,0.48038-1.6994,0.72058
			c-1.66113-3.07057-3.32227-6.14113-4.98343-9.21181C128.91313,184.77055,130.0152,181.08116,131.11726,177.39175z"/>
		<path class="st2" d="M347.27032,347.07071c-1.84348,5.60397-4.69858,10.30502-10.79623,12.11209
			c0.54486-3.97888,1.08975-7.95776,1.63461-11.93671c0.73264-1.72821,1.4653-3.45639,2.19797-5.1846
			C342.62787,343.73126,344.9491,345.401,347.27032,347.07071z"/>
		<path class="st9" d="M344.32379,241.32782c3.65927,2.05017,7.31854,4.10037,10.97791,6.15042
			c-7.0105,2.29874-13.59055-1.55298-17.2049-10.07217c-0.27316-1.3428-0.54581-2.68439-0.8186-4.02582
			c-0.00012,0.00018-0.02466,0.02748-0.02466,0.02751c1.01996,0.97484,2.03992,1.94966,3.05991,2.92448
			C341.65024,237.99744,342.987,239.66263,344.32379,241.32782z"/>
		<path class="st7" d="M340.30667,342.06149c-0.73267,1.72821-1.46533,3.45639-2.19797,5.1846
			c-2.58911-2.97485-5.17825-5.94974-7.76794-8.92432C333.66235,339.56857,336.9845,340.81503,340.30667,342.06149z"/>
		<path class="st6" d="M133.89836,124.53709c0.34315,1.00282,0.68631,2.00563,1.02968,3.0089
			c-0.41739,1.66776-0.83499,3.33512-1.25214,5.00257c-0.31143,0.3174-0.62334,0.63469-0.93524,0.95198
			c0,0-0.04912,0.01668-0.04837,0.01724c-0.85342,0.07869-1.70761,0.1568-2.5618,0.23494
			C131.38646,130.68085,132.64241,127.60896,133.89836,124.53709z"/>
		<path class="st0" d="M130.13049,133.75272c0.85419-0.07814,1.70837-0.15625,2.5618-0.23494
			c0.576,1.78575,1.15276,3.57208,1.89862,5.88223c-1.05719,0.65511-2.34824,1.45512-3.63927,2.25508
			C130.67796,139.02092,130.40424,136.38683,130.13049,133.75272z"/>
		<path class="st3" d="M364.99585,273.27921c0.75378,0.02701,1.50754,0.05402,2.26132,0.08099
			c-1.3808,1.10538-2.7616,2.21078-4.14243,3.31616c-0.26941-0.29645-0.53885-0.5929-0.80829-0.88931
			C363.20294,274.95111,364.0994,274.11517,364.99585,273.27921z"/>
		<path class="st5" d="M366.73721,260.1546c-0.18002,0.59705-0.36008,1.19415-0.54007,1.79123
			c-0.37991-0.34155-0.75986-0.68311-1.13974-1.02466c0.3468-0.55011,0.69357-1.10022,1.04037-1.65036
			C366.31094,259.5654,366.52408,259.86002,366.73721,260.1546z"/>
		<path class="st1" d="M168.88144,321.05939c0.31352,0.5892,0.62706,1.17844,0.94061,1.76761
			c-0.37029,0.32208-0.74055,0.64413-1.11082,0.96619c-0.19002-0.59378-0.38007-1.18753-0.5701-1.78131
			C168.38791,321.6944,168.63466,321.37689,168.88144,321.05939z"/>
		<path class="st2" d="M400.11743,407.10654c0.22543-0.34607,0.45087-0.69211,0.6763-1.03815
			C400.5683,406.41443,400.34286,406.76047,400.11743,407.10654z"/>
		<path class="st8" d="M252.63039,296.18716c-0.83766-0.18155-1.67537-0.36313-2.51303-0.54468
			c-0.0036,0.29205-0.00722,0.58414-0.0108,0.87619c-1.31406-1.02145-2.6281-2.04291-4.11945-3.20221
			c0.20186,2.65253,0.36926,4.8522,0.44569,5.8566c-1.69345-1.68893-3.83153-3.82132-5.96968-5.9537
			c2.28136-3.1745,4.78499-6.21545,6.79021-9.55597c2.75829-4.595,3.18465-10.57907,8.22179-13.82016
			c4.86113-3.12787,9.72749-6.2482,14.62138-9.32434c11.25079-7.07193,17.83789-16.282,17.53696-30.53088
			c-0.29443-13.93855,5.44263-26.59767,17.23038-34.10117c19.10022-12.15826,15.74652-38.63118,3.57431-52.14992
			c-12.48016,9.74178-26.81729,7.07033-41.06497,5.20352c-0.25513,0.40253-0.51022,0.80505-0.76535,1.20758
			c3.2049,1.9691,6.40979,3.9382,9.91992,6.09483c-2.68912,0-5.31128,0-7.93341,0c-0.07544,0.34369-0.15088,0.68739-0.22632,1.03107
			c1.65695,0.56503,3.3139,1.13007,5.40884,1.84442c-0.67987,0.20822-1.0209,0.41719-1.34805,0.39726
			c-5.2012-0.31696-9.61703-0.61723-14.4794,3.70007c-4.28955,3.8087-11.39461,4.93784-17.4752,6.02634
			c-3.13356,0.56094-6.74361-1.5434-9.90375-3.19896c5.80066-0.61166,11.67662-0.83281,17.3828-1.93445
			c7.03766-1.3587,8.05487-4.87561,4.40469-9.59848c0.71118-0.35184,1.42177-0.70369,2.13234-1.05556
			c1.76381,0.40157,3.52763,0.80312,5.29146,1.20468c-7.4846-4.93242-14.3356-11.26924-24.15419-9.98622
			c-0.6019-0.32327-1.20377-0.64636-3.02798-1.62564c3.34892-0.631,5.49522-1.64214,7.38087-1.28304
			c7.20079,1.37137,14.3176,3.18394,21.46597,4.83147c0.37045,0.2459,0.73911,0.49478,1.12103,0.72121
			c0.0087,0.00517,0.16803-0.24413,0.25714-0.37473c-0.4426-0.13486-0.88522-0.2697-1.32782-0.40457
			c-2.62384-5.71234-8.41843-4.52229-12.99991-5.9108c-2.39772-0.72667-4.91164-1.06953-8.33601-1.7877
			c5.37968-1.64703,9.36548-2.86729,13.35123-4.08757c4.82762,0.43196,9.65871,0.82916,14.48195,1.30542
			c5.10367,0.50391,10.19995,1.08304,15.29944,1.6293c7.00644,0,14.01291,0,20.93036,0
			c-0.99054-6.23369-2.80725-12.16349-2.60315-18.0228c0.18219-5.23089,1.68692-10.89015,4.22672-15.45947
			c4.44513-7.99717,6.59317-16.38182,7.49094-25.28707c0.31259-3.10098,0.72327-6.19206,1.08929-9.28741
			c0.67972,3.00688,1.35934,6.01353,2.03912,9.02024c-0.6412,2.38942-1.28256,4.77877-1.92358,7.16866
			c-1.07043,6.91449-2.4335,13.79955-3.11966,20.7515c-0.55118,5.58434,2.28229,10.30348,6.28186,13.8055
			c8.42581,7.3776,11.02899,16.79639,11.70761,27.5206c0.66919,10.57529,2.4519,21.07753,3.63342,31.62444
			c0.33032,2.94885,0.2623,5.94235,0.37689,8.91533c-1.05219,3.75005-2.10431,7.50014-3.1564,11.25026
			c0.379,0.20631,0.758,0.41263,1.13702,0.61897c3.29044-3.59108,6.5809-7.18213,9.87134-10.77319
			c3.96548-4.02034,2.99152-9.03871,2.80457-13.89807c-0.58356-2.05513-1.16714-4.11026-1.75067-6.16539
			c0.05746-0.93561,0.11496-1.87122,0.25854-4.20789c2.35687,2.64432,3.99026,4.47693,5.62384,6.30954
			c0.91125,3.37894,1.8223,6.75781,2.76065,10.23801c0.80801-0.48329,1.76254-1.05423,2.71704-1.62517
			c-0.46756,1.85117-1.22678,3.68831-1.31644,5.55762c-0.0813,1.69492,0.56696,3.42485,0.89355,5.13936
			c1.76761-0.46831,3.65012-0.69826,5.26752-1.47841c1.35663-0.65437,2.40402-1.95061,3.58832-2.96266
			c-1.61008,3.7144-3.22018,7.42883-4.83026,11.14323c-1.73077,2.32559-3.46158,4.65118-5.19235,6.97678
			c-0.59644,0.32103-1.19293,0.64209-1.78937,0.96312c-1.15213-2.95844-2.30429-5.91687-3.99734-10.26427
			c-2.85114,5.5898-5.91574,9.57173-6.90475,14.01613c-1.45264,6.52831-1.4223,13.38707-2.02374,20.10503
			c-1.22659,1.4099-2.45325,2.81984-3.64349,4.18794c-0.84967-7.26898-1.66687-14.26068-2.46832-21.11728
			c-3.69144,10.61865-7.09781,21.28291-11.12677,31.70625c-2.73685,7.08051-5.59668,14.62016-12.3598,18.82298
			C289.56009,274.30499,271.03607,285.1507,252.63039,296.18716z"/>
		<path class="st6" d="M247.54785,74.29004c-7.04083,13.74298-16.515,21.92503-31.10916,23.43571
			c-5.55075,0.57457-11.04305,1.86532-16.5033,3.09137c-2.23883,0.50272-4.32251,1.6974-6.47675,2.57731
			c0.1008,0.6112,0.20161,1.2224,0.30243,1.83362c2.44081,0.14207,4.88867,0.47449,7.32085,0.38411
			c4.25206-0.15801,7.59171,1.13961,9.10117,5.3521c1.48228,4.13663-0.77119,7.53002-3.76151,9.44462
			c-3.4912,2.23528-7.70096,3.59898-11.77988,4.6097c-8.13692,2.01624-16.32701,2.16135-24.15927-1.50893
			c-6.56302-3.07552-9.26282-9.1808-6.08537-15.59215c1.02646-2.07118,4.4769-3.27376,7.06354-4.14606
			c2.80061-0.94447,5.88747-1.03905,8.67821-2.10959c-2.52863,0-5.05806,0.04185-7.58571-0.00811
			c-6.7131-0.13271-9.73056-3.7914-7.11208-10.01632c2.46509-5.86027,5.98454-11.355,9.57442-16.64768
			c9.32652-13.75046,22.40555-11.50951,35.59442-7.6944c5.39145,1.55959,10.78137,3.32233,15.88631,5.62642
			C233.0421,75.87626,239.5489,77.19645,247.54785,74.29004z"/>
		<path class="st6" d="M234.24699,197.4727c0.43611,3.49086,0.86571,6.19443,1.08559,8.91495
			c0.18677,2.3101,1.05609,5.23875,0.01328,6.85066c-3.38512,5.23238-4.6777,10.76198-5.57796,16.85225
			c-0.55824,3.77695-4.73935,1.57129-7.09328,0.63156c-2.24631-0.89682-4.14247-2.67177-6.52518-4.28603
			c1.82393-12.2012,0.14139-24.32622-2.44621-36.40018c-0.78062-3.64244,0.61935-6.62332,4.55052-6.76039
			c5.35963-0.1869,10.92148-0.3627,16.08604,0.8176c11.68079,2.66949,22.49321,1.35866,32.97691-4.38593
			c2.99429-1.64073,6.40704-2.88631,9.76392-3.37216c2.46008-0.35606,6.66058,0.06831,7.37198,1.49738
			c1.08426,2.17802,0.82678,6.33475-0.66946,8.19365c-2.47803,3.07855-6.07462,6.00488-9.77625,7.18416
			c-6.67511,2.12651-13.72736,3.3521-20.71373,4.12805C247.41035,197.9917,241.39749,197.4727,234.24699,197.4727z"/>
		<path class="st7" d="M208.44148,234.34344c0.35689-0.54187,0.72002-1.07974,1.06847-1.62697
			c0.23077-0.36247,0.44052-0.73833,1.22771-2.06659c0.52686,2.92223,0.88414,4.90396,1.24142,6.88567
			c0.2998,0.12192,0.59961,0.24384,0.8994,0.36575c0.58853-1.97942,1.17705-3.9588,1.72073-5.78743
			c0.46858,0.71008,1.30672,1.98015,2.14488,3.25021c0,1.14465,0,2.28932,0,3.43401c0.22673,0.01994,0.45346,0.0399,0.68021,0.05981
			c0.32942-1.16454,0.65886-2.3291,0.98828-3.49364c0.10719-0.80118,0.21437-1.60236,0.40981-3.06306
			c2.08452,1.87709,3.88182,3.49559,5.67921,5.11415c0.45818,1.17766,0.91629,2.35524,1.89005,4.85834
			c0-2.66599,0-3.78979,0-4.91362c-0.2368-0.75528-0.4736-1.51056-1.05724-3.3721c3.87558,2.46497,6.99603,4.44966,10.11653,6.43437
			c0.36781,0.26483,0.73563,0.5296,1.10339,0.79439c0.23352,0.17561,0.49635,0.26474,0.78854,0.26736
			c1.72076,1.97539,3.44139,3.95076,5.16205,5.92616c0.06918,0.31213,0.14745,0.62196,0.23477,0.92973
			c0.2543,0.35565,0.50858,0.71115,0.76288,1.06665c0.069,0.31207,0.14717,0.62181,0.2345,0.92941
			c0.2543,0.35564,0.50858,0.71114,0.76288,1.06664c0.06548,0.30327,0.14366,0.60321,0.23459,0.90002
			c-0.18214,1.20102-0.36427,2.40186-0.56197,3.7054c-4.94008-1.85783-9.58475-3.70564-14.31184-5.31013
			c-1.15729-0.39278-2.76929-0.39053-3.85849,0.11156c-8.8383,4.0741-18.1403,2.24852-27.28853,2.36093
			c0.59486-0.29933,1.18976-0.59869,1.78462-0.89801c6.0535-0.32838,12.10703-0.65677,18.16052-0.98517
			c1.09851-0.39226,2.19704-0.78452,3.29553-1.17674c-0.06346-0.26407-0.12694-0.52811-0.1904-0.79216
			c-2.07132,0-4.14268,0-6.21405,0l0.09433,0.06252c-0.77266-0.95148-1.54532-1.90297-2.55838-3.15047
			c-0.29626,0.95905-0.47159,1.52658-0.64693,2.09412c-1.32922-0.3385-2.65843-0.67697-3.98766-1.01547
			c-0.66916-1.2522-1.33829-2.50438-2.00745-3.75658c-0.31879,0.18089-0.63759,0.36177-0.95638,0.54266
			c0.6864,1.11977,1.37283,2.23952,2.05925,3.35931c-2.96605-1.02647-5.93207-2.05295-8.89812-3.07941
			c-0.44585-1.23471-0.89169-2.46945-1.33755-3.70416c-0.20901,0.05565-0.41805,0.1113-0.62708,0.16693
			c0.05235,1.12126,0.10471,2.24254,0.15706,3.3638c-0.75453,0.05626-1.50908,0.1125-2.26361,0.16879
			c-0.77582-1.86719-1.55164-3.73438-2.70213-6.5033c-0.57254,3.16685-0.96645,5.34558-1.36037,7.52432
			c-0.29724-0.06755-0.59332-0.06262-0.8882,0.01477c-0.94624-2.06427-1.89249-4.12856-2.96999-6.47919
			c-0.33282,1.74286-0.68188,3.57079-1.03094,5.39871c-1.03819-1.30299-2.07637-2.60602-3.11456-3.90901
			c0.53796-10.60983,1.11325-11.48868,9.11076-13.91853c-0.67024,1.26711-1.34048,2.53421-1.90471,3.60088
			c3.34843-0.24019,6.61903-0.47473,9.88969-0.70938c-1.18347,0.43526-2.36705,0.87056-3.55061,1.30589
			c0.12473,0.30104,0.24948,0.60208,0.37421,0.90311c1.07475-0.45021,2.14949-0.90041,3.22424-1.35062
			c1.47189-0.26091,2.94377-0.5218,5.71242-1.01256c-1.5705,1.18652-2.20419,1.66528-2.83792,2.1441
			c-0.90843,0.83209-1.81685,1.66415-2.72525,2.49622c0.17905,0.27994,0.35808,0.55984,0.53711,0.83977
			c1.46054-0.74608,2.92111-1.49219,4.38165-2.23827c0.47792-0.52576,0.95589-1.05148,1.79417-1.97362
			c0,1.21596,0,2.04494-0.00005,2.87399c-0.34142,1.13666-0.68275,2.27327-1.02411,3.40985
			c0.30386,0.13358,0.60771,0.26714,0.91159,0.4007C207.08347,236.23999,207.76248,235.29173,208.44148,234.34344z"/>
		<path class="st7" d="M283.29346,137.68639c-5.09949-0.54626-10.19577-1.1254-15.29944-1.6293
			c-4.82324-0.47626-9.65433-0.87346-14.48189-1.30563c-14.49875-1.23895-28.71606-0.55876-42.32051,5.45802
			c-3.23824,1.43213-5.79649-0.0061-6.73329-3.64693c0.00044-1.33871,0.00087-2.67744,0.00131-4.01616
			c3.23697-5.65965,9.37357-5.16223,14.4948-6.81512c0.02309-0.00745,0.20509,0.26003,0.18359,0.37484
			c-0.05548,0.2961-0.18362,0.57857-0.28236,0.86658c-0.3188,0.44849-0.63799,0.89687-0.95717,1.34522
			c0.58226-0.20862,1.16455-0.41723,1.74684-0.62586c6.63403-1.35806,13.21249-3.38137,19.91315-3.9424
			C255.9231,122.37955,270.16357,128.47568,283.29346,137.68639z"/>
		<path class="st10" d="M204.45964,132.54639c-0.00044,1.33871-0.00087,2.67744-0.00113,4.01613
			c-0.58533,0.74911-1.56013,1.43449-1.69472,2.25748c-1.06638,6.52083,7.73392,14.67979,14.26889,13.52196
			c1.79099-0.31734,3.71783,0.13318,5.58235,0.23135c-0.54791,1.2565-1.09584,2.513-1.64378,3.76949
			c0.29013,0.15041,0.58026,0.30081,0.87039,0.4512c1.17503-1.05862,2.35011-2.11726,3.52515-3.1759
			c0.10094,1.31229,0.20186,2.62456,0.30276,3.93684c-2.3985,0.48451-4.79698,0.96902-7.63512,1.54233
			c0.29099-1.66803,0.59634-3.4185,0.93181-5.34157c-5.81094,2.46025-11.37547,4.81616-18.32626,7.759
			c-0.51581,3.87492-1.43909,9.51256-1.97289,15.18687c-0.53223,5.65733-0.67395,11.35146-0.98613,17.01599
			c-2.13231,0.11864-4.78326,0.2661-7.82095,0.4351c-2.57243-13.25786-1.78506-26.16615,5.86821-38.86847
			c2.90488-4.82135,5.11195-12.12779-0.0504-18.34024c-1.39882-1.68333-1.65706-4.31569-1.90829-7.04723
			C196.61987,134.96558,200.90063,132.2101,204.45964,132.54639z"/>
		<path class="st11" d="M198.71371,253.17047c9.14822-0.11241,18.45023,1.71317,27.28853-2.36093
			c1.0892-0.50209,2.7012-0.50433,3.85849-0.11156c4.7271,1.60449,9.37177,3.4523,14.31184,5.31013
			c0.19769-1.30354,0.37982-2.50438,0.56197-3.7054c1.22675,1.39311,2.45354,2.78638,3.68028,4.17967
			c-0.14616,0.61163-0.29231,1.22324-0.43848,1.83484c-3.0289,0-6.0847,0.26044-9.08148-0.05005
			c-8.16782-0.84641-16.29173-2.30688-24.47369-2.72217c-2.83629-0.14394-5.77863,2.1037-8.6967,3.19418
			c-3.36238,1.25656-6.75151,2.44159-10.12892,3.6579c-0.30605-0.1655-0.62041-0.18292-0.94298-0.05219
			c-1.67825,0.00595-3.35648,0.0119-5.03473,0.01788c-0.49376-0.5246-0.9875-1.04916-1.47879-1.57114
			c-0.75864,1.18564-1.52669,2.38596-2.2948,3.58633c-1.3264,0.31628-2.65268,0.63251-3.97897,0.94873
			c-0.16724-0.85831-0.33447-1.71655-0.53087-2.72437c-1.00948,0.69614-1.78357,1.22992-2.55766,1.7637
			c-2.15257-0.01315-4.31274,0.08505-6.45625-0.06122c-5.44257-0.37137-9.05482-3.67953-9.63226-8.67409
			c1.51183-0.42787,3.02382-0.85564,4.53581-1.28342c0.4839-0.15308,0.96779-0.30612,1.45169-0.45914
			c7.29482-0.54291,14.58965-1.0858,21.88448-1.62871C193.27805,252.56316,195.99586,252.86681,198.71371,253.17047z"/>
		<path class="st7" d="M185.84431,264.37793c0.76805-1.20032,1.5361-2.40063,2.29474-3.58627
			c0.49129,0.52197,0.98503,1.04654,1.47868,1.57101c-0.00011,3.45895-0.00011,6.918-0.00011,10.37704
			c0.58434,0.14191,1.16869,0.28378,1.75302,0.42569c1.09398-3.60684,2.18796-7.21365,3.28194-10.8205
			c0.32256-0.13074,0.63692-0.11331,0.94296,0.05219c0.94305,3.35938,1.88618,6.71893,3.06885,10.93173
			c0.95-3.75137,1.79707-7.09631,2.84549-11.2363c4.79684,9.0864-1.66135,14.68921-5.26363,20.96027
			c-0.29994-0.33926-0.59988-0.6785-0.89986-1.01776c0.08363-0.75977,0.16725-1.51953,0.25548-2.32126
			c-2.4386,2.03061-4.66504,3.88458-6.8916,5.73859c-2.12598,0.63351-4.2518,1.26703-7.49098,2.23227
			c2.22841-2.53329,3.67921-4.18259,5.13-5.83185c-0.30745-0.40359-0.6149-0.80716-0.92233-1.21075
			c-3.05511,2.28488-6.1102,4.56973-9.89742,7.40216c0-3.80484,0-7.28214,0.00003-10.75952
			c-0.40337-0.35684-0.80676-0.71362-1.21014-1.07043c-1.42383,2.58234-2.84764,5.16473-5.0211,9.10675
			c0-3.85489,0-6.26483,0-9.71463c-1.36046,2.58386-2.3006,4.36938-3.29604,6.26001
			c-1.61099-7.14154-0.54436-9.21085,5.70271-12.58957c2.50856-1.35675,4.72327-3.25757,7.07173-4.91074
			c0.77409-0.53378,1.54819-1.06757,2.55766-1.7637c0.1964,1.00781,0.36363,1.86606,0.53081,2.72467
			c-0.42427,1.97659-0.84845,3.95285-1.27263,5.92911c-0.33742,0.84427-0.67482,1.68854-1.01225,2.53278
			c0.20599,0.08521,0.412,0.17035,0.61798,0.25555c0.37225-0.66696,0.74449-1.33392,1.11671-2.00089
			C182.82478,269.48837,184.33455,266.93317,185.84431,264.37793z"/>
		<path class="st12" d="M141.71069,133.75642c5.98645,1.57605,11.92299,3.41379,17.98903,4.57268
			c1.88011,0.35921,4.11205-1.12553,6.18274-1.76604c3.49747,2.72191,6.99509,5.4438,10.49271,8.16568
			c0.4821,3.75453,0.54999,7.2189-4.48137,7.94914c-0.5508,0.07994-0.93581,1.3035-1.39844,1.99512
			c-0.92894-0.85361-1.85715-1.70572-2.78534-2.55783c-1.02516-0.83035-2.05032-1.66074-3.07547-2.49109l0.05428,0.11269
			c-0.1291-0.58249-0.06635-1.49355-0.41618-1.69809c-5.06731-2.96306-10.55492-3.58417-15.97743-1.57895
			c-4.68709,1.73328-6.3452,7.95604-3.47343,11.25479c-4.05177,1.0127-8.25571-3.11855-6.40585-6.83989
			c1.40446-2.82533,4.16896-5.13629,6.73431-7.161c1.57205-1.24077,3.91054-1.5092,6.03217-2.25928
			C147.8629,138.75648,144.7868,136.25645,141.71069,133.75642z"/>
		<path class="st7" d="M172.7283,240.55c-0.60071,0.11703-1.20146,0.23409-1.84027,0.35854
			c0.26874-1.43999,0.52107-2.79193,0.77338-4.14386c-0.27968-0.14053-0.55934-0.28107-0.83902-0.4216
			c-1.61496,2.33044-3.22992,4.66089-4.81296,6.94525c-0.15443-0.62846-0.39449-1.60529-0.70718-2.87776
			c-1.07909,1.92899-2.00623,3.58635-3.34079,5.97197c-0.15614-2.33681-0.26276-3.93234-0.44835-6.70966
			c-1.46101,3.23293-2.44626,5.41306-3.6772,8.13686c-0.63141-1.40685-1.12355-2.50337-1.79932-4.009
			c-0.7039,1.92932-1.29543,3.55063-2.08569,5.71663c-0.17969-1.80273-0.30676-3.07768-0.4904-4.91995
			c-2.09633,4.29314-3.98911,8.16934-5.88187,12.04559c-0.39615-0.18979-0.79231-0.37955-1.18845-0.56927
			c0.10431-1.0199,0.2086-2.03979,0.31291-3.05966c-0.30325-0.11128-0.60651-0.22258-0.90976-0.33386
			c-0.8882,2.03519-1.77641,4.0704-3.33652,7.64514c-0.36037-3.90115-0.59645-6.45683-0.83257-9.01241
			c5.32436-6.08705,10.25261-12.59915,16.13399-18.08871c3.11484-2.90733,7.88654-4.0372,11.91014-5.96945
			c3.36479,0.06715,5.09572,1.78279,5.18939,5.1503C174.14793,235.12004,173.43813,237.83501,172.7283,240.55z"/>
		<path class="st8" d="M208.71169,206.35785c3.40578,2.88301,3.89665,6.25607,1.69408,10.08208
			c-3.6042-0.66525-7.20961-1.33038-10.81503-1.99551c-7.33571-4.59357-14.19087-4.27957-20.4613,2.00612
			c-6.15913-0.33527-12.31828-0.67052-18.47743-1.00577c-0.93596-0.36507-1.87195-0.73012-2.80823-1.09503
			c-1.05251-2.2971-2.10469-4.59438-3.15689-6.89163c1.14363,0.55475,2.28941,1.10513,3.43056,1.66496
			c5.79314,2.84209,11.45462,4.5498,17.75087,0.82449c7.1783-4.24719,14.2059,0.11618,21.26141,1.24608
			c1.7739,0.28406,3.48802,1.05717,5.26244,1.20143c5.61942,0.45685,6.12201-0.09605,6.16435-5.9053L208.71169,206.35785z"/>
		<path class="st12" d="M199.59073,214.44441c3.60542,0.66513,7.21083,1.33026,10.81503,1.99551
			c-2.46552,5.39891-7.53362,6.27208-12.3898,2.43871c-0.93315-0.73663-2.82579-0.2562-4.27606-0.3376
			c-2.29767,1.06691-4.93121,1.72214-6.83241,3.2751c-7.02649,5.73955-6.92032,5.82663-14.27783,1.23154
			c-0.7841-0.48969-1.87589-0.48607-2.82495-0.71129c-3.0507-2.29724-6.10141-4.59448-9.15242-6.89168
			c6.15886,0.33531,12.31801,0.67056,18.4781,1.0058c1.85294,0.00479,3.70729-0.04929,5.55638,0.026
			c4.74272,0.1931,9.48254,0.47885,14.22629,0.55533C199.125,217.03523,199.36421,215.3455,199.59073,214.44441z"/>
		<path class="st6" d="M172.67827,173.91373c0,3.35313,0.07999,5.26413-0.01503,7.16635
			c-0.28334,5.67282-0.40636,11.36998-1.08804,16.9975c-0.23019,1.90045-1.55463,4.21088-3.10431,5.23488
			c-1.21364,0.80196-4.30972,0.59476-5.19865-0.39581c-1.26593-1.41064-2.20276-4.2453-1.65759-5.95294
			c1.99519-6.2494,4.57779-12.31985,7.14085-18.37221C169.33722,177.21782,170.72878,176.18755,172.67827,173.91373z"/>
		<path class="st1" d="M144.82178,157.71452c-2.87177-3.29875-1.21365-9.52151,3.47343-11.25479
			c5.42252-2.00522,10.91013-1.38411,15.97743,1.57895c0.34984,0.20454,0.28708,1.1156,0.41624,1.69792
			c-0.88789-0.16331-1.77588-0.32645-1.70427-0.31329c-0.8979,3.12541-1.76624,6.1479-2.63458,9.17039
			c-2.51697,0.36943-5.03392,0.73888-7.55099,1.10834c-0.34172-0.0732-0.68332-0.14642-1.02492-0.21841
			c-0.33328-0.3376-0.6666-0.67641-0.99988-1.01521c0,0,0.05614,0.04774,0.05618,0.04784
			c-0.62859-0.6947-1.2572-1.3895-1.88583-2.0843c-0.11041-1.78864-0.22083-3.57727-0.42146-6.82773
			c-1.14514,3.16797-1.82303,5.04333-2.50093,6.91866C145.62206,156.92009,145.22191,157.31729,144.82178,157.71452z
			 M156.09958,148.69644c-0.51389,0.96045-1.24974,1.71576-1.16019,2.35532c0.07825,0.55878,1.14999,1.43669,1.6666,1.36255
			c0.68658-0.09851,1.26039-0.9841,1.88264-1.53154C157.93665,150.37761,157.38466,149.87247,156.09958,148.69644z"/>
		<path class="st13" d="M235.62761,144.67322c9.81853-1.2832,16.66953,5.05362,24.15413,9.98604
			c-1.76382-0.40157-3.52765-0.80312-5.29128-1.20392c-4.03784-2.19456-8.07581-4.38991-13.08311-7.11227
			c0.64638,3.20789,0.9545,4.73694,1.26259,6.26599c-1.05975,1.61626-2.11949,3.23253-3.1792,4.8488
			c-2.30028,0.33209-4.60054,0.66418-6.90048,0.99696c-1.81657-2.61661-3.63351-5.23387-5.45042-7.85115
			C227.75298,145.45096,232.83557,146.70338,235.62761,144.67322z M235.47012,148.01956
			c-0.82217,0.94199-1.30553,1.49577-1.78883,2.04958c0.63017,0.47668,1.21111,1.08565,1.92029,1.35007
			c0.21501,0.08015,1.14433-0.82411,1.10936-1.22136C236.65579,149.57076,236.06238,148.9911,235.47012,148.01956z"/>
		<path class="st6" d="M154.68687,207.4581c1.0522,2.29726,2.10439,4.59453,3.15689,6.89163
			c-2.72888,2.54973-5.45808,5.09961-8.31898,7.77252c-4.11168-2.1909-4.95984-5.48886-2.37062-9.29494
			c1.81335-2.66562,4.28528-4.88263,6.4635-7.30016c0.37126,0.65703,0.74211,1.31422,1.11298,1.97142L154.68687,207.4581z"/>
		<path class="st14" d="M172.7283,240.54997c0.70982-2.71497,1.41963-5.42993,2.12944-8.1449
			c4.26727-2.3295,8.53459-4.65898,12.8019-6.98846c1.32076,0.36049,2.64153,0.72101,3.96233,1.08156
			c-7.99747,2.4299-8.57275,3.30875-9.11072,13.91861c-3.29405,0.96648-6.5881,1.93291-9.88216,2.89935
			C172.66217,242.39406,172.69525,241.472,172.7283,240.54997z"/>
		<path class="st6" d="M185.78835,142.55287c4.38319,0.04584,6.7588,1.57561,6.77496,5.24931
			c0.01668,3.78796-2.28523,5.63409-6.00464,5.75006c-3.85286,0.12012-5.5038-2.57576-5.69632-5.62564
			C180.63799,144.37271,183.36722,142.8918,185.78835,142.55287z"/>
		<path class="st8" d="M187.65964,225.41661c-4.2673,2.32948-8.53462,4.65897-12.8019,6.98846
			c-0.09364-3.36751-1.82457-5.08315-5.18935-5.1503c0.04503-1.63905,0.08998-3.27808,0.13562-4.91776
			c0.94975,0.22458,2.04153,0.22096,2.82564,0.71065c7.35751,4.59509,7.25134,4.50801,14.27783-1.23154
			c1.9012-1.55296,4.53474-2.20819,6.83241-3.2751C191.71333,220.83315,189.68648,223.12486,187.65964,225.41661z"/>
		<path class="st8" d="M240.4566,293.22617c1.09645,6.87589,1.09645,6.87589-1.27167,10.2103
			c-0.4418-1.55829-0.79405-2.80072-1.17979-4.16122c-2.30939,2.41138-4.42801,4.6236-6.54665,6.83578
			c-0.4751-0.30823-0.9502-0.61646-1.42526-0.92468c-0.44835-2.31659-0.8967-4.63315-1.34499-6.94943
			c2.32603-1.00482,4.64876-2.01752,6.97914-3.01236C237.25827,294.54544,238.85983,293.89142,240.4566,293.22617z"/>
		<path class="st6" d="M213.57886,281.30579c2.45135,0.10471,4.18027,1.71335,3.9454,4.99469
			c-0.22237,3.10696-2.02882,4.99603-5.13995,4.86563c-3.11858-0.13071-4.72395-2.20764-4.73756-5.28949
			C207.63182,282.49771,209.67412,281.23892,213.57886,281.30579z"/>
		<path class="st8" d="M176.37517,144.72874c-3.49762-2.72188-6.99524-5.44377-10.49271-8.16568
			c-0.08649-0.96645-0.17314-1.93285-0.25978-2.89928C174.65027,133.97881,177.17529,136.57721,176.37517,144.72874z"/>
		<path class="st15" d="M160.35004,158.5937c0.86835-3.02249,1.73668-6.04498,2.63458-9.17039
			c-0.07161-0.01315,0.81638,0.14998,1.70427,0.31329c-0.00006,0.00017-0.05434-0.11252-0.05434-0.11255
			c1.02515,0.83037,2.05029,1.66075,3.07547,2.49112c0.92819,0.85211,1.8564,1.70422,2.78535,2.55785
			c0.00073,0.00151,0.14813-0.04518,0.14767-0.04556c-0.08836,0.27771-0.10146,0.55928-0.03973,0.84433
			C167.18555,156.51242,163.76779,157.55307,160.35004,158.5937z"/>
		<path class="st16" d="M242.66994,152.60905c-0.30809-1.52905-0.61621-3.05811-1.26259-6.26599
			c5.00731,2.72237,9.04527,4.91771,13.08311,7.11227c-0.71075,0.3511-1.42134,0.70296-2.13252,1.05479
			c-0.9576,0.03036-1.91461,0.06073-2.8716,0.09064C247.21425,153.93657,244.94209,153.27281,242.66994,152.60905z"/>
		<path class="st4" d="M225.61913,300.27551c-0.34224,1.07309-0.46716,2.29547-1.0771,3.18469
			c-0.93744,1.36667-2.20808,2.50452-3.33734,3.73947c-0.88107-1.18823-1.79471-2.35403-2.63342-3.57147
			c-0.72897-1.0582-1.37329-2.17487-2.05466-3.26547C219.55104,300.3338,222.58508,300.30466,225.61913,300.27551z"/>
		<path class="st15" d="M242.66994,152.60905c2.27216,0.66376,4.54431,1.32751,6.81641,1.99171
			c-3.33211,0.95311-6.66417,1.90581-9.99591,2.85779C240.55045,155.84158,241.61018,154.22531,242.66994,152.60905z"/>
		<path class="st17" d="M227.13983,150.60367c1.81691,2.61728,3.63385,5.23454,5.45042,7.85115
			c-2.30716-0.30035-4.61397-0.60004-6.92076-0.8998c-0.10085-1.31238-0.20177-2.62465-0.302-3.93791
			c0.57977-1.01669,1.15878-2.03241,1.73782-3.04813L227.13983,150.60367z"/>
		<path class="st11" d="M242.50493,247.41026c-1.72066-1.9754-3.44128-3.95078-5.16205-5.92616
			C241.73505,241.1293,242.23483,244.1696,242.50493,247.41026z"/>
		<path class="st14" d="M204.72284,232.47736c-1.46054,0.74608-2.92111,1.49219-4.38165,2.23827
			c-0.17903-0.27992-0.35806-0.55983-0.53711-0.83977c0.9084-0.83206,1.81682-1.66412,2.72525-2.49619
			C203.26053,231.74551,203.99168,232.11143,204.72284,232.47736z"/>
		<path class="st14" d="M208.44147,234.34344c-0.67899,0.94829-1.358,1.89655-2.03702,2.84483
			c-0.30388-0.13356-0.60773-0.26712-0.91159-0.4007c0.34135-1.13658,0.68269-2.27319,1.02411-3.40985
			C207.15851,233.6996,207.79999,234.0215,208.44147,234.34344z"/>
		<path class="st8" d="M212.98083,303.8501c-0.81952-1.18231-1.63904-2.36465-2.45871-3.54712
			c0.70641-0.02148,1.41298-0.04285,2.1194-0.06458c0.34338,0.98489,0.6869,1.97006,1.03044,2.95526
			C213.41327,303.38263,213.18289,303.60144,212.98083,303.8501z"/>
		<path class="st14" d="M218.41258,235.36427c-0.32942,1.16454-0.65886,2.3291-0.98828,3.49364
			c-0.22675-0.01991-0.45348-0.03987-0.68021-0.05981c0-1.14468,0-2.28935,0-3.43401
			C217.30026,235.36415,217.85643,235.36421,218.41258,235.36427z"/>
		<path class="st14" d="M226.39165,237.36008c0,1.12383,0,2.24763,0,4.91362c-0.97375-2.5031-1.43187-3.68068-1.89005-4.85834
			C225.13158,237.39691,225.76163,237.37848,226.39165,237.36008z"/>
		<path class="st11" d="M199.65483,230.24809c-1.07475,0.45021-2.14949,0.90041-3.22424,1.35062
			c-0.12473-0.30103-0.24948-0.60207-0.37421-0.90311c1.18356-0.43533,2.36714-0.87064,3.55061-1.30588
			C199.64278,229.67476,199.65874,229.96085,199.65483,230.24809z"/>
		<path class="st8" d="M154.73064,207.49858c-0.37086-0.6572-0.74171-1.31439-1.11298-1.97142
			c0.11008-0.75345,0.22057-1.50706,0.33105-2.26068c0.26064,0.03639,0.52129,0.07278,0.78192,0.10918
			C154.73064,204.74997,154.73064,206.12427,154.73064,207.49858z"/>
		<path class="st7" d="M196.24626,283.0528c-0.36992,0.45325-0.73981,0.90649-1.92371,2.35712
			c0.58006-1.91177,0.802-2.64328,1.02391-3.37482C195.64638,282.3743,195.94632,282.71353,196.24626,283.0528z"/>
		<path class="st8" d="M208.5565,206.48978c-0.27394-0.37312-0.54788-0.74625-0.82181-1.11934
			c0.19318-0.09827,0.38635-0.19655,0.57953-0.29482c0.13068,0.42891,0.26134,0.85782,0.39473,1.28445
			C208.71169,206.35785,208.5565,206.48976,208.5565,206.48978z"/>
		<path class="st1" d="M170.60332,155.4718c-0.06172-0.28506-0.04863-0.56664,0.03973-0.84435
			c0.36798-0.11226,0.73875-0.31296,1.10164-0.29955c0.17526,0.00647,0.33565,0.41554,0.50276,0.64235
			C171.69942,155.13744,171.15135,155.30461,170.60332,155.4718z"/>
		<path class="st11" d="M244.49995,251.40269c-0.2543-0.3555-0.50858-0.711-0.76288-1.06664
			C243.99138,250.69148,244.24565,251.04707,244.49995,251.40269z"/>
		<path class="st11" d="M243.50258,249.40665c-0.2543-0.3555-0.50858-0.711-0.76288-1.06665
			C242.994,248.69543,243.24831,249.05103,243.50258,249.40665z"/>
		<path class="st11" d="M236.55434,241.21674c-0.36777-0.26479-0.73558-0.52956-1.10339-0.79439
			C235.81873,240.68712,236.18654,240.95192,236.55434,241.21674z"/>
		<path class="st7" d="M203.66614,410.9119c0.26669,0.36676,0.5334,0.73349,0.80009,1.10028
			C204.19952,411.64542,203.93283,411.27866,203.66614,410.9119z"/>
		<path class="st8" d="M207.54701,327.27332c2.0058,0.35242,4.01161,0.70483,6.01736,1.0571
			c4.67392,5.16306,9.34787,10.32635,14.88162,16.43951c4.40741-7.75162,8.66486-15.23944,12.9223-22.72729
			c3.62758-5.34836,9.49139-6.74634,15.11546-8.56784c4.77615-1.31223,9.80237-2.08072,14.24167-4.12534
			c3.026-1.39365,5.23141-4.57138,7.80371-6.95139c5.96146-4.99844,11.33505-10.45035,13.91354-18.05859
			c0.07867-0.38498,0.15732-0.76999,0.23593-1.15497c0.34592-0.91473,0.69186-1.82947,1.03781-2.74414
			c0.76981-0.79477,1.44928-1.711,2.32513-2.36313c3.67438-2.73572,7.24261-5.69882,11.24008-7.8533
			c0.95029-0.51212,3.40991,1.77997,5.07672,2.72626c0.91144-0.96512,1.76776-1.87192,2.62408-2.77872
			c0.77783,8.71033,1.78214,17.40887,2.23618,26.13605c0.22098,4.24692-0.01782,8.68875-1.03839,12.79605
			c-2.67371,10.76059-0.04904,20.28296,6.98804,28.18478c7.99463,8.97711,6.6604,18.00961,2.07959,27.52939
			c-4.48373,9.3179-10.8248,16.47769-21.71899,18.33981c-7.42456,1.26907-12.53799,6.50281-16.42227,12.13141
			c-5.10489,7.39749-8.84567,15.73764-12.99692,23.3494c-3.18393-3.48633-4.00684-10.13092-0.92981-14.7041
			c2.57816-3.83167,5.55054-7.40262,8.03528-11.2894c0.7356-1.1506,0.90781-3.2001,0.37521-4.41501
			c-0.30185-0.68854-2.63721-0.9223-3.92056-0.66934c-7.00848,1.38129-13.07059,3.92172-16.7049,10.97302
			c-2.88757,5.60257-13.46925,6.41983-20.16292,2.3678c-6.66454-4.03445-10.26648-10.57565-14.31895-16.83798
			c-3.47813-5.37479-7.39107-10.46884-11.13799-15.66815c-3.71892-5.16049-4.49252-11.09045-3.4725-17.03217
			c1.12361-6.54517,1.14192-12.80777-1.32954-19.0032c0.78165-0.11536,1.56319-0.23077,2.82182-0.4166
			c-2.20821-1.02838-4.00116-1.86337-5.79378-2.69821C207.56323,328.58789,207.55511,327.9306,207.54701,327.27332z
			 M280.98236,308.75128c5.67355,2.83655,16.92218,1.0481,21.47897-3.04306c4.70688-4.22589,5.44006-14.61447,1.4725-21.88138
			C296.36951,292.04144,288.68649,300.38492,280.98236,308.75128z M255.47444,354.71567
			c-11.13718-0.70572-21.3172-1.35077-31.82079-2.01633c0.70258,2.20441,1.19701,4.10565,1.90973,5.92102
			c1.61763,4.12015,6.49092,7.15891,10.58852,6.40991C243.4326,363.69943,249.33907,359.74484,255.47444,354.71567z
			 M306.35803,335.03296c-0.05011-4.44034-3.50528-7.93088-7.72293-7.80197c-4.82452,0.14746-8.31146,3.57599-8.24387,8.10574
			c0.07016,4.70255,3.37173,7.81125,8.33307,7.84641C303.80615,343.21915,306.41888,340.42963,306.35803,335.03296z"/>
		<path class="st9" d="M314.98245,270.17148c-0.85632,0.9068-1.71265,1.8136-2.62408,2.77872
			c-1.66681-0.94629-4.12643-3.23837-5.07672-2.72626c-3.99747,2.15448-7.5657,5.11758-11.24008,7.8533
			c-0.87585,0.65213-1.55533,1.56836-2.32721,2.36301c-1.28418,0.29269-2.71063,0.31757-3.8262,0.91943
			c-12.13156,6.54501-24.21436,13.18051-36.31046,19.79132c-0.31583-1.65463-0.63167-3.30923-0.9474-4.96384
			c18.40578-11.03647,36.92979-21.88217,55.15565-33.20837c6.76312-4.20282,9.62296-11.74248,12.3598-18.82298
			c4.02896-10.42334,7.43533-21.0876,11.12677-31.70625c0.80145,6.8566,1.61865,13.8483,2.46832,21.11728
			c1.19025-1.3681,2.4169-2.77805,3.64255-4.1875c0.03378,0.63771,0.06845,1.27493,0.10312,1.91219
			c-0.07767,0.7054-0.1553,1.41081-0.23297,2.11621c0,0,0.02454-0.0273,0.02466-0.02748
			c-4.54855,10.91995-11.54736,20.01503-20.26526,27.94925c-1.44385,1.31409-1.73856,3.89243-2.56479,5.8869
			c0.18866,0.40656,0.37775,0.81274,0.56683,1.21887C315.00415,269.01401,314.99329,269.59274,314.98245,270.17148z"/>
		<path class="st18" d="M184.75732,323.1131c1.65858,1.68335,3.31717,3.3667,4.97643,5.05051
			c0.27135,0.70645,0.54204,1.41238,0.81224,2.11777c-2.43965-2.36646-4.87886-4.73227-7.31514-7.09738
			C183.74162,323.16086,184.24948,323.13696,184.75732,323.1131z"/>
		<path class="st8" d="M315.01498,268.43527c-0.18909-0.40613-0.37817-0.81232-0.56683-1.21887
			C314.63742,267.62244,314.82623,268.02887,315.01498,268.43527z"/>
		<path class="st14" d="M337.48651,231.29152c-0.03467-0.63725-0.06934-1.27448-0.10312-1.91219
			c0.60239-6.7184,0.57205-13.57716,2.02469-20.10547c0.98901-4.4444,4.05362-8.42633,6.90475-14.01613
			c1.69305,4.3474,2.84521,7.30583,3.99683,10.26392c2.24234,4.34807,0.18924,7.88333-2.07269,11.44185
			c-1.97379,3.10518-4.19818,6.22556-2.06979,11.03239c1.61804-1.18765,3.40219-1.82965,3.99606-3.05115
			c2.31503-4.76138,4.25287-9.70642,6.33093-14.58315c4.44095,0.2081,8.29083-0.44762,8.78006-6.01511
			c2.61267,1.51093,5.2254,3.02185,8.16876,4.724c0.75616-6.35785-1.61664-11.07698-6.20172-13.57512
			c-3.95187-2.15314-4.11414-4.23141-0.43326-6.83272c5.08539-3.5939,10.47836-5.61555,16.69809-2.95859
			c3.42889,1.46477,3.85239-0.78693,3.46378-3.18475c-0.95135-5.87022-8.43335-9.83781-13.34494-6.56271
			c-4.26657,2.84496-7.70074,6.93979-11.50278,10.48227c-1.1843,1.01205-2.23169,2.30829-3.58832,2.96266
			c-1.6174,0.78015-3.49991,1.0101-5.26752,1.47841c-0.3266-1.71451-0.97485-3.44444-0.89355-5.13936
			c0.08966-1.86931,0.84888-3.70645,1.31644-5.55762l0.29587,0.11652c2.75436-3.69154,5.50876-7.38309,8.26312-11.07465
			c7.1434-2.2464,14.01251-5.79253,21.87671-4.62222c5.65753,5.44987,7.57178,12.61714,9.13797,19.94406
			c-0.43869,4.30882-0.87738,8.61772-1.31613,12.92659c-4.24692,8.94176-8.51257,17.87468-12.73495,26.82802
			c-3.65979,7.76031-8.77017,13.62277-17.40527,16.4454c-5.98022,1.95482-11.61093,1.80923-17.48349,0.58168
			c-1.33603-1.66574-2.67279-3.33093-4.01013-4.99561C339.37042,234.65269,338.42847,232.97209,337.48651,231.29152z"/>
		<path class="st3" d="M342.32913,169.46848c0.58353,2.05513,1.16711,4.11026,1.75079,6.16545
			c-0.93481,4.63272-1.86975,9.26537-2.80469,13.89801c-3.29044,3.59106-6.5809,7.18211-9.87134,10.77319
			c-0.37903-0.20634-0.75803-0.41266-1.13702-0.61897c1.05209-3.75012,2.10422-7.50021,3.1564-11.25026
			c7.38779-1.88857,8.21246-7.91957,8.80536-14.05472C342.38577,172.75555,342.30219,171.10667,342.32913,169.46848z"/>
		<path class="st3" d="M353.68921,180.18297c-0.9545,0.57094-1.90903,1.14188-2.71704,1.62517
			c-0.93835-3.48019-1.8494-6.85907-2.76065-10.23798c-0.32147-3.19797-0.6427-6.39589-1.03427-10.29413
			c1.08032,0.90579,1.55753,1.30591,2.03491,1.70609c0.68851,0.51448,1.37683,1.02892,2.06512,1.54337
			c0,0-0.03287-0.03722-0.03296-0.03725c0.91351,5.2704,1.82715,10.54083,2.74075,15.81125L353.68921,180.18297z"/>
		<path class="st8" d="M353.98508,180.29948c-0.9136-5.27042-1.82724-10.54085-2.74075-15.81125
			c3.66815,1.57924,7.33624,3.15843,11.00406,4.73712C359.49384,172.9164,356.73944,176.60794,353.98508,180.29948z"/>
		<path class="st8" d="M351.27728,164.52548c-0.68829-0.51445-1.37662-1.02888-2.06512-1.54337
			C349.90042,163.49654,350.58887,164.011,351.27728,164.52548z"/>
		<path class="st3" d="M272.61179,38.54293c-0.75073,0-1.5015,0-2.25223,0c-0.00665-0.15018-0.01331-0.30035-0.01993-0.45054
			c0.74841-0.0516,1.49686-0.10321,2.24524-0.15482C272.59387,38.13935,272.60284,38.34114,272.61179,38.54293z"/>
		<path class="st3" d="M334.22537,73.7664c-0.44394-0.1401-0.88788-0.28019-1.33182-0.42028
			c0.09158-0.13103,0.25296-0.38246,0.26471-0.37565c0.38666,0.22435,0.75897,0.47346,1.13367,0.71853
			C334.29221,73.68862,334.22537,73.7664,334.22537,73.7664z"/>
		<path class="st3" d="M328.24194,56.79912c-0.44409-0.13967-0.88818-0.27935-1.33228-0.41902
			c0.09143-0.13113,0.25275-0.38265,0.26425-0.37595c0.38657,0.22454,0.75882,0.47367,1.13342,0.71885
			C328.30759,56.72264,328.24194,56.79912,328.24194,56.79912z"/>
		<path class="st5" d="M274.7529,24.53102c-0.55466,0-1.10931,0-1.66394,0c0-0.14376,0-0.28752,0-0.43128
			c0.55466,0,1.10931,0,1.66394,0C274.7529,24.2435,274.7529,24.38726,274.7529,24.53102z"/>
		<path class="st19" d="M253.5777,301.151c12.0961-6.61081,24.17889-13.24631,36.31046-19.79132
			c1.11557-0.60187,2.54202-0.62674,3.8262-0.91943c-0.34387,0.91479-0.68982,1.82953-1.03751,2.74454
			c-0.07922,0.38507-0.15668,0.7699-0.23413,1.15469c-2.57852,7.60825-7.95212,13.06015-13.91446,18.05743
			c-7.34872,3.69193-14.69662,7.38489-22.04449,11.07788c-5.62407,1.8215-11.48788,3.21948-15.1143,8.56952
			c-3.51355,2.79529-7.21481,5.38715-10.50069,8.42834c-5.36479,4.96527-6.76201,4.74762-9.39259-2.1568
			c1.29543-0.07297,2.59084-0.14594,5.26489-0.29654c-2.907-0.88327-4.58577-1.39334-6.26419-1.90298
			c0.00015-0.93002-0.00006-1.86038-0.00024-2.7908c14.24312,1.25745,22.45274-8.64899,31.33072-17.15875
			C252.94974,305.07178,253.01399,302.85052,253.5777,301.151z"/>
		<path class="st9" d="M221.47618,328.31589c2.63058,6.90439,4.0278,7.12204,9.39259,2.15677
			c3.28587-3.0412,6.98714-5.63306,10.50069-8.42834c-4.25861,7.48618-8.51605,14.974-12.92346,22.72562
			c-5.53375-6.11316-10.2077-11.27646-14.88162-16.43951C216.20168,328.32571,218.83893,328.3208,221.47618,328.31589z"/>
		<path class="st9" d="M220.47664,323.32553c0.00018,0.93042,0.0004,1.86078,0.00024,2.79077
			c-2.31949-0.68912-4.6386-1.37784-6.95772-2.0665c0.00987-0.24142,0.01974-0.48285,0.02962-0.72427
			C215.85808,323.32553,218.16736,323.32553,220.47664,323.32553z"/>
		<path class="st20" d="M207.54701,327.27332c0.0081,0.65729,0.01622,1.31458,0.02403,1.97171
			c-2.57758-1.10352-5.15485-2.20691-7.73209-3.31027c0.10486-0.30087,0.20972-0.60175,0.31459-0.90265
			c1.80316,0.45584,3.60634,0.91162,5.40967,1.36743c0.66447,0.2905,1.3288,0.58093,1.99312,0.87137L207.54701,327.27332z"/>
		<path class="st8" d="M213.67197,303.19366c0.33763,0.74512,0.67528,1.4902,1.01292,2.23529
			c-0.19165,0.10446-0.38332,0.20889-0.57497,0.31329c-0.37531-0.63409-0.75061-1.26819-1.1275-1.89722
			C213.18289,303.60144,213.41327,303.38263,213.67197,303.19366z"/>
		<path class="st12" d="M184.75732,323.1131c-0.50784,0.02386-1.0157,0.04776-1.52647,0.07089
			c-0.05458-0.48956-0.10626-0.97842-0.15794-1.46729C183.63437,322.18216,184.19585,322.64764,184.75732,323.1131z"/>
		<path class="st8" d="M207.55635,327.2709c-0.66434-0.29044-1.32866-0.58087-1.99313-0.87137
			C206.22749,326.68997,206.89192,326.98044,207.55635,327.2709z"/>
		<path class="st0" d="M178.77675,264.36606c-2.34846,1.65317-4.56317,3.55399-7.07173,4.91074
			c-6.24707,3.37872-7.31371,5.44803-5.70271,12.58957c0.99544-1.89062,1.93558-3.67615,3.29604-6.26001
			c0,3.4498,0,5.85974,0,9.71463c2.17346-3.94202,3.59727-6.52441,5.0211-9.10675c0.40338,0.35681,0.80678,0.71359,1.21014,1.07043
			c-0.216,3.73175-0.36453,7.46899-0.66978,11.19336c-0.23448,2.86105,0.3132,6.58063-1.25523,8.33942
			c-2.01891,2.26385-9.32744,0.04044-11.5117-2.97482c-2.21495-3.05762-4.31662-6.29523-5.84015-9.7326
			c-2.05391-4.634-3.58936-9.5072-5.19077-14.3298c-1.13962-3.43195,0.13016-6.05362,3.04118-8.14252
			c2.65599-1.90585,5.12508-4.07251,7.67665-6.12421c0.00009-0.00003,0.47353-0.08994,0.47353-0.08994l0.4351,0.20729
			c0.57726,4.99446,4.18951,8.30263,9.63208,8.674C174.464,264.45111,176.62418,264.35291,178.77675,264.36606z"/>
		<path class="st9" d="M198.71371,253.17047c-2.71785-0.30367-5.43567-0.60732-8.15381-0.91086
			c-5.11974-0.18094-10.24657-0.59612-15.35504-0.43362c-2.196,0.06987-4.35391,1.33833-6.52913,2.06221
			c-0.4839,0.15302-0.96779,0.30606-1.45303,0.4592c-1.84583-0.36572-3.69028-0.73158-5.53474-1.09743
			c2.99744-2.50636,5.99486-5.01276,8.99245-7.52205c1.43596,0.09978,2.87029,0.25615,4.30779,0.29507
			c4.18353,0.1133,8.36835,0.17961,12.55296,0.2645c0.70006,0.02762,1.39981,0.05502,2.09956,0.08241
			c3.6192,1.96751,7.2384,3.93503,10.85762,5.90253C199.90347,252.57178,199.30858,252.87114,198.71371,253.17047z"/>
		<path class="st20" d="M187.54085,246.28731c-4.18431-0.0847-8.36913-0.15102-12.55266-0.26431
			c-1.4375-0.03893-2.87183-0.1953-4.30777-0.29507c0.64981-0.80167,1.29977-1.60626,1.9492-2.4113
			c3.29352-0.96693,6.58757-1.93336,9.88162-2.89984c1.03819,1.30296,2.07637,2.60599,3.11481,3.90889
			C186.26448,244.97946,186.90266,245.63338,187.54085,246.28731z"/>
		<path class="st13" d="M161.68796,253.24997c1.84447,0.36584,3.68892,0.7317,5.53474,1.09746
			c-1.51065,0.42769-3.02264,0.85545-4.53447,1.28333c0.00018,0.00009-0.43492-0.2072-0.43492-0.2072
			s-0.47343,0.0899-0.47353,0.08994c-2.19019,0-4.38029,0-6.57037,0c-0.03279-0.53206-0.06561-1.06409-0.0984-1.59615
			C157.30333,253.69489,159.49564,253.47243,161.68796,253.24997z"/>
		<path class="st16" d="M146.0222,156.52289c0.6779-1.87534,1.35579-3.7507,2.50093-6.91867
			c0.20064,3.25046,0.31105,5.03909,0.42146,6.82773c-0.4399,0.40869-0.87981,0.81738-1.31972,1.22607
			C147.09065,157.27965,146.55643,156.90126,146.0222,156.52289z"/>
		<path class="st17" d="M147.62488,157.65802c0.43991-0.40869,0.87982-0.81738,1.31972-1.22607
			c0.62863,0.69481,1.25725,1.3896,1.88583,2.08432C149.76187,158.23012,148.69336,157.94408,147.62488,157.65802z"/>
		<path class="st0" d="M132.74068,133.50053c0.31189-0.31729,0.62379-0.63458,0.93524-0.95197
			C133.36386,132.86581,133.05226,133.18318,132.74068,133.50053z"/>
		<path class="st17" d="M150.77425,158.46841c0.33328,0.33881,0.6666,0.67761,0.99988,1.01521
			C151.44084,159.14439,151.10754,158.8064,150.77425,158.46841z"/>
		<path class="st0" d="M160.66867,131.23894c-0.16301,0.43315-0.26266,0.698-0.36234,0.96281
			c-0.2796-0.216-0.6178-0.39076-0.81194-0.66695c-0.08585-0.12213,0.12016-0.44971,0.19368-0.68401
			C160.0163,130.98073,160.34451,131.11064,160.66867,131.23894z"/>
		<path class="st8" d="M337.48651,231.29152c0.94196,1.68057,1.88391,3.36118,2.82639,5.04124
			c-1.01944-0.97534-2.0394-1.95016-3.05936-2.925C337.33121,232.70233,337.40884,231.99692,337.48651,231.29152z"/>
		<path class="st21" d="M227.13983,150.60367c0,0-0.03452-0.03468-0.03455-0.03473
			c-1.49678,0.66808-2.99352,1.33621-4.49025,2.00436c-1.86452-0.09818-3.79137-0.54869-5.58235-0.23135
			c-6.53497,1.15784-15.33527-7.00113-14.26889-13.52196c0.13458-0.82298,1.10939-1.50836,1.69472-2.25748
			c0.93661,3.64085,3.49487,5.07909,6.73311,3.64696c13.60445-6.01678,27.82176-6.69698,42.32051-5.45802
			c-3.98581,1.22049-7.9716,2.44075-13.35129,4.08778c3.42438,0.71817,5.93829,1.06104,8.33601,1.7877
			c4.58148,1.3885,10.37607,0.19846,12.99991,5.9108l-0.05054,0.05838c-7.14819-1.64781-14.265-3.46039-21.46579-4.83176
			c-1.88565-0.3591-4.03195,0.65204-7.38087,1.28304c1.82422,0.97928,2.42609,1.30237,3.02798,1.62564
			C232.83557,146.70338,227.75298,145.45096,227.13983,150.60367z"/>
		<path class="st9" d="M362.12216,186.43887c3.80203-3.54248,7.23621-7.63731,11.50278-10.48227
			c4.91159-3.2751,12.39359,0.69249,13.34494,6.56271c0.38861,2.39783-0.03488,4.64952-3.46378,3.18475
			c-6.21973-2.65697-11.6127-0.63531-16.69809,2.95859c-3.68088,2.6013-3.51862,4.67958,0.43326,6.83272
			c4.58508,2.49814,6.95789,7.21727,6.20172,13.57512c-2.94336-1.70215-5.55609-3.21307-8.16898-4.72372
			c-0.49802-5.17456-2.20062-6.6176-7.98212-6.76466C358.90198,193.86771,360.51208,190.15327,362.12216,186.43887z"/>
		<path class="st0" d="M357.2919,197.58211c5.78149,0.14706,7.4841,1.5901,7.98212,6.76466
			c-0.48901,5.56721-4.3389,6.22293-8.78073,6.01495c-1.46524-1.93419-2.92947-3.86852-4.39374-5.80284
			C353.83032,202.23329,355.56113,199.9077,357.2919,197.58211z"/>
		<path class="st9" d="M352.09955,204.55888c1.46426,1.93433,2.9285,3.86865,4.39371,5.80284
			c-2.07715,4.8766-4.01498,9.82164-6.33002,14.58302c-0.59387,1.2215-2.37802,1.86349-3.99606,3.05115
			c-2.12839-4.80684,0.09601-7.92722,2.06979-11.03239c2.26193-3.55852,4.31503-7.09378,2.07269-11.44185
			C350.90662,205.20097,351.50311,204.87991,352.09955,204.55888z"/>
		<path class="st1" d="M341.27524,189.53194c0.93494-4.63264,1.86987-9.26529,2.80469-13.89801
			C344.26675,180.49323,345.24072,185.5116,341.27524,189.53194z"/>
		<path class="st21" d="M261.49677,146.53773c0.4426,0.13487,0.88522,0.26971,1.32782,0.40457
			c-0.08911,0.1306-0.24844,0.3799-0.25714,0.37473c-0.38193-0.22643-0.75058-0.47531-1.12103-0.72121
			C261.44623,146.59612,261.49677,146.53773,261.49677,146.53773z"/>
		<path class="st19" d="M200.49834,252.27246c-3.61922-1.96753-7.23842-3.93504-10.85756-5.90256
			c0.14192-0.32333,0.13722-0.64458-0.01404-0.96367c0.29488-0.07739,0.59096-0.08232,0.88869-0.0148
			c1.35432-0.34036,2.70816-0.68069,4.06201-1.021c0.75453-0.05629,1.50908-0.11253,2.26315-0.16861
			c-0.00047,0.00021-0.11566,0.02808-0.11566,0.02808c0.14005,0.4631,0.28009,0.92621,0.42015,1.38931
			c0.14388-0.37297,0.28775-0.74599,0.43159-1.11897c0.35732-0.04172,0.71463-0.08345,1.07195-0.12517
			c2.96605,1.02646,5.93207,2.05293,8.89847,3.07947c0.28688-0.14023,0.58817-0.18871,0.90422-0.14546
			c1.32922,0.3385,2.65843,0.67697,3.98773,1.01544c1.06845,0.35213,2.13684,0.70427,3.20523,1.05638
			c0,0-0.09433-0.06252-0.09425-0.06255c1.03633,0.65625,2.07259,1.31258,3.10884,1.96893
			C212.60536,251.61569,206.55183,251.94408,200.49834,252.27246z"/>
		<path class="st4" d="M194.57744,244.37044c-1.35385,0.3403-2.70769,0.68063-4.06201,1.021
			c0.39343-2.17871,0.78734-4.35744,1.35988-7.52429C193.0258,240.63606,193.80162,242.50325,194.57744,244.37044z"/>
		<path class="st8" d="M189.62674,245.40623c0.15126,0.31909,0.15596,0.64034,0.01404,0.96367
			c-0.69981-0.02739-1.39957-0.05479-2.09962-0.08241c-0.63849-0.65411-1.27667-1.30803-1.9151-1.96182
			c0.34882-1.82784,0.69788-3.65576,1.0307-5.39862C187.73425,241.27768,188.6805,243.34196,189.62674,245.40623z"/>
		<path class="st10" d="M218.65886,251.28726c-1.03625-0.65633-2.07251-1.31265-3.10884-1.9689
			c2.07129,0.00003,4.14265,0.00003,6.21397,0.00003c0.06346,0.26405,0.12694,0.52809,0.1904,0.79216
			C220.8559,250.50278,219.75737,250.89503,218.65886,251.28726z"/>
		<path class="st11" d="M208.45131,247.30908c-0.31606-0.04324-0.61734,0.00523-0.90421,0.14546
			c-0.68678-1.11986-1.37321-2.23961-2.05962-3.35938c0.31879-0.18089,0.63759-0.36177,0.95638-0.54266
			C207.11302,244.8047,207.78215,246.05688,208.45131,247.30908z"/>
		<path class="st8" d="M215.64427,249.38091c-1.06839-0.35211-2.13678-0.70425-3.20523-1.05638
			c0.17526-0.5675,0.35059-1.13504,0.64685-2.09409C214.09895,247.47794,214.87161,248.42943,215.64427,249.38091z"/>
		<path class="st11" d="M198.64862,244.37508c-0.35732,0.04172-0.71463,0.08345-1.07179,0.1252
			c-0.26768-0.14113-0.5517-0.23129-0.8519-0.27037c0,0,0.11519-0.02786,0.11566-0.02808
			c-0.0519-1.12144-0.10425-2.24272-0.1566-3.36398c0.20903-0.05563,0.41806-0.11128,0.62708-0.16693
			C197.75693,241.90562,198.20277,243.14037,198.64862,244.37508z"/>
		<path class="st0" d="M219.64534,127.69205c-0.58229,0.20863-1.16458,0.41724-1.74684,0.62586
			c0.31918-0.44836,0.63837-0.89674,0.95717-1.34522C219.11864,127.21241,219.38197,127.45223,219.64534,127.69205z"/>
		<path class="st13" d="M222.61504,152.5733c1.49673-0.66815,2.99347-1.33629,4.49025-2.00436
			c-0.57901,1.01576-1.15802,2.03148-1.73779,3.04817c-1.17574,1.05962-2.35081,2.11826-3.52585,3.17688
			c-0.29013-0.15039-0.58026-0.3008-0.87039-0.4512C221.5192,155.0863,222.06712,153.8298,222.61504,152.5733z"/>
		<path class="st20" d="M194.65259,262.34491c-1.09398,3.60684-2.18796,7.21365-3.28194,10.8205
			c-0.58434-0.14191-1.16869-0.28378-1.75302-0.42569c0-3.45905,0-6.91809,0.00011-10.37704
			C191.2961,262.35681,192.97432,262.35086,194.65259,262.34491z"/>
		<path class="st13" d="M168.67574,253.8882c2.17522-0.72388,4.33313-1.99234,6.52913-2.06221
			c5.10847-0.16249,10.23531,0.25269,15.35504,0.43362C183.26538,252.8024,175.97055,253.34529,168.67574,253.8882z"/>
		<path class="st0" d="M180.59259,271.25613c0.42418-1.97626,0.84836-3.95251,1.27263-5.92911
			c1.32635-0.31653,2.65263-0.63275,3.97902-0.94904c-1.50969,2.55518-3.01945,5.11038-4.52921,7.66559
			C181.07422,271.7811,180.83342,271.51862,180.59259,271.25613z"/>
		<path class="st0" d="M181.31505,272.04358c-0.37224,0.66696-0.74448,1.33392-1.11673,2.00089
			c-0.20598-0.08521-0.41199-0.17035-0.61798-0.25555c0.33743-0.84424,0.67484-1.68851,1.01225-2.53278
			C180.83342,271.51862,181.07422,271.7811,181.31505,272.04358z"/>
		<path class="st1" d="M167.71002,152.11517c-1.02518-0.83037-2.05032-1.66075-3.07547-2.49112
			C165.6597,150.45444,166.68486,151.28482,167.71002,152.11517z"/>
		<path class="st7" d="M199.59073,214.44441c-0.22652,0.90109-0.46573,2.59082-0.67767,2.58742
			c-4.74374-0.07648-9.48357-0.36223-14.22629-0.55533c-1.84909-0.07529-3.70345-0.02121-5.55638-0.02602
			C185.39986,210.16484,192.25502,209.85085,199.59073,214.44441z"/>
		<path class="st0" d="M280.98236,308.75128c7.70413-8.36636,15.38715-16.70984,22.95148-24.92444
			c3.96756,7.26691,3.23438,17.65549-1.4725,21.88138C297.90454,309.79938,286.65591,311.58783,280.98236,308.75128z"/>
		<path class="st0" d="M255.47444,354.71567c-6.13538,5.02917-12.04184,8.98376-19.32254,10.31461
			c-4.0976,0.74899-8.97089-2.28976-10.58852-6.40991c-0.71272-1.81537-1.20715-3.71661-1.90973-5.92102
			C234.15724,353.3649,244.33727,354.00995,255.47444,354.71567z"/>
		<path class="st0" d="M306.35803,335.03296c0.06085,5.39667-2.55188,8.18619-7.63373,8.15018
			c-4.96133-0.03516-8.26291-3.14386-8.33307-7.84641c-0.0676-4.52975,3.41934-7.95828,8.24387-8.10574
			C302.85275,327.10208,306.30792,330.59262,306.35803,335.03296z"/>
		<path class="st9" d="M256.48376,313.47479c7.34787-3.69299,14.69577-7.38596,22.04453-11.07785
			c-2.57144,2.38113-4.77686,5.55887-7.80286,6.95251C266.28613,311.39407,261.25992,312.16257,256.48376,313.47479z"/>
		<path class="st9" d="M292.44272,284.33948c0.07745-0.3848,0.15491-0.76962,0.23413-1.15469
			C292.60001,283.56949,292.52136,283.9545,292.44272,284.33948z"/>
		<path class="st7" d="M196.72493,244.2299c0.3002,0.03908,0.58421,0.12924,0.8519,0.27037
			c-0.144,0.37296-0.28787,0.74597-0.43175,1.11894C197.00502,245.15611,196.86497,244.69301,196.72493,244.2299z"/>
	</g>
</g>
</svg>
