<svg id="Flat" enable-background="new 0 0 78 124" height="512" viewBox="0 0 78 124" width="512" xmlns="http://www.w3.org/2000/svg"><g><path d="m32.957 72.481.053-1.941-.01-3.54 12.18-.06.01 3.55.01 1.68c-.966 1.523-6.173 6.242-6.173 6.242z" fill="#ffd7d2"/><path d="m17.2 51.96c-2.7.32-5.51-1.6-6.68-4.78-1.35-3.67.01-7.63 3.04-8.83.29-.12.59-.2.89-.25z" fill="#fec4b9"/><path d="m63.55 38.1c.02 0 .05.01.07.01.28.05.55.13.82.24 3.03 1.2 4.39 5.16 3.04 8.83-1.17 3.18-3.98 5.1-6.68 4.78z" fill="#fec4b9"/><path d="m63.61 37.49c-.02.2-.04.41-.06.61-.52 5.3-1.48 10.18-2.75 13.86h-.01c-.54 1.59-1.14 2.96-1.79 4.04-2.29 3.81-7.49 8.79-13.82 10.94-1.97.67-4.05 1.06-6.18 1.06-2.07 0-4.09-.37-6-1-6.42-2.11-11.69-7.15-14-11-.65-1.08-1.25-2.45-1.79-4.04h-.01c-1.25-3.64-2.21-8.45-2.73-13.68h.04c0-14.25 10.977-24.996 24.517-24.996 13.34 0 24.263 10.326 24.583 24.206z" fill="#ffd7d2"/><circle cx="49" cy="39" fill="#472d1c" r="2"/><circle cx="29" cy="39" fill="#472d1c" r="2"/><path d="m39 15.15c-13.54 0-24.49 8.88-24.49 23.13h-.04c-.01-.06-.02-.12-.02-.18-.29-2.94-.45-6.02-.45-9.1 0-11 5-29 25-29s25 18 25 29c0 2.87-.14 5.73-.39 8.49-.32-13.88-11.27-22.34-24.61-22.34z" fill="#524956"/><path d="m45.187 69.543-.007-2.603c-1.97.67-4.05 1.06-6.18 1.06-2.07 0-4.09-.37-6-1v.991s3.647 2.199 12.187 1.552z" fill="#fec4b9"/><path d="m75.81 112.3c-.43-1.69-.9-3.31-1.41-4.85-.66-2.04-1.39-3.96-2.17-5.76-.71-1.65-1.47-3.21-2.26-4.67-6.34-11.79-14.85-17.56-21.35-20.37l-.09-.03v-7.41s-1.49.73-3.33 1.31c-1.14.35-2.41.65-3.56.67l-2.55 6.45h-.13l-2.56-6.45c-1.09-.02-2.3-.29-3.4-.62-1.92-.58-3.49-1.36-3.49-1.36v7.38c-6.5 2.79-15.08 8.55-21.46 20.4-.8 1.47-1.56 3.04-2.27 4.7-.79 1.81-1.52 3.73-2.17 5.78-.49 1.44-.93 2.95-1.34 4.52-.03.11-.06.22-.09.34-.91 3.55-1.65 7.43-2.18 11.67h78c-.53-4.25-1.27-8.14-2.19-11.7z" fill="#e7f2f1"/><path d="m75.81 112.3-.04.01c-8.82 3.96-22.02 6.48-36.77 6.48-14.67 0-27.8-2.49-36.62-6.41l-.2-.05c.03-.12.06-.23.09-.34.41-1.57.85-3.08 1.34-4.52l.16.05c8.78 3.58 21.32 5.82 35.23 5.82 14 0 26.61-2.27 35.4-5.89.51 1.54.98 3.16 1.41 4.85z" fill="#1498b7"/><path d="m72.23 101.69c.78 1.8 1.51 3.72 2.17 5.76-8.79 3.62-21.4 5.89-35.4 5.89-13.91 0-26.45-2.24-35.23-5.82l-.16-.05c.65-2.05 1.38-3.97 2.17-5.78l.19.08c8.62 3.08 20.24 4.97 33.03 4.97 12.86 0 24.54-1.91 33.17-5.02z" fill="#5d5560"/><path d="m72.23 101.69-.06.03c-8.63 3.11-20.31 5.02-33.17 5.02-12.79 0-24.41-1.89-33.03-4.97l-.19-.08c.71-1.66 1.47-3.23 2.27-4.7l.14.08c8.34 2.64 19.09 4.23 30.81 4.23 11.8 0 22.6-1.61 30.97-4.28.79 1.46 1.55 3.02 2.26 4.67z" fill="#ef9d26"/><path d="m52.279 32.54c-.199 0-.399-.059-.574-.182-1.8-1.267-4.415-.849-4.441-.844-.542.102-1.063-.267-1.159-.811s.267-1.063.811-1.158c.138-.025 3.437-.584 5.939 1.176.452.318.561.941.243 1.394-.195.278-.505.425-.819.425z" fill="#472d1c"/><path d="m25.721 32.54c-.314 0-.624-.147-.819-.425-.318-.452-.209-1.075.243-1.394 2.501-1.759 5.801-1.2 5.939-1.176.544.096.907.614.811 1.158-.096.543-.612.903-1.157.812-.049-.009-2.639-.426-4.443.843-.174.123-.375.182-.574.182z" fill="#472d1c"/><path d="m39 43.71c-1.078 0-2.179-.157-3.273-.468-.531-.15-.84-.703-.689-1.234.15-.532.704-.844 1.235-.689 1.833.52 3.621.52 5.454 0 .533-.154 1.084.157 1.235.689.151.531-.158 1.084-.689 1.234-1.094.311-2.195.468-3.273.468z" fill="#ea8d81"/><path d="m75.77 112.31.04-.01c-.43-1.69-.9-3.31-1.41-4.85-8.79 3.62-21.4 5.89-35.4 5.89-11.714 0-22.447-1.593-30.791-4.233-.085 2.12.473 4.162 1.525 5.92 8.106 2.359 18.251 3.762 29.265 3.762 14.751.001 27.951-2.519 36.771-6.479z" fill="#1498b7"/><path d="m7.322 102.231c-.457-.151-.911-.304-1.352-.461l-.19-.08c-.255.585-.493 1.201-.735 1.81.421-.88 1.334-1.39 2.277-1.269z" fill="#5d5560"/><path d="m9.076 105.258c-.049.122-.098.244-.146.366-.456 1.158-.674 2.33-.72 3.483 8.344 2.64 19.076 4.233 30.791 4.233 14 0 26.61-2.27 35.4-5.89-.66-2.04-1.39-3.96-2.17-5.76l-.06.03c-8.63 3.11-20.31 5.02-33.17 5.02-11.788 0-22.576-1.608-30.944-4.271.991.516 1.453 1.714 1.019 2.789z" fill="#5d5560"/><path d="m8.209 109.107c-1.564-.495-3.053-1.022-4.439-1.587l-.16-.05c-.49 1.44-.93 2.95-1.34 4.52-.03.11-.06.22-.09.34l.2.05c2.198.977 4.664 1.865 7.355 2.648-1.052-1.758-1.611-3.801-1.526-5.921z" fill="#1498b7"/><path d="m8.209 109.107c-1.564-.495-3.053-1.022-4.439-1.587l-.16-.05c-.49 1.44-.93 2.95-1.34 4.52-.03.11-.06.22-.09.34l.2.05c2.198.977 4.664 1.865 7.355 2.648-1.052-1.758-1.611-3.801-1.526-5.921z" fill="#0d87a3"/><path d="m3.77 107.52c1.386.565 2.875 1.093 4.439 1.587.046-1.153.265-2.324.72-3.483.048-.122.097-.244.146-.366.434-1.075-.028-2.273-1.02-2.789-.247-.078-.492-.157-.735-.238-.942-.122-1.855.389-2.277 1.269-.507 1.275-.995 2.583-1.435 3.97z" fill="#5d5560"/><path d="m3.77 107.52c1.386.565 2.875 1.093 4.439 1.587.046-1.153.265-2.324.72-3.483.048-.122.097-.244.146-.366.434-1.075-.028-2.273-1.02-2.789-.247-.078-.492-.157-.735-.238-.942-.122-1.855.389-2.277 1.269-.507 1.275-.995 2.583-1.435 3.97z" fill="#524956"/><path d="m2.18 112.33.2.05c2.198.977 4.664 1.865 7.355 2.648 1.883 3.146 5.317 5.366 9.414 5.366h49.439c.992 0 1.795.804 1.795 1.795s-.803 1.795-1.794 1.795l-68.589.016s.851-6.941 2.18-11.67z" fill="#d6eae8"/></g></svg>