<svg id="Flat" enable-background="new 0 0 78 124" height="512" viewBox="0 0 78 124" width="512" xmlns="http://www.w3.org/2000/svg"><g><path d="m33.01 77.56-.01-10.744h12.18l.02 10.814z" fill="#f7b6ad"/><path d="m58.92 83.09c-2.28-1.94-4.55-3.47-6.71-4.67-2.15-1.2-4.18-2.07-5.97-2.71h-.03v-3.58c0-.69-.42-1.27-1.01-1.5-.19-.08-.39-.12-.6-.12h-1.49c-.9 0-1.62.72-1.62 1.62v3.21c0 .89-.72 1.62-1.62 1.62h-1.74c-.9 0-1.62-.73-1.62-1.62v-3.21c0-.9-.72-1.62-1.62-1.62h-1.49c-.13 0-.27.02-.39.05-.7.17-1.22.81-1.22 1.57v3.57l-.04.01c-10.07 3.6-27.54 14.64-31.75 48.29h14s.7-6.92 3.52-11.56l.48 11.56h7.48 34.52l.48-11.56c2.83 4.64 3.52 11.56 3.52 11.56h14c-2.71-21.64-10.9-33.93-19.08-40.91z" fill="#d6eae8"/><path d="m17.52 112.44-.05-1.23 34.74-32.79c2.16 1.2 4.43 2.73 6.71 4.67l-.07.08-33.32 40.77-.05.06h-7.48z" fill="#f9b132"/><path d="m17.2 51.96c-2.7.32-5.51-1.6-6.68-4.78-1.35-3.67.01-7.63 3.04-8.83.29-.12.624-.2.934-.25z" fill="#dfa3a5"/><path d="m63.55 38.1c.3.05.6.13.9.25 3.02 1.2 4.38 5.16 3.03 8.83-1.17 3.18-3.99 5.1-6.68 4.78z" fill="#dfa3a5"/><path d="m63.768 36c.101-1.399.163-2.51.197-3.47.057-1.66.035-2.782.035-3.53 0-4.37-.79-9.84-3-14.85v-.01c-3.35-7.61-9.95-14.14-22-14.14-5.26 0-9.12 1.51-9.12 1.51s-14.82 3.96-19.88 2.94c0 0 3.76 5.37 9.37 5.37 0 0-6.39 2.17-12.9 0 0 0 3.62 6.23 9.82 6.08l-.73 2.2c-1.13 3.82-1.56 7.66-1.56 10.9 0 2.18.114 4.36.264 6.49z" fill="#472d1c"/><path d="m24.374 17.85s10.6 3.45 28.47 4.21c0 0 4.7 7.3 11.12 10.47-.07 1.89-.2 3.76-.38 5.57-.52 5.3-1.48 10.18-2.75 13.86-.55 1.59-1.15 2.96-1.8 4.04-2.29 3.81-7.49 8.79-13.82 10.94-1.97.67-4.05 1.06-6.18 1.06-2.07 0-4.09-.37-6-1-6.42-2.11-11.69-7.15-14-11-.65-1.08-1.25-2.45-1.79-4.04h-.01c-1.27-3.68-2.23-8.56-2.74-13.86-.1-.86-.17-1.73-.23-2.61 0 0 9.22-12.66 10.11-17.64z" fill="#f7b6ad"/><circle cx="49" cy="38" fill="#543927" r="2"/><circle cx="29" cy="38" fill="#543927" r="2"/><circle cx="39" cy="117.5" fill="#655f68" r="2.56"/><path d="m39 80.2c1.41 0 2.56 1.14 2.56 2.55 0 1.42-1.15 2.56-2.56 2.56s-2.56-1.14-2.56-2.56c0-1.41 1.15-2.55 2.56-2.55z" fill="#655f68"/><path d="m52.279 29.54c-.199 0-.401-.06-.576-.183-1.801-1.274-4.417-.847-4.442-.842-.547.095-1.061-.271-1.155-.815-.094-.543.268-1.06.811-1.155.14-.025 3.45-.582 5.94 1.178.451.319.558.943.24 1.394-.195.276-.504.423-.818.423z" fill="#472d1c"/><path d="m25.731 29.54c-.314 0-.623-.147-.818-.423-.318-.451-.211-1.075.24-1.394 2.493-1.76 5.801-1.203 5.94-1.178.544.096.907.614.812 1.158-.096.543-.609.901-1.156.812-.025-.004-2.64-.432-4.442.842-.175.123-.377.183-.576.183z" fill="#472d1c"/><path d="m39 42.71c-1.079 0-2.18-.158-3.273-.468-.531-.151-.839-.704-.688-1.235s.704-.841 1.235-.688c1.831.521 3.622.521 5.453 0 .53-.153 1.084.157 1.235.688s-.157 1.084-.688 1.235c-1.094.31-2.195.468-3.274.468z" fill="#ea8d81"/><path d="m62.298 104.17-.299-4.128c.023-.552-.405-1.018-.957-1.041-.569-.022-1.018.406-1.041.957l.479 12.482c2.83 4.64 3.52 11.56 3.52 11.56h7.782c-.02-.194-6.91-4.915-9.484-19.83z" fill="#c3ddda"/><path d="m45.185 69.539-.005-2.581c-2.05.712-4.05 1.03-6.18 1.03-2.07 0-4.09-.37-6-1l.001.995s3.643 2.203 12.184 1.556z" fill="#dfa3a5"/><path d="m14.809 104.17.299-4.128c-.023-.552.405-1.018.957-1.041.569-.022 1.018.406 1.041.957l.414 12.482c-2.83 4.64-3.52 11.56-3.52 11.56h-7.782c.019-.194 6.016-4.915 8.591-19.83z" fill="#c3ddda"/></g></svg>