<svg xmlns="http://www.w3.org/2000/svg" viewBox="0 0 500.936 517.702" xmlns:v="https://vecta.io/nano"><style><![CDATA[.c{fill:#260e0f}.d{fill:#192653}.e{fill:#233b7a}.f{fill:#946f53}.g{fill:#bd8c6d}.h{fill:#775640}.i{fill:#daa47f}.j{fill:#644835}.k{fill:#2052a1}.l{fill:#223975}.m{fill:#674a36}.n{fill:#936e52}.o{fill:#213671}.p{fill:#1f336a}.q{fill:#1d2f62}.r{fill:#bb8b6c}.s{fill:#72523d}.t{fill:#ebebeb}.u{fill:#674b36}.v{fill:#bd8c6e}.w{fill:#1c2a5a}.x{fill:#1b2858}.y{fill:#cc9e69}]]></style><path d="M144.974 506.091c-.978-.627-2.677-1.13-2.811-1.902-.64-3.704-.452-7.577-1.323-11.207-1.158-4.825-.326-10.103-4.956-14.308-1.495-1.358.059-7.67 1.874-10.74 4.98-8.42 2.996-17.157 2.746-25.939-.172-6.043.156-12.12.623-18.154.39-5.036.84-10.156 2.134-15.008 1.147-4.304 3.473-8.298 5.315-12.413 1.287-2.874 3.186-5.223 1.702-9.064-1.76-4.557.591-7.693 5.692-9.795l29-12.048c3.09-1.342 5.953-3.293 8.713-5.256 1.072-.762 1.758-2.249 2.295-3.54 1.209-2.908 2.214-5.901 3.183-8.534-4.29-5.922-8.353-12.304-13.214-18.01-4.437-5.207-9.661-9.763-14.673-14.462-13.656-12.802-20.811-29.246-26.158-46.639-2.034-6.617-3.123-13.522-5.132-20.148-.578-1.907-2.612-4.286-4.411-4.738-5.02-1.262-8.167-4.166-10.578-8.504-2.695-4.849-6.2-9.3-8.461-14.324-1.834-4.076-2.377-8.737-3.44-13.151l-4.537-19.257c-.918-4.102-2.699-8.377-2.215-12.347.902-7.398 4.728-10.715 16.718-10.375l.044-36.955c.236-13.795 3.627-27.05 7.988-40.029 6.016-17.906 15.638-33.646 29.894-46.222 12.657-11.165 27.715-17.715 44.039-21.558 14.278-3.361 28.887-4.091 43.307-2.797 28.539 2.562 52.912 13.917 71.255 36.772 13.461 16.773 20.642 36.07 24.377 56.933.247 1.38 1.362 2.647 2.213 3.869 1.845 2.649 4.332 4.998 5.579 7.89 3.94 9.144 7.383 18.501 11.165 27.715.395.961 1.781 2.18 2.687 2.164 7.141-.131 11.521 4.77 15.613 9.188 8.282 8.941 15.31 18.823 17.693 31.233.243 1.266 1.079 3.147 2.033 3.431 6.42 1.915 7.423 7.248 9.221 12.608 2.13 6.349 4.997 12.541 8.277 18.393 3.752 6.696 5.845 13.27 3.171 20.859-.415 1.176.213 2.958.838 4.223 7.22 14.606 15.061 28.933 21.661 43.81 5.737 12.932 10.584 26.316 14.91 39.793 3.352 10.439-2.095 20.523-13.709 24.074-11.041 3.376-21.919 7.314-33.037 10.397-6.246 1.731-12.838 2.213-19.267 3.299-1.099.186-2.651.219-3.169.926-6.598 8.999-16.281 7.948-25.699 8.389-5.91.277-11.635 1.787-13.338 8.845-.075.313-.189.691-.417.883-10.797 9.106-9.368 22.686-12.269 34.535-2.079 8.488-2.456 17.431-3.15 26.206-.69 8.714 1.004 17.058 3.683 25.484 2.532 7.965 3.145 16.537 4.713 25.472h-4.46c.6-9.866-1.25-19.002-5.273-28.269-2.709-6.24-2.676-13.971-2.6-21.021.074-6.805 1.776-13.593 2.763-20.389l1-7.953 2.994-12.989 5.923-43.873 1.315.176-1.156 10.762 1.05.223 3.506-10.322c2.944 5.181 6.405 5.68 12.315 1.58-7.449-6.313-7.403-14.682-6.477-24.466 1.472 7.854 1.045 15.262 7.946 19.866-3.13-10.531-6.563-20.887-2.878-33.16l-3.413 3.149-.012-1.439-8.187-.566 3.733-1.924-.123-1.26c-5.791-.409-11.563-3.235-17.405.058-4.439 2.501-8.441 4.881-13.739 1.651-1.56-.951-4.638-.191-6.695.613-3.503 1.369-6.625 3.715-10.135 5.055-3.444 1.314-7.446 3.183-10.713 2.494-5.511-1.164-10.683-1.522-16.106-.215-1.01.243-2.706-.108-3.312-.831-2.556-3.052-4.436-1.945-6.303.607-8.999 13.556-22.196 18.731-37.894 18.912-6.461-2.524-12.869-5.203-19.423-7.461-1.578-.544-3.64.31-5.479.521.245 1.777.403 3.573.771 5.324.192.913.756 1.747 1.153 2.617l-.069.082c-1.972-.666-3.908-1.506-5.931-1.932-1.215-.256-2.85-.302-3.802.316-2.55 1.656-4.834 3.721-7.223 5.623l-7.99 4.001-21.896 9.179-5.267 4.257 7.732 3.006c-5.378 3.416-10.671 7.022-11.431 14.369l-3.176 4.998-.858 2.984-1.027 7.045-.907 6.017-.039 2.889-1.022 2.112.009 2.873v2.112l.001 2.875.008 3.113 1.081 2.892-.012 2.07-.078 2.898-.002 2.11.736 3.1.015 1.695.136 4.134 3.117 2.686c-9.201 6.961-11.528 11.133-8.474 16.309.744-8.175 5.502-12.858 12.244-15.91 2.368-1.072 4.785-2.038 7.179-3.052l9.853-.2 16.627 4.584c1.863-9.66 3.491-19.927-6.356-27.538-2.346-2.688-4.826-5.273-6.991-8.098-1.73-2.258-3.077-4.808-4.594-7.228l4.464 2.508.915-.856-5.9-12.169-4.209-4.861 1.13-2.18c1.247 1.206 2.658 2.286 3.703 3.646 1.573 2.049 2.889 4.294 4.314 6.456 2.593 5.779 3.737 12.377 9.055 17.082l.866-15.095 1.208 1.922v11.056l.789.15 1.777-7.067.38 3.002.114 2.805 1.322 13.263 1.215-.03 2.539-5.37.691.245-2.1 10.874.951.191 7.12-16.056c.034.324.096.642.185.955l.042 3.148-1.051 2.866c-2.375 7.786-5.468 15.446-6.877 23.403-.959 5.413.304 11.256.91 16.87.103.953 2.079 2.6 2.895 2.439 7.329-1.447 14.591-3.226 21.873-4.908l1.965-.084 1.129-.749 7.951-3.045 4.051-1.929 5.937-3.059 3.056-1.928 4.924-3.062 3.081-1.923 4.901-4.06 2.103-1.917c1.546-1.142 3.202-2.171 4.583-3.485.526-.5.423-1.658.607-2.516-.855-.05-1.961-.471-2.527-.091-5.147 3.456-10.915 3.139-16.676 2.976l-10.891-11.315 1.952 11.386-7.025 2.088-7.069.872-.899-3.111-.233-1.929.001-2.877-.829-3.081-.172-1.905.001-3.11-.995-2.877-.003-2.11-.002-2.876-.964-2.045c-.677-.491-1.299-1.106-2.046-1.447-1.288-.588-2.653-1.005-3.986-1.494l.036-2.078-.853-4.012-.18-2.006.13-2.929 4.869-2.059.065-2.935 4.975-1.179 6.05-.068 1.151-.658 1.575.092 2.019 12.397 6.305-12.542 6.938-3.027 7.971.005 5.954 3.057 1.999 1.924 2.062 2.995 1.911 5.058.209 1.984.979 3.878.005 2.103 1 2.876v2.112c.203 5.768 1.734 6.739 6.684 4.61 2.185-.94 4.606-1.336 6.92-1.978l-12.846 13.252 4.252 1.833c-3.389 2.838-6.107 5.511-9.202 7.637-12.382 8.502-24.643 17.243-39.112 22.09-18.603 6.232-38.913 5.709-56.902 14.354l-.789-1.956c6.233-2.036 12.515-3.939 18.665-6.201 1.539-.566 3.117-2.047 3.877-3.519 2.713-5.25.353-12.374-5.314-14.374-4.524-1.597-9.544-1.797-14.344-2.617-6.037-.826-11.529.22-16.037 4.648-5.031 4.562-7.357 9.769-6.073 16.918 1.352 7.526 1.473 15.272 2.132 22.922zm2.082-379.885l-.382 1.282.361-1.304.251-.382-.23.404zm-8.994 8.972l-6.261 2 .474 1.19 5.774-3.203 1.545-1.21-.336-.312-1.195 1.535zm190.837 7.981l1.872 2.769 1.039-1.191-2.894-1.595-6.011-5.97-.703-1.062.716 1.051 5.98 5.998zM187.094 317.607l-.09-2.914c12.923 12.103 27.565 20.055 45.789 21.281 14.212.956 26.839-2.077 38.031-10.752 3.843-2.978 7.328-6.416 10.977-9.643l.203.173-4.212 9.133c7.684-1.623 13.343-5.033 18.218-9.798 14.552-14.226 23.155-32.003 29.829-50.812 3.06-8.625 5.373-17.514 8.025-26.285l4.115 1.935v4.431l-1.51-.482c-1.187 2.245-2.821 4.368-3.475 6.758-1.913 6.993-3.028 14.22-5.181 21.129-8.256 26.496-22.938 48.193-47.727 62.079-2.355 1.319-4.76 2.547-7.142 3.817l.041 1.64c2.156.376 4.3.947 6.47 1.065 1.754.095 3.733-.961 5.273-.463 7.273 2.35 13.606 1.056 20.259-2.717 4.479-2.54 10.046-3.359 15.236-4.399 3.699-.742 7.737.016 11.348-.936 6.59-1.737 12.972-3.153 19.508-.059 4.356 2.062 7.43.616 9.833-3.411 3.795-6.358 9.097-11.06 16.484-12.707 6.938-1.547 13.974-2.657 20.969-3.959-.079-.403-.489-1.494-.474-2.579.203-14.147-4.186-27.269-9.026-40.277-.429-1.154-1.519-2.729-2.515-2.903-9.1-1.596-10.869-7.264-11.545-13.912-.923-9.079-3.27-17.536-10.892-23.783-2.607-2.137-4.17-5.544-6.242-8.416-2.48 4.563-5.124 9.699-8.096 14.64-.516.859-2.412.891-3.669 1.305 1.049-2.516 1.934-5.116 3.182-7.53 2.311-4.472 4.946-8.778 7.225-13.265 1.245-2.45.784-4.525-2.421-5.075l-3.427-3.872-5.331 12.909h5.78l-12.823 5.64c.963-3.511 2.596-5.784 3.827-8.257 2.185-4.389 3.575-8.899.032-13.356-1.32-3.112-2.724-6.191-3.938-9.343-1.455-3.774-3.957-7.631-3.892-11.417.225-13.231-4.288-24.698-10.963-35.725-1.92-3.172-3.511-6.828-4.124-10.453-2.073-12.243-3.638-24.571-5.398-36.867-1.028-9.224-3.887-11.878-12.793-11.882-21.573-.008-43.147.068-64.72-.059l-40.155-.711-21.118-2.214c-11.846-1.301-17.008 2.025-19.381 13.559-1.117 5.432-1.028 11.116-1.418 16.69-.886 12.669-3.843 24.687-10.158 35.881-4.898 8.683-10.507 17.406-6.317 27.103-3.059-2.012-6.448-4.854-10.326-6.633-4.69-2.152-10.189-2.947-14.187.984-3.574 3.514-3.901 8.443-2.182 13.385 1.277 3.669 2.134 7.481 3.214 11.22 3.123 10.81 2.389 22.902 10.774 31.982 1.179 1.277 1.653 3.179 2.721 4.589 1.61 2.125 3.094 4.865 5.305 5.873 2.218 1.012 5.261.222 7.823.222 3.23 14.499 7.882 28.846 14.51 42.53l9.095 15.951 12.64 16.104 5.997 5.976 7.023 5.04 1.592-1.675-4.482-5.485zm182.782-150.568l-1.364 2.041 3.445-.271 1.928.231c-6.573 2.316-13.257 4.375-19.65 7.111-1.812.776-2.776 3.527-4.128 5.373 2.442.413 4.873 1.018 7.33 1.147 1.011.053 2.05-.983 3.123-1.407l11.341-4.398.268.757-6.273 3.486-1.99.986-5.703 3.426 5.733 1.359 9.757 6.574c-8.438-4.704-17.58-6.633-27.35-6.452 2.964-6.246 2.295-8.697-3.131-12.612 3.125-4.564 3.103-4.983.026-9.392-.343-.492-.26-1.28-.376-1.931 2.816.033 6.487.202 5.371-3.938-2.791-10.353-6.142-20.559-9.439-30.769-.708-2.191-2.038-4.38-4.991-2.235-.671 1.708-2.26 3.673-1.865 5.083 2.808 10.017 6.022 19.921 9.107 29.861l1.909 2.064-3.907.419c-.436 4.684-.649 9.11-1.296 13.472-1.363 9.189 2.091 16.545 8.52 22.687 5.803 5.544 11.867 10.818 17.816 16.21 1.824 4.742 5.352 7.14 10.256 5.876 4.298-1.108 8.332-3.234 12.483-4.91l4.758-2.092 6.34-2.775-5.069 4.936c-8.473 3.869-16.734 8.5-27.149 7.281 8.906 7.831 12.132 17.874 13.123 28.809.56 6.171 3.004 9.117 9.273 8.66 5.606-.409 11.126-1.985 16.684-3.046 13.954-7.414 18.213-14.742 10.545-27.455-4.651-7.711-8.472-15.529-10.538-24.271-.365-1.543-1.817-2.831-2.768-4.236l-1.534.329c3.508 4.676.614 6.908-2.594 9.019.05-3.824.8-7.806-.024-11.433-1.076-4.738-2.786-9.569-5.317-13.69-4.434-7.219-9.701-13.929-14.619-20.852l-5.789-5.045c-2.085-2.485-4.422-3.897-7.762-2.202-.642.326-1.7.176-2.439-.097-2.068-.762-4.069-1.704-6.097-2.574 3.057-1.146 3.091-2.721 1.878-5.755-3.618-9.049-6.539-18.373-10.007-27.486-.439-1.153-2.515-1.686-3.832-2.506-2.92 1.35-4.086 3.498-3.174 6.69 2.204 7.713 4.184 15.496 6.64 23.127.999 3.104 2.998 5.886 4.543 8.815l-4.337 7.235.924 1.265 7.772-3.176.716.807.136 1.868c1.218.535 2.476 1.591 3.647 1.502 3.06-.232 6.082-.966 9.119-1.5zm33.859 163.602c-.561-1.498-.846-3.192-1.741-4.454-1.917-2.699 1.2-8.358-4.989-8.493l-11.044-.22c-.982-.011-1.971.112-2.949.237-10.877 1.394-20.28 10.522-22.071 21.417-.026.156.035.327.055.491-.244 6.546-.67 13.119 2.86 19.102 2.581 7.154 9.024 11.84 16.481 11.829 18.451-.029 36.257-3.826 53.649-9.638 4.948-1.654 10.086-3.53 14.263-6.52 7.626-5.458 8.749-14.983 3.975-26.646-5.041-12.314-9.76-24.793-15.502-36.778-6.018-12.561-13.085-24.622-20.089-37.638l-3.766 4.616-10.071 4.769-10.547 2.424c5.351 14.235 8.615 28.55 9.682 43.465.634 8.866 2.591 17.624 7.868 25.193l3.089 5.902-9.154-9.056zm-140.416 9.034c-23.996 7.773-46.691 3.026-69.206-6.334 3.888 5.488 7.467 11.159 12.512 14.812 9.508 6.886 20.195 10.799 32.54 9.589 10.028-.983 21.034-8.362 24.154-18.068zM259.9 429.79c0-2.088.347-4.314-.08-6.381-.659-3.189-1.679-6.334-2.847-9.383-2.572-6.71-6.052-8.794-13.714-8.553-5.483.173-9.539 3.21-11.192 9.245-2.481 9.053-1.125 17.83 3.641 25.848 4.075 6.855 10.24 8.452 17.055 4.802 6.21-3.326 7.763-8.97 7.138-15.579zm-39.746 19.309c8.28.555 8.561.526 7.766-7.029-1.174-11.159-2.794-22.271-4.193-33.153l-7.986.793c-.901 1.626-1.399 4.027-2.632 4.492-5.623 2.124-2.663 5.148-.942 7.509 2.019.606 4.43 1.556 4.657 2.879 1.375 8.032 2.251 16.15 3.329 24.509zm-77.84-317.833l.677.639 1.744-1.835-.676-.638-1.746 1.834z" class="c"/><path d="M148.915 466.251c4.508-4.428 10.001-5.474 16.037-4.648.514 4.262 1.828 8.62 1.332 12.761-.568 4.75-2.741 9.308-4.217 13.95l.789 1.956c17.989-8.645 38.299-8.122 56.903-14.354 14.469-4.847 26.73-13.588 39.112-22.09 3.095-2.125 5.813-4.798 9.202-7.637l-4.252-1.833 12.84-13.247.373-1.201 1.403-1.404 1.45-.629 1.134-2.432-.042.054 5.037-4.025-.057.037 3.758.446-.873 5.444.047-.066c-3.775 4.276-8.557 7.951-9.143 14.729l40.413-7.024c1.042-.169 2.379 1.478 3.579 2.28l.116-.038-22.966 7.804c-1.163.423-1.838 2.181-2.739 3.321 1.453.017 3.032.417 4.337-.013 6.777-2.231 13.517-4.585 20.202-7.081 3.231-1.206 4.056.258 4.118 3.038l.073-.101-2.145 1.015-21.947 9.7.641 1.633 7.46-2.409c4.275-1.003 8.638-1.735 12.796-3.091 3.509-1.144 4.151.396 4.137 3.243l.076-.077-26.906 10.845c1.733 1.454 3.247 2.112 4.777 2.153 6.351.168 12.707.15 19.062.201l-2.997 3.57-6.914.309c-.39-.291-.784-.841-1.168-.834l-32.812.717c-5.957.274-11.604-.03-16.76-3.335-1.17-.75-2.381-1.435-3.787-2.279-1.235 6.319-4.54 10.407-9.562 13.292-2.144 1.231-4.146 2.719-6.153 4.174l-31.606 22.981-62.982-.005 1.785-18.561c.595-5.204 1.548-10.367 2.135-15.571.406-3.601-1.287-5.666-5.094-5.666zm12.325 25.208l-.289-1.129-2.263 1.132.31.729 2.242-.732zm-6.451 3.963c-.19.23-.51.447-.525.684s.275.494.431.742c.184-.259.462-.499.519-.783.035-.175-.266-.418-.425-.643z" class="r"/><path d="M310.89 454.187l-7.46 2.409-.641-1.633 21.947-9.699 2.145-1.015c0 0-.073.101-.072.101 2.627-2.619 2.838-4.433-1.515-5.063-.564-.082-.962-1.309-1.437-2.006l-.114.039 2.062-.95 7.992.011c-.987 6.796-2.689 13.583-2.762 20.389-.076 7.05-.109 14.782 2.6 21.021 4.023 9.267 5.873 18.403 5.273 28.269l-115.956-.035 1.945-.816h59.404l.013-1.653c-4.235-.444-8.464-1.204-12.705-1.27l-34.388-.101c-1.74-.012-3.476-.56-5.214-.86l1.948-1.1 53.255-.047c1.734-.008 3.465-.74 5.198-1.136l-.324-1.875h-52.188l4.15-2.83c1.402.303 2.803.861 4.206.868l40.914-.057c1.552-.019 3.087-1.346 4.63-2.067-1.492-.607-2.978-1.722-4.477-1.74l-39.417-.139 3.027-1.949c7.135.002 14.276.193 21.403-.049 6.781-.231 13.717 1.06 20.37-.799l-.043-2.21h-36.779l3.071-1.925c11.574-.323 23.218.677 34.744-.547l.036-1.666-6.769-1.675 25.691-6.038c4.157-.932 8.432-1.365 12.545-2.441 1.075-.281 2.153-2.034 2.415-3.281.126-.596-1.574-2.164-2.581-2.299-3.034-.409-6.134-.384-9.21-.43l-11.409-.013c4.27-2.979 8.866-4.609 13.267-6.655 2.885-1.341 5.488-3.286 8.217-4.96l-.076.076 1.761-3.488c-1.139-.501-2.452-1.648-3.387-1.396-5.154 1.389-10.215 3.12-15.307 4.733z" class="d"/><path d="M213.071 506.054l31.606-22.981 6.153-4.174c5.023-2.885 8.327-6.973 9.562-13.292l3.787 2.279c5.156 3.306 10.803 3.609 16.76 3.335 10.926-.502 21.873-.538 32.812-.717.385-.006.779.544 1.168.834l-8.033 1.55c-10.291 2.118-20.494 5.183-30.89 6.118-9.686.871-18.035 3.504-26.22 8.752-10.498 6.731-21.766 12.265-32.703 18.315l-4.004-.02z" class="f"/><path d="M217.075 506.074c10.936-6.05 22.205-11.584 32.703-18.315 8.185-5.248 16.534-7.881 26.22-8.752 10.396-.935 20.599-4 30.89-6.118l8.033-1.55 6.914-.309 5.826-1.502.013-1.112-2.842-.956-19.062-.201c-1.53-.041-3.044-.699-4.777-2.153l26.906-10.845c-2.729 1.674-5.332 3.619-8.217 4.96-4.401 2.047-8.997 3.676-13.267 6.655l11.409.013c3.076.046 6.175.021 9.21.43 1.007.136 2.707 1.703 2.581 2.299-.263 1.247-1.341 3-2.415 3.281-4.112 1.075-8.388 1.509-12.545 2.441l-25.692 6.037-3.964.088-1.181.681c-1.801.044-3.631-.106-5.396.167l-17.47 2.954-3.07 1.925-4.951 3.058-3.027 1.949-5.858 3.135-4.15 2.83-5.942 3.058-1.948 1.099-7.11 3.885-1.945.816-5.878.05z" class="c"/><path d="M148.915 466.251c3.806 0 5.5 2.065 5.094 5.666-.587 5.204-1.54 10.367-2.135 15.571-.706 6.174-1.199 12.373-1.785 18.561l-5.115.043c-.658-7.65-.779-15.397-2.131-22.922-1.284-7.148 1.042-12.356 6.073-16.918zm6.311-184.551c-6.626-13.689-11.277-28.036-14.507-42.535-2.562 0-5.605.789-7.823-.222-2.211-1.008-3.694-3.748-5.305-5.873-1.068-1.41-1.542-3.312-2.721-4.589-8.385-9.08-7.651-21.172-10.774-31.982-1.08-3.738-1.937-7.551-3.214-11.22-1.72-4.942-1.392-9.87 2.182-13.385 3.998-3.931 9.496-3.136 14.187-.984 3.878 1.779 7.267 4.621 10.326 6.633-4.191-9.697 1.418-18.419 6.317-27.103 6.315-11.194 9.271-23.212 10.158-35.881.39-5.574.301-11.258 1.418-16.69 2.373-11.534 7.535-14.86 19.381-13.559l21.118 2.214c2.215 1.521 4.539 2.912 6.604 4.615 1.176.97 2.802 2.574 2.645 3.666-.18 1.252-1.931 2.808-3.315 3.253-3.255 1.045-6.729 1.39-10.051 2.26-1.345.352-3.414 1.132-3.628 2.065-1.02 4.451-2.148 9.041-2.015 13.546.126 4.254 1.007 8.866 2.969 12.576 1.935 3.658 3.65 6.375-.255 9.482l-5.707 1.315-.317 3.483-1.907.147c-1.462-.623-2.882-1.625-4.394-1.793-3.687-.41-9.521 4.452-9.836 6.93-.584 4.591-1.691 9.159-3.059 13.59-.8 2.591-2.527 4.896-3.836 7.33l-3.7 6.352 3.938 2.674 1.03.938 10.357 6.896-2.547.636c4.181 1.698 8.494 2.054 12.459 3.417 2.158.742 4.849 2.985 5.213 4.938.299 1.606-2.289 3.976-3.966 5.636-1.095 1.084-2.849 1.506-4.308 2.224 12.072 2.243 22.681-1.381 32.926-6.712 1.668 4.235 2.543 7.761-1.692 10.49-.73.471-1.031 1.652-1.455 2.54-2.029 4.244-4.964 7.435-9.894 8.029-9.347 1.127-17.341 5.228-24.487 11.093-1.461 1.199-3.412 3.134-3.33 4.63.266 4.804-3.072 6.324-6.037 8.713-1.586 1.278-3.375 4.702-2.729 5.938 3.107 5.945.644 10.383-3.17 14.335-3.327 3.447-3.747 6.779-2.453 11.275.747 2.599-.465 5.759-.795 8.666zm-34.097-65.612l.921 2.429.03.168 14.264 6.287c-.485-2.007-.455-2.585-.728-2.908-5.781-6.858-7.215-13.808-3.116-22.508 2.779-5.9 3.367-12.977-2.403-18.482-4.224-3.137-8.542-5.536-14.064-1.414 1.638.17 3.214-.123 4.092.525 1.533 1.131 3.807 2.933 3.701 4.293-.316 4.049-1.175 8.201-2.668 11.98-2.629 6.654-3.115 13.08-.029 19.631z" class="i"/><path d="M281.801 315.579c-3.649 3.228-7.134 6.665-10.977 9.643-11.193 8.675-23.819 11.708-38.031 10.752-18.224-1.226-32.865-9.179-45.789-21.281a3.85 3.85 0 0 0 .031.036l-2.898-2.865c-.456-.687-1.261-1.356-1.297-2.065-.081-1.594.219-3.208.364-4.813 1.49.762 3.23 1.263 4.388 2.371.846.809.872 2.438 1.359 3.663 1.538 3.865 8.41 9.237 11.019 9.089 2.568-.145 5.42-.367 7.705.546 5.896 2.355 11.357 2.62 15.862-2.295 4.995-5.45 13.926-6.191 16.59-13.768l-3.246-2.657h13.578c-4.649-.781-8.835-2.108-12.988-2.014-4.514.102-8.998 1.524-13.496 2.37l-7.717 1.638c-2.157-.079-4.595.453-6.405-.377-2.805-1.287-7.235-3.422-7.312-5.343-.158-3.974 4.373-3.981 7.612-4.437 2.493-.351 4.997-.618 7.904-.972l-2.105-4.825c15.235 3.572 30.411 3.892 45.369-1.25 2.083-.716 3.755-2.622 5.617-3.977l-.024.02.955-1.196c.894-2.856 3.538-5.715-.011-8.566 4.253.374 8.508 1.013 12.757.972 1.365-.013 3.04-1.597 3.928-2.9.432-.635-.452-3.186-1.035-3.295-1.797-.335-3.735.088-7.177.324l4.655 1.519c-7.353 3.013-13.262 2.544-18.381-.208-11.492-6.179-24.223-.736-35.881-4.495-.649-.209-1.554.559-2.359.619-6.752.501-13.406 4.324-21.122.284h3.716c4.753-.006 9.625.384 13.077-3.933l2.999-1.993 11.081.517c3.494.096 7.309.964 10.427-.113 7.865-2.716 15.143-2.164 21.762 2.551 4.977 3.545 9.833 1.829 14.931 1.227 2.331-.276 5.08-.116 7.125.889 5.249 2.58 10.211 5.743 15.288 8.673.707-1.908.682-3.222.065-4.14-2.021-3.009-4.161-5.952-6.434-8.778-3.428-4.262-2.901-12.632.684-14.769 2.831-1.687 5.573-3.85 7.666-6.371 3.581-4.315 6.436-9.227 9.981-13.575 1.446-1.773 3.739-3.424 5.921-3.915 4.583-1.031 9.347-1.257 14.55-1.875l-2.22 17.773c-2.652 8.769-4.964 17.659-8.024 26.284-6.674 18.808-15.277 36.586-29.829 50.812-4.875 4.765-10.533 8.176-18.218 9.798l4.211-9.134 1.992-3.997.563-1.219-.391-.133-.258 1.28-2.109 3.897z" class="u"/><path d="M188.923 137.988c3.904-3.107 2.19-5.823.255-9.482-1.962-3.71-2.843-8.323-2.969-12.576-.133-4.505.995-9.094 2.015-13.546.214-.933 2.283-1.713 3.628-2.065 3.322-.87 6.796-1.215 10.051-2.26 1.384-.444 3.135-2.001 3.315-3.253.157-1.092-1.469-2.696-2.645-3.666-2.065-1.703-4.389-3.094-6.604-4.615l40.155.712 64.72.059c8.906.003 11.765 2.658 12.793 11.882-3.308 4.308-7.468 4.536-12.769 4.408-6.732-.163-13.527 2.062-20.284 3.32-1.778.331-3.492 1.141-5.273 1.298l-20.036 1.479c4.286 5.219 3.392 7.303-4.079 8.532-1.921.316-3.87.469-5.81.67l-8.564.846c5.436 1.565 10.671 2.079 15.907 2.596 2.783.275 5.633 1.078 8.334.727 6.362-.826 12.618-2.474 18.982-3.289 8.875-1.137 17.771-1.487 26.195 3.776l-10.977 1.411c1.255 5.594 5.316 7.869 10.546 9.392 8.201 2.389 10.381 5.684 10.106 13.782l-8.06-3.928c-3.521-1.999-6.856-4.494-10.6-5.902-10.279-3.864-20.455-2.18-30.494 1.43-10.725 3.857-21.293 4.201-32.45.651-8.045-2.56-16.766-3.511-25.255-4.008-6.656-.39-13.418 1.014-20.132 1.621z" class="v"/><path d="M315.915 148.124c.275-8.097-1.905-11.393-10.106-13.781-5.23-1.523-9.292-3.799-10.546-9.392l10.977-1.411c-8.424-5.264-17.32-4.913-26.195-3.776-6.363.815-12.619 2.463-18.982 3.289-2.701.351-5.551-.452-8.334-.727-5.235-.517-10.471-1.03-15.907-2.596l8.564-.846c1.939-.2 3.888-.354 5.81-.67 7.471-1.229 8.364-3.313 4.079-8.532l20.036-1.479c1.782-.157 3.495-.967 5.273-1.298 6.757-1.257 13.552-3.483 20.284-3.32 5.301.128 9.461-.1 12.769-4.408l5.398 36.866c.614 3.624 2.204 7.28 4.124 10.453 6.675 11.027 11.189 22.495 10.963 35.725-.065 3.785 2.438 7.642 3.892 11.417 1.215 3.152 2.618 6.232 3.938 9.343-5.909 10.991-5.886 10.809-18.534 9.192-3.864-.494-7.894.312-12.461.555 2.586 5.489 4.638 10.293-.678 13.395-7.229 4.218-13.847 10.188-23.432 9.437 2.013 6.552 4.086 12.643 5.732 18.846 1.545 5.82-1.535 8.619-7.393 7.014-1.431-.392-2.764-1.139-4.193-1.544-2.625-.744-5.255-1.669-7.942-1.943-3.351-.342-6.762-.103-10.146-.114-3.512-5.448-8.443-6.589-14.559-5.287-6.877 1.464-13.891 2.719-19.655-1.811l5.149-15.626 3.117.828 4.338 15.806c1.924-1.735 3.852-3.603 5.925-5.295 1.21-.988 2.715-2.482 3.976-2.38 3.889.315 6.821-.769 8.923-4.046 1.457.652 3.483.902 4.278 2.023 5.107 7.198 12.992 5.994 20.127 7.382.635-9.289-3.843-13.329-14.621-13.572.685-1.068 1.688-3.149 2.007-3.049 3.786 1.184 3.738-1.95 3.909-3.758.824-8.724-.809-16.787-7.836-22.982.581 2.271 1.577 4.354 2.687 6.374 1.232 2.241 1.793 4.133-1.724 4.529-1.448-2.305-3.075-4.519-4.298-6.937-1.633-3.226-3.817-3.736-6.791-2.001l-3.025-9.93-1.962-5.053-.08-1.92c2.065-10.129-3.66-17.551-8.781-25.183l3.979.117c1.597 2.22 3.421 4.315 4.734 6.691 1.645 2.975 2.871 6.181 4.277 9.288 3.7 3.994 3.327 11.119 9.933 12.88l18.424 32.233c8.388-5.569 18.838-1.198 25.547-9.717l-12.535-13.645c1.927 0 3.81-.518 5.205.087 6.92 3.001 13.337-.485 19.909-1.394 1.266-.175 2.895-2.374 3.191-3.87.522-2.638.146-5.452.146-8.211l-12.998-1.536c3.022-1.271 5.96-3.32 9.082-3.655 7.248-.778 8.525-1.502 7.939-8.676-.939-11.498-5.392-21.321-14.929-28.397zm96.952 109.822l3.766-4.616c7.004 13.015 14.071 25.076 20.089 37.638 5.742 11.985 10.461 24.464 15.502 36.778 4.774 11.662 3.652 21.187-3.975 26.646-4.177 2.99-9.315 4.866-14.263 6.52-17.392 5.812-35.197 9.609-53.649 9.638-7.457.012-13.9-4.674-16.481-11.829 1.649-2.691 2.694-6.206 5.054-7.925 8.595-6.261 18.966-7.022 29.146-8.186 4.985-.57 9.939-1.417 14.906-2.139l1.748.009c2.813 3.469 5.165 1.621 6.506-1.104 1.116-2.27 1.614-5.099 1.538-7.656l-1.817-51.102c-.163-8.623-1.823-16.371-8.071-22.67z" class="f"/><path d="M244.01 165.928c5.12 7.633 10.846 15.055 8.782 25.183-.607-1.68-1.645-3.335-1.747-5.044-.364-6.143-5.71-9.666-10.996-6.396-5.719 3.538-10.85 8.017-16.27 12.043-2.453 1.822-4.985 3.539-7.923 5.616v6.289l5.147 1.282-5.86 8.09-1.239-5.459-7.731 9.41 5.772 4.947.052 3.062-.033 2.007c-3.602 1.768-7.734 2.925-10.668 5.463-3.552 3.071-6.25 7.197-9.021 11.077-2.618 3.665-5.468 6.06-10.373 6.558-10.657 1.082-15.193 6.49-13.747 14.904.385 2.239.058 4.6.058 7.643l11.94 4.506c1.416-3.902 2.764-7.228 3.826-10.643 1.424-4.577 4.219-7.586 8.968-8.655-2.086 2.892-4.71 5.541-6.15 8.724-3.226 7.128-2.064 15.774-7.513 22.248-.515.612-.324 1.929-.25 2.903.379 5.013-2.584 6.897-6.928 6.985-2.587.053-5.189-.657-7.785-1.024l-9.096-15.948c.329-2.905 1.541-6.065.794-8.664-1.293-4.496-.874-7.828 2.453-11.275 3.815-3.952 6.277-8.39 3.17-14.335-.646-1.236 1.143-4.66 2.729-5.938 2.965-2.389 6.303-3.909 6.037-8.713-.083-1.496 1.869-3.431 3.33-4.63 7.146-5.865 15.14-9.966 24.487-11.093 4.93-.595 7.865-3.785 9.894-8.029.425-.888.725-2.07 1.455-2.54 4.235-2.729 3.36-6.256 1.692-10.49-10.245 5.33-20.854 8.954-32.926 6.712 1.459-.718 3.213-1.14 4.308-2.224 1.677-1.66 4.264-4.031 3.966-5.636-.363-1.953-3.054-4.196-5.213-4.938-3.966-1.363-8.278-1.719-12.459-3.417l2.547-.636-10.358-6.894 4.008-.085 3.79-.993h3.197l1.893.185c.386.856.623 1.831 1.191 2.542.995 1.246 2.747 2.151 3.196 3.52 1.033 3.155 3.115 3.98 6.058 3.921 2.827-.056 5.656.016 8.485.032 2.053.258 4.171.971 6.145.687 5.295-.759 10.528-1.944 15.786-2.96 4.303 3.383 8.633 2.713 12.319-.673 4.994-4.588 5.323-10.962 5.521-17.241l1.15-1.931 2.107-1.024 8.032.989z" class="g"/><path d="M266.924 343.615c1.868-2.552 3.747-3.66 6.303-.607.606.723 2.302 1.074 3.312.831 5.424-1.308 10.596-.949 16.106.215 3.267.69 7.269-1.179 10.713-2.494 3.51-1.34 6.633-3.685 10.135-5.055 2.057-.804 5.136-1.564 6.695-.613 5.298 3.23 9.3.85 13.739-1.651 5.842-3.292 11.614-.467 17.405-.058l.123 1.26-3.733 1.924 8.187.566.012 1.439 3.413-3.149c-3.685 12.273-.252 22.629 2.878 33.16-6.901-4.605-6.475-12.013-7.946-19.866-.926 9.784-.972 18.153 6.477 24.466-5.911 4.101-9.372 3.601-12.315-1.58l-3.506 10.322-1.05-.223 1.156-10.762-1.315-.176-5.922 43.873-25.897-.006v-2.962h22.34l.001-2.031h-21.353l.011-2.962 19.906.006c.283.049.566.121.851.128.051.001.197-.302.152-.392l-3.905-7.755.027.035-2.027-3.026.028.033c-3.128-6.209-7.046-11.63-14.026-13.991l.034.034-.015-2.068c1.888-.313 3.839-1.092 5.652-.849 4.909.657 6.941-1.848 7.863-6.116.764-3.536 1.508-7.089 2.537-10.552 2.17-7.3.772-9.105-6.792-8.319-.972.101-1.927.427-2.87.714l-11.209 3.461c.295-1.416.491-2.002.526-2.597.117-1.971.176-3.946.258-5.919-2.118.409-4.27.689-6.346 1.252l-14.055 4.016c-4.605 1.194-9.287 2.089-13.908 3.224-1.899.467-3.728 1.218-5.589 1.841l-.092-.106c-.459-1.596 3.106-3.881-.839-4.879l.913-4.998c-.549-2.547 1.599-6.256-3.045-7.037zm57.011 41.877c-.379-.245-.755-.494-1.146-.716-.015-.008-.178.244-.272.375l1.339.432 4.574 5.139 2.529-6.546-7.024 1.316zm20.317-40.081c-10.713 15.95-13.264 33.413-8.687 52.059-1.894-18.13 2.52-35.168 8.688-52.059zm-5.417 35.695l9.676-35.645c-6.378 11.098-9.541 23.012-9.676 35.645zm-60.896-35.182l-.065 1.425c20.144 1.66 22.958 1.312 27.055-3.757-5.378 4.421-11.277 2.435-17.122 1.955-3.257-.268-6.576.226-9.867.377zm62.273-1.197l1.206.567 4.107-8.474-1.327-1.84-11.67 1.874.211 1.309c7.595-1.43 8.604-.544 7.473 6.564zm8.274 7.296l.985.754 5.289-11.438-1.42-.617-4.853 11.301z" class="w"/><path d="M164.323 297.646c2.596.367 5.198 1.077 7.785 1.024 4.343-.089 7.306-1.972 6.928-6.985-.074-.974-.265-2.291.25-2.903 5.449-6.474 4.286-15.12 7.513-22.248 1.441-3.183 4.064-5.832 6.151-8.724l1.972-1.13c2.93.801 5.827 1.763 8.798 2.356 2.837.566 5.746.951 8.632 1.014 1.541.034 3.1-.781 4.65-1.212l-1.921 4.212c-4.159 1.617-8.001 1.157-11.673-1.477-1.322-.948-3.082-3.674-4.383.157l-2.963 2.147c-3.529 1.362-4.188 4.012-1.608 6.319 2.344 2.095 5.638 3.132 8.512 4.635l2.051 4.005-.044-.058 4.053 5.959c-1.206 5.268-5.151 4.313-8.715 3.608-7.712-1.525-10.725 1.136-9.456 8.549.222 1.297.108 2.651.167 3.978.145 3.294 1.152 4.679 4.701 2.815 2.815-1.478 5.682-2.149 8.123 1.517.775 1.164 3.889 1.13 5.9 1.023 2.1-.112 4.161-.972 6.238-1.505l-4.934 2.799 1.55 1.851c5.9.789 11.647.637 16.787-2.526l-1.451-4.612 8.946-.297 3.246 2.656c-2.664 7.577-11.595 8.318-16.59 13.768-4.505 4.915-9.966 4.65-15.862 2.295-2.286-.913-5.137-.691-7.705-.546-2.609.148-9.481-5.225-11.019-9.089-.488-1.225-.513-2.854-1.359-3.663-1.158-1.108-2.898-1.61-4.388-2.371-.145 1.606-.445 3.219-.364 4.813.036.708.841 1.378 1.296 2.064l.072 1.839-7.245.048-12.64-16.104z" class="n"/><path d="M262.906 257.818c3.385.012 6.796-.228 10.147.115 2.687.274 5.318 1.199 7.942 1.943 1.429.405 2.762 1.152 4.193 1.544 5.857 1.605 8.937-1.194 7.393-7.014-1.646-6.203-3.719-12.293-5.732-18.846 9.584.751 16.203-5.219 23.432-9.437 5.316-3.102 3.264-7.906.678-13.395 4.567-.243 8.597-1.049 12.461-.555 12.648 1.617 12.625 1.799 18.534-9.192 3.543 4.456 2.153 8.966-.032 13.356-1.231 2.473-2.865 4.747-3.827 8.257l12.823-5.64c0 0-.025.031-.025.031l1.027-2.045-.042.048 1.009-1.026 1.01-6.046c3.205.551 3.666 2.625 2.421 5.075-2.279 4.487-4.914 8.793-7.225 13.265-1.248 2.414-2.133 5.014-3.183 7.53l-7.928 4.138-4.116-1.934 2.22-17.773c-5.202.618-9.967.844-14.55 1.875-2.182.491-4.475 2.142-5.921 3.915-3.545 4.349-6.4 9.26-9.981 13.575-2.092 2.521-4.835 4.684-7.666 6.371-3.585 2.137-4.112 10.507-.684 14.769 2.273 2.826 4.413 5.768 6.434 8.778.617.918.641 2.232-.065 4.14-5.077-2.93-10.038-6.093-15.288-8.673-2.045-1.005-4.794-1.165-7.125-.889-5.098.603-9.953 2.319-14.931-1.227-6.619-4.714-13.897-5.267-21.762-2.551-3.118 1.077-6.933.209-10.427.113-3.696-.102-7.387-.339-11.081-.517a182.34 182.34 0 0 0-.187-.231c3.38-4.131 7.515-3.104 11.829-1.927 2.774.757 5.91 2.895 8.277-.892 6.086-2.456 12.041-3.363 17.689 1.197.419.338 1.493-.133 2.262-.228z" class="h"/><path d="M206.051 363.528c-.396-.87-.96-1.704-1.153-2.617-.369-1.751-.526-3.547-.771-5.324 1.839-.211 3.901-1.064 5.479-.521 6.554 2.257 12.962 4.936 19.423 7.461l1.031 4.857-6.883.46c12.6 3.754 24.166 4.296 35.541-2.478 2.065-1.229 3.07-.734 3.14 1.657l-.767 1.464-2.14 2.106-2.881 2.866-1.759.94c-4.421 1.659-8.988 3.027-13.187 5.128-1.532.767-2.189 3.276-3.245 4.99h-29.5l-.06 1.292 8.674 1.701-1.977 1.994h-11.659l-.073 1.195 3.716 1.798-.978 1.994-8.012.009c3.252-4.161-1.258-8.443.389-13.182l-7.664-1.1c4.818-4.013 10.672-4.383 17.044-5.462l-1.821 4.735-2.247.252.2.707 2.111-.882 11.835-7.626-.855-1.299c-9.496-.923-17.458 4.142-26.037 6.795l.048-1.939-.076-2.138c1.239-2.537 1.265-4.671-1.911-5.744 2.39-1.902 4.673-3.967 7.223-5.623.952-.618 2.587-.572 3.802-.316 2.023.426 3.959 1.266 5.931 1.932l2.778.905.207-.986h-2.917zm-4.062 18.19c-.12.078-.291.133-.342.244-.032.07.116.222.183.337l.537-.416-.378-.165z" class="x"/><path d="M412.867 257.946c6.248 6.3 7.908 14.047 8.071 22.67.322 17.039 1.305 34.065 1.817 51.102.077 2.556-.421 5.386-1.538 7.656-1.34 2.725-3.693 4.573-6.506 1.104l-1.906-.85.083.069-3.089-5.902c-.648-9.027-1.709-18.048-1.834-27.082-.141-10.226.54-20.464.897-30.696.19-5.457-1.426-10.058-6.066-13.304l10.071-4.769z" class="v"/><path d="M364.089 215.921l-17.816-16.21c-6.429-6.142-9.883-13.497-8.52-22.687.647-4.362.86-8.788 1.296-13.472l3.906-.418c-.001 0-.09-.067-.09-.067.115.651.031 1.439.375 1.931 3.077 4.409 3.099 4.828-.026 9.392 5.425 3.915 6.094 6.366 3.131 12.612 9.77-.181 18.912 1.748 27.35 6.449a3.98 3.98 0 0 1 .14.11l2.072 1.506-.084-.082 1.023 1.925c3.356 4.257 4.473 9.132 4.021 14.449-.423 4.973-3.641 7.333-8.557 6.275l-8.22-1.712z" fill="#d7a27e"/><path d="M231.063 468.382l-4.051 1.929h-28.478l-.266 1.92c1.675.356 3.335.877 5.029 1.035 4.215.396 8.446.626 12.671.923l-21.873 4.908c-.816.161-2.793-1.487-2.895-2.439-.606-5.615-1.869-11.458-.91-16.87 1.41-7.957 4.502-15.617 6.876-23.403l18.723-.05-.001 3.11h-17.745l.066 2.645c5.943.032 11.851 1.362 17.851-.739l.83 3.08h-18.754v2.877h18.753l.232 1.93-18.935.458.038 2.652h19.796l7.068-.873c1.561.295 3.119.827 4.685.847l25.293.112-2.103 1.917-49.319.014c-1.326.001-2.687-.088-3.961.191-.602.132-1.52 1.132-1.434 1.571.151.772.844 1.828 1.524 2.022 1.235.352 2.627.188 3.953.19l44.336.072-3.081 1.923c-15.565.284-31.174-.6-46.708.495l.016 2.567h41.769L237 465.323c-6.634-.001-13.273-.181-19.899.047-6.281.217-12.72-.979-18.88.687l.057 2.325h32.784z" class="d"/><path d="M263.319 339.675c-3.121 9.705-14.127 17.085-24.154 18.068-12.345 1.21-23.032-2.703-32.54-9.589-5.045-3.654-8.624-9.324-12.512-14.812 22.515 9.36 45.21 14.107 69.206 6.334z" class="j"/><path d="M259.9 429.79c.625 6.609-.928 12.252-7.138 15.579-6.815 3.65-12.98 2.053-17.055-4.802-4.766-8.017-6.121-16.795-3.641-25.848 1.654-6.035 5.709-9.072 11.192-9.245 7.663-.241 11.143 1.843 13.714 8.553 1.168 3.049 2.188 6.194 2.847 9.383.427 2.067.08 4.293.08 6.381zm-8.423 2.115c-.229-3.275.004-6.175-.727-8.81-.894-3.221-2.105-6.587-4.084-9.209-2.051-2.718-4.513-2.088-5.981 1.289-2.009 4.623.019 19.219 3.28 22.699 2.397 2.558 5.989 1.767 6.911-1.621.427-1.568.457-3.243.6-4.348z" class="y"/><path d="M412.964 340.47l-14.906 2.139c-10.18 1.165-20.551 1.925-29.146 8.186-2.359 1.719-3.405 5.234-5.054 7.925-3.531-5.983-3.105-12.556-2.86-19.102.621-.187 1.345-.227 1.847-.582 12.407-8.766 25.697-13.183 40.891-8.396l9.154 9.056c0 0-.083-.069-.083-.069-.018.293.035.574.158.841z" class="v"/><path d="M401.788 254.597c3.109-7.528 2.418-14.981-.272-22.466-1.897-5.279-4.858-9.189-10.373-9.469l1.714-5.707 5.069-4.936-.026.025c3.208-2.112 6.102-4.343 2.594-9.019l1.534-.329c.95 1.406 2.403 2.693 2.768 4.236 2.066 8.743 5.887 16.56 10.538 24.271 7.668 12.712 3.409 20.041-10.545 27.455l-1.057-1.882 4.537-3.131-.418-.707-6.063 1.658zm6.664-2.743l.568 1.091 2.26-1.273-.35-.749-2.478.93zm3.996-2.612l.644.585c.217-.342.513-.663.614-1.036.043-.157-.325-.425-.505-.643l-.753 1.094z" fill="#c9c8c9"/><path d="M397.926 212.02l-6.34 2.775-4.758 2.093 1.507-4.041c6.218-12.792-.338-29.579-14.522-30.959l-7.916-.778 6.273-3.486-.268-.757-11.341 4.398c-1.072.425-2.111 1.461-3.123 1.407-2.457-.13-4.888-.734-7.33-1.147 1.353-1.845 2.316-4.597 4.128-5.373 6.393-2.736 13.077-4.795 19.65-7.111l4.055-2.97c4.918 6.923 10.185 13.633 14.619 20.852 2.531 4.121 4.241 8.952 5.317 13.69.823 3.626.074 7.609.024 11.433 0 0 .026-.025.026-.025z" class="f"/><path d="M189.027 367.617c3.176 1.073 3.15 3.208 1.911 5.746l-17.901 9.114-.017 2.058.014-.015c-4.766.029-7.07 3.385-9.798 6.847 13.78.098 16.555.832 15.091 14.171l2.643-1.088-2.098 6.975-6.809 1.017c-1.425-2.162-2.742-4.407-4.315-6.456-1.044-1.361-2.456-2.441-3.703-3.645l-.421-4.465-10.595 4.611.015-.016-2.87-.041c.758-7.347 6.052-10.952 11.43-14.369l-7.732-3.006 5.267-4.258c1.099.356 2.445 1.311 3.258.976 6.027-2.484 11.966-5.186 17.869-7.953.493-.231.524-1.444.77-2.201l7.99-4.001z" class="e"/><path d="M402.797 262.715c4.64 3.246 6.256 7.847 6.066 13.304-.357 10.232-1.038 20.47-.897 30.696.125 9.034 1.186 18.055 1.834 27.082-5.277-7.568-7.233-16.326-7.868-25.193-1.067-14.915-4.331-29.23-9.682-43.465l10.547-2.424z" fill="#c79474"/><path d="M179.232 435.223c9.846 7.612 8.218 17.879 6.355 27.539l-16.626-4.582.866-3.968h-24.92l-.014-1.697 24.192-.001c-1.037-1.66-1.358-2.65-1.706-2.66l-23.224-.438.001-2.109c2.161.019 4.33.15 6.485.035l15.423-1.009 3.336 1.791.573-1.474-4.434-1.269a1.03 1.03 0 0 1-.507-.625c.589-3.501-.902-4.926-4.377-4.369-1.508-2.654-.744-3.874 2.321-4.037 1.682-.089 3.338-.664 5.006-1.019l6.117 1.058c1.276-.151 2.468 3.953 3.817.074l1.318-1.24zm-3.237 17.057l.57-1.059-4.721-2.643-.631 1.195 4.782 2.507zm5.045-8.373l.708-.346-1.155-2.351-.691.337 1.138 2.36zm-5.707-2.835l-.128.387.567.062c-.032-.137-.03-.3-.108-.402-.048-.063-.217-.034-.331-.047z" class="d"/><path d="M190.735 380.219l7.664 1.1c-1.647 4.739 2.863 9.021-.389 13.182l-.995 1.994-1.085 1.929-1.623 4.055h46.667l-6.938 3.026-8.324.146-1.576-.093-1.149.659-6.049.069c-8.377-1.625-16.703-.729-25.044-.542v1.719h20.068l-.065 2.935h-22.23v2.058h17.36l-.129 2.929-23.706.961-1.207-1.922-.98-1.015 1.298-6.972c.773-.244 1.92-.247 2.26-.772 2.581-3.989 5.005-8.081 7.477-12.141l1.312-.405-.26-.385-1.092.745-4.959 3.047-1.057-1.054c1.872-2.408 3.872-4.729 5.583-7.246 2.183-3.211 1.961-5.593-2.655-5.859l-.041-2.087 1.865-.066z" class="e"/><path d="M365.897 181.109l7.916.778c14.184 1.38 20.74 18.167 14.522 30.959-.626 1.287-1.011 2.691-1.507 4.041-4.151 1.676-8.185 3.803-12.483 4.91-4.904 1.264-8.432-1.134-10.256-5.876l8.22 1.712c4.916 1.059 8.134-1.301 8.557-6.275.452-5.317-.665-10.191-4.021-14.449l-1.023-1.925.084.082-2.072-1.506-.14-.11-9.757-6.57-.03-4.785 1.99-.986z" class="g"/><path d="M311.897 415.432l25.897.006-2.994 12.989-45.806-.01-.101-1.083-.047.066 2.069-.985c16.764.026 16.764.026 18.804-2.929h-18.674l-.006-2.101c5.154.017 10.314.178 15.457-.043 1.455-.063 2.861-1.245 4.29-1.913-1.439-.659-2.874-1.88-4.319-1.891l-45.387-.033-.209-1.985 51.027-.086zm-114.882-18.936l.995-1.994 8.012-.009c4.804.003 9.614.146 14.412-.033 4.447-.166 9.083.789 13.302-1.798-8.96-.82-17.836-2.088-26.736-.163l-3.716-1.798.073-1.195h11.659 16.645c-4.068-3.635-4.068-3.635-14.668-1.995l-8.674-1.701.06-1.292h29.501l1.07 7.251c1.046 7.766 5.371 10.34 12.997 7.714l17.901-.051.136 3.012-21.039.041-7.971-.005h-46.667l1.624-4.055 3.1 1.053 18.363-.013c5.803-.09 11.681.422 17.426-.336l-.088-2.607H201.05l-4.033-.027z" class="d"/><path d="M403.736 330.641c-15.194-4.787-28.484-.37-40.891 8.396-.502.354-1.226.395-1.847.582-.02-.164-.081-.334-.055-.491 1.79-10.896 11.193-20.023 22.071-21.417.978-.125 1.967-.248 2.949-.237l11.044.22c6.189.136 3.072 5.794 4.989 8.493.896 1.262 1.18 2.956 1.741 4.454z" class="i"/><path d="M220.154 449.099c-1.078-8.36-1.955-16.477-3.329-24.509-.226-1.323-2.637-2.273-4.657-2.879-1.721-2.361-4.681-5.385.942-7.509 1.232-.465 1.731-2.866 2.632-4.492l7.986-.793 4.193 33.153c.795 7.555.514 7.584-7.766 7.029z" class="y"/><path d="M162.068 488.314c1.476-4.642 3.649-9.2 4.217-13.95.496-4.142-.818-8.499-1.332-12.761 4.8.82 9.819 1.02 14.344 2.617 5.667 2 8.027 9.124 5.314 14.374-.761 1.472-2.338 2.952-3.877 3.519-6.15 2.262-12.432 4.165-18.665 6.201z" class="f"/><path d="M288.993 428.416l45.806.01-1.001 7.953-7.992-.011c-.657-3.94-3.553-3.686-6.381-3.267-4.202.622-8.38 1.409-12.569 2.125-1.311-.609-2.606-1.7-3.936-1.744-5.619-.186-11.248-.06-16.874-.047l2.946-5.02z" class="w"/><path d="M230.061 367.384l-1.031-4.856c15.698-.182 28.896-5.356 37.894-18.913 4.644.781 2.496 4.491 3.045 7.037l-6.039 5.895-.371-1.896-18.344 9.068c-.042.021.461 1.116.709 1.71l-15.863 1.955zm35.586-17.033l-.444-.014-.071 1.544.515.014v-1.543z" class="e"/><path d="M248.061 458.41l-44.336-.072c-1.326-.003-2.717.162-3.953-.19-.679-.194-1.373-1.25-1.524-2.022-.086-.439.832-1.439 1.434-1.571 1.273-.279 2.635-.19 3.961-.191l49.319-.014-4.901 4.06z" class="l"/><path d="M165.03 444.755a1.03 1.03 0 0 0 .509.625l.524.953-15.423 1.009c-2.155.115-4.323-.016-6.485-.035l.078-2.899h9.225l.106-1.096-9.318-.973-1.082-2.892 13.139-.126c.609-.02 1.187-.944 1.78-1.449l-1.142-1.521-13.785-.017-.002-2.875 22.949-.003 1.876 1.874c-1.668.356-3.324.93-5.006 1.019-3.065.163-3.829 1.383-2.318 4.037l4.374 4.369z" class="e"/><path d="M261.079 417.503l45.387.033c1.445.012 2.879 1.232 4.319 1.891-1.429.669-2.835 1.851-4.29 1.913-5.143.221-10.304.06-15.458.043-1.737-1.757-3.444-2.31-5.077.125l.057-.036-2.007.028-21.951-.119-.98-3.878z" class="l"/><path d="M351.9 159.038c-1.544-2.929-3.544-5.712-4.542-8.815-2.456-7.631-4.436-15.414-6.64-23.127-.912-3.192.255-5.34 3.174-6.69 1.628 3.332 4.131 6.489 1.775 10.55-.254.438.39 1.417.656 2.13l7.506 20.168c.319.881.083 1.963.104 2.952l-.057 1.957c0 0 .066-.063.066-.063l-2.108 1.021.065-.083z" class="i"/><path d="M311.897 415.432l-51.027.086-1.911-5.058 12.767-.01 1.196 2.046 9.946-.101 1.121-.766 3.934-.086c1.561.302 3.117.839 4.682.865l19.291.061v2.962z" class="l"/><path d="M341.047 161.07l-9.107-29.861c-.395-1.41 1.194-3.375 1.865-5.083 1.019 1.612 2.836 3.182 2.924 4.844.476 9.001 3.414 17.192 7.633 24.975 2.229 4.112.948 5.451-3.315 5.125z" class="i"/><path d="M213.925 426.426l.965 2.045-16.899.944-7.12 16.056-.951-.191 2.1-10.874-.691-.245-2.539 5.37-1.215.03-1.324-13.262 27.675.128z" class="d"/><path d="M355.853 156.151l6.097 2.575c.739.273 1.798.423 2.439.097 3.339-1.695 5.677-.283 7.762 2.202l-8.36 3.632-6.681 2.379-.136-1.868.724-1.527-1.44.72-7.772 3.176-.924-1.265 4.337-7.235c0 0-.066.082-.066.083l2.108-1.021-.066.063 2.073-2.048c0 0-.096.038-.096.038zm5.847 4.398l-.285-.81c-.289.133-.729.201-.822.418-.083.195.215.552.345.837l.761-.445z" class="i"/><path d="M353.934 156.205c-.021-.989.215-2.07-.104-2.952l-7.506-20.168c-.267-.713-.91-1.692-.656-2.13 2.356-4.061-.147-7.218-1.775-10.55 1.317.82 3.393 1.353 3.832 2.506 3.468 9.113 6.388 18.437 10.007 27.486 1.213 3.034 1.18 4.609-1.878 5.755 0 0 .096-.038.096-.038l-2.016.091z" class="r"/><path d="M240.056 463.395h-41.769l-.016-2.567c15.534-1.094 31.143-.211 46.708-.495l-4.924 3.062z" class="e"/><path d="M341.047 161.07c4.263.326 5.543-1.013 3.315-5.125-4.219-7.784-7.157-15.975-7.633-24.975-.088-1.661-1.905-3.232-2.924-4.844 2.953-2.145 4.283.044 4.991 2.235 3.297 10.21 6.648 20.416 9.439 30.769 1.116 4.14-2.555 3.971-5.37 3.938.001 0 .09.067.091.067l-1.909-2.064z" class="g"/><path d="M183.191 416.35l23.706-.961.178 2.006c-5.448.015-10.9-.099-16.337.144-1.225.055-2.393 1.354-3.588 2.08 1.149.606 2.283 1.702 3.449 1.737 5.772.171 11.552.061 17.329.051l-.035 2.078-21.756.007-.38-3.002-1.777 7.067-.789-.15V416.35z" class="d"/><path d="M231.063 468.382h-32.784l-.057-2.325c6.16-1.666 12.598-.47 18.88-.687 6.626-.228 13.265-.049 19.899-.047l-5.937 3.059z" class="e"/><path d="M255.065 452.433l-25.293-.112c-1.565-.02-3.124-.552-4.685-.847l7.024-2.087 8.94-.07c5.761.163 11.529.48 16.676-2.976.566-.38 1.672.041 2.527.091-.184.858-.081 2.016-.607 2.516-1.382 1.315-3.037 2.343-4.583 3.485z" class="o"/><path d="M144.906 454.212h24.92l-.866 3.968-9.854.199-14.066-.032-.136-4.134z" class="l"/><path d="M181.004 413.413l.98 1.015-.866 15.095c-5.317-4.705-6.461-11.303-9.055-17.082l6.811-1.017.001 10.038.702-.024 1.427-8.026z" class="o"/><path d="M146.142 410.412l.857-2.983h11.573l-.121-1.077-5.407-3.882-.014.016 9.886 2.033 4.209 4.862-9.152 1.119a2.6 2.6 0 0 1-.943-.252l-10.888.164z" class="l"/><path d="M207.929 421.407c-5.777.011-11.557.12-17.329-.051-1.166-.035-2.3-1.13-3.449-1.737 1.194-.726 2.363-2.026 3.588-2.08 5.437-.243 10.89-.129 16.337-.144l.853 4.012z" class="p"/><path d="M357.111 167.037l6.681-2.379 8.36-3.632 5.789 5.045-4.055 2.97-1.928-.231-1.159-1.735-.678-1.552-.303 1.555.059-.037-9.119 1.5c-1.171.089-2.429-.968-3.647-1.502z" class="r"/><path d="M157.972 410.5l9.152-1.12 5.901 12.169-.915.856-4.456-2.502-2.59-1.094-3.101-4.495-2.741-1.814-1.249-2z" class="q"/><path d="M215.967 474.189l-12.671-.923c-1.694-.159-3.354-.68-5.029-1.035l.266-1.92h28.478l-7.951 3.045-1.128.749-1.965.084zm-29.829-50.697l21.756-.007 3.986 1.495c.747.341 1.368.955 2.046 1.447l-27.675-.128-.112-2.806zm-41.984 25.924l23.224.438c.348.009.668 1 1.706 2.66l-24.192.001-.737-3.099z" class="e"/><path d="M145.042 458.346l14.066.032-7.179 3.052c-6.742 3.052-11.499 7.736-12.244 15.91-3.054-5.176-.727-9.348 8.474-16.309l-3.117-2.686zm-.835-34.871l.907-6.018 9.04-.074 2.904 4.064-.023-.037.067 1.984-12.895.08z" class="q"/><path d="M353.894 209.917l-1.01 6.046-1.009 1.026c0 0 .042-.048.042-.048l-1.027 2.045.025-.031h-5.78l5.331-12.909 3.427 3.872z" class="j"/><path d="M154.155 417.383l-9.041.074 1.027-7.045 10.888-.162.131 2.121-3.127 1.973.122 3.038z" class="d"/><path d="M143.155 431.348l-.01-2.873 16.895-.946 1.974.398 1.903 3.331-20.763.091z" class="e"/><path d="M181.036 371.618c-.246.757-.277 1.97-.77 2.201-5.903 2.767-11.842 5.469-17.869 7.953-.813.335-2.159-.619-3.258-.976l21.897-9.178z" class="k"/><path d="M218.019 452.347h-19.796l-.038-2.652 18.935-.458.9 3.11zm59.016-22.44l-.373 1.201c-2.308.638-4.729 1.033-6.914 1.973-4.95 2.13-6.481 1.159-6.685-4.61l13.972 1.435zm2.852-2.033l-1.45.629c-1.494-.694-2.948-1.856-4.491-1.99-3.605-.313-7.253-.133-10.884-.153l-1-2.877 19.9-.055-.983 2.068.042-.054-1.134 2.431zm-30.943-25.389l21.039-.041.863 2.973-15.949.126-5.954-3.058zm-32.057 44.822h-18.753v-2.877h18.754l-.001 2.877zm-.999-10.972l-18.723.05 1.051-2.867 16.677-.059.995 2.877z" class="e"/><path d="M165.064 418.812l2.59 1.091 4.586 7.222c2.165 2.825 4.645 5.41 6.991 8.098l-1.315 1.239-5.9-5.08.032.038-5.028-6.023c0 0 .032.04.032.04l-1.987-6.625z" class="p"/><path d="M216.059 441.35c-5.999 2.101-11.908.771-17.851.739l-.066-2.645h17.745l.171 1.905z" class="e"/><path d="M225.712 405.653l8.323-.146-6.305 12.543-2.019-12.397zm-13.751 1.812h-20.068v-1.719c8.341-.188 16.667-1.084 25.044.542l-4.976 1.178z" class="q"/><path d="M197.991 429.415l16.899-.944.002 2.877-16.716-.978c-.089-.313-.151-.632-.185-.955z" class="e"/><path d="M241.052 449.317l-8.94.07-1.951-11.385 10.891 11.315z" class="q"/><path d="M143.155 431.348l20.764-.089 2.185 2.198-22.95.002v-2.111zm63.871-18.888h-17.36v-2.058h22.23l-4.87 2.059zm-63.869 23.874l13.785.017 1.141 1.521c-.592.505-1.171 1.429-1.78 1.449-4.376.145-8.759.106-13.139.126l-.008-3.113z" class="d"/><path d="M144.207 423.475l12.894-.08 1.949 1.515a1.65 1.65 0 0 0 .467.5l.353.941-15.702.012.039-2.889zm127.518-13.024l-12.766.01-2.061-2.995 14.057-.015.77 3z" class="e"/><path d="M281.962 423.429l-19.9.055-.005-2.103 21.952.118-2.047 1.93z" class="d"/><path d="M176.964 313.751l7.244-.048 2.827 1.026-.031-.036.09 2.914-4.133 2.119-5.997-5.976z" class="s"/><g class="x"><path d="M162.916 404.519l-9.886-2.033 10.595-4.611.421 4.465-1.13 2.179z"/><path d="M153.045 402.471l5.407 3.882.121 1.077c-3.858 0-7.715 0-11.573 0l3.175-4.999 2.87.041z"/></g><path d="M198.176 430.37l16.716.978.002 2.11-16.678.059-.04-3.147zm-54.008-4.007l15.703-.012.17 1.178-16.896.945 1.023-2.111zm118.895-.002c3.631.02 7.279-.16 10.884.153 1.543.134 2.996 1.295 4.491 1.99l-1.402 1.404-13.972-1.435v-2.111zm7.891-18.91l-14.057.015-1.999-1.924 15.949-.125.107 2.034z" class="d"/><path d="M182.961 319.726l4.133-2.119 4.482 5.485-1.592 1.675-7.023-5.04z" class="j"/><path d="M144.247 442.339l9.318.973-.106 1.096h-9.225l.013-2.069z" class="p"/><path d="M322.905 137.172l6.011 5.97-.017.017-5.98-5.998z" class="j"/><path d="M363.907 182.095l.03 4.785-5.733-1.359 5.703-3.426z" class="f"/><path d="M138.048 135.164l-5.774 3.203-.474-1.19 6.261-2-.014-.013zm190.868 7.978l2.894 1.595-1.039 1.191-1.872-2.769.017-.017zm-186.603-11.875l1.746-1.834.676.638-1.744 1.835-.677-.639z" class="j"/><path d="M370.798 167.074l1.159 1.735-3.445.271 1.364-2.041c0 0-.059.037-.059.037s.491.02.491.02l.491-.023z" class="f"/><path d="M138.062 135.178l1.195-1.535.336.312-1.545 1.21zm8.973-8.994l-.36 1.304.382-1.282-.021-.022zm175.883 10.977l-.716-1.051.703 1.062z" class="j"/><path d="M222.986 406.219l1.149-.659-1.149.659z" class="q"/><path d="M217.932 474.104l1.128-.749-1.128.749z" class="d"/><path d="M147.056 126.206l.23-.404-.251.382a8.78 8.78 0 0 0 .021.022z" class="j"/><g class="c"><path d="M288.993 428.416l-2.947 5.019-2.312 5.042 23.123-3.251 12.569-2.125c2.828-.419 5.724-.673 6.381 3.267l-2.063.95c-1.202-.803-2.539-2.45-3.581-2.281l-40.413 7.024c.586-6.779 5.368-10.453 9.143-14.729l.101 1.083z"/><path d="M323.857 437.28c.475.697.873 1.924 1.437 2.006 4.353.63 4.143 2.444 1.515 5.063-.062-2.78-.887-4.244-4.118-3.038a545.15 545.15 0 0 1-20.202 7.081c-1.305.43-2.884.03-4.337.013.901-1.14 1.576-2.898 2.739-3.321 7.596-2.762 15.298-5.236 22.966-7.804zm-12.967 16.907c5.093-1.613 10.154-3.344 15.307-4.733.935-.252 2.248.895 3.387 1.396l-1.761 3.488c.015-2.847-.628-4.387-4.137-3.243-4.159 1.356-8.522 2.088-12.796 3.091zm-24.93-32.678c1.633-2.435 3.34-1.882 5.077-.125l.006 2.1-.13 2.93-2.069.985.873-5.443-3.758-.446z"/></g><path d="M324.832 467.46l2.842.956-.013 1.112-5.826 1.502 2.997-3.57z" class="f"/><g class="c"><path d="M281.962 423.429l2.047-1.93 2.007-.027-5.037 4.024.983-2.068zm-120.722 68.03l-2.242.732-.31-.729 2.263-1.132.289 1.129zm165.642-47.211l-2.145 1.015 2.145-1.015z"/><path d="M279.887 427.874l1.134-2.431-1.134 2.431zm-125.098 67.549c.159.225.46.468.425.643-.057.284-.334.524-.519.783-.156-.248-.446-.505-.431-.742s.335-.454.525-.684z"/></g><path d="M244.047 494.335l5.858-3.135 39.416.138c1.499.018 2.985 1.133 4.477 1.74-1.543.721-3.079 2.049-4.63 2.067l-40.914.057c-1.403-.007-2.804-.565-4.206-.868zm-19.15 10.872l7.11-3.885c1.738.301 3.474.849 5.214.861l34.388.101c4.241.066 8.47.826 12.705 1.27l-.013 1.653h-59.404zm9.058-4.983l5.942-3.058h52.187l.324 1.875c-1.732.396-3.463 1.128-5.198 1.136l-53.255.047zm18.977-10.973l4.951-3.058h36.779l.043 2.21c-6.653 1.86-13.589.569-20.37.799-7.127.242-14.268.051-21.403.049zM285 480.467l3.964-.088 6.769 1.676-.036 1.666c-11.526 1.223-23.17.223-34.744.546l17.47-2.954c1.765-.273 3.596-.123 5.397-.166l1.18-.682z" class="e"/><path d="M285 480.467l-1.18.682 1.18-.682z" class="d"/><path d="M188.923 137.988c6.715-.607 13.476-2.011 20.132-1.621 8.489.497 17.21 1.448 25.255 4.008 11.156 3.551 21.725 3.206 32.45-.651 10.039-3.61 20.216-5.294 30.494-1.43 3.745 1.408 7.079 3.903 10.601 5.901-8.294-1.371-16.511-2.708-25.024-1.001-5.185 1.04-11.098 2.331-15.816.817-5.562-1.786-6.339.575-7.416 4.961l-29.602 1.332v-6.8l-2.304 3.346-2.196-3.257c-2.302.157-3.646.306-4.992.329-3.037.053-6.407-1.184-8.51 2.298l-29.097-3.435.317-3.483 5.707-1.315z" class="f"/><path d="M182.9 142.786l29.097 3.434c1.543.289 3.076.731 4.632.836 2.755.186 4.236 1.929 5.502 4.043l-2.306 9.539-14.851-3.393c-9.926-5.131-20.001-7.603-30.776-2.305-1.419.698-3.456.143-5.207.169.274-1.084.19-2.581.884-3.184 3.597-3.123 7.392-6.018 11.118-8.993l1.907-.147zm-52.803 38.288c5.769 5.505 5.182 12.582 2.403 18.482-4.098 8.7-2.664 15.65 3.116 22.508.273.324.243.901.728 2.908l-14.263-6.287 6.783.622c-1.648-3.956-2.669-7.303-4.362-10.268-2.869-5.026-2.592-9.238 1.477-13.579 3.707-3.954 6.692-8.474 4.118-14.386z" class="c"/><path d="M130.097 181.074c2.574 5.913-.411 10.432-4.118 14.386-4.069 4.341-4.346 8.553-1.477 13.579 1.693 2.965 2.713 6.312 4.362 10.268l-6.783-.622c-.001 0-.031-.168-.031-.168l-.921-2.429c-3.086-6.551-2.6-12.977.029-19.631 1.493-3.779 2.352-7.931 2.668-11.98.106-1.36-2.168-3.161-3.701-4.293-.878-.648-2.453-.355-4.092-.525 5.522-4.122 9.84-1.723 14.064 1.414z" class="g"/><path d="M180.992 142.934c-3.726 2.975-7.522 5.869-11.118 8.993-.694.603-.609 2.1-.884 3.184 0 0 .031-.032.031-.032l-.889 2.848v5.393l3.826-.259 1.045 4.01c-.058.3-.184.567-.376.803l-2.89 2.046-.821 2.987c0 0-.056.052-.056.052l-2.79 2.11-.928 3.801-4.008.086-1.029-.939 1.502-2.017-1.739-7.01c1.31-2.434 3.036-4.74 3.836-7.33 1.368-4.431 2.475-8.999 3.059-13.59.315-2.479 6.149-7.34 9.836-6.93 1.513.168 2.932 1.17 4.394 1.793z" class="f"/><path d="M159.867 168.992l1.739 7.01-1.502 2.017-3.938-2.675 3.7-6.352z" class="g"/><path d="M121.129 216.088l.921 2.429-.921-2.429z" class="c"/><path d="M267.86 273.006c3.549 2.85.906 5.709.012 8.566l-.955 1.195.024-.02c-.33.013-.68-.042-.988.049-20.684 6.083-41.163 9.252-60.511-4.143-.085-.059-.309.08-.468.127a14.16 14.16 0 0 0 .044.058l-1.919-4.523 2.003-5.296 2.804-.001c6.753 2.595 13.346 5.773 20.293 7.657 12.593 3.414 24.66-.864 36.749-3.777l2.912.11z" class="n"/><path d="M207.905 269.016c-.935 0-1.869 0-2.805 0l-8.281-.001-.759-5.138 2.963-2.147c1.189 1.021 2.25 2.284 3.603 2.99 1.286.671 2.877.76 4.333 1.104h-3.716c7.716 4.04 14.37.217 21.122-.284.805-.06 1.71-.828 2.359-.619 11.658 3.759 24.389-1.684 35.881 4.495 5.119 2.752 11.028 3.221 18.381.208l-4.655-1.519c3.442-.235 5.381-.659 7.177-.324.583.109 1.467 2.66 1.035 3.295-.887 1.303-2.563 2.887-3.928 2.9-4.249.041-8.504-.598-12.757-.972l-2.913-.11c-1.656-.183-3.341-.661-4.962-.5-11.272 1.119-22.445 2.767-33.759-.509-5.889-1.706-12.2-1.961-18.321-2.871z" class="c"/><path d="M215.984 304.722c-2.078.533-4.138 1.393-6.238 1.505-2.01.107-5.125.141-5.9-1.023-2.441-3.666-5.308-2.995-8.123-1.517-3.549 1.864-4.556.479-4.701-2.815-.058-1.327.055-2.68-.167-3.978-1.268-7.413 1.745-10.074 9.456-8.549 3.564.705 7.508 1.66 8.715-3.608l6.928 3.236 2.105 4.825-7.904.972c-3.239.456-7.77.463-7.612 4.437.076 1.921 4.507 4.056 7.312 5.343 1.811.831 4.249.299 6.404.376a27.1 27.1 0 0 0-.274.795z" class="h"/><path d="M215.954 287.974l-6.928-3.236-4.053-5.959c.159-.047.382-.186.468-.127 19.349 13.395 39.827 10.227 60.511 4.143.307-.09.658-.036.988-.049-1.862 1.355-3.535 3.261-5.617 3.977-14.958 5.143-30.134 4.822-45.369 1.25z" class="c"/><path d="M215.984 304.722l.274-.795 7.719-1.637 3.959-.056 1.451 4.612c-5.14 3.163-10.887 3.314-16.787 2.526l-1.55-1.851 4.934-2.799z" class="g"/><path d="M206.961 265.825c-1.457-.345-3.048-.433-4.333-1.104-1.353-.706-2.414-1.97-3.603-2.99 1.301-3.832 3.062-1.106 4.383-.158 3.672 2.634 7.514 3.095 11.673 1.476l4.761-1.396.197.24c-3.452 4.316-8.324 3.927-13.077 3.932z" class="h"/><path d="M227.936 302.234l-3.959.056c4.497-.845 8.981-2.267 13.495-2.369 4.153-.094 8.339 1.233 12.988 2.014h-13.578l-8.946.298zm53.865 13.345l2.109-3.897.087.073-1.993 3.996c.001.001-.203-.173-.203-.173z" class="c"/><path d="M223.037 259.899l-2.999 1.993c.001.001-.196-.24-.195-.238l3.005-1.988.188.233z" class="h"/><path d="M187.034 314.728l-2.827-1.026-.072-1.839 2.898 2.865zm96.876-3.046l.258-1.28.391.133-.563 1.219c.001.001-.086-.073-.086-.073zm-16.994-28.915l.955-1.195-.955 1.195z" class="c"/><path d="M222.13 151.1c-1.266-2.114-2.747-3.857-5.502-4.043-1.556-.105-3.089-.547-4.632-.836 2.103-3.481 5.473-2.244 8.51-2.297l4.992-.329 2.196 3.257 2.304-3.346v6.8l29.602-1.332c1.076-4.386 1.853-6.747 7.416-4.961 4.718 1.515 10.631.223 15.816-.817 8.513-1.707 16.729-.37 25.024 1.001l8.059 3.929c9.536 7.076 13.989 16.899 14.929 28.397.586 7.174-.691 7.898-7.939 8.676-3.122.335-6.06 2.384-9.081 3.656l-1.914.071-5.026.022c2.606-4.502 7.17-6.882 11.698-6.502 4.749.399 5.772-2.084 6.165-5.096.925-7.078-.495-13.949-4.405-19.94-1.446-2.215-4.266-3.537-6.459-5.266-6.298-4.927-13.508-6.771-21.356-5.897-7.324.815-14.646 1.763-21.894 3.065-2.482.446-5.789.902-5.815 4.782-1.275.28-2.794.214-3.779.906-2.528 1.777-22.86 3.578-25.659 2.013-.43-.24-.8-.603-1.247-.796L222.13 151.1z" class="h"/><path d="M311.909 188.924l1.914-.07 12.998 1.535c0 2.759.376 5.573-.146 8.211-.296 1.495-1.925 3.695-3.191 3.87-6.572.909-12.989 4.395-19.909 1.394-1.395-.605-3.279-.087-5.205-.087l12.535 13.645c-6.709 8.519-17.159 4.148-25.547 9.717l-18.423-32.232 6.029-.003 2.089.929 1.905.096c4.106 2.611 8.43 4.845 13.355 2.764 7.276-3.074 14.406-6.494 21.597-9.767z" class="g"/><path d="M215.145 212.991l5.86-8.09-5.147-1.282v-6.289l7.923-5.616c5.42-4.025 10.551-8.505 16.27-12.043 5.285-3.27 10.631.252 10.996 6.396.101 1.71 1.14 3.364 1.747 5.044l.079 1.92 1.961 5.053 3.026 9.93c-4.374.918-9.167 1.008-13.023 2.951-5.593 2.817-10.983 5.259-17.392 5.092-1.499-.039-3.03 1.119-4.545 1.728l-1.919.076c-4.598-2.237-6.713.063-7.794 4.251l-1.186 2.839-.052-3.062 3.198-8.899z" class="i"/><path d="M222.13 151.1l12.002 5.118c.447.192.817.555 1.247.796 2.799 1.565 23.131-.236 25.659-2.013.984-.692 2.503-.627 3.78-.906l2.407 9.305 19.814-5.098-2.053 6.839-13.702 4.496.266 1.222c11.349-4.154 22.583-5.902 33.396 1.189l-.078.089c-1.44-.27-2.948-.351-4.31-.839-7.688-2.754-15.431-3.32-23.156-.404-3.955 1.493-7.738 3.439-11.599 5.181l-.82 1.153-.888 1.757-7.093 3.041c-1.407-3.106-2.633-6.312-4.277-9.288-1.314-2.376-3.137-4.471-4.735-6.691-3.397-4.611-9.361-5.56-13.038-2.073l-1.08 1.988-1.147 1.934-1.848 2.154-7.336 3.714-4.678-3.719-.925 4.155-5.954-5.133 3.371.699.216-.842-3.386-1.062-4.179-3.84-3.032-6.775 14.851 3.393 2.306-9.539z" class="m"/><path d="M236.959 235.923l-3.115-.83-4.853-.143-7.911-2.203c-1.266-1.451-2.792-2.753-3.737-4.39-1.435-2.487-2.995-5.346 1.663-6.401.77 1.16 1.346 3.099 2.344 3.347 4.541 1.128 9.201 1.781 13.819 2.604l4.755 3.809 1.176-.555-2.053-6.518c10.55-2.421 20.809-8.798 32.957-2.481-.27 1.245-.483 4.022-1.484 6.479-2.488 6.108-8.309 7.557-13.885 9.336-4.592 1.465-9.094 3.207-13.674 4.84-.467-2.499-.994-6.478-6.002-6.893zm12.299-8.748c3.552-.277 7.121-.426 10.645-.908 1.062-.145 1.998-1.214 2.992-1.86-.657-.963-1.108-2.435-2.007-2.798-3.504-1.412-9.804 1.44-12.08 5.192l-.475 1.43.925-1.057z" fill="#6a4c38"/><path d="M228.99 234.95l4.853.143-5.151 15.628c5.763 4.53 12.777 3.275 19.655 1.811 6.117-1.302 11.047-.162 14.559 5.287-.77.095-1.844.565-2.263.227-5.648-4.56-11.603-3.653-17.689-1.197h-4.758l-2.404.029c-7.334-4.004-10.361-4.004-14.814.003l-4.006 1.979.029-.023c-1.551.432-3.11 1.246-4.65 1.212-2.886-.063-5.795-.448-8.632-1.014-2.971-.593-5.869-1.555-8.798-2.354 2.014-1.592 3.861-3.48 6.072-4.724 5.723-3.219 10.916-8.822 18.562-4.843.237.123.801.102.89-.046 2.565-4.24 8.647-6.017 8.544-12.119z" class="g"/><path d="M236.959 235.923c5.009.415 5.535 4.394 6.002 6.893 4.579-1.633 9.082-3.375 13.674-4.84 5.577-1.779 11.397-3.228 13.885-9.336 1.001-2.457 1.213-5.233 1.484-6.479-12.148-6.317-22.407.06-32.957 2.481l2.053 6.518-1.176.555-4.756-3.809-1.168-3.171c.179-.446.271-1.217.549-1.291 9.59-2.562 18.379-9.321 29.193-5.653.285.097.797-.47 1.203-.728l4.002-.111c3.517-.396 2.956-2.288 1.724-4.529-1.11-2.02-2.106-4.103-2.687-6.374 7.027 6.196 8.66 14.258 7.836 22.982-.171 1.808-.123 4.942-3.909 3.758-.319-.1-1.322 1.981-2.007 3.05l-9.784 4.166c-2.102 3.277-5.034 4.361-8.923 4.046-1.261-.102-2.766 1.392-3.976 2.38-2.073 1.692-4.001 3.56-5.925 5.295l-4.338-15.806zM257 182.025l7.092-3.04 13.925 1.058 5.849.926.094 2.033-7.281 1.641c2.416 5.304 5.127 7.094 10.618 7.404 3.22.182 6.426.616 9.638.937-4.613 3.922-9.643 5.165-15.484 2.834-1.279-.511-2.985.044-4.495.108l-1.906-.093-2.088-.93-6.029.003c-6.606-1.763-6.233-8.887-9.933-12.881z" class="h"/><path d="M260.121 240.007l9.784-4.166c10.777.242 15.255 4.282 14.62 13.571-7.135-1.388-15.02-.184-20.127-7.382-.795-1.12-2.821-1.37-4.278-2.023zm8.826-23.053l-4.002.11c-6.292-4.222-12.92-6.895-20.406-3.358-6.895 3.258-13.946 5.258-21.642 4.078 1.516-.607 3.047-1.766 4.546-1.727 6.409.167 11.799-2.275 17.392-5.092 3.857-1.943 8.65-2.033 13.023-2.951 2.973-1.735 5.157-1.224 6.79 2.002 1.224 2.418 2.851 4.632 4.298 6.937z" class="g"/><path d="M234.95 163.974c3.677-3.487 9.641-2.538 13.038 2.073l-3.979-.117-8.031-.989-1.028-.967z" class="s"/><path d="M254.833 198.085l-1.961-5.053 1.961 5.053z" class="g"/><path d="M412.964 340.47c-.123-.267-.175-.548-.158-.841l1.906.85-1.748-.009z" class="c"/><path d="M228.99 234.95c.103 6.102-5.979 7.879-8.544 12.119-.089.148-.654.169-.89.046-7.645-3.979-12.839 1.624-18.562 4.843-2.211 1.244-4.059 3.131-6.072 4.724l-1.972 1.129c-4.749 1.069-7.544 4.078-8.968 8.655-1.062 3.415-2.411 6.741-3.826 10.643l-11.94-4.506c0-3.043.327-5.404-.058-7.643-1.446-8.413 3.09-13.822 13.747-14.904 4.905-.498 7.755-2.893 10.373-6.558 2.771-3.88 5.469-8.005 9.021-11.077 2.934-2.537 7.067-3.694 10.669-5.463l3.978 4.01 1.998 1.073 1.021.897 2.118-.192 7.91 2.205z" class="i"/><path d="M217.936 174.2l.925-4.156 4.678 3.719 7.338-3.713c.564 4.929-3.229 5.731-6.663 6.66l.354 3.887-9.686 5.211c-5.258 1.016-10.491 2.201-15.786 2.96-1.975.283-4.093-.429-6.145-.688l1.708-2.973h-8.607l-.058-.578 5.35-1.546-5.413-3.55 11.177-1.448 11.839-.937 2.985-1.21-.273.02-.137-.237 7.712 2.912.772-.924-2.07-3.408z" class="s"/><path d="M217.942 232.041l-1.997-1.073-3.97-3.996.024-2.02 1.184-2.84 7.796-4.249 1.919-.076c7.695 1.179 14.746-.821 21.641-4.08 7.486-3.537 14.113-.864 20.406 3.358-.406.258-.918.826-1.203.729-10.814-3.668-19.602 3.091-29.193 5.653-.278.074-.37.845-.549 1.292-4.737-2.326-9.28-5.7-14.994-2.782-4.658 1.055-3.099 3.915-1.663 6.401.945 1.637 2.471 2.939 3.737 4.39l-2.117.19-1.021-.897zm-3.061-46.234l9.686-5.211-.354-3.887c3.434-.929 7.227-1.731 6.663-6.66l1.847-2.154c-.2 6.277-.529 12.651-5.523 17.239-3.685 3.386-8.016 4.056-12.319.673zm-28.951-6.372l5.413 3.548-5.35 1.546.058.578h8.607l-1.708 2.973-8.485-.032c-2.943.059-5.025-.767-6.058-3.921-.448-1.369-2.2-2.274-3.196-3.52-.568-.711-.805-1.686-1.191-2.542l8.003 1.974 1.897-.673 2.009.069zm29.215 33.556l-3.198 8.899-5.772-4.948 7.731-9.41 1.239 5.459z" class="f"/><path d="M182.024 180.039l-8.003-1.974-1.894-.183-1.828-1.661-1.368 1.66-3.79.993.928-3.803 2.968-1.016 5.884 1.134 7.087 3.044.015 1.807z" class="h"/><path d="M168.931 177.879l1.368-1.66 1.828 1.661-3.196-.001zm66.019-13.905l1.028.967-2.108 1.023 1.079-1.989z" class="f"/><path d="M256.071 373.459l2.88-2.865 27.609-.08c1.514-.018 3.02-.685 4.529-1.052l9.826 3.115 4.012 1.974 1.071.757.253-.386-1.327-.368-3.97-2.022c-1.135-1.047-2.096-2.553-3.437-3.06-5.535-2.091-11.146-4.014-16.822-5.682-1.366-.401-3.089.409-4.648.663l-13.326-1.724 6.335-7.078c3.945.999.38 3.284.839 4.88l-1.329.444c.092.128.251.376.266.367.394-.219.772-.465 1.154-.706 1.861-.622 3.69-1.374 5.589-1.841l13.908-3.224c4.715-1.222 9.352-2.741 14.055-4.016 2.076-.563 4.228-.843 6.346-1.252l-.258 5.919c-.035.595-.232 1.18-.526 2.597l11.209-3.461c.943-.287 1.899-.613 2.87-.714 7.565-.786 8.962 1.018 6.792 8.319-1.029 3.463-1.773 7.016-2.537 10.552-.923 4.268-2.954 6.773-7.863 6.116-1.813-.243-3.764.536-5.652.85-3.475-1.533-6.869-3.546-10.893-1.837l-1.158.71-3.943.121c-1.399-.311-2.797-.886-4.197-.891-12.611-.049-25.223.002-37.835.024l-2.008-3.128h45.948c-1.244-.973-1.718-1.67-2.2-1.675l-41.564-.345zm52.185-13.331c-.057-.103-.092-.262-.177-.296-.102-.041-.247.024-.374.043l.245.46.306-.207z" class="e"/><path d="M332.801 407.483l-19.906-.006a3.97 3.97 0 0 1 .015-.827l-2.798-14.309-1.007-5.019-.726-7.834 5.556 3.061-.034-.034 14.026 13.991-.028-.033 2.027 3.026-.027-.034 2.902 8.019z" class="d"/><path d="M269.057 355.65l-6.335 7.078 13.325 1.724 10.77 3.2a2.88 2.88 0 0 1 .091.901l-3.864.005c-6.867-3.204-13.897-4.168-21.188-1.531-.069-2.395-1.074-2.891-3.139-1.661-11.375 6.774-22.941 6.232-35.541 2.478l6.883-.46 15.863-1.956 18.006-8.882 6.039-5.895-.913 4.998zm75.195-10.239c-6.167 16.891-10.581 33.929-8.687 52.059-4.577-18.646-2.025-36.109 8.688-52.059z" class="c"/><path d="M311.896 412.47c-6.431-.007-12.862.044-19.291-.061-1.565-.026-3.122-.563-4.682-.866l4.983-1.088 19.978-.016h21.353l-.001 2.031h-22.34z" class="d"/><path d="M338.835 381.107c.135-12.633 3.299-24.547 9.676-35.645l-9.676 35.645zm-60.896-35.182c3.291-.151 6.611-.645 9.867-.377 5.846.48 11.744 2.466 17.122-1.955-4.097 5.068-6.911 5.416-27.055 3.757l.065-1.425zm35.998 36.623l-5.556-3.061.726 7.834-.258.252-2.676-8.184-12.323 3.193-12.819 2.031-2.109-.09 14.031-3.982 4.973-1.067 3.943-.119 1.158-.712c4.024-1.709 7.418.304 10.893 1.837l.015 2.068zm26.274-37.82c1.13-7.108.122-7.994-7.473-6.564l-.211-1.309 11.67-1.874 1.327 1.84-4.107 8.474-1.206-.567z" class="c"/><path d="M312.884 410.439l-19.978.017 14.927-3.074 1.148-.725 3.929-.004a3.96 3.96 0 0 0-.015.825l-.011 2.962z" class="e"/><g class="c"><path d="M327.929 396.505l-14.026-13.991c6.98 2.361 10.898 7.782 14.026 13.991zm-3.993-11.014l7.024-1.315-2.529 6.546-4.574-5.139.079-.092zm24.549-33.467l4.853-11.301 1.42.617-5.289 11.438-.985-.754zm-15.684 55.459l-2.902-8.019 3.905 7.755c.045.09-.101.394-.152.392-.285-.007-.568-.079-.851-.128z"/><path d="M329.927 399.498l-2.027-3.026 2.027 3.026zm-6.07-13.915l-1.339-.432.272-.375 1.146.715-.079.092z"/></g><path d="M220.979 256.882c4.453-4.007 7.48-4.007 14.816-.003l2.402-.029h4.758c-2.366 3.787-5.502 1.649-8.277.892-4.313-1.177-8.449-2.203-11.829 1.927l-3.007 1.986-4.762 1.394 1.921-4.211c0 0-.029.023-.029.023l4.006-1.979z" class="r"/><path d="M196.061 263.878l.759 5.138 8.281.001-2.003 5.295a.57.57 0 0 1-.132.52c-2.875-1.503-6.169-2.54-8.512-4.635-2.58-2.307-1.92-4.957 1.608-6.319z" class="u"/><g class="c"><path d="M202.966 274.832a.57.57 0 0 0 .132-.52l1.919 4.525-2.051-4.005zm147.925-55.846l1.027-2.045-1.027 2.045z"/><path d="M351.876 216.99l1.009-1.026-1.009 1.026zm-97.989 158.489l2.008 3.128 1.122 1.922 1.157 6.013-1.237 7.954-2.296.084c2.429-5.659 1.71-10.961-1.325-15.906-2.396.356-4.382.419-6.214.982-2.405.739-5.375 1.277-6.856 2.981-2.004 2.306.999 11.862 3.399 14.078 4.226 3.902 7.108.112 10.395-1.533l.174 1.433-2.269 2.869c-7.626 2.626-11.95.052-12.997-7.714l-1.07-7.251c1.055-1.714 1.712-4.223 3.244-4.99 4.199-2.101 8.766-3.47 13.183-5.126l-.42 1.077zm-63.152 4.74l-1.863.069-.817-.742 2.91-2.109c8.58-2.653 16.541-7.718 26.037-6.795l.855 1.299-11.835 7.626-.065-.077 1.822-4.734c-6.372 1.079-12.226 1.449-17.044 5.462z"/></g><path d="M253.887 375.479l.42-1.077 1.763-.943 41.565.344c.482.006.957.702 2.2 1.675h-45.948z" class="d"/><path d="M207.001 392.498c8.9-1.924 17.776-.656 26.736.163-4.219 2.587-8.855 1.632-13.302 1.798-4.798.179-9.608.036-14.412.033l.979-1.995zm-16.036-15.06l-2.91 2.109-2.024 2.837c-3.592 1.306-7.157 2.703-10.809 3.815-.51.155-1.448-1.085-2.187-1.679l-.014.015 7.971-4.562 10.022-4.473-.048 1.939z" class="e"/><path d="M283.045 368.559l3.864-.005 2.192.74 1.99.168c-1.51.367-3.016 1.034-4.529 1.052l-27.609.08 2.139-2.105 21.954.071z" class="d"/><path d="M283.045 368.559l-21.954-.07.768-1.465c7.289-2.632 14.319-1.668 21.186 1.535zm-66.052 18.953c10.6-1.641 10.6-1.641 14.668 1.994h-16.645l1.977-1.994z" class="e"/><g class="c"><path d="M191.013 375.499l-10.022 4.473-7.954 2.504 17.901-9.114.076 2.137zm15.038-11.971h2.917l-.207.986-2.778-.905.068-.081zm-.029 16.039l-2.111.882-.2-.707 2.247-.252c-.001-.001.065.076.065.076zm-4.033 2.152l.378.165-.537.416c-.067-.115-.215-.267-.183-.337.051-.11.222-.165.342-.244zm199.799-127.122l6.063-1.658.418.707-4.537 3.131-16.048 2.644-.053-.6 14.157-4.224zm-27.954-61.036l2.072 1.506-2.072-1.506z"/><path d="M375.822 194.985l1.023 1.925-1.023-1.925zm-124.345 236.92c-.143 1.105-.174 2.78-.6 4.348-.922 3.388-4.514 4.179-6.911 1.621-3.261-3.48-5.289-18.077-3.28-22.699 1.468-3.377 3.93-4.006 5.981-1.289 1.979 2.623 3.19 5.989 4.084 9.209.731 2.634.498 5.535.727 8.81zm-8.111-17.144c-.523 8.412-1.45 15.726 3.5 22.602 3.657-5.732 2.098-17.46-3.5-22.602zm165.086-162.907l2.478-.93.35.749-2.26 1.273-.568-1.091zm3.996-2.612l.753-1.095c.181.218.548.486.505.643-.102.373-.397.694-.614 1.036l-.644-.585z"/></g><path d="M173.035 384.519c.74.594 1.677 1.835 2.187 1.679 3.652-1.112 7.216-2.509 10.809-3.814l2.881-.013c4.616.266 4.838 2.648 2.655 5.859-1.711 2.517-3.712 4.838-5.583 7.246l-.979 1.995-4.033 6.977-2.643 1.088c1.464-13.339-1.311-14.073-15.091-14.171 2.728-3.461 5.032-6.818 9.798-6.847z" class="k"/><path d="M180.971 404.449l4.033-6.977 1.047.015-3.749 8.954-1.298 6.972-1.427 8.026-.702.024-.001-10.038 2.097-6.975z" class="c"/><path d="M173.037 382.477l7.954-2.504-7.971 4.562.016-2.058z" class="k"/><path d="M159.518 425.41a1.63 1.63 0 0 1-.467-.502l-2.016-3.498.023.037-3.024-7.103 3.127-1.972 1.836 2.12 8.056 10.945-.032-.039 5.029 6.023-.032-.038 2.082 5.006-6.117-1.058-1.876-1.875-2.184-2.197-1.904-3.332-2.498-2.516z" class="p"/><path d="M174.097 436.389l-2.082-5.006 5.9 5.08c-1.35 3.879-2.542-.225-3.818-.074zm-9.067 8.366l-4.375-4.369c3.473-.557 4.963.868 4.375 4.369zm10.966 7.525l-4.782-2.507.631-1.195 4.721 2.643-.57 1.059zm-9.933-5.947l-.524-.953 4.432 1.269-.573 1.474-3.336-1.791zm14.977-2.427l-1.138-2.36.691-.337 1.155 2.351-.708.346zm-5.707-2.835c.114.013.283-.016.331.047.078.103.076.265.108.402l-.567-.062.128-.387z" class="c"/><path d="M182.302 406.441l3.749-8.954.989-.956 4.959-3.047.04.046-7.477 12.14c-.339.524-1.487.527-2.26.772z" class="k"/><path d="M199.03 399.479l-3.1-1.053 1.084-1.93 4.033.026-2.018 2.956zm-10.119-17.107l-2.881.013 2.024-2.838.817.742.04 2.084z" class="x"/><path d="M187.04 396.531l-.989.956-1.047-.015.979-1.995 1.057 1.054z" class="o"/><path d="M191.999 393.484l1.092-.745.26.385-1.312.405a38.02 38.02 0 0 0-.039-.045z" class="k"/><path d="M290.913 426.414l.13-2.93h18.674c-2.04 2.956-2.04 2.956-18.804 2.929zm-91.883-26.935l2.018-2.956h33.683l.088 2.607c-5.745.758-11.623.246-17.426.336-6.119.095-12.242.016-18.363.013zm52.917.005l2.268-2.87 14.635-.06.998 2.879-17.901.051z" class="e"/><path d="M269.848 399.433l-.998-2.879-.002-2.112.06-2.913 4.03 20.938-.017.031-1.196-2.047-.772-3-.107-2.034-.864-2.973-.135-3.012z" class="c"/><path d="M306.857 435.227l-23.123 3.251 2.312-5.042c5.626-.012 11.256-.138 16.875.048 1.33.044 2.625 1.135 3.936 1.744z" class="o"/><path d="M263.93 356.547l-18.006 8.882-.71-1.71 18.344-9.068.371 1.896zm1.717-6.196v1.543l-.515-.014.071-1.544.444.014z" class="k"/><g class="c"><path d="M158.083 437.872l-1.141-1.521 1.141 1.521zm195.851-281.667l2.016-.091-2.073 2.048.057-1.957z"/><path d="M353.943 158.099l-2.108 1.021 2.108-1.021zm-46.109 249.282l-14.927 3.074-4.984 1.088-3.934.086-1.121.767-9.946.101a5.4 5.4 0 0 1 .017-.031l13.143-2.144 12.829-3.009 12.759-2.28-1.874-12.434.32-.261 2.796 14.311-3.93.004-1.148.726z"/></g><path d="M282.868 412.396l1.121-.767-1.121.767z" class="d"/><g class="c"><path d="M361.7 160.549l-.761.445c-.13-.285-.429-.643-.345-.837.093-.217.533-.285.822-.418l.285.81zm-5.441 3.812l1.44-.72-.724 1.527-.716-.807zM158.995 414.493l-1.835-2.12-.13-2.122a2.64 2.64 0 0 0 .943.249l1.247 2 .072 1.705a2739.23 2739.23 0 0 1-.298.288zm211.803-247.419l-.491.023-.491-.02.303-1.555.678 1.552z"/><path d="M167.051 425.438l-8.056-10.945a686.46 686.46 0 0 0 .292-.283l2.675.104 3.101 4.495 1.987 6.628z"/></g><path d="M161.962 414.314l-2.675-.104-.067-1.71 2.742 1.814z" class="l"/><g class="c"><path d="M154.033 414.344l3.024 7.103-2.904-4.064-.121-3.039z"/><path d="M157.035 421.41l2.016 3.498-1.949-1.513-.067-1.985zm2.483 4l2.498 2.516-1.974-.397-.17-1.177-.354-.941zm12.53 6.011l-5.029-6.023 5.029 6.023z"/></g><path d="M204.973 157.246l3.032 6.775-6.205-2.191c-2.155-1.938-4.011-4.901-6.518-5.63-9.016-2.62-16.786.364-23.324 6.86l-3.826.259v-5.392l.89-2.849-.031.032c1.751-.026 3.788.529 5.207-.169 10.775-5.298 20.85-2.827 30.776 2.305z" class="h"/><path d="M201.8 161.83l6.205 2.191 4.179 3.839-.253.309.085.933-.034-.037 5.954 5.133 2.07 3.409-.772.924-7.712-2.915-8.684-6.546-5.731 8.913-11.177 1.448-2.008-.069.075-1.281.021-.022h3.721l-5.093-8.338-6.903 4.588-.822.878-5.883-1.135-.178-1.094s.056-.052.057-.051l4.262-2.841-.554-2.194a1.77 1.77 0 0 0 .379-.802c8.799-6.128 18.472-7.465 28.797-5.241zm7.338 6.325c-8.998-7.392-27.571-5.665-32.722.595 10.852-5.216 21.765-4.653 32.722-.595z" class="c"/><path d="M201.8 161.83c-10.324-2.224-19.998-.888-28.797 5.241l-1.045-4.01c6.537-6.497 14.307-9.48 23.323-6.861 2.507.728 4.363 3.692 6.518 5.63z" fill="#d7a27e"/><path d="M173.179 170.067l-4.262 2.841.822-2.988 3.44.147zm-4.319 2.893l.178 1.094-2.968 1.016 2.79-2.11z" class="m"/><path d="M173.179 170.067l-3.44-.147 2.888-2.046.552 2.193z" class="j"/><path d="M169.022 155.079l-.89 2.849.89-2.849z" class="c"/><path d="M207.905 269.016c6.121.91 12.432 1.165 18.321 2.871 11.314 3.277 22.487 1.628 33.759.509 1.621-.161 3.307.317 4.962.5-12.09 2.913-24.156 7.191-36.749 3.777-6.946-1.883-13.54-5.062-20.293-7.657z" class="u"/><path d="M296.936 192.985l-9.638-.937c-5.491-.311-8.202-2.101-10.618-7.404l7.281-1.641 11.899-1.724 3.116-.997 12.542-.657-6.653-7.484c0 0 .079-.091.079-.091l1.979.025c1.333.412 2.642 1 4.006 1.188 1.504.208 3.06.049 4.593.049l-1.611-5.228-1.981-2.019.019.008c-1.18-1.332-2.183-2.9-3.579-3.944-2.382-1.782-5.011-3.235-7.536-4.826 2.034.515 4.267 1.83 6.065 1.387 4.573-1.127 7.859.646 11.027 3.398.055.134.085.289.174.395.051.06.197.041.301.057l-.499-.427-4.019-9.969c2.193 1.729 5.014 3.051 6.46 5.266 3.91 5.991 5.33 12.861 4.405 19.94-.393 3.012-1.416 5.495-6.165 5.096-4.528-.381-9.092 1.999-11.697 6.503l-9.949 4.037z" class="m"/><path d="M317.926 162.088c-3.168-2.752-6.454-4.525-11.027-3.398-1.798.443-4.03-.873-6.064-1.388l-1.892-.332-3.108-.666-8.796 1.999-19.814 5.097-2.407-9.305c.026-3.88 3.332-4.336 5.814-4.782 7.248-1.302 14.571-2.249 21.894-3.065 7.848-.874 15.058.97 21.356 5.897l4.019 9.97.025-.025z" class="c"/><path d="M296.936 192.985l9.949-4.037 5.025-.023-21.598 9.766c-4.925 2.081-9.249-.153-13.355-2.764 1.51-.065 3.216-.619 4.495-.109 5.841 2.331 10.871 1.088 15.484-2.834zm-23.974 1.918l2.088.93-2.088-.93z" class="f"/><path d="M220.979 217.862l-7.796 4.249c1.083-4.186 3.198-6.486 7.796-4.249z" class="g"/><path d="M295.86 181.278l-11.899 1.724-.094-2.033-5.481-8.037-7.812 3.07 7.444 4.041-13.925-1.058.889-1.758.82-1.152c3.861-1.741 7.644-3.688 11.599-5.181 7.725-2.916 15.468-2.35 23.156.404 1.362.488 2.871.569 4.31.839l6.651 7.486-12.542.657 4.858-2.793-4.396-4.53-5.794 7.989 2.215.331z" class="c"/><path d="M298.942 156.97l1.892.332 7.536 4.827c1.396 1.044 2.399 2.612 3.579 3.944-2.856.57-6.829-1.807-8.06 3.046l-.962-1.264c-1.138-1.546-2.047-3.351-3.457-4.589-4.075-3.578-10.825-2.737-13.36 1.462l-1.126.412 2.053-6.839 8.797-1.999 3.107.667z" class="n"/><path d="M284.985 165.141l1.126-.412 16.817 3.127.962 1.263 3.034 2.955-1.979-.025c-10.812-7.091-22.047-5.343-33.396-1.189l-.266-1.222 13.702-4.496zm-72.801 2.72l3.386 1.062-.216.842-3.371-.699.034.037-.085-.933.253-.309z" class="c"/><path d="M265.801 176.075l-.82 1.152.82-1.152z" class="h"/><g class="c"><path d="M219.006 221.956c5.714-2.918 10.256.456 14.994 2.782l1.168 3.17c-4.616-.824-9.276-1.476-13.818-2.605-.998-.248-1.574-2.187-2.344-3.347zm29.799 4.844c2.279-3.75 8.578-6.602 12.083-5.19.9.363 1.35 1.835 2.007 2.798-.994.646-1.93 1.714-2.992 1.86-3.524.482-7.093.631-10.645.908l-.453-.375z"/><path d="M249.258 227.175l-.925 1.057.473-1.431.451.374z"/></g><path d="M220.979 256.882l-4.006 1.979 4.006-1.979z" class="n"/><path d="M238.197 256.849l-2.402.029 2.402-.029z" class="h"/><path d="M278.018 180.043l-7.444-4.041 7.812-3.07 5.481 8.037-5.849-.926z" class="t"/><path d="M211.975 226.971l3.97 3.996-3.97-3.996zm5.967 5.07l1.021.897-1.021-.897z" class="g"/><path d="M197.107 177.985l5.731-8.913 8.684 6.546c0 .003.136.24.136.24l.272-.02-2.984 1.21-11.839.937z" class="t"/><path d="M208.946 177.047l2.984-1.21-2.984 1.21z" class="c"/><path d="M183.997 178.083l-.075 1.281-1.898.675-.015-1.808 1.988-.148z" class="s"/><path d="M183.997 178.083l-1.988.148-7.087-3.043.821-.878 8.275 3.751c0 0-.021.022-.021.022z" class="c"/><path d="M257.018 380.529l-1.122-1.922 37.834-.023c1.4.005 2.798.581 4.197.891l-4.973 1.067-35.936-.012z" class="d"/><g class="k"><path d="M291.09 369.463l-1.991-.166-2.281-1.643-10.77-3.2c1.559-.254 3.283-1.064 4.648-.663 5.676 1.668 11.287 3.59 16.822 5.682 1.34.506 2.301 2.013 3.437 3.06l-.039.046-9.826-3.115z"/><path d="M300.955 372.532l3.97 2.022.002-.002-4.012-1.974c0 0 .039-.046.039-.046z"/></g><path d="M269.988 360.636l-1.154.706c-.016.009-.174-.239-.266-.367l1.329-.444a69.76 69.76 0 0 0 .092.105zm38.268-.508l-.306.207-.245-.46c.127-.019.271-.084.374-.043.085.034.12.192.177.296z" class="w"/><path d="M304.925 374.554l1.327.368-.253.386-1.071-.757-.002.002z" class="k"/><path d="M303.028 378.643l-1.158.712 1.158-.712z" class="d"/><path d="M309.107 387.321l1.007 5.019c.002-.002-.318.259-.318.259l-.947-5.026.258-.252z" class="c"/><path d="M286.818 367.653l2.281 1.643-2.191-.743a2.87 2.87 0 0 0-.091-.901z" class="e"/><path d="M298.911 407.314l-5.06-24.731 12.323-3.193 2.676 8.184.947 5.026 1.874 12.435-12.759 2.28z" fill="#cf202b"/><path d="M281.032 384.613l5.051 25.71-13.144 2.143-4.03-20.938a13.93 13.93 0 0 0 .029.015c-.208-2.969.309-5.088 4.117-5.166 1.98-.041 3.936-1.215 5.902-1.877l-.033.023 2.108.089z" class="d"/><path d="M257.018 380.529l35.936.012-14.031 3.982a2.62 2.62 0 0 0 .033-.023l-12.104 2.01-8.678.031-1.157-6.013z" class="o"/><path d="M307.834 407.381l1.148-.726-1.148.726z" class="d"/><path d="M254.044 395.179c-3.288 1.647-6.17 5.437-10.397 1.535-2.4-2.216-5.404-11.772-3.399-14.078 1.481-1.704 4.451-2.242 6.856-2.981 1.832-.563 3.818-.625 6.214-.982 3.035 4.945 3.754 10.247 1.328 15.905-.365.033-.566.234-.601.6z" class="y"/><path d="M258.175 386.542l8.679-.031 2.084 5.032-.029-.015-.06 2.914-11.911.054 1.237-7.954z" class="e"/><path d="M256.938 394.496l11.911-.054.002 2.111-14.636.06-.172-1.432a.6.6 0 0 1 .603-.603l2.293-.082z" class="d"/><path d="M243.366 414.761c5.599 5.142 7.157 16.869 3.5 22.602-4.95-6.875-4.023-14.19-3.5-22.602z" class="p"/><path d="M209.138 168.155c-10.957-4.058-21.87-4.621-32.722.595 5.151-6.261 23.724-7.987 32.722-.595z" class="m"/><path d="M184.018 178.061l-8.275-3.751 6.903-4.588 5.093 8.338h-3.721z" class="t"/><path d="M211.931 168.169l.085.933-.085-.933z" class="m"/><path d="M306.923 172.074l-3.034-2.955c1.231-4.853 5.204-2.476 8.06-3.046 0 0-.019-.008-.019-.008l1.981 2.019 1.611 5.228c-1.533-.001-3.088.158-4.593-.049-1.364-.188-2.673-.776-4.006-1.188z" class="h"/><path d="M295.86 181.278l-2.215-.331 5.794-7.989 4.396 4.53-4.858 2.793-3.116.997z" class="t"/><path d="M313.912 168.084l-1.981-2.019 1.981 2.019z" class="n"/><path d="M317.901 162.114l.499.427c-.103-.016-.25.003-.301-.057-.089-.106-.119-.261-.174-.395 0 0-.025.025-.025.025z" class="c"/><path d="M298.942 156.97l-3.107-.667 3.107.667z" class="m"/><path d="M302.928 167.856l-16.817-3.127c2.535-4.199 9.286-5.04 13.361-1.462 1.409 1.238 2.319 3.043 3.457 4.589z" class="i"/><path d="M268.937 391.543l-2.084-5.032 12.103-2.01c-1.967.662-3.923 1.836-5.902 1.877-3.808.078-4.325 2.197-4.117 5.166z" class="c"/></svg>