<svg id="Flat" enable-background="new 0 0 78 124" height="512" viewBox="0 0 78 124" width="512" xmlns="http://www.w3.org/2000/svg"><g><path d="m58.99 83.16-.07-.02-39.78-.09c-8.2 6.96-16.43 19.26-19.14 40.95h78c-2.7-21.58-10.85-33.86-19.01-40.84z" fill="#524956"/><path d="m64.08 30.49s1.36 30.03-5.16 52.65c-3.62 12.62-9.69 22.93-19.81 24.46h-.13c-10.14-1.53-16.22-11.89-19.84-24.55-6.48-22.61-5.13-52.56-5.13-52.56l-.01-1.49c0-11 5-29 25-29s25 18 25 29z" fill="#5d5560"/><path d="m56.33 27.27c1.75 1.43 2.74 3.6 2.65 5.86-.02.43-.04.86-.06 1.29-16.65-6.11-17.38-13.88-17.38-13.88 4.54.51 9.54 2.45 14.79 6.73z" fill="#3f2313"/><path d="m21.69 27.11c3.7-3.05 10.88-7.59 19.85-6.57-3.74 11.68-22.47 13.88-22.47 13.88h-.01c-.02-.48-.04-.95-.06-1.43-.09-2.27.93-4.44 2.69-5.88z" fill="#3f2313"/><path d="m58.92 34.42c-.43 7.79-1.87 14.99-3.88 18.59-2.4 4.32-8.82 10.37-16.04 10.37-7.23 0-13.64-6.05-16.05-10.37-2.01-3.6-3.46-10.79-3.89-18.59h.01s18.73-2.2 22.47-13.88c0 0 .73 7.77 17.38 13.88z" fill="#ffd7d2"/><path d="m39 47.71c-1.078 0-2.179-.157-3.273-.468-.531-.15-.84-.703-.689-1.234.15-.532.705-.844 1.235-.689 1.833.52 3.621.52 5.454 0 .531-.154 1.085.157 1.235.689.151.531-.158 1.084-.689 1.234-1.094.311-2.195.468-3.273.468z" fill="#ea8d81"/><path d="m39.109 92.6c-.136 0-.273-.027-.405-.086-20.36-9.042-18.948-30.357-18.931-30.571.042-.55.506-.986 1.074-.919.55.042.962.522.92 1.072-.062.818-1.297 20.132 17.749 28.59.505.225.732.815.508 1.32-.166.372-.531.594-.915.594z" fill="#524956"/><path d="m42.083 84.049c-1.134 0-1.867-.144-1.945-.159-.541-.111-.89-.64-.778-1.181.111-.54.639-.888 1.178-.779.084.017 4.407.813 8.437-2.104 3.796-2.749 6.168-7.821 7.052-15.076.066-.548.564-.948 1.114-.871.548.066.938.564.872 1.113-.956 7.852-3.614 13.396-7.9 16.479-3.007 2.163-6.099 2.578-8.03 2.578z" fill="#524956"/><path d="m15.68 106.6c-.552 0-1 .447-1 1v16.381h5.639c-2.251-2.833-3.2-8.961-3.639-16.381 0-.553-.448-1-1-1z" fill="#47394f"/><path d="m62.32 106.6c-.552 0-1 .447-1 1-.58 7.976-1.726 14.955-6.022 16.381h8.022v-16.381c0-.553-.448-1-1-1z" fill="#47394f"/><g fill="#543927"><path d="m51.286 41.301c-.368.157-.783.223-1.186.242-.003-.01-.006-.021-.01-.032.245-.171.473-.367.664-.616.336-.438.254-1.066-.184-1.402-.438-.337-1.066-.255-1.402.184-.19.247-.441.343-.709.379-.155-.035-.316-.056-.482-.056-1.24 0-2.246 1.006-2.246 2.246s1.006 2.246 2.246 2.246c.752 0 1.413-.373 1.821-.94.022 0 .041.003.063.003.736 0 1.515-.118 2.211-.415.508-.218.744-.806.526-1.313-.217-.507-.806-.743-1.312-.526z"/><path d="m30.023 40c-.167 0-.328.021-.484.055-.267-.036-.517-.133-.707-.38-.337-.438-.966-.521-1.402-.184-.438.336-.521.964-.184 1.402.191.249.419.444.665.615-.003.008-.005.016-.007.024-.424-.015-.847-.079-1.175-.226-.503-.227-1.096.001-1.32.506-.225.504.001 1.096.506 1.32.649.29 1.431.405 2.186.405.03 0 .058-.004.088-.005.406.578 1.075.958 1.836.958 1.24 0 2.246-1.006 2.246-2.246s-1.008-2.244-2.248-2.244z"/></g></g></svg>