<svg id="Flat" enable-background="new 0 0 78 124" height="512" viewBox="0 0 78 124" width="512" xmlns="http://www.w3.org/2000/svg"><g><path d="m45.2 78.519-.01-.03-.01-11.549-12.18.06.01 11.539-.01.03z" fill="#fec4b9"/><path d="m33.002 67s5.796 2.306 12.18-.06l.006 3.069s-7.938.884-12.183-1.782z" fill="#f7b6ad"/><path d="m70.02 19.77h-5.17l-3.04-8.83c-1.48-4.3-4.69-7.56-8.65-8.7-3.89-1.11-9.04-2.24-14.01-2.24h-.3c-4.97 0-10.12 1.13-14.01 2.24-3.96 1.14-7.17 4.4-8.65 8.7l-3.04 8.83h-5.17c-.84 0-1.61.34-2.16.9-.56.55-.9 1.31-.9 2.16 0 1.69 1.37 3.06 3.06 3.06h6.03 9.49 31 9.53 5.99c.84 0 1.61-.34 2.16-.9.56-.55.9-1.31.9-2.16 0-1.69-1.37-3.06-3.06-3.06z" fill="#ef9d26"/><path d="m75.81 112.3c-.43-1.69-.9-3.31-1.41-4.85-.66-2.04-1.39-3.96-2.17-5.76-.71-1.65-1.47-3.21-2.26-4.67l-61.92-.03c-.8 1.47-1.56 3.04-2.27 4.7-.79 1.81-1.52 3.73-2.17 5.78-.49 1.44-.93 2.95-1.34 4.52-.03.11-.06.22-.09.34-.91 3.55-1.65 7.43-2.18 11.67h31.41 14.96 31.63c-.53-4.25-1.27-8.14-2.19-11.7z" fill="#ef9d26"/><path d="m43.09 101.23h.01c10.19-.32 19.48-1.85 26.87-4.21-6.34-11.79-14.85-17.56-21.35-20.37l-.09-.03v-7.41s-1.49.73-3.33 1.31c-1.14.35-2.41.65-3.56.67l-2.55 6.45h-.13l-2.56-6.45c-1.09-.02-2.3-.29-3.4-.62-1.92-.58-3.49-1.36-3.49-1.36v7.38c-6.5 2.79-15.08 8.55-21.46 20.4l.14.08c7.31 2.31 16.46 3.82 26.5 4.16z" fill="#ffc05a"/><path d="m42.81 99.28.28 1.95.78 5.42.95 6.56.77 5.41h.01l.77 5.38h-14.96l.78-5.39.77-5.41.95-6.56.78-5.41.3-2.08c1.17.26 2.42-.4 2.83-1.62l.19-1.12c.06-.38.41-.67.8-.64.1 0 .2.01.3.01.38 0 .7.29.75.67l.14 1.01c.33 1.27 1.59 2.01 2.8 1.78z" fill="#e58e1a"/><path d="m34.99 99.15c-.26-.05-.52-.16-.77-.31-1.33-.83-1.54-2.7-.42-3.8l1.12-.87c.28-.22.38-.61.24-.94l-.08-.16c-.17-.38-.6-.57-.99-.42l-1.44.53c-1.19.25-2.32-.41-2.75-1.45-.12-.31-.19-.65-.18-1.01.05-1.57 1.56-2.68 3.08-2.26l1.69.68c.34.14.72.03.93-.27.01-.01.02-.03.03-.04.24-.34.19-.8-.13-1.06l-1.49-1.24c-1.05-1.18-.72-3.02.67-3.76 1.39-.75 3.1.01 3.5 1.53l.27 1.96c.05.34.31.6.65.65.04.01.09.01.14.01h.01c.38 0 .7-.27.76-.64l.35-2.05c.22-.67.69-1.16 1.26-1.43.72-.35 1.59-.34 2.34.12 1.33.83 1.54 2.7.42 3.8l-1.37 1.07c-.33.26-.4.73-.16 1.07l.06.07c.2.29.57.41.9.28l1.72-.63c1.54-.32 2.98.88 2.93 2.46-.05 1.57-1.56 2.68-3.08 2.26l-1.11-.45c-.38-.15-.81.01-.99.38-.04.08-.08.16-.12.23-.17.32-.08.72.2.95l.99.82c1.05 1.18.72 3.02-.67 3.77-.23.12-.46.2-.7.24-1.21.23-2.47-.51-2.8-1.78l-.14-1.01c-.05-.38-.37-.67-.75-.67-.1 0-.2-.01-.3-.01-.39-.03-.74.26-.8.64l-.19 1.12c-.41 1.22-1.66 1.88-2.83 1.62z" fill="#ea728c"/><path d="m34.69 101.23-.78 5.41c-10.77-.43-20.48-2.2-27.94-4.87l-.19-.08c.71-1.66 1.47-3.23 2.27-4.7l.14.08c7.31 2.31 16.46 3.82 26.5 4.16z" fill="#087d99"/><path d="m72.23 101.69-.06.03c-7.53 2.71-17.37 4.52-28.3 4.93l-.78-5.42h.01c10.19-.32 19.48-1.85 26.87-4.21.79 1.46 1.55 3.02 2.26 4.67z" fill="#087d99"/><path d="m33.91 106.64-.95 6.56c-11.47-.55-21.7-2.62-29.19-5.68l-.16-.05c.65-2.05 1.38-3.97 2.17-5.78l.19.08c7.46 2.67 17.17 4.44 27.94 4.87z" fill="#0d87a3"/><path d="m72.23 101.69c.78 1.8 1.51 3.72 2.17 5.76-7.56 3.11-17.93 5.23-29.58 5.76l-.95-6.56c10.93-.41 20.77-2.22 28.3-4.93z" fill="#0d87a3"/><path d="m75.81 112.3-.04.01c-7.48 3.36-18.11 5.68-30.17 6.31h-.01l-.77-5.41c11.65-.53 22.02-2.65 29.58-5.76.51 1.54.98 3.16 1.41 4.85z" fill="#1498b7"/><path d="m32.96 113.2-.77 5.41c-11.89-.64-22.38-2.93-29.81-6.23l-.2-.05c.03-.12.06-.23.09-.34.41-1.57.85-3.08 1.34-4.52l.16.05c7.49 3.06 17.72 5.13 29.19 5.68z" fill="#1498b7"/><g fill="#3f2313"><path d="m69.31 72.55c.29 1.61-.43 3.29-1.91 4.18-1.05.62-2.26.72-3.33.36-.9-.28-1.71-.89-2.23-1.77-1.1-1.84-.57-4.2 1.16-5.4.09-.03.18-.08.27-.13.08-.05.16-.1.24-.16 1.88-.96 4.2-.3 5.29 1.54.26.44.43.91.51 1.38z"/><path d="m60.54 57.3c1.11 1.86.56 4.23-1.2 5.41-.08.03-.16.08-.23.12s-.14.09-.21.15c-1.62.84-3.57.48-4.79-.81l-.27-.27c2.27-1.94 4.05-4.06 5.16-5.9l.38.05c.46.32.86.74 1.16 1.25z"/><path d="m69.31 72.55c8.19 3.19 7.03 14.49 7.03 14.49l-3.23-1.22c-.54-.2-1.09-.34-1.64-.46-8.36-1.89-7.4-8.26-7.4-8.26v-.01z"/><path d="m64.67 64.23c1.1 1.85.57 4.21-1.16 5.4-.09.03-.18.08-.27.13-.08.05-.16.1-.24.16-1.88.96-4.2.3-5.29-1.53-1.11-1.86-.56-4.23 1.19-5.41.08-.03.16-.08.23-.12s.14-.09.21-.15c1.89-.98 4.23-.33 5.33 1.52z"/><path d="m13.98 77.09v.01s.96 6.37-7.4 8.26c-.56.12-1.11.26-1.64.46l-3.23 1.22s-1.17-11.3 7.02-14.49z"/><path d="m15.01 69.91c1.75 1.19 2.3 3.56 1.2 5.41-.52.87-1.33 1.48-2.23 1.77-1.07.36-2.29.26-3.33-.36-1.49-.89-2.21-2.57-1.92-4.18.08-.47.25-.94.51-1.38 1.11-1.85 3.45-2.51 5.33-1.53.07.06.14.11.21.15s.15.09.23.12z"/><path d="m19.14 62.98c1.76 1.17 2.31 3.55 1.2 5.41-1.11 1.85-3.45 2.5-5.33 1.52-.07-.06-.14-.11-.21-.15s-.15-.09-.23-.12c-1.75-1.18-2.3-3.55-1.2-5.41 1.11-1.85 3.45-2.5 5.33-1.52.07.06.14.11.21.15s.15.09.23.12z"/><path d="m19 56c1.11 1.85 2.91 3.97 5.18 5.92l-.25.25c-1.22 1.29-3.17 1.65-4.79.81-.07-.06-.14-.11-.21-.15s-.15-.09-.23-.12c-1.75-1.19-2.3-3.55-1.2-5.41.31-.51.71-.93 1.17-1.25z"/><path d="m63.54 38.1c.3-2.94.46-6.02.46-9.1l.03-3.11v-.826l-8.764-.128h-41.266v4.064c0 3.08.16 6.16.45 9.1h.01z"/></g><path d="m14.46 38.1c1.879 5.199 2.242 10.123 2.74 13.86-2.7.32-5.51-1.6-6.68-4.78-1.35-3.67.01-7.63 3.03-8.83.3-.12.6-.2.9-.25z" fill="#f7b6ad"/><path d="m64.44 38.35c3.03 1.2 4.38 5.16 3.03 8.83-1.17 3.18-3.97 5.1-6.67 4.78-.363-4.804.956-9.437 2.74-13.86.3.05.61.13.9.25z" fill="#f7b6ad"/><path d="m24.18 61.92c-2.27-1.95-4.07-4.07-5.18-5.92-.65-1.08-1.25-2.45-1.8-4.04-1.27-3.68-2.23-8.56-2.74-13.86.34-.14 6.45-2.6 4.77-6.08 0 0 5.54-1.66 4.27-6.13l.11-1.741h31.283l-.393 1.741c-1.27 4.47 4.27 6.13 4.27 6.13-1.73 3.58 4.77 6.08 4.77 6.08-.51 5.3-1.47 10.18-2.74 13.86h-.01c-.54 1.59-1.14 2.96-1.79 4.04-1.11 1.84-2.89 3.96-5.16 5.9-2.42 2.07-5.39 3.93-8.66 5.04-1.97.67-4.05 1.06-6.18 1.06-2.07 0-4.09-.37-6-1-3.33-1.1-6.36-2.98-8.82-5.08z" fill="#fec4b9"/><path d="m47.264 33.515c.026-.005 2.641-.423 4.441.844.175.123.375.182.574.182.314 0 .625-.147.819-.425.318-.452.209-1.075-.243-1.394-2.502-1.76-5.801-1.201-5.939-1.176-.544.096-.907.614-.811 1.158s.617.911 1.159.811z" fill="#3f2313"/><path d="m25.721 34.54c.199 0 .399-.059.574-.182 1.804-1.268 4.394-.852 4.443-.843.545.094 1.061-.269 1.157-.812.096-.544-.267-1.063-.811-1.158-.138-.024-3.438-.583-5.939 1.176-.452.318-.561.941-.243 1.394.195.278.505.425.819.425z" fill="#3f2313"/><path d="m41.727 45.318c-1.833.52-3.621.52-5.454 0-.531-.154-1.084.157-1.235.689-.151.531.158 1.084.689 1.234 1.094.311 2.195.468 3.273.468s2.179-.157 3.273-.468c.531-.15.84-.703.689-1.234-.15-.531-.702-.843-1.235-.689z" fill="#ea8d81"/><path d="m70.02 19.77c1.69 0 3.06 1.37 3.06 3.06 0 .85-.34 1.61-.9 2.16-.55.56-1.32.9-2.16.9h-5.99-9.53-31-9.49-6.03c-1.69 0-3.06-1.37-3.06-3.06 0-.85.34-1.61.9-2.16.55-.56 1.32-.9 2.16-.9h5.17 51.7z" fill="#f9b132"/><path d="m51.286 41.301c-.368.157-.783.223-1.186.242-.003-.01-.006-.021-.01-.032.245-.171.473-.367.664-.616.336-.438.254-1.066-.184-1.402-.438-.337-1.066-.255-1.402.184-.19.248-.441.343-.708.379-.156-.035-.316-.056-.483-.056-1.24 0-2.246 1.006-2.246 2.246s1.006 2.246 2.246 2.246c.752 0 1.413-.373 1.821-.94.022 0 .041.003.063.003.736 0 1.515-.118 2.211-.415.508-.218.744-.806.526-1.313-.216-.507-.805-.743-1.312-.526z" fill="#543927"/><path d="m30.023 40c-.167 0-.328.021-.484.055-.267-.036-.517-.133-.707-.38-.336-.438-.965-.521-1.402-.184-.438.336-.521.964-.184 1.402.191.249.419.444.665.615-.003.008-.005.016-.007.024-.424-.015-.847-.079-1.175-.226-.504-.227-1.096.001-1.32.506-.225.504.001 1.096.506 1.32.649.29 1.431.405 2.186.405.03 0 .058-.004.088-.005.406.578 1.075.958 1.836.958 1.24 0 2.246-1.006 2.246-2.246s-1.008-2.244-2.248-2.244z" fill="#543927"/></g></svg>