<svg id="Flat" enable-background="new 0 0 78.001 124.123" height="512" viewBox="0 0 78.001 124.123" width="512" xmlns="http://www.w3.org/2000/svg"><g><path d="m55.35 80.493-.06.02c-1.52-4.65-5.39-3.56-5.39-3.56l-.17.13c-1.78-2.47-4.49-1.71-4.49-1.71v.12l-1.75 2.88.029.018-4.369 7.212-4.27-7.18h-.04l-1.82-3.05s-2.67-.75-4.45 1.66l-.1-.08s-3.64-1.02-5.24 3.15c-9.39 6.18-20.07 18.7-23.23 44.02h20.87 4.57 8.52 4.15 1 1 4.34 8.36 4.69 20.5c-3.1-24.81-13.41-37.33-22.65-43.63z" fill="#c3ddda"/><path d="m45.19 67.053.05.15v8.17.12l-1.176 3.502-4.823 8.554-5.071-8.745-1.15-3.431v-8.17l.02-.07z" fill="#fec4b9"/><path d="m28.57 77.033c-.52.72-.97 1.72-1.25 3.11-2.47 12.43-1.88 43.98-1.88 43.98h-4.57v-.02c-.08-6.56-.24-31.63 1.9-42.38.12-.61.27-1.15.46-1.62 1.6-4.17 5.24-3.15 5.24-3.15z" fill="#acccc6"/><path d="m55.61 81.723c2.13 10.76 1.97 35.86 1.89 42.4h-4.69s.6-31.55-1.87-43.98c-.27-1.35-.7-2.34-1.21-3.06l.17-.13s3.87-1.09 5.39 3.56c.13.36.23.77.32 1.21z" fill="#acccc6"/><path d="m33.02 75.373 1.82 3.05s-.88 3.75-1.34 12.61c-.14 2.67-.24 5.81-.26 9.45-.03 3.5.02 7.46.16 11.92.12 3.58.3 7.48.56 11.72h-8.52s-.59-31.55 1.88-43.98c.28-1.39.73-2.39 1.25-3.11 1.78-2.41 4.45-1.66 4.45-1.66z" fill="#b8d3cf"/><path d="m45.24 75.493v-.12s2.71-.76 4.49 1.71c.51.72.94 1.71 1.21 3.06 2.47 12.43 1.87 43.98 1.87 43.98h-8.36c.26-4.24.44-8.14.56-11.72.14-4.46.19-8.42.16-11.92-.02-3.64-.12-6.78-.26-9.45-.46-8.86-1.34-12.61-1.34-12.61l-.08-.05z" fill="#b8d3cf"/><path d="m45.209 100.483c-.02-3.64-.12-6.78-.26-9.45-.46-8.86-1.34-12.61-1.34-12.61l-.08-.05-4.38 7.23-4.27-7.18s-.88 3.75-1.34 12.61c-.14 2.67-.24 5.81-.26 9.45-.03 3.5.02 7.46.16 11.92h-.039c.12 3.58.3 7.48.56 11.72h5.15 5.34c.26-4.24.44-8.14.56-11.72.14-4.46.19-8.42.16-11.92z" fill="#d14b62"/><path d="m72.43 1.783c-.53-.43-1.15-.73-1.8-.96-1.93-.68-6-1.65-9.84.47l-1.31.75-2.374 2.186 2.204 51.334v.01c3.65 12.97 14.94 18.37 15.71 18.71-.35-.27-2.7-2.68-1.21-18.01 0 0 2.3-23.86 3.16-28.96.03-.17.06-.32.1-.48.54-2.13 3.39-18.58-4.64-25.05z" fill="#3f2313"/><path d="m59.48 2.043c.12.58.03 1.35-.37 2.38 0 0 4.66-.54 2.85 4.12 0 0 4.65-.54 2.84 4.12 1.71-.2 3.18.35 3.26 2.03.02.39-.05.76-.18 1.1-.38 1-1.35 1.64-2.41 1.77l-3.12.38c-4.589-3.828-7.85-8.857-9.47-13.87l2.08-2.61c.38-.48.89-.86 1.48-1.02.54-.13 1.11-.13 1.64.06.64.22 1.25.66 1.4 1.54z" fill="#f48ca7"/><path d="m62.35 17.943c-1.59-5.28-4.52-10.47-9.47-13.87-3.52-2.43-8.07-3.95-13.88-3.95-20 0-25 18-25 29 0 3.08.16 6.16.45 9.1h49.09c.3-2.94.46-6.02.46-9.1 0-3.32-.45-7.27-1.65-11.18z" fill="#472d1c"/><path d="m64.44 38.473c3.03 1.2 4.38 5.16 3.03 8.83-1.17 3.18-3.97 5.1-6.67 4.78.53-4.907 1.104-8.769 2.74-13.86.3.05.61.13.9.25z" fill="#f7b6ad"/><path d="m14.45 38.223h.01c1.88 5.326 2.178 8.985 2.74 13.86-2.7.32-5.51-1.6-6.68-4.78-1.35-3.67.01-7.63 3.03-8.83.3-.12.6-.2.9-.25z" fill="#f7b6ad"/><path d="m63.54 38.223c-.51 5.3-1.47 10.18-2.74 13.86h-.01c-.45 1.33-.94 2.5-1.48 3.48v.01c-.1.19-.2.37-.31.55-2.29 3.81-7.48 8.79-13.81 10.93-1.97.67-4.05 1.07-6.19 1.07-2.06 0-4.06-.37-5.96-.99-6.43-2.1-11.73-7.15-14.04-11.01-.65-1.08-1.25-2.45-1.8-4.04-1.27-3.68-2.23-8.56-2.74-13.86.16-.63 5.56-20.25 34.04-22.13 1.71-.11 3.37.61 4.49 1.91 2.74 3.21 10.22 10.87 10.55 20.22z" fill="#fec4b9"/><path d="m47.261 28.638c.025-.006 2.63-.432 4.443.843.175.123.375.182.574.182.314 0 .625-.148.819-.425.318-.452.209-1.076-.243-1.393-2.502-1.76-5.799-1.202-5.939-1.177-.543.096-.904.613-.81 1.156.096.544.612.908 1.156.814z" fill="#3f2313"/><path d="m25.721 29.663c.199 0 .399-.059.574-.182 1.805-1.268 4.396-.851 4.443-.843.545.091 1.061-.269 1.157-.812.096-.544-.267-1.063-.811-1.159-.14-.026-3.438-.583-5.939 1.177-.452.317-.561.941-.243 1.393.195.278.505.426.819.426z" fill="#3f2313"/><path d="m41.727 40.441c-1.831.521-3.622.521-5.453 0-.532-.15-1.084.157-1.235.688s.157 1.084.688 1.235c1.093.311 2.195.468 3.273.468s2.18-.158 3.273-.468c.531-.151.839-.704.688-1.235s-.704-.838-1.234-.688z" fill="#ea8d81"/><path d="m15 124.103v-14.71c0-.552-.448-1-1-1s-1 .448-1 1l-.928 6.591c-.411 2.917-1.499 5.698-3.178 8.119z" fill="#acccc6"/><path d="m69.213 124.103c-1.308-2.096-2.22-4.415-2.689-6.841l-1.524-7.869c0-.552-.448-1-1-1s-1 .448-1 1v14.71z" fill="#acccc6"/><path d="m44.973 113.403c.012-.329.026-.669.037-.993v-1.007h-4.9v-9.92h5.063c-.001-.33 0-.677-.003-1h.035l-.035-1h-5.06v-7.45h4.81l-.008-1.663c-.006-.113-.013-.225-.019-.337h-4.783v-6.016l-.96 1.585-1.04-1.748v6.178h-4.514c-.019.33-.039.654-.057 1-.014.272-.026.57-.039.851v.149h4.61v7.45h-4.819c-.003.336-.009.655-.011 1-.003.323-.001.669-.003 1h4.833v9.92h-4.698c.01.337.016.657.027 1h-.039c.011.326.025.669.037 1h4.673v10.72h1 1v-10.72h4.863z" fill="#f48ca7"/><path d="m33.054 67.138s5.855 2.283 12.186-.102v3.13s-7.975.878-12.22-1.788z" fill="#f7b6ad"/><g fill="#543927"><path d="m51.286 36.424c-.367.157-.783.224-1.186.242-.004-.011-.006-.022-.01-.033.245-.171.473-.367.664-.616.336-.438.254-1.065-.184-1.402s-1.066-.255-1.402.184c-.19.248-.44.343-.708.379-.156-.034-.317-.055-.483-.055-1.24 0-2.246 1.006-2.246 2.246s1.006 2.246 2.246 2.246c.752 0 1.413-.373 1.821-.94.022 0 .042.004.063.004.736 0 1.515-.118 2.211-.416.508-.218.743-.806.526-1.313-.217-.509-.807-.743-1.312-.526z"/><path d="m30.023 35.123c-.166 0-.327.021-.483.055-.268-.036-.518-.132-.708-.379-.336-.439-.965-.521-1.402-.184-.438.336-.521.964-.184 1.402.191.249.419.445.665.616-.003.008-.005.016-.008.024-.424-.015-.846-.08-1.174-.226-.504-.226-1.096 0-1.321.505-.225.504.001 1.095.505 1.321.648.29 1.431.406 2.186.406.03 0 .058-.004.088-.005.406.578 1.076.958 1.836.958 1.24 0 2.246-1.006 2.246-2.246s-1.006-2.247-2.246-2.247z"/></g></g></svg>