<svg id="Flat" enable-background="new 0 0 78 124" height="512" viewBox="0 0 78 124" width="512" xmlns="http://www.w3.org/2000/svg"><g><path d="m45.18 66.94-12.18.06.01 13.56 12.19-.05z" fill="#f7b6ad"/><path d="m63.54 38.1c.3.05.61.13.9.25 3.03 1.2 4.38 5.16 3.03 8.83-1.17 3.18-3.97 5.1-6.67 4.78z" fill="#dfa3a5"/><path d="m17.2 51.96c-2.7.32-5.51-1.6-6.68-4.78-1.35-3.67.01-7.63 3.03-8.83.3-.12.6-.2.9-.25h.01z" fill="#dfa3a5"/><path d="m52.98 4.02.02-.02c1.82-2.43 4.73-4 8-4 5.52 0 10 4.48 10 10 0 4.84-3.44 8.87-8 9.8l-.09.02z" fill="#3f2313"/><path d="m54.37 5.08c.24-.02.49-.03.74-.03 4.94 0 8.94 4 8.94 8.94 0 1.77-.52 3.43-1.41 4.82z" fill="#1498b7"/><path d="m14.46 38.1c-.01 0-.01 0-.01 0-.29-2.94-.45-6.02-.45-9.1 0-11 5-29 25-29 5.87 0 10.44 1.55 13.98 4.02.48.33.95.69 1.39 1.06 4.34 3.6 6.9 8.67 8.27 13.73.1.34.18.67.27 1.01.78 3.24 1.09 6.43 1.09 9.18 0 3.08-.16 6.16-.46 9.1z" fill="#3f2313"/><path d="m63.54 38.1c-.51 5.3-1.47 10.18-2.74 13.86h-.01c-.54 1.59-1.14 2.96-1.79 4.04-2.29 3.81-7.49 8.79-13.82 10.94-1.97.67-4.05 1.06-6.18 1.06-2.07 0-4.09-.37-6-1-6.42-2.11-11.69-7.15-14-11-.65-1.08-1.25-2.45-1.8-4.04-1.27-3.68-2.23-8.56-2.74-13.86.25-.56 8.48-18.06 8.8-21.33 0 0 12.41 7.71 27.46 5.87.92-.11 1.85-.26 2.79-.45 0 0 .69.68 1.72 1.84 2.44 2.78 6.83 8.35 8.31 14.07z" fill="#f7b6ad"/><path d="m56.14 15.74c1.36.58 1.49 3.34.29 6.16-.34.8-.76 1.53-1.2 2.13-1.03-1.16-1.72-1.84-1.72-1.84-.94.19-1.87.34-2.79.45.1-.88.36-1.85.77-2.84 1.2-2.82 3.28-4.64 4.65-4.06z" fill="#d6eae8"/><path d="m52.279 29.54c-.199 0-.399-.059-.574-.182-1.813-1.274-4.418-.848-4.443-.843-.543.095-1.061-.271-1.155-.814s.267-1.06.81-1.156c.14-.025 3.437-.583 5.939 1.177.452.317.561.941.243 1.393-.196.277-.506.425-.82.425z" fill="#3f2313"/><path d="m25.721 29.54c-.314 0-.624-.148-.819-.425-.318-.452-.209-1.076.243-1.393 2.501-1.76 5.799-1.203 5.939-1.177.544.096.907.615.811 1.159-.096.543-.61.905-1.157.812-.046-.008-2.638-.426-4.443.843-.174.122-.375.181-.574.181z" fill="#3f2313"/><path d="m39 42.71c-1.079 0-2.18-.158-3.273-.468-.531-.151-.839-.704-.688-1.235s.704-.841 1.235-.688c1.831.521 3.622.521 5.453 0 .53-.153 1.084.157 1.235.688s-.157 1.084-.688 1.235c-1.094.31-2.195.468-3.274.468z" fill="#ea8d81"/><path d="m61.89 85.88c-3.24-3.33-6.58-5.73-9.68-7.46-2.15-1.2-4.18-2.07-5.97-2.71h-.03v-2.58c0-.7-.44-1.29-1.05-1.51-.17-.07-.36-.11-.56-.11h-1.49c-.9 0-1.62.72-1.62 1.62v2.21c0 .89-.72 1.62-1.62 1.62h-.87-.87c-.9 0-1.62-.73-1.62-1.62v-2.21c0-.9-.72-1.62-1.62-1.62h-1.49c-.13 0-.27.02-.39.05-.7.17-1.22.81-1.22 1.57v2.57l-.04.01c-10.07 3.6-27.54 14.64-31.75 48.29h14s.7-6.92 3.52-11.56l.48 11.56h4.87 37.13l.48-11.56c2.83 4.64 3.52 11.56 3.52 11.56h14c-2.38-19.01-8.99-30.81-16.11-38.12z" fill="#0d87a3"/><path d="m17.52 112.44-.05-1.23 34.74-32.79c3.1 1.73 6.44 4.13 9.68 7.46l-39.02 38.12h-4.87z" fill="#c43b58"/><path d="m39 80.2c1.41 0 2.56 1.14 2.56 2.55 0 1.42-1.15 2.56-2.56 2.56s-2.56-1.14-2.56-2.56c0-1.41 1.15-2.55 2.56-2.55z" fill="#c3ddda"/><circle cx="39" cy="117.5" fill="#c3ddda" r="2.56"/><path d="m33 67s5.796 2.306 12.18-.06l.02 2.996s-7.809.287-12.196-1.181z" fill="#dfa3a5"/><path d="m62.298 104.17-.299-4.128c.023-.552-.405-1.018-.957-1.041-.569-.022-1.018.406-1.041.957l.479 12.482c2.83 4.64 3.52 11.56 3.52 11.56h7.782c-.02-.194-6.91-4.915-9.484-19.83z" fill="#087d99"/><path d="m14.809 104.17.299-4.128c-.023-.552.405-1.018.957-1.041.569-.022 1.018.406 1.041.957l.414 12.482c-2.83 4.64-3.52 11.56-3.52 11.56h-7.782c.019-.194 6.016-4.915 8.591-19.83z" fill="#087d99"/><g fill="#543927"><path d="m51.286 36.301c-.367.157-.783.223-1.186.242-.004-.011-.006-.022-.01-.032.245-.171.473-.367.664-.616.336-.438.254-1.065-.184-1.402s-1.066-.256-1.402.184c-.19.247-.44.343-.706.38-.156-.036-.318-.057-.485-.057-1.24 0-2.246 1.006-2.246 2.246s1.006 2.246 2.246 2.246c.752 0 1.413-.373 1.821-.94.022 0 .042.004.063.004.736 0 1.515-.118 2.211-.416.508-.218.743-.806.526-1.313-.217-.508-.806-.744-1.312-.526z"/><path d="m30.023 35c-.167 0-.328.021-.484.056-.267-.036-.517-.133-.707-.38-.337-.44-.966-.52-1.402-.184-.438.336-.521.964-.184 1.402.191.249.419.445.665.616-.003.008-.005.016-.008.024-.423-.015-.846-.08-1.174-.226-.505-.227-1.096 0-1.321.505-.225.504.001 1.095.505 1.321.648.29 1.431.406 2.186.406.03 0 .058-.004.088-.005.406.578 1.076.958 1.836.958 1.24 0 2.246-1.006 2.246-2.246s-1.006-2.247-2.246-2.247z"/></g></g></svg>