<svg id="Flat" enable-background="new 0 0 78 123.321" height="512" viewBox="0 0 78 123.321" width="512" xmlns="http://www.w3.org/2000/svg"><g><path d="m64.45 34.451-.599-2.258h-49.791l-.31 2.258c-1.97 6.03-10.18 34.36 8.21 38.76 0 0-2.05-4.59-1.36-6.89 0 0 5.27 8.41 12.42 8.25l4.767.002 7.423-.002c7.13.14 12.39-8.25 12.39-8.25.68 2.3-1.36 6.89-1.36 6.89 18.38-4.4 10.18-32.73 8.21-38.76z" fill="#ffc05a"/><path d="m17.288 112.158-.698 1.363c-2.05 4.45-2.59 9.8-2.59 9.8h-14c.63-5.06 1.57-9.61 2.74-13.7l.496-1.696z" fill="#ffd7d2"/><path d="m78 123.321h-14s-.54-5.34-2.58-9.78l-.679-1.333 14.121-3.971.408 1.395c1.16 4.089 2.1 8.629 2.73 13.689z" fill="#ffd7d2"/><path d="m17.28 105.941-.12-.78-11.426-3.67-.484.78c-.41.99-.79 2.01-1.16 3.07-.48 1.37-.94 2.79-1.35 4.28l.07.02 13.74 3.87.04.01c.28-.61.59-1.2.93-1.76l-.11-2.63z" fill="#e7f2f1"/><path d="m73.91 105.351c-.36-1.06-.75-2.08-1.15-3.06l-.439-1.056-11.731 3.383.13 1.312-.13 3.2-.11 2.63c.34.56.66 1.16.94 1.78l.07-.03 13.74-3.87.04-.01c-.42-1.489-.87-2.909-1.36-4.279z" fill="#e7f2f1"/><path d="m60.718 105.971-.128 3.161-.11 2.63-.48 11.559h-42l-.48-11.56-.11-2.63-.13-3.19h-.09l-11.83-3.62-.11-.05c5.56-13.68 13.91-20.92 20.92-24.72l1.521-.443 11.336 10.233 12.113-9.69 1.28.22c6.88 3.88 14.93 11.09 20.34 24.42l-.08.03-11.83 3.62z" fill="#d14b62"/><path d="m51.14 107.661-5.82 3.8c-.23.15-.34.41-.26.64l.51 1.35-4.11-.33.54 5.03h-2.93-.14-2.93l.54-5.03-4.11.33.51-1.35c.08-.23-.03-.49-.26-.64l-5.82-3.8 1.21-.46c.53-.15.38-.39.19-.97l-.89-2.6 3.38.57c.33.04.54-.13.6-.29l.43-1.23 2.67 2.42c.38.38 1.15.38.91-.51l-1.14-4.89 1.53.64c.43.2.86.23 1.1-.12l2.15-3.18h.01l2.14 3.18c.24.35.67.32 1.1.12l1.53-.64-1.14 4.89c-.24.89.53.89.91.51l2.67-2.42.43 1.23c.06.16.27.33.6.29l3.38-.57-.89 2.6c-.19.58-.34.82.19.97z" fill="#d6eae8"/><path d="m17.28 105.941.13 3.19h-.05l-13.15-3.75-.12-.04c.37-1.06.75-2.08 1.16-3.07l.11.05 11.83 3.62z" fill="#c3ddda"/><path d="m73.91 105.351-.08.03-13.15 3.75h-.09l.128-3.161.132-.029 11.83-3.62.08-.03c.4.98.79 2 1.15 3.06z" fill="#c3ddda"/><path d="m14.06 24.751c1.16-5.47 4.85-16.38 16.03-18.94 7.84-1.8 12.01-2.59 14.21-2.93 1.41-.22 2.76-.71 3.97-1.45l.08-.05c5.51-3.34 12.7-.33 14.4 5.88.61 2.21.82 4.91.24 8.17-.14.78-.24 1.57-.26 2.37-.02 1.67-.01 4.68.32 6.94l-.071 3.963-48.919-.34v-3.613z" fill="#d14b62"/><path d="m65.95 24.451s-1.02.2-2.87.47c-.93.14-2.06.29-3.37.44-2.97.35-6.87.71-11.4.88-2.8.11-5.84.15-9.05.08h-.26c-3.31.07-6.44.03-9.31-.09-4.55-.18-8.46-.55-11.4-.9-1.78-.21-3.21-.42-4.23-.58-1.13-.18-1.75-.3-1.75-.3-2.76 0-5 2.24-5 5s2.24 5 5 5h1.44 4.53 6.18 5.23 9.1.67 8.85 5.73 5.68 4.73 1.5c2.76 0 5-2.24 5-5s-2.24-5-5-5z" fill="#d6eae8"/><path d="m29.69 26.231v.05s-2.89 3.36 0 8.17h-5.23-6.18c-2.04-5.32 0-8.98 0-8.98l.01-.14c2.94.35 6.85.72 11.4.9z" fill="#f48ca7"/><path d="m59.72 25.471s2.04 3.66 0 8.98h-5.68-5.73c2.89-4.81 0-8.17 0-8.17v-.04c4.53-.17 8.43-.53 11.4-.88z" fill="#f48ca7"/><path d="m45.24 74.691-.03-.07v-.05l-.03-8.31-.03-.09-12.08-.05-.07.2.02 8.25.01.03c-.75.24-1.55.52-2.39.85l.04.1 8.347 11.79 8.633-11.7.02-.06c-.86-.35-1.67-.64-2.44-.89z" fill="#ffd7d2"/><path d="m18.98 47.881c1.82-3.3 4.33-8.45 5.48-13.43h5.23 9.1.67 8.85 5.73c1.13 4.92 3.59 10 5.4 13.31 1.27 2.32 1.19 5.15-.25 7.37l-.01.03c-2.31 3.86-7.6 8.9-14.03 11.01-1.9.62-3.91.99-5.97.99-2.11 0-4.16-.38-6.11-1.04-6.37-2.13-11.59-7.13-13.89-10.96l-.05-.07c-1.34-2.21-1.39-4.95-.15-7.21z" fill="#ffd7d2"/><path d="m52.42 77.871-.16.28-13.28 13.11-12.72-13.54-.09-.17c1.57-.87 3.08-1.55 4.47-2.1l.04.1 8.3 8.81 8.68-8.72.02-.06c1.48.59 3.07 1.34 4.74 2.29z" fill="#e7f2f1"/><path d="m41.728 48.64c-1.834.52-3.621.52-5.455 0-.528-.153-1.083.157-1.234.689-.15.531.157 1.084.689 1.234 1.094.311 2.194.468 3.272.468s2.179-.157 3.272-.468c.532-.15.84-.703.689-1.234-.15-.532-.706-.842-1.233-.689z" fill="#ea8d81"/><path d="m33.002 66.321s5.796 2.306 12.18-.06l.006 3.011s-7.938.884-12.183-1.782z" fill="#fec4b9"/><path d="m18 123.321-.841-20.151c-.023-.552.406-1.018.958-1.04.552-.023 1.017.406 1.04.958.46 10.185 2.378 17.258 6.291 20.234h-7.448z" fill="#c43b58"/><path d="m59.991 123.321.841-20.151c.023-.552-.406-1.018-.958-1.04-.552-.023-1.017.406-1.04.958-.46 10.185-2.378 17.258-6.291 20.234h7.448z" fill="#c43b58"/><g fill="#543927"><path d="m51.285 43.623c-.367.156-.782.222-1.185.241-.003-.011-.006-.021-.01-.032.245-.171.473-.367.665-.616.337-.438.254-1.065-.184-1.402s-1.065-.255-1.402.184c-.19.248-.441.343-.709.379-.156-.034-.317-.055-.483-.055-1.24 0-2.246 1.006-2.246 2.246s1.006 2.246 2.246 2.246c.752 0 1.413-.373 1.821-.94.022 0 .041.003.063.003.736 0 1.515-.118 2.211-.416.508-.217.743-.805.525-1.313s-.809-.747-1.312-.525z"/><path d="m30.023 42.321c-.166 0-.327.021-.482.055-.268-.036-.519-.132-.709-.379-.336-.437-.963-.52-1.402-.184-.438.337-.521.965-.184 1.402.192.249.42.444.665.615-.003.008-.005.016-.007.023-.423-.015-.846-.079-1.174-.225-.505-.227-1.096.002-1.32.506-.226.504.001 1.096.506 1.32.648.29 1.431.405 2.186.405.03 0 .058-.004.087-.005.406.578 1.075.958 1.836.958 1.24 0 2.246-1.006 2.246-2.246s-1.008-2.245-2.248-2.245z"/></g></g></svg>