<svg id="Flat" enable-background="new 0 0 84.595 124" height="512" viewBox="0 0 84.595 124" width="512" xmlns="http://www.w3.org/2000/svg"><g><path d="m74.691 99.84c3.28-4.71-.19-11.9-.19-11.9s-5.74-11.85-6.05-37.41l-52.33-.02c-.31 25.57-6.05 37.43-6.05 37.43s-3.48 7.21-.18 11.92z" fill="#472d1c"/><path d="m17.281 7.13v-.01l3.58-4.48c.57-.72 1.41-1.18 2.33-1.27 3.91-.37 14.72-1.37 19.09-1.37h.04c4.37 0 15.18 1 19.09 1.37.92.09 1.76.55 2.33 1.27l3.58 4.48v.02z" fill="#82387d"/><path d="m2.961 32.11-2.87-13.86c-.34-1.66.29-3.36 1.62-4.4 3.44-2.7 8.85-5.04 15.57-6.72 7.15-1.81 15.77-2.87 25.02-2.87s17.87 1.07 25.02 2.88c6.7 1.68 12.11 4.01 15.55 6.71 1.34 1.05 1.98 2.75 1.63 4.41l-2.86 13.85z" fill="#f9b132"/><path d="m66.841 38.1c.3-2.94.46-6.02.46-9.1 0-1.05-.05-2.16-.15-3.31-8.064-3.612-15.776-6.281-26.276-5.286-6.314-.389-18.035 1.325-23.434 5.286-1.882 1.149-1.452 9.469.31 12.41h.01z" fill="#472d1c"/><path d="m18.371 119.25c-.74 2.66-1.07 4.75-1.07 4.75h-14c.2-1.64.44-3.22.71-4.75l.27-1.492 14.273.385z" fill="#fec4b9"/><path d="m81.301 124h-14s-.36-2.09-1.15-4.75l-.325-1.034 14.523-.362.252 1.386c.26 1.54.49 3.12.7 4.76z" fill="#fec4b9"/><path d="m71.201 43.13h.01c6.47-2.9 10.43-6.77 10.43-11.02 0-5.3-6.13-10-15.61-12.97-6.59-2.06-14.82-3.29-23.73-3.29-8.92 0-17.14 1.23-23.74 3.29-9.48 2.97-15.6 7.67-15.6 12.97 0 4.25 3.95 8.12 10.42 11.02h.01l4.36-5.03c-.29-2.94-.45-6.02-.45-9.1 0-1.05.04-2.16.14-3.31 5.78-1.78 12.29-2.97 18.89-3.42 1.99-.14 3.98-.21 5.97-.21 8.59 0 17.33 1.32 24.85 3.63.1 1.15.15 2.26.15 3.31 0 3.08-.16 6.16-.46 9.1z" fill="#e58e1a"/><path d="m68.451 50.53c-1.27 1.08-2.83 1.61-4.35 1.43-.129-4.277.451-9.32 2.74-13.86.3.05.61.13.9.25 1.9.75 3.14 2.6 3.46 4.78.2 1.28.07 2.69-.43 4.05-.51 1.39-1.33 2.53-2.32 3.35z" fill="#f7b6ad"/><path d="m16.121 50.51c-.98-.82-1.79-1.95-2.3-3.33-.5-1.36-.63-2.77-.43-4.05.32-2.18 1.56-4.02 3.46-4.78.3-.12.6-.2.9-.25h.01c1.665 5.108 2.512 10.006 2.74 13.86-1.53.18-3.1-.36-4.38-1.45z" fill="#f7b6ad"/><path d="m66.841 38.1c-.51 5.3-1.47 10.18-2.74 13.86h-.01c-.54 1.59-1.14 2.96-1.79 4.04-2.29 3.81-7.49 8.79-13.82 10.94-1.97.67-4.05 1.06-6.18 1.06-2.07 0-4.09-.37-6-1-6.42-2.11-11.69-7.15-14-11-.65-1.08-1.25-2.45-1.8-4.04-1.27-3.68-2.23-8.56-2.74-13.86.44-.23 14.59-7.5 18.57-15.83 0 0 12.98 13.22 30.51 15.83z" fill="#fec4b9"/><path d="m59.211 80.75c-3.93-2.77-7.69-4.41-10.67-5.38l-.03-.07-.03-8.36-12.18.06.02 8.25.01.03c-2.99.95-6.81 2.58-10.81 5.39l-3.45 2.71c7.677 7.716 29.219 8.609 40.54.06z" fill="#fec4b9"/><path d="m59.211 80.75-.03.04c-1.44.68-2.24 2.14-2.14 3.63l-.16.05c-.91-1.79-3.09-2.54-4.92-1.68-1.24.59-2.01 1.78-2.13 3.06l-.17.02c-.53-1.42-1.9-2.43-3.51-2.43-2.06 0-3.74 1.67-3.74 3.74h-.05c0-2.07-1.67-3.74-3.73-3.74-1.61 0-2.98 1.01-3.51 2.43l-.17-.02c-.12-1.28-.89-2.47-2.14-3.06-1.83-.86-4-.11-4.92 1.68l-.15-.05c.1-1.49-.71-2.95-2.14-3.63l-.08-.12c-1.14.8-2.3 1.7-3.45 2.71l.22.25c3.99 2.47 11.46 4.14 20.01 4.14h.12c8.72-.02 16.3-1.76 20.19-4.33-1.14-1-2.28-1.89-3.4-2.69z" fill="#ffc05a"/><path d="m62.951 112.34c-.54 5.54-.32 11.64-.32 11.64h-20.33-20.38s.23-6.36-.36-11.99l-.303.499c-1.32 2.16-2.237 4.441-2.887 6.761h-14.35-.01c1.33-7.7 3.39-14.09 5.88-19.39 3.5-7.42 7.83-12.71 12.18-16.48l.22.25c3.99 2.47 11.46 4.14 20.01 4.14h.12c8.72-.02 16.3-1.76 20.19-4.33 4.32 3.77 8.62 9.04 12.08 16.4 2.5 5.31 4.57 11.7 5.91 19.4l-.04.01h-14.41c-.65-2.19-1.593-4.352-2.893-6.452z" fill="#894687"/><path d="m36.303 67s5.796 2.306 12.18-.06l.006 5.025s-7.938.884-12.183-1.782z" fill="#f7b6ad"/><path d="m45.028 44.318c-1.833.52-3.621.52-5.454 0-.53-.154-1.084.158-1.235.689s.158 1.084.689 1.234c1.094.311 2.195.468 3.273.468s2.179-.157 3.273-.468c.531-.15.84-.703.689-1.234-.15-.53-.704-.843-1.235-.689z" fill="#ea8d81"/><path d="m67.301 124s-.023-.133-.069-.372c.022.125.047.245.069.372z" fill="#82387d"/><path d="m66.151 119.25c.592 1.992.942 3.663 1.081 4.378-.291-1.617-.657-3.076-1.063-4.378z" fill="#fec4b9"/><path d="m69.831 119.25c-2.772-3.533-4.898-7.682-5.855-8.833-.382-.46-1.074-.488-1.491-.06-.355.364-.387.937-.063 1.329.956 1.16 2.528 3.664 3.746 7.564h3.658z" fill="#82387d"/><path d="m69.831 119.25h-.005-3.658c.407 1.302.772 2.761 1.063 4.378.047.24.069.372.069.372h7.765c-1.891-.946-3.665-2.75-5.234-4.75z" fill="#f7b6ad"/><path d="m14.703 119.25c2.772-3.533 4.639-7.762 5.596-8.913.382-.46 1.074-.488 1.491-.06.355.364.377.929.063 1.329-1.042 1.33-2.372 3.798-3.487 7.644h-3.658z" fill="#82387d"/><path d="m14.703 119.25h.005 3.658c-.407 1.302-.719 2.761-1.01 4.378-.047.24-.069.372-.069.372h-7.818c1.891-.946 3.665-2.75 5.234-4.75z" fill="#f7b6ad"/><g fill="#543927"><path d="m54.587 39.301c-.368.157-.783.224-1.186.242-.004-.011-.006-.022-.01-.032.245-.171.473-.367.664-.616.336-.438.254-1.066-.184-1.402-.438-.337-1.066-.254-1.402.184-.19.247-.44.343-.707.38-.156-.036-.317-.057-.484-.057-1.24 0-2.246 1.006-2.246 2.246s1.006 2.246 2.246 2.246c.752 0 1.413-.373 1.821-.94.022 0 .041.003.063.003.736 0 1.515-.118 2.211-.415.508-.218.744-.806.526-1.313-.217-.507-.806-.742-1.312-.526z"/><path d="m33.323 38c-.167 0-.328.021-.484.055-.267-.036-.517-.133-.707-.38-.337-.438-.966-.52-1.402-.184-.438.336-.521.964-.184 1.402.191.249.419.444.665.615-.003.008-.005.016-.007.024-.424-.015-.847-.079-1.175-.226-.503-.228-1.096.002-1.32.506-.225.504.001 1.096.506 1.32.649.29 1.431.405 2.186.405.03 0 .058-.004.088-.005.406.578 1.075.958 1.836.958 1.24 0 2.246-1.006 2.246-2.246s-1.007-2.244-2.248-2.244z"/></g></g></svg>