<svg id="Flat" enable-background="new 0 0 78 124" height="512" viewBox="0 0 78 124" width="512" xmlns="http://www.w3.org/2000/svg"><g><path d="m52.46 78.57c-2.7-4.08-.77-6.8-.77-6.8 7.75 7.91 16.31 1.87 16.31 1.87-11.7-.51-9-17.64-9-17.64h-40s2.69 17.13-9 17.64c0 0 8.55 6.04 16.3-1.87 0 0 1.93 2.72-.78 6.81z" fill="#3f2313"/><path d="m71.88 100.89c-1.43-3.19-3.02-6.01-4.7-8.49-.89-1.32-1.81-2.55-2.75-3.68-1.67-2.03-3.4-3.78-5.13-5.3-1.27-1.1-2.54-2.08-3.79-2.94-4.872 0-27.404 0-33.01 0h-.01c-1.25.87-2.52 1.84-3.78 2.95-1.74 1.5-3.47 3.26-5.14 5.29-.93 1.13-1.85 2.36-2.75 3.68-1.68 2.48-3.27 5.3-4.69 8.5-2.77 6.17-4.96 13.77-6.13 23.1h14s1.15-7.34 4-11.98c.1 6.72 0 11.98 0 11.98h21 20.96s-.1-5.08-.01-11.63c.01.02.03.05.05.08 2.82 4.64 4 11.55 4 11.55h14c-1.17-9.34-3.36-16.93-6.12-23.11z" fill="#f48ca7"/><path d="m17.2 51.96c-2.7.32-5.51-1.6-6.68-4.78-1.35-3.67.01-7.63 3.03-8.83.3-.12.6-.2.9-.25h.01c2.13 4.924 2.841 9.862 2.74 13.86z" fill="#fec4b9"/><path d="m64.44 38.35c3.03 1.2 4.38 5.16 3.03 8.83-1.17 3.18-3.97 5.1-6.67 4.78-.049-3.681.671-8.561 2.74-13.86.3.05.61.13.9.25z" fill="#fec4b9"/><path d="m45.18 66.94.03 8.36.03.07c2.09.68 4.57 1.69 7.22 3.2.01 0 .01.01.01.01.99.55 2.01 1.19 3.04 1.9-4.16 1.45-10.15 2.31-16.51 2.31s-12.33-.86-16.5-2.31c1.02-.71 2.03-1.34 3.02-1.9 2.77-1.58 5.36-2.62 7.51-3.3l-.01-.03-.02-8.25z" fill="#ffd7d2"/><path d="m71.88 100.89h-.01c-.95 1-2.29 1.74-3.86 2.03-1.32.24-2.62.13-3.79-.24-.88 1.66-2.61 2.94-4.82 3.35-2.07.38-4.13-.09-5.67-1.14-.93 1.51-2.58 2.66-4.65 3.05-1.84.33-3.66 0-5.13-.81-1.26 1.16-3.04 1.89-5.02 1.89-1.95 0-3.72-.71-4.97-1.84-1.45.77-3.24 1.09-5.04.76-2.07-.39-3.72-1.54-4.65-3.05-1.54 1.05-3.6 1.52-5.67 1.14-2.21-.41-3.94-1.69-4.82-3.35-1.17.37-2.47.48-3.79.24-1.57-.29-2.9-1.03-3.86-2.02 1.42-3.2 3.01-6.02 4.69-8.5 7 1.96 17.18 3.1 28.18 3.1 11.01 0 21.18-1.14 28.18-3.1 1.68 2.48 3.27 5.3 4.7 8.49z" fill="#e58e1a"/><path d="m64.43 88.72c.94 1.13 1.86 2.36 2.75 3.68-7 1.96-17.17 3.1-28.18 3.1-11 0-21.18-1.14-28.18-3.1.9-1.32 1.82-2.55 2.75-3.68 5.96 1.73 15.37 2.78 25.43 2.78 10.05 0 19.44-1.04 25.41-2.77z" fill="#1ea6bc"/><path d="m64.43 88.72-.02.01c-5.97 1.73-15.36 2.77-25.41 2.77-10.06 0-19.47-1.05-25.43-2.78 1.67-2.03 3.4-3.79 5.14-5.29 4.9 2.12 12.28 3.36 20.29 3.36 8.02 0 15.4-1.24 20.3-3.37 1.73 1.52 3.46 3.27 5.13 5.3z" fill="#f9b132"/><path d="m15.851 15.419c.49-.73 2.969-4.759 2.969-4.759 3.73-6.02 10.02-10.66 20.18-10.66 20 0 25 18 25 29 0 3.08-.16 6.16-.46 9.1h-49.08-.01c-.29-2.94-.45-6.02-.45-9.1 0-.88.05-2.2.12-3.16.02-.08.03-.17.04-.26l-.05-1.54c-.11-2.487 1.741-8.621 1.741-8.621z" fill="#3f2313"/><path d="m63.54 38.1c-.51 5.3-1.47 10.18-2.74 13.86h-.01c-.54 1.59-1.14 2.96-1.79 4.04-2.29 3.81-7.49 8.79-13.82 10.94-1.97.67-4.05 1.06-6.18 1.06-2.07 0-4.09-.37-6-1-6.42-2.11-11.69-7.15-14-11-.65-1.08-1.25-2.45-1.8-4.04-1.27-3.68-2.23-8.56-2.74-13.86.42-.09 10.51-2.41 10.59-10.25.09-8 4.6-13.19 12-12.34 0 0 .95 15.87 26.49 22.59z" fill="#ffd7d2"/><path d="m55.51 80.48c1.25.86 2.52 1.84 3.79 2.94-4.9 2.13-12.28 3.37-20.3 3.37-8.01 0-15.39-1.24-20.29-3.36 1.26-1.11 2.53-2.08 3.78-2.95h.01c4.17 1.45 10.14 2.31 16.5 2.31s12.35-.86 16.51-2.31z" fill="#c43b58"/><path d="m23.08 17.09c.27 1.55-.98 2.95-2.55 2.84l-1.01-.18c-.37-.07-.75.14-.87.5-.03.1-.06.2-.1.29-.15.36.01.78.36.96l1 .53c1.27.94 1.33 2.81.12 3.82s-3.04.63-3.74-.79l-.48-1.33c-.12-.34-.46-.55-.81-.51l-.18.01c-.42.04-.73.4-.71.81l.05 1.54c-.01.09-.02.18-.04.26-.24 1.07-1.16 1.82-2.2 1.89-.33.03-.67-.02-1.01-.14-1.48-.54-2.06-2.32-1.18-3.63l1.18-1.39c.23-.28.25-.68.03-.97-.01-.01-.03-.03-.04-.04-.24-.34-.69-.43-1.04-.21l-1.65 1.02c-1.44.63-3.09-.25-3.36-1.81-.27-1.55.98-2.94 2.55-2.84l1.94.35c.39.07.77-.16.89-.54 0 0 0 0 0-.01.11-.36-.04-.74-.37-.92l-1.84-.98c-.57-.41-.89-1.02-.97-1.64-.1-.79.18-1.62.85-2.18 1.21-1.01 3.04-.62 3.74.79l.59 1.63c.14.4.56.61.96.49l.09-.03c.34-.11.56-.42.55-.78l-.06-1.83c.17-1.56 1.77-2.55 3.25-2.01.65.24 1.12.72 1.37 1.29.34.73.3 1.62-.19 2.35l-.77.91c-.26.31-.24.78.05 1.06.07.06.13.12.18.18.25.27.66.3.97.11l1.09-.68c1.44-.63 3.09.26 3.36 1.81z" fill="#0d87a3"/><path d="m33.002 67s5.796 2.306 12.18-.06l.006 5.025s-7.938.884-12.183-1.782z" fill="#f7b6ad"/><path d="m41.728 44.318c-1.834.52-3.621.52-5.455 0-.528-.153-1.083.157-1.234.689-.15.531.157 1.084.689 1.234 1.094.311 2.194.468 3.272.468s2.179-.157 3.272-.468c.532-.15.84-.703.689-1.234-.15-.531-.706-.841-1.233-.689z" fill="#ea8d81"/><path d="m26.574 124h-8.574c.003-.068.173-6.678-.092-14.343-.019-.551.404-1.017.954-1.041.553-.024 1.027.407 1.044.961.434 13.976 6.67 14.354 6.668 14.423z" fill="#ea728c"/><path d="m51.347 124h8.574c-.003-.068-.052-6.909.092-14.343.011-.551-.404-1.017-.954-1.041-.553-.024-1.048.407-1.044.961.083 11.426-6.67 14.354-6.668 14.423z" fill="#ea728c"/><g fill="#543927"><path d="m51.285 40.302c-.367.156-.782.222-1.185.241-.003-.011-.006-.021-.01-.032.245-.171.473-.367.665-.616.337-.438.254-1.065-.184-1.402s-1.065-.254-1.402.184c-.19.247-.44.344-.707.38-.156-.036-.318-.057-.485-.057-1.24 0-2.246 1.006-2.246 2.246s1.006 2.246 2.246 2.246c.752 0 1.413-.373 1.821-.94.022 0 .041.003.063.003.736 0 1.515-.118 2.211-.416.508-.217.743-.805.525-1.313s-.809-.745-1.312-.524z"/><path d="m30.023 39c-.167 0-.328.021-.484.055-.267-.036-.518-.133-.707-.38-.336-.437-.963-.521-1.402-.184-.438.337-.521.965-.184 1.402.192.249.42.444.665.615-.003.008-.005.015-.007.023-.423-.015-.846-.079-1.175-.225-.505-.229-1.096.002-1.32.506-.226.504.001 1.096.506 1.32.648.29 1.431.405 2.186.405.03 0 .058-.004.087-.005.406.578 1.075.958 1.836.958 1.24 0 2.246-1.006 2.246-2.246s-1.007-2.244-2.247-2.244z"/></g></g></svg>