<svg id="Flat" enable-background="new 0 0 78 124.031" height="512" viewBox="0 0 78 124.031" width="512" xmlns="http://www.w3.org/2000/svg"><g><path d="m21.22 81.4c-1.02.76-2.06 1.61-3.09 2.55-6.5 5.86-12.86 15.19-16.34 29.99 4.73 3.06 12.64 3.96 13.65 4.06.6-1.93 1.4-4.02 2.44-5.76.39 5.87.2 11.76.2 11.76h20.92 20.87s-.18-5.68.19-11.44c1.01 1.68 1.8 3.63 2.39 5.45h.01s8.69-.79 13.75-4.07c-3.47-14.8-9.84-24.13-16.33-30-1.03-.94-2.07-1.78-3.1-2.55z" fill="#d6eae8"/><path d="m62.02 116.764s7.895-1.573 14.19-2.824c.73 3.11 1.34 6.45 1.79 10.06h-14s-.48-2.78-1.55-5.99z" fill="#ffd7d2"/><path d="m15.44 118c-1 3.22-1.44 6-1.44 6h-14c.45-3.61 1.06-6.95 1.79-10.06 5.93.996 12.465 3.039 13.65 4.06z" fill="#ffd7d2"/><path d="m56.78 81.39c1.03.77 2.07 1.61 3.1 2.55-3.49 4.99-11.61 8.05-20.88 8.05-9.26 0-17.38-3.06-20.87-8.04 1.03-.94 2.07-1.79 3.09-2.55l.06.08c2.72 3.9 9.84 6.51 17.72 6.51s15-2.61 17.71-6.51z" fill="#d14b62"/><path d="m30.9 66.28c-1.54 2.42-4.36 4.04-7.59 4.04-4.87 0-8.81-3.68-8.81-8.22 0-2.83 1.54-5.33 3.88-6.81l.03-.01z" fill="#472d1c"/><path d="m64.121 24.565c-.761-9.267-2.791-10.229-5.061-13.795l-.07-.11c-3.73-6.02-10.02-10.66-20.18-10.66-20 0-25 18-25 29 0 3.08.16 6.16.45 9.1 0 0 .01 0 .03-.01l49.07.01c.29-2.94.45-6.02.45-9.1 0-.88-.05-2.2-.12-3.16z" fill="#472d1c"/><path d="m17 51.96c-2.69.31-5.5-1.61-6.67-4.78-1.35-3.67.01-7.63 3.04-8.83.29-.12.59-.2.89-.25 1.687 4.964 2.229 9.368 2.74 13.86z" fill="#fec4b9"/><path d="m64.26 38.35c3.02 1.2 4.38 5.16 3.03 8.83-1.17 3.17-3.98 5.09-6.67 4.78-.982-4.428.391-8.641 2.74-13.86.3.05.6.13.9.25z" fill="#fec4b9"/><path d="m45.16 66.88.02.06.03 8.36.03.07c3.2 1.04 7.3 2.86 11.54 6.02l-.07.09c-2.71 3.9-9.83 6.51-17.71 6.51s-15-2.61-17.72-6.51l-.06-.08c4.36-3.26 8.58-5.09 11.81-6.12l-.01-.03-.02-8.19z" fill="#ffd7d2"/><path d="m30.9 66.28c-5.54-2.4-10.01-6.82-12.09-10.28-.14-.23-.27-.47-.4-.72-.5-.95-.97-2.06-1.41-3.32-1.26-3.68-2.22-8.56-2.74-13.86 0 0 .01 0 .03-.01 26.39-7.61 26.46-22.58 26.46-22.58 7.41-.85 11.92 4.34 12 12.34.09 8 10.61 10.25 10.61 10.25-.52 5.3-1.48 10.18-2.74 13.86-.56 1.59-1.16 2.96-1.81 4.04-2.27 3.78-7.39 8.7-13.65 10.88-2.02.7-4.15 1.12-6.35 1.12-2 0-3.95-.35-5.81-.94-.72-.23-1.42-.49-2.1-.78z" fill="#ffd7d2"/><path d="m70.4 17.72c1.58-.1 2.83 1.29 2.56 2.84-.27 1.56-1.92 2.44-3.37 1.81l-1.64-1.02c-.35-.22-.8-.13-1.05.21-.01.01-.02.03-.03.04-.22.29-.2.69.03.97l1.18 1.39c.88 1.31.29 3.09-1.19 3.63-.33.12-.68.17-1.01.14-1.04-.07-1.95-.82-2.19-1.89-.02-.08-.04-.17-.05-.26l.06-1.54c.01-.41-.3-.77-.71-.81l-.18-.01c-.36-.04-.69.17-.81.51l-.48 1.33c-.7 1.42-2.53 1.8-3.74.79s-1.15-2.88.11-3.82l1.01-.53c.34-.18.51-.6.36-.96-.04-.09-.07-.19-.1-.29-.12-.36-.5-.57-.87-.5l-1.01.18c-1.57.11-2.83-1.29-2.55-2.84.27-1.55 1.92-2.44 3.36-1.81l1.09.68c.31.19.72.16.96-.11.06-.06.12-.12.18-.18.3-.28.32-.75.06-1.06l-.78-.91c-.49-.74-.52-1.62-.19-2.35.25-.57.73-1.05 1.38-1.29 1.48-.54 3.07.45 3.25 2.01l-.06 1.83c-.02.36.21.67.55.78l.08.03c.4.12.83-.09.97-.49l.59-1.63c.69-1.41 2.53-1.8 3.74-.79.67.56.95 1.39.85 2.18-.08.62-.41 1.23-.97 1.64l-1.84.98c-.33.18-.49.56-.37.92v.01c.12.38.49.61.88.54z" fill="#d14b62"/><path d="m33.002 67s5.796 2.306 12.18-.06l.006 5.025s-7.938.884-12.183-1.782z" fill="#f7b6ad"/><path d="m39 46.71c-1.078 0-2.179-.157-3.272-.468-.532-.15-.84-.703-.689-1.234.151-.532.706-.843 1.234-.689 1.834.52 3.621.52 5.455 0 .526-.152 1.083.157 1.234.689.15.531-.157 1.084-.689 1.234-1.094.311-2.195.468-3.273.468z" fill="#ea8d81"/><path d="m51.279 35c-.198 0-.399-.059-.574-.182-1.813-1.274-4.417-.847-4.444-.843-.539.098-1.061-.271-1.154-.814-.095-.543.267-1.06.81-1.155.138-.024 3.438-.583 5.939 1.176.452.318.561.941.243 1.394-.196.276-.505.424-.82.424z" fill="#3f2313"/><path d="m19.867 112.173c-.361-5.3-1.041-8.801-2.08-10.702-.266-.484-.873-.662-1.357-.398-.484.266-.663.873-.398 1.357.609 1.113 1.422 3.731 1.84 9.877.382 5.75.2 11.603.199 11.661l6.492.032c.002-.06-4.308-5.975-4.696-11.827z" fill="#c3ddda"/><path d="m61.498 101.072c-.483-.264-1.092-.086-1.356.399-1.063 1.95-1.751 5.557-2.101 11.024-.368 5.741-5.576 11.479-5.574 11.535l7.381-.063c-.001-.057-.174-5.697.188-11.346.406-6.351 1.235-9.049 1.86-10.194.267-.483.088-1.09-.398-1.355z" fill="#c3ddda"/><g fill="#543927"><path d="m51.285 40.302c-.367.156-.782.223-1.185.241-.004-.011-.006-.021-.01-.032.245-.171.473-.367.665-.616.337-.438.254-1.065-.184-1.402s-1.065-.254-1.402.184c-.19.247-.44.343-.707.38-.157-.036-.318-.057-.485-.057-1.24 0-2.246 1.006-2.246 2.246s1.006 2.246 2.246 2.246c.752 0 1.413-.373 1.821-.94.021 0 .041.003.063.003.736 0 1.515-.118 2.211-.416.508-.217.743-.805.525-1.313s-.808-.745-1.312-.524z"/><path d="m30.023 39c-.167 0-.328.021-.484.055-.267-.036-.517-.133-.707-.38-.336-.437-.963-.521-1.402-.184-.438.337-.521.965-.184 1.402.192.249.42.444.665.615-.003.008-.005.015-.007.023-.423-.015-.846-.079-1.175-.225-.503-.229-1.096.002-1.32.506-.226.504.001 1.096.506 1.32.648.29 1.431.405 2.186.405.03 0 .058-.004.087-.005.406.578 1.075.958 1.836.958 1.24 0 2.246-1.006 2.246-2.246s-1.007-2.244-2.247-2.244z"/></g></g></svg>