<svg id="Flat" enable-background="new 0 0 85.956 123.98" height="512" viewBox="0 0 85.956 123.98" width="512" xmlns="http://www.w3.org/2000/svg"><g><path d="m15.036 28v.67c-2.06 2.13-4.14 4.65-5.77 7.47-1.28-2.79-2.97-6.84-3.8-10.38-.73-3.16.03-6.48 2.11-8.96 2.59-3.09 7.54-7.53 15.74-9.63 0 0 7.87-7.17 18.58-7.17h1.64c10.71 0 18.58 7.17 18.58 7.17 8.2 2.1 13.15 6.54 15.74 9.63 2.08 2.48 2.84 5.8 2.11 8.96-.83 3.54-2.52 7.59-3.8 10.38-1.63-2.82-3.71-5.34-5.77-7.47v-.67z" fill="#752c73"/><path d="m8.524 54.693c1.046 1.286 2.347 2.176 3.749 2.778l1.952.656c1.589.399 3.204.527 4.631.513 1.59-.01 2.9-1.25 3.5-2.98.33-.93.45-2.02.28-3.12h40.16c-.17 1.12-.05 2.22.3 3.17.6 1.7 1.91 2.92 3.48 2.93 4.99.05 12.28-1.53 12.73-11 .19-4.13-1.14-8.03-3.14-11.49v-.01c-1.63-2.82-3.71-5.34-5.77-7.47-3.34-3.46-6.64-5.86-7.91-6.73-.4-.27-1.011-.754-1.451-.834h-.888l-35.489-.255c-.44.08-1.311.819-1.712 1.089-1.27.87-4.57 3.27-7.91 6.73-2.06 2.13-4.14 4.65-5.77 7.47v.01c-2 3.46-3.33 7.36-3.14 11.49.094 1.977.499 3.593 1.106 4.939z" fill="#ea728c"/><path d="m53.778 76.94 5.74.61c2.16.23 4.25.86 6.15 1.91 4.2 2.31 11.37 7.58 18.26 18.82 1.73 2.82 2.45 6.22 1.78 9.46-.64 3.14-2.6 6.55-7.66 8.37l.77 7.87h-3.61-4.22-5.43-45.16-5.43-4.21-3.62l.77-7.87c-5.06-1.82-7.02-5.23-7.66-8.37-.67-3.24.05-6.64 1.78-9.46 6.89-11.24 14.06-16.51 18.27-18.82 1.89-1.05 3.99-1.68 6.14-1.91l5.74-.61z" fill="#d6eae8"/><path d="m48.856 67-.01-.04-12.13.04.02 5.62h-.01l3.538 4.816 2.633 3.431 5.949-8.247h-.01z" fill="#fec4b9"/><path d="m18.856 58.64c-4.99.05-12.28-1.53-12.73-11-.19-4.13 1.14-8.03 3.14-11.49v-.01c1.63-2.82 3.71-5.34 5.77-7.47 3.34-3.46 6.64-5.86 7.91-6.73.4-.27.82-.46 1.26-.54 1.16-.21 3.41-.31 4.45 1.81.49 1 .7 2.48.41 4.68-.07.52-.23 1.02-.43 1.49-1.23 2.83-5.85 14.05-6 23.16.17 1.1.05 2.19-.28 3.12-.6 1.73-1.91 2.97-3.5 2.98z" fill="#ea728c"/><path d="m56.796 29.38c1.23 2.83 5.85 14.05 6 23.16-.17 1.12-.05 2.22.3 3.17l-.24.08-.14.21c-2.29 3.82-7.51 8.82-13.87 10.96-1.95.65-4.01 1.04-6.13 1.04-2.07 0-4.09-.37-6-1-6.1-2.01-11.17-6.66-13.64-10.42l-.49-.84-.23-.08c.33-.93.45-2.02.28-3.12.15-9.11 4.77-20.33 6-23.16.2-.47.36-.97.43-1.49.29-2.2.08-3.68-.41-4.68 0 0 15.16-1.6 28.12 0-.49 1-.7 2.48-.41 4.68.07.52.23 1.02.43 1.49z" fill="#fec4b9"/><g fill="#b8d3cf"><path d="m11.754 117.015c-.544-.094-1.061.273-1.153.817l-1.021 5.98c-.01.056-.013.111-.013.168h2.013l.991-5.812c.095-.544-.272-1.061-.817-1.153z"/><path d="m15.613 117.458c-.546-.059-1.048.317-1.119.865l-.71 5.53c-.005.042-.008.08-.008.123h2.006l.697-5.399c.069-.548-.318-1.049-.866-1.119z"/><path d="m76.001 123.813-1.02-5.98c-.093-.544-.606-.911-1.153-.817-.545.093-.91.609-.817 1.153l.99 5.812h2.014c.001-.057-.004-.113-.014-.168z"/><path d="m71.789 123.854-.7-5.53c-.069-.548-.564-.927-1.118-.866-.548.069-.936.57-.866 1.118l.685 5.404h2.008c-.002-.042-.005-.084-.009-.126z"/></g><path d="m45.444 44.318c-1.834.52-3.621.52-5.455 0-.528-.154-1.083.157-1.234.689-.15.531.157 1.084.689 1.234 1.094.311 2.194.468 3.272.468s2.179-.157 3.272-.468c.532-.15.84-.703.689-1.234-.15-.531-.707-.841-1.233-.689z" fill="#ea8d81"/><path d="m50.977 28.516c.026-.004 2.632-.432 4.444.843.175.123.376.182.574.182.314 0 .624-.148.819-.425.317-.452.209-1.075-.243-1.394-2.502-1.76-5.801-1.2-5.939-1.176-.543.096-.904.612-.81 1.155.095.543.612.909 1.155.815z" fill="#472d1c"/><path d="m29.437 29.54c.198 0 .399-.059.574-.182 1.806-1.269 4.396-.852 4.443-.843.553.09 1.062-.269 1.156-.812.097-.544-.267-1.063-.811-1.158-.139-.024-3.438-.584-5.939 1.176-.452.318-.561.941-.243 1.394.196.278.506.425.82.425z" fill="#472d1c"/><path d="m8.985 54.017c.014-.089 1.458-8.846 7.069-13.261.435-.342.509-.971.168-1.404s-.971-.509-1.404-.168c-5.032 3.959-6.998 10.74-7.598 13.413.361.802.808 1.486 1.304 2.096.234-.149.414-.381.461-.676z" fill="#d14b62"/><path d="m18.871 44.419c.375-.405.35-1.038-.056-1.413s-1.037-.351-1.413.056c-5.039 5.449-5.173 12.68-5.129 14.409.637.273 1.291.49 1.952.656.046-.126.068-.262.059-.404-.005-.077-.453-7.854 4.587-13.304z" fill="#d14b62"/><path d="m66.367 122.545c-.001-.131-.003-.267-.004-.402-.001-.065-.001-.126-.002-.193-.048-3.768-.275-8.889-.475-12.831-.238-4.694-.364-7.168-.486-8.507-.006-.1-.011-.191-.017-.292-.019-.315-.032-.528-.037-.623 0-.023-.001-.047-.003-.07-.043-.547-.517-.976-1.067-.937-.722.05-.89.518-.909 1.089v.003l-.018.001c.001.017.005.034.007.051h-.004c.004.044.012.169.025.352.004.085.005.168.01.253.695 11.614-6.283 23.1-6.287 23.54h9.27c.003-.407.002-.869-.003-1.434z" fill="#b8d3cf"/><path d="m19.204 122.545c.001-.131.003-.267.004-.402.001-.065.001-.126.002-.193.048-3.768.275-8.889.475-12.831.238-4.694.364-7.168.486-8.507.006-.1.011-.191.017-.292.019-.315.032-.528.037-.623 0-.023.001-.047.003-.07.043-.547.517-.976 1.067-.937.722.05.89.518.909 1.089v.003l.018.001c-.001.017-.005.034-.007.051h.004c-.004.044-.012.169-.025.352-.004.085-.005.168-.01.253-.695 11.614 6.294 23.1 6.298 23.54h-9.28c-.004-.407-.003-.869.002-1.434z" fill="#b8d3cf"/><path d="m70.674 39.184c-.436-.34-1.063-.266-1.404.168s-.267 1.063.168 1.404c5.612 4.415 7.066 13.174 7.081 13.262.044.275.202.497.413.648.507-.629.95-1.352 1.314-2.183-.625-2.731-2.595-9.383-7.572-13.299z" fill="#d14b62"/><path d="m68.101 43.062c-.376-.406-1.009-.431-1.413-.056-.405.375-.431 1.008-.056 1.413 5.039 5.45 4.592 13.227 4.586 13.305-.009.136.011.266.052.388.665-.17 1.321-.392 1.96-.671.042-1.79-.124-8.967-5.129-14.379z" fill="#d14b62"/><path d="m70.396 28v.67c-3.34-3.46-6.64-5.86-7.91-6.73-.4-.27-.82-.46-1.26-.54-1.16-.21-3.41-.31-4.45 1.81-12.96-1.6-28.12 0-28.12 0-1.04-2.12-3.29-2.02-4.45-1.81-.44.08-.86.27-1.26.54-1.27.87-4.57 3.27-7.91 6.73v-.67c0-8.18 12.39-14.81 27.68-14.81s27.68 6.63 27.68 14.81z" fill="#d6eae8"/><path d="m36.718 67s5.796 2.306 12.18-.06l.006 3.011s-7.938.884-12.183-1.782z" fill="#f7b6ad"/><path d="m38.517 115.915c-.078 0-.157-.009-.236-.028-.537-.13-.866-.671-.736-1.207l4.342-17.915c.11-.461.524-.818 1.005-.764.475.016.872.362.952.829l2.561 14.871c.094.545-.271 1.062-.815 1.155-.551.096-1.062-.272-1.155-.815l-1.741-10.111-3.204 13.221c-.113.457-.522.764-.973.764z" fill="#c43b58"/><path d="m51.77 92.979-4.339-9.688c-.046-.101-.107-.193-.184-.274l-3.57-2.341-.931-.906-4.412 3.239c-.079.083-.145.179-.191.283l-4.339 9.688c-1.203 2.688-.016 5.149 1.695 6.397.864.63 1.981 1.039 3.158 1.039 1.164 0 2.388-.4 3.481-1.384.215-.193.432-.402.648-.625.216.223.433.432.647.625 2.201 1.978 4.921 1.598 6.64.345 1.713-1.248 2.9-3.71 1.697-6.398zm-10.967 4.565c-1.464 1.315-3.138.937-4.126.217-.981-.716-1.845-2.184-1.047-3.963l4.268-9.529 1.959-3.846v16.042c-.354.406-.708.768-1.054 1.079zm8.094.217c-.989.721-2.664 1.097-4.126-.217-.3-.27-.606-.578-.914-.921l-.022-16.2 1.84 3.84 4.27 9.535c.797 1.779-.067 3.247-1.048 3.963z" fill="#c43b58"/><path d="m31.986 76.94c-.15-.29-.23-.61-.23-.94 0-.85.52-1.61 1.31-1.92l3.66-1.46 6.02 7.15-3.69 3.93c-.59.63-1.5.83-2.3.5l-1.24-.52c-.77-.32-1.27-1.07-1.27-1.91v-3.09l-1.51-.93c-.32-.2-.58-.48-.75-.81z" fill="#ea728c"/><path d="m53.816 76c0 .33-.08.65-.23.94-.17.33-.43.61-.75.81l-1.51.93v3.09c0 .84-.5 1.59-1.27 1.91l-1.24.52c-.79.33-1.71.13-2.3-.5l-3.77-3.93 6.1-7.15 3.67 1.46c.78.31 1.3 1.07 1.3 1.92z" fill="#ea728c"/><path d="m55.001 39.302c-.367.156-.782.223-1.185.241-.004-.011-.006-.021-.01-.032.245-.171.473-.367.665-.616.337-.438.254-1.065-.184-1.402s-1.065-.255-1.402.184c-.19.248-.441.343-.709.379-.155-.035-.316-.056-.482-.056-1.24 0-2.246 1.006-2.246 2.246s1.006 2.246 2.246 2.246c.752 0 1.413-.373 1.821-.94.021 0 .041.003.063.003.736 0 1.515-.118 2.211-.416.508-.217.743-.805.525-1.313s-.809-.746-1.313-.524z" fill="#543927"/><path d="m33.739 38c-.166 0-.327.021-.483.055-.268-.036-.518-.132-.709-.379-.336-.437-.963-.52-1.402-.184-.438.337-.521.965-.184 1.402.192.249.42.444.665.615-.003.008-.005.016-.007.023-.423-.015-.846-.079-1.174-.225-.503-.227-1.096.002-1.32.506-.226.504.001 1.096.506 1.32.648.29 1.431.405 2.186.405.03 0 .058-.004.087-.005.406.578 1.075.958 1.836.958 1.24 0 2.246-1.006 2.246-2.246s-1.007-2.245-2.247-2.245z" fill="#543927"/></g></svg>