<svg id="Flat" enable-background="new 0 0 78 124" height="512" viewBox="0 0 78 124" width="512" xmlns="http://www.w3.org/2000/svg"><g><path d="m77.34 119.51c-.35-2.07-.76-4.04-1.21-5.93v-.01c.95-27.91-6.07-70.73-8.51-84.61-.51-2.88-.82-4.51-.82-4.51h-.03c-.31-2.39-.89-4.91-1.81-7.4-3.23-8.76-10.72-17.05-25.96-17.05-15.25 0-22.73 8.29-25.96 17.05-.92 2.48-1.5 5.01-1.82 7.39l.03.01s-.31 1.63-.81 4.51c-2.37 13.63-9.11 55.17-8.16 83-.96 3.65-1.73 7.65-2.28 12.04h33.66 10.38 17.49 16.43.04c-.19-1.54-.41-3.04-.66-4.49z" fill="#655f68"/><path d="m45.18 66.94.02 6.1c-5.7.83-9.08.43-10.78.03-.46-.11-.94-.19-1.41-.22l-.01-5.85c1.91.63 3.93 1 6 1 2.13 0 4.21-.39 6.18-1.06z" fill="#5d5560"/><path d="m63.15 41.57c-.86 6.13-2.33 11.39-4.15 14.43-2.29 3.81-7.49 8.79-13.82 10.94-1.97.67-4.05 1.06-6.18 1.06-2.07 0-4.09-.37-6-1-6.42-2.11-11.69-7.15-14-11-1.82-3.04-3.29-8.3-4.15-14.43.95.31 6.41 1.89 11.61 2.2 2.38.13 4.78-.43 6.77-1.75 1.16-.77 2.99-1.53 5.74-1.53h.06c2.75 0 4.58.76 5.74 1.53 1.99 1.32 4.39 1.88 6.77 1.75 5.2-.31 10.66-1.89 11.61-2.2z" fill="#504256"/><path d="m78 124h-.04-16.43v-.19l-.17-6.85.02-.06c4.85 1.4 10.17 2.33 15.96 2.61.25 1.45.47 2.95.66 4.49z" fill="#504256"/><path d="m44.21 109.24-.17.27v14.3.19h-10.38v-.19-22.34l.14-.15c2.95 2.7 6.41 5.43 10.41 7.92z" fill="#655f68"/><path d="m61.53 123.81v.19h-17.49v-.19-14.3l.17-.27c4.91 3.07 10.62 5.78 17.17 7.66l-.02.06z" fill="#524956"/><path d="m33.66 124h-33.66c.55-4.39 1.32-8.39 2.28-12.04 4.19-16.05 11.84-25.32 19.08-30.68-.6 2.53-.11 5.24 1.39 7.44 2.09 3.05 5.74 7.77 11.05 12.6l-.14.15v22.34z" fill="#524956"/><path d="m61.36 116.936c.013-.553.499-1.018 1.024-.976.552.014.988.473.975 1.024.565 3.425 2.01 5.819 3.744 7.016h-5.573z" fill="#47394f"/><path d="m76.13 113.58c.45 1.89.86 3.86 1.21 5.93-5.79-.28-11.11-1.21-15.96-2.61-6.55-1.88-12.26-4.59-17.17-7.66-4-2.49-7.46-5.22-10.41-7.92-5.31-4.83-8.96-9.55-11.05-12.6-1.5-2.2-1.99-4.91-1.39-7.44.15-.61.36-1.22.64-1.8.92-1.94 2.45-3.93 4.98-5.27.01-.01.01-.01.01-.01.97-.52 2.09-.94 3.38-1.22.86-.19 1.75-.22 2.64-.13.47.03.95.11 1.41.22 1.7.4 5.08.8 10.78-.03.28-.04.57-.08.87-.13 1.14-.18 2.29.07 3.24.71 3.2 2.17 10.71 7.91 17.07 17.72l1.59 2.26c3.3 5.18 6.18 11.72 8.16 19.97z" fill="#5d5560"/><path d="m66.77 24.45h.03s.31 1.63.82 4.51h-10.73-35.78-10.67c.5-2.88.81-4.51.81-4.51l-.03-.01c.32-2.38.9-4.91 1.82-7.39h51.92c.92 2.49 1.5 5.01 1.81 7.4z" fill="#524956"/><path d="m56.89 28.96c5.62 7.1 6.26 12.61 6.26 12.61-.95.31-6.41 1.89-11.61 2.2-2.38.13-4.78-.43-6.77-1.75-1.16-.77-2.99-1.53-5.74-1.53h-.06c-2.75 0-4.58.76-5.74 1.53-1.99 1.32-4.39 1.88-6.77 1.75-5.2-.31-10.66-1.89-11.61-2.2 0 0 .64-5.51 6.26-12.61z" fill="#ffd7d2"/><g fill="#524956"><path d="m38.259 83.96c-.182 0-.366-.05-.531-.153-3.022-1.9-5.086-3.773-6.135-5.566-.279-.477-.118-1.089.358-1.368.477-.277 1.09-.119 1.368.358.885 1.513 2.726 3.155 5.473 4.883.468.294.608.911.314 1.379-.19.302-.515.467-.847.467z"/><path d="m35.189 89.96c-.19 0-.383-.055-.554-.168-4.191-2.796-6.991-5.792-8.32-8.906-.217-.508.02-1.096.527-1.313.508-.218 1.096.02 1.313.527 1.173 2.751 3.727 5.451 7.589 8.027.459.307.583.928.277 1.387-.192.29-.509.446-.832.446z"/><path d="m71.168 113.504c-.141 0-.283-.029-.419-.092-13.267-6.129-24.289-14.124-24.398-14.204-.446-.325-.544-.95-.219-1.396s.95-.545 1.397-.219c.108.078 10.979 7.961 24.059 14.003.501.232.72.826.488 1.327-.169.366-.53.581-.908.581z"/><path d="m71.167 105.414c-.178 0-.358-.047-.521-.146-5.616-3.433-9.854-6.672-9.896-6.704-.438-.337-.521-.964-.185-1.402s.962-.521 1.402-.186c.042.032 4.201 3.211 9.722 6.585.471.288.62.903.332 1.375-.188.308-.517.478-.854.478z"/></g><path d="m16.752 105.853c.555-.036 1.016.409 1.037.961l-.614 17.186h-5.785c1.897-3.598 3.863-9.906 4.401-17.11-.021-.553.409-1.017.961-1.037z" fill="#47394f"/><path d="m51.286 36.301c-.368.157-.783.224-1.186.242-.004-.011-.006-.022-.01-.032.245-.171.473-.367.664-.616.336-.438.254-1.066-.184-1.402-.438-.337-1.066-.254-1.402.184-.19.247-.44.344-.707.38-.156-.036-.317-.057-.484-.057-1.24 0-2.246 1.006-2.246 2.246s1.006 2.246 2.246 2.246c.752 0 1.413-.373 1.821-.94.022 0 .041.003.063.003.736 0 1.515-.118 2.211-.415.508-.218.744-.806.526-1.313-.216-.507-.805-.742-1.312-.526z" fill="#543927"/><path d="m30.023 35c-.167 0-.328.021-.484.055-.267-.036-.517-.133-.707-.38-.336-.438-.965-.52-1.402-.184-.438.336-.521.964-.184 1.402.191.249.419.444.665.615-.003.008-.005.016-.007.024-.424-.015-.847-.079-1.175-.226-.504-.228-1.096.002-1.32.506-.225.504.001 1.096.506 1.32.649.29 1.431.405 2.186.405.03 0 .058-.004.088-.005.406.578 1.075.958 1.836.958 1.24 0 2.246-1.006 2.246-2.246s-1.008-2.244-2.248-2.244z" fill="#543927"/></g></svg>