<svg id="Flat" enable-background="new 0 0 78 124" height="512" viewBox="0 0 78 124" width="512" xmlns="http://www.w3.org/2000/svg"><g><path d="m17.2 51.96c-2.7.32-5.51-1.6-6.68-4.78-1.35-3.67.01-7.63 3.03-8.83.3-.12.6-.2.9-.25z" fill="#dfa3a5"/><path d="m19.6 56.93v3.52c0 5.75 5.62 10.62 13.41 12.31l12.19-.05c7.67-1.72 13.2-6.56 13.2-12.26v-3.44l-.04-.03z" fill="#3f2313"/><path d="m45.19 80.26-.01-13.32-12.18.06.01 13.26z" fill="#f7b6ad"/><path d="m70.38 97.79c-1.35-2.6-2.81-4.92-4.32-6.99-6.97-9.47-15.27-13.62-20.82-15.43l-.03-.07-.01-2.59-.01-2.45h-.09l-1.93.48c-.91.22-1.71.76-2.27 1.51l-1.79 2.41h-.11l-1.8-2.41c-.56-.75-1.36-1.29-2.26-1.51l-1.93-.48v2.5l.01 2.49.01.03c-5.55 1.76-14 5.89-21.08 15.52-1.52 2.06-2.97 4.38-4.33 6.99-3.47 6.68-6.25 15.25-7.62 26.21h78c-1.37-10.96-4.15-19.52-7.62-26.21z" fill="#ea728c"/><path d="m78 124h-78c1.37-10.96 4.15-19.53 7.62-26.21 7.39 6.92 19.03 11.11 31.38 11.11s23.99-4.19 31.38-11.11c3.47 6.69 6.25 15.25 7.62 26.21z" fill="#82387d"/><path d="m64.44 38.35c-.29-.12-.6-.2-.9-.25l-2.74 13.86c2.7.32 5.5-1.6 6.67-4.78 1.35-3.67 0-7.63-3.03-8.83z" fill="#dfa3a5"/><path d="m63.54 38.1c.3-2.94.46-6.02.46-9.1 0-11-5-29-25-29-14.98 0-21.55 10.09-23.9 19.78l-.85 16.06z" fill="#3f2313"/><path d="m63.54 38.1c-.51 5.3-1.47 10.18-2.74 13.86h-.01c-.54 1.59-1.14 2.96-1.79 4.04-.19.32-.4.65-.64.98-2.53 3.65-7.38 7.99-13.18 9.96-1.97.67-4.05 1.06-6.18 1.06-2.07 0-4.09-.37-6-1-5.91-1.95-10.85-6.38-13.4-10.07-.22-.32-.42-.63-.6-.93-.65-1.09-1.26-2.45-1.8-4.04-1.28-3.68-2.24-8.56-2.75-13.86-.08-.75-.14-1.5-.2-2.26v-.01c.61.31 1.35.36 2.04.06 1.45-.64 1.92-2.45.96-3.7l-.81-.8c-.28-.27-.32-.71-.08-1.02.06-.08.12-.16.18-.25.22-.31.64-.41.98-.24l.91.46c1.48.54 3.08-.45 3.25-2.01.1-.84-.24-1.6-.81-2.1.91-.98 4.61-4.64 9.47-5.04 7.92-.66 8.66-4.49 8.66-4.49h.11s.74 3.83 8.66 4.49c0 0 13.21-.91 15.77 16.91z" fill="#f7b6ad"/><path d="m66.06 90.8h-.01c-5.73 6.25-15.96 10.1-27.05 10.1s-21.32-3.84-27.05-10.1c-1.52 2.06-2.97 4.38-4.33 6.99 7.39 6.92 19.03 11.11 31.38 11.11s23.99-4.19 31.38-11.11c-1.35-2.6-2.81-4.92-4.32-6.99z" fill="#e7f2f1"/><path d="m15.1 19.78c.81-.5 1.89-.51 2.73.11 1.27.93 1.33 2.8.12 3.81l-1 .66c-.34.23-.45.68-.24 1.03.04.08.08.15.12.23.16.33.54.47.89.38l1.24-.35c.73-.09 1.41.14 1.91.58.57.5.91 1.26.81 2.1-.17 1.56-1.77 2.55-3.25 2.01l-.91-.46c-.34-.17-.76-.07-.98.24-.06.09-.12.17-.18.25-.24.31-.2.75.08 1.02l.81.8c.96 1.25.49 3.06-.96 3.7-.69.3-1.43.25-2.04-.06-.66-.32-1.18-.94-1.32-1.75l-.09-1.42c-.02-.35-.28-.65-.64-.72l-.18-.03c-.4-.08-.8.17-.9.57l-.38 1.5c-.47 1.12-1.66 1.67-2.75 1.44-.33-.07-.65-.21-.93-.42-1.27-.94-1.33-2.81-.12-3.82l1.52-1.01c.3-.2.43-.58.3-.91-.01-.02-.01-.04-.02-.06-.14-.39-.55-.6-.95-.49l-1.86.52c-1.56.2-2.9-1.11-2.73-2.68.18-1.56 1.77-2.55 3.25-2.01l1.77.88c.35.18.78.06 1-.27v-.01c.21-.31.17-.73-.1-.99l-1.49-1.46c-.42-.55-.56-1.22-.46-1.84.12-.79.62-1.5 1.42-1.85 1.45-.63 3.1.25 3.37 1.8l.1 1.73c.03.42.38.74.8.74h.09c.35-.01.66-.25.75-.59l.45-1.78c.2-.49.54-.87.95-1.12z" fill="#82387d"/><path d="m52.279 29.54c-.198 0-.399-.059-.574-.182-1.813-1.274-4.417-.847-4.444-.843-.543.095-1.061-.271-1.154-.814-.095-.543.267-1.06.81-1.155.138-.024 3.438-.584 5.939 1.176.452.318.561.941.243 1.394-.196.276-.505.424-.82.424z" fill="#3f2313"/><path d="m25.721 29.54c-.314 0-.624-.147-.819-.425-.317-.452-.209-1.075.243-1.394 2.502-1.76 5.802-1.2 5.939-1.176.544.096.907.614.811 1.158-.095.543-.606.901-1.156.812-.049-.009-2.639-.426-4.443.843-.176.123-.377.182-.575.182z" fill="#3f2313"/><path d="m39 42.71c-1.078 0-2.179-.157-3.272-.468-.532-.15-.84-.703-.689-1.234.151-.533.707-.845 1.234-.689 1.834.52 3.621.52 5.455 0 .527-.154 1.083.157 1.234.689.15.531-.157 1.084-.689 1.234-1.094.311-2.195.468-3.273.468z" fill="#ea8d81"/><path d="m33.002 67s5.796 2.306 12.18-.06l.006 3.011s-7.938.884-12.183-1.782z" fill="#dfa3a5"/><path d="m68.588 120.394h-49.439c-4.097 0-7.531-2.22-9.414-5.366-1.052-1.758-1.611-3.801-1.525-5.92.046-1.153.265-2.324.72-3.483.048-.122.097-.244.146-.366.434-1.075-.028-2.273-1.02-2.789-.107-.056-.216-.111-.335-.149-.133-.043-.266-.071-.4-.088-.457-.151-.911-.304-1.352-.461l-.19-.08c-.255.585-.493 1.201-.735 1.81-.507 1.275-.995 2.583-1.435 3.97-.49 1.44-.93 2.95-1.34 4.52-.03.11-.06.22-.09.34-1.328 4.726-2.179 11.668-2.179 11.668l68.589-.016c.991-.001 1.794-.804 1.794-1.795 0-.992-.804-1.795-1.795-1.795z" fill="#752c73"/><path d="m39.995 100.878v-22.197c0-.552-.448-1-1-1s-1 .448-1 1v22.197c.335.007.668.022 1.005.022.333 0 .663-.015.995-.022z" fill="#d14b62"/><path d="m39 108.9c-.336 0-.67-.015-1.005-.021v.022h2v-.021c-.332.005-.662.02-.995.02z" fill="#d14b62"/><path d="m39.995 108.879v-8c-.332.007-.662.022-.995.022-.337 0-.67-.015-1.005-.022v8c.335.006.669.021 1.005.021.333 0 .663-.015.995-.021z" fill="#d6eae8"/><g fill="#543927"><path d="m51.285 36.302c-.367.156-.782.222-1.185.241-.003-.011-.006-.021-.01-.032.245-.171.473-.367.665-.616.337-.438.254-1.065-.184-1.402s-1.065-.255-1.402.184c-.19.248-.441.343-.709.379-.156-.035-.317-.056-.483-.056-1.24 0-2.246 1.006-2.246 2.246s1.006 2.246 2.246 2.246c.752 0 1.413-.373 1.821-.94.022 0 .041.003.063.003.736 0 1.515-.118 2.211-.416.508-.217.743-.805.525-1.313-.216-.507-.809-.746-1.312-.524z"/><path d="m30.023 35c-.166 0-.327.021-.483.055-.268-.036-.519-.132-.709-.379-.337-.437-.963-.52-1.402-.184-.438.337-.521.965-.184 1.402.192.249.42.444.665.615-.003.008-.005.016-.007.023-.423-.015-.846-.079-1.174-.225-.504-.227-1.096.002-1.32.506-.226.504.001 1.096.506 1.32.648.29 1.431.405 2.186.405.03 0 .058-.004.087-.005.406.578 1.075.958 1.836.958 1.24 0 2.246-1.006 2.246-2.246s-1.007-2.245-2.247-2.245z"/></g></g></svg>