<svg id="Flat" enable-background="new 0 0 78 124" height="512" viewBox="0 0 78 124" width="512" xmlns="http://www.w3.org/2000/svg"><g><path d="m58.4 82.67c-2.68-2.22-5.35-3.87-7.81-5.1l-11.48 12.7-11.7-12.7c-8.41 4.21-19.24 13.33-24.76 33.02-1.13 4.01-2.03 8.47-2.65 13.41h8.64 12.64 56.72c-2.76-22.1-11.25-34.45-19.6-41.33z" fill="#894687"/><path d="m17.2 51.96c-2.7.32-5.51-1.6-6.68-4.78-1.35-3.67.01-7.63 3.03-8.83.3-.12.6-.2.9-.25z" fill="#d8959a"/><path d="m19.6 56.93v3.52c0 5.75 5.62 10.62 13.41 12.31l12.19-.03c7.67-1.72 13.2-6.56 13.2-12.26v-3.15l-.005-.359z" fill="#472d1c"/><path d="m63.54 38.1c.3.05.61.13.9.25 3.03 1.2 4.38 5.16 3.03 8.83-1.17 3.18-3.97 5.1-6.67 4.78z" fill="#d8959a"/><path d="m39 0c-20 0-25 18-25 29 0 3.07.16 6.15.45 9.09l49.09.01c.3-2.94.46-6.02.46-9.1 0-11-5-29-25-29z" fill="#472d1c"/><g fill="#dfa3a5"><path d="m63.54 38.1c-.51 5.3-1.47 10.18-2.74 13.86h-.01c-.54 1.59-1.14 2.96-1.79 4.04-.23.38-.49.78-.77 1.18-2.57 3.6-7.35 7.83-13.05 9.76-1.97.67-4.05 1.06-6.18 1.06-2.07 0-4.09-.37-6-1-5.91-1.95-10.85-6.38-13.4-10.07-.22-.32-.42-.63-.6-.93-.65-1.08-1.25-2.45-1.8-4.04-1.27-3.68-2.23-8.56-2.75-13.86 0 0 0 0 0-.01.14-.69 6.68-31.7 24.53-24.96 18.04-6.81 24.56 24.97 24.56 24.97z"/><path d="m45.18 66.94.02 5.77.01 2.59.03.07c1.59.52 3.41 1.23 5.35 2.2l-11.563 16.366-11.617-16.366c2.05-1.03 3.97-1.76 5.62-2.29l-.01-.03-.01-2.49-.01-5.76z"/><path d="m21.98 111.17-13.34 12.83h-8.64c.62-4.94 1.52-9.4 2.65-13.41z"/></g><path d="m39.11 90.27-21.17 23.43-15.29-3.11c5.52-19.69 16.35-28.81 24.76-33.02z" fill="#752c73"/><ellipse cx="39" cy="23.02" fill="#894687" rx="2.17" ry="3"/><path d="m47.261 28.515c.025-.005 2.63-.432 4.443.843.175.123.375.182.574.182.314 0 .625-.148.819-.425.318-.452.209-1.076-.243-1.393-2.502-1.76-5.799-1.203-5.939-1.177-.543.096-.904.613-.81 1.156.096.543.616.909 1.156.814z" fill="#3f2313"/><path d="m25.721 29.54c.199 0 .399-.059.574-.182 1.806-1.269 4.397-.851 4.443-.843.547.093 1.061-.269 1.157-.812.096-.544-.267-1.063-.811-1.159-.14-.026-3.438-.583-5.939 1.177-.452.317-.561.941-.243 1.393.195.278.505.426.819.426z" fill="#3f2313"/><path d="m41.727 40.318c-1.831.521-3.622.521-5.453 0-.532-.153-1.085.157-1.235.688-.151.531.157 1.084.688 1.235 1.093.311 2.194.469 3.273.469s2.18-.158 3.273-.468c.531-.151.839-.704.688-1.235s-.705-.842-1.234-.689z" fill="#ce564d"/><path d="m33.002 67s5.796 2.306 12.18-.06l.006 5.679s-7.938.884-12.183-1.782z" fill="#d8959a"/><path d="m58.4 82.67-37.12 41.31v.02h-12.64l9.3-10.3 21.17-23.43 11.48-12.7c2.46 1.23 5.13 2.88 7.81 5.1z" fill="#ea728c"/><path d="m63.778 101.072c-.483-.264-1.092-.086-1.356.399-1.063 1.95-1.751 5.557-2.101 11.024-.368 5.741-5.569 11.446-5.567 11.502l7.374-.029c-.001-.057-.174-5.697.188-11.346.406-6.351 1.235-9.049 1.86-10.194.266-.484.087-1.091-.398-1.356z" fill="#752c73"/><path d="m51.286 36.301c-.368.157-.783.223-1.186.242-.004-.011-.006-.022-.01-.032.245-.171.473-.367.664-.616.336-.438.254-1.065-.184-1.402-.438-.336-1.066-.256-1.402.184-.19.247-.439.344-.706.38-.156-.036-.318-.057-.485-.057-1.24 0-2.246 1.006-2.246 2.246s1.006 2.246 2.246 2.246c.752 0 1.413-.373 1.821-.94.022 0 .042.004.063.004.736 0 1.515-.118 2.211-.416.508-.218.743-.806.526-1.313-.217-.508-.806-.744-1.312-.526z" fill="#543927"/><path d="m30.023 35c-.167 0-.328.021-.485.056-.267-.036-.516-.133-.706-.38-.336-.44-.965-.52-1.402-.184-.438.336-.521.964-.184 1.402.191.249.419.445.665.616-.003.008-.005.016-.008.024-.423-.015-.846-.08-1.174-.226-.505-.227-1.096 0-1.321.505-.225.504.001 1.095.505 1.321.648.29 1.431.406 2.186.406.03 0 .058-.004.088-.005.406.578 1.076.958 1.836.958 1.24 0 2.246-1.006 2.246-2.246s-1.006-2.247-2.246-2.247z" fill="#543927"/></g></svg>