<svg id="Flat" enable-background="new 0 0 78 123.887" height="512" viewBox="0 0 78 123.887" width="512" xmlns="http://www.w3.org/2000/svg"><g><path d="m65.18 123.887h12.82c-2.27-18.15-8.39-29.73-15.14-37.1l-47.69-.03c-6.76 7.38-12.9 18.96-15.17 37.13h12.82 4.03z" fill="#0d87a3"/><path d="m62.86 86.787c-2.56 16.34-5.38 34.19-5.91 37.1h-35.86c-.54-2.91-3.36-20.78-5.92-37.13-2.33-14.86-4.45-28.47-4.45-28.47-7.47-43.91 11.3-53.66 15.29-55.21.5-.2.99-.4 1.47-.63 2.68-1.28 12.28-5 23.82.38 0 0 24.35 6.44 16.01 55.46 0 0-2.11 13.62-4.45 28.5z" fill="#1ea6bc"/><path d="m63.61 36.427c.02.18.02.37.02.55v.8c-.74 7.67-2.39 14.48-4.57 18.11-3 5-11 12-20 12s-17-7-20-12c-2.25-3.75-3.94-10.87-4.64-18.84l-.01-.07c0-.12 0-.23.01-.35.23-11.3 11.89-20.39 25.08-20.39 13.12 0 23.78 8.98 24.11 20.19z" fill="#fec4b9"/><g fill="#1498b7"><path d="m52.545 97.653c1.016.67 1.028 2.071.139 2.902-5.684 5.307-10.136 6.274-13.448 6.274-5.021 0-8.208-2.624-8.263-2.67-.421-.358-.473-.989-.114-1.41.357-.42.987-.472 1.408-.116.345.29 7.79 4.463 18.102-4.828.601-.541 1.5-.598 2.176-.152z"/><path d="m40.681 95.217c-2.562-.116-3.706-3.234-1.853-5.008 10.159-9.726 20.271-28.639 20.362-28.827.24-.497.836-.706 1.336-.464.497.24.705.838.465 1.335-.435.9-8.4 22.285-17.322 32.027-.591.645-1.427 1.008-2.3.968z"/><path d="m37.505 85.19c-1.082 1.782-3.314 2.042-4.963.766-8.849-6.847-15.948-21.442-16.255-22.091-.237-.499-.024-1.095.475-1.332.5-.237 1.096-.024 1.332.475.073.152 9.739 13.174 17.865 17.316 1.76.898 2.572 3.177 1.546 4.866z"/></g><path d="m52.279 29.427c-.198 0-.399-.059-.574-.182-1.813-1.275-4.419-.848-4.444-.843-.543.095-1.061-.271-1.154-.814-.095-.543.267-1.06.81-1.156.138-.024 3.438-.581 5.939 1.177.452.317.561.941.243 1.393-.196.277-.505.425-.82.425z" fill="#3f2313"/><path d="m25.721 29.427c-.314 0-.624-.148-.819-.425-.317-.452-.209-1.076.243-1.393 2.501-1.76 5.801-1.203 5.939-1.177.544.096.907.615.811 1.159-.095.543-.606.901-1.156.812-.046-.009-2.637-.427-4.443.843-.176.122-.377.181-.575.181z" fill="#3f2313"/><path d="m39 42.597c-1.079 0-2.18-.158-3.273-.468-.531-.151-.84-.704-.688-1.235.151-.532.701-.838 1.235-.688 1.83.521 3.623.521 5.453 0 .531-.149 1.084.157 1.235.688s-.157 1.084-.688 1.235c-1.094.31-2.195.468-3.274.468z" fill="#ea8d81"/><path d="m4.617 123.887.062-.07c2.433-2.762 4.153-6.078 5.011-9.658l2.131-8.893c0-.552.447-1 1-1s1 .448 1 1v18.62h-9.204z" fill="#087d99"/><path d="m64.18 123.887v-18.62c0-.552.447-1 1-1s1 .448 1 1l1.692 9.299c.593 3.258 1.691 6.403 3.256 9.321z" fill="#087d99"/><path d="m51.285 36.188c-.367.157-.782.223-1.185.241-.004-.011-.006-.022-.01-.032.245-.171.473-.367.665-.616.337-.438.254-1.066-.184-1.402s-1.065-.256-1.402.184c-.19.248-.441.344-.708.38-.156-.034-.317-.055-.484-.055-1.24 0-2.246 1.006-2.246 2.246s1.006 2.246 2.246 2.246c.752 0 1.413-.373 1.821-.94.021 0 .041.003.063.003.736 0 1.516-.118 2.211-.417.508-.217.743-.805.525-1.313-.216-.508-.809-.743-1.312-.525z" fill="#543927"/><path d="m30.023 34.887c-.166 0-.328.021-.484.055-.267-.036-.518-.132-.708-.38-.337-.438-.963-.52-1.402-.184-.438.336-.521.964-.184 1.402.191.249.42.445.665.615-.003.008-.005.016-.007.024-.423-.015-.846-.08-1.173-.226-.507-.226-1.097.001-1.321.505-.226.504.001 1.096.505 1.321.648.29 1.431.406 2.186.406.03 0 .058-.004.088-.005.406.578 1.076.958 1.836.958 1.24 0 2.246-1.006 2.246-2.246s-1.007-2.245-2.247-2.245z" fill="#543927"/></g></svg>