<svg id="Flat" enable-background="new 0 0 78 125" height="512" viewBox="0 0 78 125" width="512" xmlns="http://www.w3.org/2000/svg"><g><path d="m49.93 78.25c-1.7-.81-3.28-1.42-4.69-1.88l-6.21 12.8-6-12.89c-1.4.44-2.98 1.04-4.67 1.83-10.2 4.77-24.6 16.78-28.36 46.89h14.21 49.58 14.21c-3.73-29.84-17.89-41.9-28.07-46.75z" fill="#3fa07f"/><path d="m45.18 67.94.03 8.36.03.07-6.213 17.331-5.997-17.421-.01-.03-.02-8.25z" fill="#fec4b9"/><path d="m67.97 44.66c.09 1.14-.06 2.34-.5 3.52-1.17 3.18-3.98 5.1-6.68 4.78 0-1.843.206-4.227.636-6.247 1.09-.47 3.638-1.409 6.544-2.053z" fill="#f7b6ad"/><path d="m15.898 45.881c.43 2.04.732 5.449 1.292 7.079-2.7.32-5.5-1.6-6.67-4.78-.44-1.2-.59-2.42-.5-3.57 2.576.539 4.738.781 5.878 1.271z" fill="#f7b6ad"/><path d="m24.09 11.38-1.39-3.15c-1.03-2.31.31-4.97 2.76-5.55 3.21-.76 7.87-1.57 13.4-1.67h.14s.09 0 .14 0c5.53.1 10.19.91 13.4 1.67 2.45.58 3.79 3.24 2.76 5.55l-.35.79-1.03 2.34z" fill="#3f2313"/><path d="m15.7 47.42c-1.14-.49-3.35-1.49-5.68-2.81-3.98-2.26-8.32-5.47-8.32-8.7 0-4.79 5.06-18.9 22.39-24.53 4.21-1.37 9.13-2.24 14.89-2.36h.13c5.72.12 10.62.98 14.81 2.34 17.4 5.62 22.47 19.76 22.47 24.55 0 3.26-4.41 6.49-8.42 8.75-2.37 1.34-4.6 2.34-5.69 2.81z" fill="#472d1c"/><path d="m63.79 114.19v10.81h-49.58v-10.81h12.68 5.6z" fill="#b72e4f"/><path d="m62.28 47.47c-.43 2.02-.93 3.87-1.49 5.49-.54 1.59-1.14 2.95-1.79 4.04-2.29 3.81-7.49 8.79-13.82 10.94-1.97.67-4.05 1.06-6.18 1.06-2.07 0-4.09-.37-6-1-6.42-2.11-11.69-7.15-14-11-.65-1.08-1.26-2.45-1.8-4.04h-.01c-.56-1.63-1.06-3.5-1.49-5.54 0 0 1.93-17.08 6.78-24.62.68-1.06 2.03-1.46 3.2-1.01l11.51 4.42c1.15.44 2.43.44 3.58 0l11.51-4.42c1.17-.45 2.52-.05 3.2 1.01 4.85 7.54 6.8 24.67 6.8 24.67z" fill="#ffd7d2"/><path d="m49.93 78.25-17.44 35.94h-5.6l9.32-19.22 2.82-5.79v-.01l6.21-12.8c1.41.46 2.99 1.07 4.69 1.88z" fill="#c43b58"/><path d="m39.03 89.17v.01l-2.82 5.79-7.85-16.86c1.69-.79 3.27-1.39 4.67-1.83z" fill="#d14b62"/><path d="m47.261 29.515c.025-.005 2.631-.432 4.444.843.175.123.376.182.574.182.314 0 .624-.148.819-.425.317-.452.209-1.076-.243-1.393-2.5-1.758-5.802-1.202-5.939-1.177-.543.096-.904.613-.81 1.156s.612.909 1.155.814z" fill="#381b0d"/><path d="m25.721 30.54c.198 0 .399-.059.574-.182 1.806-1.27 4.396-.852 4.443-.843.549.089 1.062-.269 1.156-.812.097-.544-.267-1.063-.811-1.159-.139-.026-3.438-.583-5.939 1.177-.452.317-.561.941-.243 1.393.196.278.505.426.82.426z" fill="#381b0d"/><path d="m41.727 41.318c-1.83.521-3.623.521-5.453 0-.535-.15-1.084.157-1.235.688s.157 1.084.688 1.235c1.093.311 2.194.469 3.273.469s2.18-.158 3.273-.468c.531-.151.84-.704.688-1.235-.15-.532-.703-.838-1.234-.689z" fill="#ea8d81"/><path d="m65.359 4.824-9.933 3.007c-.043.133-.068.268-.126.399l-.35.79-.531 1.206 11.489-3.478z" fill="#d14b62"/><path d="m33.002 68s5.796 2.306 12.18-.06l.006 7.592s-8.273 1.404-12.183-3.447z" fill="#f7b6ad"/><path d="m5.007 125 .062-.07c2.433-2.762 4.153-6.078 5.011-9.658l2.131-8.893c0-.552.447-1 1-1s1 .448 1 1v18.621z" fill="#349370"/><path d="m63.79 125v-18.62c0-.552.447-1 1-1s1 .448 1 1l1.692 9.299c.593 3.258 1.691 6.403 3.256 9.321z" fill="#349370"/><path d="m69.085 17.298c-.553 0-1-.448-1-1v-8.264c0-.552.447-1 1-1s1 .448 1 1v8.264c0 .552-.447 1-1 1z" fill="#b72e4f"/><path d="m73.447 21.894c-.553 0-1-.448-1-1v-16.118c0-.552.447-1 1-1s1 .448 1 1v16.117c0 .553-.447 1.001-1 1.001z" fill="#b72e4f"/><path d="m69.894 9.106c-2.511 0-4.553-2.042-4.553-4.553s2.042-4.553 4.553-4.553 4.554 2.042 4.554 4.553-2.044 4.553-4.554 4.553z" fill="#d14b62"/><g fill="#543927"><path d="m51.285 37.301c-.367.157-.783.223-1.185.241-.004-.011-.006-.022-.01-.032.245-.171.473-.367.665-.616.337-.438.254-1.066-.184-1.402s-1.065-.256-1.402.184c-.19.248-.44.344-.708.38-.156-.035-.317-.056-.484-.056-1.24 0-2.246 1.006-2.246 2.246s1.006 2.246 2.246 2.246c.752 0 1.413-.373 1.821-.94.021 0 .041.003.063.003.736 0 1.516-.118 2.211-.417.508-.217.743-.805.525-1.313-.217-.507-.809-.742-1.312-.524z"/><path d="m30.023 36c-.166 0-.327.021-.483.055-.267-.036-.517-.132-.708-.38-.336-.438-.963-.52-1.402-.184-.438.336-.521.964-.184 1.402.191.249.42.445.665.615-.003.008-.005.016-.007.024-.423-.015-.846-.08-1.173-.226-.508-.226-1.097.001-1.321.505-.226.504.001 1.096.505 1.321.648.29 1.431.406 2.186.406.03 0 .058-.004.088-.005.406.578 1.076.958 1.836.958 1.24 0 2.246-1.006 2.246-2.246s-1.008-2.245-2.248-2.245z"/></g></g></svg>