<svg id="Flat" enable-background="new 0 0 78 124" height="512" viewBox="0 0 78 124" width="512" xmlns="http://www.w3.org/2000/svg"><g><path d="m58.43 124h19.57c-2.02-16.16-7.1-27.1-12.95-34.51v-.01c-4.88-6.18-10.29-9.9-14.91-12.13-1.78-.86-3.43-1.5-4.9-1.98l-.03-.07c-1.13 1.13-2.36 2.22-3.65 3.27-.74-.47-1.62-.73-2.56-.73-.89 0-1.72.23-2.43.65-1.26-1.02-2.45-2.09-3.55-3.19v-.02c-1.48.48-3.17 1.12-4.98 1.98-4.48 2.14-9.72 5.68-14.51 11.51-6.1 7.41-11.44 18.54-13.53 35.23h20.29z" fill="#ffc05a"/><path d="m60.13 114.51h-8.22-7.94-7.94-7.95-9.61l1.82 9.49h7.79 7.95 7.94 7.94 6.52l1.82-9.47z" fill="#682168"/><path d="m33.02 79.989v-4.709h.01l-.01-.03-.02-8.25 12.18-.06.03 13.049z" fill="#ffd7d2"/><path d="m28.08 114.51h7.95v9.49h-7.95z" fill="#5c155e"/><path d="m43.97 114.51h7.94v9.49h-7.94z" fill="#5c155e"/><path d="m43.9 82.57c.01.06.01.12.01.18 0 2.71-2.2 4.91-4.91 4.91-.75 0-1.45-.17-2.08-.47-1.39-.65-2.43-1.93-2.73-3.48-.07-.31-.1-.63-.1-.96 0-.11 0-.23.02-.34.11-1.68 1.07-3.13 2.46-3.92.71-.42 1.54-.65 2.43-.65.94 0 1.82.26 2.56.73 1.36.83 2.28 2.3 2.34 4z" fill="#752c73"/><g fill="#894687"><path d="m33.02 75.3c1.1 1.1 2.29 2.17 3.55 3.19-1.39.79-2.35 2.24-2.46 3.92-2.27-1.66-4.34-3.36-6.03-5.06l-.04-.09c1.81-.86 3.5-1.5 4.98-1.98z"/><path d="m45.24 75.37c1.47.48 3.12 1.12 4.9 1.98-1.74 1.75-3.88 3.51-6.24 5.22-.06-1.7-.98-3.17-2.34-4 1.29-1.05 2.52-2.14 3.65-3.27z"/><path d="m34.19 83.71c.3 1.55 1.34 2.83 2.73 3.48-9.15 5.6-18.45 9.81-18.45 9.81v-5.4s7.73-3 15.72-7.89z"/></g><path d="m78 124h-19.57l1.82-9.47 4.8-25.04c5.85 7.41 10.93 18.35 12.95 34.51z" fill="#e58e1a"/><path d="m18.47 114.51 1.82 9.49h-20.29c2.09-16.69 7.43-27.82 13.53-35.23z" fill="#e58e1a"/><path d="m28.08 77.35c1.69 1.7 3.76 3.4 6.03 5.06-.02.11-.02.23-.02.34 0 .33.03.65.1.96-7.99 4.89-15.72 7.89-15.72 7.89v5.4 17.51l-4.94-25.74c4.79-5.83 10.03-9.37 14.51-11.51z" fill="#ef9d26"/><path d="m30.95 66.21c-1.53 2.46-4.38 4.11-7.64 4.11-4.87 0-8.81-3.68-8.81-8.22 0-2.83 1.54-5.33 3.88-6.81l.18-.09z" fill="#3f2313"/><path d="m14.45 38.06c-.29-2.93-.45-6-.45-9.06 0-11 5-29 25-29s25 18 25 29c0 3.08-.16 6.16-.46 9.1z" fill="#3f2313"/><path d="m14.45 38.1c1.55 4.857 2.316 8.687 2.75 13.86-2.7.32-5.51-1.6-6.68-4.78-1.35-3.67.01-7.63 3.03-8.83.3-.12.6-.2.9-.25z" fill="#fec4b9"/><path d="m64.44 38.35c3.03 1.2 4.38 5.16 3.03 8.83-1.17 3.18-3.97 5.1-6.67 4.78-.247-4.279 1.328-8.832 2.74-13.86.3.05.61.13.9.25z" fill="#fec4b9"/><path d="m63.54 38.1c-.51 5.3-1.47 10.18-2.74 13.86h-.01c-.54 1.59-1.14 2.96-1.79 4.04-2.29 3.81-7.49 8.79-13.82 10.94-1.97.67-4.05 1.06-6.18 1.06-2.07 0-4.09-.37-6-1-.7-.23-1.38-.49-2.05-.79-5.48-2.41-9.89-6.78-11.95-10.21-.15-.25-.3-.52-.44-.8-.49-.93-.94-2.02-1.36-3.24-1.27-3.68-2.23-8.56-2.75-13.86 0-.01 0-.03 0-.04.02-14.89 10.53-24.49 24.55-24.49 14.03 0 24.54 9.62 24.54 24.53z" fill="#ffd7d2"/><path d="m47.261 28.515c.025-.005 2.631-.432 4.444.843.175.123.376.182.574.182.314 0 .624-.148.819-.425.317-.452.209-1.076-.243-1.393-2.501-1.759-5.802-1.202-5.939-1.177-.543.096-.904.613-.81 1.156s.612.909 1.155.814z" fill="#3f2313"/><path d="m25.721 29.54c.198 0 .399-.059.574-.182 1.807-1.27 4.397-.851 4.443-.843.55.093 1.062-.269 1.156-.812.097-.544-.267-1.063-.811-1.159-.139-.026-3.438-.583-5.939 1.177-.452.317-.561.941-.243 1.393.196.278.505.426.82.426z" fill="#3f2313"/><path d="m41.727 40.318c-1.83.521-3.623.521-5.453 0-.534-.151-1.084.157-1.235.688s.157 1.084.688 1.235c1.093.311 2.194.469 3.273.469s2.18-.158 3.273-.468c.531-.151.84-.704.688-1.235-.15-.532-.703-.839-1.234-.689z" fill="#ea8d81"/><path d="m33.002 67s5.796 2.306 12.18-.06l.006 5.417s-7.938.884-12.183-1.782z" fill="#fec4b9"/><path d="m28.08 114.51h7.95v9.49h-7.95z" fill="#5c155e"/><path d="m43.97 114.51h7.94v9.49h-7.94z" fill="#5c155e"/><path d="m10.428 124c1.457-3.616 2.344-7.437 2.628-11.326l.756-11.145c-.004-.747.316-1.163.859-1.267.606-.135 1.113.25 1.217.793l4.402 22.945z" fill="#d87c0e"/><path d="m68.215 124c-1.457-3.616-2.344-7.437-2.628-11.326l-.756-11.145c.004-.747-.316-1.163-.859-1.267-.606-.135-1.113.25-1.217.793l-4.402 22.945z" fill="#d87c0e"/><path d="m51.285 36.301c-.367.157-.782.223-1.185.242-.004-.011-.006-.022-.01-.033.245-.171.473-.367.665-.616.337-.438.254-1.066-.184-1.402-.438-.337-1.065-.255-1.402.184-.19.247-.44.344-.707.38-.157-.035-.318-.056-.485-.056-1.24 0-2.246 1.006-2.246 2.246s1.006 2.246 2.246 2.246c.752 0 1.413-.373 1.821-.94.021 0 .041.003.063.003.736 0 1.516-.118 2.211-.417.508-.217.743-.805.525-1.313-.216-.507-.809-.743-1.312-.524z" fill="#543927"/><path d="m30.023 35c-.167 0-.328.021-.484.055-.267-.036-.517-.133-.707-.38-.337-.437-.963-.52-1.402-.184-.438.336-.521.964-.184 1.402.191.249.42.445.665.615-.003.008-.005.016-.007.024-.423-.015-.846-.08-1.173-.226-.507-.225-1.097.001-1.321.505-.226.504.001 1.096.505 1.321.648.29 1.431.406 2.186.406.03 0 .058-.004.088-.005.406.578 1.076.958 1.836.958 1.24 0 2.246-1.006 2.246-2.246s-1.008-2.245-2.248-2.245z" fill="#543927"/></g></svg>