<svg id="Flat" enable-background="new 0 0 78.26 124" height="512" viewBox="0 0 78.26 124" width="512" xmlns="http://www.w3.org/2000/svg"><g><path d="m17.2 51.96c-2.7.32-5.51-1.6-6.68-4.78-1.35-3.67.01-7.63 3.03-8.83.3-.12.6-.2.9-.25 0 0 0-.01.01 0 1.87 5.73 2.189 8.921 2.74 13.86z" fill="#fec4b9"/><path d="m60.84 84.59c-.93-1.69-1.81-4.37-.04-6.72 2.86-3.81 0-7.32 0-7.32s-4.24-5.62 0-9.51c4.11-3.78.24-8.77-.01-9.07-.54 1.58-3.038 2.547-4.492 3.711l-39.098-3.721s-4.25 5.18-.01 9.08c4.24 3.89 0 9.51 0 9.51s-2.86 3.51 0 7.32c2.15 2.86.62 5.83-.39 7.31l.01.01z" fill="#472d1c"/><path d="m33.01 81.043v-8.173l-.01-5.87c1.91.63 3.93 1 6 1 2.15 0 4.25-.4 6.23-1.08l.03.08-.02 5.87.02 8.173z" fill="#ffd7d2"/><path d="m60.84 84.59c-5.01-4.73-10.15-7.36-14.16-8.81v-.1-2.81h-1.44-3.07v5.07.04c-.01 1.56-1.38 2.78-2.95 2.78h-.18c-1.57 0-2.94-1.22-2.95-2.78 0-.01 0-.02 0-.04v-5.07h-3.08-1.44v2.81l.01.1c-1.19.43-2.48.96-3.83 1.62-1.6.79-3.3 1.75-5.04 2.93-1.94 1.32-3.94 2.92-5.9 4.86-.45.43-.89.88-1.34 1.36v.01c-6.88 7.35-13.17 19-15.47 37.44h13.6 32.48 18.32 13.86c-2.53-20.17-9.82-32.22-17.42-39.41z" fill="#d6eae8"/><path d="m64.44 38.35c3.03 1.2 4.38 5.16 3.03 8.83-1.17 3.18-3.97 5.1-6.67 4.78.562-4.109 1.2-9.015 2.74-13.86.3.05.61.13.9.25z" fill="#fec4b9"/><path d="m36.15 102.47c6.37 7.05 15.47 14.34 28.25 19.42v2.11h-18.32c-22.9-6.14-30.49-36.96-30.61-37.44 0-.01 0-.01 0-.01.45-.48.89-.93 1.34-1.36 1.96-1.94 3.96-3.54 5.9-4.86 0 0 1.63 5.54 6.35 12.87v.01z" fill="#d14b62"/><path d="m29.06 93.21v-.01c-4.72-7.33-6.35-12.87-6.35-12.87 1.74-1.18 3.44-2.14 5.04-2.93 0 0 10.57 21.9 36.65 30.58v13.91c-12.78-5.08-21.88-12.37-28.25-19.42z" fill="#c43b58"/><path d="m14.46 38.1c-.01-.01-.01 0-.01 0-.29-2.94-.45-6.02-.45-9.1 0-11 5-29 25-29s25 18 25 29c0 3.08-.16 6.16-.46 9.1z" fill="#472d1c"/><path d="m63.54 38.1c-.51 5.3-1.47 10.18-2.74 13.86h-.01v.01c-.54 1.58-1.14 2.95-1.79 4.03-2.28 3.8-7.46 8.77-13.77 10.92-1.98.68-4.08 1.08-6.23 1.08-2.07 0-4.09-.37-6-1-6.42-2.11-11.69-7.15-14-11-.65-1.08-1.25-2.45-1.8-4.04-1.27-3.68-2.23-8.56-2.74-13.86.29-.41 5.8-7.87 5.8-11.1 0 0 1.97.11 4.94-.06 6.57-.36 18.02-2.03 23.65-9.05 0 0 4.67 7.39 14.69 20.21z" fill="#ffd7d2"/><path d="m37.49 98.69c0 1.43-.5 2.75-1.34 3.78-1.11 1.36-2.78 2.22-4.66 2.22-3.31 0-6-2.69-6-6 0-2.45 1.47-4.55 3.57-5.48.74-.34 1.57-.52 2.43-.52 3.31 0 6 2.68 6 6z" fill="#1ea6bc"/><path d="m22.91 20.77 2.29 6.17c-2.97.17-4.94.06-4.94.06l-.73-5.38c-.12-.91.47-1.75 1.36-1.95.13-.03.26-.04.38-.04.72 0 1.38.44 1.64 1.14z" fill="#c43b58"/><path d="m47.261 28.515c.025-.005 2.631-.432 4.444.843.175.123.376.182.574.182.314 0 .624-.148.819-.425.317-.452.209-1.076-.243-1.393-2.501-1.758-5.802-1.202-5.939-1.177-.543.096-.904.613-.81 1.156s.612.909 1.155.814z" fill="#3f2313"/><path d="m41.727 40.318c-1.83.521-3.623.521-5.453 0-.532-.15-1.084.157-1.235.688s.157 1.084.688 1.235c1.093.311 2.194.469 3.273.469s2.18-.158 3.273-.468c.531-.151.84-.704.688-1.235-.15-.532-.701-.838-1.234-.689z" fill="#ea8d81"/><path d="m33.002 67s5.871 2.275 12.255-.09l.006 5.55s-8.348 1.404-12.258-3.447z" fill="#f7b6ad"/><path d="m14.6 124v-18.83c0-.552-.447-1-1-1s-1 .448-1 1l-.442 4.497c-.568 5.787-3.709 10.991-8.515 14.263-.034.023-.069.047-.103.07z" fill="#b8d3cf"/><path d="m71.782 124c-3.66-.876-6.914-14.04-6.38-18.83 0-.552-.447-1-1-1s-1 .448-1 1v18.83z" fill="#b8d3cf"/><g fill="#543927"><path d="m47.977 39.492c.752 0 1.413-.373 1.821-.94.021 0 .041.003.063.003.736 0 1.516-.118 2.211-.417.508-.217.743-.805.525-1.313s-.809-.744-1.313-.525c-.367.157-.782.223-1.185.241-.004-.011-.006-.022-.01-.032.245-.171.473-.367.665-.616.337-.438.254-1.066-.184-1.402s-1.065-.256-1.402.184c-.191.248-.441.344-.708.38-.155-.034-.316-.055-.483-.055-1.24 0-2.246 1.006-2.246 2.246s1.006 2.246 2.246 2.246z"/><path d="m30.023 35c-.166 0-.327.021-.484.055-.267-.036-.517-.132-.708-.38-.336-.438-.963-.52-1.402-.184-.438.336-.521.964-.184 1.402.191.249.42.445.665.615-.003.008-.005.016-.007.024-.423-.015-.846-.08-1.173-.226-.508-.226-1.097.001-1.321.505-.226.504.001 1.096.505 1.321.648.29 1.431.406 2.186.406.03 0 .058-.004.088-.005.406.578 1.076.958 1.836.958 1.24 0 2.246-1.006 2.246-2.246s-1.007-2.245-2.247-2.245z"/></g></g></svg>