<svg id="Flat" enable-background="new 0 0 78 123.935" height="512" viewBox="0 0 78 123.935" width="512" xmlns="http://www.w3.org/2000/svg"><g><path d="m74.04 87.925s-6.02-13.53-6.03-42.89c0-.28 0-.55-.01-.82h-.01l-57.96.72v.05c.04 29.36-6.03 42.89-6.03 42.89s-4.59 9.48 1.75 13.8h.01l23.495-.17 43.015.24h.01l.01-.01c6.33-4.32 1.75-13.81 1.75-13.81z" fill="#3f2313"/><path d="m45.18 66.875.02 4.76h-.01l-.01 2.9h-5.83-1.35-4.982l.012-2.9h-.02l-.01-4.7z" fill="#fec4b9"/><path d="m76.85 116.815c-.28-1.43-.59-2.8-.93-4.13-1.01-4.06-2.25-7.69-3.64-10.94h-.01c-2.68-6.26-5.95-11.12-9.39-14.88-1.3-1.43-2.63-2.7-3.95-3.83-1.86-1.58-3.71-2.89-5.5-3.96-3.01-1.83-5.85-3.01-8.19-3.77l-.03-.07-.01-3.6h-.01-4l-1.909 2.945-.171-.195-2.08-2.75h-4-.02l.01 3.55.01.03c-2.39.76-5.33 1.96-8.46 3.86-1.79 1.08-3.64 2.39-5.5 3.98-1.32 1.12-2.64 2.39-3.95 3.81v.01c-3.43 3.75-6.69 8.58-9.36 14.8-1.41 3.27-2.66 6.92-3.68 11.01-.34 1.33-.65 2.7-.93 4.13-.45 2.25-.84 4.62-1.15 7.12h13.04 2.08 12.88 34.88 2.08 13.04c-.31-2.5-.7-4.87-1.15-7.12z" fill="#b8d3cf"/><path d="m13.04 118.255v5.68h-13.04c.31-2.5.7-4.87 1.15-7.12z" fill="#ea728c"/><path d="m13.04 114.485v3.77l-11.89-1.44c.28-1.43.59-2.8.93-4.13z" fill="#c3ddda"/><path d="m78 123.935h-13.04v-5.68l11.89-1.44c.45 2.25.84 4.62 1.15 7.12z" fill="#ea728c"/><path d="m76.85 116.815-11.89 1.44v-3.77l10.96-1.8c.34 1.33.65 2.7.93 4.13z" fill="#c3ddda"/><path d="m56.95 7.555c-19.46-16.97-35.86-.05-35.86-.05s-10.7 8.48-11.05 35.96l57.95.75h.01c-.21-28.66-11.05-36.66-11.05-36.66z" fill="#3f2313"/><path d="m17.19 51.895c-2.7.32-5.5-1.6-6.67-4.78-.26-.72-.42-1.46-.49-2.18 0-.02 0-.05 0-.07 0-.45 0-.89.01-1.33 0-.02 0-.04 0-.07.22-2.35 1.49-4.38 3.51-5.18.3-.12.6-.2.9-.25z" fill="#f7b6ad"/><path d="m63.54 38.035c.3.05.61.13.9.25 2.23.88 3.55 3.27 3.55 5.93 0 .95-.16 1.93-.52 2.9-1.17 3.18-3.97 5.1-6.67 4.78z" fill="#f7b6ad"/><path d="m17.19 51.895c-1.2-3.49-2.12-8.05-2.66-13.03l-.08-.83s1.21-16.55 6.64-18.59c0 0 8.23 5.36 17.17 5.49l-2.3-6.51s13.06 5.94 18.38 6.64c7.79 1.02 8.49 6.58 9.2 12.97l-.08.83c-.54 4.98-1.46 9.54-2.66 13.03-.55 1.59-1.15 2.95-1.8 4.04-2.29 3.81-7.49 8.79-13.82 10.94-1.97.67-4.05 1.06-6.18 1.06-2.07 0-4.09-.37-6-1-6.42-2.11-11.69-7.15-14-11-.65-1.09-1.26-2.45-1.81-4.04z" fill="#fec4b9"/><path d="m64.96 114.485v3.77 5.68h-2.08c-6.78-7.57 0-37.07 0-37.07 3.44 3.76 6.71 8.62 9.39 14.88h.01c1.39 3.25 2.63 6.88 3.64 10.94z" fill="#d14b62"/><path d="m39 107.435c14.2-12.42 14.43-28.36 14.43-28.36 1.79 1.07 3.64 2.38 5.5 3.96-2.1 25.89-30.93 40.9-30.93 40.9h-12.88c1.12-1.25 1.88-3.11 2.35-5.33 6.46-1.81 11.76-4.28 16.11-7.1 2-1.29 3.8-2.66 5.42-4.07z" fill="#ea728c"/><path d="m43.01 78.865c1.46 0 2.64 1.18 2.64 2.64 0 1.45-1.18 2.63-2.64 2.63-1.45 0-2.63-1.18-2.63-2.63 0-1.46 1.18-2.64 2.63-2.64z" fill="#d14b62"/><path d="m36.77 105.345c.7.7 1.44 1.4 2.23 2.09-1.62 1.41-3.42 2.78-5.42 4.07-6.89-6.9-13.53-16.52-14.51-28.45 1.86-1.59 3.71-2.9 5.5-3.98 0 0 .2 14.22 12.2 26.26z" fill="#ea728c"/><path d="m13.04 114.485-10.96-1.8c1.02-4.09 2.27-7.74 3.68-11.01 2.67-6.22 5.93-11.05 9.36-14.8.12.53 4.7 20.67 2.35 31.73-.47 2.22-1.23 4.08-2.35 5.33h-2.08v-5.68z" fill="#d14b62"/><path d="m47.261 28.45c.025-.006 2.63-.432 4.443.843.175.123.375.182.574.182.314 0 .625-.148.819-.425.318-.452.209-1.076-.243-1.393-2.502-1.76-5.799-1.202-5.939-1.177-.543.096-.904.613-.81 1.156.096.544.616.908 1.156.814z" fill="#3f2313"/><path d="m25.721 29.475c.199 0 .399-.059.574-.182 1.806-1.268 4.397-.851 4.443-.843.547.091 1.061-.269 1.157-.812.096-.544-.267-1.063-.811-1.159-.14-.026-3.438-.583-5.939 1.177-.452.317-.561.941-.243 1.393.195.278.505.426.819.426z" fill="#3f2313"/><path d="m41.727 40.253c-1.831.521-3.622.521-5.453 0-.532-.15-1.085.157-1.235.688-.151.531.157 1.084.688 1.235 1.093.311 2.195.468 3.273.468s2.18-.158 3.273-.468c.531-.151.839-.704.688-1.235s-.705-.838-1.234-.688z" fill="#ea8d81"/><path d="m33.002 66.935s5.796 2.306 12.18-.06l.006 3.103s-7.938.884-12.183-1.782z" fill="#f7b6ad"/><path d="m37.715 106.265.054-27.379 1.174-1.847c.296-.466.159-1.084-.307-1.38-.466-.297-1.084-.16-1.38.307l-1.33 2.092c-.102.161-.156.347-.156.537l-1.166 24.399 1.402 1.554z" fill="#acccc6"/><path d="m58.868 123.935h4.012c-.797-.89-1.401-2.091-1.856-3.504-.541 1.262-1.263 2.445-2.156 3.504z" fill="#acccc6" opacity=".8"/><path d="m63.96 109.169c-.552 0-1 .448-1 1l-.932 6.683c-.173 1.239-.515 2.441-1.004 3.579.455 1.412 1.059 2.614 1.856 3.504h2.08v-5.68-3.77-4.316c0-.552-.448-1-1-1z" fill="#c43b58"/><path d="m19.132 123.935h-4.012c.797-.89 1.401-2.091 1.856-3.504.541 1.262 1.263 2.445 2.156 3.504z" fill="#ba6a7e"/><path d="m14.04 109.169c.552 0 1 .448 1 1l.932 6.683c.173 1.239.515 2.441 1.004 3.579-.455 1.412-1.059 2.614-1.856 3.504h-2.08v-5.68-3.77-4.316c0-.552.448-1 1-1z" fill="#c43b58"/><g fill="#543927"><path d="m51.286 36.236c-.368.157-.783.224-1.186.242-.004-.011-.006-.022-.01-.033.245-.171.473-.367.664-.616.336-.438.254-1.065-.184-1.402s-1.066-.255-1.402.184c-.19.248-.44.343-.708.379-.156-.034-.317-.055-.483-.055-1.24 0-2.246 1.006-2.246 2.246s1.006 2.246 2.246 2.246c.752 0 1.413-.373 1.821-.94.022 0 .042.004.063.004.736 0 1.515-.118 2.211-.416.508-.218.743-.806.526-1.313-.217-.508-.806-.743-1.312-.526z"/><path d="m30.023 34.935c-.166 0-.327.021-.483.055-.267-.036-.517-.132-.708-.379-.336-.439-.965-.521-1.402-.184-.438.336-.521.964-.184 1.402.191.249.419.445.665.616-.003.008-.005.016-.008.024-.424-.015-.846-.08-1.174-.226-.505-.226-1.096 0-1.321.505-.225.504.001 1.095.505 1.321.648.29 1.431.406 2.186.406.03 0 .058-.004.088-.005.406.578 1.076.958 1.836.958 1.24 0 2.246-1.006 2.246-2.246s-1.006-2.247-2.246-2.247z"/></g></g></svg>