<svg id="Flat" enable-background="new 0 0 78 124" height="512" viewBox="0 0 78 124" width="512" xmlns="http://www.w3.org/2000/svg"><g><path d="m11.856 38.01c-.08-.35 1.074-1.63 1.404-1.78.02-.01.03-.02.05-.03.37-.18.81-.05 1.01.29l-.02.01c2.466 5.649 2.9 9.309 2.9 15.46-2.7.32-5.51-1.6-6.68-4.78-.72-1.95-.67-3.98-.02-5.63h.02z" fill="#f7b6ad"/><path d="m63.54 38.1c.01-.03.02-.06.01-.09l-1.09-19.85.54-.16s8.5-3 11 5-1 18-1 18-4 13-1 21.5-.5 15.5-.5 15.5-2-4.5-6-8.5-6.51-6-6.5-13.5c.65-1.08 1.25-2.45 1.79-4.04h.01z" fill="#472d1c"/><path d="m14.435 38.01c.29.3 49.065-.01 49.065-.01l.05.01c.3-2.92.45-5.96.45-9.01 0-3.22-.43-7.04-1.54-10.84-2.68-9.16-9.32-18.16-23.46-18.16-17.01 0-23.17 13.01-24.63 23.67l-.772 3.947z" fill="#543927"/><path d="m18.912 106.857-.912 5.163c-2.85 4.64-4 11.98-4 11.98h-14c1.9-15.14 6.47-25.7 11.86-33.07z" fill="#fec4b9"/><path d="m66.09 90.93.04-.03c5.39 7.37 9.97 17.94 11.87 33.1h-14s-1.2-6.99-4.05-11.63l-.996-5.373z" fill="#fec4b9"/><path d="m25.73 78.46c-4.47 2.51-9.45 6.41-13.87 12.47l4.87 13.32c.84 2.3 1.27 4.73 1.27 7.17v.6 11.98h41.95v-11.63-.95c0-2.44.43-4.87 1.27-7.17l4.87-13.32.04-.03c-4.43-6.05-9.4-9.94-13.86-12.44z" fill="#682168"/><path d="m64.44 38.35c3.03 1.2 4.38 5.16 3.03 8.83-1.17 3.18-3.97 5.1-6.67 4.78 0-4.832.902-9.25 2.74-13.86.3.05.61.13.9.25z" fill="#f7b6ad"/><path d="m63.55 38.01c.01.03 0 .06-.01.09-.51 5.3-1.47 10.18-2.74 13.86h-.01c-.54 1.59-1.14 2.96-1.79 4.04-2.29 3.81-7.49 8.79-13.82 10.94-1.97.67-4.05 1.06-6.18 1.06-2.07 0-4.09-.37-6-1-6.42-2.11-11.69-7.15-14-11-.65-1.08-1.26-2.45-1.8-4.04-1.4-4.05-2.42-9.54-2.9-15.46l.02-.01c.01 0 .01.01.01.01l.99 1.67c.99 1.23 2.86 1.2 3.82-.05s.49-3.06-.95-3.7l-1.89-.58c-.37-.12-.6-.5-.53-.89v-.01c.07-.37.39-.64.76-.65l2.08-.02c.69-.1 1.26-.49 1.62-1.01.45-.65.59-1.51.25-2.32-.03-.08-.07-.16-.12-.24 0 0 15.79-3.7 22.14-17.2 0 0 17 9.5 21 26.5z" fill="#fec4b9"/><path d="m45.18 75.28h.03v.02l.03.07c2.04.67 4.45 1.64 7.03 3.09l-.02.04v3.75c0 6.49-5.93 11.75-13.25 11.75s-13.25-5.26-13.25-11.75v-3.75l-.02-.04c2.69-1.51 5.2-2.51 7.3-3.18z" fill="#fec4b9"/><path d="m45.18 66.94.03 8.34h-.03c-2.25 1.78-4.35 2.38-6.15 2.38-.01 0-.02 0-.03 0-3.58-.01-5.97-2.38-5.97-2.38l-.01-.03-.02-8.25z" fill="#fec4b9"/><path d="m20.48 28.94c.34.81.2 1.67-.25 2.32-.36.52-.93.91-1.62 1.01l-2.08.02c-.37.01-.69.28-.76.65v.01c-.07.39.16.77.53.89l1.89.58c1.44.64 1.91 2.45.95 3.7s-2.83 1.28-3.82.05l-.99-1.67s0-.01-.01-.01c-.2-.34-.64-.47-1.01-.29-.02.01-.03.02-.05.03-.33.15-.5.52-.42.87l.4 1.78c.18 1.56-1.16 2.88-2.72 2.67-.01 0-.01 0-.02 0-.35-.04-.68-.16-.95-.34-.95-.59-1.43-1.81-.99-2.94l.76-1.34c.2-.36.09-.82-.25-1.05l-.16-.1c-.3-.19-.69-.16-.96.09l-1.04.96c-1.27.93-3.07.42-3.68-1.03-.6-1.45.31-3.09 1.87-3.33l1.14-.01c.39-.01.72-.3.76-.69.01-.1.03-.2.04-.3.07-.38-.17-.74-.54-.85l-.97-.3c-1.45-.64-1.91-2.45-.96-3.7.96-1.25 2.84-1.28 3.83-.05l.65 1.1c.18.32.56.47.9.35.08-.03.16-.05.25-.08.39-.11.62-.51.53-.91l-.26-1.17c-.17-1.56 1.17-2.88 2.73-2.67.45.06.84.23 1.17.48.81.63 1.19 1.75.78 2.8l-.9 1.6c-.17.3-.12.69.13.94l.07.06c.29.3.77.3 1.08.02l1.27-1.18c1.2-.88 2.87-.47 3.56.79.05.08.09.16.12.24z" fill="#f48ca7"/><path d="m47.261 28.515c.025-.005 2.631-.432 4.444.843.175.123.376.182.574.182.314 0 .624-.148.819-.425.317-.452.209-1.076-.243-1.393-2.5-1.759-5.802-1.202-5.939-1.177-.543.096-.904.613-.81 1.156s.612.909 1.155.814z" fill="#3f2313"/><path d="m41.727 40.318c-1.83.521-3.623.521-5.453 0-.535-.151-1.084.157-1.235.688s.157 1.084.688 1.235c1.093.311 2.194.469 3.273.469s2.18-.158 3.273-.468c.531-.151.84-.704.688-1.235-.15-.532-.703-.839-1.234-.689z" fill="#ea8d81"/><g fill="#f7b6ad"><path d="m33.002 67s5.796 2.306 12.18-.06l.006 5.417s-7.938.884-12.183-1.782z"/><path d="m64 124c-1.463-7.74-3.858-11.203-3.883-11.237l-.17-.408v-.323c-.086-2.691.505-5.184.851-6.553.142-.562.73-.88 1.281-.699.497.163.789.68.661 1.187-.003.012-.006.024-.009.036-.778 3.074-.098 6.318 1.803 8.857 1.58 2.109 3.41 5.178 4.159 9.141h-4.693z"/><path d="m13.995 124c1.367-7.511 3.407-10.934 3.431-10.968l.574-1.012-.001-.786c.086-2.691-.507-4.357-.854-5.726-.142-.562-.68-.909-1.23-.728l-.05.029c-.497.163-.789.68-.661 1.187l.009.036c.778 3.074.148 6.289-1.753 8.827-1.58 2.109-3.41 5.178-4.159 9.141z"/></g><path d="m39.073 78.651c-3.99 0-6.71-2.617-6.75-2.657-.394-.388-.397-1.021-.01-1.415.389-.393 1.02-.397 1.412-.011.209.201 4.905 4.634 10.831-.07.435-.345 1.062-.272 1.405.162.344.433.271 1.062-.161 1.405-2.441 1.938-4.741 2.586-6.727 2.586z" fill="#ef9d26"/><circle cx="39" cy="80.127" fill="#f9b132" r="2.468"/><path d="m51.285 36.301c-.367.157-.783.223-1.185.242-.004-.011-.006-.022-.01-.033.245-.171.473-.367.665-.616.337-.438.254-1.066-.184-1.402-.438-.337-1.065-.255-1.402.184-.19.247-.44.344-.707.38-.157-.035-.318-.056-.485-.056-1.24 0-2.246 1.006-2.246 2.246s1.006 2.246 2.246 2.246c.752 0 1.413-.373 1.821-.94.021 0 .041.003.063.003.736 0 1.516-.118 2.211-.417.508-.217.743-.805.525-1.313-.217-.507-.809-.743-1.312-.524z" fill="#543927"/><path d="m30.023 35c-.167 0-.328.021-.484.055-.267-.036-.517-.133-.708-.38-.336-.437-.963-.52-1.402-.184-.438.336-.521.964-.184 1.402.191.249.42.445.665.615-.003.008-.005.016-.007.024-.423-.015-.846-.08-1.173-.226-.508-.225-1.097.001-1.321.505-.226.504.001 1.096.505 1.321.648.29 1.431.406 2.186.406.03 0 .058-.004.088-.005.406.578 1.076.958 1.836.958 1.24 0 2.246-1.006 2.246-2.246s-1.007-2.245-2.247-2.245z" fill="#543927"/></g></svg>