<svg id="Flat" enable-background="new 0 0 78 124" height="512" viewBox="0 0 78 124" width="512" xmlns="http://www.w3.org/2000/svg"><g><path d="m16.72 123.98v.02h-16.72c.38-3 .86-5.83 1.43-8.48l.606-2.617 14.684.214v2.403z" fill="#dfa3a5"/><path d="m78 124-7.227-.037-6.56-8.47-2.104-2.719 14.462 2.746c.569 2.65 1.049 5.48 1.429 8.48z" fill="#dfa3a5"/><path d="m33.02 75.25.01.03c-1.78.57-3.87 1.38-6.11 2.55-5.17 2.66-11.17 7.18-16.27 14.83-1.15 1.72-2.26 3.6-3.3 5.65v.01c-2.4 4.74-4.46 10.42-5.92 17.2h15.29v8.46.02h10.55 7.75 27.69 8.1l-6.56-8.47.01-.01h12.31c-6.06-28.1-22.31-37.22-31.33-40.15l-.01-.01z" fill="#6fceae"/><path d="m14.45 38.08c-.29-2.94-.45-6.01-.45-9.08 0-11 5-29 25-29s25 18 25 29c0 3.08-.16 6.16-.46 9.1z" fill="#472d1c"/><path d="m59.91 54.23c2.99 1.34 5.07 4.34 5.07 7.83 0 4.73-3.83 8.57-8.57 8.57-3.51 0-6.53-2.12-7.85-5.15z" fill="#472d1c"/><path d="m33.02 75.25 2.1 2.71 26.16 33.74 2.97 3.83 6.56 8.47h-8.1l-35.79-46.17c2.24-1.17 4.33-1.98 6.11-2.55z" fill="#1ea6bc"/><path d="m10.79 92.75 24.23 31.25h-7.75l-10.55-13.61-9.37-12.07v-.01c1.04-2.05 2.15-3.93 3.3-5.65z" fill="#1ea6bc"/><path d="m26.92 77.83 35.79 46.17h-27.69l-24.23-31.25-.14-.09c5.1-7.65 11.1-12.17 16.27-14.83z" fill="#ffc05a"/><path d="m17.2 51.96c-2.7.32-5.51-1.6-6.68-4.78-1.35-3.67.01-7.63 3.03-8.83.3-.12.6-.2.9-.25z" fill="#dfa3a5"/><path d="m63.54 38.1c.3.05.61.13.9.25 3.03 1.2 4.38 5.16 3.03 8.83-1.17 3.18-3.97 5.1-6.67 4.78z" fill="#dfa3a5"/><path d="m45.18 66.94.03 8.36.02.06c-.88 2.26-3.27 3.87-6.08 3.87-1.53 0-2.93-.47-4.03-1.27l-2.1-2.71-.02-8.25z" fill="#f7b6ad"/><path d="m63.54 38.1c-.51 5.3-1.47 10.18-2.74 13.86h-.01c-.27.82-.57 1.58-.88 2.27-.29.65-.59 1.24-.91 1.77-1.87 3.11-5.67 6.99-10.44 9.48-1.08.57-2.21 1.06-3.38 1.46-1.97.67-4.05 1.06-6.18 1.06-2.07 0-4.09-.37-6-1-6.42-2.11-11.69-7.15-14-11-.65-1.08-1.25-2.45-1.8-4.04-1.27-3.68-2.23-8.56-2.75-13.86 0-.01 0-.01 0-.02 2.52-13.95 12.9-24.32 24.74-24.32 11.86 0 21.67 10.38 24.35 24.34z" fill="#f7b6ad"/><path d="m33.002 67s5.796 2.306 12.18-.06l.006 3.103s-7.938.884-12.183-1.782z" fill="#dfa3a5"/><path d="m47.261 28.515c.025-.005 2.631-.432 4.443.843.175.123.375.182.574.182.314 0 .625-.148.819-.425.318-.452.209-1.076-.243-1.393-2.502-1.759-5.799-1.202-5.939-1.177-.543.096-.904.613-.81 1.156.096.543.613.906 1.156.814z" fill="#3f2313"/><path d="m25.721 29.54c.199 0 .399-.059.574-.182 1.805-1.269 4.397-.851 4.443-.843.547.093 1.061-.269 1.157-.812.096-.544-.267-1.063-.811-1.159-.14-.026-3.438-.583-5.939 1.177-.452.317-.561.941-.243 1.393.195.278.505.426.819.426z" fill="#3f2313"/><path d="m41.727 40.318c-1.831.521-3.622.521-5.453 0-.532-.15-1.084.157-1.235.688s.157 1.084.688 1.235c1.093.311 2.194.469 3.273.469s2.18-.158 3.273-.468c.531-.151.839-.704.688-1.235s-.704-.84-1.234-.689z" fill="#ea8d81"/><path d="m63.332 111.574c-.186-.801-.337-1.609-.454-2.423l-.516-3.598c-.09-.574-.473-1.003-1.082-1.003-.552 0-1 .447-1 1l-.037 4.823 4.008 5.157z" fill="#53b79a"/><path d="m16.324 109.88c-.871-1.122-2.669-.534-2.708.886l-.07 2.552c-.02.74-.106 1.474-.227 2.201h3.4v-4.485c.001-.417-.138-.823-.395-1.154z" fill="#4aaf8f"/><path d="m9.419 123.329c-.224.224-.456.441-.696.652h7.997v-8.46h-3.4c-.49 2.932-1.785 5.695-3.901 7.808z" fill="#d8959a"/><g fill="#543927"><path d="m51.286 36.301c-.367.157-.783.224-1.185.242-.004-.011-.006-.022-.01-.033.245-.171.473-.367.664-.616.336-.438.254-1.065-.184-1.402s-1.066-.255-1.402.184c-.19.247-.44.343-.707.38-.157-.035-.318-.056-.485-.056-1.24 0-2.246 1.006-2.246 2.246s1.006 2.246 2.246 2.246c.752 0 1.413-.373 1.821-.94.022 0 .042.004.063.004.736 0 1.515-.118 2.211-.416.508-.218.743-.806.526-1.313-.217-.508-.806-.742-1.312-.526z"/><path d="m30.023 35c-.167 0-.328.021-.484.055-.267-.036-.517-.132-.707-.38-.337-.439-.966-.521-1.402-.184-.438.336-.521.964-.184 1.402.191.249.419.445.665.616-.003.008-.005.017-.008.025-.423-.015-.846-.08-1.174-.227-.505-.227-1.096 0-1.321.505-.225.504.001 1.095.505 1.321.648.29 1.431.406 2.186.406.03 0 .058-.004.088-.005.406.578 1.076.958 1.836.958 1.24 0 2.246-1.006 2.246-2.246s-1.006-2.246-2.246-2.246z"/></g></g></svg>