<svg id="Flat" enable-background="new 0 0 78 123.48" height="512" viewBox="0 0 78 123.48" width="512" xmlns="http://www.w3.org/2000/svg"><g><path d="m64.6 88.41c-1.33-1.64-2.69-3.09-4.06-4.38-1.43-1.35-2.87-2.53-4.29-3.55-1.54-1.11-3.04-2.04-4.49-2.82l-.75 2.74s0 0-.01 0l-2.51 9.1h-18.84l-2.51-9.1-.78-2.8c-1.45.78-2.96 1.7-4.49 2.8-1.42 1.02-2.87 2.19-4.3 3.54-1.38 1.28-2.74 2.72-4.07 4.34-6.08 7.41-11.41 18.53-13.5 35.2h7.68 5.03 1 9.5 5.27 5.28 5.27.08 5.27 5.28 5.27 9.36 1 5.838 6.872c-2.08-16.57-7.36-27.66-13.4-35.07z" fill="#d14b62"/><path d="m45.18 66.42.03 8.36.03.07c1.91.62 4.13 1.52 6.52 2.81l-.803 12.246-23.072-.188-1.525-12.118c2.45-1.32 4.74-2.22 6.67-2.84l-.01-.03-.02-8.25z" fill="#ffd7d2"/><path d="m64 28.48c0-.1 0-1.06-.01-1.16l-49.98.351c-.01.101-.01.709-.01.809 0 3.07.16 6.15.45 9.09.445-.252 4.05-5.991 10.105-8.578 10.875 2.685 38.985 8.588 38.985 8.588.3-2.94.46-6.02.46-9.1z" fill="#472d1c"/><path d="m62.05 16.34-1.25-3.32c.37-.75.58-1.6.58-2.5 0-3.15-2.56-5.71-5.71-5.71-.79 0-1.54.16-2.22.45-3.35-3.15-8.02-5.26-14.45-5.26s-11.1 2.11-14.45 5.26c-.68-.29-1.43-.45-2.22-.45-3.15 0-5.71 2.56-5.71 5.71 0 .9.21 1.75.58 2.5l-1.26 3.32c-1.37 4.1-1.91 8.31-1.93 11.84h12.92 24.14 12.92c-.02-3.53-.57-7.74-1.94-11.84z" fill="#d14b62"/><path d="m48.49 89.5-1.7 6.14h-15.44l-1.7-6.14z" fill="#ffc05a"/><path d="m39.03 123.46-7.68-27.82h15.44l-7.68 27.82v.02h-.08z" fill="#f48ca7"/><path d="m33.76 123.46v.02h-5.28v-.02l-10.91-39.52c1.43-1.35 2.88-2.52 4.3-3.54z" fill="#ffc05a"/><path d="m60.54 84.03-10.88 39.43v.02h-5.28v-.02l11.87-42.98c1.42 1.02 2.86 2.2 4.29 3.55z" fill="#ffc05a"/><path d="m64.6 88.41-9.67 35.05v.02h-5.27v-.02l10.88-39.43c1.37 1.29 2.73 2.74 4.06 4.38z" fill="#82387d"/><path d="m28.48 123.46v.02h-5.27v-.02l-9.71-35.18c1.33-1.62 2.69-3.06 4.07-4.34z" fill="#82387d"/><path d="m39.03 123.46v.02h-5.27v-.02l-11.89-43.06c1.53-1.1 3.04-2.02 4.49-2.8l.78 2.8 2.51 9.1 1.7 6.14z" fill="#894687"/><path d="m51.76 77.66c1.45.78 2.95 1.71 4.49 2.82l-11.87 42.98v.02h-5.27v-.02l7.68-27.82 1.7-6.14 2.51-9.1h.01z" fill="#894687"/><g fill="#ffc05a"><path d="m52.05 20.52h4v4h-4z"/><path d="m42.02 20.52h4v4h-4z"/><path d="m31.98 20.52h4v4h-4z"/><path d="m21.95 20.52h4v4h-4z"/></g><path d="m51.71 6.41c1.07 1.05 1.74 2.5 1.74 4.11s-.67 3.06-1.74 4.11c-1.02.99-2.42 1.6-3.97 1.6-1.44 0-2.76-.54-3.77-1.42 1.01-1.15 1.6-2.65 1.6-4.29s-.6-3.13-1.59-4.28l-.01-.01c1.01-.88 2.33-1.42 3.77-1.42 1.55 0 2.94.61 3.97 1.6z" fill="#894687"/><path d="m34.03 6.23-.01.01c-.99 1.15-1.59 2.64-1.59 4.28s.59 3.14 1.6 4.29c-1.01.88-2.33 1.42-3.77 1.42-1.55 0-2.95-.61-3.97-1.6-1.07-1.05-1.74-2.5-1.74-4.11s.67-3.06 1.74-4.11c1.03-.99 2.42-1.6 3.97-1.6 1.44 0 2.76.54 3.77 1.42z" fill="#894687"/><path d="m61.38 10.52c0 .9-.21 1.75-.58 2.5-.92 1.9-2.88 3.21-5.13 3.21-1.54 0-2.94-.61-3.96-1.6 1.07-1.05 1.74-2.5 1.74-4.11s-.67-3.06-1.74-4.11c.5-.48 1.09-.88 1.74-1.15.68-.29 1.43-.45 2.22-.45 3.15 0 5.71 2.56 5.71 5.71z" fill="#f9b132"/><path d="m43.98 6.24c.99 1.15 1.59 2.64 1.59 4.28s-.59 3.14-1.6 4.29c-.09.12-.2.24-.32.36-1.19 1.19-2.83 1.92-4.65 1.92-1.99 0-3.78-.89-4.97-2.28-1.01-1.15-1.6-2.65-1.6-4.29s.6-3.13 1.59-4.28l.01-.01c.6-.7 1.34-1.26 2.19-1.65.84-.4 1.78-.62 2.78-.62 1.99 0 3.76.88 4.97 2.27z" fill="#f9b132"/><path d="m26.29 6.41c-1.07 1.05-1.74 2.5-1.74 4.11s.67 3.06 1.74 4.11c-1.02.99-2.42 1.6-3.96 1.6-2.25 0-4.21-1.31-5.13-3.21-.37-.75-.58-1.6-.58-2.5 0-3.15 2.56-5.71 5.71-5.71.79 0 1.54.16 2.22.45.65.27 1.24.67 1.74 1.15z" fill="#f9b132"/><path d="m59.5 54.57s4.52 1.1 4.89 8.42c.38 7.32 1.99 10.81 1.99 10.81s1.24 3.05 5.55 6.94c1.85 1.67 2.99 4.07 2.86 6.56-.02.37-.07.72-.15 1.05 0 0-4.94-6.38-9.11-8-4.17-1.61-13.59-7.18-12.93-17.96z" fill="#472d1c"/><path d="m17.2 51.44c-2.7.32-5.51-1.6-6.68-4.78-1.35-3.67.01-7.63 3.03-8.83.3-.12.6-.2.9-.25z" fill="#fec4b9"/><path d="m63.54 37.58c.3.05.61.13.9.25 3.03 1.2 4.38 5.16 3.03 8.83-1.17 3.18-3.97 5.1-6.67 4.78z" fill="#fec4b9"/><path d="m52.6 62.39c-2.17 1.65-4.69 3.1-7.42 4.03-1.97.67-4.05 1.06-6.18 1.06-2.07 0-4.09-.37-6-1-6.42-2.11-11.69-7.15-14-11-.65-1.08-1.25-2.45-1.8-4.04-1.27-3.68-2.23-8.56-2.75-13.86 0 0 0 0 0-.01.2-.41 4.68-9.39 12.48-9.39h24.14c7.98 0 12.47 9.4 12.47 9.4-.51 5.3-1.47 10.18-2.74 13.86h-.01c-.39 1.17-.83 2.22-1.29 3.13-.16.32-.33.63-.5.91-1.3 2.17-3.54 4.72-6.4 6.91z" fill="#ffd7d2"/><path d="m39 42.19c-1.079 0-2.18-.158-3.273-.468-.531-.151-.839-.704-.688-1.235s.703-.839 1.235-.688c1.831.521 3.622.521 5.453 0 .53-.15 1.084.157 1.235.688s-.157 1.084-.688 1.235c-1.094.31-2.195.468-3.274.468z" fill="#ea8d81"/><path d="m7.68 123.48c1.311-2.621 2.186-5.438 2.592-8.34l1.438-10.28c0-.553.448-1 1-1s1 .447 1 1v18.62z" fill="#c43b58"/><path d="m64.29 123.48v-18.62c0-.553.448-1 1-1s1 .447 1 1l1.36 8.883c.526 3.438 1.707 6.743 3.478 9.737z" fill="#c43b58"/><path d="m27.14 80.4.28 1.016c2.517.196 6.857.403 7.408.423.855.036 1.622 1.204 1.823 1.611.173.354.529.56.898.56.147 0 .296-.032.437-.101.497-.241.704-.84.462-1.336-.131-.271-1.344-2.641-3.542-2.732-1.947-.071-6.483-.336-8.051-.46z" fill="#fec4b9"/><path d="m40.15 83.907c.141.069.291.102.438.102.369 0 .724-.205.899-.558.201-.407.968-1.575 1.819-1.611.055-.002 4.816-.236 7.416-.433l.278-1.007h.01l.284-1.039c-1.603.14-6.11.408-8.066.48-2.194.092-3.407 2.462-3.538 2.732-.24.496-.034 1.091.46 1.334z" fill="#fec4b9"/><path d="m33.002 66.48s5.796 2.306 12.18-.06l.006 5.025s-7.938.884-12.183-1.782z" fill="#fec4b9"/><path d="m51.286 35.781c-.367.157-.783.224-1.185.242-.004-.011-.006-.022-.01-.033.245-.171.473-.367.664-.616.336-.438.254-1.065-.184-1.402s-1.066-.255-1.402.184c-.19.247-.44.344-.707.38-.156-.034-.317-.055-.484-.055-1.24 0-2.246 1.006-2.246 2.246s1.006 2.246 2.246 2.246c.752 0 1.413-.373 1.821-.94.022 0 .042.004.063.004.736 0 1.515-.118 2.211-.416.508-.218.743-.806.526-1.313-.218-.509-.808-.743-1.313-.527z" fill="#543927"/><path d="m30.023 34.48c-.167 0-.328.021-.484.055-.267-.036-.517-.132-.707-.38-.336-.439-.965-.521-1.402-.184-.438.336-.521.964-.184 1.402.191.249.419.445.665.616-.003.008-.005.016-.008.025-.423-.015-.846-.08-1.174-.227-.504-.227-1.096 0-1.321.505-.225.504.001 1.095.505 1.321.648.29 1.431.406 2.186.406.03 0 .058-.004.088-.005.406.578 1.076.958 1.836.958 1.24 0 2.246-1.006 2.246-2.246s-1.006-2.246-2.246-2.246z" fill="#543927"/></g></svg>