<svg id="Flat" enable-background="new 0 0 78 123.98" height="512" viewBox="0 0 78 123.98" width="512" xmlns="http://www.w3.org/2000/svg"><g><path d="m13 89.4-.89-29.14v-.01l-.06-2.08-.06-.64-2.19-29.23c0-15.39 13-27.92 29.2-28.3 16.2.38 29.2 12.91 29.2 28.3l-2.19 29.23-.09 2.67v.01l-1.02 29.08c5.92 7.42 11.06 18.4 13.1 34.69h-16.703l-3.861-.02z" fill="#ea728c"/><path d="m43.57 109.21c5.75 5.04 12.42 10.13 19.98 14.75v.02h-47.89v-.02-8.04s1.659-10.989 17.91-16.29c2.95 3.08 6.28 6.32 10 9.58z" fill="#ba6a7e"/><path d="m15.66 115.92v8.04.02h-15.66c2.03-16.2 7.13-27.17 13-34.58 2.12-2.68 4.34-4.89 6.55-6.72 2.64 3.75 7.33 9.95 14.02 16.95-14.27 7.6-17.91 16.29-17.91 16.29z" fill="#d6eae8"/><path d="m63.55 38.08c-.75 7.58-2.39 14.3-4.55 17.9-3 5-11 12-20 12s-17-7-20-12c-2.17-3.6-3.81-10.32-4.56-17.9 0 0 3.92-5.82 6.24-11.93l.04.01s12.44-.54 18.31-.54h.08c5.87 0 18.31.54 18.31.54l.03-.01c2.29 6.11 6.1 11.93 6.1 11.93z" fill="#ffd7d2"/><path d="m56 95.81c-.088 0-.177-.012-.266-.036-17.39-4.778-28.944-15.185-29.428-15.625-.408-.372-.437-1.005-.065-1.412.372-.408 1.005-.438 1.413-.066.115.104 11.702 10.528 28.612 15.176.532.146.845.696.699 1.229-.123.443-.526.734-.965.734z" fill="#af5a72"/><path d="m72.51 118.28c-.108 0-.219-.018-.328-.055-16.934-5.868-29.157-16.69-29.279-16.8-.412-.368-.447-1-.079-1.411.368-.413 1-.447 1.412-.08.119.106 12.061 10.669 28.601 16.4.521.182.798.751.617 1.272-.142.415-.53.674-.944.674z" fill="#af5a72"/><path d="m39 42.69c-1.079 0-2.18-.158-3.273-.468-.531-.151-.839-.704-.688-1.235.15-.531.703-.839 1.235-.688 1.831.521 3.622.521 5.453 0 .53-.15 1.084.157 1.235.688s-.157 1.084-.688 1.235c-1.094.31-2.195.468-3.274.468z" fill="#ea8d81"/><path d="m14.66 106.24c-.552 0-1 .447-1 1-1.217 6.365-2.357 13.044-5.384 16.721h7.384v-16.721c0-.553-.448-1-1-1z" fill="#c3ddda"/><path d="m59 55.98c2.16-3.6 3.8-10.32 4.55-17.9 0 0-3.81-5.82-6.1-11.93l-.03.01s-12.44-.54-18.31-.54h-.08c-5.87 0-18.31.54-18.31.54l-.04-.01c-2.32 6.11-6.24 11.93-6.24 11.93.75 7.58 2.39 14.3 4.56 17.9 3 5 11 12 20 12s17-7 20-12z" fill="none"/><g fill="#af5a72"><path d="m13.636 62.87c-.327.364-.35.917-.04 1.295 4.741 5.761 12.265 9.67 20.885 10.698.041.005.081.007.12.007.499 0 .931-.373.992-.882.065-.548-.326-1.046-.875-1.111-8.097-.966-15.145-4.603-19.56-9.955-.393-.477-1.108-.512-1.522-.052z"/><path d="m64.175 63.019c-.414-.425-1.094-.383-1.477.07-2.812 3.328-6.707 6.03-11.296 7.788-.516.197-.774.775-.577 1.291.153.398.532.643.934.643.119 0 .24-.021.357-.066 4.918-1.882 9.09-4.801 12.119-8.403.325-.388.292-.962-.06-1.323z"/><path d="m28.68 114.252c-.353.425-.293 1.055.132 1.407.187.155.413.23.638.23.287 0 .573-.123.771-.362 4.359-5.258 9.912-9.021 9.968-9.058.068-.046.113-.11.166-.168-.494-.459-.979-.915-1.458-1.371-.989.684-6.041 4.285-10.217 9.322z"/><path d="m38.647 119.392c-.104.543.252 1.066.795 1.17.063.012.126.018.188.018.471 0 .89-.333.981-.813 1.018-5.335 3.311-9.227 3.725-9.898-.254-.22-.516-.44-.767-.659-.25-.219-.484-.437-.73-.655-.034.038-.078.064-.107.109-.117.179-2.891 4.476-4.085 10.728z"/></g><path d="m51.286 36.281c-.368.157-.783.224-1.185.242-.004-.011-.006-.022-.01-.033.245-.171.473-.367.664-.616.336-.438.254-1.065-.184-1.402s-1.066-.255-1.402.184c-.19.247-.44.344-.707.38-.156-.034-.318-.055-.484-.055-1.24 0-2.246 1.006-2.246 2.246s1.006 2.246 2.246 2.246c.752 0 1.413-.373 1.821-.94.022 0 .042.004.063.004.736 0 1.515-.118 2.211-.416.508-.218.743-.806.526-1.313-.218-.509-.807-.743-1.313-.527z" fill="#543927"/><path d="m30.023 34.98c-.167 0-.328.021-.484.055-.267-.036-.517-.132-.707-.38-.336-.439-.965-.521-1.402-.184-.438.336-.521.964-.184 1.402.191.249.419.445.665.616-.003.008-.005.016-.008.025-.423-.015-.846-.08-1.174-.227-.505-.227-1.096 0-1.321.505-.225.504.001 1.095.505 1.321.648.29 1.431.406 2.186.406.03 0 .058-.004.088-.005.406.578 1.076.958 1.836.958 1.24 0 2.246-1.006 2.246-2.246s-1.006-2.246-2.246-2.246z" fill="#543927"/></g></svg>