<svg id="Flat" enable-background="new 0 0 78 124" height="512" viewBox="0 0 78 124" width="512" xmlns="http://www.w3.org/2000/svg"><g><path d="m58.36 56.98-38.76-.05v3.52c0 5.75 5.62 10.62 13.41 12.31l12.19-.05c7.67-1.72 13.2-6.56 13.2-12.26v-2.17-1.27z" fill="#472d1c"/><path d="m17.2 51.96c-2.7.32-5.51-1.6-6.68-4.78-1.35-3.67.01-7.63 3.03-8.83.3-.12.6-.2.9-.25h.01c2.561 5.299 3.205 10.179 2.74 13.86z" fill="#f7b6ad"/><path d="m33 67 .01 5.76.01 2.49.01.03c-.89.28-1.85.63-2.88 1.05-.8.32-1.63.7-2.5 1.12-3.99 1.97-8.56 5.04-12.85 9.84-6.61 7.39-12.57 18.87-14.8 36.71h15.36 1.044l46.236-.08v.08h15.36c-3.99-31.91-19.91-43.49-30.13-47.66-.93-.38-1.81-.7-2.63-.97l-.03-.07-.01-2.59-.02-5.77z" fill="#fec4b9"/><path d="m59.31 103.23c-.37-.43-.73-.81-1.09-1.16-1.91-1.87-4.72-2.45-7.23-1.52l-4.39 1.64-7.43 2.78h-.18c-9.28-13.87-11.34-27.52-11.34-27.52-3.99 1.97-8.56 5.04-12.85 9.84.03.31.64 7.27 4.18 15.61-3.32 3.67-6.74 10.34-3.62 21.02v.08h20.39 22.65 4.24v-.08c3.03-10.37-.11-16.96-3.33-20.69z" fill="#1ea6bc"/><path d="m64.44 38.35c3.03 1.2 4.38 5.16 3.03 8.83-1.17 3.18-3.97 5.1-6.67 4.78-.101-3.682.61-8.562 2.74-13.86.3.05.61.13.9.25z" fill="#f7b6ad"/><path d="m39 0c-20 0-25 18-25 29 0 3.08.16 6.16.45 9.1h.01 49.08c.3-2.94.46-6.02.46-9.1 0-11-5-29-25-29z" fill="#472d1c"/><path d="m63.54 38.1c-.51 5.3-1.47 10.18-2.74 13.86h-.01c-.54 1.59-1.14 2.96-1.79 4.04-.19.32-.4.65-.64.98-2.53 3.65-7.38 7.99-13.18 9.96-1.97.67-4.05 1.06-6.18 1.06-2.07 0-4.09-.37-6-1-5.91-1.95-10.85-6.38-13.4-10.07-.22-.32-.42-.63-.6-.93-.65-1.08-1.25-2.45-1.8-4.04-1.27-3.68-2.23-8.56-2.74-13.86.44-.32 12.3-8.76 11.85-22.67 0 0 8.02 5.61 17.07 6.63 9.05 1.03 17.63 3.85 20.16 16.04z" fill="#fec4b9"/><path d="m38.99 104.97c4.54 6.79 10.8 13.63 19.41 18.95v.08h-22.65v-.08c-8.65-5.84-13.76-13.93-16.77-21.02-3.54-8.34-4.15-15.3-4.18-15.61 4.29-4.8 8.86-7.87 12.85-9.84 0 0 2.06 13.65 11.34 27.52z" fill="#e7f2f1"/><path d="m52.279 29.54c-.198 0-.399-.059-.574-.182-1.813-1.275-4.419-.848-4.444-.843-.543.095-1.061-.271-1.154-.814-.095-.543.267-1.06.81-1.156.138-.025 3.438-.582 5.939 1.177.452.317.561.941.243 1.393-.196.277-.505.425-.82.425z" fill="#472d1c"/><path d="m25.721 29.54c-.314 0-.624-.148-.819-.425-.317-.452-.209-1.076.243-1.393 2.501-1.76 5.801-1.203 5.939-1.177.544.096.907.615.811 1.159-.095.543-.606.904-1.156.812-.046-.008-2.637-.426-4.443.843-.176.122-.377.181-.575.181z" fill="#472d1c"/><path d="m39 42.71c-1.079 0-2.18-.158-3.273-.468-.531-.151-.84-.704-.688-1.235.151-.532.701-.84 1.235-.688 1.83.521 3.623.521 5.453 0 .531-.15 1.084.157 1.235.688s-.157 1.084-.688 1.235c-1.094.31-2.195.468-3.274.468z" fill="#ea8d81"/><path d="m46.139 87.758c-.147 0-.296-.032-.438-.102-.494-.241-.701-.836-.462-1.332.132-.271 1.347-2.653 3.545-2.733l1.025-.035c1.436-.047 4.423-.146 4.866-.231.524-.187 1.053.104 1.236.623.183.521-.13 1.104-.651 1.286-.339.119-1.165.183-5.386.321l-1.019.034c-.852.031-1.617 1.202-1.818 1.609-.173.354-.529.56-.898.56z" fill="#f7b6ad"/><path d="m58.985 114.868c-2.696-1.943-4.943-4.286-6.548-6.185 1.602-.704 4.384-2.045 6.385-3.645.431-.346.501-.975.156-1.406-.346-.432-.974-.502-1.406-.156-2.033 1.626-5.086 3.015-6.436 3.589-.854-1.09-1.676-2.211-2.432-3.358-.303-.461-.923-.589-1.385-.285s-.589.924-.285 1.385c.926 1.406 1.935 2.786 2.993 4.098.001.001.002.002.002.003.001.002.003.003.004.005 1.681 2.111 4.394 5.138 7.782 7.58.177.127.382.188.584.188.311 0 .617-.145.813-.415.322-.45.222-1.075-.227-1.398z" fill="#0d87a3"/><path d="m33.002 67s5.796 2.306 12.18-.06l.006 5.025s-7.938.884-12.183-1.782z" fill="#f7b6ad"/><path d="m15.36 124v-.08c-3.12-10.68.3-17.35 3.62-21.02 0 0 .932 2.505 2.293 4.701 0 0-3.826 14.463 7.408 16.383z" fill="#1498b7"/><path d="m39 86.526c-.108 0-.217-.018-.321-.053l-.787-.267c-5.479-2.14-8.531-9.192-8.658-9.491-.217-.508.021-1.095.528-1.312.508-.215 1.096.021 1.312.527.028.066 2.856 6.581 7.504 8.396l.429.145.507-.164c4.605-1.802 7.42-8.311 7.448-8.376.217-.508.804-.745 1.312-.528.508.216.745.804.528 1.312-.127.299-3.18 7.352-8.615 9.476l-.877.286c-.102.033-.206.049-.31.049z" fill="#ffc05a"/><circle cx="39.027" cy="89.324" fill="#ef9d26" r="3.798"/><path d="m71.128 69.99c-.553 0-1-.447-1-1v-8.264c0-.552.447-1 1-1s1 .448 1 1v8.264c0 .553-.447 1-1 1z" fill="#ffc05a"/><path d="m74.464 76.495c-.553 0-1-.447-1-1v-17.118c0-.552.447-1 1-1s1 .448 1 1v17.118c0 .553-.447 1-1 1z" fill="#ffc05a"/><path d="m75.048 57.466-3.479-2.501c-3.346-2.409-6.006-.944-6.979.208l-1.593 2.105h-4.594v2h4.594l1.593 2.105c.012.015.022.029.035.043.566.669 1.759 1.466 3.349 1.466 1.048 0 2.268-.346 3.595-1.3l3.479-2.502c.261-.188.416-.49.416-.812s-.155-.624-.416-.812z" fill="#f9b132"/><g fill="#543927"><path d="m51.285 36.301c-.367.157-.782.223-1.185.242-.004-.011-.006-.022-.01-.033.245-.171.473-.367.665-.616.337-.438.254-1.066-.184-1.402-.438-.337-1.065-.255-1.402.184-.19.248-.441.344-.709.38-.156-.035-.316-.056-.483-.056-1.24 0-2.246 1.006-2.246 2.246s1.006 2.246 2.246 2.246c.752 0 1.413-.373 1.821-.94.021 0 .041.003.063.003.736 0 1.516-.118 2.211-.417.508-.217.743-.805.525-1.313-.216-.507-.809-.742-1.312-.524z"/><path d="m30.023 35c-.166 0-.327.021-.483.055-.267-.036-.518-.132-.709-.38-.337-.438-.963-.521-1.402-.184-.438.336-.521.964-.184 1.402.191.249.42.445.665.615-.003.008-.005.016-.007.024-.423-.015-.846-.08-1.173-.227-.507-.225-1.097.002-1.321.505-.226.504.001 1.096.505 1.321.648.29 1.431.406 2.186.406.03 0 .058-.004.088-.005.406.578 1.076.958 1.836.958 1.24 0 2.246-1.006 2.246-2.246s-1.007-2.244-2.247-2.244z"/></g></g></svg>