<svg id="Flat" enable-background="new 0 0 78.22 123.88" height="512" viewBox="0 0 78.22 123.88" width="512" xmlns="http://www.w3.org/2000/svg"><g><path d="m19.6 56.81v3.52c0 5.75 5.62 10.62 13.41 12.31l12.2-.05c7.67-1.73 13.19-6.57 13.19-12.26v-3.44l-.04-.03z" fill="#472d1c"/><path d="m63.54 37.97c.11-1.53.324-3.04.044-4.55-.4-2.04-.922-4.51-1.711-6.54-.8-2.03-2.192-3.66-3.472-5.49h-.01v.01l-7.752-6.35-8.17-2.383-3.549-.757s-20.622-3.243-24.29 21.99l-.06.43c-.16 1.21-.2 2.43-.11 3.64z" fill="#472d1c"/><path d="m17.2 51.84c-2.7.32-5.51-1.6-6.68-4.78-.78-2.12-.66-4.34.17-6.06.6-1.26 1.58-2.26 2.86-2.77.3-.12.6-.2.9-.25h.01z" fill="#f7b6ad"/><path d="m23.91 79.42c-.92.58-1.86 1.23-2.81 1.94l-.51.39s-21.06 6.43-16.95 25.46c-.6 1.81-1.14 3.71-1.64 5.72v.01c.22.29 4.38 5.87 12.92 6.71h.01c.32-1.2.72-2.55 1.23-3.88.51-1.35 1.12-2.7 1.84-3.87v7.4l.04 2.29h41.88l.03-2.29-.02-8.09c.83 1.33 1.53 2.95 2.11 4.57.48 1.34.88 2.68 1.2 3.88l.05-.01c8.54-.84 12.71-6.42 12.93-6.71 0-.01 0-.01 0-.01-.5-2.01-1.04-3.91-1.64-5.72 4.1-19.03-16.95-25.46-16.95-25.46l-.51-.39c-.98-.74-1.95-1.4-2.91-1.99z" fill="#ea728c"/><path d="m59.95 119.3h-.03-6.4-7.26-7.26-7.26-7.26-6.44-.04v4.58h6.48 7.26 7.26 7.26 7.26 6.44z" fill="#c43b58"/><g fill="#fec4b9"><path d="m14.92 119.65c-.63 2.4-.92 4.23-.92 4.23h-14c.49-3.95 1.17-7.59 2-10.94.22.29 5.617 3.6 12.92 6.71z"/><path d="m78.22 123.88h-14s-.33-1.82-.98-4.22l.05-.01c7.901-3.749 12.71-6.42 12.93-6.71.83 3.35 1.51 6.99 2 10.94z"/><path d="m46.3 75.53c-.38-.13-.75-.26-1.11-.37l.01-.03.01-2.54.01-5.71-.02-.07-12.2.07.01 5.76.01 2.49.01.03c-.34.11-.69.22-1.05.35-2.36.83-5.14 2.06-8.07 3.91l3.13 4.87c.97 1.51 2.64 2.42 4.43 2.42h1.53 5.98.13 6.22 1.29c1.79 0 3.46-.91 4.43-2.42l3.13-4.87.03-.05c-2.87-1.81-5.6-3.02-7.91-3.84z"/></g><path d="m38.92 11.9c-16.07.04-22.43 11.72-24.29 22l-.06.43c-.16 1.21-.2 2.43-.11 3.64v.01c-.01 0-.01 0-.01 0-.3.05-.6.13-.9.25-1.28.51-2.26 1.51-2.86 2.77-.85-2.07-.5-4.31.75-6-1.83-1.1-3.06-3.06-3.06-5.31s1.23-4.21 3.06-5.32c-1.26-1.7-1.61-3.97-.73-6.04.89-2.08 2.81-3.45 4.94-3.78-.49-2.04.06-4.27 1.7-5.86s3.94-2.12 6.04-1.64c.34-2.07 1.75-3.93 3.89-4.79s4.49-.52 6.24.71c1.14-1.78 3.16-2.97 5.48-2.97s4.34 1.19 5.48 2.97c1.75-1.23 4.1-1.57 6.24-.71s3.55 2.72 3.89 4.79c2.1-.48 4.4.05 6.04 1.64s2.19 3.82 1.7 5.86c2.13.33 4.05 1.7 4.94 3.78.88 2.07.53 4.34-.73 6.04 1.83 1.11 3.06 3.07 3.06 5.32s-1.23 4.21-3.06 5.31c1.25 1.69 1.61 3.94.74 6.01-.6-1.27-1.58-2.27-2.86-2.78-.29-.12-.6-.2-.9-.25 0-.01 0-.01 0-.01.11-1.53.01-3.06-.27-4.57-.4-2.04-.98-4.14-1.77-6.17-.8-2.03-1.82-4.01-3.1-5.84h-.01z" fill="#f48ca7"/><path d="m63.54 37.98c.3.05.61.13.9.25 1.28.51 2.26 1.51 2.86 2.78.83 1.72.95 3.93.17 6.05-1.17 3.18-3.97 5.1-6.67 4.78z" fill="#f7b6ad"/><path d="m63.54 37.97v.01c-.02.22-.04.44-.06.66-.54 5.04-1.47 9.67-2.68 13.2h-.01c-.54 1.59-1.14 2.95-1.79 4.04-.19.32-.4.65-.64.98-2.52 3.64-7.36 7.98-13.16 9.95-1.97.67-4.06 1.07-6.2 1.07-2.07 0-4.09-.37-6-1-5.91-1.95-10.85-6.38-13.4-10.07-.22-.32-.42-.63-.6-.93-.65-1.08-1.25-2.45-1.8-4.04-1.21-3.51-2.14-8.11-2.68-13.12-.03-.25-.05-.49-.06-.74v-.01c.29-.31 5.87-6.13 12.96-7.05 10.03-1.32 10.01-3.5 13.9-6.66.04 0 .09.01.13.01.74.03 1.5-.22 2.1-.79l2.01-2.58c.42.31.89.55 1.4.72l-1.1 3c-.44 1.8.93 3.53 2.78 3.53 1.86 0 3.22-1.73 2.78-3.53l-1.2-2.97c.53-.17 1.03-.4 1.47-.72l1.88 2.25c.18.17.37.32.58.43.03.02.07.04.1.06 4.63 2.98 7.5 8.27 9.29 14.3z" fill="#fec4b9"/><path d="m56.35 18.36c1.37.41 2.18 1.71 2.04 3.03v.01c-.03.39-.16.78-.37 1.14-.78 1.36-2.45 1.79-3.77 1.13-.03-.02-.07-.04-.1-.06-.21-.11-.4-.26-.58-.43l-1.88-2.25c-.44.32-.94.55-1.47.72l1.2 2.97c.44 1.8-.92 3.53-2.78 3.53-1.85 0-3.22-1.73-2.78-3.53l1.1-3c-.51-.17-.98-.41-1.4-.72l-2.01 2.58c-.6.57-1.36.82-2.1.79-.04 0-.09-.01-.13-.01-.89-.09-1.73-.57-2.23-1.42-.92-1.61-.1-3.66 1.68-4.18l2.88-.5c-.14-.47-.24-.96-.24-1.47 0-.07.02-.14.02-.21l-2.83-.39c-1.78-.52-2.6-2.58-1.68-4.18v-.01c.94-1.6 3.12-1.91 4.46-.63l1.5 1.8c.43-.45.94-.82 1.51-1.09l-.87-2.14c-.44-1.81.93-3.54 2.78-3.54 1.86 0 3.22 1.73 2.78 3.54l-.71 1.93c.62.22 1.18.54 1.66.96l1.37-1.76c1.34-1.28 3.53-.96 4.45.64.93 1.61.11 3.66-1.67 4.18l-2.35.41c.01.16.05.32.05.49 0 .45-.08.88-.19 1.31z" fill="#894687"/><path d="m39 119.3h7.26v4.58h-7.26z" fill="#f48ca7"/><path d="m53.52 119.3h6.44v4.58h-6.44z" fill="#f48ca7"/><path d="m24.48 119.3h7.26v4.58h-7.26z" fill="#f48ca7"/><path d="m39 45.59c-1.078 0-2.179-.157-3.273-.468-.531-.15-.84-.703-.689-1.234.15-.531.703-.843 1.235-.689 1.833.52 3.621.52 5.454 0 .532-.153 1.085.158 1.235.689.151.531-.158 1.084-.689 1.234-1.094.311-2.195.468-3.273.468z" fill="#ea8d81"/><path d="m52.279 33.42c-.199 0-.399-.059-.574-.182-1.801-1.267-4.414-.85-4.441-.844-.544.099-1.063-.267-1.159-.811s.267-1.063.811-1.158c.137-.024 3.438-.583 5.939 1.176.452.318.561.941.243 1.394-.195.278-.505.425-.819.425z" fill="#472d1c"/><path d="m66.91 113.992c-.012-1.499-.153-5.99-1.408-7.736-.323-.448-.948-.551-1.396-.228-.448.322-.55.947-.228 1.396.792 1.101 1.053 4.869 1.032 6.986-.001.138.025.27.075.39-.892.339-1.863.664-2.925.97l-.02.01c.48 1.34.88 2.68 1.2 3.88l.05-.01c8.54-.84 12.71-6.42 12.93-6.71 0-.01 0-.01 0-.01-.5-2.01-1.04-3.91-1.64-5.72 0 0-.413 1.559-2.532 3.496.118-2.247.083-7.783-2.835-10.587-.398-.383-1.031-.37-1.414.027-.382.398-.37 1.031.028 1.414 2.921 2.808 2.167 9.826 2.159 9.897-.03.263.05.511.198.708z" fill="#d14b62"/><path d="m14.303 107.423c.322-.449.218-1.074-.23-1.396-.45-.323-1.074-.22-1.396.229-1.065 1.487-1.333 5.273-1.392 7.71-1.295-.596-2.382-1.213-3.278-1.823.138-.194.215-.432.186-.686-.008-.071-.762-7.09 2.159-9.897.398-.382.411-1.016.028-1.413-.383-.4-1.016-.412-1.414-.028-2.905 2.791-2.953 8.286-2.837 10.553.155.142.318.287.491.433-2.519-2.121-2.982-3.895-2.982-3.895-.6 1.81-1.14 3.71-1.64 5.72v.01c.22.29 4.38 5.87 12.92 6.71h.01c.32-1.2.72-2.55 1.23-3.88-1.049-.302-2.007-.625-2.888-.96.027-2.971.351-6.436 1.033-7.387z" fill="#d14b62"/><path d="m33.002 66.88s5.796 2.306 12.18-.06l.006 5.025s-7.938.884-12.183-1.782z" fill="#f7b6ad"/><path d="m59.95 119.3.005 2.329c-.003-2.616-.005-7.2.005-12.092.001-.551-.351-1.017-.901-1.041h-.053c-.553-.024-1.048.407-1.044.961.033 4.478-.983 7.637-2.226 9.844h4.184.03z" fill="#d14b62"/><path d="m51.328 123.88h2.192v-1.655c-1.209 1.178-2.193 1.629-2.192 1.655z" fill="#b72e4f"/><path d="m59.96 123.88-.005-2.251c.002 1.385.004 2.227.005 2.251z" fill="#f48ca7"/><path d="m59.95 119.3h-.03-4.184c-.716 1.271-1.503 2.229-2.216 2.925v1.655h6.44c-.001-.024-.003-.866-.005-2.251z" fill="#ea728c"/><path d="m18.001 119.3-.005 2.329c.003-2.616.005-7.2-.005-12.092-.001-.551.351-1.017.901-1.041h.053c.553-.024 1.048.407 1.044.961-.033 4.478.983 7.637 2.226 9.844h-4.184-.03z" fill="#d14b62"/><path d="m26.672 123.88h-2.192v-1.655c1.209 1.178 2.193 1.629 2.192 1.655z" fill="#ea728c"/><path d="m17.991 123.88.005-2.251c-.002 1.385-.004 2.227-.005 2.251z" fill="#f48ca7"/><path d="m18.001 119.3h.03 4.184c.716 1.271 1.552 2.229 2.265 2.925v1.655h-6.489c.001-.024.003-.866.005-2.251z" fill="#b72e4f"/><path d="m47.278 75.321c-.109-.54-.633-.894-1.176-.781-.541.108-.892.635-.785 1.176.019.095 1.795 9.67-5.834 21.186l-.314.451-.324-.534c-7.63-11.516-5.903-21.012-5.885-21.106.106-.541-.246-1.066-.787-1.173-.546-.115-1.068.244-1.176.786-.083.417-1.933 10.354 6.18 22.599l1.967-.023 2.005.106c8.115-12.248 6.214-22.266 6.129-22.687z" fill="#894687"/><circle cx="39" cy="102.064" fill="#752c73" r="4.794"/><path d="m51.286 39.181c-.368.157-.783.224-1.186.242-.004-.011-.006-.022-.01-.032.245-.171.473-.367.664-.616.336-.438.254-1.066-.184-1.402-.438-.337-1.066-.254-1.402.184-.19.247-.44.344-.706.38-.156-.034-.318-.056-.485-.056-1.24 0-2.246 1.006-2.246 2.246s1.006 2.246 2.246 2.246c.752 0 1.413-.373 1.821-.94.022 0 .041.003.063.003.736 0 1.515-.118 2.211-.415.508-.218.744-.806.526-1.313-.216-.508-.806-.743-1.312-.527z" fill="#543927"/><path d="m30.023 37.88c-.167 0-.328.021-.484.055-.267-.036-.517-.133-.707-.38-.336-.438-.965-.52-1.402-.184-.438.336-.521.964-.184 1.402.191.249.419.444.665.615-.003.008-.005.016-.007.024-.423-.015-.846-.079-1.175-.226-.505-.228-1.096.002-1.32.506-.225.504.001 1.096.506 1.32.649.29 1.431.405 2.186.405.03 0 .058-.004.088-.005.406.578 1.075.958 1.836.958 1.24 0 2.246-1.006 2.246-2.246s-1.008-2.244-2.248-2.244z" fill="#543927"/></g></svg>