<svg id="Flat" enable-background="new 0 0 81.81 124.008" height="512" viewBox="0 0 81.81 124.008" width="512" xmlns="http://www.w3.org/2000/svg"><g><path d="m48.55 74.06h1.87c.63.03 1.27 0 1.92-.1 2.11-.33 3.93-1.34 5.26-2.76l.42-.57.49-.02c.67.04 1.35.01 2.03-.09 3.73-.59 6.56-3.29 7.39-6.61l.27-1.19.5-.18c3.46-1.61 5.86-5.11 5.86-9.18 0-3.37-1.65-6.36-4.18-8.19l-.53-.4h-57.96l-.53.4c-2.53 1.83-4.18 4.82-4.18 8.19 0 4.07 2.4 7.57 5.86 9.18l.5.18.27 1.19c.83 3.32 3.66 6.02 7.39 6.61.68.1 1.36.13 2.03.09l.49.02.42.57c1.33 1.42 3.15 2.43 5.26 2.76.65.1 1.29.13 1.92.1h2.12z" fill="#3f2313"/><path d="m28.83 77.8c-10.08 5.2-23.37 17.44-26.96 46.2h14s.7-6.92 3.52-11.56l.48 11.56h21 21l.48-11.56c2.82 4.64 3.52 11.56 3.52 11.56h14 .26c-3.63-28.99-17.1-41.2-27.2-46.32z" fill="#ffc05a"/><path d="m47.13 66.91-.02 6.696h-6.24-5.99l-.01-6.606z" fill="#ffd7d2"/><path d="m48.55 75.78v-.1-1.62-1.97h-1.44-6.24-5.99-1.44v1.97 1.62l.01.1c-1.42.51-2.98 1.17-4.62 2.02.86 5.01 5.92 8.86 12.04 8.86 6.17 0 11.26-3.91 12.06-8.98-1.56-.79-3.03-1.41-4.38-1.9z" fill="#d6eae8"/><path d="m34.88 72.09h5.99v.78 13.79c-6.12 0-11.18-3.85-12.04-8.86 1.64-.85 3.2-1.51 4.62-2.02l-.01-.1v-1.62-1.97z" fill="#b8d3cf"/><path d="m19.39 112.44c-2.82 4.64-3.52 11.56-3.52 11.56h-14c3.59-28.76 16.88-41 26.96-46.2.86 5.01 5.92 8.86 12.04 8.86v6.64 9.7 9.7 11.28.02h-21z" fill="#f9b132"/><path d="m32.002 28.75-16.112 2.12c.05 2.45.19 4.88.43 7.23l.06-.01 48.93-.04.11.01c.24-2.33.38-4.75.43-7.18v-.01c-.107-.073-10.244-1.294-17.761-2.204-5.346-.647-10.748-.619-16.087.084z" fill="#3f2313"/><path d="m11.89 44.77c-.18-2.86 1.17-5.48 3.54-6.42.29-.12.59-.2.89-.25 1.573 5.113 2.499 9.999 2.75 13.86-2.7.32-5.51-1.6-6.68-4.78-.29-.8-.46-1.62-.5-2.41z" fill="#fec4b9"/><path d="m69.85 44.77c-.04.79-.21 1.61-.5 2.41-1.17 3.18-3.98 5.1-6.68 4.78-.34-4.638.787-9.418 2.75-13.86.3.05.6.13.89.25 2.37.94 3.72 3.56 3.54 6.42z" fill="#fec4b9"/><path d="m19.07 51.96c-1.27-3.68-2.23-8.56-2.75-13.86l.06-.01s5.54-2.62 9.05-7.22h15.41.13 15.15v.01c3.54 4.58 9.19 7.17 9.19 7.17l.11.01c.01.02.01.03 0 .04-.52 5.3-1.48 10.18-2.75 13.86-.54 1.59-1.15 2.96-1.8 4.04-2.28 3.8-7.44 8.75-13.74 10.91-1.99.69-4.1 1.09-6.26 1.09-2.07 0-4.09-.37-6-1-6.42-2.11-11.69-7.15-14-11-.65-1.08-1.26-2.45-1.8-4.04z" fill="#ffd7d2"/><path d="m47 104c.553 0 1-.447 1-1s-.447-1-1-1h-5.13v-7.7h5.13c.553 0 1-.447 1-1s-.447-1-1-1h-5.13v-20.21h-2v20.21h-5.13c-.553 0-1 .447-1 1s.447 1 1 1h5.13v7.7h-5.13c-.553 0-1 .447-1 1s.447 1 1 1h5.13v7.7h-5.13c-.553 0-1 .447-1 1s.447 1 1 1h5.13v10.28h2v-10.28h5.13c.553 0 1-.447 1-1s-.447-1-1-1h-5.13v-7.7z" fill="#5d5560"/><path d="m14.92 19.6 25.94-19.6h.08l15.24 11.51 25.63 19.36h-15.96-9.73-15.15-.13-15.41-9.54-15.89z" fill="#ffc05a"/><path d="m18.838 19.6c0 .552.448 1 1 1h27.482c.553 0 1-.448 1-1s-.447-1-1-1h-27.482c-.552 0-1 .448-1 1z" fill="#ef9d26"/><path d="m33.7 10.51c-.553 0-1 .448-1 1s.447 1 1 1h18.085c.552 0 1-.448 1-1 0-.552-.448-1-1-1z" fill="#ef9d26"/><path d="m43.597 42.318c-1.83.521-3.623.521-5.453 0-.535-.151-1.084.156-1.235.688-.151.531.157 1.084.688 1.235 1.094.311 2.194.468 3.273.468s2.18-.158 3.273-.468c.531-.151.84-.704.688-1.235-.15-.531-.703-.838-1.234-.688z" fill="#ea8d81"/><path d="m19.87 124-.669-15.435c-.024-.551.403-1.018.954-1.043.553-.025 1.021.402 1.046.955l1.794 8.415c.594 2.785 2.109 5.29 4.3 7.109h-7.425z" fill="#ef9d26"/><path d="m61.846 124.008.669-15.435c.024-.551-.403-1.018-.954-1.043-.553-.025-1.021.402-1.046.955l-1.794 8.415c-.594 2.785-2.109 5.29-4.3 7.109h7.425z" fill="#f9b132"/><g fill="#543927"><path d="m53.155 38.301c-.367.157-.782.223-1.185.242-.004-.011-.006-.022-.01-.033.245-.171.473-.367.665-.616.337-.438.254-1.066-.184-1.402-.438-.337-1.065-.255-1.402.184-.191.248-.442.344-.709.38-.156-.035-.316-.056-.483-.056-1.24 0-2.246 1.006-2.246 2.246s1.006 2.246 2.246 2.246c.752 0 1.413-.373 1.821-.94.021 0 .041.003.063.003.736 0 1.516-.118 2.211-.417.508-.217.743-.805.525-1.313-.217-.507-.808-.741-1.312-.524z"/><path d="m31.893 37c-.166 0-.327.021-.483.055-.267-.036-.518-.132-.709-.38-.336-.438-.963-.521-1.402-.184-.438.336-.521.964-.184 1.402.191.249.42.445.665.615-.003.008-.005.016-.007.024-.423-.015-.846-.08-1.173-.227-.508-.225-1.097.002-1.321.505-.226.504.001 1.096.505 1.321.648.29 1.431.406 2.186.406.03 0 .058-.004.088-.005.406.578 1.076.958 1.836.958 1.24 0 2.246-1.006 2.246-2.246s-1.007-2.244-2.247-2.244z"/></g></g></svg>