<svg id="Flat" enable-background="new 0 0 78 124" height="512" viewBox="0 0 78 124" width="512" xmlns="http://www.w3.org/2000/svg"><g><path d="m64.44 38.35c3.03 1.2 4.39 5.16 3.04 8.83-1.17 3.18-3.98 5.1-6.68 4.78.258-4.007 1.011-8.954 2.74-13.86h.01c.3.05.6.13.89.25z" fill="#fec4b9"/><path d="m17.2 51.96c-2.7.32-5.51-1.6-6.68-4.78-1.35-3.67.01-7.63 3.04-8.83.29-.12.59-.2.89-.25h.01c2.488 5.3 2.991 10.18 2.74 13.86z" fill="#fec4b9"/><path d="m14.17 25.47c.99-10.93 6.85-25.47 24.83-25.47s23.84 14.54 24.83 25.47z" fill="#d14b62"/><path d="m14.03 31.46c.06 2.25.2 4.48.42 6.64h.01c.51 5.3 1.47 10.18 2.74 13.86h.01c.54 1.59 1.14 2.96 1.79 4.04 2.31 3.85 7.58 8.89 14 11 1.91.63 3.93 1 6 1 2.13 0 4.21-.39 6.18-1.06 6.33-2.15 11.53-7.13 13.82-10.94.65-1.08 1.25-2.45 1.79-4.04h.01c1.27-3.68 2.23-8.56 2.74-13.86h.01c.22-2.16.36-4.39.42-6.64-16.235-16.936-32.893-16.461-49.94 0z" fill="#ffd7d2"/><path d="m53.74 56.3v.21c0 1.05-.84 1.89-1.89 1.89h-4.76c-1.05 0-1.9-.84-1.9-1.89v-.21c0-1.05.85-1.9 1.9-1.9h4.76c1.05 0 1.89.85 1.89 1.9z" fill="#82387d"/><path d="m32.81 56.3v.21c0 1.05-.85 1.89-1.9 1.89h-4.76c-1.05 0-1.89-.84-1.89-1.89v-.21c0-1.05.84-1.9 1.89-1.9h4.76c1.05 0 1.9.85 1.9 1.9z" fill="#82387d"/><path d="m32.81 48.66v.21c0 1.05-.85 1.9-1.9 1.9h-4.76c-1.05 0-1.89-.85-1.89-1.9v-.21c0-1.05.84-1.89 1.89-1.89h4.76c1.05 0 1.9.84 1.9 1.89z" fill="#d14b62"/><path d="m53.74 48.66v.21c0 1.05-.84 1.9-1.89 1.9h-4.76c-1.05 0-1.9-.85-1.9-1.9v-.21c0-1.05.85-1.89 1.9-1.89h4.76c1.05 0 1.89.84 1.89 1.89z" fill="#d14b62"/><path d="m25.053 78.845c-9.778 5.727-21.681 18.174-25.053 45.154h78c-3.42-27.362-15.614-39.776-25.468-45.394z" fill="#53b79a"/><path d="m76.88 117.05c-12.04.14-15.09-4.35-15.09-4.35h-.01l-1.31-8.44h-.01l-.23-1.5s3.43 3.69 13.76 3.5h.01c1.13 3.26 2.11 6.84 2.88 10.79z" fill="#ef9d26"/><path d="m71.6 100.29c-8.91.09-12.3-3.51-12.3-3.51l-.42-2.66c3.08-.46 5.88-1.04 8.3-1.72 1.57 2.33 3.06 4.94 4.42 7.89z" fill="#ef9d26"/><path d="m19.12 94.12c-3.08-.46-5.88-1.04-8.3-1.72.9-1.32 1.82-2.55 2.75-3.68 5.96 1.73 15.37 2.78 25.43 2.78 10.05 0 19.44-1.04 25.41-2.77l.02-.01c.94 1.13 1.86 2.36 2.75 3.68-2.42.68-5.22 1.26-8.3 1.72-5.83.89-12.68 1.38-19.88 1.38s-14.05-.49-19.88-1.38z" fill="#f48ca7"/><path d="m64 29c0 .82-.01 1.64-.03 2.46-3-3.34-7.36-5.96-12.45-7.59-3.85-1.24-8.12-1.91-12.52-1.91-4.51 0-8.89.71-12.83 2.02-4.96 1.63-9.21 4.21-12.14 7.48-.02-.82-.03-1.64-.03-2.46 0-1.11.05-2.3.17-3.53 6.25-4.95 15.16-7.8 24.83-7.8s18.58 2.85 24.83 7.8c.12 1.23.17 2.42.17 3.53z" fill="#f48ca7"/><path d="m63.97 31.46c-.06 2.25-.2 4.48-.42 6.64 0 0 0 0-.01 0-.43-.2-11.96-5.48-12.05-14.12l.03-.11c5.09 1.63 9.45 4.25 12.45 7.59z" fill="#ffc05a"/><path d="m61.78 112.7 1.77 11.3h-49.1l1.75-11.17 1.33-8.57h.01c4.19-.36 17.67-.82 21.45 7.31h.02c3.78-8.13 17.26-7.67 21.45-7.31h.01z" fill="#f48ca7"/><path d="m60.23 102.76.23 1.5c-4.19-.36-17.67-.82-21.45 7.31h-.02c-3.78-8.13-17.26-7.67-21.45-7.31l.21-1.4.94-5.98.43-2.76c5.83.89 12.68 1.38 19.88 1.38s14.05-.49 19.88-1.38l.42 2.66z" fill="#894687"/><path d="m55.51 80.48c1.25.86 2.52 1.84 3.79 2.94-4.9 2.13-12.28 3.37-20.3 3.37-8.01 0-15.39-1.24-20.29-3.36 1.26-1.11 2.53-2.08 3.78-2.95h.01c4.17 1.45 10.14 2.31 16.5 2.31s12.35-.86 16.51-2.31z" fill="#894687"/><path d="m45.24 75.37-.03-.07-.03-8.36-12.18.06.02 8.25.01.03c-2.92.93-6.63 2.51-10.53 5.2 4.17 1.45 10.14 2.31 16.5 2.31s12.35-.86 16.51-2.31c-3.78-2.61-7.39-4.17-10.27-5.11z" fill="#ffd7d2"/><path d="m14.03 31.46c2.93-3.27 7.18-5.85 12.14-7.48-.09 8.63-11.28 13.92-11.71 14.12-.01 0-.01 0-.01 0-.22-2.16-.36-4.39-.42-6.64z" fill="#ffc05a"/><path d="m19.12 94.12-.43 2.76c-.63.58-4.18 3.49-12.2 3.41l-.07-.03c1.35-2.94 2.83-5.54 4.4-7.86 2.42.68 5.22 1.26 8.3 1.72z" fill="#ef9d26"/><path d="m17.75 102.86-.21 1.4-.011.073-1.329 8.497h-.01c-.63.76-4.21 4.35-14.99 4.22l-.08-.02c.78-3.95 1.76-7.54 2.89-10.8l.08.03c9.32.17 13.02-2.81 13.66-3.4z" fill="#ef9d26"/><path d="m33.002 67s5.796 2.306 12.18-.06l.006 5.025s-7.938.884-12.183-1.782z" fill="#f7b6ad"/><path d="m41.728 42.318c-1.834.52-3.621.52-5.455 0-.527-.154-1.083.157-1.234.689-.15.531.157 1.084.689 1.234 1.094.311 2.194.468 3.272.468s2.179-.157 3.272-.468c.532-.15.84-.703.689-1.234-.15-.531-.706-.841-1.233-.689z" fill="#ea8d81"/><path d="m50.257 30.224c-2.492-1.76-5.8-1.202-5.94-1.178-.544.096-.907.614-.811 1.158.095.544.615.908 1.158.811.025-.002 2.648-.422 4.438.842.176.124.377.184.576.184.313 0 .623-.147.817-.423.32-.452.213-1.076-.238-1.394z" fill="#ef9d26"/><path d="m33.684 29.046c-.14-.023-3.45-.581-5.94 1.178-.451.318-.559.942-.239 1.394.194.275.504.423.817.423.199 0 .4-.06.576-.184 1.801-1.271 4.414-.845 4.441-.841.541.091 1.061-.269 1.155-.812.097-.544-.266-1.062-.81-1.158z" fill="#ef9d26"/><path d="m23.829 124h-9.379l2.96-18.906c.085-.546.597-.919 1.143-.834.546.085.919.597.834 1.143-1.671 9.932-1.486 17.666 4.442 18.597z" fill="#ea728c"/><path d="m54.179 124h9.379l-2.96-18.906c-.085-.546-.597-.919-1.143-.834-.546.085-.919.597-.834 1.143 1.671 9.932 1.485 17.666-4.442 18.597z" fill="#ea728c"/><g fill="#543927"><path d="m51.285 38.302c-.367.156-.782.222-1.185.241-.003-.011-.006-.021-.01-.032.245-.171.473-.367.665-.616.337-.438.254-1.065-.184-1.402s-1.065-.254-1.402.184c-.19.247-.44.343-.707.38-.157-.036-.318-.057-.485-.057-1.24 0-2.246 1.006-2.246 2.246s1.006 2.246 2.246 2.246c.752 0 1.413-.373 1.821-.94.022 0 .041.003.063.003.736 0 1.515-.118 2.211-.416.508-.217.743-.805.525-1.313-.216-.507-.809-.745-1.312-.524z"/><path d="m30.023 37c-.167 0-.328.021-.484.055-.267-.036-.518-.133-.707-.38-.337-.437-.963-.521-1.402-.184-.438.337-.521.965-.184 1.402.192.249.42.444.665.615-.003.008-.005.015-.007.023-.423-.015-.846-.079-1.175-.225-.504-.229-1.096.002-1.32.506-.226.504.001 1.096.506 1.32.648.29 1.431.405 2.186.405.03 0 .058-.004.087-.005.406.578 1.075.958 1.836.958 1.24 0 2.246-1.006 2.246-2.246s-1.007-2.244-2.247-2.244z"/></g></g></svg>