<svg id="Flat" enable-background="new 0 0 78 123.99" height="512" viewBox="0 0 78 123.99" width="512" xmlns="http://www.w3.org/2000/svg"><g><path d="m66.29 20.61-.1-.37c-1-3.06-2.45-5.96-4.37-8.57-4.2-5.76-11.29-11.53-22.82-11.67-11.53.14-18.62 5.91-22.82 11.67-3.58 4.89-5.55 10.78-5.94 16.83-.91 13.85-.42 53.17 1.56 62.49l.01.01 54.37-.02.01-.01c1.77-8.35 2.89-41.06 1.89-57.4l-.08-2.07-.654-5.154z" fill="#3f2313"/><path d="m39.105 87.288-6.075-12.018c-1.12.35-2.35.8-3.67 1.38-1.02.44-2.09.96-3.2 1.56l-3.51 2.15h-.01c-3.62 2.47-7.4 5.9-10.83 10.64-5.37 7.37-9.92 17.91-11.81 32.99h13.4 33.97 4 13.23 13.4c-1.89-15.1-6.45-25.65-11.82-33.01-3.36-4.62-7.03-8-10.57-10.45l-.04-.01-3.6-2.23v-.01c-1.08-.6-2.14-1.11-3.15-1.55-1.28-.56-2.48-1.01-3.58-1.37l-.03-.07v-.05h-.02z" fill="#1ea6bc"/><path d="m45.18 66.93.03 8.31h-.02l-6.01 16.4-.04.07-.11-.07-6-16.37-.01-.03-.02-8.25z" fill="#f7b6ad"/><path d="m63.45 33.81h.42c-.48 9.27-2.31 17.91-4.87 22.18-2.29 3.81-7.49 8.79-13.82 10.94-1.97.67-4.05 1.06-6.18 1.06-2.07 0-4.09-.37-6-1-6.42-2.11-11.69-7.15-14-11-2.06-3.42-3.65-9.66-4.44-16.79l1.95-2.08s6.3-8 6.64-12.26c0 0 17.28 3.67 27.4-8.68 0 0 2.09 6.9 6.53 8.9-.11.31-.15.65-.12 1.01.14 1.57 1.72 2.59 3.21 2.07l1.72-.89c.36-.19.81-.05 1.02.3.01.01.02.03.03.05.2.3.15.7-.11.95l-1.28 1.29c-.98 1.24-.55 3.06.88 3.72.33.15.67.22 1 .23z" fill="#fec4b9"/><path d="m51.37 99.52v24.47h-4v-.02-22.26l-.57-.36c.1-.26.16-.54.16-.84 0-.66-.29-1.26-.75-1.67.36.24.79.38 1.26.38.78 0 1.47-.4 1.88-.99z" fill="#c3ddda"/><path d="m48.82 76.73-6.21 17.19-3.47-2.21.04-.07 6.01-16.4h.02v.05l.03.07c1.1.36 2.3.81 3.58 1.37z" fill="#c3ddda"/><path d="m45.2 96.95c0 .66.29 1.26.75 1.67-.36-.24-.79-.38-1.26-.38-.65 0-1.23.27-1.65.71l-7.31-4.67-6.37-17.63c1.32-.58 2.55-1.03 3.67-1.38l6 16.37.11.07 3.47 2.21v.01l2.91 1.85c-.2.34-.32.74-.32 1.17z" fill="#c3ddda"/><g fill="#ffc05a"><path d="m53.34 77.83c-.47 0-.9.14-1.26.38-.04.02-.08.05-.11.08-.55.41-.9 1.07-.9 1.81 0 1.17.89 2.14 2.04 2.26.07.01.15.01.23.01 1.11 0 2.03-.8 2.23-1.85.03-.14.04-.28.04-.42 0-1.26-1.02-2.27-2.27-2.27z"/><path d="m53.11 82.38c-.08-.01-.15-.01-.23-.01-1.25 0-2.27 1.02-2.27 2.27 0 1.09.78 2.01 1.82 2.22.14.03.29.05.45.05 1.25 0 2.27-1.02 2.27-2.27 0-1.17-.9-2.14-2.04-2.26z"/><path d="m52.43 86.87c-.14-.03-.28-.04-.42-.04-1.25 0-2.27 1.02-2.27 2.27 0 .86.48 1.61 1.19 1.99-.31-.16-.66-.25-1.04-.25-1.26 0-2.27 1.02-2.27 2.27 0 .76.36 1.42.93 1.84-.32-.17-.69-.27-1.08-.27-.83 0-1.55.44-1.95 1.1-.2.34-.32.74-.32 1.17 0 .66.29 1.26.75 1.67-.36-.24-.79-.38-1.26-.38-.65 0-1.23.27-1.65.71-.39.41-.62.96-.62 1.56 0 .55.19 1.06.51 1.45.42.5 1.05.82 1.76.82.96 0 1.78-.59 2.11-1.43.1-.26.16-.54.16-.84 0-.66-.29-1.26-.75-1.67.36.24.79.38 1.26.38.78 0 1.47-.4 1.88-.99.24-.37.39-.81.39-1.28 0-.76-.37-1.42-.93-1.83.32.16.69.26 1.08.26 1.25 0 2.27-1.01 2.27-2.27 0-.86-.48-1.61-1.19-2 .31.17.66.26 1.04.26 1.25 0 2.27-1.02 2.27-2.27 0-1.11-.8-2.03-1.85-2.23z"/><path d="m39.11 100.21c-1.52 0-2.89.68-3.8 1.75.33-.39.52-.9.52-1.45 0-1.25-1.02-2.27-2.27-2.27-.46 0-.89.14-1.25.38.46-.42.74-1.01.74-1.67 0-1.26-1.02-2.27-2.27-2.27-.39 0-.76.1-1.09.27.57-.42.94-1.08.94-1.84 0-1.25-1.02-2.27-2.27-2.27-.37 0-.71.08-1.02.24.7-.39 1.17-1.13 1.17-1.98 0-1.25-1.02-2.27-2.28-2.27-.16 0-.31.02-.46.05-1.03.21-1.81 1.13-1.81 2.22 0 1.25 1.02 2.27 2.27 2.27.36 0 .7-.09 1.01-.24-.69.39-1.15 1.13-1.15 1.98 0 1.26 1.01 2.27 2.27 2.27.39 0 .76-.1 1.08-.27-.57.42-.93 1.08-.93 1.84 0 1.25 1.01 2.27 2.27 2.27.46 0 .89-.14 1.24-.38-.45.42-.73 1.01-.73 1.67 0 1.26 1.01 2.27 2.27 2.27.66 0 1.25-.28 1.67-.73-.72.87-1.16 1.98-1.16 3.2 0 2.79 2.26 5.04 5.04 5.04 2.79 0 5.04-2.25 5.04-5.04 0-1.26-.46-2.41-1.23-3.29-.92-1.07-2.28-1.75-3.81-1.75z"/><path d="m25.77 86.87c1.06-.19 1.87-1.12 1.87-2.23 0-1.25-1.02-2.27-2.28-2.27-.08 0-.15 0-.23.01-1.14.12-2.04 1.09-2.04 2.26 0 1.25 1.02 2.27 2.27 2.27.14 0 .28-.01.41-.04z"/><path d="m24.91 82.37c.08 0 .15 0 .22-.01 1.15-.11 2.05-1.08 2.05-2.26 0-.79-.4-1.49-1.02-1.89-.35-.24-.79-.38-1.25-.38-1.25 0-2.27 1.01-2.27 2.27 0 .09.01.18.01.26.14 1.13 1.1 2.01 2.26 2.01z"/></g><path d="m57.08 25.08c.36-1.07 1.45-1.8 2.65-1.62l1.91.51c.38.1.77-.1.92-.47l.01-.01c.14-.35.02-.75-.3-.95l-1.75-1.12c-.53-.46-.81-1.09-.84-1.72-.03-.79.31-1.59 1.03-2.1 1.29-.91 3.08-.37 3.66 1.09l.45 1.67c.11.41.52.65.93.56l.09-.02c.19-.04.34-.14.45-.29.09-.12.15-.27.16-.43l.08-1.83c.31-1.55 1.98-2.4 3.41-1.74s1.86 2.48.88 3.71l-.84.85c-.29.29-.31.75-.03 1.06.05.06.11.13.16.2.23.28.63.35.95.18l1.14-.59c1.49-.51 3.07.51 3.21 2.08.15 1.57-1.22 2.86-2.77 2.63l-.99-.27c-.37-.09-.76.08-.91.43-.04.1-.08.19-.13.28-.17.35-.04.78.29.99l.95.61c1.19 1.04 1.1 2.91-.19 3.82-1.28.91-3.08.37-3.66-1.09l-.37-1.37c-.09-.35-.41-.58-.77-.58h-.18c-.42.01-.75.34-.77.75l-.07 1.54c-.24 1.18-1.28 1.97-2.39 1.97-.01 0-.01 0-.02 0-.33-.01-.67-.08-1-.23-1.43-.66-1.86-2.48-.88-3.72l1.28-1.29c.26-.25.31-.65.11-.95-.01-.02-.02-.04-.03-.05-.21-.35-.66-.49-1.02-.3l-1.72.89c-1.49.52-3.07-.5-3.21-2.07-.03-.36.01-.7.12-1.01z" fill="#ea728c"/><path d="m33.002 66.99s5.796 2.306 12.18-.06l.006 5.025s-7.938.884-12.183-1.782z" fill="#dfa3a5"/><path d="m12.396 123.99c-1.001-11.65 2.79-22.413 2.952-22.867.186-.52.757-.791 1.278-.604.52.186.791.758.605 1.278-.033.092-1.234 2.685-.954 10.499.091 2.54.424 5.065.943 7.552l.865 4.142z" fill="#1498b7"/><path d="m65.603 123.99c1.027-11.684-2.789-22.412-2.952-22.867-.186-.52-.758-.791-1.278-.604-.52.186-.791.758-.605 1.278.039.107 1.998 17.789-1.876 22.193h4.7z" fill="#1498b7"/><path d="m52.279 29.53c-.199 0-.399-.059-.574-.182-1.801-1.267-4.414-.85-4.441-.844-.544.099-1.063-.267-1.159-.811s.267-1.063.811-1.158c.137-.025 3.438-.584 5.939 1.176.452.318.561.941.243 1.394-.195.278-.505.425-.819.425z" fill="#3f2313"/><path d="m39 42.7c-1.078 0-2.179-.157-3.273-.468-.531-.15-.84-.703-.689-1.234.15-.531.703-.843 1.235-.689 1.833.52 3.621.52 5.454 0 .532-.153 1.085.158 1.235.689.151.531-.158 1.084-.689 1.234-1.094.311-2.195.468-3.273.468z" fill="#ea8d81"/><path d="m51.286 36.291c-.368.157-.783.223-1.186.242-.003-.01-.006-.021-.01-.032.245-.171.473-.367.664-.616.336-.438.254-1.066-.184-1.402-.438-.337-1.066-.255-1.402.184-.19.248-.441.343-.708.379-.156-.034-.317-.055-.483-.055-1.24 0-2.246 1.006-2.246 2.246s1.006 2.246 2.246 2.246c.752 0 1.413-.373 1.821-.94.022 0 .041.003.063.003.736 0 1.515-.118 2.211-.415.508-.218.744-.806.526-1.313-.216-.508-.806-.744-1.312-.527z" fill="#543927"/><path d="m30.023 34.99c-.167 0-.328.021-.484.055-.267-.036-.517-.133-.707-.38-.336-.438-.965-.521-1.402-.184-.438.336-.521.964-.184 1.402.191.249.419.444.665.615-.003.008-.005.016-.007.024-.423-.015-.846-.079-1.175-.226-.505-.227-1.096.001-1.32.506-.225.504.001 1.096.506 1.32.649.29 1.431.405 2.186.405.03 0 .058-.004.088-.005.406.578 1.075.958 1.836.958 1.24 0 2.246-1.006 2.246-2.246s-1.008-2.244-2.248-2.244z" fill="#543927"/></g></svg>