<?xml version="1.0" standalone="no"?>
<!DOCTYPE svg PUBLIC "-//W3C//DTD SVG 20010904//EN"
 "http://www.w3.org/TR/2001/REC-SVG-20010904/DTD/svg10.dtd">
<svg version="1.0" xmlns="http://www.w3.org/2000/svg"
 width="700.000000pt" height="700.000000pt" viewBox="0 0 700.000000 700.000000"
 preserveAspectRatio="xMidYMid meet">
<metadata>
Created by potrace 1.14, written by Peter Selinger 2001-2017
</metadata>
<g transform="translate(0.000000,700.000000) scale(0.100000,-0.100000)"
fill="#000000" stroke="none">
<path d="M3435 5828 c-144 -16 -304 -93 -412 -198 -67 -66 -83 -87 -235 -300
-60 -85 -257 -361 -436 -614 -180 -252 -347 -487 -372 -523 -25 -35 -112 -158
-195 -274 -82 -115 -157 -220 -165 -233 -8 -13 -23 -34 -33 -47 -10 -13 -171
-240 -358 -504 -188 -264 -354 -498 -370 -519 -16 -22 -27 -41 -25 -43 6 -6
492 181 626 240 586 259 1119 665 1525 1161 88 108 226 294 345 465 72 103
174 247 180 254 3 4 51 -59 106 -140 54 -82 101 -150 104 -153 7 -6 316 -460
525 -770 76 -113 145 -213 153 -222 17 -20 19 -20 -63 -23 -287 -11 -574 -83
-823 -208 -110 -54 -266 -147 -282 -167 -3 -3 -21 -17 -40 -30 -19 -13 -37
-27 -40 -30 -3 -3 -21 -18 -40 -34 -97 -79 -223 -212 -317 -336 -10 -13 179
-15 1683 -15 1254 0 1693 3 1690 11 -2 6 -66 101 -142 210 -76 110 -167 242
-203 294 -36 52 -103 149 -149 215 -45 66 -178 258 -295 428 -117 169 -277
401 -356 515 -79 114 -183 263 -230 332 -88 128 -242 351 -328 475 -27 39
-114 164 -194 280 -79 115 -170 237 -201 270 -169 182 -383 261 -633 233z"/>
<path d="M323 2199 c-46 -9 -79 -34 -91 -66 -14 -41 -14 -222 1 -263 7 -21 25
-42 47 -54 33 -20 51 -21 292 -21 142 0 258 -2 259 -5 4 -18 5 -137 1 -147 -5
-15 -491 -17 -493 -2 -1 5 -2 23 -3 39 0 17 -4 30 -9 31 -4 1 -37 -4 -73 -11
l-67 -13 6 -55 c7 -66 31 -102 78 -119 44 -15 568 -17 622 -2 51 14 74 42 84
102 11 68 0 237 -17 264 -28 44 -51 48 -330 53 l-265 5 -1 73 c0 39 2 72 5 73
8 1 411 1 438 0 17 -1 21 -7 19 -31 -1 -17 0 -34 3 -38 3 -5 36 -2 74 6 l67
15 0 41 c0 50 -30 102 -68 118 -30 12 -525 19 -579 7z"/>
<path d="M1430 1853 l0 -353 80 0 c57 0 80 4 81 13 0 6 2 68 2 137 l2 125 245
0 c170 1 257 5 283 14 58 20 70 53 72 193 1 136 -10 175 -58 203 -30 18 -55
20 -369 20 l-338 1 0 -353z m593 218 c11 -11 18 -125 9 -148 -8 -22 -64 -29
-252 -28 l-185 1 0 89 c-1 63 3 92 12 95 25 10 405 2 416 -9z"/>
<path d="M2626 2193 c-76 -22 -80 -36 -82 -317 -2 -268 5 -317 49 -350 27 -20
41 -21 362 -24 379 -3 402 -1 436 55 22 35 22 45 23 287 0 289 -5 314 -62 342
-33 17 -70 18 -359 19 -240 1 -333 -2 -367 -12z m622 -336 l-3 -222 -267 -1
-268 -1 0 33 c-1 19 -1 72 -1 119 0 47 0 132 1 189 l0 104 270 0 270 1 -2
-222z"/>
<path d="M3870 1853 l0 -353 80 0 79 0 3 132 3 133 76 1 77 0 69 -65 c39 -36
103 -96 142 -133 l73 -68 116 0 c136 0 143 -18 -61 148 -76 61 -137 112 -135
113 2 0 36 3 76 5 83 4 116 17 145 56 17 23 20 43 20 162 0 147 -7 168 -60
203 -25 16 -60 18 -365 19 l-338 1 0 -354z m545 228 c51 -2 57 -12 58 -90 2
-107 8 -105 -235 -105 l-203 0 -3 89 c-2 48 -1 93 1 99 4 9 202 13 382 7z"/>
<path d="M4921 2190 c-8 -18 -7 -97 1 -106 3 -3 76 -5 162 -5 l156 0 0 -289 0
-290 83 0 83 0 0 288 0 287 94 2 c52 1 125 2 163 2 l67 1 0 63 0 64 -401 -1
c-351 0 -401 -2 -408 -16z"/>
<path d="M6140 2197 c-70 -18 -89 -56 -91 -187 -3 -133 13 -178 71 -203 15 -6
130 -11 279 -12 161 -2 256 -6 260 -13 5 -8 6 -102 2 -144 -1 -4 -112 -6 -248
-5 l-248 2 0 35 c0 32 -2 35 -30 34 -17 -1 -41 -4 -55 -7 -14 -3 -33 -6 -43
-6 -16 -1 -18 -8 -16 -48 3 -61 25 -107 58 -125 20 -10 98 -14 324 -15 406 -4
400 -7 404 195 3 147 -8 185 -67 214 -31 16 -67 18 -293 18 l-258 0 3 77 3 76
221 0 c121 0 225 -3 231 -6 6 -4 9 -19 7 -34 -4 -38 2 -43 39 -32 17 5 45 12
61 15 44 8 48 12 43 58 -12 112 -33 119 -362 121 -143 1 -276 -3 -295 -8z"/>
</g>
</svg>
