<svg width="86" height="72" viewBox="0 0 86 72" fill="none" xmlns="http://www.w3.org/2000/svg">
<path d="M79.9562 33.1828C79.5195 24.6437 76.0537 16.913 70.6224 11.0658L69.0402 9.46836C63.2484 3.98402 55.5908 0.484424 47.1323 0.044051L44.8481 0C34.4448 0.138993 25.1469 4.90211 18.8784 12.3466C13.7339 18.456 12 26.3714 12 35.0188C12 54.3608 26.1596 69 45.3165 69C58.8073 69 70.4994 62.2644 76.2354 50.9091C78.5788 46.2702 79.9282 41.0339 80 35.4866L79.9562 33.1828Z" fill="#FFAA5A"/>
<path d="M49.3965 63.189C30.1235 63.189 14.4998 47.425 14.4998 27.9791C14.4998 22.2276 15.8718 16.7947 18.2953 12C13.2149 18.0308 10.1106 25.8144 10 34.3231L10.0442 36.6417C10.4841 45.2253 13.9706 52.996 19.4338 58.8741L21.0253 60.48C26.8649 66.0063 34.5898 69.5287 43.1217 69.9593L45.4199 70C54.4443 69.8653 62.6388 66.2746 68.7613 60.481L70.3553 58.8723C72.5931 56.4643 74.4992 53.7387 76 50.7696C69.5989 58.368 60.0545 63.189 49.3965 63.189Z" fill="#FF8B57"/>
<path d="M79.953 33.0651C77.5364 32.7187 75.1401 32.6772 72.8052 32.6387C66.5999 32.5372 60.7244 32.4264 54.694 26.8884L70.5598 11.0286C70.0461 10.4811 69.5153 9.95047 68.9675 9.43701L53.1017 25.2967C47.5592 19.2677 47.448 13.3923 47.3461 7.1885C47.3083 4.8559 47.2666 2.46169 46.9202 0.0470255C46.3149 0.0158115 45.706 0 45.0929 0C44.9354 0 44.7785 0.00109045 44.6215 0.00313504C44.995 2.37009 45.054 4.74699 45.094 7.22585C45.1997 13.6116 45.3255 20.2071 51.5098 26.8881L45.0929 33.3027L21.2249 9.44341C20.6772 9.95687 20.1464 10.4875 19.6327 11.0351L43.5007 34.8943L37.105 41.2876C30.434 35.1399 23.8498 35.0145 17.4731 34.9096C16.7529 34.8979 16.0419 34.8846 15.3375 34.8627L15 35.8754L15.8596 37.1311C16.388 37.1435 16.9139 37.1522 17.4368 37.1608C23.6301 37.2621 29.495 37.3725 35.513 42.8788L25.2462 53.1419L25.5729 54.4969L26.9103 54.6618L37.1075 44.4684C42.616 50.4385 42.7903 56.2566 42.8922 62.3917L43.7866 64L45.1509 62.7546C45.1499 62.6945 45.1489 62.6343 45.148 62.5742C45.0422 56.1769 44.9156 49.57 38.6994 42.8771L45.0929 36.486L67.0084 58.3935L68.449 58.3605L68.9731 57.1741L46.6851 34.8943L53.1021 28.4798C59.7842 34.6592 66.3811 34.7854 72.7688 34.89C75.2489 34.9306 77.6284 34.9866 79.997 35.3605C79.999 35.2046 80 35.0507 80 34.8943C80.0001 34.2805 79.9843 33.671 79.953 33.0651Z" fill="#845252"/>
<path d="M27 54.4761C26.4511 54.0015 25.9184 53.509 25.401 53L20 58.4544C20.4936 58.9862 21.0034 59.5014 21.5297 60L27 54.4761Z" fill="#70393C"/>
<path d="M76.2665 60.6188L74.6278 58.9858C73.9676 59.4274 73.2915 59.8456 72.6016 60.2439L74.6221 62.2635C75.187 61.7338 75.7367 61.1837 76.2665 60.6188Z" fill="#70393C"/>
<path d="M16 37C15.7898 36.1708 15.6059 35.3329 15.4479 34.4828C13.606 34.4226 11.8018 34.3022 10.0033 34C10.001 34.1727 10 34.3444 10 34.5177C10 35.1996 10.0167 35.8766 10.0499 36.5499C12.0559 36.8555 14.0416 36.9521 16 37Z" fill="#70393C"/>
<path d="M50.5428 71.9959C50.1683 69.6144 50.1008 67.2319 50.0598 64.743C49.2752 64.6432 48.4984 64.5181 47.7305 64.3687C47.7317 64.4466 47.7329 64.5167 47.7343 64.5949C47.7732 66.9988 47.816 69.4657 48.1722 71.9542C48.7776 71.9846 49.387 71.9999 50 71.9999C50.181 71.9999 50.3624 71.9987 50.5428 71.9959Z" fill="#70393C"/>
</svg>
