<svg width="99" height="77" viewBox="0 0 99 77" fill="none" xmlns="http://www.w3.org/2000/svg">
<path d="M73.4475 45.2612C70.5601 47.8568 58.891 58.9971 50.4684 61.3739C45.3819 62.9487 43.2575 62.9341 42.5693 62.8467C42.4795 62.8321 42.3898 62.8175 42.3 62.7883L42.2851 62.7737L17.8847 38.3933L17.8548 38.3641C17.8548 38.3641 16.4186 27.3696 22.8366 17.0167C29.2546 6.66373 36.1364 9.52173 37.3182 13.4588C37.6773 14.6836 37.9166 15.9522 38.0214 17.2354C38.0214 17.3083 38.0363 17.3812 38.0363 17.4541C38.0513 17.6583 38.0662 17.8624 38.0812 18.052C38.1859 17.877 38.2907 17.7166 38.3954 17.527C38.4403 17.4541 38.4702 17.3958 38.5151 17.3229C39.0985 16.2584 39.5473 15.1502 39.8615 13.9837C40.5646 10.2216 38.156 6.98453 42.9732 2.94542C47.7905 -1.09368 59.6091 3.58701 64.0075 7.33449C68.4058 11.082 77.9655 19.2331 79.3718 28.2883C80.7631 37.3143 76.3348 42.6657 73.4475 45.2612Z" fill="#F34336"/>
<path opacity="0.15" d="M73.4475 45.2613C70.5602 47.8568 58.8911 58.9972 50.4684 61.374C45.3819 62.9488 43.2575 62.9342 42.5693 62.8467C42.4796 62.8322 42.3898 62.8176 42.3001 62.7884L42.2851 62.7738L41.3276 61.8114C42.1205 61.6073 43.0331 61.3594 44.0803 61.0386C52.503 58.6618 64.187 47.5215 67.0594 44.9259C69.9468 42.3304 74.375 36.979 72.9688 27.9384C71.5625 18.8978 62.0028 10.7321 57.6045 6.99919C55.1809 4.94319 50.5283 2.59555 46.0252 1.58942C51.6652 0.510379 60.3572 4.24327 63.9926 7.33457C68.3909 11.082 77.9506 19.2332 79.3568 28.2883C80.7631 37.3435 76.3348 42.6658 73.4475 45.2613Z" fill="black"/>
<path d="M17.8846 38.3936L42.285 62.774L33.234 70.8668C30.6458 73.1853 26.6364 73.0686 24.1829 70.6043L9.44701 55.7748C7.02343 53.3251 7.00847 49.4464 9.43205 46.9967L17.8846 38.3936Z" fill="#455A64"/>
<path opacity="0.15" d="M42.285 62.774L33.234 70.8668C31.5734 72.3541 29.2395 72.8936 27.0703 72.2958C28.0427 72.0333 28.9403 71.5375 29.6884 70.8668L37.1685 64.1738C38.0063 63.4302 38.0661 62.1616 37.3032 61.345C37.2882 61.3304 37.2732 61.3158 37.2583 61.3013L16.1343 40.1725L17.8846 38.3936L42.285 62.774Z" fill="black"/>
<path d="M17.2563 46.8651L14.3839 49.5335C13.4264 50.4376 13.3816 51.9249 14.3091 52.8581L14.3241 52.8727L27.1152 65.6462C28.0277 66.5503 29.5088 66.594 30.4663 65.7483L33.4583 63.109C34.4457 62.2341 34.5205 60.7468 33.6229 59.7844C33.608 59.7552 33.578 59.7407 33.5631 59.7115L20.6523 46.9234C19.7247 46.0048 18.2138 45.9756 17.2563 46.8651Z" fill="#E1ECF1"/>
<path d="M38.7844 18.4747C38.1261 19.5246 37.3482 20.487 36.4655 21.3473C32.3814 25.3281 27.2799 26.0717 27.0704 26.1009C27.0255 26.1009 26.9956 26.1155 26.9507 26.1155C26.487 26.1155 26.098 25.7364 26.113 25.2843C26.113 24.876 26.4271 24.5407 26.8311 24.4678C26.8759 24.4532 31.6184 23.7387 35.3136 20.137C36.0915 19.3788 36.7797 18.533 37.3482 17.6144C37.4828 17.3811 37.7372 17.2353 38.0214 17.2207C38.0214 17.2936 38.0364 17.3665 38.0364 17.4394C38.0513 17.6436 38.0663 17.8477 38.0812 18.0373C38.186 17.8623 38.2907 17.7019 38.3954 17.5123C38.4403 17.4394 38.4702 17.3811 38.5151 17.3082L38.545 17.3374C38.9041 17.5852 39.0237 18.081 38.7844 18.4747Z" fill="#D02E2B"/>
</svg>
