<svg width="86" height="75" viewBox="0 0 86 75" fill="none" xmlns="http://www.w3.org/2000/svg">
<path d="M19 62.4349L30.4396 42C31.0277 42.4372 31.7525 42.6904 32.5226 42.6904H42.701C43.455 42.6904 44.1661 42.4485 44.7476 42.0281L57 63.3666C56.416 63.7889 55.9628 64.3914 55.7287 65.1102L49.4276 71.0279C45.7157 72.3049 41.7326 73 37.5869 73C33.8457 73 30.2368 72.4346 26.8402 71.3858L20.2349 64.1503C20.0058 63.4467 19.5661 62.8557 19 62.4349Z" fill="#E2EDF2"/>
<path d="M67.9852 25.4208L46.2842 36C46.0728 35.2918 45.6452 34.6527 45.0334 34.1953L37.004 28.1924C36.4066 27.7458 35.7032 27.5232 35 27.524L37.8031 5.95428C38.5033 5.95342 39.2032 5.73067 39.798 5.2859L48.9103 2C55.867 4.38707 61.8647 8.93547 66.1563 14.8712L68 23.3117C67.7784 24.0141 67.7845 24.7486 67.9852 25.4208Z" fill="#CAE2E8"/>
<path d="M38 6.32602L37.9157 24.4781C37.204 24.4791 36.4927 35.5609 35.8881 36L30.4212 33.7561C29.8216 34.1915 29.3952 34.7936 29.173 35.463L11.9737 28.4911C12.2007 27.8076 7.23383 27.0539 7 26.3347L8.44964 15.4711C12.868 9.21958 19.2232 4.43857 26.6402 2L35.9633 5.6661C36.5704 6.10713 37.2853 6.32701 38 6.32602Z" fill="#E2EDF2"/>
<path d="M12.0843 28.1074L26.5386 32.492C26.3123 33.1922 32.4232 31.0212 32.6562 31.758L35.9937 42.1691C36.2199 42.8845 30.2976 45.8413 30.8567 46.2692L20.2308 63C19.65 62.5555 17.7308 61.2716 16.9704 61.2716L9.24375 58.3643C4.76068 52.2599 2.07673 44.6794 2 36.4562L5.10569 28.1074C5.70325 27.6613 11.8626 28.7934 12.0843 28.1074Z" fill="#FAFAFA"/>
<path d="M42.5951 8.35638C41.9811 8.78468 41.2587 8.99903 40.536 9C39.8102 9.00096 39.0842 8.78647 38.4677 8.35638L29 1.75251C32.5966 0.616664 36.4381 0 40.4299 0C44.4735 0 48.3633 0.632064 52 1.79623L42.5951 8.35638Z" fill="#0C475B"/>
<path d="M11.8284 28.5312C11.6125 29.227 11.1986 29.8527 10.6166 30.3052L2.00438 37C2.00329 36.8775 2 36.7557 2 36.6331C2 28.5757 4.37195 21.1126 8.40721 15L11.8358 26.2903C12.0628 27.0376 12.0489 27.8209 11.8284 28.5312Z" fill="#0C475B"/>
<path d="M40.0657 9L40 0C44.1936 0.00288744 48.2277 0.634411 52 1.79599L42.2216 8.35624C41.5833 8.78454 40.817 8.99918 40.0657 9Z" fill="#062842"/>
<path d="M55.7539 65.1032L49.578 71.0264C45.948 72.3018 42.0535 72.9969 38 73V42.6629H42.9849C43.724 42.6629 44.421 42.4208 44.9909 42L57 63.358C56.4276 63.7807 55.9834 64.3836 55.7539 65.1032Z" fill="#CAE2E8"/>
<path d="M16.5134 60.0898H28.2644C29.0466 60.0898 29.7827 60.351 30.38 60.8021C30.955 61.2361 31.4016 61.8456 31.6343 62.5713L35.0851 73.3355C27.5985 70.9881 21.1298 66.2895 16.5134 60.0898Z" fill="#0C475B"/>
<path d="M68.9546 26.7983L72.994 35.6204C72.9972 35.8223 73 36.0242 73 36.2268C73 44.4662 70.3034 52.0653 65.759 58.1679L58.288 62.3366C57.5441 62.3366 56.8425 62.5789 56.2688 63L44.1805 46.2795C44.7566 45.8565 38.7757 41.2426 39.0065 40.5223L42.2216 34.2473C42.446 33.5476 48.756 33.4226 48.553 32.7528L67.6892 25C67.9031 25.7057 68.3357 26.3425 68.9546 26.7983Z" fill="#A7D2D7"/>
<path d="M64.3366 29.275C63.7533 28.8221 63.3455 28.1892 63.1439 27.488C62.9526 26.8223 62.9468 26.095 63.1582 25.3997L66.3209 15C70.4151 20.8796 72.88 28.1342 73 36L64.3366 29.275Z" fill="#062842"/>
<path d="M58.0264 72.9661L61.3588 62.5711C61.5966 61.8296 62.0568 61.2084 62.6501 60.7729C63.2406 60.3393 63.9628 60.0898 64.7287 60.0898H75.4869C71.1007 65.9807 65.0416 70.5153 58.0264 72.9661Z" fill="#062842"/>
<path d="M50.8041 35.1146L47.182 46.2316C46.9125 47.0589 46.3906 47.752 45.718 48.2378C45.0483 48.7216 44.2295 49 43.3612 49H31.6396C30.7528 49 29.9181 48.7085 29.2407 48.2056C28.5888 47.7214 28.0824 47.0414 27.8187 46.2318L24.1965 35.1148C23.9248 34.2809 23.9416 33.4071 24.2054 32.6147C24.4637 31.8385 24.9591 31.1404 25.656 30.6356L35.1389 23.765C35.8414 23.256 36.6681 23.0011 37.495 23C38.3255 22.9989 39.1562 23.2538 39.8617 23.765L49.3447 30.6356C50.067 31.159 50.5721 31.8905 50.8218 32.7011C51.0588 33.4704 51.0659 34.3108 50.8041 35.1146Z" fill="#0C475B"/>
<path d="M47.3221 46.2316C47.0625 47.0589 46.5598 47.7519 45.9119 48.2378C45.2669 48.7216 44.4781 49 43.6417 49H38V23C38.797 23.0007 39.5939 23.2552 40.271 23.7646L49.4055 30.6352C50.1013 31.1587 50.5878 31.8901 50.8283 32.7007C51.0566 33.4701 51.0636 34.3106 50.8112 35.1144L47.3221 46.2316Z" fill="#062842"/>
</svg>
