<svg width="93" height="80" viewBox="0 0 93 80" fill="none" xmlns="http://www.w3.org/2000/svg">
<path d="M87 29.2994C85.7901 39.7574 81.8307 51.0201 73.4038 59.4038C65.0201 67.8307 53.7576 71.7898 43.2995 73L28.6498 58.3502L14 43.7004C15.2097 33.2423 19.1692 21.9799 27.5961 13.5962C35.9798 5.16934 47.2423 1.20987 57.7004 0L87 29.2994Z" fill="#D98156"/>
<path d="M87 29.5617C85.7974 39.9569 81.8617 51.1521 73.4854 59.4854C65.152 67.8617 53.9571 71.7971 43.5617 73L29 58.4381L72.438 15L87 29.5617Z" fill="#BF724C"/>
<path d="M37.303 53.4505L67.4502 23.3032L64.385 20.238L34.2377 50.3852L37.303 53.4505Z" fill="#FFEACC"/>
<path d="M37.3025 53.45L67.4497 23.3027L65.9384 21.7914L35.7911 51.9386L37.3025 53.45Z" fill="#FFDBB2"/>
<path d="M87.9688 25.3056C87.925 26.8825 87.7937 28.4593 87.6182 30.08C85.5158 30.6494 83.3695 31 81.0916 31C74.4334 31 68.4325 28.2842 64.0523 23.9477C59.7158 19.5675 57 13.5662 57 6.90842C57 4.63053 57.3506 2.48434 57.92 0.381798C59.5407 0.206441 61.1175 0.0751782 62.6944 0.0312293C71.8493 -0.275391 79.6023 1.69574 82.9313 5.06841C86.3043 8.39743 88.2754 16.1507 87.9688 25.3056Z" fill="#A66342"/>
<path d="M87.9687 25.2906C87.9248 26.8717 87.7933 28.4526 87.6174 30.0776C85.5104 30.6485 83.3594 31 81.0765 31C74.4038 31 68.3898 28.2771 64 23.9291L82.9202 5C86.3006 8.3378 88.276 16.1115 87.9687 25.2906Z" fill="#995B3D"/>
<path d="M45 67.0916C45 69.3692 44.6494 71.5157 44.08 73.6182C42.4593 73.7933 40.8825 73.9248 39.3056 73.9688C30.1507 74.2754 22.3977 72.3043 19.0687 68.9313C15.6957 65.6023 13.7246 57.8493 14.0312 48.6944C14.075 47.1175 14.2063 45.5404 14.3818 43.9197C16.4842 43.3503 18.6305 43 20.9084 43C27.5666 43 33.5675 45.7158 37.9477 50.0523C42.2842 54.4324 45 60.4334 45 67.0916Z" fill="#A66342"/>
<path d="M45 67.0765C45 69.3591 44.6485 71.5102 44.0776 73.6174C42.4526 73.7928 40.8716 73.9247 39.2905 73.9687C30.1113 74.276 22.3378 72.3006 19 68.9202L37.9291 50C42.277 54.3897 45 60.4038 45 67.0765Z" fill="#995B3D"/>
<path d="M61.3782 35.4093C60.5909 36.1969 59.2645 36.1969 58.4768 35.4093L55.5338 32.4665L52.5907 29.5233C51.8031 28.7358 51.8031 27.4093 52.5907 26.6218C53.4197 25.7927 54.7462 25.7927 55.5338 26.6218L58.4769 29.5649L61.3784 32.4665C62.2072 33.254 62.2072 34.5804 61.3782 35.4093Z" fill="#FFEACC"/>
<path d="M61.3269 35.3575C60.4746 36.2142 59.0387 36.2142 58.186 35.3575L55 32.1563L58.1861 29L61.327 32.1563C62.2243 33.013 62.2243 34.4558 61.3269 35.3575Z" fill="#FFDBB2"/>
<path d="M55.3802 41.3802C54.595 42.2066 53.2727 42.2066 52.4461 41.3802L49.5537 38.4876L46.6198 35.5536C45.7934 34.7273 45.7934 33.405 46.6198 32.6198C47.405 31.7934 48.7273 31.7934 49.5539 32.6198L55.3802 38.4461C56.2066 39.2727 56.2066 40.595 55.3802 41.3802Z" fill="#FFEACC"/>
<path d="M55.3269 41.3269C54.4744 42.2244 53.0385 42.2244 52.1409 41.3269L49 38.186L52.1858 35L55.3268 38.141C56.2244 39.0385 56.2244 40.4744 55.3269 41.3269Z" fill="#FFDBB2"/>
<path d="M49.4093 47.3782C48.5803 48.2073 47.2537 48.2073 46.4662 47.3782L40.6218 41.5338C39.7927 40.7463 39.7927 39.4198 40.6218 38.5907C41.409 37.8031 42.7355 37.8031 43.5232 38.5907L46.4662 41.5338L49.4093 44.4767C50.1969 45.2642 50.1969 46.5907 49.4093 47.3782Z" fill="#FFEACC"/>
<path d="M49.3575 47.3269C48.4557 48.2244 47.0128 48.2244 46.1561 47.3269L43 44.1858L46.1561 41L49.3575 44.1858C50.2142 45.0384 50.2142 46.4743 49.3575 47.3269Z" fill="#FFDBB2"/>
</svg>
