<svg xmlns="http://www.w3.org/2000/svg" viewBox="0 0 1000 1000"><defs><style>.cls-1{fill:#f34336;}.cls-2{opacity:0.15;}.cls-3{fill:#454546;}.cls-4{fill:#696a6d;}.cls-5{fill:#e1ecf1;}</style></defs><title>m1khan icons FINALArtboard 1 copy 9</title><g id="color"><path class="cls-1" d="M191.13,546.16c15,92,92,188.56,92,188.56s249.5,39.1,516.24-1.15c0,0,25.06-65,3.93-163.65-20.62,7-74.72,24.44-128.1,32.58-51.38,7.29-93.68,9.23-128.86,7.73-86.84-3.74-130.27-28.48-159.73-45.67C345.2,540.41,315.3,491,333.7,459.93c18.2-30.72,28.53-41.17,132.34-40.28l3.33,0c92.44,1,198.63-49.58,225.71-63.3q-4.65-5.7-9.55-11.44C578.6,230,432.58,232.28,339.45,276S171.58,417.39,191.13,546.16Z"/><path class="cls-2" d="M191.13,546.16c15,92,92,188.56,92,188.56s249.5,39.1,516.24-1.15c0,0,5.94-15.38,9.59-42.56C629.51,716.09,460,706.12,371.73,697.46a134.11,134.11,0,0,1-101.88-64.3c-21.61-36-45.74-84.52-53.43-131.84C208.66,450.16,215.78,403.9,233,364,198.57,412.46,180.25,474.5,191.13,546.16Z"/><path class="cls-3" d="M466,419.65l80.28,190.58c35.18,1.5,77.48-.44,128.86-7.73,53.38-8.14,107.48-25.55,128.1-32.58,5.59-1.91,8.72-3.06,8.72-3.06S778.66,442.68,701.62,353c0,0-2.3,1.24-6.54,3.39-27.08,13.72-133.27,64.29-225.71,63.3Z"/><path class="cls-4" d="M386.59,564.56c29.46,17.19,72.89,41.93,159.73,45.67L466,419.65c-103.81-.89-114.14,9.56-132.34,40.28C315.3,491,345.2,540.41,386.59,564.56Z"/><path class="cls-2" d="M386.59,564.56c29.46,17.19,72.89,41.93,159.73,45.67,35.18,1.5,77.48-.44,128.86-7.73,53.38-8.14,107.48-25.55,128.1-32.58,5.59-1.91,8.72-3.06,8.72-3.06s-2.37-8.83-7.31-23.47c-25.12,8.2-71.83,22.18-118,29.22-51.39,7.29-93.69,9.23-128.86,7.72C471,576.6,427.54,551.85,398.09,534.66c-33.19-19.35-59-54.95-58.42-84.32-2,2.94-3.92,6.14-6,9.59C315.3,491,345.2,540.41,386.59,564.56Z"/><circle class="cls-5" cx="394.06" cy="492.7" r="25.87"/></g></svg>