<?xml version="1.0" encoding="utf-8"?>
<!-- Generator: Adobe Illustrator 27.0.0, SVG Export Plug-In . SVG Version: 6.00 Build 0)  -->
<svg version="1.1" id="Layer_1" xmlns="http://www.w3.org/2000/svg" xmlns:xlink="http://www.w3.org/1999/xlink" x="0px" y="0px"
	 viewBox="0 0 605.6 489.6" style="enable-background:new 0 0 605.6 489.6;" xml:space="preserve">
<style type="text/css">
	.st0{fill:#FFEACC;}
	.st1{fill:#FFDBB2;}
	.st2{fill:#F34336;}
	.st3{opacity:0.15;enable-background:new    ;}
	.st4{fill:#454546;}
	.st5{fill:#696A6D;}
	.st6{fill:#E1ECF1;}
</style>
<rect x="125.4" y="231.2" transform="matrix(0.7071 -0.7071 0.7071 0.7071 -87.6287 286.8463)" class="st0" width="354.1" height="36"/>
<rect x="131.9" y="246.8" transform="matrix(0.7071 -0.7071 0.7071 0.7071 -90.3332 293.3851)" class="st1" width="354.1" height="17.8"/>
<path class="st0" d="M391.1,236.7c-6.8,6.8-18.3,6.8-25.1,0l-25.5-25.5L315,185.8c-6.8-6.8-6.8-18.3,0-25.1c7.2-7.2,18.6-7.2,25.5,0
	l25.5,25.5l25.1,25.1C398.2,218,398.2,229.5,391.1,236.7z"/>
<path class="st1" d="M391.1,236.7c-6.8,6.8-18.3,6.8-25.1,0l-25.5-25.5l25.5-25.1l25.1,25.1C398.2,218,398.2,229.5,391.1,236.7z"/>
<path class="st0" d="M340.5,287.3c-6.8,7.2-18.3,7.2-25.5,0l-25.1-25.1l-25.5-25.5c-7.2-7.2-7.2-18.6,0-25.5
	c6.8-7.2,18.3-7.2,25.5,0l50.6,50.6C347.7,269,347.7,280.4,340.5,287.3z"/>
<path class="st1" d="M340.5,287.3c-6.8,7.2-18.3,7.2-25.5,0l-25.1-25.1l25.5-25.5l25.1,25.1C347.7,269,347.7,280.4,340.5,287.3z"/>
<path class="st0" d="M289.9,337.8c-7.2,7.2-18.6,7.2-25.5,0l-50.6-50.6c-7.2-6.8-7.2-18.3,0-25.5c6.8-6.8,18.3-6.8,25.1,0l25.5,25.5
	l25.5,25.5C296.7,319.5,296.7,331,289.9,337.8z"/>
<path class="st1" d="M289.9,337.8c-7.2,7.2-18.6,7.2-25.5,0l-25.1-25.1l25.1-25.5l25.5,25.5C296.7,319.5,296.7,331,289.9,337.8z"/>
<g id="color">
	<path class="st2" d="M3,290.2C17.6,379.4,92.2,473,92.2,473S334,510.9,592.6,472c0,0,24.3-63,3.8-158.6
		c-20,6.8-72.4,23.7-124.2,31.6c-49.9,7.1-90.9,9-124.9,7.5c-84.2-3.6-126.2-27.6-154.8-44.2c-40.2-23.4-69.1-71.4-51.3-101.4
		c17.7-29.8,27.6-39.9,128.3-39.1h3.2c89.7,1,192.6-48.1,218.8-61.3c-3-3.7-6.1-7.4-9.2-11.1C378.6-16.2,237.1-13.9,146.8,28.4
		S-15.9,165.4,3,290.2z"/>
	<path class="st3" d="M3,290.2C17.6,379.4,92.2,473,92.2,473S334,510.9,592.6,472c0,0,5.7-14.9,9.3-41.2
		C428,455,263.8,445.3,178.2,436.9c-40.9-3.9-77.6-27.1-98.7-62.3c-21-35-44.4-82-51.9-127.9c-7.5-49.6-0.6-94.4,16-133.2
		C10.3,160.7-7.5,220.8,3,290.2z"/>
	<path class="st4" d="M269.5,167.6l77.8,184.7c34.1,1.4,75.1-0.5,124.9-7.5c51.8-7.9,104.2-24.7,124.2-31.6c5.4-1.8,8.5-3,8.5-3
		s-32.3-120.4-107-207.3c0,0-2.3,1.2-6.3,3.2c-26.3,13.3-129.2,62.3-218.8,61.3L269.5,167.6z"/>
	<path class="st5" d="M192.5,308.1c28.6,16.6,70.7,40.6,154.8,44.2l-77.8-184.7c-100.7-0.8-110.7,9.3-128.3,39.1
		C123.4,236.7,152.5,284.6,192.5,308.1z"/>
	<path class="st3" d="M192.5,308.1c28.6,16.6,70.7,40.6,154.8,44.2c34.1,1.4,75.1-0.5,124.9-7.5c51.8-7.9,104.2-24.7,124.2-31.6
		c5.4-1.8,8.5-3,8.5-3s-2.3-8.6-7.1-22.7c-24.4,7.9-69.6,21.5-114.4,28.3c-49.9,7.1-90.9,9-124.9,7.5
		c-84.2-3.6-126.4-27.6-154.8-44.2c-32.2-18.8-57.1-53.3-56.7-81.8c-1.9,2.9-3.8,6-5.9,9.3C123.4,236.7,152.5,284.6,192.5,308.1z"/>
	<circle class="st6" cx="199.8" cy="238.4" r="25.1"/>
</g>
</svg>
