<svg width="84" height="67" viewBox="0 0 84 67" fill="none" xmlns="http://www.w3.org/2000/svg">
<path d="M1.05619 39.9416C3.05597 51.9907 13.2844 64.6374 13.2844 64.6374C13.2844 64.6374 46.4448 69.7575 81.9001 64.4921C81.9001 64.4921 85.2276 55.9802 82.4246 43.0589C79.6872 43.9795 72.4912 46.2569 65.3936 47.3229C58.5583 48.2758 52.9359 48.5342 48.2643 48.3404C36.7245 47.8559 30.9546 44.6094 27.037 42.3643C21.5294 39.1986 17.5626 32.7218 20.005 28.6678C22.431 24.646 23.7915 23.2731 37.5933 23.3862H38.0359C50.3296 23.5154 64.4429 16.8932 68.0327 15.1004C67.6229 14.5997 67.1967 14.099 66.7705 13.5983C52.5589 -1.45502 33.1511 -1.14814 20.7754 4.56953C8.39967 10.2872 -1.5337 23.0793 1.05619 39.9416Z" fill="#F34336"/>
<path opacity="0.15" d="M8.67431 39.9109C10.4995 51.9189 19.8347 64.5225 19.8347 64.5225C19.8347 64.5225 50.0995 69.6251 82.4587 64.3777C82.4587 64.3777 83.1768 62.3656 83.6256 58.8243C61.8583 62.0919 41.3028 60.7881 30.5912 59.6614C25.4748 59.1302 20.882 56.0074 18.234 51.275C15.601 46.5587 12.6837 40.2328 11.7412 34.0517C10.7987 27.3716 11.6664 21.3354 13.7459 16.1201C9.58689 22.4622 7.3578 30.5587 8.67431 39.9109Z" fill="black"/>
<path d="M41.365 22.5799L51.0377 48.3863C55.2722 48.5867 60.3686 48.3194 66.5644 47.334C72.998 46.2315 79.5208 43.8764 82.0021 42.9243C82.6707 42.6738 83.057 42.5067 83.057 42.5067C83.057 42.5067 79.0453 25.6867 69.759 13.5435C69.759 13.5435 69.4767 13.7105 68.9715 13.9944C65.7027 15.8485 52.9098 22.6968 41.781 22.5632L41.365 22.5799Z" fill="#454546"/>
<path d="M28.1548 42.4128C32.7401 44.6802 39.4935 47.959 53.0001 48.4484L40.5103 23.2457C24.3561 23.1315 22.7445 24.5181 19.9242 28.5799C17.0656 32.6743 21.7276 39.2156 28.1548 42.4128Z" fill="#696A6D"/>
<path opacity="0.15" d="M32.3868 42.3092C35.9623 44.5467 41.2284 47.7821 51.7604 48.265C56.0241 48.4581 61.1555 48.2006 67.394 47.2509C73.8718 46.1885 80.4394 43.9189 82.9378 43.0014C83.611 42.7599 84 42.599 84 42.599C84 42.599 83.7157 41.44 83.1173 39.5406C80.0654 40.603 74.4104 42.438 68.8003 43.3555C62.5618 44.3052 57.4304 44.5628 53.1667 44.3696C42.6346 43.8867 37.3536 40.6513 33.7931 38.4139C29.7687 35.8867 26.642 31.2348 26.7019 27.4038C26.4625 27.7901 26.2231 28.2086 25.9688 28.6593C23.7397 32.6996 27.3751 39.1543 32.3868 42.3092Z" fill="black"/>
<path d="M33.2991 36.305C35.0342 36.305 36.4408 34.7916 36.4408 32.9247C36.4408 31.0578 35.0342 29.5444 33.2991 29.5444C31.564 29.5444 30.1575 31.0578 30.1575 32.9247C30.1575 34.7916 31.564 36.305 33.2991 36.305Z" fill="#E1ECF1"/>
</svg>
