<svg width="487" height="821" viewBox="0 0 487 821" fill="none" xmlns="http://www.w3.org/2000/svg">
<g clip-path="url(#clip0_5830_27457)">
<path d="M480.5 805L480.5 16C480.5 10.7533 476.247 6.5 471 6.5L17 6.49998C11.7533 6.49998 7.50003 10.7533 7.50003 16L7.5 805C7.5 810.247 11.7532 814.5 17 814.5L471 814.5C476.247 814.5 480.5 810.247 480.5 805Z" fill="#1BB24B" stroke="#192F20" stroke-width="11"/>
<path d="M462 797L462 24L26 24L26 797L462 797Z" stroke="white" stroke-width="3" stroke-linecap="round" stroke-linejoin="round"/>
<path d="M26 88L462 88" stroke="white" stroke-width="3" stroke-linecap="round" stroke-linejoin="round"/>
<path d="M462 153L398.209 153L26 153" stroke="white" stroke-width="3" stroke-linecap="round" stroke-linejoin="round"/>
<path d="M462 218L398.209 218L26 218" stroke="white" stroke-width="3" stroke-linecap="round" stroke-linejoin="round"/>
<path d="M462 282L398.209 282L26 282" stroke="white" stroke-width="3" stroke-linecap="round" stroke-linejoin="round"/>
<path d="M462 346L398.209 346L26 346" stroke="white" stroke-width="3" stroke-linecap="round" stroke-linejoin="round"/>
<path d="M462 410L398.209 410L26 410" stroke="white" stroke-width="3" stroke-linecap="round" stroke-linejoin="round"/>
<path d="M462 474L398.209 474L26 474" stroke="white" stroke-width="3" stroke-linecap="round" stroke-linejoin="round"/>
<path d="M462 538L398.209 538L26 538" stroke="white" stroke-width="3" stroke-linecap="round" stroke-linejoin="round"/>
<path d="M462 603L398.209 603L26 603" stroke="white" stroke-width="3" stroke-linecap="round" stroke-linejoin="round"/>
<path d="M462 667L398.209 667L26 667" stroke="white" stroke-width="3" stroke-linecap="round" stroke-linejoin="round"/>
<path d="M28.8906 729L459.891 729" stroke="white" stroke-width="3" stroke-linecap="round" stroke-linejoin="round"/>
<path d="M398 133L398 171" stroke="white" stroke-width="3" stroke-linecap="round" stroke-linejoin="round"/>
<path d="M334 133L334 171" stroke="white" stroke-width="3" stroke-linecap="round" stroke-linejoin="round"/>
<path d="M398 199L398 237" stroke="white" stroke-width="3" stroke-linecap="round" stroke-linejoin="round"/>
<path d="M334 199L334 237" stroke="white" stroke-width="3" stroke-linecap="round" stroke-linejoin="round"/>
<path d="M398 263L398 300" stroke="white" stroke-width="3" stroke-linecap="round" stroke-linejoin="round"/>
<path d="M334 263L334 300" stroke="white" stroke-width="3" stroke-linecap="round" stroke-linejoin="round"/>
<path d="M398 326L398 364" stroke="white" stroke-width="3" stroke-linecap="round" stroke-linejoin="round"/>
<path d="M334 326L334 364" stroke="white" stroke-width="3" stroke-linecap="round" stroke-linejoin="round"/>
<path d="M398 393L398 429" stroke="white" stroke-width="3" stroke-linecap="round" stroke-linejoin="round"/>
<path d="M334 393L334 429" stroke="white" stroke-width="3" stroke-linecap="round" stroke-linejoin="round"/>
<path d="M398 457L398 493" stroke="white" stroke-width="3" stroke-linecap="round" stroke-linejoin="round"/>
<path d="M334 457L334 493" stroke="white" stroke-width="3" stroke-linecap="round" stroke-linejoin="round"/>
<path d="M398 520L398 556" stroke="white" stroke-width="3" stroke-linecap="round" stroke-linejoin="round"/>
<path d="M334 520L334 556" stroke="white" stroke-width="3" stroke-linecap="round" stroke-linejoin="round"/>
<path d="M398 585L398 623" stroke="white" stroke-width="3" stroke-linecap="round" stroke-linejoin="round"/>
<path d="M334 585L334 623" stroke="white" stroke-width="3" stroke-linecap="round" stroke-linejoin="round"/>
<path d="M398 649L398 686" stroke="white" stroke-width="3" stroke-linecap="round" stroke-linejoin="round"/>
<path d="M334 649L334 686" stroke="white" stroke-width="3" stroke-linecap="round" stroke-linejoin="round"/>
<path d="M359 143.471L359 142.416L365.721 142.416C365.479 142.162 365.236 141.828 364.994 141.414C364.752 141.004 364.57 140.635 364.449 140.307L365.469 140.307C365.746 140.896 366.082 141.412 366.477 141.854C366.871 142.295 367.254 142.607 367.625 142.791L367.625 143.471L359 143.471ZM363.236 146.178C364.252 146.178 365.068 146.281 365.686 146.488C366.307 146.699 366.785 147.01 367.121 147.42C367.457 147.834 367.625 148.354 367.625 148.979C367.625 149.439 367.531 149.844 367.344 150.191C367.16 150.539 366.893 150.826 366.541 151.053C366.193 151.279 365.768 151.457 365.264 151.586C364.764 151.715 364.088 151.779 363.236 151.779C362.229 151.779 361.414 151.676 360.793 151.469C360.176 151.262 359.697 150.951 359.357 150.537C359.021 150.127 358.854 149.607 358.854 148.979C358.854 148.15 359.15 147.5 359.744 147.027C360.459 146.461 361.623 146.178 363.236 146.178ZM363.236 147.262C361.826 147.262 360.887 147.426 360.418 147.754C359.953 148.086 359.721 148.494 359.721 148.979C359.721 149.463 359.955 149.869 360.424 150.197C360.893 150.529 361.83 150.695 363.236 150.695C364.65 150.695 365.59 150.529 366.055 150.197C366.52 149.869 366.752 149.459 366.752 148.967C366.752 148.482 366.547 148.096 366.137 147.807C365.613 147.443 364.646 147.262 363.236 147.262Z" fill="white"/>
<path d="M365.5 134L361 141L370 141L365.5 134Z" fill="white"/>
<path d="M360.014 209.041L359 209.041L359 203.363C359.254 203.355 359.498 203.396 359.732 203.486C360.119 203.631 360.5 203.861 360.875 204.178C361.25 204.498 361.684 204.959 362.176 205.561C362.941 206.494 363.547 207.125 363.992 207.453C364.441 207.781 364.865 207.945 365.264 207.945C365.682 207.945 366.033 207.795 366.318 207.494C366.607 207.197 366.752 206.809 366.752 206.328C366.752 205.82 366.6 205.414 366.295 205.109C365.99 204.805 365.568 204.65 365.029 204.646L365.141 203.562C365.949 203.637 366.564 203.916 366.986 204.4C367.412 204.885 367.625 205.535 367.625 206.352C367.625 207.176 367.396 207.828 366.939 208.309C366.482 208.789 365.916 209.029 365.24 209.029C364.896 209.029 364.559 208.959 364.227 208.818C363.895 208.678 363.545 208.443 363.178 208.115C362.811 207.791 362.307 207.25 361.666 206.492C361.135 205.859 360.773 205.453 360.582 205.273C360.395 205.094 360.205 204.945 360.014 204.828L360.014 209.041ZM363.236 210.178C364.252 210.178 365.068 210.281 365.686 210.488C366.307 210.699 366.785 211.01 367.121 211.42C367.457 211.834 367.625 212.354 367.625 212.979C367.625 213.439 367.531 213.844 367.344 214.191C367.16 214.539 366.893 214.826 366.541 215.053C366.193 215.279 365.768 215.457 365.264 215.586C364.764 215.715 364.088 215.779 363.236 215.779C362.229 215.779 361.414 215.676 360.793 215.469C360.176 215.262 359.697 214.951 359.357 214.537C359.021 214.127 358.854 213.607 358.854 212.979C358.854 212.15 359.15 211.5 359.744 211.027C360.459 210.461 361.623 210.178 363.236 210.178ZM363.236 211.262C361.826 211.262 360.887 211.426 360.418 211.754C359.953 212.086 359.721 212.494 359.721 212.979C359.721 213.463 359.955 213.869 360.424 214.197C360.893 214.529 361.83 214.695 363.236 214.695C364.65 214.695 365.59 214.529 366.055 214.197C366.52 213.869 366.752 213.459 366.752 212.967C366.752 212.482 366.547 212.096 366.137 211.807C365.613 211.443 364.646 211.262 363.236 211.262Z" fill="white"/>
<path d="M365.5 199L361 206L370 206L365.5 199Z" fill="white"/>
<path d="M361.268 266.504L361.408 267.559C360.811 267.68 360.379 267.885 360.113 268.174C359.852 268.467 359.721 268.822 359.721 269.24C359.721 269.736 359.893 270.154 360.236 270.494C360.58 270.838 361.006 271.01 361.514 271.01C361.998 271.01 362.396 270.852 362.709 270.535C363.025 270.219 363.184 269.816 363.184 269.328C363.184 269.129 363.145 268.881 363.066 268.584L363.992 268.701C363.984 268.771 363.98 268.828 363.98 268.871C363.98 269.32 364.098 269.725 364.332 270.084C364.566 270.443 364.928 270.623 365.416 270.623C365.803 270.623 366.123 270.492 366.377 270.23C366.631 269.969 366.758 269.631 366.758 269.217C366.758 268.807 366.629 268.465 366.371 268.191C366.113 267.918 365.727 267.742 365.211 267.664L365.398 266.609C366.105 266.738 366.652 267.031 367.039 267.488C367.43 267.945 367.625 268.514 367.625 269.193C367.625 269.662 367.523 270.094 367.32 270.488C367.121 270.883 366.848 271.184 366.5 271.391C366.152 271.602 365.783 271.707 365.393 271.707C365.021 271.707 364.684 271.607 364.379 271.408C364.074 271.209 363.832 270.914 363.652 270.523C363.535 271.031 363.291 271.426 362.92 271.707C362.553 271.988 362.092 272.129 361.537 272.129C360.787 272.129 360.15 271.855 359.627 271.309C359.107 270.762 358.848 270.07 358.848 269.234C358.848 268.48 359.072 267.854 359.521 267.354C359.971 266.857 360.553 266.574 361.268 266.504ZM363.236 273.178C364.252 273.178 365.068 273.281 365.686 273.488C366.307 273.699 366.785 274.01 367.121 274.42C367.457 274.834 367.625 275.354 367.625 275.979C367.625 276.439 367.531 276.844 367.344 277.191C367.16 277.539 366.893 277.826 366.541 278.053C366.193 278.279 365.768 278.457 365.264 278.586C364.764 278.715 364.088 278.779 363.236 278.779C362.229 278.779 361.414 278.676 360.793 278.469C360.176 278.262 359.697 277.951 359.357 277.537C359.021 277.127 358.854 276.607 358.854 275.979C358.854 275.15 359.15 274.5 359.744 274.027C360.459 273.461 361.623 273.178 363.236 273.178ZM363.236 274.262C361.826 274.262 360.887 274.426 360.418 274.754C359.953 275.086 359.721 275.494 359.721 275.979C359.721 276.463 359.955 276.869 360.424 277.197C360.893 277.529 361.83 277.695 363.236 277.695C364.65 277.695 365.59 277.529 366.055 277.197C366.52 276.869 366.752 276.459 366.752 275.967C366.752 275.482 366.547 275.096 366.137 274.807C365.613 274.443 364.646 274.262 363.236 274.262Z" fill="white"/>
<path d="M365.5 260L361 268L370 268L365.5 260Z" fill="white"/>
<path d="M359 335.879L361.057 335.879L361.057 332.152L362.023 332.152L367.59 336.072L367.59 336.934L362.023 336.934L362.023 338.094L361.057 338.094L361.057 336.934L359 336.934L359 335.879ZM362.023 335.879L365.896 335.879L362.023 333.189L362.023 335.879ZM363.236 339.178C364.252 339.178 365.068 339.281 365.686 339.488C366.307 339.699 366.785 340.01 367.121 340.42C367.457 340.834 367.625 341.354 367.625 341.979C367.625 342.439 367.531 342.844 367.344 343.191C367.16 343.539 366.893 343.826 366.541 344.053C366.193 344.279 365.768 344.457 365.264 344.586C364.764 344.715 364.088 344.779 363.236 344.779C362.229 344.779 361.414 344.676 360.793 344.469C360.176 344.262 359.697 343.951 359.357 343.537C359.021 343.127 358.854 342.607 358.854 341.979C358.854 341.15 359.15 340.5 359.744 340.027C360.459 339.461 361.623 339.178 363.236 339.178ZM363.236 340.262C361.826 340.262 360.887 340.426 360.418 340.754C359.953 341.086 359.721 341.494 359.721 341.979C359.721 342.463 359.955 342.869 360.424 343.197C360.893 343.529 361.83 343.695 363.236 343.695C364.65 343.695 365.59 343.529 366.055 343.197C366.52 342.869 366.752 342.459 366.752 341.967C366.752 341.482 366.547 341.096 366.137 340.807C365.613 340.443 364.646 340.262 363.236 340.262Z" fill="white"/>
<path d="M365.5 322L361 329L370 329L365.5 322Z" fill="white"/>
<path d="M361.25 396.498L361.344 397.605C360.805 397.687 360.398 397.877 360.125 398.174C359.855 398.475 359.721 398.836 359.721 399.258C359.721 399.766 359.912 400.195 360.295 400.547C360.678 400.898 361.186 401.074 361.818 401.074C362.42 401.074 362.895 400.904 363.242 400.564C363.59 400.229 363.764 399.787 363.764 399.24C363.764 398.9 363.686 398.594 363.529 398.32C363.377 398.047 363.178 397.832 362.932 397.676L363.061 396.686L367.473 397.518L367.473 401.789L366.465 401.789L366.465 398.361L364.156 397.898C364.516 398.414 364.695 398.955 364.695 399.521C364.695 400.271 364.436 400.904 363.916 401.42C363.396 401.936 362.729 402.193 361.912 402.193C361.135 402.193 360.463 401.967 359.896 401.514C359.201 400.963 358.854 400.211 358.854 399.258C358.854 398.477 359.072 397.838 359.51 397.342C359.947 396.85 360.527 396.568 361.25 396.498ZM363.236 403.178C364.252 403.178 365.068 403.281 365.686 403.488C366.307 403.699 366.785 404.01 367.121 404.42C367.457 404.834 367.625 405.354 367.625 405.979C367.625 406.439 367.531 406.844 367.344 407.191C367.16 407.539 366.893 407.826 366.541 408.053C366.193 408.279 365.768 408.457 365.264 408.586C364.764 408.715 364.088 408.779 363.236 408.779C362.229 408.779 361.414 408.676 360.793 408.469C360.176 408.262 359.697 407.951 359.357 407.537C359.021 407.127 358.854 406.607 358.854 405.979C358.854 405.15 359.15 404.5 359.744 404.027C360.459 403.461 361.623 403.178 363.236 403.178ZM363.236 404.262C361.826 404.262 360.887 404.426 360.418 404.754C359.953 405.086 359.721 405.494 359.721 405.979C359.721 406.463 359.955 406.869 360.424 407.197C360.893 407.529 361.83 407.695 363.236 407.695C364.65 407.695 365.59 407.529 366.055 407.197C366.52 406.869 366.752 406.459 366.752 405.967C366.752 405.482 366.547 405.096 366.137 404.807C365.613 404.443 364.646 404.262 363.236 404.262Z" fill="white"/>
<path d="M359 463.879L361.057 463.879L361.057 460.152L362.023 460.152L367.59 464.072L367.59 464.934L362.023 464.934L362.023 466.094L361.057 466.094L361.057 464.934L359 464.934L359 463.879ZM362.023 463.879L365.896 463.879L362.023 461.189L362.023 463.879ZM363.236 467.178C364.252 467.178 365.068 467.281 365.686 467.488C366.307 467.699 366.785 468.01 367.121 468.42C367.457 468.834 367.625 469.354 367.625 469.979C367.625 470.439 367.531 470.844 367.344 471.191C367.16 471.539 366.893 471.826 366.541 472.053C366.193 472.279 365.768 472.457 365.264 472.586C364.764 472.715 364.088 472.779 363.236 472.779C362.229 472.779 361.414 472.676 360.793 472.469C360.176 472.262 359.697 471.951 359.357 471.537C359.021 471.127 358.854 470.607 358.854 469.979C358.854 469.15 359.15 468.5 359.744 468.027C360.459 467.461 361.623 467.178 363.236 467.178ZM363.236 468.262C361.826 468.262 360.887 468.426 360.418 468.754C359.953 469.086 359.721 469.494 359.721 469.979C359.721 470.463 359.955 470.869 360.424 471.197C360.893 471.529 361.83 471.695 363.236 471.695C364.65 471.695 365.59 471.529 366.055 471.197C366.52 470.869 366.752 470.459 366.752 469.967C366.752 469.482 366.547 469.096 366.137 468.807C365.613 468.443 364.646 468.262 363.236 468.262Z" fill="white"/>
<path d="M365.5 500L370 493L361 493L365.5 500Z" fill="white"/>
<path d="M361.268 524.504L361.408 525.559C360.811 525.68 360.379 525.885 360.113 526.174C359.852 526.467 359.721 526.822 359.721 527.24C359.721 527.736 359.893 528.154 360.236 528.494C360.58 528.838 361.006 529.01 361.514 529.01C361.998 529.01 362.396 528.852 362.709 528.535C363.025 528.219 363.184 527.816 363.184 527.328C363.184 527.129 363.145 526.881 363.066 526.584L363.992 526.701C363.984 526.771 363.98 526.828 363.98 526.871C363.98 527.32 364.098 527.725 364.332 528.084C364.566 528.443 364.928 528.623 365.416 528.623C365.803 528.623 366.123 528.492 366.377 528.23C366.631 527.969 366.758 527.631 366.758 527.217C366.758 526.807 366.629 526.465 366.371 526.191C366.113 525.918 365.727 525.742 365.211 525.664L365.398 524.609C366.105 524.738 366.652 525.031 367.039 525.488C367.43 525.945 367.625 526.514 367.625 527.193C367.625 527.662 367.523 528.094 367.32 528.488C367.121 528.883 366.848 529.184 366.5 529.391C366.152 529.602 365.783 529.707 365.393 529.707C365.021 529.707 364.684 529.607 364.379 529.408C364.074 529.209 363.832 528.914 363.652 528.523C363.535 529.031 363.291 529.426 362.92 529.707C362.553 529.988 362.092 530.129 361.537 530.129C360.787 530.129 360.15 529.855 359.627 529.309C359.107 528.762 358.848 528.07 358.848 527.234C358.848 526.48 359.072 525.854 359.521 525.354C359.971 524.857 360.553 524.574 361.268 524.504ZM363.236 531.178C364.252 531.178 365.068 531.281 365.686 531.488C366.307 531.699 366.785 532.01 367.121 532.42C367.457 532.834 367.625 533.354 367.625 533.979C367.625 534.439 367.531 534.844 367.344 535.191C367.16 535.539 366.893 535.826 366.541 536.053C366.193 536.279 365.768 536.457 365.264 536.586C364.764 536.715 364.088 536.779 363.236 536.779C362.229 536.779 361.414 536.676 360.793 536.469C360.176 536.262 359.697 535.951 359.357 535.537C359.021 535.127 358.854 534.607 358.854 533.979C358.854 533.15 359.15 532.5 359.744 532.027C360.459 531.461 361.623 531.178 363.236 531.178ZM363.236 532.262C361.826 532.262 360.887 532.426 360.418 532.754C359.953 533.086 359.721 533.494 359.721 533.979C359.721 534.463 359.955 534.869 360.424 535.197C360.893 535.529 361.83 535.695 363.236 535.695C364.65 535.695 365.59 535.529 366.055 535.197C366.52 534.869 366.752 534.459 366.752 533.967C366.752 533.482 366.547 533.096 366.137 532.807C365.613 532.443 364.646 532.262 363.236 532.262Z" fill="white"/>
<path d="M365.5 566L370 558L361 558L365.5 566Z" fill="white"/>
<path d="M360.014 596.041L359 596.041L359 590.363C359.254 590.355 359.498 590.396 359.732 590.486C360.119 590.631 360.5 590.861 360.875 591.178C361.25 591.498 361.684 591.959 362.176 592.561C362.941 593.494 363.547 594.125 363.992 594.453C364.441 594.781 364.865 594.945 365.264 594.945C365.682 594.945 366.033 594.795 366.318 594.494C366.607 594.197 366.752 593.809 366.752 593.328C366.752 592.82 366.6 592.414 366.295 592.109C365.99 591.805 365.568 591.65 365.029 591.646L365.141 590.562C365.949 590.637 366.564 590.916 366.986 591.4C367.412 591.885 367.625 592.535 367.625 593.352C367.625 594.176 367.396 594.828 366.939 595.309C366.482 595.789 365.916 596.029 365.24 596.029C364.896 596.029 364.559 595.959 364.227 595.818C363.895 595.678 363.545 595.443 363.178 595.115C362.811 594.791 362.307 594.25 361.666 593.492C361.135 592.859 360.773 592.453 360.582 592.273C360.395 592.094 360.205 591.945 360.014 591.828L360.014 596.041ZM363.236 597.178C364.252 597.178 365.068 597.281 365.686 597.488C366.307 597.699 366.785 598.01 367.121 598.42C367.457 598.834 367.625 599.354 367.625 599.979C367.625 600.439 367.531 600.844 367.344 601.191C367.16 601.539 366.893 601.826 366.541 602.053C366.193 602.279 365.768 602.457 365.264 602.586C364.764 602.715 364.088 602.779 363.236 602.779C362.229 602.779 361.414 602.676 360.793 602.469C360.176 602.262 359.697 601.951 359.357 601.537C359.021 601.127 358.854 600.607 358.854 599.979C358.854 599.15 359.15 598.5 359.744 598.027C360.459 597.461 361.623 597.178 363.236 597.178ZM363.236 598.262C361.826 598.262 360.887 598.426 360.418 598.754C359.953 599.086 359.721 599.494 359.721 599.979C359.721 600.463 359.955 600.869 360.424 601.197C360.893 601.529 361.83 601.695 363.236 601.695C364.65 601.695 365.59 601.529 366.055 601.197C366.52 600.869 366.752 600.459 366.752 599.967C366.752 599.482 366.547 599.096 366.137 598.807C365.613 598.443 364.646 598.262 363.236 598.262Z" fill="white"/>
<path d="M365.5 631L370 624L361 624L365.5 631Z" fill="white"/>
<path d="M359 658.471L359 657.416L365.721 657.416C365.479 657.162 365.236 656.828 364.994 656.414C364.752 656.004 364.57 655.635 364.449 655.307L365.469 655.307C365.746 655.896 366.082 656.412 366.477 656.854C366.871 657.295 367.254 657.607 367.625 657.791L367.625 658.471L359 658.471ZM363.236 661.178C364.252 661.178 365.068 661.281 365.686 661.488C366.307 661.699 366.785 662.01 367.121 662.42C367.457 662.834 367.625 663.354 367.625 663.979C367.625 664.439 367.531 664.844 367.344 665.191C367.16 665.539 366.893 665.826 366.541 666.053C366.193 666.279 365.768 666.457 365.264 666.586C364.764 666.715 364.088 666.779 363.236 666.779C362.229 666.779 361.414 666.676 360.793 666.469C360.176 666.262 359.697 665.951 359.357 665.537C359.021 665.127 358.854 664.607 358.854 663.979C358.854 663.15 359.15 662.5 359.744 662.027C360.459 661.461 361.623 661.178 363.236 661.178ZM363.236 662.262C361.826 662.262 360.887 662.426 360.418 662.754C359.953 663.086 359.721 663.494 359.721 663.979C359.721 664.463 359.955 664.869 360.424 665.197C360.893 665.529 361.83 665.695 363.236 665.695C364.65 665.695 365.59 665.529 366.055 665.197C366.52 664.869 366.752 664.459 366.752 663.967C366.752 663.482 366.547 663.096 366.137 662.807C365.613 662.443 364.646 662.262 363.236 662.262Z" fill="white"/>
<path d="M365.5 694L370 687L361 687L365.5 694Z" fill="white"/>
<path d="M90 687L90 650" stroke="white" stroke-width="3" stroke-linecap="round" stroke-linejoin="round"/>
<path d="M154 687L154 650" stroke="white" stroke-width="3" stroke-linecap="round" stroke-linejoin="round"/>
<path d="M90 622L90 584" stroke="white" stroke-width="3" stroke-linecap="round" stroke-linejoin="round"/>
<path d="M154 622L154 584" stroke="white" stroke-width="3" stroke-linecap="round" stroke-linejoin="round"/>
<path d="M90 557L90 521" stroke="white" stroke-width="3" stroke-linecap="round" stroke-linejoin="round"/>
<path d="M154 557L154 521" stroke="white" stroke-width="3" stroke-linecap="round" stroke-linejoin="round"/>
<path d="M90 493L90 457" stroke="white" stroke-width="3" stroke-linecap="round" stroke-linejoin="round"/>
<path d="M154 493L154 457" stroke="white" stroke-width="3" stroke-linecap="round" stroke-linejoin="round"/>
<path d="M90 428L90 391" stroke="white" stroke-width="3" stroke-linecap="round" stroke-linejoin="round"/>
<path d="M154 428L154 391" stroke="white" stroke-width="3" stroke-linecap="round" stroke-linejoin="round"/>
<path d="M90 364L90 326" stroke="white" stroke-width="3" stroke-linecap="round" stroke-linejoin="round"/>
<path d="M154 364L154 326" stroke="white" stroke-width="3" stroke-linecap="round" stroke-linejoin="round"/>
<path d="M90 301L90 263" stroke="white" stroke-width="3" stroke-linecap="round" stroke-linejoin="round"/>
<path d="M154 301L154 263" stroke="white" stroke-width="3" stroke-linecap="round" stroke-linejoin="round"/>
<path d="M90 235L90 198" stroke="white" stroke-width="3" stroke-linecap="round" stroke-linejoin="round"/>
<path d="M154 235L154 198" stroke="white" stroke-width="3" stroke-linecap="round" stroke-linejoin="round"/>
<path d="M90 172L90 134" stroke="white" stroke-width="3" stroke-linecap="round" stroke-linejoin="round"/>
<path d="M154 172L154 134" stroke="white" stroke-width="3" stroke-linecap="round" stroke-linejoin="round"/>
<path d="M129 677.529L129 678.584L122.279 678.584C122.521 678.838 122.764 679.172 123.006 679.586C123.248 679.996 123.43 680.365 123.551 680.693L122.531 680.693C122.254 680.104 121.918 679.588 121.523 679.146C121.129 678.705 120.746 678.393 120.375 678.209L120.375 677.529L129 677.529ZM124.764 674.822C123.748 674.822 122.932 674.719 122.314 674.512C121.693 674.301 121.215 673.99 120.879 673.58C120.543 673.166 120.375 672.646 120.375 672.021C120.375 671.561 120.469 671.156 120.656 670.809C120.84 670.461 121.107 670.174 121.459 669.947C121.807 669.721 122.232 669.543 122.736 669.414C123.236 669.285 123.912 669.221 124.764 669.221C125.771 669.221 126.586 669.324 127.207 669.531C127.824 669.738 128.303 670.049 128.643 670.463C128.979 670.873 129.146 671.393 129.146 672.021C129.146 672.85 128.85 673.5 128.256 673.973C127.541 674.539 126.377 674.822 124.764 674.822ZM124.764 673.738C126.174 673.738 127.113 673.574 127.582 673.246C128.047 672.914 128.279 672.506 128.279 672.021C128.279 671.537 128.045 671.131 127.576 670.803C127.107 670.471 126.17 670.305 124.764 670.305C123.35 670.305 122.41 670.471 121.945 670.803C121.48 671.131 121.248 671.541 121.248 672.033C121.248 672.518 121.453 672.904 121.863 673.193C122.387 673.557 123.354 673.738 124.764 673.738Z" fill="white"/>
<path d="M123 687L127 680L119 680L123 687Z" fill="white"/>
<path d="M127.986 610.959L129 610.959L129 616.637C128.746 616.645 128.502 616.604 128.268 616.514C127.881 616.369 127.5 616.139 127.125 615.822C126.75 615.502 126.316 615.041 125.824 614.439C125.059 613.506 124.453 612.875 124.008 612.547C123.559 612.219 123.135 612.055 122.736 612.055C122.318 612.055 121.967 612.205 121.682 612.506C121.393 612.803 121.248 613.191 121.248 613.672C121.248 614.18 121.4 614.586 121.705 614.891C122.01 615.195 122.432 615.35 122.971 615.354L122.859 616.438C122.051 616.363 121.436 616.084 121.014 615.6C120.588 615.115 120.375 614.465 120.375 613.648C120.375 612.824 120.604 612.172 121.061 611.691C121.518 611.211 122.084 610.971 122.76 610.971C123.104 610.971 123.441 611.041 123.773 611.182C124.105 611.322 124.455 611.557 124.822 611.885C125.189 612.209 125.693 612.75 126.334 613.508C126.865 614.141 127.227 614.547 127.418 614.727C127.605 614.906 127.795 615.055 127.986 615.172L127.986 610.959ZM124.764 609.822C123.748 609.822 122.932 609.719 122.314 609.512C121.693 609.301 121.215 608.99 120.879 608.58C120.543 608.166 120.375 607.646 120.375 607.021C120.375 606.561 120.469 606.156 120.656 605.809C120.84 605.461 121.107 605.174 121.459 604.947C121.807 604.721 122.232 604.543 122.736 604.414C123.236 604.285 123.912 604.221 124.764 604.221C125.771 604.221 126.586 604.324 127.207 604.531C127.824 604.738 128.303 605.049 128.643 605.463C128.979 605.873 129.146 606.393 129.146 607.021C129.146 607.85 128.85 608.5 128.256 608.973C127.541 609.539 126.377 609.822 124.764 609.822ZM124.764 608.738C126.174 608.738 127.113 608.574 127.582 608.246C128.047 607.914 128.279 607.506 128.279 607.021C128.279 606.537 128.045 606.131 127.576 605.803C127.107 605.471 126.17 605.305 124.764 605.305C123.35 605.305 122.41 605.471 121.945 605.803C121.48 606.131 121.248 606.541 121.248 607.033C121.248 607.518 121.453 607.904 121.863 608.193C122.387 608.557 123.354 608.738 124.764 608.738Z" fill="white"/>
<path d="M123 622L127 613L119 613L123 622Z" fill="white"/>
<path d="M126.732 552.496L126.592 551.441C127.189 551.32 127.621 551.115 127.887 550.826C128.148 550.533 128.279 550.178 128.279 549.76C128.279 549.264 128.107 548.846 127.764 548.506C127.42 548.162 126.994 547.99 126.486 547.99C126.002 547.99 125.604 548.148 125.291 548.465C124.975 548.781 124.816 549.184 124.816 549.672C124.816 549.871 124.855 550.119 124.934 550.416L124.008 550.299C124.016 550.229 124.02 550.172 124.02 550.129C124.02 549.68 123.902 549.275 123.668 548.916C123.434 548.557 123.072 548.377 122.584 548.377C122.197 548.377 121.877 548.508 121.623 548.77C121.369 549.031 121.242 549.369 121.242 549.783C121.242 550.193 121.371 550.535 121.629 550.809C121.887 551.082 122.273 551.258 122.789 551.336L122.602 552.391C121.895 552.262 121.348 551.969 120.961 551.512C120.57 551.055 120.375 550.486 120.375 549.807C120.375 549.338 120.477 548.906 120.68 548.512C120.879 548.117 121.152 547.816 121.5 547.609C121.848 547.398 122.217 547.293 122.607 547.293C122.979 547.293 123.316 547.393 123.621 547.592C123.926 547.791 124.168 548.086 124.348 548.477C124.465 547.969 124.709 547.574 125.08 547.293C125.447 547.012 125.908 546.871 126.463 546.871C127.213 546.871 127.85 547.145 128.373 547.691C128.893 548.238 129.152 548.93 129.152 549.766C129.152 550.52 128.928 551.146 128.479 551.646C128.029 552.143 127.447 552.426 126.732 552.496ZM124.764 545.822C123.748 545.822 122.932 545.719 122.314 545.512C121.693 545.301 121.215 544.99 120.879 544.58C120.543 544.166 120.375 543.646 120.375 543.021C120.375 542.561 120.469 542.156 120.656 541.809C120.84 541.461 121.107 541.174 121.459 540.947C121.807 540.721 122.232 540.543 122.736 540.414C123.236 540.285 123.912 540.221 124.764 540.221C125.771 540.221 126.586 540.324 127.207 540.531C127.824 540.738 128.303 541.049 128.643 541.463C128.979 541.873 129.146 542.393 129.146 543.021C129.146 543.85 128.85 544.5 128.256 544.973C127.541 545.539 126.377 545.822 124.764 545.822ZM124.764 544.738C126.174 544.738 127.113 544.574 127.582 544.246C128.047 543.914 128.279 543.506 128.279 543.021C128.279 542.537 128.045 542.131 127.576 541.803C127.107 541.471 126.17 541.305 124.764 541.305C123.35 541.305 122.41 541.471 121.945 541.803C121.48 542.131 121.248 542.541 121.248 543.033C121.248 543.518 121.453 543.904 121.863 544.193C122.387 544.557 123.354 544.738 124.764 544.738Z" fill="white"/>
<path d="M123 559L127 552L119 552L123 559Z" fill="white"/>
<path d="M129 485.121L126.943 485.121L126.943 488.848L125.977 488.848L120.41 484.928L120.41 484.066L125.977 484.066L125.977 482.906L126.943 482.906L126.943 484.066L129 484.066L129 485.121ZM125.977 485.121L122.104 485.121L125.977 487.811L125.977 485.121ZM124.764 481.822C123.748 481.822 122.932 481.719 122.314 481.512C121.693 481.301 121.215 480.99 120.879 480.58C120.543 480.166 120.375 479.646 120.375 479.021C120.375 478.561 120.469 478.156 120.656 477.809C120.84 477.461 121.107 477.174 121.459 476.947C121.807 476.721 122.232 476.543 122.736 476.414C123.236 476.285 123.912 476.221 124.764 476.221C125.771 476.221 126.586 476.324 127.207 476.531C127.824 476.738 128.303 477.049 128.643 477.463C128.979 477.873 129.146 478.393 129.146 479.021C129.146 479.85 128.85 480.5 128.256 480.973C127.541 481.539 126.377 481.822 124.764 481.822ZM124.764 480.738C126.174 480.738 127.113 480.574 127.582 480.246C128.047 479.914 128.279 479.506 128.279 479.021C128.279 478.537 128.045 478.131 127.576 477.803C127.107 477.471 126.17 477.305 124.764 477.305C123.35 477.305 122.41 477.471 121.945 477.803C121.48 478.131 121.248 478.541 121.248 479.033C121.248 479.518 121.453 479.904 121.863 480.193C122.387 480.557 123.354 480.738 124.764 480.738Z" fill="white"/>
<path d="M123 498L127 490L119 490L123 498Z" fill="white"/>
<path d="M126.75 424.502L126.656 423.395C127.195 423.313 127.602 423.123 127.875 422.826C128.145 422.525 128.279 422.164 128.279 421.742C128.279 421.234 128.088 420.805 127.705 420.453C127.322 420.102 126.814 419.926 126.182 419.926C125.58 419.926 125.105 420.096 124.758 420.436C124.41 420.771 124.236 421.213 124.236 421.76C124.236 422.1 124.314 422.406 124.471 422.68C124.623 422.953 124.822 423.168 125.068 423.324L124.939 424.314L120.527 423.482L120.527 419.211L121.535 419.211L121.535 422.639L123.844 423.102C123.484 422.586 123.305 422.045 123.305 421.479C123.305 420.729 123.564 420.096 124.084 419.58C124.604 419.064 125.271 418.807 126.088 418.807C126.865 418.807 127.537 419.033 128.104 419.486C128.799 420.037 129.146 420.789 129.146 421.742C129.146 422.523 128.928 423.162 128.49 423.658C128.053 424.15 127.473 424.432 126.75 424.502ZM124.764 417.822C123.748 417.822 122.932 417.719 122.314 417.512C121.693 417.301 121.215 416.99 120.879 416.58C120.543 416.166 120.375 415.646 120.375 415.021C120.375 414.561 120.469 414.156 120.656 413.809C120.84 413.461 121.107 413.174 121.459 412.947C121.807 412.721 122.232 412.543 122.736 412.414C123.236 412.285 123.912 412.221 124.764 412.221C125.771 412.221 126.586 412.324 127.207 412.531C127.824 412.738 128.303 413.049 128.643 413.463C128.979 413.873 129.146 414.393 129.146 415.021C129.146 415.85 128.85 416.5 128.256 416.973C127.541 417.539 126.377 417.822 124.764 417.822ZM124.764 416.738C126.174 416.738 127.113 416.574 127.582 416.246C128.047 415.914 128.279 415.506 128.279 415.021C128.279 414.537 128.045 414.131 127.576 413.803C127.107 413.471 126.17 413.305 124.764 413.305C123.35 413.305 122.41 413.471 121.945 413.803C121.48 414.131 121.248 414.541 121.248 415.033C121.248 415.518 121.453 415.904 121.863 416.193C122.387 416.557 123.354 416.738 124.764 416.738Z" fill="white"/>
<path d="M129 357.121L126.943 357.121L126.943 360.848L125.977 360.848L120.41 356.928L120.41 356.066L125.977 356.066L125.977 354.906L126.943 354.906L126.943 356.066L129 356.066L129 357.121ZM125.977 357.121L122.104 357.121L125.977 359.811L125.977 357.121ZM124.764 353.822C123.748 353.822 122.932 353.719 122.314 353.512C121.693 353.301 121.215 352.99 120.879 352.58C120.543 352.166 120.375 351.646 120.375 351.021C120.375 350.561 120.469 350.156 120.656 349.809C120.84 349.461 121.107 349.174 121.459 348.947C121.807 348.721 122.232 348.543 122.736 348.414C123.236 348.285 123.912 348.221 124.764 348.221C125.771 348.221 126.586 348.324 127.207 348.531C127.824 348.738 128.303 349.049 128.643 349.463C128.979 349.873 129.146 350.393 129.146 351.021C129.146 351.85 128.85 352.5 128.256 352.973C127.541 353.539 126.377 353.822 124.764 353.822ZM124.764 352.738C126.174 352.738 127.113 352.574 127.582 352.246C128.047 351.914 128.279 351.506 128.279 351.021C128.279 350.537 128.045 350.131 127.576 349.803C127.107 349.471 126.17 349.305 124.764 349.305C123.35 349.305 122.41 349.471 121.945 349.803C121.48 350.131 121.248 350.541 121.248 351.033C121.248 351.518 121.453 351.904 121.863 352.193C122.387 352.557 123.354 352.738 124.764 352.738Z" fill="white"/>
<path d="M123 319L119 327L127 327L123 319Z" fill="white"/>
<path d="M126.732 295.496L126.592 294.441C127.189 294.32 127.621 294.115 127.887 293.826C128.148 293.533 128.279 293.178 128.279 292.76C128.279 292.264 128.107 291.846 127.764 291.506C127.42 291.162 126.994 290.99 126.486 290.99C126.002 290.99 125.604 291.148 125.291 291.465C124.975 291.781 124.816 292.184 124.816 292.672C124.816 292.871 124.855 293.119 124.934 293.416L124.008 293.299C124.016 293.229 124.02 293.172 124.02 293.129C124.02 292.68 123.902 292.275 123.668 291.916C123.434 291.557 123.072 291.377 122.584 291.377C122.197 291.377 121.877 291.508 121.623 291.77C121.369 292.031 121.242 292.369 121.242 292.783C121.242 293.193 121.371 293.535 121.629 293.809C121.887 294.082 122.273 294.258 122.789 294.336L122.602 295.391C121.895 295.262 121.348 294.969 120.961 294.512C120.57 294.055 120.375 293.486 120.375 292.807C120.375 292.338 120.477 291.906 120.68 291.512C120.879 291.117 121.152 290.816 121.5 290.609C121.848 290.398 122.217 290.293 122.607 290.293C122.979 290.293 123.316 290.393 123.621 290.592C123.926 290.791 124.168 291.086 124.348 291.477C124.465 290.969 124.709 290.574 125.08 290.293C125.447 290.012 125.908 289.871 126.463 289.871C127.213 289.871 127.85 290.145 128.373 290.691C128.893 291.238 129.152 291.93 129.152 292.766C129.152 293.52 128.928 294.146 128.479 294.646C128.029 295.143 127.447 295.426 126.732 295.496ZM124.764 288.822C123.748 288.822 122.932 288.719 122.314 288.512C121.693 288.301 121.215 287.99 120.879 287.58C120.543 287.166 120.375 286.646 120.375 286.021C120.375 285.561 120.469 285.156 120.656 284.809C120.84 284.461 121.107 284.174 121.459 283.947C121.807 283.721 122.232 283.543 122.736 283.414C123.236 283.285 123.912 283.221 124.764 283.221C125.771 283.221 126.586 283.324 127.207 283.531C127.824 283.738 128.303 284.049 128.643 284.463C128.979 284.873 129.146 285.393 129.146 286.021C129.146 286.85 128.85 287.5 128.256 287.973C127.541 288.539 126.377 288.822 124.764 288.822ZM124.764 287.738C126.174 287.738 127.113 287.574 127.582 287.246C128.047 286.914 128.279 286.506 128.279 286.021C128.279 285.537 128.045 285.131 127.576 284.803C127.107 284.471 126.17 284.305 124.764 284.305C123.35 284.305 122.41 284.471 121.945 284.803C121.48 285.131 121.248 285.541 121.248 286.033C121.248 286.518 121.453 286.904 121.863 287.193C122.387 287.557 123.354 287.738 124.764 287.738Z" fill="white"/>
<path d="M123 254L119 262L127 262L123 254Z" fill="white"/>
<path d="M127.986 224.959L129 224.959L129 230.637C128.746 230.645 128.502 230.604 128.268 230.514C127.881 230.369 127.5 230.139 127.125 229.822C126.75 229.502 126.316 229.041 125.824 228.439C125.059 227.506 124.453 226.875 124.008 226.547C123.559 226.219 123.135 226.055 122.736 226.055C122.318 226.055 121.967 226.205 121.682 226.506C121.393 226.803 121.248 227.191 121.248 227.672C121.248 228.18 121.4 228.586 121.705 228.891C122.01 229.195 122.432 229.35 122.971 229.354L122.859 230.438C122.051 230.363 121.436 230.084 121.014 229.6C120.588 229.115 120.375 228.465 120.375 227.648C120.375 226.824 120.604 226.172 121.061 225.691C121.518 225.211 122.084 224.971 122.76 224.971C123.104 224.971 123.441 225.041 123.773 225.182C124.105 225.322 124.455 225.557 124.822 225.885C125.189 226.209 125.693 226.75 126.334 227.508C126.865 228.141 127.227 228.547 127.418 228.727C127.605 228.906 127.795 229.055 127.986 229.172L127.986 224.959ZM124.764 223.822C123.748 223.822 122.932 223.719 122.314 223.512C121.693 223.301 121.215 222.99 120.879 222.58C120.543 222.166 120.375 221.646 120.375 221.021C120.375 220.561 120.469 220.156 120.656 219.809C120.84 219.461 121.107 219.174 121.459 218.947C121.807 218.721 122.232 218.543 122.736 218.414C123.236 218.285 123.912 218.221 124.764 218.221C125.771 218.221 126.586 218.324 127.207 218.531C127.824 218.738 128.303 219.049 128.643 219.463C128.979 219.873 129.146 220.393 129.146 221.021C129.146 221.85 128.85 222.5 128.256 222.973C127.541 223.539 126.377 223.822 124.764 223.822ZM124.764 222.738C126.174 222.738 127.113 222.574 127.582 222.246C128.047 221.914 128.279 221.506 128.279 221.021C128.279 220.537 128.045 220.131 127.576 219.803C127.107 219.471 126.17 219.305 124.764 219.305C123.35 219.305 122.41 219.471 121.945 219.803C121.48 220.131 121.248 220.541 121.248 221.033C121.248 221.518 121.453 221.904 121.863 222.193C122.387 222.557 123.354 222.738 124.764 222.738Z" fill="white"/>
<path d="M123 190L119 197L127 197L123 190Z" fill="white"/>
<path d="M129 162.529L129 163.584L122.279 163.584C122.521 163.838 122.764 164.172 123.006 164.586C123.248 164.996 123.43 165.365 123.551 165.693L122.531 165.693C122.254 165.104 121.918 164.588 121.523 164.146C121.129 163.705 120.746 163.393 120.375 163.209L120.375 162.529L129 162.529ZM124.764 159.822C123.748 159.822 122.932 159.719 122.314 159.512C121.693 159.301 121.215 158.99 120.879 158.58C120.543 158.166 120.375 157.646 120.375 157.021C120.375 156.561 120.469 156.156 120.656 155.809C120.84 155.461 121.107 155.174 121.459 154.947C121.807 154.721 122.232 154.543 122.736 154.414C123.236 154.285 123.912 154.221 124.764 154.221C125.771 154.221 126.586 154.324 127.207 154.531C127.824 154.738 128.303 155.049 128.643 155.463C128.979 155.873 129.146 156.393 129.146 157.021C129.146 157.85 128.85 158.5 128.256 158.973C127.541 159.539 126.377 159.822 124.764 159.822ZM124.764 158.738C126.174 158.738 127.113 158.574 127.582 158.246C128.047 157.914 128.279 157.506 128.279 157.021C128.279 156.537 128.045 156.131 127.576 155.803C127.107 155.471 126.17 155.305 124.764 155.305C123.35 155.305 122.41 155.471 121.945 155.803C121.48 156.131 121.248 156.541 121.248 157.033C121.248 157.518 121.453 157.904 121.863 158.193C122.387 158.557 123.354 158.738 124.764 158.738Z" fill="white"/>
<path d="M123 126L119 133L127 133L123 126Z" fill="white"/>
<path d="M261 88L261 69.1687L261 40" stroke="white" stroke-width="3" stroke-linecap="round" stroke-linejoin="round"/>
<path d="M227 88L227 69.1687L227 40" stroke="white" stroke-width="3" stroke-linecap="round" stroke-linejoin="round"/>
<path d="M227 70L261 70" stroke="white" stroke-width="3" stroke-linecap="round" stroke-linejoin="round"/>
<path d="M261 779L261 749.831L261 731" stroke="white" stroke-width="3" stroke-linecap="round" stroke-linejoin="round"/>
<path d="M227 779L227 749.831L227 731" stroke="white" stroke-width="3" stroke-linecap="round" stroke-linejoin="round"/>
<path d="M261 750L227 750" stroke="white" stroke-width="3" stroke-linecap="round" stroke-linejoin="round"/>
<path d="M89.5489 709.97C96.3415 709.97 101.848 704.463 101.848 697.671C101.848 690.878 96.3415 685.372 89.5489 685.372C82.7564 685.372 77.25 690.878 77.25 697.671C77.25 704.463 82.7564 709.97 89.5489 709.97Z" fill="url(#paint0_radial_5830_27457)"/>
<g opacity="0.5">
<path d="M89.5487 709.553C87.2982 709.553 85.1076 708.92 83.2137 707.725C81.3709 706.561 79.8833 704.917 78.9116 702.971C78.8443 702.836 78.899 702.672 79.0339 702.605C79.1688 702.537 79.3327 702.592 79.4 702.727C81.3336 706.6 85.2224 709.007 89.5487 709.007C90.8553 709.007 92.1359 708.786 93.3551 708.352C93.4971 708.301 93.6532 708.375 93.7038 708.517C93.7544 708.659 93.6803 708.815 93.5383 708.866C92.2602 709.322 90.9179 709.553 89.5487 709.553Z" fill="url(#paint1_linear_5830_27457)"/>
</g>
<path d="M100.816 695.875C100.687 695.875 100.572 695.783 100.548 695.651C99.5795 690.344 94.9546 686.492 89.5509 686.492C87.0079 686.492 84.6119 687.324 82.6219 688.898C82.5037 688.991 82.3321 688.971 82.2386 688.853C82.1451 688.735 82.1651 688.563 82.2833 688.47C83.2964 687.668 84.4247 687.044 85.637 686.615C86.8914 686.171 88.2082 685.946 89.5509 685.946C92.3117 685.946 94.9931 686.924 97.1012 688.7C99.184 690.455 100.599 692.889 101.085 695.553C101.112 695.701 101.014 695.843 100.865 695.87C100.849 695.873 100.832 695.875 100.816 695.875Z" fill="url(#paint2_linear_5830_27457)"/>
<path d="M89.5489 678.97C96.3415 678.97 101.848 673.463 101.848 666.671C101.848 659.878 96.3415 654.372 89.5489 654.372C82.7564 654.372 77.25 659.878 77.25 666.671C77.25 673.463 82.7564 678.97 89.5489 678.97Z" fill="url(#paint3_radial_5830_27457)"/>
<g opacity="0.5">
<path d="M89.5487 678.553C87.2982 678.553 85.1076 677.92 83.2137 676.725C81.3709 675.561 79.8833 673.917 78.9116 671.971C78.8443 671.836 78.899 671.672 79.0339 671.605C79.1688 671.537 79.3327 671.592 79.4 671.727C81.3336 675.6 85.2224 678.007 89.5487 678.007C90.8553 678.007 92.1359 677.786 93.3551 677.352C93.4971 677.301 93.6532 677.375 93.7038 677.517C93.7544 677.659 93.6803 677.815 93.5383 677.866C92.2602 678.322 90.9179 678.553 89.5487 678.553Z" fill="url(#paint4_linear_5830_27457)"/>
</g>
<path d="M100.816 664.875C100.687 664.875 100.572 664.783 100.548 664.651C99.5795 659.344 94.9546 655.492 89.5509 655.492C87.0079 655.492 84.6119 656.324 82.6219 657.898C82.5037 657.991 82.3321 657.971 82.2386 657.853C82.1451 657.735 82.1651 657.563 82.2833 657.47C83.2964 656.668 84.4247 656.044 85.637 655.615C86.8914 655.171 88.2082 654.946 89.5509 654.946C92.3117 654.946 94.9931 655.924 97.1012 657.7C99.184 659.455 100.599 661.889 101.085 664.553C101.112 664.701 101.014 664.843 100.865 664.87C100.849 664.873 100.832 664.875 100.816 664.875Z" fill="url(#paint5_linear_5830_27457)"/>
<path d="M55.5489 678.97C62.3415 678.97 67.8479 673.463 67.8479 666.671C67.8479 659.878 62.3415 654.372 55.5489 654.372C48.7564 654.372 43.25 659.878 43.25 666.671C43.25 673.463 48.7564 678.97 55.5489 678.97Z" fill="url(#paint6_radial_5830_27457)"/>
<g opacity="0.5">
<path d="M55.5487 678.553C53.2982 678.553 51.1076 677.92 49.2137 676.725C47.3709 675.561 45.8833 673.917 44.9116 671.971C44.8443 671.836 44.899 671.672 45.0339 671.605C45.1688 671.537 45.3327 671.592 45.4 671.727C47.3336 675.6 51.2224 678.007 55.5487 678.007C56.8553 678.007 58.1359 677.786 59.3551 677.352C59.4971 677.301 59.6532 677.375 59.7038 677.517C59.7544 677.659 59.6803 677.815 59.5383 677.866C58.2602 678.322 56.9179 678.553 55.5487 678.553Z" fill="url(#paint7_linear_5830_27457)"/>
</g>
<path d="M66.8161 664.875C66.6868 664.875 66.5719 664.783 66.5479 664.651C65.5795 659.344 60.9546 655.492 55.5509 655.492C53.0079 655.492 50.6119 656.324 48.6219 657.898C48.5037 657.991 48.3321 657.971 48.2386 657.853C48.1451 657.735 48.1651 657.563 48.2833 657.47C49.2964 656.668 50.4247 656.044 51.637 655.615C52.8914 655.171 54.2082 654.946 55.5509 654.946C58.3117 654.946 60.9931 655.924 63.1012 657.7C65.184 659.455 66.5988 661.889 67.0849 664.553C67.1119 664.701 67.0137 664.843 66.8654 664.87C66.8488 664.873 66.8323 664.875 66.8161 664.875Z" fill="url(#paint8_linear_5830_27457)"/>
<path d="M107.549 160.97C114.341 160.97 119.848 155.463 119.848 148.671C119.848 141.878 114.341 136.372 107.549 136.372C100.756 136.372 95.25 141.878 95.25 148.671C95.25 155.463 100.756 160.97 107.549 160.97Z" fill="url(#paint9_radial_5830_27457)"/>
<g opacity="0.5">
<path d="M107.549 160.553C105.298 160.553 103.108 159.92 101.214 158.725C99.3709 157.561 97.8833 155.917 96.9116 153.971C96.8443 153.836 96.899 153.672 97.0339 153.605C97.1688 153.537 97.3327 153.592 97.4 153.727C99.3336 157.6 103.222 160.007 107.549 160.007C108.855 160.007 110.136 159.786 111.355 159.352C111.497 159.301 111.653 159.375 111.704 159.517C111.754 159.659 111.68 159.815 111.538 159.866C110.26 160.322 108.918 160.553 107.549 160.553Z" fill="url(#paint10_linear_5830_27457)"/>
</g>
<path d="M118.816 146.875C118.687 146.875 118.572 146.783 118.548 146.651C117.58 141.344 112.955 137.492 107.551 137.492C105.008 137.492 102.612 138.324 100.622 139.898C100.504 139.991 100.332 139.971 100.239 139.853C100.145 139.735 100.165 139.563 100.283 139.47C101.296 138.668 102.425 138.044 103.637 137.615C104.891 137.171 106.208 136.946 107.551 136.946C110.312 136.946 112.993 137.924 115.101 139.7C117.184 141.455 118.599 143.889 119.085 146.553C119.112 146.701 119.014 146.843 118.865 146.87C118.849 146.873 118.832 146.875 118.816 146.875Z" fill="url(#paint11_linear_5830_27457)"/>
<path d="M107.549 129.97C114.341 129.97 119.848 124.463 119.848 117.671C119.848 110.878 114.341 105.372 107.549 105.372C100.756 105.372 95.25 110.878 95.25 117.671C95.25 124.463 100.756 129.97 107.549 129.97Z" fill="url(#paint12_radial_5830_27457)"/>
<g opacity="0.5">
<path d="M107.549 129.553C105.298 129.553 103.108 128.92 101.214 127.725C99.3709 126.561 97.8833 124.917 96.9116 122.971C96.8443 122.836 96.899 122.672 97.0339 122.605C97.1688 122.537 97.3327 122.592 97.4 122.727C99.3336 126.6 103.222 129.007 107.549 129.007C108.855 129.007 110.136 128.786 111.355 128.352C111.497 128.301 111.653 128.375 111.704 128.517C111.754 128.659 111.68 128.815 111.538 128.866C110.26 129.322 108.918 129.553 107.549 129.553Z" fill="url(#paint13_linear_5830_27457)"/>
</g>
<path d="M118.816 115.875C118.687 115.875 118.572 115.783 118.548 115.651C117.58 110.344 112.955 106.492 107.551 106.492C105.008 106.492 102.612 107.324 100.622 108.898C100.504 108.991 100.332 108.971 100.239 108.853C100.145 108.735 100.165 108.563 100.283 108.47C101.296 107.668 102.425 107.044 103.637 106.615C104.891 106.171 106.208 105.946 107.551 105.946C110.312 105.946 112.993 106.924 115.101 108.7C117.184 110.455 118.599 112.889 119.085 115.553C119.112 115.701 119.014 115.843 118.865 115.87C118.849 115.873 118.832 115.875 118.816 115.875Z" fill="url(#paint14_linear_5830_27457)"/>
<path d="M73.5489 129.97C80.3415 129.97 85.8479 124.463 85.8479 117.671C85.8479 110.878 80.3415 105.372 73.5489 105.372C66.7564 105.372 61.25 110.878 61.25 117.671C61.25 124.463 66.7564 129.97 73.5489 129.97Z" fill="url(#paint15_radial_5830_27457)"/>
<g opacity="0.5">
<path d="M73.5487 129.553C71.2982 129.553 69.1076 128.92 67.2137 127.725C65.3709 126.561 63.8833 124.917 62.9116 122.971C62.8443 122.836 62.899 122.672 63.0339 122.605C63.1688 122.537 63.3327 122.592 63.4 122.727C65.3336 126.6 69.2224 129.007 73.5487 129.007C74.8553 129.007 76.1359 128.786 77.3551 128.352C77.4971 128.301 77.6532 128.375 77.7038 128.517C77.7544 128.659 77.6803 128.815 77.5383 128.866C76.2602 129.322 74.9179 129.553 73.5487 129.553Z" fill="url(#paint16_linear_5830_27457)"/>
</g>
<path d="M84.8161 115.875C84.6868 115.875 84.5719 115.783 84.5479 115.651C83.5795 110.344 78.9546 106.492 73.5509 106.492C71.0079 106.492 68.6119 107.324 66.6219 108.898C66.5037 108.991 66.3321 108.971 66.2386 108.853C66.1451 108.735 66.1651 108.563 66.2833 108.47C67.2964 107.668 68.4247 107.044 69.637 106.615C70.8914 106.171 72.2082 105.946 73.5509 105.946C76.3117 105.946 78.9931 106.924 81.1012 108.7C83.184 110.455 84.5988 112.889 85.0849 115.553C85.1119 115.701 85.0137 115.843 84.8654 115.87C84.8488 115.873 84.8323 115.875 84.8161 115.875Z" fill="url(#paint17_linear_5830_27457)"/>
<path d="M72.5489 160.97C79.3415 160.97 84.8479 155.463 84.8479 148.671C84.8479 141.878 79.3415 136.372 72.5489 136.372C65.7564 136.372 60.25 141.878 60.25 148.671C60.25 155.463 65.7564 160.97 72.5489 160.97Z" fill="url(#paint18_radial_5830_27457)"/>
<g opacity="0.5">
<path d="M72.5487 160.553C70.2982 160.553 68.1076 159.92 66.2137 158.725C64.3709 157.561 62.8833 155.917 61.9116 153.971C61.8443 153.836 61.899 153.672 62.0339 153.605C62.1688 153.537 62.3327 153.592 62.4 153.727C64.3336 157.6 68.2224 160.007 72.5487 160.007C73.8553 160.007 75.1359 159.786 76.3551 159.352C76.4971 159.301 76.6532 159.375 76.7038 159.517C76.7544 159.659 76.6803 159.815 76.5383 159.866C75.2602 160.322 73.9179 160.553 72.5487 160.553Z" fill="url(#paint19_linear_5830_27457)"/>
</g>
<path d="M83.8161 146.875C83.6868 146.875 83.5719 146.783 83.5479 146.651C82.5795 141.344 77.9546 137.492 72.5509 137.492C70.0079 137.492 67.6119 138.324 65.6219 139.898C65.5037 139.991 65.3321 139.971 65.2386 139.853C65.1451 139.735 65.1651 139.563 65.2833 139.47C66.2964 138.668 67.4247 138.044 68.637 137.615C69.8914 137.171 71.2082 136.946 72.5509 136.946C75.3117 136.946 77.9931 137.924 80.1012 139.7C82.184 141.455 83.5988 143.889 84.0849 146.553C84.1119 146.701 84.0137 146.843 83.8654 146.87C83.8488 146.873 83.8323 146.875 83.8161 146.875Z" fill="url(#paint20_linear_5830_27457)"/>
<path d="M106.549 229.97C113.341 229.97 118.848 224.463 118.848 217.671C118.848 210.878 113.341 205.372 106.549 205.372C99.7564 205.372 94.25 210.878 94.25 217.671C94.25 224.463 99.7564 229.97 106.549 229.97Z" fill="url(#paint21_radial_5830_27457)"/>
<g opacity="0.5">
<path d="M106.549 229.553C104.298 229.553 102.108 228.92 100.214 227.725C98.3709 226.561 96.8833 224.917 95.9116 222.971C95.8443 222.836 95.899 222.672 96.0339 222.605C96.1688 222.537 96.3327 222.592 96.4 222.727C98.3336 226.6 102.222 229.007 106.549 229.007C107.855 229.007 109.136 228.786 110.355 228.352C110.497 228.301 110.653 228.375 110.704 228.517C110.754 228.659 110.68 228.815 110.538 228.866C109.26 229.322 107.918 229.553 106.549 229.553Z" fill="url(#paint22_linear_5830_27457)"/>
</g>
<path d="M117.816 215.875C117.687 215.875 117.572 215.783 117.548 215.651C116.58 210.344 111.955 206.492 106.551 206.492C104.008 206.492 101.612 207.324 99.6219 208.898C99.5037 208.991 99.3321 208.971 99.2386 208.853C99.1451 208.735 99.1651 208.563 99.2833 208.47C100.296 207.668 101.425 207.044 102.637 206.615C103.891 206.171 105.208 205.946 106.551 205.946C109.312 205.946 111.993 206.924 114.101 208.7C116.184 210.455 117.599 212.889 118.085 215.553C118.112 215.701 118.014 215.843 117.865 215.87C117.849 215.873 117.832 215.875 117.816 215.875Z" fill="url(#paint23_linear_5830_27457)"/>
<path d="M106.549 198.97C113.341 198.97 118.848 193.463 118.848 186.671C118.848 179.878 113.341 174.372 106.549 174.372C99.7564 174.372 94.25 179.878 94.25 186.671C94.25 193.463 99.7564 198.97 106.549 198.97Z" fill="url(#paint24_radial_5830_27457)"/>
<g opacity="0.5">
<path d="M106.549 198.553C104.298 198.553 102.108 197.92 100.214 196.725C98.3709 195.561 96.8833 193.917 95.9116 191.971C95.8443 191.836 95.899 191.672 96.0339 191.605C96.1688 191.537 96.3327 191.592 96.4 191.727C98.3336 195.6 102.222 198.007 106.549 198.007C107.855 198.007 109.136 197.786 110.355 197.352C110.497 197.301 110.653 197.375 110.704 197.517C110.754 197.659 110.68 197.815 110.538 197.866C109.26 198.322 107.918 198.553 106.549 198.553Z" fill="url(#paint25_linear_5830_27457)"/>
</g>
<path d="M117.816 184.875C117.687 184.875 117.572 184.783 117.548 184.651C116.58 179.344 111.955 175.492 106.551 175.492C104.008 175.492 101.612 176.324 99.6219 177.898C99.5037 177.991 99.3321 177.971 99.2386 177.853C99.1451 177.735 99.1651 177.563 99.2833 177.47C100.296 176.668 101.425 176.044 102.637 175.615C103.891 175.171 105.208 174.946 106.551 174.946C109.312 174.946 111.993 175.924 114.101 177.7C116.184 179.455 117.599 181.889 118.085 184.553C118.112 184.701 118.014 184.843 117.865 184.87C117.849 184.873 117.832 184.875 117.816 184.875Z" fill="url(#paint26_linear_5830_27457)"/>
<path d="M72.5489 198.97C79.3415 198.97 84.8479 193.463 84.8479 186.671C84.8479 179.878 79.3415 174.372 72.5489 174.372C65.7564 174.372 60.25 179.878 60.25 186.671C60.25 193.463 65.7564 198.97 72.5489 198.97Z" fill="url(#paint27_radial_5830_27457)"/>
<g opacity="0.5">
<path d="M72.5487 198.553C70.2982 198.553 68.1076 197.92 66.2137 196.725C64.3709 195.561 62.8833 193.917 61.9116 191.971C61.8443 191.836 61.899 191.672 62.0339 191.605C62.1688 191.537 62.3327 191.592 62.4 191.727C64.3336 195.6 68.2224 198.007 72.5487 198.007C73.8553 198.007 75.1359 197.786 76.3551 197.352C76.4971 197.301 76.6532 197.375 76.7038 197.517C76.7544 197.659 76.6803 197.815 76.5383 197.866C75.2602 198.322 73.9179 198.553 72.5487 198.553Z" fill="url(#paint28_linear_5830_27457)"/>
</g>
<path d="M83.8161 184.875C83.6868 184.875 83.5719 184.783 83.5479 184.651C82.5795 179.344 77.9546 175.492 72.5509 175.492C70.0079 175.492 67.6119 176.324 65.6219 177.898C65.5037 177.991 65.3321 177.971 65.2386 177.853C65.1451 177.735 65.1651 177.563 65.2833 177.47C66.2964 176.668 67.4247 176.044 68.637 175.615C69.8914 175.171 71.2082 174.946 72.5509 174.946C75.3117 174.946 77.9931 175.924 80.1012 177.7C82.184 179.455 83.5988 181.889 84.0849 184.553C84.1119 184.701 84.0137 184.843 83.8654 184.87C83.8488 184.873 83.8323 184.875 83.8161 184.875Z" fill="url(#paint29_linear_5830_27457)"/>
<path d="M71.5489 229.97C78.3415 229.97 83.8479 224.463 83.8479 217.671C83.8479 210.878 78.3415 205.372 71.5489 205.372C64.7564 205.372 59.25 210.878 59.25 217.671C59.25 224.463 64.7564 229.97 71.5489 229.97Z" fill="url(#paint30_radial_5830_27457)"/>
<g opacity="0.5">
<path d="M71.5487 229.553C69.2982 229.553 67.1076 228.92 65.2137 227.725C63.3709 226.561 61.8833 224.917 60.9116 222.971C60.8443 222.836 60.899 222.672 61.0339 222.605C61.1688 222.537 61.3327 222.592 61.4 222.727C63.3336 226.6 67.2224 229.007 71.5487 229.007C72.8553 229.007 74.1359 228.786 75.3551 228.352C75.4971 228.301 75.6532 228.375 75.7038 228.517C75.7544 228.659 75.6803 228.815 75.5383 228.866C74.2602 229.322 72.9179 229.553 71.5487 229.553Z" fill="url(#paint31_linear_5830_27457)"/>
</g>
<path d="M82.8161 215.875C82.6868 215.875 82.5719 215.783 82.5479 215.651C81.5795 210.344 76.9546 206.492 71.5509 206.492C69.0079 206.492 66.6119 207.324 64.6219 208.898C64.5037 208.991 64.3321 208.971 64.2386 208.853C64.1451 208.735 64.1651 208.563 64.2833 208.47C65.2964 207.668 66.4247 207.044 67.637 206.615C68.8914 206.171 70.2082 205.946 71.5509 205.946C74.3117 205.946 76.9931 206.924 79.1012 208.7C81.184 210.455 82.5988 212.889 83.0849 215.553C83.1119 215.701 83.0137 215.843 82.8654 215.87C82.8488 215.873 82.8323 215.875 82.8161 215.875Z" fill="url(#paint32_linear_5830_27457)"/>
<path d="M182.549 160.97C189.341 160.97 194.848 155.463 194.848 148.671C194.848 141.878 189.341 136.372 182.549 136.372C175.756 136.372 170.25 141.878 170.25 148.671C170.25 155.463 175.756 160.97 182.549 160.97Z" fill="url(#paint33_radial_5830_27457)"/>
<g opacity="0.5">
<path d="M182.549 160.553C180.298 160.553 178.108 159.92 176.214 158.725C174.371 157.561 172.883 155.917 171.912 153.971C171.844 153.836 171.899 153.672 172.034 153.605C172.169 153.537 172.333 153.592 172.4 153.727C174.334 157.6 178.222 160.007 182.549 160.007C183.855 160.007 185.136 159.786 186.355 159.352C186.497 159.301 186.653 159.375 186.704 159.517C186.754 159.659 186.68 159.815 186.538 159.866C185.26 160.322 183.918 160.553 182.549 160.553Z" fill="url(#paint34_linear_5830_27457)"/>
</g>
<path d="M193.816 146.875C193.687 146.875 193.572 146.783 193.548 146.651C192.58 141.344 187.955 137.492 182.551 137.492C180.008 137.492 177.612 138.324 175.622 139.898C175.504 139.991 175.332 139.971 175.239 139.853C175.145 139.735 175.165 139.563 175.283 139.47C176.296 138.668 177.425 138.044 178.637 137.615C179.891 137.171 181.208 136.946 182.551 136.946C185.312 136.946 187.993 137.924 190.101 139.7C192.184 141.455 193.599 143.889 194.085 146.553C194.112 146.701 194.014 146.843 193.865 146.87C193.849 146.873 193.832 146.875 193.816 146.875Z" fill="url(#paint35_linear_5830_27457)"/>
<path d="M182.549 129.97C189.341 129.97 194.848 124.463 194.848 117.671C194.848 110.878 189.341 105.372 182.549 105.372C175.756 105.372 170.25 110.878 170.25 117.671C170.25 124.463 175.756 129.97 182.549 129.97Z" fill="url(#paint36_radial_5830_27457)"/>
<g opacity="0.5">
<path d="M182.549 129.553C180.298 129.553 178.108 128.92 176.214 127.725C174.371 126.561 172.883 124.917 171.912 122.971C171.844 122.836 171.899 122.672 172.034 122.605C172.169 122.537 172.333 122.592 172.4 122.727C174.334 126.6 178.222 129.007 182.549 129.007C183.855 129.007 185.136 128.786 186.355 128.352C186.497 128.301 186.653 128.375 186.704 128.517C186.754 128.659 186.68 128.815 186.538 128.866C185.26 129.322 183.918 129.553 182.549 129.553Z" fill="url(#paint37_linear_5830_27457)"/>
</g>
<path d="M193.816 115.875C193.687 115.875 193.572 115.783 193.548 115.651C192.58 110.344 187.955 106.492 182.551 106.492C180.008 106.492 177.612 107.324 175.622 108.898C175.504 108.991 175.332 108.971 175.239 108.853C175.145 108.735 175.165 108.563 175.283 108.47C176.296 107.668 177.425 107.044 178.637 106.615C179.891 106.171 181.208 105.946 182.551 105.946C185.312 105.946 187.993 106.924 190.101 108.7C192.184 110.455 193.599 112.889 194.085 115.553C194.112 115.701 194.014 115.843 193.865 115.87C193.849 115.873 193.832 115.875 193.816 115.875Z" fill="url(#paint38_linear_5830_27457)"/>
<path d="M148.549 129.97C155.341 129.97 160.848 124.463 160.848 117.671C160.848 110.878 155.341 105.372 148.549 105.372C141.756 105.372 136.25 110.878 136.25 117.671C136.25 124.463 141.756 129.97 148.549 129.97Z" fill="url(#paint39_radial_5830_27457)"/>
<g opacity="0.5">
<path d="M148.549 129.553C146.298 129.553 144.108 128.92 142.214 127.725C140.371 126.561 138.883 124.917 137.912 122.971C137.844 122.836 137.899 122.672 138.034 122.605C138.169 122.537 138.333 122.592 138.4 122.727C140.334 126.6 144.222 129.007 148.549 129.007C149.855 129.007 151.136 128.786 152.355 128.352C152.497 128.301 152.653 128.375 152.704 128.517C152.754 128.659 152.68 128.815 152.538 128.866C151.26 129.322 149.918 129.553 148.549 129.553Z" fill="url(#paint40_linear_5830_27457)"/>
</g>
<path d="M159.816 115.875C159.687 115.875 159.572 115.783 159.548 115.651C158.58 110.344 153.955 106.492 148.551 106.492C146.008 106.492 143.612 107.324 141.622 108.898C141.504 108.991 141.332 108.971 141.239 108.853C141.145 108.735 141.165 108.563 141.283 108.47C142.296 107.668 143.425 107.044 144.637 106.615C145.891 106.171 147.208 105.946 148.551 105.946C151.312 105.946 153.993 106.924 156.101 108.7C158.184 110.455 159.599 112.889 160.085 115.553C160.112 115.701 160.014 115.843 159.865 115.87C159.849 115.873 159.832 115.875 159.816 115.875Z" fill="url(#paint41_linear_5830_27457)"/>
<path d="M147.549 160.97C154.341 160.97 159.848 155.463 159.848 148.671C159.848 141.878 154.341 136.372 147.549 136.372C140.756 136.372 135.25 141.878 135.25 148.671C135.25 155.463 140.756 160.97 147.549 160.97Z" fill="url(#paint42_radial_5830_27457)"/>
<g opacity="0.5">
<path d="M147.549 160.553C145.298 160.553 143.108 159.92 141.214 158.725C139.371 157.561 137.883 155.917 136.912 153.971C136.844 153.836 136.899 153.672 137.034 153.605C137.169 153.537 137.333 153.592 137.4 153.727C139.334 157.6 143.222 160.007 147.549 160.007C148.855 160.007 150.136 159.786 151.355 159.352C151.497 159.301 151.653 159.375 151.704 159.517C151.754 159.659 151.68 159.815 151.538 159.866C150.26 160.322 148.918 160.553 147.549 160.553Z" fill="url(#paint43_linear_5830_27457)"/>
</g>
<path d="M158.816 146.875C158.687 146.875 158.572 146.783 158.548 146.651C157.58 141.344 152.955 137.492 147.551 137.492C145.008 137.492 142.612 138.324 140.622 139.898C140.504 139.991 140.332 139.971 140.239 139.853C140.145 139.735 140.165 139.563 140.283 139.47C141.296 138.668 142.425 138.044 143.637 137.615C144.891 137.171 146.208 136.946 147.551 136.946C150.312 136.946 152.993 137.924 155.101 139.7C157.184 141.455 158.599 143.889 159.085 146.553C159.112 146.701 159.014 146.843 158.865 146.87C158.849 146.873 158.832 146.875 158.816 146.875Z" fill="url(#paint44_linear_5830_27457)"/>
<path d="M258.549 160.97C265.341 160.97 270.848 155.463 270.848 148.671C270.848 141.878 265.341 136.372 258.549 136.372C251.756 136.372 246.25 141.878 246.25 148.671C246.25 155.463 251.756 160.97 258.549 160.97Z" fill="url(#paint45_radial_5830_27457)"/>
<g opacity="0.5">
<path d="M258.549 160.553C256.298 160.553 254.108 159.92 252.214 158.725C250.371 157.561 248.883 155.917 247.912 153.971C247.844 153.836 247.899 153.672 248.034 153.605C248.169 153.537 248.333 153.592 248.4 153.727C250.334 157.6 254.222 160.007 258.549 160.007C259.855 160.007 261.136 159.786 262.355 159.352C262.497 159.301 262.653 159.375 262.704 159.517C262.754 159.659 262.68 159.815 262.538 159.866C261.26 160.322 259.918 160.553 258.549 160.553Z" fill="url(#paint46_linear_5830_27457)"/>
</g>
<path d="M269.816 146.875C269.687 146.875 269.572 146.783 269.548 146.651C268.58 141.344 263.955 137.492 258.551 137.492C256.008 137.492 253.612 138.324 251.622 139.898C251.504 139.991 251.332 139.971 251.239 139.853C251.145 139.735 251.165 139.563 251.283 139.47C252.296 138.668 253.425 138.044 254.637 137.615C255.891 137.171 257.208 136.946 258.551 136.946C261.312 136.946 263.993 137.924 266.101 139.7C268.184 141.455 269.599 143.889 270.085 146.553C270.112 146.701 270.014 146.843 269.865 146.87C269.849 146.873 269.832 146.875 269.816 146.875Z" fill="url(#paint47_linear_5830_27457)"/>
<path d="M258.549 129.97C265.341 129.97 270.848 124.463 270.848 117.671C270.848 110.878 265.341 105.372 258.549 105.372C251.756 105.372 246.25 110.878 246.25 117.671C246.25 124.463 251.756 129.97 258.549 129.97Z" fill="url(#paint48_radial_5830_27457)"/>
<g opacity="0.5">
<path d="M258.549 129.553C256.298 129.553 254.108 128.92 252.214 127.725C250.371 126.561 248.883 124.917 247.912 122.971C247.844 122.836 247.899 122.672 248.034 122.605C248.169 122.537 248.333 122.592 248.4 122.727C250.334 126.6 254.222 129.007 258.549 129.007C259.855 129.007 261.136 128.786 262.355 128.352C262.497 128.301 262.653 128.375 262.704 128.517C262.754 128.659 262.68 128.815 262.538 128.866C261.26 129.322 259.918 129.553 258.549 129.553Z" fill="url(#paint49_linear_5830_27457)"/>
</g>
<path d="M269.816 115.875C269.687 115.875 269.572 115.783 269.548 115.651C268.58 110.344 263.955 106.492 258.551 106.492C256.008 106.492 253.612 107.324 251.622 108.898C251.504 108.991 251.332 108.971 251.239 108.853C251.145 108.735 251.165 108.563 251.283 108.47C252.296 107.668 253.425 107.044 254.637 106.615C255.891 106.171 257.208 105.946 258.551 105.946C261.312 105.946 263.993 106.924 266.101 108.7C268.184 110.455 269.599 112.889 270.085 115.553C270.112 115.701 270.014 115.843 269.865 115.87C269.849 115.873 269.832 115.875 269.816 115.875Z" fill="url(#paint50_linear_5830_27457)"/>
<path d="M224.549 129.97C231.341 129.97 236.848 124.463 236.848 117.671C236.848 110.878 231.341 105.372 224.549 105.372C217.756 105.372 212.25 110.878 212.25 117.671C212.25 124.463 217.756 129.97 224.549 129.97Z" fill="url(#paint51_radial_5830_27457)"/>
<g opacity="0.5">
<path d="M224.549 129.553C222.298 129.553 220.108 128.92 218.214 127.725C216.371 126.561 214.883 124.917 213.912 122.971C213.844 122.836 213.899 122.672 214.034 122.605C214.169 122.537 214.333 122.592 214.4 122.727C216.334 126.6 220.222 129.007 224.549 129.007C225.855 129.007 227.136 128.786 228.355 128.352C228.497 128.301 228.653 128.375 228.704 128.517C228.754 128.659 228.68 128.815 228.538 128.866C227.26 129.322 225.918 129.553 224.549 129.553Z" fill="url(#paint52_linear_5830_27457)"/>
</g>
<path d="M235.816 115.875C235.687 115.875 235.572 115.783 235.548 115.651C234.58 110.344 229.955 106.492 224.551 106.492C222.008 106.492 219.612 107.324 217.622 108.898C217.504 108.991 217.332 108.971 217.239 108.853C217.145 108.735 217.165 108.563 217.283 108.47C218.296 107.668 219.425 107.044 220.637 106.615C221.891 106.171 223.208 105.946 224.551 105.946C227.312 105.946 229.993 106.924 232.101 108.7C234.184 110.455 235.599 112.889 236.085 115.553C236.112 115.701 236.014 115.843 235.865 115.87C235.849 115.873 235.832 115.875 235.816 115.875Z" fill="url(#paint53_linear_5830_27457)"/>
<path d="M223.549 160.97C230.341 160.97 235.848 155.463 235.848 148.671C235.848 141.878 230.341 136.372 223.549 136.372C216.756 136.372 211.25 141.878 211.25 148.671C211.25 155.463 216.756 160.97 223.549 160.97Z" fill="url(#paint54_radial_5830_27457)"/>
<g opacity="0.5">
<path d="M223.549 160.553C221.298 160.553 219.108 159.92 217.214 158.725C215.371 157.561 213.883 155.917 212.912 153.971C212.844 153.836 212.899 153.672 213.034 153.605C213.169 153.537 213.333 153.592 213.4 153.727C215.334 157.6 219.222 160.007 223.549 160.007C224.855 160.007 226.136 159.786 227.355 159.352C227.497 159.301 227.653 159.375 227.704 159.517C227.754 159.659 227.68 159.815 227.538 159.866C226.26 160.322 224.918 160.553 223.549 160.553Z" fill="url(#paint55_linear_5830_27457)"/>
</g>
<path d="M234.816 146.875C234.687 146.875 234.572 146.783 234.548 146.651C233.58 141.344 228.955 137.492 223.551 137.492C221.008 137.492 218.612 138.324 216.622 139.898C216.504 139.991 216.332 139.971 216.239 139.853C216.145 139.735 216.165 139.563 216.283 139.47C217.296 138.668 218.425 138.044 219.637 137.615C220.891 137.171 222.208 136.946 223.551 136.946C226.312 136.946 228.993 137.924 231.101 139.7C233.184 141.455 234.599 143.889 235.085 146.553C235.112 146.701 235.014 146.843 234.865 146.87C234.849 146.873 234.832 146.875 234.816 146.875Z" fill="url(#paint56_linear_5830_27457)"/>
<path d="M105.549 297.97C112.341 297.97 117.848 292.463 117.848 285.671C117.848 278.878 112.341 273.372 105.549 273.372C98.7564 273.372 93.25 278.878 93.25 285.671C93.25 292.463 98.7564 297.97 105.549 297.97Z" fill="url(#paint57_radial_5830_27457)"/>
<g opacity="0.5">
<path d="M105.549 297.553C103.298 297.553 101.108 296.92 99.2137 295.725C97.3709 294.561 95.8833 292.917 94.9116 290.971C94.8443 290.836 94.899 290.672 95.0339 290.605C95.1688 290.537 95.3327 290.592 95.4 290.727C97.3336 294.6 101.222 297.007 105.549 297.007C106.855 297.007 108.136 296.786 109.355 296.352C109.497 296.301 109.653 296.375 109.704 296.517C109.754 296.659 109.68 296.815 109.538 296.866C108.26 297.322 106.918 297.553 105.549 297.553Z" fill="url(#paint58_linear_5830_27457)"/>
</g>
<path d="M116.816 283.875C116.687 283.875 116.572 283.783 116.548 283.651C115.58 278.344 110.955 274.492 105.551 274.492C103.008 274.492 100.612 275.324 98.6219 276.898C98.5037 276.991 98.3321 276.971 98.2386 276.853C98.1451 276.735 98.1651 276.563 98.2833 276.47C99.2964 275.668 100.425 275.044 101.637 274.615C102.891 274.171 104.208 273.946 105.551 273.946C108.312 273.946 110.993 274.924 113.101 276.7C115.184 278.455 116.599 280.889 117.085 283.553C117.112 283.701 117.014 283.843 116.865 283.87C116.849 283.873 116.832 283.875 116.816 283.875Z" fill="url(#paint59_linear_5830_27457)"/>
<path d="M105.549 266.97C112.341 266.97 117.848 261.463 117.848 254.671C117.848 247.878 112.341 242.372 105.549 242.372C98.7564 242.372 93.25 247.878 93.25 254.671C93.25 261.463 98.7564 266.97 105.549 266.97Z" fill="url(#paint60_radial_5830_27457)"/>
<g opacity="0.5">
<path d="M105.549 266.553C103.298 266.553 101.108 265.92 99.2137 264.725C97.3709 263.561 95.8833 261.917 94.9116 259.971C94.8443 259.836 94.899 259.672 95.0339 259.605C95.1688 259.537 95.3327 259.592 95.4 259.727C97.3336 263.6 101.222 266.007 105.549 266.007C106.855 266.007 108.136 265.786 109.355 265.352C109.497 265.301 109.653 265.375 109.704 265.517C109.754 265.659 109.68 265.815 109.538 265.866C108.26 266.322 106.918 266.553 105.549 266.553Z" fill="url(#paint61_linear_5830_27457)"/>
</g>
<path d="M116.816 252.875C116.687 252.875 116.572 252.783 116.548 252.651C115.58 247.344 110.955 243.492 105.551 243.492C103.008 243.492 100.612 244.324 98.6219 245.898C98.5037 245.991 98.3321 245.971 98.2386 245.853C98.1451 245.735 98.1651 245.563 98.2833 245.47C99.2964 244.668 100.425 244.044 101.637 243.615C102.891 243.171 104.208 242.946 105.551 242.946C108.312 242.946 110.993 243.924 113.101 245.7C115.184 247.455 116.599 249.889 117.085 252.553C117.112 252.701 117.014 252.843 116.865 252.87C116.849 252.873 116.832 252.875 116.816 252.875Z" fill="url(#paint62_linear_5830_27457)"/>
<path d="M71.5489 266.97C78.3415 266.97 83.8479 261.463 83.8479 254.671C83.8479 247.878 78.3415 242.372 71.5489 242.372C64.7564 242.372 59.25 247.878 59.25 254.671C59.25 261.463 64.7564 266.97 71.5489 266.97Z" fill="url(#paint63_radial_5830_27457)"/>
<g opacity="0.5">
<path d="M71.5487 266.553C69.2982 266.553 67.1076 265.92 65.2137 264.725C63.3709 263.561 61.8833 261.917 60.9116 259.971C60.8443 259.836 60.899 259.672 61.0339 259.605C61.1688 259.537 61.3327 259.592 61.4 259.727C63.3336 263.6 67.2224 266.007 71.5487 266.007C72.8553 266.007 74.1359 265.786 75.3551 265.352C75.4971 265.301 75.6532 265.375 75.7038 265.517C75.7544 265.659 75.6803 265.815 75.5383 265.866C74.2602 266.322 72.9179 266.553 71.5487 266.553Z" fill="url(#paint64_linear_5830_27457)"/>
</g>
<path d="M82.8161 252.875C82.6868 252.875 82.5719 252.783 82.5479 252.651C81.5795 247.344 76.9546 243.492 71.5509 243.492C69.0079 243.492 66.6119 244.324 64.6219 245.898C64.5037 245.991 64.3321 245.971 64.2386 245.853C64.1451 245.735 64.1651 245.563 64.2833 245.47C65.2964 244.668 66.4247 244.044 67.637 243.615C68.8914 243.171 70.2082 242.946 71.5509 242.946C74.3117 242.946 76.9931 243.924 79.1012 245.7C81.184 247.455 82.5988 249.889 83.0849 252.553C83.1119 252.701 83.0137 252.843 82.8654 252.87C82.8488 252.873 82.8323 252.875 82.8161 252.875Z" fill="url(#paint65_linear_5830_27457)"/>
<path d="M70.5489 297.97C77.3415 297.97 82.8479 292.463 82.8479 285.671C82.8479 278.878 77.3415 273.372 70.5489 273.372C63.7564 273.372 58.25 278.878 58.25 285.671C58.25 292.463 63.7564 297.97 70.5489 297.97Z" fill="url(#paint66_radial_5830_27457)"/>
<g opacity="0.5">
<path d="M70.5487 297.553C68.2982 297.553 66.1076 296.92 64.2137 295.725C62.3709 294.561 60.8833 292.917 59.9116 290.971C59.8443 290.836 59.899 290.672 60.0339 290.605C60.1688 290.537 60.3327 290.592 60.4 290.727C62.3336 294.6 66.2224 297.007 70.5487 297.007C71.8553 297.007 73.1359 296.786 74.3551 296.352C74.4971 296.301 74.6532 296.375 74.7038 296.517C74.7544 296.659 74.6803 296.815 74.5383 296.866C73.2602 297.322 71.9179 297.553 70.5487 297.553Z" fill="url(#paint67_linear_5830_27457)"/>
</g>
<path d="M81.8161 283.875C81.6868 283.875 81.5719 283.783 81.5479 283.651C80.5795 278.344 75.9546 274.492 70.5509 274.492C68.0079 274.492 65.6119 275.324 63.6219 276.898C63.5037 276.991 63.3321 276.971 63.2386 276.853C63.1451 276.735 63.1651 276.563 63.2833 276.47C64.2964 275.668 65.4247 275.044 66.637 274.615C67.8914 274.171 69.2082 273.946 70.5509 273.946C73.3117 273.946 75.9931 274.924 78.1012 276.7C80.184 278.455 81.5988 280.889 82.0849 283.553C82.1119 283.701 82.0137 283.843 81.8654 283.87C81.8488 283.873 81.8323 283.875 81.8161 283.875Z" fill="url(#paint68_linear_5830_27457)"/>
<path d="M181.549 299.97C188.341 299.97 193.848 294.463 193.848 287.671C193.848 280.878 188.341 275.372 181.549 275.372C174.756 275.372 169.25 280.878 169.25 287.671C169.25 294.463 174.756 299.97 181.549 299.97Z" fill="url(#paint69_radial_5830_27457)"/>
<g opacity="0.5">
<path d="M181.549 299.553C179.298 299.553 177.108 298.92 175.214 297.725C173.371 296.561 171.883 294.917 170.912 292.971C170.844 292.836 170.899 292.672 171.034 292.605C171.169 292.537 171.333 292.592 171.4 292.727C173.334 296.6 177.222 299.007 181.549 299.007C182.855 299.007 184.136 298.786 185.355 298.352C185.497 298.301 185.653 298.375 185.704 298.517C185.754 298.659 185.68 298.815 185.538 298.866C184.26 299.322 182.918 299.553 181.549 299.553Z" fill="url(#paint70_linear_5830_27457)"/>
</g>
<path d="M192.816 285.875C192.687 285.875 192.572 285.783 192.548 285.651C191.58 280.344 186.955 276.492 181.551 276.492C179.008 276.492 176.612 277.324 174.622 278.898C174.504 278.991 174.332 278.971 174.239 278.853C174.145 278.735 174.165 278.563 174.283 278.47C175.296 277.668 176.425 277.044 177.637 276.615C178.891 276.171 180.208 275.946 181.551 275.946C184.312 275.946 186.993 276.924 189.101 278.7C191.184 280.455 192.599 282.889 193.085 285.553C193.112 285.701 193.014 285.843 192.865 285.87C192.849 285.873 192.832 285.875 192.816 285.875Z" fill="url(#paint71_linear_5830_27457)"/>
<path d="M181.549 268.97C188.341 268.97 193.848 263.463 193.848 256.671C193.848 249.878 188.341 244.372 181.549 244.372C174.756 244.372 169.25 249.878 169.25 256.671C169.25 263.463 174.756 268.97 181.549 268.97Z" fill="url(#paint72_radial_5830_27457)"/>
<g opacity="0.5">
<path d="M181.549 268.553C179.298 268.553 177.108 267.92 175.214 266.725C173.371 265.561 171.883 263.917 170.912 261.971C170.844 261.836 170.899 261.672 171.034 261.605C171.169 261.537 171.333 261.592 171.4 261.727C173.334 265.6 177.222 268.007 181.549 268.007C182.855 268.007 184.136 267.786 185.355 267.352C185.497 267.301 185.653 267.375 185.704 267.517C185.754 267.659 185.68 267.815 185.538 267.866C184.26 268.322 182.918 268.553 181.549 268.553Z" fill="url(#paint73_linear_5830_27457)"/>
</g>
<path d="M192.816 254.875C192.687 254.875 192.572 254.783 192.548 254.651C191.58 249.344 186.955 245.492 181.551 245.492C179.008 245.492 176.612 246.324 174.622 247.898C174.504 247.991 174.332 247.971 174.239 247.853C174.145 247.735 174.165 247.563 174.283 247.47C175.296 246.668 176.425 246.044 177.637 245.615C178.891 245.171 180.208 244.946 181.551 244.946C184.312 244.946 186.993 245.924 189.101 247.7C191.184 249.455 192.599 251.889 193.085 254.553C193.112 254.701 193.014 254.843 192.865 254.87C192.849 254.873 192.832 254.875 192.816 254.875Z" fill="url(#paint74_linear_5830_27457)"/>
<path d="M147.549 268.97C154.341 268.97 159.848 263.463 159.848 256.671C159.848 249.878 154.341 244.372 147.549 244.372C140.756 244.372 135.25 249.878 135.25 256.671C135.25 263.463 140.756 268.97 147.549 268.97Z" fill="url(#paint75_radial_5830_27457)"/>
<g opacity="0.5">
<path d="M147.549 268.553C145.298 268.553 143.108 267.92 141.214 266.725C139.371 265.561 137.883 263.917 136.912 261.971C136.844 261.836 136.899 261.672 137.034 261.605C137.169 261.537 137.333 261.592 137.4 261.727C139.334 265.6 143.222 268.007 147.549 268.007C148.855 268.007 150.136 267.786 151.355 267.352C151.497 267.301 151.653 267.375 151.704 267.517C151.754 267.659 151.68 267.815 151.538 267.866C150.26 268.322 148.918 268.553 147.549 268.553Z" fill="url(#paint76_linear_5830_27457)"/>
</g>
<path d="M158.816 254.875C158.687 254.875 158.572 254.783 158.548 254.651C157.58 249.344 152.955 245.492 147.551 245.492C145.008 245.492 142.612 246.324 140.622 247.898C140.504 247.991 140.332 247.971 140.239 247.853C140.145 247.735 140.165 247.563 140.283 247.47C141.296 246.668 142.425 246.044 143.637 245.615C144.891 245.171 146.208 244.946 147.551 244.946C150.312 244.946 152.993 245.924 155.101 247.7C157.184 249.455 158.599 251.889 159.085 254.553C159.112 254.701 159.014 254.843 158.865 254.87C158.849 254.873 158.832 254.875 158.816 254.875Z" fill="url(#paint77_linear_5830_27457)"/>
<path d="M146.549 299.97C153.341 299.97 158.848 294.463 158.848 287.671C158.848 280.878 153.341 275.372 146.549 275.372C139.756 275.372 134.25 280.878 134.25 287.671C134.25 294.463 139.756 299.97 146.549 299.97Z" fill="url(#paint78_radial_5830_27457)"/>
<g opacity="0.5">
<path d="M146.549 299.553C144.298 299.553 142.108 298.92 140.214 297.725C138.371 296.561 136.883 294.917 135.912 292.971C135.844 292.836 135.899 292.672 136.034 292.605C136.169 292.537 136.333 292.592 136.4 292.727C138.334 296.6 142.222 299.007 146.549 299.007C147.855 299.007 149.136 298.786 150.355 298.352C150.497 298.301 150.653 298.375 150.704 298.517C150.754 298.659 150.68 298.815 150.538 298.866C149.26 299.322 147.918 299.553 146.549 299.553Z" fill="url(#paint79_linear_5830_27457)"/>
</g>
<path d="M157.816 285.875C157.687 285.875 157.572 285.783 157.548 285.651C156.58 280.344 151.955 276.492 146.551 276.492C144.008 276.492 141.612 277.324 139.622 278.898C139.504 278.991 139.332 278.971 139.239 278.853C139.145 278.735 139.165 278.563 139.283 278.47C140.296 277.668 141.425 277.044 142.637 276.615C143.891 276.171 145.208 275.946 146.551 275.946C149.312 275.946 151.993 276.924 154.101 278.7C156.184 280.455 157.599 282.889 158.085 285.553C158.112 285.701 158.014 285.843 157.865 285.87C157.849 285.873 157.832 285.875 157.816 285.875Z" fill="url(#paint80_linear_5830_27457)"/>
</g>
<defs>
<radialGradient id="paint0_radial_5830_27457" cx="0" cy="0" r="1" gradientUnits="userSpaceOnUse" gradientTransform="translate(89.5489 697.671) scale(12.2989)">
<stop stop-color="#E71818"/>
<stop offset="1" stop-color="#E60000"/>
</radialGradient>
<linearGradient id="paint1_linear_5830_27457" x1="78.8828" y1="706.064" x2="93.7197" y2="706.064" gradientUnits="userSpaceOnUse">
<stop stop-color="white" stop-opacity="0"/>
<stop offset="0.5" stop-color="white"/>
<stop offset="0.999999" stop-color="white" stop-opacity="0"/>
</linearGradient>
<linearGradient id="paint2_linear_5830_27457" x1="82.1797" y1="690.91" x2="101.089" y2="690.91" gradientUnits="userSpaceOnUse">
<stop stop-color="white" stop-opacity="0"/>
<stop offset="0.5" stop-color="white"/>
<stop offset="0.999999" stop-color="white" stop-opacity="0"/>
</linearGradient>
<radialGradient id="paint3_radial_5830_27457" cx="0" cy="0" r="1" gradientUnits="userSpaceOnUse" gradientTransform="translate(89.5489 666.671) scale(12.2989)">
<stop stop-color="#E71818"/>
<stop offset="1" stop-color="#E60000"/>
</radialGradient>
<linearGradient id="paint4_linear_5830_27457" x1="78.8828" y1="675.064" x2="93.7197" y2="675.064" gradientUnits="userSpaceOnUse">
<stop stop-color="white" stop-opacity="0"/>
<stop offset="0.5" stop-color="white"/>
<stop offset="0.999999" stop-color="white" stop-opacity="0"/>
</linearGradient>
<linearGradient id="paint5_linear_5830_27457" x1="82.1797" y1="659.91" x2="101.089" y2="659.91" gradientUnits="userSpaceOnUse">
<stop stop-color="white" stop-opacity="0"/>
<stop offset="0.5" stop-color="white"/>
<stop offset="0.999999" stop-color="white" stop-opacity="0"/>
</linearGradient>
<radialGradient id="paint6_radial_5830_27457" cx="0" cy="0" r="1" gradientUnits="userSpaceOnUse" gradientTransform="translate(55.5489 666.671) scale(12.2989)">
<stop stop-color="#E71818"/>
<stop offset="1" stop-color="#E60000"/>
</radialGradient>
<linearGradient id="paint7_linear_5830_27457" x1="44.8828" y1="675.064" x2="59.7197" y2="675.064" gradientUnits="userSpaceOnUse">
<stop stop-color="white" stop-opacity="0"/>
<stop offset="0.5" stop-color="white"/>
<stop offset="0.999999" stop-color="white" stop-opacity="0"/>
</linearGradient>
<linearGradient id="paint8_linear_5830_27457" x1="48.1797" y1="659.91" x2="67.0894" y2="659.91" gradientUnits="userSpaceOnUse">
<stop stop-color="white" stop-opacity="0"/>
<stop offset="0.5" stop-color="white"/>
<stop offset="0.999999" stop-color="white" stop-opacity="0"/>
</linearGradient>
<radialGradient id="paint9_radial_5830_27457" cx="0" cy="0" r="1" gradientUnits="userSpaceOnUse" gradientTransform="translate(107.549 148.671) scale(12.2989)">
<stop stop-color="#4681F5"/>
<stop offset="1" stop-color="#0078E6"/>
</radialGradient>
<linearGradient id="paint10_linear_5830_27457" x1="96.8828" y1="157.064" x2="111.72" y2="157.064" gradientUnits="userSpaceOnUse">
<stop stop-color="white" stop-opacity="0"/>
<stop offset="0.5" stop-color="white"/>
<stop offset="0.999999" stop-color="white" stop-opacity="0"/>
</linearGradient>
<linearGradient id="paint11_linear_5830_27457" x1="100.18" y1="141.91" x2="119.089" y2="141.91" gradientUnits="userSpaceOnUse">
<stop stop-color="white" stop-opacity="0"/>
<stop offset="0.5" stop-color="white"/>
<stop offset="0.999999" stop-color="white" stop-opacity="0"/>
</linearGradient>
<radialGradient id="paint12_radial_5830_27457" cx="0" cy="0" r="1" gradientUnits="userSpaceOnUse" gradientTransform="translate(107.549 117.671) scale(12.2989)">
<stop stop-color="#4681F5"/>
<stop offset="1" stop-color="#0078E6"/>
</radialGradient>
<linearGradient id="paint13_linear_5830_27457" x1="96.8828" y1="126.064" x2="111.72" y2="126.064" gradientUnits="userSpaceOnUse">
<stop stop-color="white" stop-opacity="0"/>
<stop offset="0.5" stop-color="white"/>
<stop offset="0.999999" stop-color="white" stop-opacity="0"/>
</linearGradient>
<linearGradient id="paint14_linear_5830_27457" x1="100.18" y1="110.91" x2="119.089" y2="110.91" gradientUnits="userSpaceOnUse">
<stop stop-color="white" stop-opacity="0"/>
<stop offset="0.5" stop-color="white"/>
<stop offset="0.999999" stop-color="white" stop-opacity="0"/>
</linearGradient>
<radialGradient id="paint15_radial_5830_27457" cx="0" cy="0" r="1" gradientUnits="userSpaceOnUse" gradientTransform="translate(73.5489 117.671) scale(12.2989)">
<stop stop-color="#4681F5"/>
<stop offset="1" stop-color="#0078E6"/>
</radialGradient>
<linearGradient id="paint16_linear_5830_27457" x1="62.8828" y1="126.064" x2="77.7197" y2="126.064" gradientUnits="userSpaceOnUse">
<stop stop-color="white" stop-opacity="0"/>
<stop offset="0.5" stop-color="white"/>
<stop offset="0.999999" stop-color="white" stop-opacity="0"/>
</linearGradient>
<linearGradient id="paint17_linear_5830_27457" x1="66.1797" y1="110.91" x2="85.0894" y2="110.91" gradientUnits="userSpaceOnUse">
<stop stop-color="white" stop-opacity="0"/>
<stop offset="0.5" stop-color="white"/>
<stop offset="0.999999" stop-color="white" stop-opacity="0"/>
</linearGradient>
<radialGradient id="paint18_radial_5830_27457" cx="0" cy="0" r="1" gradientUnits="userSpaceOnUse" gradientTransform="translate(72.5489 148.671) scale(12.2989)">
<stop stop-color="#4681F5"/>
<stop offset="1" stop-color="#0078E6"/>
</radialGradient>
<linearGradient id="paint19_linear_5830_27457" x1="61.8828" y1="157.064" x2="76.7197" y2="157.064" gradientUnits="userSpaceOnUse">
<stop stop-color="white" stop-opacity="0"/>
<stop offset="0.5" stop-color="white"/>
<stop offset="0.999999" stop-color="white" stop-opacity="0"/>
</linearGradient>
<linearGradient id="paint20_linear_5830_27457" x1="65.1797" y1="141.91" x2="84.0894" y2="141.91" gradientUnits="userSpaceOnUse">
<stop stop-color="white" stop-opacity="0"/>
<stop offset="0.5" stop-color="white"/>
<stop offset="0.999999" stop-color="white" stop-opacity="0"/>
</linearGradient>
<radialGradient id="paint21_radial_5830_27457" cx="0" cy="0" r="1" gradientUnits="userSpaceOnUse" gradientTransform="translate(106.549 217.671) scale(12.2989)">
<stop stop-color="#4681F5"/>
<stop offset="1" stop-color="#0078E6"/>
</radialGradient>
<linearGradient id="paint22_linear_5830_27457" x1="95.8828" y1="226.064" x2="110.72" y2="226.064" gradientUnits="userSpaceOnUse">
<stop stop-color="white" stop-opacity="0"/>
<stop offset="0.5" stop-color="white"/>
<stop offset="0.999999" stop-color="white" stop-opacity="0"/>
</linearGradient>
<linearGradient id="paint23_linear_5830_27457" x1="99.1797" y1="210.91" x2="118.089" y2="210.91" gradientUnits="userSpaceOnUse">
<stop stop-color="white" stop-opacity="0"/>
<stop offset="0.5" stop-color="white"/>
<stop offset="0.999999" stop-color="white" stop-opacity="0"/>
</linearGradient>
<radialGradient id="paint24_radial_5830_27457" cx="0" cy="0" r="1" gradientUnits="userSpaceOnUse" gradientTransform="translate(106.549 186.671) scale(12.2989)">
<stop stop-color="#4681F5"/>
<stop offset="1" stop-color="#0078E6"/>
</radialGradient>
<linearGradient id="paint25_linear_5830_27457" x1="95.8828" y1="195.064" x2="110.72" y2="195.064" gradientUnits="userSpaceOnUse">
<stop stop-color="white" stop-opacity="0"/>
<stop offset="0.5" stop-color="white"/>
<stop offset="0.999999" stop-color="white" stop-opacity="0"/>
</linearGradient>
<linearGradient id="paint26_linear_5830_27457" x1="99.1797" y1="179.91" x2="118.089" y2="179.91" gradientUnits="userSpaceOnUse">
<stop stop-color="white" stop-opacity="0"/>
<stop offset="0.5" stop-color="white"/>
<stop offset="0.999999" stop-color="white" stop-opacity="0"/>
</linearGradient>
<radialGradient id="paint27_radial_5830_27457" cx="0" cy="0" r="1" gradientUnits="userSpaceOnUse" gradientTransform="translate(72.5489 186.671) scale(12.2989)">
<stop stop-color="#4681F5"/>
<stop offset="1" stop-color="#0078E6"/>
</radialGradient>
<linearGradient id="paint28_linear_5830_27457" x1="61.8828" y1="195.064" x2="76.7197" y2="195.064" gradientUnits="userSpaceOnUse">
<stop stop-color="white" stop-opacity="0"/>
<stop offset="0.5" stop-color="white"/>
<stop offset="0.999999" stop-color="white" stop-opacity="0"/>
</linearGradient>
<linearGradient id="paint29_linear_5830_27457" x1="65.1797" y1="179.91" x2="84.0894" y2="179.91" gradientUnits="userSpaceOnUse">
<stop stop-color="white" stop-opacity="0"/>
<stop offset="0.5" stop-color="white"/>
<stop offset="0.999999" stop-color="white" stop-opacity="0"/>
</linearGradient>
<radialGradient id="paint30_radial_5830_27457" cx="0" cy="0" r="1" gradientUnits="userSpaceOnUse" gradientTransform="translate(71.5489 217.671) scale(12.2989)">
<stop stop-color="#4681F5"/>
<stop offset="1" stop-color="#0078E6"/>
</radialGradient>
<linearGradient id="paint31_linear_5830_27457" x1="60.8828" y1="226.064" x2="75.7197" y2="226.064" gradientUnits="userSpaceOnUse">
<stop stop-color="white" stop-opacity="0"/>
<stop offset="0.5" stop-color="white"/>
<stop offset="0.999999" stop-color="white" stop-opacity="0"/>
</linearGradient>
<linearGradient id="paint32_linear_5830_27457" x1="64.1797" y1="210.91" x2="83.0894" y2="210.91" gradientUnits="userSpaceOnUse">
<stop stop-color="white" stop-opacity="0"/>
<stop offset="0.5" stop-color="white"/>
<stop offset="0.999999" stop-color="white" stop-opacity="0"/>
</linearGradient>
<radialGradient id="paint33_radial_5830_27457" cx="0" cy="0" r="1" gradientUnits="userSpaceOnUse" gradientTransform="translate(182.549 148.671) scale(12.2989)">
<stop stop-color="#4681F5"/>
<stop offset="1" stop-color="#0078E6"/>
</radialGradient>
<linearGradient id="paint34_linear_5830_27457" x1="171.883" y1="157.064" x2="186.72" y2="157.064" gradientUnits="userSpaceOnUse">
<stop stop-color="white" stop-opacity="0"/>
<stop offset="0.5" stop-color="white"/>
<stop offset="0.999999" stop-color="white" stop-opacity="0"/>
</linearGradient>
<linearGradient id="paint35_linear_5830_27457" x1="175.18" y1="141.91" x2="194.089" y2="141.91" gradientUnits="userSpaceOnUse">
<stop stop-color="white" stop-opacity="0"/>
<stop offset="0.5" stop-color="white"/>
<stop offset="0.999999" stop-color="white" stop-opacity="0"/>
</linearGradient>
<radialGradient id="paint36_radial_5830_27457" cx="0" cy="0" r="1" gradientUnits="userSpaceOnUse" gradientTransform="translate(182.549 117.671) scale(12.2989)">
<stop stop-color="#4681F5"/>
<stop offset="1" stop-color="#0078E6"/>
</radialGradient>
<linearGradient id="paint37_linear_5830_27457" x1="171.883" y1="126.064" x2="186.72" y2="126.064" gradientUnits="userSpaceOnUse">
<stop stop-color="white" stop-opacity="0"/>
<stop offset="0.5" stop-color="white"/>
<stop offset="0.999999" stop-color="white" stop-opacity="0"/>
</linearGradient>
<linearGradient id="paint38_linear_5830_27457" x1="175.18" y1="110.91" x2="194.089" y2="110.91" gradientUnits="userSpaceOnUse">
<stop stop-color="white" stop-opacity="0"/>
<stop offset="0.5" stop-color="white"/>
<stop offset="0.999999" stop-color="white" stop-opacity="0"/>
</linearGradient>
<radialGradient id="paint39_radial_5830_27457" cx="0" cy="0" r="1" gradientUnits="userSpaceOnUse" gradientTransform="translate(148.549 117.671) scale(12.2989)">
<stop stop-color="#4681F5"/>
<stop offset="1" stop-color="#0078E6"/>
</radialGradient>
<linearGradient id="paint40_linear_5830_27457" x1="137.883" y1="126.064" x2="152.72" y2="126.064" gradientUnits="userSpaceOnUse">
<stop stop-color="white" stop-opacity="0"/>
<stop offset="0.5" stop-color="white"/>
<stop offset="0.999999" stop-color="white" stop-opacity="0"/>
</linearGradient>
<linearGradient id="paint41_linear_5830_27457" x1="141.18" y1="110.91" x2="160.089" y2="110.91" gradientUnits="userSpaceOnUse">
<stop stop-color="white" stop-opacity="0"/>
<stop offset="0.5" stop-color="white"/>
<stop offset="0.999999" stop-color="white" stop-opacity="0"/>
</linearGradient>
<radialGradient id="paint42_radial_5830_27457" cx="0" cy="0" r="1" gradientUnits="userSpaceOnUse" gradientTransform="translate(147.549 148.671) scale(12.2989)">
<stop stop-color="#4681F5"/>
<stop offset="1" stop-color="#0078E6"/>
</radialGradient>
<linearGradient id="paint43_linear_5830_27457" x1="136.883" y1="157.064" x2="151.72" y2="157.064" gradientUnits="userSpaceOnUse">
<stop stop-color="white" stop-opacity="0"/>
<stop offset="0.5" stop-color="white"/>
<stop offset="0.999999" stop-color="white" stop-opacity="0"/>
</linearGradient>
<linearGradient id="paint44_linear_5830_27457" x1="140.18" y1="141.91" x2="159.089" y2="141.91" gradientUnits="userSpaceOnUse">
<stop stop-color="white" stop-opacity="0"/>
<stop offset="0.5" stop-color="white"/>
<stop offset="0.999999" stop-color="white" stop-opacity="0"/>
</linearGradient>
<radialGradient id="paint45_radial_5830_27457" cx="0" cy="0" r="1" gradientUnits="userSpaceOnUse" gradientTransform="translate(258.549 148.671) scale(12.2989)">
<stop stop-color="#4681F5"/>
<stop offset="1" stop-color="#0078E6"/>
</radialGradient>
<linearGradient id="paint46_linear_5830_27457" x1="247.883" y1="157.064" x2="262.72" y2="157.064" gradientUnits="userSpaceOnUse">
<stop stop-color="white" stop-opacity="0"/>
<stop offset="0.5" stop-color="white"/>
<stop offset="0.999999" stop-color="white" stop-opacity="0"/>
</linearGradient>
<linearGradient id="paint47_linear_5830_27457" x1="251.18" y1="141.91" x2="270.089" y2="141.91" gradientUnits="userSpaceOnUse">
<stop stop-color="white" stop-opacity="0"/>
<stop offset="0.5" stop-color="white"/>
<stop offset="0.999999" stop-color="white" stop-opacity="0"/>
</linearGradient>
<radialGradient id="paint48_radial_5830_27457" cx="0" cy="0" r="1" gradientUnits="userSpaceOnUse" gradientTransform="translate(258.549 117.671) scale(12.2989)">
<stop stop-color="#4681F5"/>
<stop offset="1" stop-color="#0078E6"/>
</radialGradient>
<linearGradient id="paint49_linear_5830_27457" x1="247.883" y1="126.064" x2="262.72" y2="126.064" gradientUnits="userSpaceOnUse">
<stop stop-color="white" stop-opacity="0"/>
<stop offset="0.5" stop-color="white"/>
<stop offset="0.999999" stop-color="white" stop-opacity="0"/>
</linearGradient>
<linearGradient id="paint50_linear_5830_27457" x1="251.18" y1="110.91" x2="270.089" y2="110.91" gradientUnits="userSpaceOnUse">
<stop stop-color="white" stop-opacity="0"/>
<stop offset="0.5" stop-color="white"/>
<stop offset="0.999999" stop-color="white" stop-opacity="0"/>
</linearGradient>
<radialGradient id="paint51_radial_5830_27457" cx="0" cy="0" r="1" gradientUnits="userSpaceOnUse" gradientTransform="translate(224.549 117.671) scale(12.2989)">
<stop stop-color="#4681F5"/>
<stop offset="1" stop-color="#0078E6"/>
</radialGradient>
<linearGradient id="paint52_linear_5830_27457" x1="213.883" y1="126.064" x2="228.72" y2="126.064" gradientUnits="userSpaceOnUse">
<stop stop-color="white" stop-opacity="0"/>
<stop offset="0.5" stop-color="white"/>
<stop offset="0.999999" stop-color="white" stop-opacity="0"/>
</linearGradient>
<linearGradient id="paint53_linear_5830_27457" x1="217.18" y1="110.91" x2="236.089" y2="110.91" gradientUnits="userSpaceOnUse">
<stop stop-color="white" stop-opacity="0"/>
<stop offset="0.5" stop-color="white"/>
<stop offset="0.999999" stop-color="white" stop-opacity="0"/>
</linearGradient>
<radialGradient id="paint54_radial_5830_27457" cx="0" cy="0" r="1" gradientUnits="userSpaceOnUse" gradientTransform="translate(223.549 148.671) scale(12.2989)">
<stop stop-color="#4681F5"/>
<stop offset="1" stop-color="#0078E6"/>
</radialGradient>
<linearGradient id="paint55_linear_5830_27457" x1="212.883" y1="157.064" x2="227.72" y2="157.064" gradientUnits="userSpaceOnUse">
<stop stop-color="white" stop-opacity="0"/>
<stop offset="0.5" stop-color="white"/>
<stop offset="0.999999" stop-color="white" stop-opacity="0"/>
</linearGradient>
<linearGradient id="paint56_linear_5830_27457" x1="216.18" y1="141.91" x2="235.089" y2="141.91" gradientUnits="userSpaceOnUse">
<stop stop-color="white" stop-opacity="0"/>
<stop offset="0.5" stop-color="white"/>
<stop offset="0.999999" stop-color="white" stop-opacity="0"/>
</linearGradient>
<radialGradient id="paint57_radial_5830_27457" cx="0" cy="0" r="1" gradientUnits="userSpaceOnUse" gradientTransform="translate(105.549 285.671) scale(12.2989)">
<stop stop-color="#4681F5"/>
<stop offset="1" stop-color="#0078E6"/>
</radialGradient>
<linearGradient id="paint58_linear_5830_27457" x1="94.8828" y1="294.064" x2="109.72" y2="294.064" gradientUnits="userSpaceOnUse">
<stop stop-color="white" stop-opacity="0"/>
<stop offset="0.5" stop-color="white"/>
<stop offset="0.999999" stop-color="white" stop-opacity="0"/>
</linearGradient>
<linearGradient id="paint59_linear_5830_27457" x1="98.1797" y1="278.91" x2="117.089" y2="278.91" gradientUnits="userSpaceOnUse">
<stop stop-color="white" stop-opacity="0"/>
<stop offset="0.5" stop-color="white"/>
<stop offset="0.999999" stop-color="white" stop-opacity="0"/>
</linearGradient>
<radialGradient id="paint60_radial_5830_27457" cx="0" cy="0" r="1" gradientUnits="userSpaceOnUse" gradientTransform="translate(105.549 254.671) scale(12.2989)">
<stop stop-color="#4681F5"/>
<stop offset="1" stop-color="#0078E6"/>
</radialGradient>
<linearGradient id="paint61_linear_5830_27457" x1="94.8828" y1="263.064" x2="109.72" y2="263.064" gradientUnits="userSpaceOnUse">
<stop stop-color="white" stop-opacity="0"/>
<stop offset="0.5" stop-color="white"/>
<stop offset="0.999999" stop-color="white" stop-opacity="0"/>
</linearGradient>
<linearGradient id="paint62_linear_5830_27457" x1="98.1797" y1="247.91" x2="117.089" y2="247.91" gradientUnits="userSpaceOnUse">
<stop stop-color="white" stop-opacity="0"/>
<stop offset="0.5" stop-color="white"/>
<stop offset="0.999999" stop-color="white" stop-opacity="0"/>
</linearGradient>
<radialGradient id="paint63_radial_5830_27457" cx="0" cy="0" r="1" gradientUnits="userSpaceOnUse" gradientTransform="translate(71.5489 254.671) scale(12.2989)">
<stop stop-color="#4681F5"/>
<stop offset="1" stop-color="#0078E6"/>
</radialGradient>
<linearGradient id="paint64_linear_5830_27457" x1="60.8828" y1="263.064" x2="75.7197" y2="263.064" gradientUnits="userSpaceOnUse">
<stop stop-color="white" stop-opacity="0"/>
<stop offset="0.5" stop-color="white"/>
<stop offset="0.999999" stop-color="white" stop-opacity="0"/>
</linearGradient>
<linearGradient id="paint65_linear_5830_27457" x1="64.1797" y1="247.91" x2="83.0894" y2="247.91" gradientUnits="userSpaceOnUse">
<stop stop-color="white" stop-opacity="0"/>
<stop offset="0.5" stop-color="white"/>
<stop offset="0.999999" stop-color="white" stop-opacity="0"/>
</linearGradient>
<radialGradient id="paint66_radial_5830_27457" cx="0" cy="0" r="1" gradientUnits="userSpaceOnUse" gradientTransform="translate(70.5489 285.671) scale(12.2989)">
<stop stop-color="#4681F5"/>
<stop offset="1" stop-color="#0078E6"/>
</radialGradient>
<linearGradient id="paint67_linear_5830_27457" x1="59.8828" y1="294.064" x2="74.7197" y2="294.064" gradientUnits="userSpaceOnUse">
<stop stop-color="white" stop-opacity="0"/>
<stop offset="0.5" stop-color="white"/>
<stop offset="0.999999" stop-color="white" stop-opacity="0"/>
</linearGradient>
<linearGradient id="paint68_linear_5830_27457" x1="63.1797" y1="278.91" x2="82.0894" y2="278.91" gradientUnits="userSpaceOnUse">
<stop stop-color="white" stop-opacity="0"/>
<stop offset="0.5" stop-color="white"/>
<stop offset="0.999999" stop-color="white" stop-opacity="0"/>
</linearGradient>
<radialGradient id="paint69_radial_5830_27457" cx="0" cy="0" r="1" gradientUnits="userSpaceOnUse" gradientTransform="translate(181.549 287.671) scale(12.2989)">
<stop stop-color="#4681F5"/>
<stop offset="1" stop-color="#0078E6"/>
</radialGradient>
<linearGradient id="paint70_linear_5830_27457" x1="170.883" y1="296.064" x2="185.72" y2="296.064" gradientUnits="userSpaceOnUse">
<stop stop-color="white" stop-opacity="0"/>
<stop offset="0.5" stop-color="white"/>
<stop offset="0.999999" stop-color="white" stop-opacity="0"/>
</linearGradient>
<linearGradient id="paint71_linear_5830_27457" x1="174.18" y1="280.91" x2="193.089" y2="280.91" gradientUnits="userSpaceOnUse">
<stop stop-color="white" stop-opacity="0"/>
<stop offset="0.5" stop-color="white"/>
<stop offset="0.999999" stop-color="white" stop-opacity="0"/>
</linearGradient>
<radialGradient id="paint72_radial_5830_27457" cx="0" cy="0" r="1" gradientUnits="userSpaceOnUse" gradientTransform="translate(181.549 256.671) scale(12.2989)">
<stop stop-color="#4681F5"/>
<stop offset="1" stop-color="#0078E6"/>
</radialGradient>
<linearGradient id="paint73_linear_5830_27457" x1="170.883" y1="265.064" x2="185.72" y2="265.064" gradientUnits="userSpaceOnUse">
<stop stop-color="white" stop-opacity="0"/>
<stop offset="0.5" stop-color="white"/>
<stop offset="0.999999" stop-color="white" stop-opacity="0"/>
</linearGradient>
<linearGradient id="paint74_linear_5830_27457" x1="174.18" y1="249.91" x2="193.089" y2="249.91" gradientUnits="userSpaceOnUse">
<stop stop-color="white" stop-opacity="0"/>
<stop offset="0.5" stop-color="white"/>
<stop offset="0.999999" stop-color="white" stop-opacity="0"/>
</linearGradient>
<radialGradient id="paint75_radial_5830_27457" cx="0" cy="0" r="1" gradientUnits="userSpaceOnUse" gradientTransform="translate(147.549 256.671) scale(12.2989)">
<stop stop-color="#4681F5"/>
<stop offset="1" stop-color="#0078E6"/>
</radialGradient>
<linearGradient id="paint76_linear_5830_27457" x1="136.883" y1="265.064" x2="151.72" y2="265.064" gradientUnits="userSpaceOnUse">
<stop stop-color="white" stop-opacity="0"/>
<stop offset="0.5" stop-color="white"/>
<stop offset="0.999999" stop-color="white" stop-opacity="0"/>
</linearGradient>
<linearGradient id="paint77_linear_5830_27457" x1="140.18" y1="249.91" x2="159.089" y2="249.91" gradientUnits="userSpaceOnUse">
<stop stop-color="white" stop-opacity="0"/>
<stop offset="0.5" stop-color="white"/>
<stop offset="0.999999" stop-color="white" stop-opacity="0"/>
</linearGradient>
<radialGradient id="paint78_radial_5830_27457" cx="0" cy="0" r="1" gradientUnits="userSpaceOnUse" gradientTransform="translate(146.549 287.671) scale(12.2989)">
<stop stop-color="#4681F5"/>
<stop offset="1" stop-color="#0078E6"/>
</radialGradient>
<linearGradient id="paint79_linear_5830_27457" x1="135.883" y1="296.064" x2="150.72" y2="296.064" gradientUnits="userSpaceOnUse">
<stop stop-color="white" stop-opacity="0"/>
<stop offset="0.5" stop-color="white"/>
<stop offset="0.999999" stop-color="white" stop-opacity="0"/>
</linearGradient>
<linearGradient id="paint80_linear_5830_27457" x1="139.18" y1="280.91" x2="158.089" y2="280.91" gradientUnits="userSpaceOnUse">
<stop stop-color="white" stop-opacity="0"/>
<stop offset="0.5" stop-color="white"/>
<stop offset="0.999999" stop-color="white" stop-opacity="0"/>
</linearGradient>
<clipPath id="clip0_5830_27457">
<rect width="821" height="487" fill="white" transform="translate(487) rotate(90)"/>
</clipPath>
</defs>
</svg>
