<?xml version="1.0" encoding="utf-8"?>
<!-- Generator: Adobe Illustrator 27.0.0, SVG Export Plug-In . SVG Version: 6.00 Build 0)  -->
<svg version="1.1" id="Layer_1" xmlns="http://www.w3.org/2000/svg" xmlns:xlink="http://www.w3.org/1999/xlink" x="0px" y="0px"
	 viewBox="0 0 1000 1000" style="enable-background:new 0 0 1000 1000;" xml:space="preserve">
<style type="text/css">
	.st0{fill:#FFFFFF;}
	.st1{fill-rule:evenodd;clip-rule:evenodd;fill:#EC1C24;}
	.st2{fill-rule:evenodd;clip-rule:evenodd;fill:#F48120;}
	.st3{fill-rule:evenodd;clip-rule:evenodd;fill:#FDEE36;}
	.st4{fill-rule:evenodd;clip-rule:evenodd;fill:#4FB864;}
	.st5{fill-rule:evenodd;clip-rule:evenodd;fill:#9F99CA;}
	.st6{fill-rule:evenodd;clip-rule:evenodd;fill:#7670B2;}
	.st7{fill-rule:evenodd;clip-rule:evenodd;fill:#C5579F;}
	.st8{fill:#211315;}
</style>
<g id="background">
	<circle class="st0" cx="499" cy="499.4" r="423.5"/>
</g>
<g id="color">
	<path class="st1" d="M533.2,346.1l-19.5-145.7c0,0,151.3-25.2,250.8,74.3l-94.6,115.6C669.9,390.4,621.6,342.1,533.2,346.1
		L533.2,346.1z"/>
	<path class="st2" d="M644.8,435.2l101-106.8c0,0,114.7,101.8,99.9,241.7l-149.4-0.9C696.3,569.3,703.5,501.5,644.8,435.2
		L644.8,435.2z"/>
	<path class="st3" d="M645.2,579.1l146.4,12.5c0,0-8.2,153.2-126.9,228.7l-92.4-117.4C572.3,702.9,629.9,666.3,645.2,579.1
		L645.2,579.1z"/>
	<path class="st4" d="M532.8,669l81.5,122.4c0,0-124.9,89-258,43.3l34.3-145.4C390.6,689.2,455.1,711.4,532.8,669z"/>
	<path class="st5" d="M392.5,637.2l-44.9,139.9c0,0-147.4-42.2-194.6-174.8l135.1-63.8C288.1,538.5,310.9,602.8,392.5,637.2
		L392.5,637.2z"/>
	<path class="st6" d="M329.9,507.6l-137.4,52c0,0-58.8-141.6,15.5-261.1l134.1,65.9C342.1,364.5,306.1,422.4,329.9,507.6
		L329.9,507.6z"/>
	<path class="st7" d="M392.4,377.9L266,302.8c0,0,74.1-134.3,213.9-150.5l32,145.9C511.9,298.2,444.1,306.1,392.4,377.9L392.4,377.9
		z"/>
	<path class="st8" d="M458.1,396.8c-57.3,23.1-85,88.4-61.9,145.7c23.1,57.3,88.4,85,145.7,61.9c57.3-23.1,85-88.4,61.9-145.7
		c-17.1-42.3-58.1-70-103.8-70C485.6,388.6,471.4,391.4,458.1,396.8z"/>
	<path class="st0" d="M416.5,546.9c-5.4-3.3-10.3-7.3-14.7-11.8c-6.7-18.8-7.8-39.1-3.4-58.5c2.1-4.1,4.5-8.1,7.1-11.8
		c0.8-1.2,1.6-2.4,2.5-3.5l25.1,14.9v0.6c-0.1,13.5,1.3,26.9,4,40.1c0,0.1,0,0.1,0,0.2l-19.5,30.5
		C417.2,547.4,416.8,547.1,416.5,546.9L416.5,546.9z"/>
	<path class="st0" d="M491.2,598.5c4.3,2.2,8.8,4.1,13.4,5.6c-19.7,0.9-39.3-3.9-56.5-13.7l42.1,7.5
		C490.5,598.2,490.9,598.3,491.2,598.5L491.2,598.5z"/>
	<path class="st0" d="M491,590.9l-49.7-8.9c-5.8-7-11-14.6-15.5-22.5c-1.1-2-2.4-4-3.4-6.1l19.5-30.5l1.5,0.4
		c12.2,3.2,24.6,5.7,37,7.4c0.7,0.1,1.3,0.2,1.9,0.2l23.3,40.3c-4,5.7-8.1,11.4-12.3,17C492.5,589.2,491.8,590.1,491,590.9
		L491,590.9z"/>
	<path class="st0" d="M573.7,573.7c-3.9,3.9-8.1,7.5-12.5,10.7c-0.7-5.8-2-11.5-3.8-17.1l24.9-46.5c6.9-3,13.4-6.7,19.6-11.1
		c0.8-0.5,1.4-1.2,2-1.9C602.1,532.8,591.4,556.1,573.7,573.7L573.7,573.7z"/>
	<path class="st0" d="M572.6,513.5c0.9,1.8,1.8,3.5,2.8,5.4l-24,44.9l-0.4,0.1c-13,2.4-26.1,3.7-39.3,3.8l-24-41.5
		c3.7-6.9,7.4-13.9,11.1-20.9c2.5-4.7,4.9-9.5,7.4-14.2l49.7-5.1C562,494.7,567.6,504,572.6,513.5L572.6,513.5z"/>
	<path class="st0" d="M562.5,460.3c-2.4,6.2-4.9,12.4-7.4,18.6l-48.4,5c-0.6-0.8-1.2-1.5-1.8-2.2c-5.7-6.5-11.5-12.9-17.2-19.4
		l0.1-0.2l-7-7l13.5-40.5c0.9-0.3,1.9-0.4,2.8-0.6c7.3-0.7,14.7-1.6,22-2c4.5-0.3,9.1-0.3,13.6-0.1l33.3,37.6
		C565,453.1,563.8,456.8,562.5,460.3L562.5,460.3z"/>
	<path class="st0" d="M573.7,426.3c8.9,8.9,16.2,19.4,21.3,30.9c-6.2-4.3-12.9-7.8-19.9-10.7c-1.1-0.5-2.2-0.9-3.3-1.2l-32.8-37
		c0.2-1.6,0.4-3.2,0.4-4.8C552.3,408.7,563.9,416.4,573.7,426.3L573.7,426.3z"/>
	<path class="st0" d="M466.6,401.5c0.1,0.1,0.2,0.2,0.3,0.2c7.4,2.7,14.4,6.3,20.8,10.9L475,450.6c-0.1,0-0.1,0-0.2,0.1
		c-2.6,1.1-5.2,2-7.7,3.2c-10.5,4.6-20.6,10.1-30.2,16.3L412,455.4c0-0.8,0.2-1.5,0.4-2.3c1.7-4.4,3.3-8.9,5.2-13.3
		c1.5-3.3,3.1-6.6,4.9-9.8c1.2-1.3,2.4-2.6,3.7-3.9c11.4-11.4,25.3-20,40.6-25.1C466.7,401.3,466.6,401.4,466.6,401.5L466.6,401.5z"
		/>
</g>
</svg>
