<svg width="103" height="74" viewBox="0 0 103 74" fill="none" xmlns="http://www.w3.org/2000/svg">
<g id="logo final 2" clip-path="url(#clip0_5551_5087)">
<g id="Group">
<g id="Group_2">
<g id="Group_3">
<g id="Group_4">
<g id="Group_5">
<path id="Vector" d="M51.7322 25.5097L45.1284 36.509C36.0966 51.5207 23.465 63.026 8.84401 69.5521L0.672852 73.2002C0.672852 73.2002 40.5223 7.17375 40.8732 6.67261L51.7322 25.5097Z" fill="#00C4FB"/>
<path id="Vector_2" d="M68.7015 54.8884L68.9101 54.9464L68.8736 54.8884L65.1911 48.5412L40.8729 6.66288C43.3804 3.12266 46.9057 0.157715 52.0944 0.157715C57.7597 0.157715 61.5052 3.69793 64.16 8.21625L102.341 73.1921H37.8623C45.0338 61.6095 56.5118 54.7869 68.7015 54.8884Z" fill="white"/>
</g>
<path id="Vector_3" d="M51.7318 25.5097L46.9271 33.5135L40.8711 6.66943L51.7318 25.5097Z" fill="#009CC8"/>
</g>
</g>
</g>
<path id="Vector_4" d="M91.5738 54.8884H68.8726L64.4072 47.1924L91.5738 54.8884Z" fill="#CBCBCB"/>
</g>
</g>
<defs>
<clipPath id="clip0_5551_5087">
<rect width="103" height="74" fill="white"/>
</clipPath>
</defs>
</svg>
