<svg xmlns="http://www.w3.org/2000/svg" viewBox="0 0 1000 1000"><defs><style>.cls-1{fill:#ec1c24;}.cls-1,.cls-2,.cls-3,.cls-4,.cls-5,.cls-6,.cls-7{fill-rule:evenodd;}.cls-2{fill:#f48120;}.cls-3{fill:#fdee36;}.cls-4{fill:#4fb864;}.cls-5{fill:#9f99ca;}.cls-6{fill:#7670b2;}.cls-7{fill:#c5579f;}.cls-8{fill:#211315;}.cls-9{fill:#fff;}</style></defs><title>m1khan icons two FINAL 1Artboard 1 copy 16</title><g id="color"><path class="cls-1" d="M533.2,346.07,513.68,200.41S665,175.25,764.45,274.74l-94.6,115.63s-48.23-48.23-136.65-44.3Z"/><path class="cls-2" d="M644.81,435.18l101-106.76s114.68,101.83,99.87,241.74l-149.4-.86s7.18-67.83-51.47-134.12Z"/><path class="cls-3" d="M645.18,579.1l146.43,12.48s-8.2,153.15-126.87,228.73l-92.4-117.4s57.53-36.64,72.84-123.81Z"/><path class="cls-4" d="M532.83,669,614.3,791.36s-124.91,89-258,43.27L390.6,689.21S455.1,711.38,532.83,669Z"/><path class="cls-5" d="M392.48,637.2,347.56,777.14S200.12,734.89,153,602.32l135.09-63.8s22.85,64.27,104.39,98.68Z"/><path class="cls-6" d="M329.94,507.59l-137.44,52S133.69,418,208,298.53L342.1,364.45s-36,57.91-12.16,143.14Z"/><path class="cls-7" d="M392.36,377.91,266,302.83s74.15-134.25,213.9-150.53l32,145.94s-67.75,7.9-119.54,79.67Z"/><path class="cls-8" d="M458.1,396.81a111.91,111.91,0,1,0,41.9-8.14,110.79,110.79,0,0,0-41.9,8.14Z"/><path class="cls-9" d="M416.49,546.87a76.67,76.67,0,0,1-14.68-11.81,105.05,105.05,0,0,1-3.39-58.49,95,95,0,0,1,7.14-11.83c.82-1.16,1.59-2.38,2.48-3.51l25.12,14.87v.63a194,194,0,0,0,4,40.15c0,.06,0,.09,0,.15l-19.48,30.55c-.43-.22-.85-.45-1.26-.71Z"/><path class="cls-9" d="M491.19,598.52a96.31,96.31,0,0,0,13.38,5.6,104.36,104.36,0,0,1-56.49-13.68l42.12,7.5a9.84,9.84,0,0,0,1,.58Z"/><path class="cls-9" d="M491,590.92l-49.7-8.86a154.07,154.07,0,0,1-15.54-22.52c-1.15-2-2.42-4-3.39-6.12l19.46-30.52,1.46.36a321.63,321.63,0,0,0,37.05,7.4c.73.1,1.34.19,1.86.24l23.33,40.35q-6.06,8.54-12.33,17c-.69.93-1.43,1.83-2.2,2.72Z"/><path class="cls-9" d="M573.73,573.73a103.39,103.39,0,0,1-12.55,10.71,95.86,95.86,0,0,0-3.76-17.11l24.9-46.45a115.71,115.71,0,0,0,19.61-11.06,8.37,8.37,0,0,0,2-1.9,103.72,103.72,0,0,1-30.18,65.81Z"/><path class="cls-9" d="M572.63,513.49c.92,1.77,1.84,3.55,2.76,5.36l-24,44.86-.41.08a219.89,219.89,0,0,1-39.32,3.79l-24-41.5q5.61-10.41,11.11-20.87c2.49-4.72,4.94-9.48,7.38-14.23l49.67-5.1a277,277,0,0,1,16.86,27.61Z"/><path class="cls-9" d="M562.55,460.28c-2.36,6.23-4.88,12.39-7.38,18.56l-48.39,5c-.58-.76-1.18-1.51-1.81-2.23q-8.58-9.7-17.2-19.35l.15-.17-7-6.95,13.48-40.55a18,18,0,0,1,2.8-.56c7.33-.74,14.66-1.59,22-2a106.19,106.19,0,0,1,13.59-.07l33.33,37.56c-1.15,3.62-2.27,7.26-3.61,10.8Z"/><path class="cls-9" d="M573.73,426.27a103.7,103.7,0,0,1,21.35,30.91A105.66,105.66,0,0,0,575.2,446.5c-1.09-.45-2.21-.85-3.35-1.24l-32.8-37a42.74,42.74,0,0,0,.39-4.8,103.73,103.73,0,0,1,34.29,22.79Z"/><path class="cls-9" d="M466.61,401.54c.13.09.19.17.27.19a83.69,83.69,0,0,1,20.75,10.93L475,450.56a.56.56,0,0,0-.18.07c-2.58,1.06-5.2,2-7.74,3.16a221.07,221.07,0,0,0-30.22,16.32l-24.84-14.7a7.43,7.43,0,0,1,.44-2.26c1.66-4.44,3.3-8.91,5.19-13.26a96.85,96.85,0,0,1,4.92-9.76c1.17-1.31,2.4-2.6,3.66-3.86a103.69,103.69,0,0,1,40.57-25.11,3.48,3.48,0,0,0-.23.38Z"/></g></svg>