<svg xmlns="http://www.w3.org/2000/svg" xmlns:xlink="http://www.w3.org/1999/xlink" viewBox="0 0 1000 1000"><defs><style>.cls-1{fill:#009246;}.cls-2{fill:#e3e3e2;}.cls-3{fill:#ce2b37;}.cls-4{fill:url(#linear-gradient);}.cls-5{fill:url(#linear-gradient-2);}.cls-6{fill:url(#linear-gradient-3);}.cls-7{fill:url(#linear-gradient-4);}.cls-8{fill:url(#linear-gradient-5);}.cls-9{fill:url(#linear-gradient-6);}.cls-10{fill:#008fd7;}</style><linearGradient id="linear-gradient" x1="469.24" y1="402.26" x2="553.3" y2="631.09" gradientUnits="userSpaceOnUse"><stop offset="0" stop-color="#0c5ead"/><stop offset="1" stop-color="#033b82"/></linearGradient><linearGradient id="linear-gradient-2" x1="523.6" y1="507.45" x2="448.86" y2="485.1" xlink:href="#linear-gradient"/><linearGradient id="linear-gradient-3" x1="715.26" y1="587.59" x2="487.12" y2="734.48" xlink:href="#linear-gradient"/><linearGradient id="linear-gradient-4" x1="557.22" y1="600.44" x2="473.8" y2="744.89" xlink:href="#linear-gradient"/><linearGradient id="linear-gradient-5" x1="288.21" y1="589.85" x2="509.14" y2="732.27" xlink:href="#linear-gradient"/><linearGradient id="linear-gradient-6" x1="456.94" y1="685.28" x2="512.33" y2="632.17" xlink:href="#linear-gradient"/></defs><title>m1khan icons two FINAL 1Artboard 1 copy 17</title><g id="background"><polyline class="cls-1" points="253 808.98 418.02 808.98 418.02 828.78 253 828.78 253 808.98"/><polyline class="cls-2" points="418.02 808.98 581.98 808.98 581.98 828.78 418.02 828.78 418.02 808.98"/><polyline class="cls-3" points="581.98 808.98 747 808.98 747 828.77 581.98 828.77 581.98 808.98"/><polygon class="cls-4" points="500.02 355.56 500.02 616.53 595.84 616.53 500.02 355.56"/><polygon class="cls-5" points="404.14 616.53 500.02 616.53 500.02 355.61 404.14 616.53"/><polygon class="cls-6" points="744.8 616.53 500.02 763.35 595.84 616.53 744.8 616.53"/><polygon class="cls-7" points="500.02 616.53 595.84 616.53 500.02 763.35 500.02 616.53"/><polygon class="cls-8" points="255.03 616.53 500.02 763.35 404.14 616.53 255.03 616.53"/><polygon class="cls-9" points="500.02 763.35 500.02 616.53 404.14 616.53 500.02 763.35"/><path class="cls-10" d="M744.87,616.53h0L550,171.22H448.9L255.13,616.53H404.18L500,355.67l44.54,120.88H500l-25.55,75H572l23.78,64.95h149"/></g></svg>