<svg xmlns="http://www.w3.org/2000/svg" viewBox="0 0 1000 1000"><defs><style>.cls-1{fill:#405463;}.cls-2{fill:#d32c20;}.cls-3{fill:#183e79;}.cls-4{fill:#138dc5;}.cls-5{fill:#f4c51d;}.cls-6{fill:#119144;}.cls-7{fill:#fff;}.cls-8{fill:#ced1d2;}</style></defs><title>m1khan icons two FINAL 1Artboard 1 copy 20</title><g id="color"><path class="cls-1" d="M329.26,654.55c0,13.33,9.83,19.88,23.19,19.88s23.19-6.55,23.19-19.88V624.82a.67.67,0,0,0-.69-.63H362a.66.66,0,0,0-.67.63v29.59c0,5.64-2.87,8.86-9,8.81a8.63,8.63,0,0,1-8.74-8.37v-30a.67.67,0,0,0-.68-.63h-13a.66.66,0,0,0-.67.63v29.73M385,624.19a.66.66,0,0,0-.67.63v48.25a.65.65,0,0,0,.67.63h37.25a.66.66,0,0,0,.67-.63v-9.89a.65.65,0,0,0-.67-.62H398.59v-8.51h18.66a.67.67,0,0,0,.68-.64v-9.3a.66.66,0,0,0-.68-.62H398.59v-8.15h22.52a.65.65,0,0,0,.67-.63v-9.89a.66.66,0,0,0-.67-.63H385m45.51,0a.66.66,0,0,0-.67.63v48.25a.65.65,0,0,0,.67.63h13a.65.65,0,0,0,.66-.63V656.52h18.75a.66.66,0,0,0,.68-.62V646a.66.66,0,0,0-.68-.62H444.1v-10h22.32A.71.71,0,0,0,467,635l5.08-9.9a.63.63,0,0,0-.62-.89h-41m67.8,43.54H479.64l-2.48,5.59a.72.72,0,0,1-.63.38H464.06a.62.62,0,0,1-.61-.89L489,623.32c.23-.51.71-.51.94,0l25.48,49.49a.63.63,0,0,1-.61.89H501.54a.66.66,0,0,1-.6-.37Zm-14.22-9.61h9.67l-4.87-10.48Z"/><path class="cls-1" d="M480.57,692.29a.85.85,0,0,0-.87.82v63a.85.85,0,0,0,.87.82h16.94a.86.86,0,0,0,.88-.82v-63a.86.86,0,0,0-.88-.82H480.57m26.95,32.34c0-19.5,17.36-33.1,37.48-33.1s37.48,13.6,37.48,33.1-17.35,33.2-37.48,33.2-37.48-13.7-37.48-33.2m55.86,0c0-10.18-6.67-18.07-18.38-18.07s-18.38,7.89-18.38,18.07S533.29,742.8,545,742.8s18.38-8,18.38-18.17M433.71,756.15a.84.84,0,0,0,.87.82h16.94a.85.85,0,0,0,.87-.82V706.84H470a.85.85,0,0,0,.88-.81V693.11a.86.86,0,0,0-.88-.82H408.78a.82.82,0,0,0-.78,1.17l6.64,12.93a.9.9,0,0,0,.78.45h18.29Zm228.43-9.4a.77.77,0,0,0,0,1.12c4.79,4.87,13.39,10,27.21,10,18.48,0,26.49-8.56,26.49-20.44,0-9.14-4.72-15.32-18.69-19.6L687.87,715c-3.4-1-4.93-2.28-4.93-4.75s2.26-4.47,6.77-4.47a16.44,16.44,0,0,1,11.87,4.42c.08.07,8.1-7.47,10.36-9.58a.78.78,0,0,0,0-1.12c-4.21-4.24-11.49-8-23.28-8-12.43,0-23.82,6.56-23.82,19.31,0,10.65,7.19,16.35,17.35,19.49l8.21,2.57c4.62,1.43,6.88,2.76,6.88,5.52,0,3.61-3.28,5.13-8.82,5.13-6.58,0-11-3.1-14.29-6.72a.94.94,0,0,0-1.3-.05Zm-9.54,11.34c1.14.85,1.44.57,1.44-.19V693.1a.85.85,0,0,0-.88-.82H637.37a.86.86,0,0,0-.89.82v31.62l-43.84-33.48c-1.13-.86-1.43-.38-1.43.19v64.7a.85.85,0,0,0,.88.83h15.8a.85.85,0,0,0,.87-.83V724.72Zm-306.9,0c1.13.85,1.44.57,1.44-.19V693.13a.84.84,0,0,0-.88-.82H330.47a.85.85,0,0,0-.89.82v31.59l-43.83-33.48c-1.13-.86-1.44-.38-1.44.19v64.7a.85.85,0,0,0,.87.83h17.27a.85.85,0,0,0,.87-.83V725.56Zm54-8.94H375.37l-3.26,7.3a.86.86,0,0,1-.81.5H355a.82.82,0,0,1-.8-1.17l33.38-64.64c.31-.66.92-.66,1.24,0l33.27,64.64a.82.82,0,0,1-.8,1.17H404a.88.88,0,0,1-.81-.48Zm-18.6-12.55h12.64l-6.37-13.7Z"/><path class="cls-1" d="M285.19,768.38a.85.85,0,0,0-.88.83v63a.84.84,0,0,0,.88.82h46.59a.84.84,0,0,0,.88-.82V819.32a.85.85,0,0,0-.88-.82H303.15V769.21a.84.84,0,0,0-.87-.83H285.19m57,0a.86.86,0,0,0-.89.83v63a.86.86,0,0,0,.89.82h48.64a.86.86,0,0,0,.89-.82V819.32a.87.87,0,0,0-.89-.82H360V807.38h24.38a.86.86,0,0,0,.88-.83V794.39a.85.85,0,0,0-.88-.8H360V782.93h29.41a.86.86,0,0,0,.88-.81V769.21a.85.85,0,0,0-.88-.83H342.18M538.74,808c0,17.4,12.83,26,30.28,26s30.3-8.56,30.3-26V769.21a.86.86,0,0,0-.89-.83H581.51a.85.85,0,0,0-.88.83v38.64c0,7.38-3.75,11.57-11.79,11.51-6.37-.06-11.41-5-11.41-10.94V769.21a.86.86,0,0,0-.89-.83H539.62a.85.85,0,0,0-.88.83V808m72.86-39.66a.85.85,0,0,0-.88.83v63a.84.84,0,0,0,.88.82h48.64a.84.84,0,0,0,.88-.82V819.32a.85.85,0,0,0-.88-.82H629.41V807.38h24.37a.86.86,0,0,0,.88-.83V794.39a.85.85,0,0,0-.88-.8H629.41V782.93h29.4a.86.86,0,0,0,.88-.81V769.21a.85.85,0,0,0-.88-.83H611.6m-98.12,48.41c-3,1.33-6.78,2.57-13.56,2.57-12.31,0-18.68-8.47-18.68-18.64s6.26-18.08,17.67-18.08a19.08,19.08,0,0,1,14.78,6.24.92.92,0,0,0,1.3.06l10.93-10.22a.77.77,0,0,0,.05-1.12c-6.1-6.29-15.23-10-26.66-10-20.13,0-37.17,13.6-37.17,33.1s17,33.19,37.58,33.19c15.5,0,23.92-4,30.39-8.95V797.82a.85.85,0,0,0-.88-.81H500.5a.85.85,0,0,0-.88.81V809.5a.86.86,0,0,0,.88.82h13Zm-70.75,8.46H418.4l-3.27,7.3a.87.87,0,0,1-.81.5H398a.82.82,0,0,1-.79-1.17l33.38-64.63c.31-.67.92-.67,1.22,0l33.29,64.63a.83.83,0,0,1-.8,1.17H447a.9.9,0,0,1-.81-.49ZM424.15,812.7h12.63L430.41,799Z"/><path class="cls-1" d="M666,770.48v-1.72a.21.21,0,0,1,.22-.21h9.59a.21.21,0,0,1,.22.21v1.72a.2.2,0,0,1-.22.2H672.4v9.87a.22.22,0,0,1-.22.22H670a.21.21,0,0,1-.21-.22v-9.87h-3.53a.2.2,0,0,1-.22-.2"/><path class="cls-1" d="M678.6,768.38h.22l6.18,6.2a.34.34,0,0,0,.48,0l6.18-6.2h.24v12.08a.32.32,0,0,1-.33.31h-2a.31.31,0,0,1-.31-.31v-6.85l-3.8,4a.32.32,0,0,1-.49,0l-3.75-4v6.85a.31.31,0,0,1-.31.31h-2a.31.31,0,0,1-.31-.31Z"/><path class="cls-1" d="M303.21,202.92A1.55,1.55,0,0,0,301,201.5a41.8,41.8,0,0,0-15.21,11.57,7.43,7.43,0,0,0-1.61,4.64V665.46a6.14,6.14,0,0,0,2.34,4.82l13.94,11.46a1.68,1.68,0,0,0,2.72-1.32Z"/><path class="cls-2" d="M358.53,283.06l-.32-1.28c7.07-11.2,13.8-22.63,20.32-33.7,6.94-11.79,13.54-23,20.23-33.4L401,213l2.27.33a360.65,360.65,0,0,1,44.82,35l0,1.35-2.25,1c-20.55.92-45.95,13.38-70.56,25.4-4.84,2.37-9.82,4.79-14.68,7.09Z"/><path class="cls-2" d="M586.32,294.21c-16,0-33.46-4.19-53.4-12.76l-2.65-2.21.18-1.45c10.16-9.05,17.8-16.27,25.73-25.23l1.9-.73,2.42,1.1a282.42,282.42,0,0,0,44.82,36.64l.29,1.38-2,1.45A82,82,0,0,1,586.32,294.21Z"/><path class="cls-3" d="M609.16,357.72a17.35,17.35,0,0,1-14.18-7,26.47,26.47,0,0,1-5.32-13.42l.89-.91.92-.93c1.59.06,3.14.09,4.67.09a96.37,96.37,0,0,0,35.37-6.54l1,.64,1,.65c0,5.72-2,11.58-5.91,17A22.37,22.37,0,0,1,609.16,357.72Z"/><path class="cls-4" d="M590.55,336.43l-.89.91a151.21,151.21,0,0,1-15.59-1.46l-2.33-1.28,0-1.42a234.13,234.13,0,0,0,31.78-40.78l2-1.45,2.39.42c14.49,9.54,29.32,18.31,45.17,26.72l.83,1.54-3.18,3c-5,2.88-11.11,5.21-17.34,7.68l-1-.64-1-.65c-.45-6.7-4-12.53-10.1-16.47a16.15,16.15,0,0,0-8.79-2.47A19.74,19.74,0,0,0,596.33,319a27.43,27.43,0,0,0-4.86,16.5Z"/><path class="cls-3" d="M587.17,381.73c-15.62,0-30.08-4.32-49.17-14.61l-2.64-2.47.28-1.41c11.55-8.41,22.78-16.83,34.09-28l2-.65,2.33,1.28a388.18,388.18,0,0,0,38.86,39.81l.06,1.46-2.4,1.52a100.72,100.72,0,0,1-23.42,3.06Z"/><path class="cls-5" d="M569.73,335.25a136.39,136.39,0,0,1-15.44-3.69l-1.06-1.34-1.17-1.38A38.69,38.69,0,0,0,546,314.33c-6.49-9.67-14.41-15.69-20.67-15.69a8.3,8.3,0,0,0-5.49,2c-2.87,2.42-3.9,7.43-2.83,13.84l-.86.63-.85.66c-5.13-2.55-10.07-5.2-14.44-7.81L497.54,305l.24-1.37c11.51-8.48,21.22-15.78,30.75-24.15l1.74-.27,2.65,2.21a630,630,0,0,0,38.87,51.73l0,1.42Z"/><path class="cls-3" d="M543.37,346.62c-7.09,0-16.11-6.61-22.44-16.47a42.14,42.14,0,0,1-5.68-14.37l.85-.66.86-.63a256.55,256.55,0,0,0,35.1,14.35l1.17,1.38,1.06,1.34c.31,6.06-1.74,10.88-5.88,13.62a8.93,8.93,0,0,1-5,1.44"/><path class="cls-2" d="M313.32,341.51c16.87-15.8,29.55-35.45,42.74-56.26l2.47-2.19,2.07.08c12.77,7.11,27.14,14.5,43.94,22.57l.37,1.23-3,3c-6.11,3.84-12.15,7.34-18,10.48l-.94-.58-1-.58c.09-6.69-2.52-11.67-7.4-14.05a12.42,12.42,0,0,0-5.55-1.27c-6.83,0-17.72,5.78-26.64,18.65a33.33,33.33,0,0,0-5.65,14.89l-1.08,1.28-1,1.27a162.68,162.68,0,0,1-20,4.15l-2.14-.71Z"/><path class="cls-3" d="M361.26,380,361,378.7c13-18.46,22.61-35.84,31.09-51.18,3.42-6.19,6.67-12.1,9.87-17.54l3-3,2-.11c22.56,10.9,37.15,19.52,49.78,29.54l0,1.32-2.9,1.42c-21.32,3.72-42.21,15.42-60.75,25.8-10.42,5.83-20.29,11.35-29.64,15.23Z"/><path class="cls-6" d="M361.26,477l-.24-1.29c17.46-22.82,30.44-46.3,42.79-69.11l2.76-3.11,2-.2a288.43,288.43,0,0,1,48.54,27.15l.11,1.37-2.68,1.62c-14.88,3.94-29.38,12.41-44.69,21.3-14.71,8.55-29.9,17.31-46.26,22.51Z"/><path class="cls-7" d="M453.77,411.37a25.83,25.83,0,0,1-16.44-5.57c-4.4-3.53-6.95-9.15-7.12-15.62l1-1.49,1.05-1.5c11.81-5.05,23.43-7.63,34.57-7.63a72.29,72.29,0,0,1,11.49.92l1.19,1.18,1.14,1.21a25.29,25.29,0,0,1-7.22,20.82c-4.77,4.81-12.11,7.68-19.62,7.68"/><path class="cls-2" d="M406.15,402.25c13.57-24.94,28.8-45.1,47.67-63.14l2.89-1.42,2.38.69c15.38,12.7,28.58,28.39,42.43,50.4l-.21,1.46-1.75.16c-5.77-3-12.18-6.11-18.95-7.53l-1.14-1.21-1.19-1.18a28.9,28.9,0,0,0-4.8-11.5,18.31,18.31,0,0,0-15-7.93c-6.44,0-13.13,3.27-18.35,9a29.62,29.62,0,0,0-7.89,17.18l-1.05,1.5-1,1.49c-6.65,3.09-14,7.8-21.67,13.11l-2,.2Z"/><path class="cls-4" d="M545.71,433.81c-6.47,0-15.27-7.31-21.89-18.2a44.57,44.57,0,0,1-5.93-15.4l.87-.64.88-.62c10.5,5.56,21.89,11.22,34.27,15.31l1.09,1.37,1,1.32c.15,7.09-2.08,13-6,15.6a7.65,7.65,0,0,1-4.32,1.26"/><path class="cls-6" d="M361,475.71a194,194,0,0,1-46.37-38.34l-2-.87V483l.78,1.1a60.5,60.5,0,0,0,8.73.58h0c10.27,0,22.87-2.07,36.62-6l2.53-1.72Z"/><path class="cls-6" d="M538.43,450.48C523.2,441.81,503,430.41,478,430.41a94.48,94.48,0,0,0-18.5,1.87l-2.31-.47-.11-1.37c11.73-13.16,25.66-26.27,42.48-40l1.75-.16,2.62,2.43c13.22,21.16,24.66,39.37,36.42,56.41l-.22,1.37Z"/><path class="cls-6" d="M648.38,404.09l-2.06,2.21a413.68,413.68,0,0,1-29.13,52.79l.26,1.42,2.19.41a162.16,162.16,0,0,0,31.63-12.43l.5-1.35a231.31,231.31,0,0,1-3.39-43.05"/><path class="cls-6" d="M590.47,464.78a101.8,101.8,0,0,1-47.37-11.71l-3-2.62.22-1.37c11.88-8.65,22.11-18.27,32.29-28.22l2-.67,2.2,1.16a245.41,245.41,0,0,0,40.31,37.74l.26,1.42-2,1.4a115.87,115.87,0,0,1-24.94,2.87Z"/><path class="cls-7" d="M359.9,552.64a24,24,0,0,1-13.48-4.24,23.3,23.3,0,0,1-9.69-16.47l.86-1,.88-1a137.57,137.57,0,0,0,47.94-12.5l1,.58,1,.6c.21,6.09-1.77,12.75-5.74,19.35-5.7,9.48-13.8,14.71-22.77,14.71Z"/><path class="cls-7" d="M546.75,313.8c-8.47-12.65-20.22-20.11-27.58-13.89-3.55,3-4.2,8.94-3.07,15.21a252.47,252.47,0,0,0,37.13,15.1,38,38,0,0,0-6.48-16.42"/><path class="cls-7" d="M554.89,515.94c-6.36,0-16-5-22.23-14.65a51.82,51.82,0,0,1-7.25-17.06l.87-.69.86-.7c6.3,2.57,11.8,5.16,17.13,7.68,6.18,2.93,12.07,5.73,18.09,7.9l1.2,1.45,1.11,1.4c.24,6-1.77,11.18-5.3,13.5A8,8,0,0,1,554.89,515.94Z"/><path class="cls-7" d="M611.8,440.88A18.59,18.59,0,0,1,600,436.64a19.77,19.77,0,0,1-7.36-14.55l.95-1,1-1a110.43,110.43,0,0,0,37.12-8.83l1,.61,1,.64a33.38,33.38,0,0,1-4.84,18C624.88,437.12,618.67,440.88,611.8,440.88Z"/><path class="cls-3" d="M533.58,364.73c-2.26-1.27-4.64-2.63-7.09-4.06C509.2,350.61,487.68,338.1,465,338.1q-3,0-5.87.28l-2.38-.69,0-1.32c13-12,26.3-21.81,39.06-31.21l1.79-.13L500.8,308c8.6,12.25,16.8,25.7,25.41,39.88,3.06,5,6.23,10.21,9.43,15.39l-.28,1.41Z"/><path class="cls-5" d="M501.31,390.24c-7.06-3.71-14.17-7.2-21.84-8.58A24.3,24.3,0,0,1,472.71,403c-8.17,8.2-24.2,10.53-34.78,2-4.61-3.7-7-9.75-6.76-16.36-7.73,3.44-16.28,9-24.6,14.8a285.33,285.33,0,0,1,50.62,28.32c11.36-12.84,25.66-26.55,44.12-41.57"/><path class="cls-3" d="M313.46,434.44c19.36-17.37,32.56-34.72,45.17-52.4l2.63-2.05,2.16.15a422.85,422.85,0,0,0,42.73,22.11l.42,1.24-2.76,3.11a195.68,195.68,0,0,1-18.64,11.86l-1-.57-1-.58c-.24-5.67-2.56-9.85-6.88-12.44a16.4,16.4,0,0,0-8.52-2.34c-7.58,0-16,4.91-23.19,13.48a32.9,32.9,0,0,0-7.38,17.15l-1.08,1.17-1,1.13a170.43,170.43,0,0,1-20.52,1.91l-2-.87Z"/><path class="cls-3" d="M317.24,391.15c-1.29,0-2.55,0-3.77-.12l-.87-1V343.51l2.14.71c12.16,11.64,28.86,24.1,46.25,34.48l.27,1.29L358.63,382c-16,6-29.88,9.11-41.39,9.11"/><path class="cls-2" d="M571.53,253.5c-3.59,0-7.34-.25-11-.57l-2.42-1.1-.19-1.64a194.1,194.1,0,0,0,28.5-42.54l2.09-1.44,2.25.4c11.62,7.95,29.75,17.13,44.57,22.53l1.16,1.45-2.39,3.06a96.45,96.45,0,0,1-15,9.24l-1.05-.54-1.09-.56a20.69,20.69,0,0,0-11.9-14.72,16.69,16.69,0,0,0-7.16-1.65c-7.08,0-13.89,4.73-17.35,12.05a24.27,24.27,0,0,0-2.23,13.91l-.81,1-.77,1c-1.72.08-3.47.1-5.21.1"/><path class="cls-3" d="M581.88,504.52a70.81,70.81,0,0,1-17.21-3.25l-1.11-1.4-1.2-1.45a32.56,32.56,0,0,0-6.83-14.69c-7.13-9.11-15-14.55-21.06-14.55a7.84,7.84,0,0,0-5.33,1.92c-2.25,2-3,6.21-2,11.74l-.86.7-.87.69c-5.42-2.17-10.15-3.88-15.48-5.49L507.15,477l0-1.38a317.68,317.68,0,0,1,31.26-25.14l1.7,0,3,2.62c13.77,19.59,27.1,35.77,40.72,49.4l.08,1.34Z"/><path class="cls-3" d="M589.08,422.17a104.74,104.74,0,0,1-12.2-.82l-2.2-1.16.07-1.41a440.54,440.54,0,0,0,35.84-40.11l2.4-1.53,2,.49a343.1,343.1,0,0,0,32.51,24.73l.85,1.73-2.06,2.21c-4.23,2.31-8.47,4.43-12.64,6.23l-1-.65-1-.61c-.44-4.58-2.16-8.39-4.9-10.8a15,15,0,0,0-10-3.82c-6,0-12.09,3.42-16.87,9.38a24.22,24.22,0,0,0-5.36,14.07l-1,1-.95,1c-1.16,0-2.35.08-3.51.08Z"/><path class="cls-3" d="M654,319.63l-3.18,3c-15,22.33-27.08,39.22-37.89,53l.06,1.45,2,.49a166,166,0,0,0,35.38-14.39l1.23-1.81a274.24,274.24,0,0,0,2.37-41.8"/><path class="cls-3" d="M350.66,359.75a15.66,15.66,0,0,1-9.49-3.13c-4.33-3.19-6.69-9.31-6.45-16.55l1-1.27,1.08-1.28c14.76-4.63,29.76-10,45.24-18.22l1,.58.94.58c-.33,6-2.59,12.69-6.58,19.34C369.9,352.29,359.91,359.75,350.66,359.75Z"/><path class="cls-3" d="M453.73,320a29,29,0,0,1-19.41-7.33,22.32,22.32,0,0,1-7.51-16.31l1-1.4,1.09-1.41a75.44,75.44,0,0,1,23.8-3.93,74.51,74.51,0,0,1,22,3.38l1.21,1.41,1.12,1.41a23.57,23.57,0,0,1-6.14,17.64C466.94,317.57,460.7,320,453.73,320Z"/><path class="cls-2" d="M312.6,297v-46.5l2.11.63c11.83,10.65,26.82,21.21,43.5,30.64l.32,1.28-2.47,2.19c-17.31,7.87-32.59,12.45-42.59,12.71Z"/><path class="cls-2" d="M574.68,420.19l-2,.67A120,120,0,0,1,556,417l-1-1.32-1.09-1.37a34.57,34.57,0,0,0-4.55-13.66c-7.27-12.46-15.44-16.88-20.23-16.88a9.27,9.27,0,0,0-6.6,2.88c-2.6,2.53-3.63,6.88-2.89,12.35l-.88.62-.87.64c-2.54-1.34-5-2.69-7.51-4-2.23-1.2-4.33-2.38-6.46-3.51l-2.61-2.43.21-1.46c10-8.09,19.33-14.81,28.36-21.35l3.7-2.7,1.78-.08,2.64,2.47c9.45,15.14,21.85,34,36.75,51.66Z"/><path class="cls-2" d="M411.12,503.73l-.44-1.3c11.43-22.82,22.78-44.76,43.83-69l2.68-1.62,2.31.47a280.05,280.05,0,0,1,47.67,43.34l0,1.38-1.83.45A95.5,95.5,0,0,0,485,475L484,474l-1.09-1a21.88,21.88,0,0,0-6.78-13.27,18.47,18.47,0,0,0-12.46-5.05c-8,0-16.38,5.7-22.36,15.24-3.22,5.14-5.62,11-6.06,16l-1.05,1.67-.94,1.65c-7.17,4-13.76,9.45-20.32,14.25Z"/><path class="cls-2" d="M528.53,279.51c-5.66-2.57-11.46-5.42-17.08-8.2-19.79-9.8-40.29-20-60.95-20.71l-2.41-.92,0-1.35C460.58,235.69,476,225,487,217.72l1.91-.1,3.63,3.25C503,234.94,512,249.11,520.09,261.78c3.7,5.8,7.2,11.29,10.36,16l-.18,1.45Z"/><path class="cls-2" d="M636.46,230.59l-2.39,3.06c-9.91,22.24-19.35,40.56-28.75,55.92l.29,1.38,2.39.42c13-3.3,27.53-7.69,39.76-14.9l.64-1.51h0c-4.2-18.39-9.46-33.06-11.95-44.36"/><path class="cls-7" d="M349.57,262.34a17,17,0,0,1-10.31-3.43c-3.47-2.57-5.44-7.36-5.52-13.3l1-1.37,1-1.42c10.87-4.11,20-9.25,28.79-14.21,4.74-2.67,9.62-5.44,14.68-8l1,.59,1,.57c.38,6.67-1.6,14.34-5.48,21.2-6.76,11.93-16.8,19.33-26.2,19.33Z"/><path class="cls-7" d="M625.48,522.4a22.48,22.48,0,0,1-22.07-18.21l.83-1.09.87-1.11c14.13-1.83,27-5.78,37.86-9.52l1.23.6,1.2.63a26.11,26.11,0,0,1-2.6,19.54c-3.28,5.64-9.91,9.16-17.32,9.16"/><path class="cls-4" d="M404.91,306.94l-.37-1.23c13.5-22.12,27-40.14,41.3-55.06l2.25-1,2.41.92a364.24,364.24,0,0,1,47.28,53.06l-.23,1.37-1.8.13c-6.84-4-12.23-7.17-18.74-9.39l-1.12-1.41L474.68,293a26.2,26.2,0,0,0-6.32-12.78c-5.18-5.83-11.52-9.05-17.81-9.05a19.72,19.72,0,0,0-15.11,7.3,27.77,27.77,0,0,0-6.53,15.08l-1.09,1.41-1,1.4c-7,2.52-12.7,6-19.9,10.52Z"/><path class="cls-4" d="M589.68,504.83c-1.13,0-2.28,0-3.41-.07l-2.37-.95-.08-1.34a320.78,320.78,0,0,0,31.59-40.56l2-1.4,2.19.41A223.53,223.53,0,0,0,662,484.78l1.54,1.7L662,487.92c-3.53,1.09-7,2.37-11.17,3.87l-5.4,1.91-1.2-.63-1.23-.6a19,19,0,0,0-8.52-10.34,21.16,21.16,0,0,0-10.53-3,18.06,18.06,0,0,0-15.1,8.3A23.23,23.23,0,0,0,605.11,502l-.87,1.11-.83,1.09a119.43,119.43,0,0,1-13.72.64Z"/><path class="cls-6" d="M598.88,272.29c-4.62,0-9.34-1.94-14-5.77a23.35,23.35,0,0,1-8.12-13.12l.77-1,.81-1A102.53,102.53,0,0,0,617,241.79l1.09.56,1.05.54a27.07,27.07,0,0,1-1.76,13.65C613.39,266.56,606.66,272.29,598.88,272.29Z"/><path class="cls-4" d="M627.37,399.74c-8-7.05-19.88-4.78-28.26,5.68a25.06,25.06,0,0,0-5.57,15.68,111.87,111.87,0,0,0,39.12-9.22c-.33-4.94-2.08-9.32-5.29-12.14"/><path class="cls-3" d="M549.5,431.74c-6.42,4.28-17.4-4.38-24.85-16.64a43.23,43.23,0,0,1-5.89-15.53c-6-3.17-11.78-6.36-17.45-9.33,13.91,22.25,26.31,42.17,38.82,60.21,12.42-8.95,22.89-18.83,34.55-30.26A120.21,120.21,0,0,1,555,415.63c.47,7.25-1.61,13.51-5.5,16.11"/><path class="cls-5" d="M434.67,277.77a28.26,28.26,0,0,0-6.85,17.14,72.84,72.84,0,0,1,48.07-.55,26.86,26.86,0,0,0-6.78-14.84c-10.33-11.64-24.83-12.89-34.44-1.75"/><path class="cls-5" d="M455.34,508.26a23.59,23.59,0,0,1-9.83-2.22c-7.28-3.36-11.91-9.31-12.3-16.81l.94-1.65,1.05-1.67C451.36,477.2,467.26,473,482.86,473l1.09,1,1.06,1a29.49,29.49,0,0,1-6.31,19.71C471.92,503.43,463.63,508.26,455.34,508.26Z"/><path class="cls-5" d="M634.93,481.28c-10.46-5.95-21.19-2.91-26.92,5.65a24.17,24.17,0,0,0-3.77,16.17c15-1.83,28.5-6.05,40-10a20.06,20.06,0,0,0-9.27-11.79"/><path class="cls-5" d="M632.23,537.72a191.22,191.22,0,0,1-46-33l-2.37-.95-2,.71c-11.55,12.19-22.39,21.59-34.2,29.15l-.35,1.46c23.77,13.15,51.17,14.77,85.06,3.85Z"/><path class="cls-5" d="M466.66,526.49C458.6,522.74,450,519,441,515.07s-18.65-7.21-28.09-11.59l-1.77.25-2.67,3.2-2.22,4.5c-10,20.28-20.33,40.33-40.37,62.34L366,575c47-9.58,62.23-29.92,101-47.24Z"/><path class="cls-6" d="M328.31,531.52a122.58,122.58,0,0,1-13.32-.83l-2.39-1.17.7-1.83c19.74-16.27,32.47-32.19,45.43-49l2.53-1.72,2.3.24c13,7.62,27.61,16.08,47.12,25.19l.44,1.3-2.67,3.2a145.67,145.67,0,0,1-20,11.65l-1-.6-1-.58c-.56-6.38-3.83-11.51-9.08-14.12a21.92,21.92,0,0,0-9.85-2.26c-9.31,0-18.94,5.35-24.52,13.64a25.13,25.13,0,0,0-4.49,15.24l-.88,1-.86,1c-3,.18-5.73-.41-8.42-.41"/><path class="cls-6" d="M404.91,306.94c-7.51,4.84-14.78,9.14-21.87,12.94-.2,5.76-2.32,12.49-6.48,19.42-10.25,17.1-24.82,23.9-34.82,16.54-4.58-3.38-6.52-9.93-6-17a160.66,160.66,0,0,1-23.16,4.71c11.08,10.87,28.17,24.32,48.66,36.48,19.88-28.05,31.95-53.81,43.65-73.05"/><path class="cls-6" d="M487,217.72a107.86,107.86,0,0,0-18.87-7.36L466.9,209l-1.33-1.38a32.34,32.34,0,0,0-6.66-12.54c-5.08-5.9-11.32-9.27-17.11-9.27-4.38,0-8.45,1.84-12.09,5.48s-5.66,9.2-5.6,15.15l-.94,1.17-.9,1.17c-6,1.1-11.84,2.58-19,4.6L401,213l-.28-1.33c13.9-21.25,26.62-35.66,38.83-43.92l2.44-.44,3.33,1.38c12.69,10.26,28.12,27,43.83,47.58l-.22,1.33Z"/><path class="cls-6" d="M626.79,346.8c-7.81,11.73-23.47,13.4-31,3.39a25.77,25.77,0,0,1-5.2-13.76,169.07,169.07,0,0,1-18.81-1.83c13.49,15.92,26.91,30,41.25,42.55,12.5-15.88,25.78-34.74,41-57.52-7.09,4.46-15,7.51-21.49,10.07.2,5.49-1.61,11.41-5.72,17.1"/><path class="cls-5" d="M509.93,478.74,507.15,477l-1.83.45a213,213,0,0,0-38.66,49l.37,1.31c34.73-15.52,66-.59,80.3,7.33l.35-1.46c-10-19.75-23.28-37.86-37.75-54.93"/><path class="cls-5" d="M354.12,455.6A19.82,19.82,0,0,1,341.2,451c-4-3.36-6.18-8.95-6-15.5l1-1.13,1.08-1.17a156,156,0,0,0,46-15.85l1,.58,1,.57c-.05,7-3,15.38-8.08,23-6,9-14.36,14.1-23,14.1"/><path class="cls-3" d="M439.39,369.36a30.45,30.45,0,0,0-8.22,19.33c17.43-7.75,33.48-9.69,48.3-7a30.76,30.76,0,0,0-5.21-13.26c-8.71-11.93-24.35-10.52-34.87,1"/><path class="cls-5" d="M663.5,486.48,662,487.92c-6.23,17.34-18.23,37.45-29.74,49.8l.16,1.26c30.52-9.85,49.5-11.2,49.5-11.2s-9-19.55-18.39-41.3"/><path class="cls-5" d="M365.86,573.77A308.09,308.09,0,0,1,315,530.69l-2.39-1.17v44S336,581.18,366,575Z"/><path class="cls-3" d="M377.76,502.41c-12.37-6.15-28,.38-35.6,11.71a26.06,26.06,0,0,0-4.58,16.8A139.65,139.65,0,0,0,387.43,518c-.42-7.12-4-12.73-9.67-15.57"/><path class="cls-2" d="M387.43,518c.34,5.72-1.35,12.43-5.58,19.44-9.8,16.29-24.87,17-34.89,10.17a22.36,22.36,0,0,1-9.37-16.67c-8.2.54-15.9-.23-25-1.4A312.34,312.34,0,0,0,366,575c23.32-25.38,33.81-48.75,45.1-71.31A140.64,140.64,0,0,1,387.43,518"/><path class="cls-2" d="M642,512.74c-5.29,9.12-19.21,11.54-28.65,4.88a20.75,20.75,0,0,1-9.06-14.52,115.74,115.74,0,0,1-20.34.71c24.2,24,48.49,35.17,48.49,35.17,11.38-12,24.49-33.08,31.11-52.5-5.61,1.62-11.68,3.94-19.3,6.59A25.09,25.09,0,0,1,642,512.74"/><path class="cls-2" d="M376.83,404c-9.9-5.93-22.74-.86-32.94,11.35a33.59,33.59,0,0,0-7.72,18.94,156.1,156.1,0,0,0,48-16.44c-.09-5.77-2.26-10.79-7.36-13.85"/><path class="cls-2" d="M449.5,232.24A30.24,30.24,0,0,1,431,225.35a23.92,23.92,0,0,1-8.7-16.6l.9-1.17.94-1.17a114.83,114.83,0,0,1,19.18-1.72,84.63,84.63,0,0,1,22.28,2.9L466.9,209l1.23,1.39c.92,6.49-.75,12.28-4.79,16.44a18.83,18.83,0,0,1-13.84,5.44Z"/><path class="cls-7" d="M476.73,459c-11.89-10.5-26.94-4.52-36.29,10.41-3.84,6.13-6.17,12.73-6.29,18.2,16.3-9,32.81-14,49.8-13.63a22.91,22.91,0,0,0-7.22-15"/><path class="cls-5" d="M550.2,400.11c-6.86-11.75-19.3-23-28.35-14.2-3.11,3-3.94,8-3.09,13.66,11.35,6,23.33,11.93,36.24,16.06a35.74,35.74,0,0,0-4.8-15.52"/><path class="cls-4" d="M558.83,514c-5.07,3.34-18-1.78-25.35-13.18a51.24,51.24,0,0,1-7.2-17.23A174.87,174.87,0,0,0,507.15,477c18,20.81,31.65,41.07,40.18,58.13,13.26-8.34,24.89-18.81,36.58-31.32a71.81,71.81,0,0,1-20.35-3.94c.68,6.61-1.42,11.9-4.73,14.08"/><path class="cls-7" d="M358.53,283.06c16.61,9.32,33.53,17.71,46.38,23.88,13.66-22.48,27.66-41.35,43.18-57.26-25.7,0-59.28,19.16-89.56,33.38"/><path class="cls-7" d="M535.36,364.65c11.53,18.61,24.15,37.65,39.32,55.54A439.89,439.89,0,0,0,613,377.14c-29.28,7.6-49.59,3.16-77.63-12.49"/><path class="cls-8" d="M648.41,275h0C635.2,283,619,287.61,605.61,291A554.79,554.79,0,0,0,654,319.63,211.17,211.17,0,0,0,648.41,275Z"/><path class="cls-8" d="M663.5,486.48a177.44,177.44,0,0,1-11.73-39.34c-9.91,5.18-22.56,10.53-34.32,13.37a223.05,223.05,0,0,0,46,26"/><path class="cls-8" d="M648.38,404.09a330.24,330.24,0,0,1,3.25-42.66A163.81,163.81,0,0,1,613,377.14a343.76,343.76,0,0,0,35.39,26.95"/><path class="cls-7" d="M530.27,279.24a638.79,638.79,0,0,0,41.46,55.36c11.16-11.18,22.29-24.87,33.88-43.66-22.94,5.71-48.35.36-75.34-11.7"/><path class="cls-2" d="M497.54,305c-7.58-4.58-14-8.2-21.65-10.67a22.91,22.91,0,0,1-5.75,18.38c-7.69,8.15-24.7,8.74-35.14-.84a21.45,21.45,0,0,1-7.18-17c-7.86,2.72-14.64,6.7-22.91,12,20.76,10,37.27,19.11,51.8,30.75,13.6-12.69,27.42-22.78,40.83-32.66"/><path class="cls-2" d="M361.26,477c18.31-23.79,31.45-47.88,45.31-73.51-7.74,5.44-15.1,10.54-22.38,14.4.12,7.34-3.12,15.89-7.91,23.07-10.14,15.21-25.4,16.86-34.46,9.27-4.24-3.56-6.06-9.48-5.65-15.9a178.23,178.23,0,0,1-23.57,2.17A196.72,196.72,0,0,0,361.26,477"/><path class="cls-3" d="M313.38,248.4c11.82-11.87,27.78-36.3,39.38-57l2.53-2.55,1.93-.26a275.75,275.75,0,0,1,43.48,23.06L401,213l-2.22,1.66a123.83,123.83,0,0,0-17.51,7.13l-1-.57-1-.59c-.53-4.78-2.44-8.31-5.39-9.94a14.44,14.44,0,0,0-7.05-1.73c-8.67,0-18.09,6.17-24.59,16.09a39.18,39.18,0,0,0-6.44,17.76l-1,1.41-1,1.37a109.71,109.71,0,0,1-19,5.53l-2.11-.63Z"/><path class="cls-2" d="M547.88,344.37c-6.44,4.29-18.32-2.59-26.13-14.75a41.27,41.27,0,0,1-5.65-14.5c-7.14-3.53-13.52-7.05-18.56-10.09,12.81,17.7,24.66,38.38,37.82,59.62,12.61-9.19,24.53-18.18,36.37-30a134.66,134.66,0,0,1-18.5-4.38c.65,6-1,11.23-5.35,14.15"/><path class="cls-2" d="M556.18,252.56c-4.43-.59-8.51-2.35-13.32-4l-1.33-1.5-1.46-1.59a57.87,57.87,0,0,0-8.34-16.1c-5.4-7.52-13.31-15.55-19.35-15.55a5.56,5.56,0,0,0-4.05,1.68c-2,1.93-2,6.71-.09,12.85l-.82.64-.81.65c-2.88-1.82-11.82-7.35-14.07-8.78l-3.63-3.25.22-1.33c2.16-1.42,4.37-2.92,6.5-4.36,5.94-4.06,11.57-8.24,18.3-11.74l2.31-.09,3.09,1.85a312.23,312.23,0,0,1,22.82,28.16c5.53,7.59,10.77,14.74,15.74,20.08l.19,1.64Z"/><path class="cls-2" d="M628,430.06c-7.06,11.7-19.89,12.09-27.44,5.83a19,19,0,0,1-7-14.79,102.65,102.65,0,0,1-18.86-.91,249.75,249.75,0,0,0,42.77,40.32,418.48,418.48,0,0,0,30.93-56.42,154.49,154.49,0,0,1-15.72,7.79A31.89,31.89,0,0,1,628,430.06"/><path class="cls-2" d="M536.4,262.58c-6.63,0-16-9.39-22.33-18.69a59.23,59.23,0,0,1-7.46-14.24l.81-.65.82-.64c10.6,6.63,21,12.93,31.83,17.12l1.46,1.59,1.33,1.5c.93,4.84.41,8.77-1.53,11.46A5.87,5.87,0,0,1,536.4,262.58Z"/><path class="cls-2" d="M556.31,483.12c-10.63-13.58-21.78-18.05-27.82-12.77-2.75,2.4-3.34,7.34-2.21,13.19,14.67,6,25.45,12.29,37.28,16.33a32.94,32.94,0,0,0-7.25-16.75"/><path class="cls-2" d="M632.51,329.69c-.26-7.18-4-13.64-10.57-17.92-7.4-4.79-19.51-3.29-26.41,6.69a28.56,28.56,0,0,0-5,18,98.23,98.23,0,0,0,42-6.74"/><path class="cls-8" d="M361.26,477c-19,5.67-36.55,8-48.66,6v46.52c21.77-17.71,35.4-35.28,48.66-52.52"/><path class="cls-8" d="M358.53,283.06C342.11,290.77,324.23,297,312.6,297v46.5c18.41-16.8,31.84-38.21,45.93-60.45"/><path class="cls-8" d="M361.26,380c-21.58,8.53-37.38,10.92-48.66,10v46.5c21.56-19,35.72-38.25,48.66-56.51"/><path class="cls-7" d="M361.26,477c15.87,9.43,33,18.85,49.86,26.73,11.05-22.1,22.88-45.73,46.07-71.92-31.18,7-60.87,34.77-95.93,45.19"/><path class="cls-7" d="M456.71,337.69c-35,4.83-67.9,31.4-95.45,42.3a423.7,423.7,0,0,0,45.31,23.5c15.89-29.38,32.86-49.69,50.14-65.8"/><path class="cls-7" d="M540.13,450.45C553.72,470.06,568,488,583.91,503.81a324.81,324.81,0,0,0,33.54-43.3c-24,5.79-51,4.88-77.32-10.06"/><path class="cls-8" d="M456.71,337.69c16.16,12.94,29.87,29,44.6,52.55,12.14-9.87,23.34-17.8,34.05-25.59-20.47-11.42-48.73-31.09-78.65-27"/><path class="cls-8" d="M497.54,305c11.23-8.27,22.21-16.43,32.73-25.79-26.28-11.74-53.94-29.63-82.18-29.56A366,366,0,0,1,497.54,305"/><path class="cls-7" d="M457.19,431.81a277.23,277.23,0,0,1,50,45.19,319.59,319.59,0,0,1,33-26.55c-19.74-11.2-45.32-27.06-82.94-18.64"/><path class="cls-3" d="M507.15,477A94.63,94.63,0,0,0,484,474a28.19,28.19,0,0,1-6,20.11c-8.77,11.35-20.34,16.46-32,11.09-7-3.23-12-9.12-11.77-17.57-7.58,4.2-15.13,10.25-23,16.15,19.39,9,39,16.16,55.91,24.07A212.79,212.79,0,0,1,507.15,477"/><path class="cls-7" d="M375.11,304.38c-11.15-5.46-25.74,6.61-33.42,17.69a34.37,34.37,0,0,0-5.93,16.73A212.33,212.33,0,0,0,383,319.88c.25-7.18-2.48-12.84-7.93-15.5"/><path class="cls-7" d="M605.47,226.19c-10.17-4.81-21.07.87-25.79,10.87a25.13,25.13,0,0,0-2.17,15.33,104,104,0,0,0,40.54-10,21.64,21.64,0,0,0-12.58-16.16"/><path class="cls-3" d="M466.9,209a33.24,33.24,0,0,0-7.25-14.57c-8.12-9.42-20.42-14.05-30.64-3.84-4,4-6.19,10.49-5.84,17C439.23,204.75,453,205,466.9,209"/><path class="cls-5" d="M532.52,228.8c-7.42-10.34-18.46-20.28-24.88-14-2.52,2.47-2.21,8-.22,14.2,11,6.87,22.28,13.76,34.11,18.07-1.43-5.72-4.68-12.23-9-18.27"/><path class="cls-5" d="M374.3,209.86c-9.22-5.11-23.66.55-32.92,14.69a39.31,39.31,0,0,0-6.67,19.69c17.77-6.5,30.54-15.58,45.53-23-.43-5.24-2.42-9.44-5.94-11.38"/><path class="cls-3" d="M558.08,251.83c-5.74-.6-11-2.73-16.55-4.76,1.27,5,1.1,9.47-1,12.38-5,6.91-17.44-4-25.66-16.12A58.75,58.75,0,0,1,507.42,229c-7.11-4.46-11.77-7.71-18.51-11.38,17,22.34,30.85,46.06,41.36,61.62,10.48-9.33,19-17.27,27.81-27.41"/><path class="cls-5" d="M488.91,217.62a110.57,110.57,0,0,0-22-8.65c1.25,6.14.32,12.43-4.27,17.14-7.63,7.83-21.44,6.24-31.05-1.53a23.15,23.15,0,0,1-8.41-17A206.45,206.45,0,0,0,401,213a358.63,358.63,0,0,1,47.11,36.66c11.83-12.13,26.41-22.67,40.82-32.06"/><path class="cls-5" d="M605.61,291c9.83-15.93,20-35.62,30.85-60.36a94.74,94.74,0,0,1-18.41,11.76,25.86,25.86,0,0,1-1.61,13.84c-6.05,15.31-18.32,19.93-31,9.58a22.46,22.46,0,0,1-8-13.38,126.51,126.51,0,0,1-19.43-.56A283.6,283.6,0,0,0,605.61,291"/><path class="cls-6" d="M401,213a123.12,123.12,0,0,0-20.74,8.22c.51,6.29-1.23,14.09-5.31,21.29C365.6,259,350.5,266,339.83,258.13c-3.58-2.65-5.34-7.79-5.12-13.89-7.07,2.59-13,4.76-22.11,6.27,11.72,10.81,27.58,22.25,45.93,32.55,15.21-24,28.73-48.95,42.45-70"/><path class="cls-8" d="M355.29,188.89A275,275,0,0,1,401,213c12.8-19.68,26.48-36.59,41-45.69-27.26-4-54.43.53-86.67,21.56"/><path class="cls-8" d="M630.72,187.61s-22.16,13-42.24,18.6c11.49,8.22,31.42,18.53,48,24.38a249.44,249.44,0,0,1-5.74-43"/><path class="cls-8" d="M516.24,200.1c17,17.49,30.12,39.6,41.84,51.73a194.86,194.86,0,0,0,30.4-45.62c-20.08,5.63-44.13,4.32-72.24-6.11"/><path class="cls-8" d="M488.91,217.62c8.84-5.77,17.13-12.5,27.33-17.52-28.41-10.53-46.52-28.67-74.28-32.77,14.51,11,31.82,30.38,47,50.29"/><path class="cls-8" d="M355.29,188.89A96.29,96.29,0,0,1,312.6,204v46.5C326,237.89,344.23,209,355.29,188.89"/></g></svg>