<svg xmlns="http://www.w3.org/2000/svg" viewBox="0 0 1000 1000"><defs><style>.cls-1{fill:#d20515;}.cls-2{fill:#fff;}</style></defs><title>m1khan icons two FINAL 1Artboard 1 copy 19</title><g id="background"><circle class="cls-1" cx="500" cy="500" r="387"/></g><g id="color"><path class="cls-2" d="M795.37,535.61c0,1.31-1.3,2.61-3.92,3.92l-1.31,1.31v1.31c0,1.31,0,1.31-1.31,2.62l-2.62,1.31h-2.62v-1.31L781,546.08v1.31c0,1.31,0,1.31-1.31,2.61l-2.62,1.32h-2.62V550c-9.16,5.24-20.94,9.17-31.41,14.4v1.32c0,1.3,0,1.3-1.31,2.61l-2.62,1.31h-2.62l-1.31-1.31-3.92,1.31,1.31,1.31c0,1.31,0,1.31-1.31,2.62l-2.62,1.3H726l-1.31-1.3c-5.23,2.62-10.47,2.62-14.4-5.24-1.3-3.93-1.3-11.78-2.61-15.71a4.65,4.65,0,0,0-3.93-2.62c-49.74-9.16-65.45,1.32-98.17-6.54-10.47-2.62-15.71-11.78-27.49-11.78-26.18-1.31-34,0-64.14-1.31a20.79,20.79,0,0,0-1.3,5.24H410.55l15.71,7.85L431.49,588a30,30,0,0,1-5.23,1.3c1.3,9.17,1.3,21,2.61,31.42,0,9.16,1.31,19.63,1.31,26.17a23.92,23.92,0,0,1-2.62,11.79c-1.3,3.93-5.23,6.54-7.85,7.85-1.31,1.31-5.23,3.93-9.16,6.55l-13.09,6.54c0,1.31,1.31,2.62,1.31,3.93-61.52,30.1-138.75,39.26-163.62,87.7-2.61,5.23-13.09,2.61-13.09-3.93v-9.17h-1.31c-1.3,0-1.3-1.3-1.3-2.61v-2.62a4.58,4.58,0,0,1,1.3-2.62h1.31c0-2.62,1.31-5.23,1.31-7.85h-1.31c-1.31,0-1.31-1.31,0-2.62l1.31-2.62c0-1.31,1.31-2.61,2.62-1.31h1.31c3.93-10.47,13.09-14.4,17-24.87h0c-1.31,0-1.31-1.3,0-2.61L243,705.77c0-1.31,1.31-2.62,2.61-1.31h1.31c0-1.31,1.31-2.62,2.62-3.93h-1.31c-1.31,0-1.31-1.3,0-2.62l1.31-2.61c1.31-1.31,1.31-1.31,2.62-1.31h0l1.31-1.31a11.88,11.88,0,0,1,13.09,0c3.92,2.62,19.63,10.47,34-2.62,23.56-22.25,52.36-51,73.3-52.35-5.24-11.79-15.71-38-17-48.44l-6.54-1.3c-3.93-7.86-13.09-44.51-15.71-73.3,0,0-2.62-30.11,0-40.58-1.31,0-5.23,2.62-5.23,2.62-3.93-9.17,9.16-90.32,20.94-113.88L370,355c-2.61,0-15.7-1.3-52.36-3.92-20.94,18.32-43.19,38-56.28,48.43-2.62,1.31-5.23,13.09-5.23,13.09a69.23,69.23,0,0,1-11.78,9.16c-7.86,5.23-24.87,9.16-28.8,2.62-1.31-1.31-1.31-2.62,0-2.62,2.62-2.62,13.09-7.85,17-14.4-5.24,2.62-11.79,6.55-17,5.24-2.62,0-3.93-5.24,0-6.55,7.85-2.61,13.09-5.23,18.32-10.47,3.93-6.54,9.17-10.47,17-10.47,0,0,34-44.5,53.67-65.45,5.23-5.23,15.7-3.92,15.7-3.92l1.31-6.55s68.07-7.85,100.79,2.62c-1.31-19.63,7.85-44.5,38-44.5,15.71,0,38,14.4,41.89,30.1,1.3,5.24-2.62,9.17-3.93,15.71-2.62,10.47,1.31,20.94,0,23.56s-3.93,2.62-6.55,6.55S485.16,355,485.16,355l-3.93,9.17-20.94-1.31c-7.86,17-23.56,51.05-28.8,85.08h0c17,1.31,92.94,11.78,92.94,11.78l1.31,6.54s31.41,3.93,57.59,15.71c5.23,1.31,20.94-1.31,30.1,3.93l2.62-2.62c34,10.47,62.83,28.8,95.55,36.65l20.95,5.24c11.78,2.61,19.63,2.61,26.17,3.92a167.77,167.77,0,0,0,23.56,1.31c3.93-1.31,11.79-2.62,13.09,5.24M845.11,432.2A41.89,41.89,0,1,0,887,474.09C887,450.53,867.37,432.2,845.11,432.2Z"/></g></svg>