<svg xmlns="http://www.w3.org/2000/svg" xmlns:xlink="http://www.w3.org/1999/xlink" viewBox="0 0 1000 1000"><defs><style>.cls-1{fill:url(#radial-gradient);}.cls-2{fill:url(#linear-gradient);}.cls-3{fill:url(#radial-gradient-2);}.cls-4{fill:url(#radial-gradient-3);}.cls-5{fill:url(#radial-gradient-4);}.cls-6{fill:url(#radial-gradient-5);}.cls-7{fill:#c96f5a;}</style><radialGradient id="radial-gradient" cx="500" cy="-2044" r="332" gradientTransform="matrix(0.71, 0.71, 0.71, -0.71, 1591.77, -1298.88)" gradientUnits="userSpaceOnUse"><stop offset="0.76" stop-color="#eaa822"/><stop offset="1" stop-color="#cc7a29"/></radialGradient><linearGradient id="linear-gradient" x1="500" y1="-2208.95" x2="500" y2="-1874.34" gradientTransform="matrix(1, 0, 0, -1, 0, -1544)" gradientUnits="userSpaceOnUse"><stop offset="0" stop-color="#eaa822"/><stop offset="0.39" stop-color="#f1c062"/></linearGradient><radialGradient id="radial-gradient-2" cx="504.74" cy="-2034.38" r="342.17" gradientTransform="matrix(1, 0, 0, -1, 0, -1544)" gradientUnits="userSpaceOnUse"><stop offset="0" stop-color="#a21d2e"/><stop offset="1" stop-color="#650b1a"/></radialGradient><radialGradient id="radial-gradient-3" cx="504.73" cy="-2034.38" r="342.17" xlink:href="#radial-gradient-2"/><radialGradient id="radial-gradient-4" cx="504.74" cy="-2034.37" r="342.17" xlink:href="#radial-gradient-2"/><radialGradient id="radial-gradient-5" cx="504.74" cy="-2034.37" r="342.17" xlink:href="#radial-gradient-2"/></defs><title>m1khan icons two FINAL 1Artboard 1 copy 14</title><g id="color"><circle class="cls-1" cx="500" cy="500" r="332" transform="translate(-207.11 500) rotate(-45)"/><path class="cls-2" d="M500,171.65c-171,0-309.6,146.43-309.6,327.06,0,7.37.26,14.69.71,21.94C255.41,635.6,369.7,712.08,500,712.08S744.58,635.6,808.89,520.65c.45-7.25.7-14.57.7-21.94C809.59,318.08,671,171.65,500,171.65Z"/><path class="cls-3" d="M501.15,168a330.66,330.66,0,0,0-163.62,43c14.91,26.73,44.69,87.08,69.19,180.21,34.21,130,90.07,288.47,204.1,397.93,0,0-119.72-204.1-119.72-459.5,0-61.87,6.36-115.63,16-161.6C505.12,168,503.14,168,501.15,168Z"/><path class="cls-4" d="M557,172.69c-3.34,17.58-10.16,50.73-21.42,94.28-17.1,66.13-4.56,295.31,27.37,360.3,0,0-14.9-167.82,99.54-417.51A329.93,329.93,0,0,0,557,172.69Z"/><path class="cls-5" d="M488.32,832C480.77,636.26,433,538.33,433,538.33c8.59,133.66-33.16,240.88-47,272.25A325.8,325.8,0,0,0,488.32,832Z"/><path class="cls-6" d="M516.84,831.94a325.84,325.84,0,0,0,90.28-17.51C533.48,751.42,490,668.31,490,668.31,508.82,725.85,515.2,806,516.84,831.94Z"/><path class="cls-7" d="M420.23,387.7c-18.87-71.7-42.12-139.18-69-183.95-4.62,2.34-9.19,4.75-13.68,7.29,14.91,26.73,44.69,87.08,69.19,180.21C439.56,516,492.39,667.05,597.43,775.77,476.07,601.38,441,466.7,420.23,387.7Z"/><path class="cls-7" d="M551.53,253.28c9.22-41.51,12.22-66.93,13.2-79.1-2.58-.5-5.15-1-7.75-1.49-3.34,17.58-10.16,50.73-21.42,94.28-17.1,66.13-4.56,295.31,27.37,360.3,0,0-2.19-24.84,1.6-69.57C527.38,425.21,539,309.87,551.53,253.28Z"/><path class="cls-7" d="M446.72,574.24C438.8,550.33,433,538.33,433,538.33c8.59,133.66-33.16,240.88-47,272.25.56.21,1.13.4,1.68.61C410.36,778.33,448.58,703.53,446.72,574.24Z"/><path class="cls-7" d="M516.84,831.94c4.15-.21,8.26-.5,12.37-.86a760.11,760.11,0,0,0-16.44-125.27c-14.84-22.3-22.81-37.5-22.81-37.5C508.82,725.85,515.2,806,516.84,831.94Z"/></g></svg>