<svg xmlns="http://www.w3.org/2000/svg" viewBox="0 0 1000 1000"><defs><style>.cls-1{fill:#fff;}.cls-2{fill:#2d2e2f;fill-rule:evenodd;}</style></defs><title>m1khan icons two FINAL 1Artboard 1 copy 13</title><g id="background"><circle class="cls-1" cx="500" cy="500" r="314"/></g><g id="color"><path class="cls-2" d="M502.77,538.07c66.72,18.41,116.47,27.1,116.47,27.1a1025.75,1025.75,0,0,1-76.4-85.93c38.73-54.77,69.24-92.67,69.24-92.67-41.08,9.1-79.92,20.22-114.7,31.65-33.05-47.46-51.19-80.86-51.19-80.86-9.64,35.62-14.3,71.3-15.86,104.81C375.12,463.55,340.62,481,340.62,481c29.85,13.45,60.84,25.2,90.85,35.3,4.87,64.44,17.89,109.17,17.89,109.17,16.75-29.88,35.15-59.6,53.41-87.42Z"/><path class="cls-2" d="M807.35,521.17c-9.08,14.21-23,24.34-39.19,31.47a797,797,0,0,0-9.2-85.9,1032,1032,0,0,1-42.78,99.36c-48.92,6.27-96.94-.93-96.94-.93,26.34,31.59,46.79,50.32,63.35,63-24.77,41.76-42.7,64-42.7,64,34.62-7.92,62.14-21.07,84-36.66a83.68,83.68,0,0,1,24.29,24.64s14.13-20,19-66.42c35-45.75,40.17-92.56,40.17-92.56Z"/><path class="cls-2" d="M791.37,394.85a218.56,218.56,0,0,0-62.56-81.46c-20.88-43.88-44.93-64.14-44.93-64.14,2,10.09.49,21.52-3.26,33.32-52-25.78-99.47-29.37-99.47-29.37,30.22,19.81,57,44.37,80.08,69.69-21.22,34.54-49.14,63.68-49.14,63.68,37-8.33,66.79-11.84,90.62-12.48C739.27,424.45,759,466.74,759,466.74c.7-34-2.7-63.73-8.39-89.35,31,5.9,40.79,17.46,40.79,17.46Z"/><path class="cls-2" d="M581.14,253.2a381.94,381.94,0,0,0-71.85-27.62c28.59-24.18,55.19-30.31,55.19-30.31-45.91-1.82-85.39,6.47-118.43,19.18-49.35-3.93-80.79,4.63-80.79,4.63,7.39,5.57,13.63,15.52,20,27.43-41.7,28.55-62.88,58.3-62.88,58.3,25.13-12.48,51.81-21.94,78.11-29.15,2.87,5.27,5.88,10.52,9.18,15.67a298.91,298.91,0,0,0,36.53,46c6.83-32.5,18.58-57.81,32.09-77.45,58.69-8.16,102.84-6.71,102.84-6.71Z"/><path class="cls-2" d="M264.31,353.3a546.29,546.29,0,0,1,58.08-48.49,200.94,200.94,0,0,0-44,5.76c14.95-36.22,31.55-56.3,31.55-56.3S214.69,322,196.61,443.73c0,0,8-22,35.14-55.2,10.77,24.13,23.17,39.32,23.17,39.32a312.91,312.91,0,0,1,9.39-74.55Z"/><path class="cls-2" d="M340.63,481c-33.05,1-59,3.93-79.17,7.63a543.23,543.23,0,0,1-6.54-60.81c-16.33,24.91-26.9,48.94-33.44,71.31-23,8.53-28.83,16.79-28.83,16.79,3.59,12.26,10.77,24.2,19.83,35.38-2.83,53,14.31,88,14.31,88,3.86-18.57,11.55-36.66,21.21-53.56a398.25,398.25,0,0,0,56.12,37.34c-13.16-23.59-22.85-50-30-75.56A436.35,436.35,0,0,1,340.63,481Z"/><path class="cls-2" d="M504.17,751.73s-27.74-11.06-67.44-33.44c1.42-23.86,5.1-54.24,12.65-92.8,0,0-31.55,31.23-72.41,55.43a681.18,681.18,0,0,1-72.86-57.8,464.06,464.06,0,0,0,34.49,76.51c-21.54,8.07-43.75,11.8-64.06,6.84,0,0,24,29.95,98,42.66,20.52,24.35,45.52,44.46,74.69,51.46,0,0-8.78-9.65-10.74-45.84a622.91,622.91,0,0,0,67.69-3Z"/><path class="cls-2" d="M638.3,748.67c6.36-29.28,1.59-56.5,1.59-56.5-18.72,26.92-37.13,47.41-54.16,63a425.93,425.93,0,0,1-81.57-3.46s20.45,20.42,44,32.21c-31.13,19.26-52,21-52,21,136.29,2.88,218.08-86.09,218.08-86.09-23,15.15-49.57,24.41-76,29.85Z"/></g></svg>