<svg xmlns="http://www.w3.org/2000/svg" viewBox="0 0 1000 1000"><defs><style>.cls-1{fill:#fff;}.cls-2{fill:#ec1c24;}.cls-2,.cls-3,.cls-4,.cls-5,.cls-6,.cls-7,.cls-8{fill-rule:evenodd;}.cls-3{fill:#f48120;}.cls-4{fill:#fdee36;}.cls-5{fill:#4fb864;}.cls-6{fill:#9f99ca;}.cls-7{fill:#7670b2;}.cls-8{fill:#c5579f;}.cls-9{fill:#211315;}</style></defs><title>m1khan icons two FINAL 1Artboard 1 copy 5</title><g id="background"><circle class="cls-1" cx="500" cy="500" r="423.5"/></g><g id="color"><path class="cls-2" d="M531.7,353,513.06,213.93s144.46-24,239.45,71L662.18,395.32s-46-46.06-130.48-42.3Z"/><path class="cls-3" d="M638.28,438.11l96.43-101.95S844.22,433.4,830.07,567l-142.65-.83s6.86-64.77-49.14-128.06Z"/><path class="cls-4" d="M638.62,575.52l139.82,11.92S770.61,733.68,657.3,805.85l-88.23-112.1s54.93-35,69.55-118.23Z"/><path class="cls-5" d="M531.35,661.41l77.79,116.8s-119.27,85-246.32,41.31l32.72-138.85s61.59,21.17,135.81-19.26Z"/><path class="cls-6" d="M397.33,631,354.44,764.63S213.66,724.28,168.66,597.7l129-60.92s21.81,61.37,99.67,94.23Z"/><path class="cls-7" d="M337.61,507.24l-131.23,49.7s-56.15-135.26,14.83-249.32l128,62.95s-34.41,55.3-11.61,136.67Z"/><path class="cls-8" d="M397.22,383.42,276.59,311.73S347.4,183.54,480.84,168l30.52,139.35s-64.69,7.54-114.14,76.07Z"/><path class="cls-9" d="M460,401.47a106.72,106.72,0,1,0,40-7.78,105.67,105.67,0,0,0-40,7.78Z"/><path class="cls-1" d="M420.26,544.75a72.53,72.53,0,0,1-14-11.27A100.12,100.12,0,0,1,403,477.63a89.63,89.63,0,0,1,6.81-11.3c.79-1.11,1.52-2.27,2.37-3.35l24,14.19v.61A184.94,184.94,0,0,0,440,516.12a.35.35,0,0,0,0,.14l-18.61,29.17c-.41-.21-.81-.43-1.2-.68Z"/><path class="cls-1" d="M491.59,594.07a91.73,91.73,0,0,0,12.77,5.35,99.67,99.67,0,0,1-53.94-13.06l40.22,7.16a9,9,0,0,0,.95.55Z"/><path class="cls-1" d="M491.45,586.81,444,578.36a147.62,147.62,0,0,1-14.84-21.51c-1.09-1.93-2.32-3.82-3.24-5.84l18.59-29.15,1.39.35a305.83,305.83,0,0,0,35.38,7.06c.69.1,1.28.19,1.77.24L505.32,568q-5.79,8.16-11.77,16.19c-.66.89-1.37,1.74-2.1,2.59Z"/><path class="cls-1" d="M570.4,570.4a98.27,98.27,0,0,1-12,10.23,91.8,91.8,0,0,0-3.59-16.34l23.77-44.35a112,112,0,0,0,18.73-10.56,8.39,8.39,0,0,0,1.89-1.81A99,99,0,0,1,570.4,570.4Z"/><path class="cls-1" d="M569.35,512.89c.88,1.68,1.76,3.39,2.63,5.11l-23,42.84-.39.07a210.32,210.32,0,0,1-37.54,3.62L488.17,524.9Q493.53,515,498.78,505c2.38-4.51,4.71-9.06,7.05-13.59l47.42-4.87a263.77,263.77,0,0,1,16.1,26.37Z"/><path class="cls-1" d="M559.73,462.08c-2.25,5.94-4.66,11.82-7.05,17.72l-46.21,4.74c-.55-.73-1.12-1.44-1.72-2.13q-8.19-9.27-16.43-18.47c.05-.07.1-.11.15-.17l-6.65-6.63,12.87-38.73a18.68,18.68,0,0,1,2.68-.53c7-.71,14-1.51,21-1.92a104,104,0,0,1,13-.07l31.82,35.87c-1.1,3.46-2.17,6.93-3.44,10.32Z"/><path class="cls-1" d="M570.4,429.6a99,99,0,0,1,20.39,29.51,100.9,100.9,0,0,0-19-10.2c-1-.43-2.11-.81-3.19-1.18l-31.32-35.31a43.91,43.91,0,0,0,.37-4.59A99,99,0,0,1,570.4,429.6Z"/><path class="cls-1" d="M468.12,406c.12.09.18.17.25.19a79.26,79.26,0,0,1,19.82,10.44l-12,36.18-.18.06c-2.46,1-5,1.93-7.39,3a213.89,213.89,0,0,0-28.86,15.57l-23.71-14a7.39,7.39,0,0,1,.42-2.16c1.59-4.25,3.16-8.51,5-12.67a94.41,94.41,0,0,1,4.69-9.32c1.13-1.24,2.3-2.48,3.5-3.68a99,99,0,0,1,38.74-24c-.07.11-.15.23-.22.36Z"/></g></svg>