<svg xmlns="http://www.w3.org/2000/svg" viewBox="0 0 1000 1000"><defs><style>.cls-1{fill:#ff3838;}.cls-2,.cls-3{opacity:0.2;}.cls-3{fill:#fff;}</style></defs><title>m1khan icons two FINAL 1Artboard 1 copy 24</title><g id="color"><polygon class="cls-1" points="415.5 582 248 582 248 414 415.5 414 415.5 246.5 583.5 246.5 583.5 414 751 414 751 582 583.5 582 583.5 749.5 415.5 749.5 415.5 582"/></g><g id="shadow"><polygon class="cls-2" points="751 414 751 582 583.5 582 583.5 749.5 415.5 749.5 415.5 710.5 545.5 710.5 545.5 543 713 543 713 414 751 414"/><polygon class="cls-3" points="415.5 246.5 583.5 246.5 583.5 267.5 436.5 267.5 436.5 435 269 435 269 582 248 582 248 414 415.5 414 415.5 246.5"/></g></svg>