<?xml version="1.0" encoding="utf-8"?>
<!-- Generator: Adobe Illustrator 27.0.0, SVG Export Plug-In . SVG Version: 6.00 Build 0)  -->
<svg version="1.1" id="Layer_1" xmlns="http://www.w3.org/2000/svg" xmlns:xlink="http://www.w3.org/1999/xlink" x="0px" y="0px"
	 viewBox="0 0 512 512" style="enable-background:new 0 0 512 512;" xml:space="preserve">
<style type="text/css">
	.st0{clip-path:url(#SVGID_00000004546996546473304870000008794555986514908059_);}
	.st1{fill:#BC2025;stroke:#FFFFFF;stroke-miterlimit:10;}
	.st2{clip-path:url(#SVGID_00000049909742532351341970000006724914734443979445_);}
	.st3{fill:#BC2025;}
	.st4{fill-rule:evenodd;clip-rule:evenodd;fill:#FFFFFF;}
	.st5{fill-rule:evenodd;clip-rule:evenodd;fill:#ED2024;}
	.st6{fill-rule:evenodd;clip-rule:evenodd;fill:#278E43;}
	.st7{fill-rule:evenodd;clip-rule:evenodd;fill:#FEBD11;}
</style>
<g>
	<g>
		<defs>
			<circle id="SVGID_1_" cx="256.31192" cy="255.3119" r="252.6881"/>
		</defs>
		<clipPath id="SVGID_00000129206319070010049290000018208823440130401455_">
			<use xlink:href="#SVGID_1_"  style="overflow:visible;"/>
		</clipPath>
		<g style="clip-path:url(#SVGID_00000129206319070010049290000018208823440130401455_);">
			<rect x="-194.5493" y="-90.0463" class="st1" width="836.8175" height="648.37012"/>
			<g>
				<g>
					<defs>
						
							<rect id="SVGID_00000120532825786714515960000001807691745488523186_" x="-7.0639" y="-8.0639" width="526.75159" height="526.75159"/>
					</defs>
					<clipPath id="SVGID_00000150808736085033522000000012596580482889016448_">
						<use xlink:href="#SVGID_00000120532825786714515960000001807691745488523186_"  style="overflow:visible;"/>
					</clipPath>
					<g style="clip-path:url(#SVGID_00000150808736085033522000000012596580482889016448_);">
						<rect x="-140.66032" y="-100.83325" class="st3" width="839.06189" height="664.07343"/>
						<path class="st4" d="M-144.14146-11.65955h800.9068v533.94293h-800.9068V-11.65955H-144.14146z"/>
						<path class="st5" d="M-144.14146-11.65955h800.9068v177.98096h-800.9068V-11.65955H-144.14146z"/>
						<path class="st6" d="M-144.14146,344.3024h800.9068v177.98099h-800.9068V344.3024H-144.14146z"/>
						<path class="st7" d="M256.31192,121.82999l10.00061,67.86698l29.56683-61.87422l-10.44342,67.79826l46.49158-50.43837
							l-29.96381,61.67575l59.29388-34.49078l-46.81979,50.11774l66.82874-15.4819l-59.54584,34.10907l68.42429,4.90108
							l-66.92798,15.04677l63.94308,24.8566l-68.39374-5.34387l53.77448,42.59818l-63.77509-25.2688l38.82693,56.55331
							l-53.49203-42.94937l20.42883,65.48514L276.0918,320.2016l0.229,68.59985l-20.00888-65.62253L236.30296,388.832
							l0.22902-68.59982l-38.46046,56.767l20.4288-65.48517l-53.492,42.94934l38.82692-56.55328l-63.7751,25.2688l53.77448-42.59818
							l-68.39371,5.34387l63.94307-24.85657L122.456,246.02122l68.42428-4.90109l-59.54584-34.10907l66.85156,15.47429
							l-46.81984-50.133l59.2939,34.49078l-29.92557-61.69101l46.49158,50.43837l-10.48163-67.76775l29.56679,61.90475
							L256.31192,121.82999z"/>
					</g>
					
						<use xlink:href="#SVGID_00000120532825786714515960000001807691745488523186_"  style="overflow:visible;fill:none;stroke:#FFFFFF;stroke-miterlimit:10;"/>
				</g>
			</g>
		</g>
		<use xlink:href="#SVGID_1_"  style="overflow:visible;fill:none;stroke:#FFFFFF;stroke-miterlimit:10;"/>
	</g>
</g>
</svg>
