<svg id="Layer_1" data-name="Layer 1" xmlns="http://www.w3.org/2000/svg" xmlns:xlink="http://www.w3.org/1999/xlink" viewBox="0 0 1500 1000"><defs><style>.cls-1{fill:none;}.cls-2{clip-path:url(#clip-path);}.cls-3{fill:#bc2025;}.cls-4{clip-path:url(#clip-path-2);}.cls-5{fill:#fff;}.cls-5,.cls-6,.cls-7,.cls-8{fill-rule:evenodd;}.cls-6{fill:#ed2024;}.cls-7{fill:#278e43;}.cls-8{fill:#febd11;}</style><clipPath id="clip-path"><circle class="cls-1" cx="750" cy="500" r="331"/></clipPath><clipPath id="clip-path-2"><rect class="cls-1" x="405" y="155" width="690" height="690"/></clipPath></defs><title>Kurdistan</title><g class="cls-2"><rect class="cls-3" x="159.41" y="47.61" width="1096.16" height="849.31"/><g class="cls-4"><rect class="cls-3" x="230" y="33.48" width="1099.1" height="869.88"/><path class="cls-5" d="M225.44,150.29H1274.56V849.71H225.44Z"/><path class="cls-6" d="M225.44,150.29H1274.56V383.43H225.44Z"/><path class="cls-7" d="M225.44,616.57H1274.56V849.71H225.44Z"/><path class="cls-8" d="M750,325.15l13.1,88.9L801.83,333l-13.68,88.81,60.9-66.07L809.8,436.53l77.67-45.18L826.14,457l87.54-20.28-78,44.68,89.63,6.42-87.67,19.71,83.76,32.56-89.59-7,70.44,55.8-83.54-33.1,50.86,74.08-70.07-56.26,26.76,85.78L775.91,585l.3,89.86L750,588.9l-26.21,86,.3-89.86L673.71,659.4l26.76-85.78L630.4,629.88l50.86-74.08-83.54,33.1,70.44-55.8-89.59,7,83.76-32.56-87.67-19.71,89.63-6.42-78-44.68L673.86,457l-61.33-65.67,77.67,45.18L651,355.7l60.9,66.07L698.17,333l38.73,81.09Z"/></g></g></svg>