<svg width="40" height="40" viewBox="0 0 40 40" fill="none" xmlns="http://www.w3.org/2000/svg">
<g clip-path="url(#clip0_2493_1036)" filter="url(#filter0_i_2493_1036)">
<path d="M20 0C8.97164 0 0 8.97164 0 20C0 31.0284 8.97164 40 20 40C31.0284 40 40 31.0284 40 20C40 8.97164 31.0284 0 20 0ZM26.1784 21.1784L17.845 29.5116C17.52 29.8366 17.0934 30 16.6666 30C16.24 30 15.8133 29.8366 15.4883 29.5116C14.8366 28.86 14.8366 27.8066 15.4883 27.155L22.6434 20L15.4884 12.845C14.8367 12.1934 14.8367 11.14 15.4884 10.4884C16.14 9.83672 17.1934 9.83672 17.845 10.4884L26.1784 18.8217C26.83 19.4734 26.83 20.5266 26.1784 21.1784Z" fill="white"/>
</g>
<defs>
<filter id="filter0_i_2493_1036" x="0" y="0" width="40" height="42" filterUnits="userSpaceOnUse" color-interpolation-filters="sRGB">
<feFlood flood-opacity="0" result="BackgroundImageFix"/>
<feBlend mode="normal" in="SourceGraphic" in2="BackgroundImageFix" result="shape"/>
<feColorMatrix in="SourceAlpha" type="matrix" values="0 0 0 0 0 0 0 0 0 0 0 0 0 0 0 0 0 0 127 0" result="hardAlpha"/>
<feOffset dy="2"/>
<feGaussianBlur stdDeviation="1"/>
<feComposite in2="hardAlpha" operator="arithmetic" k2="-1" k3="1"/>
<feColorMatrix type="matrix" values="0 0 0 0 0 0 0 0 0 0 0 0 0 0 0 0 0 0 0.25 0"/>
<feBlend mode="normal" in2="shape" result="effect1_innerShadow_2493_1036"/>
</filter>
<clipPath id="clip0_2493_1036">
<rect width="40" height="40" fill="white"/>
</clipPath>
</defs>
</svg>
