<svg width="29" height="30" viewBox="0 0 29 30" fill="none" xmlns="http://www.w3.org/2000/svg">
<path d="M8.17745 29.3542C10.1458 29.3542 12.1139 28.5946 13.6127 27.0751L17.659 22.9726C18.4265 22.1949 18.4265 20.9332 17.659 20.1556C16.8925 19.3773 15.6472 19.3773 14.8806 20.1556L10.8342 24.2581C9.36907 25.7435 6.98498 25.7429 5.51987 24.2576C4.05539 22.7722 4.05539 20.3555 5.51987 18.8703L9.56626 14.7678C10.3339 13.9901 10.3339 12.7284 9.56626 11.9508C8.79968 11.1725 7.55437 11.1725 6.78779 11.9508L2.7414 16.0533C-0.255829 19.0921 -0.255829 24.0365 2.74182 27.0753C4.24033 28.5944 6.20868 29.3542 8.17745 29.3542Z" fill="#231F20"/>
<path d="M26.5582 2.92505C23.5614 -0.112665 18.6852 -0.113736 15.6876 2.92505L11.6412 7.02755C10.8735 7.80519 10.8735 9.06691 11.6412 9.84455C12.4077 10.6228 13.6531 10.6228 14.4196 9.84455L18.466 5.74205C19.9311 4.25662 22.3152 4.25726 23.7803 5.74248C25.2448 7.22791 25.2448 9.64462 23.7803 11.1298L19.7339 15.2323C18.9665 16.01 18.9665 17.2717 19.7339 18.0493C20.1171 18.4385 20.6204 18.6331 21.1232 18.6331C21.626 18.6331 22.1292 18.4385 22.5124 18.0493L26.5588 13.9468C29.556 10.908 29.556 5.96384 26.5582 2.92505Z" fill="#231F20"/>
<path d="M20.0872 9.48874C19.3207 8.71046 18.0754 8.71046 17.3088 9.48874L9.21599 17.6937C8.44835 18.4714 8.44835 19.7331 9.21599 20.5107C9.59918 20.8999 10.1024 21.0945 10.6052 21.0945C11.108 21.0945 11.6113 20.8999 11.9945 20.5107L20.0872 12.3057C20.8547 11.5281 20.8547 10.2666 20.0872 9.48874Z" fill="#231F20"/>
</svg>
