<svg width="83" height="84" viewBox="0 0 83 84" fill="none" xmlns="http://www.w3.org/2000/svg">
<path d="M41.5 83.9922C63.8826 83.9922 82.0273 65.1916 82.0273 42C82.0273 18.8084 63.8826 0.0078125 41.5 0.0078125C19.1174 0.0078125 0.972656 18.8084 0.972656 42C0.972656 65.1916 19.1174 83.9922 41.5 83.9922Z" fill="#5C6BC0"/>
<path d="M65.5834 25.4342C58.3992 20.0928 51.7051 19.8707 50.4262 19.843L49.6098 20.6457C58.7803 23.3028 63.216 27.4547 63.216 27.4547C55.3444 23.5157 47.9266 22.1304 41.5003 22.0471C35.0741 22.1311 27.6561 23.5157 19.7847 27.4547C19.7847 27.4547 24.2204 23.3028 33.3911 20.6457L32.5745 19.843C31.2957 19.8707 24.6013 20.0921 17.4173 25.4342C17.4173 25.4342 9.38965 39.3843 9.38965 56.5175C9.66167 56.1854 14.3695 63.8801 26.5063 64.1569C26.5063 64.1569 28.5472 61.8041 30.0166 59.7282C22.9413 57.6523 20.2746 53.5006 20.2746 53.5006C27.6302 58.2133 34.5006 60.0265 41.5003 59.7909C48.5 60.026 55.3703 58.2133 62.7259 53.5006C62.7259 53.5006 60.0592 57.6523 52.9831 59.7282C54.4526 61.8041 56.4936 64.1569 56.4936 64.1569C68.6303 63.8801 73.3381 56.1854 73.6101 56.5175C73.6109 39.3843 65.5834 25.4342 65.5834 25.4342ZM31.6215 51.1479C28.5192 51.1479 26.0157 48.4906 26.0157 45.2244C26.0157 41.9583 28.5192 39.3012 31.6215 39.3012V39.3289C34.6965 39.3289 37.2272 41.9862 37.2272 45.2522C37.2279 48.4906 34.7235 51.1479 31.6215 51.1479ZM51.3778 51.1479C48.2755 51.1479 45.772 48.4906 45.772 45.2522C45.772 41.9862 48.3027 39.3289 51.3778 39.3289V39.3012C54.48 39.3012 56.9835 41.9585 56.9835 45.2244C56.9835 48.4904 54.48 51.1479 51.3778 51.1479Z" fill="white"/>
</svg>
