<svg width="31" height="31" viewBox="0 0 31 31" fill="none" xmlns="http://www.w3.org/2000/svg">
<path d="M30.0768 18.7777C32.3204 8.7029 23.4895 -0.457449 13.1242 1.2979C7.49404 -2.19342 1.86351e-05 1.75127 1.86351e-05 8.45103C-0.00315251 9.95057 0.398458 11.4232 1.16248 12.7135C-0.922203 22.8154 7.98227 31.8402 18.3398 29.9608C25.675 33.8435 33.7696 26.1207 30.0768 18.7777ZM20.223 24.8536C17.5106 25.9735 13.0235 25.9812 10.3149 24.563C6.44007 22.5016 5.76584 17.8633 9.09824 17.8633C11.6092 17.8633 10.8148 20.7927 13.3606 21.9862C14.5231 22.5248 17.0262 22.5791 18.4793 21.5987C19.9324 20.6183 19.7619 19.1265 18.9869 18.4019C16.9177 16.4915 11.0008 17.2394 8.29226 13.9069C7.66112 13.0575 7.32453 12.0253 7.33362 10.9671C7.34271 9.90891 7.69699 8.88261 8.34264 8.04416C10.8613 4.80084 18.2507 4.60322 21.432 7.05218C24.3653 9.32289 23.5748 12.3376 21.2034 12.3376C18.3553 12.3376 19.8549 8.60991 15.2554 8.60991C11.923 8.60991 10.6056 10.9814 12.9576 12.1361C16.1505 13.7171 24.2568 13.1785 24.2568 19.3784C24.2568 21.9474 22.6758 23.8655 20.223 24.8653V24.8536Z" fill="white"/>
</svg>
