<svg width="221" height="141" viewBox="0 0 221 141" fill="none" xmlns="http://www.w3.org/2000/svg">
<path d="M212.986 62.2828C211.115 60.5996 209.587 59.6706 209.105 59.2585C206.341 57.0514 208.657 58.8101 206.006 57.0933C204.101 55.899 203.577 54.9281 201.637 53.8455C198.161 51.8619 197.791 51.3032 194.993 47.9436C192.564 43.4945 188.795 42.8589 185.012 41.9998C181.355 41.1756 178.738 38.2631 178.103 37.2573C176.162 34.0793 172.987 32.5497 171.305 31.6138C166.112 28.7711 160.138 29.26 155.461 25.0763C148.412 20.0684 146.528 21.0043 139.13 20.7808C135.026 20.669 129.707 18.0498 127.962 16.5971C126.504 15.3608 124.787 14.5785 123.293 14.0966C118.066 12.4902 114.499 15.256 107.171 11.7079C105.042 10.6602 103.102 9.24236 101.008 8.0061C100.31 7.46829 99.6121 7.09811 97.5183 6.6511C93.3306 5.82693 89.8409 6.35077 85.6533 6.76285C82.8615 6.94445 82.1636 5.78502 80.0697 4.70242C77.9759 3.69665 75.8821 2.94931 73.7883 2.5023C70.3684 1.90163 66.7391 2.31371 63.04 3.06106C55.7116 4.52082 49.0812 0.819026 41.9622 1.48954C40.7757 1.60129 38.4725 3.09598 37.6349 4.77925C36.588 7.02128 36.588 8.32739 36.7416 10.5694C36.9656 13.5937 37.3013 13.8172 37.9002 15.7659C39.1704 20.0265 39.8404 22.3453 40.8525 25.195C42.0459 28.5196 42.011 32.5986 39.1704 33.9257C37.8234 34.5613 35.5481 34.5613 34.2779 33.589C32.2957 32.0594 31.2139 29.964 28.9735 29.517C25.9863 28.9192 22.3989 31.9826 19.2023 32.8417C16.0267 33.6658 15.6149 31.9476 13.4164 30.9349C11.9577 30.2623 10.5409 31.2338 9.71731 31.7172C8.22372 32.5413 7.88871 34.2595 7.51182 36.0895C7.25079 37.5492 7.10143 38.8903 7.47448 40.4967C7.99724 42.8156 8.77963 44.1985 8.82151 45.8049C8.97086 49.842 8.29875 52.8593 6.65789 54.9547C5.61098 56.3027 4.19416 60.0743 3.78237 61.4573C2.32368 66.088 2.47722 65.3057 1.76532 69.6291C1.39192 71.8363 1.4666 74.3018 1.27956 76.3552C1.24222 76.7289 1.54059 81.3981 1.76532 82.8229C2.32507 86.3012 2.9588 88.5013 3.7056 91.4139C4.75251 95.6395 5.19919 98.2517 5.08752 101.472C4.97585 104.796 2.88203 107.939 4.86348 110.272C6.09884 111.732 9.34426 113.038 11.9825 111.879C14.6696 110.684 16.6098 109.301 18.7036 109.001C22.5493 108.478 25.0549 110.118 26.73 109.937C28.2236 109.75 30.799 108.295 32.0343 108.184C33.0045 108.109 35.1332 107.997 35.88 108.557C37.0735 109.451 37.7854 110.429 37.5969 113.454C37.5969 113.491 36.885 116.701 36.885 116.743C35.6497 120.738 34.3445 124.496 33.7094 127.22C33.0373 130.098 29.8986 136.37 36.2848 138.884C38.9719 139.967 41.8125 139.743 45.358 138.847C47.1517 138.398 47.8985 138.324 49.5806 138.023C49.5806 137.911 52.0792 137.948 52.0792 137.835L54.3196 137.724C58.2769 137.275 59.2121 137.537 62.6949 138.023C65.9822 138.433 69.1159 139.07 72.3962 138.695C74.0364 138.508 75.6417 138.209 77.212 137.689C81.7696 136.23 83.8983 134.253 89.3562 133.506C93.9137 132.87 93.9138 133.655 97.9409 133.468C102.122 133.281 104.439 131.485 106.177 130.514C108.305 129.354 108.864 129.243 110.28 128.495C115.431 125.73 121.517 126.065 127.31 124.647C131.379 123.641 132.984 121.734 137.57 120.498C139.399 120.012 141.381 120.05 143.321 119.786C144.815 119.561 147.425 118.256 148.884 116.908C151.382 114.589 151.124 114.477 153.064 113.395C156.31 111.565 160.009 111.6 163.324 110.07C166.388 108.652 169.522 107.458 171.909 105.027C175.419 101.479 180.982 100.467 185.518 98.8251C188.206 97.8543 191.751 96.0942 194.731 91.0025C197.642 85.9946 200.217 85.2472 205.34 83.7386C208.774 82.6909 210.267 81.9855 212.948 79.478C215.335 77.236 216.193 75.7762 217.282 74.2117C218.517 72.4167 220.904 69.4273 218.364 67.1573C217.247 66.1515 216.088 64.3146 213.694 62.4498" fill="black"/>
<path d="M209.503 66.6133C206.515 64.483 206.257 64.1128 204.687 63.0651C200.653 60.3761 199.871 59.7754 197.889 57.4985C195.949 55.2913 195.425 54.544 193.22 53.3496C192.396 52.8635 186.833 50.9609 187.846 51.1425C182.764 50.2485 182.583 49.1589 180.587 47.2941C178.905 44.8635 176.93 41.9509 175.213 40.8264C175.885 41.2371 172.114 38.7729 172.149 38.8428C169.273 37.837 168.268 38.0954 164.611 37.9488C164.723 37.9488 160.654 37.3886 159.607 36.9011C157.736 36.0769 156.731 35.1061 155.461 34.1352C152.62 32.0049 153.409 32.4939 150.603 30.4334C146.793 27.6676 146.311 28.3381 141.46 27.8561C137.356 27.4454 134.411 26.4732 131.201 24.1543C125.484 20.0055 119.894 21.4653 116.404 20.9415C111.365 20.1941 107.82 18.1407 105.935 16.9463C101.866 14.369 102.801 15.5634 98.4672 13.5449C93.2745 11.0793 88.4169 15.1862 82.3448 13.4701C79.1342 12.5761 77.9408 10.8928 75.8818 10.1455C69.6702 8.32951 67.5763 9.30734 62.5512 9.37719C56.5489 9.37719 51.1747 7.77075 45.4516 7.84059C43.8464 7.84059 42.611 9.1886 42.8413 11.0185C42.8413 11.0185 42.916 13.2257 42.916 13.2606C43.2147 15.0905 43.8861 17.0322 44.4445 19.0508C45.1564 21.5163 45.5263 22.3405 46.5383 26.2448C46.9117 29.3809 46.5383 30.24 46.3143 31.588C46.1272 32.6706 45.4209 34.8008 44.8974 35.5831C44.3 36.4771 43.5155 36.8194 42.4686 37.455C40.6749 38.5376 38.8114 39.0265 36.8711 38.9846C34.8541 38.9098 35.3775 38.9098 32.2019 37.7483C31.0433 37.2999 28.6564 35.9533 26.2624 36.9661C21.67 38.9077 21.1465 37.3027 18.6549 37.4892C17.9081 37.5266 17.1613 37.8999 16.4494 38.2365C15.2908 38.7227 14.7673 39.4728 14.0206 41.0024C13.5725 41.9383 13.2389 43.4679 13.4231 44.8509C13.1621 44.8509 13.8712 47.0161 13.8712 47.0929C14.4309 50.0474 14.5831 52.3592 13.4608 54.9854C12.379 57.451 12.0789 58.3101 10.697 60.3286C9.34993 62.2703 6.99787 67.8719 6.81641 73.0404C7.00345 72.8532 6.77907 79.1658 7.52831 82.8886C8.35188 86.9955 9.54535 87.3377 9.80359 94.1337C9.91526 96.711 9.65423 98.953 9.57955 101.258C9.54221 102.753 10.0276 104.848 11.8967 104.548C14.5838 104.137 17.6129 102.641 19.7137 102.564C20.7606 102.527 22.5543 102.863 23.3011 103.087C27.5585 104.582 26.1417 103.461 32.7931 102.305C34.9986 101.894 38.0555 102.38 39.256 103.087C43.1784 105.364 42.8434 110.351 41.7197 115.31C41.5327 116.092 40.5611 121.289 40.3378 122.071C39.6657 124.683 39.7404 124.837 39.4026 127.638C39.2532 128.986 39.3279 130.026 40.0747 131.263C40.7098 132.268 41.4217 132.981 42.3918 132.981C46.7261 133.093 49.113 132.981 53.5589 132.199C59.3099 131.151 62.2134 131.151 66.1916 131.526C70.2606 131.9 76.0326 131.787 78.4056 130.89C80.5692 130.108 83.4447 128.425 85.734 127.936C93.2717 126.33 93.5509 127.077 99.6928 126.295C104.585 125.659 107.091 123.193 109.604 121.887C113.037 120.057 116.066 119.422 120.003 119.422C122.32 119.422 125.642 118.64 127.261 117.892C133.759 114.938 131.33 115.126 140.383 113.443C144.975 112.584 148.269 108.924 151.131 107.353C152.96 106.305 154.565 105.481 156.617 104.852C159.381 104.028 162.48 103.581 165.132 102.687C169.389 101.192 170.694 99.7325 173.018 97.6441C174.959 95.891 175.594 95.9259 177.757 94.5779C179.963 93.195 183.174 92.1892 184.402 91.812C187.201 90.9529 191.311 86.2454 195.15 82.3829C199.666 77.7522 203.874 78.5344 208.9 75.8454C211.964 74.239 213.939 73.1564 212.522 70.2438C211.962 69.0844 210.428 67.6665 209.2 66.8074" fill="white"/>
<path d="M107.673 89.6621C98.1809 82.2586 100.875 75.6233 104.874 72.5501L106.068 73.8562L104.051 75.9865L104.2 83.6694H131.559L135.07 80.3029V71.9215H132.976L123.484 61.7241C141.7 57.8407 150.634 65.796 156.008 74.5756H163.127L166.749 71.0624V50.8073H159.142L154.584 53.608C138.532 45.7854 125.969 46.6235 113.406 50.7444L111.354 48.649L122.94 41.7344L129.919 41.697L133.353 38.4492V31.5764H105.435L102.483 34.6007V39.3083L76.3103 54.325V42.8005L80.5328 38.54V31.5904H53.1037L49.3698 35.9627V41.4525H53.8505V71.1367H52.4686C52.4686 71.1367 48.8114 75.2856 48.9929 75.3624V83.0454H77.8876L80.7631 80.3563V71.1367H76.5057V68.783L92.4187 59.6332L93.7658 61.0162C90.2202 63.5166 87.4145 65.8774 85.3207 69.6071C82.1869 74.8036 81.0632 82.0396 82.8918 87.8367C84.0853 91.7201 85.5789 94.0739 88.1962 96.7769C90.6948 99.3542 92.8236 100.849 96.9205 102.791C100.285 104.474 108.157 106.863 114.299 107.498C120.239 107.947 127.7 107.872 132.585 107.237C137.959 106.677 143.543 104.736 146.893 103.354C149.58 102.047 152.567 100.853 154.85 99.0581C160.601 94.9093 166.715 88.6511 166.784 80.8285H156.036C152.672 92.8419 120.162 98.2898 107.11 89.0004" fill="black"/>
<path d="M107.673 89.6621C98.1809 82.2586 100.875 75.6233 104.874 72.5501L106.068 73.8562L104.051 75.9865L104.2 83.6694H131.559L135.07 80.3029V71.9215H132.976L123.484 61.7241C141.7 57.8407 150.634 65.796 156.008 74.5756H163.127L166.749 71.0624V50.8073H159.142L154.584 53.608C138.532 45.7854 125.969 46.6235 113.406 50.7444L111.354 48.649L122.94 41.7344L129.919 41.697L133.353 38.4492V31.5764H105.435L102.483 34.6007V39.3083L76.3103 54.325V42.8005L80.5328 38.54V31.5904H53.1037L49.3698 35.9627V41.4525H53.8505V71.1368H52.4686C52.4686 71.1368 48.8114 75.2856 48.9929 75.3624V83.0454H77.8876L80.7631 80.3563V71.1368H76.5057V68.783L92.4187 59.6332L93.7658 61.0162C90.2202 63.5166 87.4145 65.8774 85.3207 69.6071C82.1869 74.8036 81.0632 82.0396 82.8919 87.8367C84.0853 91.7201 85.5789 94.0739 88.1962 96.7769C90.6948 99.3542 92.8235 100.849 96.9205 102.791C100.285 104.474 108.157 106.863 114.299 107.498C120.239 107.947 127.7 107.872 132.585 107.237C137.959 106.677 143.543 104.736 146.893 103.354C149.58 102.047 152.567 100.853 154.85 99.0581C160.601 94.9093 166.715 88.6511 166.784 80.8285H156.036C152.672 92.8419 120.162 98.2898 107.11 89.0004" stroke="black" stroke-width="0.499517"/>
<path d="M132.534 33.4572L106.696 33.4941V37.9785H109.72L75.5548 57.4834V38.0149L79.8107 37.978V33.4936H54.7568V37.978H59.0128V73.8123H54.7568V78.9685H79.8107V73.8123H75.7417V67.7589L95.1576 56.6228L111.252 73.7751L107.666 73.7368V78.9682H133.655V73.7751H132.833L109.272 48.3288L126.784 38.0149L132.534 37.9398L132.534 33.4572ZM132.673 49.5894C124.557 49.5345 118.785 51.4814 115.992 52.3642L122.677 59.6878C137.052 56.2502 152.471 59.8372 159.23 70.0373L165.729 69.965L165.803 51.9905H159.829L155.573 54.794C146.719 50.8868 138.986 49.6321 132.673 49.5894ZM159.23 70.0373L159.083 70.0382H159.231C159.231 70.0377 159.23 70.0379 159.23 70.0373ZM96.2059 62.8635C90.2316 66.9365 88.2163 70.7478 86.9091 74.447C85.901 77.5111 84.4816 83.752 87.3567 89.5808C90.8666 95.6343 96.5424 99.1473 100.351 100.53C106.587 103.145 116.667 105.536 128.094 105.088C136.271 104.901 143.404 103.406 150.274 99.9683C154.269 97.8384 155.091 97.3534 159.086 93.6541C162.073 90.2164 164.499 88.0865 165.507 82.7802H158.637C155.874 87.3389 152.066 90.9624 143.328 93.5408L143.403 93.5791C126.526 98.5863 110.282 96.0831 103.076 87.1897C97.1016 80.3142 99.9018 74.2597 103.71 70.9715L96.2001 62.8698L96.2059 62.8635Z" fill="#E31837"/>
<path d="M159.23 70.0373C152.471 59.8372 137.052 56.2502 122.677 59.6878L115.992 52.3642C118.785 51.4814 124.557 49.5345 132.673 49.5894C138.986 49.6321 146.719 50.8868 155.573 54.794L159.829 51.9905H165.803L165.729 69.965L159.23 70.0373ZM159.23 70.0373L159.083 70.0382H159.231C159.231 70.0377 159.23 70.0379 159.23 70.0373ZM132.534 33.4572L106.696 33.4941V37.9785H109.72L75.5548 57.4834V38.0149L79.8107 37.978V33.4936H54.7568V37.978H59.0128V73.8123H54.7568V78.9685H79.8107V73.8123H75.7417V67.7589L95.1576 56.6228L111.252 73.7751L107.666 73.7368V78.9682H133.655V73.7751H132.833L109.272 48.3288L126.784 38.0149L132.534 37.9398L132.534 33.4572ZM96.2059 62.8635C90.2316 66.9365 88.2163 70.7478 86.9091 74.447C85.901 77.5111 84.4816 83.752 87.3567 89.5808C90.8666 95.6343 96.5424 99.1473 100.351 100.53C106.587 103.145 116.667 105.536 128.094 105.088C136.271 104.901 143.404 103.406 150.274 99.9683C154.269 97.8384 155.091 97.3534 159.086 93.6541C162.073 90.2164 164.499 88.0865 165.507 82.7802H158.637C155.874 87.3389 152.066 90.9624 143.328 93.5408L143.403 93.5791C126.526 98.5863 110.282 96.0831 103.076 87.1897C97.1016 80.3142 99.9018 74.2597 103.71 70.9715L96.2001 62.8698L96.2059 62.8635Z" stroke="#E31837" stroke-width="0.267239"/>
</svg>
