<svg width="86" height="73" viewBox="0 0 86 73" fill="none" xmlns="http://www.w3.org/2000/svg">
<path d="M76.2028 67.928L44.0917 46.3298C43.4385 45.8901 42.5653 45.8901 41.912 46.3298L9.80095 67.928C9.29856 68.2653 8.99965 68.8145 9 69.4002V71.2001C8.99982 72.1941 9.84557 73 10.8888 73H75.111C76.1542 73 77 72.1941 77 71.2001V69.4002C77.0011 68.8153 76.7037 68.2661 76.2028 67.928Z" fill="#CFD8DC"/>
<path d="M44.1977 43.2385L11.9897 17.3963C11.1359 16.7089 9.95328 16.9384 9.34849 17.9089C9.12096 18.274 8.99912 18.7104 9 19.1578V70.8422C8.99787 72.0315 9.84458 72.9976 10.8909 73C11.2845 73.0008 11.6685 72.8623 11.9897 72.6039L44.1977 46.7617C45.0526 46.0759 45.2565 44.7323 44.6531 43.7606C44.5285 43.5597 44.3745 43.3847 44.1977 43.2429V43.2385Z" fill="#FAFAFA"/>
<path d="M75.9769 17.2388C75.3471 16.8729 74.5911 16.9308 74.0103 17.3896L41.8023 43.2369C40.9474 43.9228 40.7435 45.2667 41.3469 46.2386C41.4715 46.4395 41.6255 46.6146 41.8023 46.7563L74.0103 72.6036C74.8641 73.2912 76.0467 73.0616 76.6515 72.0909C76.8783 71.727 77 71.292 77 70.846V19.1515C77 18.3466 76.6055 17.6089 75.9769 17.2388Z" fill="#EEEEEE"/>
<path d="M76.9196 1.24747C76.6904 0.503134 76.039 0 75.3046 0H10.7002C9.76123 0 9 0.811814 9 1.81315C9 2.38377 9.25199 2.92124 9.6801 3.26357L41.9823 28.6469C42.5819 29.1177 43.3991 29.1177 43.9987 28.6469L76.3007 3.26357C76.8927 2.80378 77.142 1.99146 76.9196 1.24747Z" fill="#ECEFF1"/>
<path d="M77.0417 0C76.6541 0 76.2768 0.142389 75.9667 0.405493L43 27.8982L10.0333 0.405493C9.72321 0.142389 9.34595 0 8.95828 0C4.01076 0 0 4.53931 0 10.1388V62.861C0 68.4607 4.01076 73 8.95828 73H12.5416C13.5311 73 14.3333 72.0921 14.3333 70.9722V24.1913L41.9643 46.2698C42.5839 46.7652 43.4122 46.7652 44.0318 46.2698L71.6665 24.1913V70.9722C71.6665 72.0921 72.4688 73 73.4583 73H77.0415C81.9892 73 86 68.4607 86 62.8612V10.1388C86 4.53931 81.9892 0 77.0417 0Z" fill="#F44336"/>
</svg>
