<svg width="81" height="81" viewBox="0 0 81 81" fill="none" xmlns="http://www.w3.org/2000/svg">
<path d="M40.9722 80.7813C63.0752 80.7813 80.9932 62.8632 80.9932 40.7603C80.9932 18.6573 63.0752 0.739258 40.9722 0.739258C18.8692 0.739258 0.951172 18.6573 0.951172 40.7603C0.951172 62.8632 18.8692 80.7813 40.9722 80.7813Z" fill="#CB2027"/>
<path d="M44.2066 54.3317C41.181 54.0977 39.9097 52.5973 37.5369 51.157C36.2328 57.9993 34.639 64.5584 29.9184 67.9849C28.4595 57.6433 32.0572 49.8757 33.728 41.6308C30.8801 36.8366 34.0705 27.187 40.0774 29.5648C47.4705 32.4884 33.6767 47.3909 42.9367 49.2522C52.6042 51.1955 56.5508 32.4777 50.5553 26.3894C41.893 17.5995 25.3411 26.1897 27.3765 38.7728C27.8723 41.8491 31.0513 42.7829 28.6464 47.0277C23.1025 45.8 21.4488 41.4275 21.6614 35.5982C22.0045 26.0563 30.2352 19.3752 38.4908 18.4506C48.9315 17.282 58.731 22.2845 60.0836 32.1053C61.6053 43.1896 55.3701 55.1935 44.2066 54.3317Z" fill="#F1F2F2"/>
</svg>
