<svg width="33" height="27" viewBox="0 0 33 27" fill="none" xmlns="http://www.w3.org/2000/svg">
<path d="M27.7577 3.06207C25.6565 2.08832 23.4185 1.37082 21.061 0.960815C20.7706 1.47332 20.429 2.17373 20.2069 2.73748C17.7127 2.36165 15.2356 2.36165 12.7927 2.73748C12.5536 2.17373 12.2119 1.47332 11.9215 0.960815C9.56397 1.37082 7.32605 2.08832 5.2248 3.06207C0.988134 9.45123 -0.156449 15.6867 0.407301 21.8196C3.22605 23.9209 5.9423 25.185 8.62438 26.0221C9.29063 25.1167 9.87147 24.1429 10.384 23.135C9.41022 22.7763 8.48772 22.315 7.61647 21.7854C7.85563 21.6146 8.07772 21.4267 8.2998 21.2559C13.6469 23.75 19.4381 23.75 24.7169 21.2559C24.9389 21.4438 25.161 21.6146 25.4002 21.7854C24.5289 22.315 23.5894 22.7592 22.6327 23.135C23.1452 24.1429 23.726 25.1167 24.3923 26.0221C27.0744 25.185 29.8077 23.9209 32.6094 21.8196C33.2756 14.6959 31.4648 8.52873 27.7919 3.06207H27.7577ZM11.1015 18.0613C9.49563 18.0613 8.18022 16.575 8.18022 14.7471C8.18022 12.9192 9.46147 11.433 11.1015 11.433C12.7415 11.433 14.0398 12.9192 14.0227 14.7471C14.0227 16.558 12.7415 18.0613 11.1015 18.0613ZM21.881 18.0613C20.2752 18.0613 18.9598 16.575 18.9598 14.7471C18.9598 12.9192 20.241 11.433 21.881 11.433C23.521 11.433 24.8194 12.9192 24.8023 14.7471C24.8023 16.558 23.521 18.0613 21.881 18.0613Z" fill="white"/>
</svg>
