<svg width="86" height="87" viewBox="0 0 86 87" fill="none" xmlns="http://www.w3.org/2000/svg">
<path d="M42.8648 86.3416C66.5383 86.3416 85.7295 67.1504 85.7295 43.4768C85.7295 19.8033 66.5383 0.612061 42.8648 0.612061C19.1912 0.612061 0 19.8033 0 43.4768C0 67.1504 19.1912 86.3416 42.8648 86.3416Z" fill="#03A9F4"/>
<path d="M64.0822 48.2428C67.3478 33.5785 54.494 20.2453 39.4068 22.8003C31.2117 17.7185 20.3037 23.4602 20.3037 33.2119C20.2991 35.3945 20.8837 37.5379 21.9958 39.416C18.9614 54.1198 31.9223 67.2555 46.9983 64.5201C57.6751 70.1715 69.4572 58.9308 64.0822 48.2428ZM49.7394 57.0864C45.7914 58.7164 39.2601 58.7277 35.3177 56.6634C29.6776 53.6629 28.6962 46.9117 33.5467 46.9117C37.2015 46.9117 36.0453 51.1756 39.7508 52.9128C41.4428 53.6967 45.0863 53.7757 47.2014 52.3488C49.3164 50.9218 49.0683 48.7504 47.9402 47.6957C44.9284 44.9151 36.316 46.0036 32.3736 41.1532C31.4549 39.9168 30.965 38.4144 30.9782 36.8741C30.9914 35.3339 31.5071 33.8401 32.4469 32.6197C36.1129 27.8989 46.8686 27.6113 51.4991 31.1758C55.7687 34.4809 54.6181 38.8689 51.1664 38.8689C47.0209 38.8689 49.2036 33.4431 42.5088 33.4431C37.6583 33.4431 35.7407 36.8949 39.1642 38.5756C43.8117 40.8768 55.6108 40.0928 55.6108 49.117C55.6108 52.8564 53.3096 55.6482 49.7394 57.1034V57.0864Z" fill="white"/>
</svg>
