<svg width="31" height="31" viewBox="0 0 31 31" fill="none" xmlns="http://www.w3.org/2000/svg">
<path fill-rule="evenodd" clip-rule="evenodd" d="M15.7981 0.96875H15.7967C15.77 0.96875 15.7448 0.968745 15.7209 0.969065C15.53 0.970988 15.2162 0.974027 15.188 0.974347C14.4998 0.974347 13.1229 1.07129 11.6439 1.72222C10.7982 2.09414 10.0376 2.59704 9.38315 3.21697C8.60291 3.95561 7.96728 4.86631 7.49425 5.92417C6.80149 7.47307 6.96594 10.082 7.09802 12.1786L7.0985 12.1819C7.11264 12.4064 7.12751 12.6409 7.14109 12.8693C7.03946 12.9159 6.87468 12.965 6.63182 12.965C6.24105 12.965 5.77637 12.8404 5.25104 12.595C5.09647 12.5232 4.92006 12.4869 4.7254 12.4869C4.41264 12.4869 4.08294 12.5787 3.79693 12.7464C3.4371 12.957 3.2046 13.2548 3.14145 13.5849C3.09984 13.8033 3.10184 14.2349 3.58266 14.6726C3.84714 14.9135 4.23566 15.1357 4.73713 15.3333C4.86872 15.385 5.02489 15.4343 5.19031 15.4867C5.76433 15.6686 6.6331 15.9434 6.85966 16.4751C6.97446 16.7446 6.92505 17.0993 6.7132 17.528C6.70765 17.5397 6.70212 17.5512 6.69705 17.5632C6.64411 17.6865 6.15019 18.802 5.13705 19.9785C4.56134 20.6476 3.92724 21.2067 3.25336 21.6409C2.43086 22.1709 1.54088 22.5174 0.608398 22.6706C0.242217 22.7305 -0.01929 23.0558 0.00111639 23.4255C0.00738227 23.532 0.0324498 23.6383 0.0759131 23.741L0.0769577 23.7429C0.225021 24.0882 0.568309 24.3816 1.12642 24.6403C1.80841 24.9561 2.82838 25.2219 4.15773 25.4297C4.2249 25.5571 4.29463 25.8772 4.34291 26.0964C4.39344 26.3293 4.44614 26.5688 4.52126 26.8232C4.60232 27.0989 4.81256 27.4282 5.35268 27.4282C5.55738 27.4282 5.79277 27.3823 6.06535 27.3296C6.46455 27.2515 7.01045 27.1449 7.6918 27.1449C8.06955 27.1449 8.46103 27.1781 8.85509 27.2434C9.61469 27.3695 10.2695 27.8307 11.0272 28.3648C12.1362 29.1465 13.3915 30.0312 15.3094 30.0312C15.3617 30.0312 15.4141 30.0296 15.466 30.026C15.5293 30.0289 15.6079 30.0312 15.6908 30.0312C17.6093 30.0312 18.8642 29.1462 19.972 28.3651L19.9738 28.3636C20.7316 27.8301 21.3857 27.3695 22.1451 27.2434C22.539 27.1782 22.9304 27.1449 23.3083 27.1449C23.9592 27.1449 24.4746 27.2277 24.9347 27.3171C25.2351 27.3761 25.4684 27.4045 25.6475 27.4045L25.665 27.4048H25.6832C26.0782 27.4048 26.3685 27.1886 26.4792 26.8102C26.5528 26.5612 26.6054 26.3273 26.6572 26.0904C26.7024 25.885 26.7745 25.5558 26.8417 25.4271C28.1719 25.2188 29.1915 24.9537 29.8735 24.6379C30.4304 24.3804 30.7732 24.0873 30.9222 23.7434C30.9668 23.6403 30.993 23.5335 30.9988 23.4247C31.0198 23.0557 30.7579 22.7297 30.3915 22.6698C26.2472 21.9887 24.3803 17.7429 24.303 17.5625C24.2981 17.5506 24.2924 17.5389 24.2866 17.5274C24.0747 17.0985 24.0258 16.7442 24.1407 16.4742C24.3668 15.943 25.235 15.6682 25.8094 15.4863C25.9757 15.4341 26.1324 15.3844 26.263 15.333C26.8285 15.1103 27.2327 14.8687 27.4993 14.5944C27.8178 14.2673 27.8798 13.9539 27.8759 13.7489C27.8662 13.2527 27.4858 12.8118 26.8807 12.5959C26.6763 12.5117 26.4433 12.4672 26.2059 12.4672C26.0444 12.4672 25.8051 12.4893 25.5787 12.5947C25.0938 12.821 24.6595 12.9446 24.2867 12.9623C24.0884 12.9522 23.9493 12.9094 23.8593 12.8684C23.8706 12.6749 23.8831 12.4761 23.8961 12.2688L23.9014 12.18C24.0342 10.0821 24.1993 7.47116 23.5062 5.92114C23.0311 4.85951 22.3933 3.94647 21.6099 3.20622C20.9529 2.58589 20.1897 2.08308 19.341 1.7114C17.864 1.06527 16.4872 0.96875 15.7981 0.96875Z" fill="white"/>
</svg>
