<svg width="83" height="86" viewBox="0 0 83 86" fill="none" xmlns="http://www.w3.org/2000/svg">
<path d="M41.5 86C64.4198 86 83 66.7482 83 43C83 19.2518 64.4198 0 41.5 0C18.5802 0 0 19.2518 0 43C0 66.7482 18.5802 86 41.5 86Z" fill="#FFD633"/>
<path fill-rule="evenodd" clip-rule="evenodd" d="M42.1074 12.043C46.7715 12.421 51.3188 15.34 53.4673 20.2865C55.3744 24.6773 54.7348 29.8297 54.4916 34.5495C55.7534 35.2198 57.1239 33.7857 58.2772 33.7857C60.841 33.7857 62.7004 37.1992 58.3721 39.1943C57.4631 39.5995 55.4143 40.0828 54.9529 41.3453C54.3154 43.0753 58.4536 51.7726 65.0206 53.0351C65.6129 53.1437 66.0365 53.7586 65.9975 54.4535C65.8754 56.9319 61.425 57.8513 59.2948 58.241C58.5485 59.9554 59.4441 62.5429 56.2419 61.8103C51.8051 60.7964 50.3397 62.0752 48.2501 63.7898C38.563 71.7856 34.1934 62.4181 30.34 61.67C27.4771 61.1088 25.659 62.0129 24.6956 62.0129C22.9181 62.0129 23.2981 59.3788 22.7692 58.241C20.8567 57.8981 16.9348 57.0876 16.1885 55.0614C15.0216 51.8817 19.4591 54.5937 24.3566 47.9539C25.38 46.5522 26.2337 44.9948 26.8939 43.3247C28.0741 40.5036 25.9438 40.2081 23.7045 39.1782C18.5214 36.7935 22.3206 32.8034 24.5322 34.019C25.4141 34.5018 26.6759 34.9846 27.5715 34.534C27.368 30.7311 26.8795 24.7145 28.1413 21.4259C30.5645 15.0624 36.2363 11.5671 42.1074 12.043Z" fill="white" stroke="black" stroke-width="0.5" stroke-miterlimit="10" stroke-linejoin="round"/>
</svg>
