<svg width="39" height="23" viewBox="0 0 39 23" fill="none" xmlns="http://www.w3.org/2000/svg">
<path fill-rule="evenodd" clip-rule="evenodd" d="M13.9905 0.574137C14.6247 1.14288 14.6247 2.06501 13.9905 2.63374L4.31181 11.313L13.9905 19.9924C14.6247 20.5611 14.6247 21.4831 13.9905 22.0518C13.3563 22.6206 12.328 22.6206 11.6937 22.0518L0.866662 12.3428C0.232434 11.774 0.232434 10.852 0.866662 10.2833L11.6937 0.574137C12.328 0.00539841 13.3563 0.00539841 13.9905 0.574137ZM24.6863 0.574137C25.3205 0.00539841 26.3487 0.00539841 26.9829 0.574137L37.81 10.2833C38.1147 10.5563 38.2857 10.9268 38.2857 11.313C38.2857 11.6992 38.1147 12.0697 37.81 12.3428L26.9829 22.0518C26.3487 22.6206 25.3205 22.6206 24.6863 22.0518C24.052 21.4831 24.052 20.5611 24.6863 19.9924L34.3648 11.313L24.6863 2.63374C24.052 2.06501 24.052 1.14288 24.6863 0.574137Z" fill="#404040"/>
</svg>
