<svg width="80" height="80" viewBox="0 0 80 80" fill="none" xmlns="http://www.w3.org/2000/svg">
<path d="M39.9884 79.7941C61.8188 79.7941 79.5159 62.097 79.5159 40.2666C79.5159 18.4362 61.8188 0.739136 39.9884 0.739136C18.158 0.739136 0.460938 18.4362 0.460938 40.2666C0.460938 62.097 18.158 79.7941 39.9884 79.7941Z" fill="#E80B0B"/>
<path d="M58.8311 30.7601C58.0406 28.3053 55.4245 26.8542 52.9956 26.5161C44.3379 25.5955 35.6069 25.5955 26.9491 26.5161C24.541 26.8542 21.925 28.3261 21.1344 30.7601C19.9018 37.0402 19.9018 43.5 21.1344 49.7801C21.9458 52.2298 24.5619 53.6861 26.9907 54.0241C35.6488 54.9395 44.3792 54.9395 53.0372 54.0241C55.4453 53.6861 58.0614 52.209 58.8519 49.7801C60.0777 43.4987 60.0706 37.0389 58.8311 30.7601ZM35.2655 47.8402V32.6949L47.597 40.2675C43.4414 42.8212 39.4055 45.3073 35.2655 47.8402Z" fill="white"/>
</svg>
