<svg width="31" height="30" viewBox="0 0 31 30" fill="none" xmlns="http://www.w3.org/2000/svg">
<path d="M15.5214 0.00402832C15.5214 0.00402832 15.5204 0.00402832 15.5194 0.00402832C6.98783 0.00402832 0.0722656 6.71003 0.0722656 14.983C0.0722656 21.291 4.09311 26.688 9.78561 28.896L9.88976 28.932C9.80005 28.337 9.74848 27.651 9.74848 26.953C9.74848 26.134 9.81861 25.331 9.95473 24.55L9.94236 24.634C10.2249 23.463 11.7543 17.19 11.7543 17.19C11.4614 16.554 11.2912 15.811 11.2912 15.03C11.2912 15.007 11.2912 14.984 11.2912 14.961V14.965C11.2912 12.887 12.537 11.327 14.0849 11.327C14.0931 11.327 14.1035 11.327 14.1138 11.327C15.1863 11.327 16.0556 12.17 16.0556 13.21C16.0556 13.29 16.0505 13.369 16.0401 13.446L16.0412 13.437C15.7246 15.34 15.2801 17.02 14.6964 18.636L14.7624 18.426C14.7191 18.587 14.6933 18.771 14.6933 18.961C14.6933 20.161 15.6967 21.134 16.9342 21.134C16.9745 21.134 17.0147 21.133 17.0549 21.131H17.0497C19.7918 21.131 21.9059 18.326 21.9059 14.274C21.908 14.22 21.909 14.156 21.909 14.092C21.909 10.827 19.1793 8.17903 15.8112 8.17903C15.6844 8.17903 15.5596 8.18303 15.4348 8.19003L15.4523 8.18903C15.3667 8.18503 15.2667 8.18303 15.1667 8.18303C11.4748 8.18303 8.48211 11.085 8.48211 14.665C8.48211 14.672 8.48211 14.679 8.48211 14.687C8.48211 15.974 8.91214 17.163 9.63917 18.128L9.62783 18.112C9.7062 18.193 9.75364 18.303 9.75364 18.423C9.75364 18.466 9.74745 18.507 9.73611 18.546L9.73714 18.543C9.62164 19.012 9.3597 20.041 9.30711 20.246C9.23905 20.527 9.08539 20.585 8.79045 20.452C6.88986 19.238 5.65236 17.178 5.65236 14.838C5.65236 14.77 5.65339 14.703 5.65545 14.636V14.646C5.65545 9.92703 9.19676 5.58403 15.8617 5.58403C15.9979 5.57703 16.1577 5.57303 16.3175 5.57303C21.2789 5.57303 25.31 9.43503 25.3874 14.228V14.235C25.3874 19.402 22.0276 23.56 17.355 23.56C17.3148 23.561 17.2663 23.562 17.2189 23.562C15.8102 23.562 14.5655 22.885 13.8095 21.849L13.8013 21.836L12.836 25.395C12.3328 26.894 11.678 28.195 10.8664 29.387L10.9055 29.326C12.272 29.751 13.8446 29.997 15.476 29.997C24.0086 29.997 30.9252 23.29 30.9252 15.016C30.9252 6.74403 24.0107 0.0380283 15.4802 0.0350283L15.5214 0.00402832Z" fill="white"/>
</svg>
