<svg id="Flat" enable-background="new 0 0 78 124.017" height="512" viewBox="0 0 78 124.017" width="512" xmlns="http://www.w3.org/2000/svg"><g><path d="m29.47 86.379v-9.752c1.28-.55 2.47-.98 3.56-1.33l-.01-.03-.02-8.25 12.18-.06.03 8.36.03.07c1.02.33 2.14.75 3.32 1.25v9.742z" fill="#f7b6ad"/><path d="m17.2 51.977c-2.7.32-5.51-1.6-6.68-4.78-1.35-3.67.01-7.63 3.04-8.83.29-.12.59-.2.89-.25 1.465 4.858 2.295 9.539 2.75 13.86z" fill="#dfa3a5"/><path d="m64.44 38.367c3.03 1.2 4.39 5.16 3.04 8.83-1.17 3.18-3.98 5.1-6.68 4.78.274-5.098 1.264-8.992 2.75-13.86.3.05.6.13.89.25z" fill="#dfa3a5"/><path d="m52.44 3.707c0-.01-.01-.01-.01-.01-.12-.09-.25-.18-.38-.26-6.38-3.75-12.94-3.43-12.94-3.43-23.51.51-27.24 20.04-27.75 28.47-.11 1.74 1.09 3.22 2.71 3.57l-.02.08c.07 2.03.2 4.04.4 5.99.52 5.3 1.48 10.18 2.75 13.86.55 1.59 1.15 2.96 1.8 4.04 2.31 3.85 7.58 8.89 14 11 1.91.63 3.93 1 6 1 2.13 0 4.21-.39 6.18-1.06 6.33-2.15 11.53-7.13 13.82-10.94.65-1.08 1.25-2.45 1.79-4.04h.01c1.27-3.68 2.23-8.56 2.75-13.86.13-1.32.24-2.66.31-4.03.09-1.67.14-3.37.14-5.07 0-7.94-2.59-19.48-11.56-25.31z" fill="#3f2313"/><path d="m58.49 32.807c.5 4.98 1.06 23.9-19.39 25.27h-.2c-23.57-1.57-19.23-26.46-19.23-26.46l-.01-.03c9.13-1.47 16.13-5.08 21.38-9.17l.07.09s3.94 6.25 17.4 10.24v.01z" fill="#f7b6ad"/><circle cx="49" cy="39.017" fill="#3f2313" r="2"/><circle cx="29" cy="39.017" fill="#3f2313" r="2"/><path d="m60.48 112.457-.48 11.56h-42l-.48-11.56c-2.82 4.64-3.52 11.56-3.52 11.56h-14c3.9-31.22 19.23-42.98 29.47-47.39l.04.09s3.89 1.92 6.89 1.98l2.56 6.45h.13l2.55-6.45c3-.06 6.89-1.98 6.89-1.98l.03-.08c10.24 4.42 25.54 16.18 29.44 47.38h-14s-.7-6.92-3.52-11.56z" fill="#1ea6bc"/><path d="m62.298 104.188-.299-4.128c.023-.552-.405-1.018-.957-1.041-.569-.022-1.018.406-1.041.957l.479 12.482c2.83 4.64 3.52 11.56 3.52 11.56h7.782c-.02-.195-6.91-4.915-9.484-19.83z" fill="#1498b7"/><path d="m14.809 104.188.299-4.128c-.023-.552.405-1.018.957-1.041.569-.022 1.018.406 1.041.957l.414 12.482c-2.83 4.64-3.52 11.56-3.52 11.56h-7.782c.019-.195 6.016-4.915 8.591-19.83z" fill="#1498b7"/><path d="m45.2 71.243-.02-4.285c-1.97.67-4.05 1.06-6.18 1.06-2.07 0-4.09-.37-6-1l.01 2.672s3.65 2.199 12.19 1.553z" fill="#dfa3a5"/><path d="m52.279 35.557c-.199 0-.399-.059-.574-.182-1.8-1.267-4.415-.849-4.441-.844-.544.101-1.063-.267-1.159-.811s.267-1.063.811-1.158c.137-.025 3.438-.584 5.939 1.176.452.318.561.941.243 1.394-.195.278-.505.425-.819.425z" fill="#3f2313"/><path d="m25.721 35.557c-.314 0-.624-.147-.819-.425-.318-.452-.209-1.075.243-1.394 2.5-1.76 5.801-1.2 5.939-1.176.544.096.907.614.811 1.158-.096.543-.61.902-1.157.812-.048-.01-2.638-.426-4.443.843-.174.124-.375.182-.574.182z" fill="#3f2313"/><path d="m39 43.727c-1.078 0-2.179-.157-3.273-.468-.531-.15-.84-.703-.689-1.234.15-.532.705-.844 1.235-.689 1.833.52 3.621.52 5.454 0 .531-.154 1.085.157 1.235.689.151.531-.158 1.084-.689 1.234-1.094.311-2.195.468-3.273.468z" fill="#ea8d81"/><path d="m52.44 3.707c0-.002-.005.008-.008.014 1.273 1.008 1.651 2.82.855 4.287-1.368 2.521-3.846 6.434-7.743 10.388-.556.564-.591 1.457-.061 2.044.409.453 1.063.621 1.629.393 6.342-2.552 9.7-7.282 11.446-11.059-1.598-2.333-3.599-4.43-6.118-6.067z" fill="#381b0d"/></g></svg>