<svg id="Flat" enable-background="new 0 0 83.75 124.017" height="512" viewBox="0 0 83.75 124.017" width="512" xmlns="http://www.w3.org/2000/svg"><g><path d="m58.09 12.107 17.7-2.92s-1.02 2.82-1.52 6.99c-.14 1.15-.24 2.4-.27 3.73l-15.15-4.32c-.935-1.358-.76-2.23-.76-3.48z" fill="#c3ddda"/><path d="m33.055 75.308-.035-.012c-1.84.59-4.01 1.44-6.33 2.67-10.04 5.271-23.13 17.551-26.69 46.051h14s.7-6.92 3.52-11.56l.48 11.56h21 21l.48-11.56c2.82 4.64 3.52 11.56 3.52 11.56h14c-3.56-28.5-16.64-40.78-26.68-46.06-2.22-1.16-4.32-1.98-6.11-2.56z" fill="#d6eae8"/><path d="m17.2 51.977c-2.7.32-5.51-1.6-6.68-4.78-1.35-3.67.01-7.63 3.04-8.83.29-.12.59-.2.89-.25h.01z" fill="#dfa3a5"/><path d="m63.54 38.117h.01c.3.05.6.13.89.25 3.03 1.2 4.39 5.16 3.04 8.83-1.17 3.18-3.98 5.1-6.68 4.78z" fill="#dfa3a5"/><path d="m45.18 66.957.03 8.29-.002.172c-1.78.58-3.928.886-6.208.886-2.19 0-4.24-.447-5.98-.987v-.02-.03l-.02-8.251z" fill="#f7b6ad"/><path d="m63.54 38.117h.01c.29-2.94.45-6.02.45-9.1v-5.94l-2.41-1.38c-.32-1.9-1.29-3.57-2.64-5.02l.02-.02c-.03-.36-.07-.72-.12-1.07-.17-1.26-.43-2.41-.76-3.48-4.05-13.07-19.09-12.09-19.09-12.09-11.43 0-15.34 6.54-16.04 7.93-3.21.92-7.965 9.991-7.965 9.991-1.56 2.55-1.035 9.329-.995 9.239v1.84c0 3.08.16 6.16.45 9.1h.01z" fill="#472d1c"/><path d="m57.596 17.27c1.324-.407 1.304-1.333 1.254-1.683l15.15 4.32c.03-1.33.13-2.58.27-3.73 0 0 5.06 2.77 9.48 2.93 0 0-4.33 5.4-4.74 12.55l-15.01-8.58-2.41-1.38z" fill="#b8d3cf"/><path d="m63.54 38.117c-.51 5.3-1.47 10.18-2.74 13.86h-.01c-.54 1.59-1.14 2.96-1.79 4.04-2.29 3.81-7.49 8.79-13.82 10.94-1.97.67-4.05 1.06-6.18 1.06-2.07 0-4.09-.37-6-1-6.42-2.11-11.69-7.15-14-11-.65-1.08-1.25-2.45-1.79-4.04h-.01c-1.27-3.68-2.23-8.56-2.74-13.86.45-.27 14.73-8.81 18.43-14.2 0 0 .71 3.57.45 6.68 0 0 6.26-2.58 10.34-8.26 0 0 7.71 10.98 19.86 15.78z" fill="#f7b6ad"/><circle cx="49" cy="38.017" fill="#543927" r="2"/><circle cx="29" cy="38.017" fill="#543927" r="2"/><path d="m22.96 7.947c3.22-.93 8.49-1.44 16.69.22 0 0 13.38 2.2 19.3 8.51 1.35 1.45 2.32 3.12 2.64 5.02 0 0-42.54-8.96-47.59 5.47 0 0-.01 0 0 .01-.04.09-.07.18-.1.28-1.25-.32-1.18-4.23-1.18-4.23s-.38-3.32 1.18-5.87c0 0 2.08-5.49 4.68-7.15 0 0 1.17-1.34 4.38-2.26z" fill="#d6eae8"/><path d="m39 42.727c-1.079 0-2.18-.158-3.273-.468-.531-.151-.839-.704-.688-1.235s.703-.838 1.235-.688c1.831.521 3.622.521 5.453 0 .53-.15 1.084.157 1.235.688s-.157 1.084-.688 1.235c-1.094.31-2.195.468-3.274.468z" fill="#ea8d81"/><path d="m30.143 12.911c-6.667-.623-13.163 1.928-15.65 3.053-.377.823-.594 1.392-.594 1.392-.284.465-.503.955-.672 1.446.523-.268 1.032-.506 1.136-.56.078-.041 7.878-4.063 15.593-3.34.542.047 1.037-.353 1.089-.902.052-.55-.352-1.037-.902-1.089z" fill="#acccc6"/><path d="m38 80.898v6.819h-5.08c-.552 0-1 .448-1 1s.448 1 1 1h5.08v9.3h-5.08c-.552 0-1 .448-1 1s.448 1 1 1h5.08v9.3h-5.08c-.552 0-1 .448-1 1s.448 1 1 1h5.08v11.68h2v-11.68h5.08c.552 0 1-.448 1-1s-.448-1-1-1h-5.08v-9.3h5.08c.552 0 1-.448 1-1s-.448-1-1-1h-5.08v-9.3h5.08c.552 0 1-.448 1-1s-.448-1-1-1h-5.08v-6.819z" fill="#655f68"/><path d="m45.21 75.396c1.79.58 3.89 1.4 6.11 2.56-2.57 1.79-7.13 2.97-12.32 2.97-5.18 0-9.74-1.18-12.31-2.96 2.32-1.23 4.49-2.08 6.33-2.67l.035.012c1.74.54 3.755.858 5.945.858 0 .001 4.439-.187 6.21-.77z" fill="#655f68"/><path d="m45.2 71.242-.02-4.285c-1.97.67-4.05 1.06-6.18 1.06-2.07 0-4.09-.37-6-1l.01 2.672s3.65 2.2 12.19 1.553z" fill="#dfa3a5"/><g fill="#b8d3cf"><path d="m62.298 104.187-.299-4.128c.023-.552-.405-1.018-.957-1.041-.569-.022-1.018.406-1.041.957l.479 12.482c2.83 4.64 3.52 11.56 3.52 11.56h7.782c-.02-.194-6.91-4.915-9.484-19.83z"/><path d="m14.809 104.187.299-4.128c-.023-.552.405-1.018.957-1.041.569-.022 1.018.406 1.041.957l.414 12.482c-2.83 4.64-3.52 11.56-3.52 11.56h-7.782c.019-.194 6.016-4.915 8.591-19.83z"/></g></g></svg>